%TF.GenerationSoftware,KiCad,Pcbnew,8.0.1*%
%TF.CreationDate,2024-05-05T16:57:19-04:00*%
%TF.ProjectId,arm,61726d2e-6b69-4636-9164-5f7063625858,rev?*%
%TF.SameCoordinates,Original*%
%TF.FileFunction,Copper,L2,Bot*%
%TF.FilePolarity,Positive*%
%FSLAX46Y46*%
G04 Gerber Fmt 4.6, Leading zero omitted, Abs format (unit mm)*
G04 Created by KiCad (PCBNEW 8.0.1) date 2024-05-05 16:57:19*
%MOMM*%
%LPD*%
G01*
G04 APERTURE LIST*
G04 Aperture macros list*
%AMRoundRect*
0 Rectangle with rounded corners*
0 $1 Rounding radius*
0 $2 $3 $4 $5 $6 $7 $8 $9 X,Y pos of 4 corners*
0 Add a 4 corners polygon primitive as box body*
4,1,4,$2,$3,$4,$5,$6,$7,$8,$9,$2,$3,0*
0 Add four circle primitives for the rounded corners*
1,1,$1+$1,$2,$3*
1,1,$1+$1,$4,$5*
1,1,$1+$1,$6,$7*
1,1,$1+$1,$8,$9*
0 Add four rect primitives between the rounded corners*
20,1,$1+$1,$2,$3,$4,$5,0*
20,1,$1+$1,$4,$5,$6,$7,0*
20,1,$1+$1,$6,$7,$8,$9,0*
20,1,$1+$1,$8,$9,$2,$3,0*%
G04 Aperture macros list end*
%TA.AperFunction,ComponentPad*%
%ADD10RoundRect,0.250001X-0.799999X-0.799999X0.799999X-0.799999X0.799999X0.799999X-0.799999X0.799999X0*%
%TD*%
%TA.AperFunction,ComponentPad*%
%ADD11C,2.100000*%
%TD*%
%TA.AperFunction,ComponentPad*%
%ADD12R,1.200000X1.200000*%
%TD*%
%TA.AperFunction,ComponentPad*%
%ADD13C,1.200000*%
%TD*%
%TA.AperFunction,ComponentPad*%
%ADD14C,1.600000*%
%TD*%
%TA.AperFunction,ComponentPad*%
%ADD15R,1.700000X1.700000*%
%TD*%
%TA.AperFunction,ComponentPad*%
%ADD16O,1.700000X1.700000*%
%TD*%
%TA.AperFunction,ComponentPad*%
%ADD17R,1.600000X1.600000*%
%TD*%
%TA.AperFunction,ComponentPad*%
%ADD18R,1.300000X1.300000*%
%TD*%
%TA.AperFunction,ComponentPad*%
%ADD19C,1.300000*%
%TD*%
%TA.AperFunction,ComponentPad*%
%ADD20R,1.508000X1.508000*%
%TD*%
%TA.AperFunction,ComponentPad*%
%ADD21C,1.508000*%
%TD*%
%TA.AperFunction,ComponentPad*%
%ADD22R,1.398000X1.398000*%
%TD*%
%TA.AperFunction,ComponentPad*%
%ADD23C,1.398000*%
%TD*%
%TA.AperFunction,ComponentPad*%
%ADD24C,1.530000*%
%TD*%
%TA.AperFunction,ComponentPad*%
%ADD25C,2.400000*%
%TD*%
%TA.AperFunction,Conductor*%
%ADD26C,0.200000*%
%TD*%
G04 APERTURE END LIST*
D10*
X98700000Y-94075000D03*
D11*
X103300000Y-94075000D03*
D12*
X108000000Y-101500000D03*
D13*
X109500000Y-101500000D03*
D14*
X116500000Y-100750000D03*
X116500000Y-103250000D03*
D15*
X108380000Y-96500000D03*
D16*
X110920000Y-96500000D03*
X113460000Y-96500000D03*
X116000000Y-96500000D03*
D15*
X108380000Y-92500000D03*
D16*
X110920000Y-92500000D03*
X113460000Y-92500000D03*
X116000000Y-92500000D03*
D17*
X76080000Y-88500000D03*
D14*
X78620000Y-88500000D03*
X81160000Y-88500000D03*
X83700000Y-88500000D03*
X86240000Y-88500000D03*
X88780000Y-88500000D03*
X91320000Y-88500000D03*
X93860000Y-88500000D03*
X96400000Y-88500000D03*
X98940000Y-88500000D03*
X101480000Y-88500000D03*
X104020000Y-88500000D03*
X106560000Y-88500000D03*
X109100000Y-88500000D03*
X111640000Y-88500000D03*
X114180000Y-88500000D03*
X116720000Y-88500000D03*
X119260000Y-88500000D03*
X121800000Y-88500000D03*
X124340000Y-88500000D03*
X126880000Y-88500000D03*
X129420000Y-88500000D03*
X131960000Y-88500000D03*
X134500000Y-88500000D03*
X134500000Y-73260000D03*
X131960000Y-73260000D03*
X129420000Y-73260000D03*
X126880000Y-73260000D03*
X124340000Y-73260000D03*
X121800000Y-73260000D03*
X119260000Y-73260000D03*
X116720000Y-73260000D03*
X114180000Y-73260000D03*
X111640000Y-73260000D03*
X109100000Y-73260000D03*
X106560000Y-73260000D03*
X104020000Y-73260000D03*
X101480000Y-73260000D03*
X98940000Y-73260000D03*
X96400000Y-73260000D03*
X93860000Y-73260000D03*
X91320000Y-73260000D03*
X88780000Y-73260000D03*
X86240000Y-73260000D03*
X83700000Y-73260000D03*
X81160000Y-73260000D03*
X78620000Y-73260000D03*
X76080000Y-73260000D03*
X78620000Y-75800000D03*
X121800000Y-85960000D03*
X121800000Y-83420000D03*
X121800000Y-80880000D03*
X121800000Y-78340000D03*
X121800000Y-75800000D03*
D17*
X82379200Y-85449200D03*
D14*
X84919200Y-85449200D03*
X87459200Y-85449200D03*
X89999200Y-85449200D03*
X92539200Y-85449200D03*
D18*
X89050000Y-75698400D03*
D19*
X89050000Y-77698400D03*
X89050000Y-79698400D03*
X91050000Y-79698400D03*
X91050000Y-77698400D03*
X91050000Y-75698400D03*
X76810000Y-79610000D03*
X76810000Y-82150000D03*
D15*
X138900000Y-78180000D03*
D16*
X138900000Y-80720000D03*
X138900000Y-83260000D03*
X138900000Y-85800000D03*
D15*
X139000000Y-93960000D03*
D16*
X139000000Y-96500000D03*
X139000000Y-99040000D03*
X139000000Y-101580000D03*
D20*
X76000000Y-107200000D03*
D21*
X78540000Y-107200000D03*
X81080000Y-107200000D03*
X83620000Y-107200000D03*
X86160000Y-107200000D03*
X88700000Y-107200000D03*
X91240000Y-107200000D03*
X93780000Y-107200000D03*
X76000000Y-94500000D03*
X78540000Y-94500000D03*
X81080000Y-94500000D03*
X83620000Y-94500000D03*
X86160000Y-94500000D03*
X88700000Y-94500000D03*
X91240000Y-94500000D03*
X93780000Y-94500000D03*
X93780000Y-99580000D03*
X93780000Y-97040000D03*
D22*
X122960000Y-95040000D03*
D23*
X124230000Y-92500000D03*
X125500000Y-95040000D03*
X126770000Y-92500000D03*
X128040000Y-95040000D03*
X129310000Y-92500000D03*
X130580000Y-95040000D03*
X131850000Y-92500000D03*
D24*
X121080000Y-106290000D03*
X123595000Y-104770000D03*
X131215000Y-106290000D03*
X133730000Y-104770000D03*
D25*
X135280000Y-98340000D03*
X119530000Y-98340000D03*
D26*
X120532183Y-82032183D02*
X120500000Y-82000000D01*
X129310000Y-92500000D02*
X127980000Y-91170000D01*
X119500000Y-80500000D02*
X119500000Y-83500000D01*
X120500000Y-80500000D02*
X119500000Y-80500000D01*
X97351600Y-82000000D02*
X91050000Y-75698400D01*
X127980000Y-88044365D02*
X121967817Y-82032183D01*
X120500000Y-82000000D02*
X120500000Y-80500000D01*
X118500000Y-82000000D02*
X97351600Y-82000000D01*
X118500000Y-83500000D02*
X118500000Y-82000000D01*
X121967817Y-82032183D02*
X120532183Y-82032183D01*
X119500000Y-83500000D02*
X118500000Y-83500000D01*
X127980000Y-91170000D02*
X127980000Y-88044365D01*
X129723800Y-93499000D02*
X130520000Y-92702800D01*
X125500000Y-95040000D02*
X127041000Y-93499000D01*
X127041000Y-93499000D02*
X129723800Y-93499000D01*
X130520000Y-88044365D02*
X122255635Y-79780000D01*
X130520000Y-92702800D02*
X130520000Y-88044365D01*
X122255635Y-79780000D02*
X96475103Y-79780000D01*
X90000000Y-74748400D02*
X89050000Y-75698400D01*
X91443503Y-74748400D02*
X90000000Y-74748400D01*
X96475103Y-79780000D02*
X91443503Y-74748400D01*
X95000000Y-83648400D02*
X91050000Y-79698400D01*
X118020000Y-90100000D02*
X96444365Y-90100000D01*
X122960000Y-95040000D02*
X118020000Y-90100000D01*
X95000000Y-88655635D02*
X95000000Y-83648400D01*
X96444365Y-90100000D02*
X95000000Y-88655635D01*
X121430000Y-89700000D02*
X98584365Y-89700000D01*
X91443503Y-78748400D02*
X90000000Y-78748400D01*
X98584365Y-89700000D02*
X97500000Y-88615635D01*
X90000000Y-78748400D02*
X89050000Y-79698400D01*
X124230000Y-92500000D02*
X121430000Y-89700000D01*
X97500000Y-84804897D02*
X91443503Y-78748400D01*
X97500000Y-88615635D02*
X97500000Y-84804897D01*
X117150000Y-95350000D02*
X117150000Y-91650000D01*
X117150000Y-91650000D02*
X116000000Y-90500000D01*
X116000000Y-90500000D02*
X76000000Y-90500000D01*
X116000000Y-96500000D02*
X117150000Y-95350000D01*
X74500000Y-89000000D02*
X74500000Y-74840000D01*
X76000000Y-90500000D02*
X74500000Y-89000000D01*
X74500000Y-74840000D02*
X76080000Y-73260000D01*
X73700000Y-101560000D02*
X79340000Y-107200000D01*
X81160000Y-73260000D02*
X79660000Y-71760000D01*
X79660000Y-71760000D02*
X74740000Y-71760000D01*
X74740000Y-71760000D02*
X73700000Y-72800000D01*
X73700000Y-72800000D02*
X73700000Y-101560000D01*
X108000000Y-101500000D02*
X108000000Y-99420000D01*
X106875000Y-97650000D02*
X103300000Y-94075000D01*
X109770000Y-97650000D02*
X106875000Y-97650000D01*
X110920000Y-96500000D02*
X109770000Y-97650000D01*
X103300000Y-94075000D02*
X93780000Y-103595000D01*
X93780000Y-103595000D02*
X93780000Y-107200000D01*
X108000000Y-99420000D02*
X110920000Y-96500000D01*
X117900000Y-96500000D02*
X139000000Y-96500000D01*
X75624365Y-72160000D02*
X74100000Y-73684365D01*
X116750000Y-97650000D02*
X117900000Y-96500000D01*
X113460000Y-97540000D02*
X113460000Y-96500000D01*
X109500000Y-101500000D02*
X113460000Y-97540000D01*
X78620000Y-73260000D02*
X77520000Y-72160000D01*
X114610000Y-97650000D02*
X116750000Y-97650000D01*
X77520000Y-72160000D02*
X75624365Y-72160000D01*
X98700000Y-94075000D02*
X98700000Y-96150582D01*
X74100000Y-89665685D02*
X75434315Y-91000000D01*
X77854000Y-108254000D02*
X90986000Y-108254000D01*
X98700000Y-92300000D02*
X100000000Y-91000000D01*
X75434315Y-91000000D02*
X100000000Y-91000000D01*
X100000000Y-91000000D02*
X104580000Y-91000000D01*
X139000000Y-93960000D02*
X139000000Y-101580000D01*
X108580000Y-95000000D02*
X111960000Y-95000000D01*
X113460000Y-96500000D02*
X114610000Y-97650000D01*
X91240000Y-103610582D02*
X91240000Y-107200000D01*
X98700000Y-96150582D02*
X91240000Y-103610582D01*
X90986000Y-108254000D02*
X92040000Y-107200000D01*
X98700000Y-94075000D02*
X98700000Y-92300000D01*
X76800000Y-107200000D02*
X77854000Y-108254000D01*
X104580000Y-91000000D02*
X108580000Y-95000000D01*
X74100000Y-73684365D02*
X74100000Y-89665685D01*
X111960000Y-95000000D02*
X113460000Y-96500000D01*
M02*
