M48
; DRILL file {KiCad 8.0.1} date 2024-05-05T16:57:59-0400
; FORMAT={-:-/ absolute / metric / decimal}
; #@! TF.CreationDate,2024-05-05T16:57:59-04:00
; #@! TF.GenerationSoftware,Kicad,Pcbnew,8.0.1
; #@! TF.FileFunction,Plated,1,2,PTH
FMAT,2
METRIC
; #@! TA.AperFunction,Plated,PTH,ComponentDrill
T1C0.600
; #@! TA.AperFunction,Plated,PTH,ComponentDrill
T2C0.800
; #@! TA.AperFunction,Plated,PTH,ComponentDrill
T3C0.890
; #@! TA.AperFunction,Plated,PTH,ComponentDrill
T4C1.000
; #@! TA.AperFunction,Plated,PTH,ComponentDrill
T5C1.020
; #@! TA.AperFunction,Plated,PTH,ComponentDrill
T6C1.100
; #@! TA.AperFunction,Plated,PTH,ComponentDrill
T7C1.600
%
G90
G05
T1
X108.0Y-101.5
X109.5Y-101.5
T2
X76.81Y-79.61
X76.81Y-82.15
X89.05Y-75.698
X89.05Y-77.698
X89.05Y-79.698
X91.05Y-75.698
X91.05Y-77.698
X91.05Y-79.698
X116.5Y-100.75
X116.5Y-103.25
T3
X122.96Y-95.04
X124.23Y-92.5
X125.5Y-95.04
X126.77Y-92.5
X128.04Y-95.04
X129.31Y-92.5
X130.58Y-95.04
X131.85Y-92.5
T4
X76.0Y-94.5
X76.0Y-107.2
X78.54Y-94.5
X78.54Y-107.2
X81.08Y-94.5
X81.08Y-107.2
X83.62Y-94.5
X83.62Y-107.2
X86.16Y-94.5
X86.16Y-107.2
X88.7Y-94.5
X88.7Y-107.2
X91.24Y-94.5
X91.24Y-107.2
X93.78Y-94.5
X93.78Y-97.04
X93.78Y-99.58
X93.78Y-107.2
X108.38Y-92.5
X108.38Y-96.5
X110.92Y-92.5
X110.92Y-96.5
X113.46Y-92.5
X113.46Y-96.5
X116.0Y-92.5
X116.0Y-96.5
X138.9Y-78.18
X138.9Y-80.72
X138.9Y-83.26
X138.9Y-85.8
X139.0Y-93.96
X139.0Y-96.5
X139.0Y-99.04
X139.0Y-101.58
T5
X121.08Y-106.29
X123.595Y-104.77
X131.215Y-106.29
X133.73Y-104.77
T6
X76.08Y-73.26
X76.08Y-88.5
X78.62Y-73.26
X78.62Y-75.8
X78.62Y-88.5
X81.16Y-73.26
X81.16Y-88.5
X82.379Y-85.449
X83.7Y-73.26
X83.7Y-88.5
X84.919Y-85.449
X86.24Y-73.26
X86.24Y-88.5
X87.459Y-85.449
X88.78Y-73.26
X88.78Y-88.5
X89.999Y-85.449
X91.32Y-73.26
X91.32Y-88.5
X92.539Y-85.449
X93.86Y-73.26
X93.86Y-88.5
X96.4Y-73.26
X96.4Y-88.5
X98.7Y-94.075
X98.94Y-73.26
X98.94Y-88.5
X101.48Y-73.26
X101.48Y-88.5
X103.3Y-94.075
X104.02Y-73.26
X104.02Y-88.5
X106.56Y-73.26
X106.56Y-88.5
X109.1Y-73.26
X109.1Y-88.5
X111.64Y-73.26
X111.64Y-88.5
X114.18Y-73.26
X114.18Y-88.5
X116.72Y-73.26
X116.72Y-88.5
X119.26Y-73.26
X119.26Y-88.5
X121.8Y-73.26
X121.8Y-75.8
X121.8Y-78.34
X121.8Y-80.88
X121.8Y-83.42
X121.8Y-85.96
X121.8Y-88.5
X124.34Y-73.26
X124.34Y-88.5
X126.88Y-73.26
X126.88Y-88.5
X129.42Y-73.26
X129.42Y-88.5
X131.96Y-73.26
X131.96Y-88.5
X134.5Y-73.26
X134.5Y-88.5
T7
X119.53Y-98.34
X135.28Y-98.34
M30
