%TF.GenerationSoftware,KiCad,Pcbnew,9.0.1*%
%TF.CreationDate,2025-05-12T19:20:38-04:00*%
%TF.ProjectId,science-board-new,73636965-6e63-4652-9d62-6f6172642d6e,rev?*%
%TF.SameCoordinates,Original*%
%TF.FileFunction,Copper,L1,Top*%
%TF.FilePolarity,Positive*%
%FSLAX46Y46*%
G04 Gerber Fmt 4.6, Leading zero omitted, Abs format (unit mm)*
G04 Created by KiCad (PCBNEW 9.0.1) date 2025-05-12 19:20:38*
%MOMM*%
%LPD*%
G01*
G04 APERTURE LIST*
G04 Aperture macros list*
%AMRoundRect*
0 Rectangle with rounded corners*
0 $1 Rounding radius*
0 $2 $3 $4 $5 $6 $7 $8 $9 X,Y pos of 4 corners*
0 Add a 4 corners polygon primitive as box body*
4,1,4,$2,$3,$4,$5,$6,$7,$8,$9,$2,$3,0*
0 Add four circle primitives for the rounded corners*
1,1,$1+$1,$2,$3*
1,1,$1+$1,$4,$5*
1,1,$1+$1,$6,$7*
1,1,$1+$1,$8,$9*
0 Add four rect primitives between the rounded corners*
20,1,$1+$1,$2,$3,$4,$5,0*
20,1,$1+$1,$4,$5,$6,$7,0*
20,1,$1+$1,$6,$7,$8,$9,0*
20,1,$1+$1,$8,$9,$2,$3,0*%
G04 Aperture macros list end*
%TA.AperFunction,ComponentPad*%
%ADD10O,1.600000X1.600000*%
%TD*%
%TA.AperFunction,ComponentPad*%
%ADD11R,1.600000X1.600000*%
%TD*%
%TA.AperFunction,ComponentPad*%
%ADD12O,1.700000X2.000000*%
%TD*%
%TA.AperFunction,ComponentPad*%
%ADD13RoundRect,0.250000X-0.600000X-0.750000X0.600000X-0.750000X0.600000X0.750000X-0.600000X0.750000X0*%
%TD*%
%TA.AperFunction,ComponentPad*%
%ADD14R,1.700000X1.700000*%
%TD*%
%TA.AperFunction,ComponentPad*%
%ADD15O,1.700000X1.700000*%
%TD*%
%TA.AperFunction,ComponentPad*%
%ADD16RoundRect,0.250000X0.725000X-0.600000X0.725000X0.600000X-0.725000X0.600000X-0.725000X-0.600000X0*%
%TD*%
%TA.AperFunction,ComponentPad*%
%ADD17O,1.950000X1.700000*%
%TD*%
%TA.AperFunction,ComponentPad*%
%ADD18RoundRect,0.381000X0.762000X0.381000X-0.762000X0.381000X-0.762000X-0.381000X0.762000X-0.381000X0*%
%TD*%
%TA.AperFunction,ComponentPad*%
%ADD19RoundRect,0.381000X-0.762000X-0.381000X0.762000X-0.381000X0.762000X0.381000X-0.762000X0.381000X0*%
%TD*%
%TA.AperFunction,ComponentPad*%
%ADD20RoundRect,0.250000X-0.750000X0.600000X-0.750000X-0.600000X0.750000X-0.600000X0.750000X0.600000X0*%
%TD*%
%TA.AperFunction,ComponentPad*%
%ADD21O,2.000000X1.700000*%
%TD*%
%TA.AperFunction,ComponentPad*%
%ADD22C,1.600000*%
%TD*%
%TA.AperFunction,ComponentPad*%
%ADD23R,1.300000X1.300000*%
%TD*%
%TA.AperFunction,ComponentPad*%
%ADD24C,1.300000*%
%TD*%
%TA.AperFunction,ComponentPad*%
%ADD25R,1.200000X1.200000*%
%TD*%
%TA.AperFunction,ComponentPad*%
%ADD26C,1.200000*%
%TD*%
%TA.AperFunction,ComponentPad*%
%ADD27RoundRect,0.250000X-0.725000X0.600000X-0.725000X-0.600000X0.725000X-0.600000X0.725000X0.600000X0*%
%TD*%
%TA.AperFunction,ComponentPad*%
%ADD28RoundRect,0.250000X0.750000X-0.600000X0.750000X0.600000X-0.750000X0.600000X-0.750000X-0.600000X0*%
%TD*%
%TA.AperFunction,Conductor*%
%ADD29C,0.200000*%
%TD*%
G04 APERTURE END LIST*
D10*
%TO.P,Switch1,2*%
%TO.N,Net-(24To5V1-Vin)*%
X78102500Y-128700000D03*
D11*
%TO.P,Switch1,1*%
%TO.N,Net-(24V1-Pin_1)*%
X70482500Y-128700000D03*
%TD*%
D12*
%TO.P,24V1,2,Pin_2*%
%TO.N,/GND_Teensy*%
X75000000Y-120000000D03*
D13*
%TO.P,24V1,1,Pin_1*%
%TO.N,Net-(24V1-Pin_1)*%
X72500000Y-120000000D03*
%TD*%
%TO.P,Serial3,1,Pin_1*%
%TO.N,/TX_Serial_3*%
X118580000Y-105390000D03*
D12*
%TO.P,Serial3,2,Pin_2*%
%TO.N,/RX_Serial_3*%
X121080000Y-105390000D03*
%TD*%
D14*
%TO.P,24To5V1,1,SHDN*%
%TO.N,unconnected-(24To5V1-SHDN-Pad1)*%
X126080000Y-85690000D03*
D15*
%TO.P,24To5V1,2,Vin*%
%TO.N,Net-(24To5V1-Vin)*%
X126080000Y-83150000D03*
%TO.P,24To5V1,3,GND*%
%TO.N,/GND_Teensy*%
X126080000Y-80610000D03*
%TO.P,24To5V1,4,Vout*%
%TO.N,Net-(24To5V1-Vout)*%
X126080000Y-78070000D03*
%TD*%
D16*
%TO.P,Stepper2,1,Pin_1*%
%TO.N,Net-(Stepper2-Pin_1)*%
X129800000Y-123940000D03*
D17*
%TO.P,Stepper2,2,Pin_2*%
%TO.N,Net-(Stepper2-Pin_2)*%
X129800000Y-121440000D03*
%TO.P,Stepper2,3,Pin_3*%
%TO.N,Net-(Stepper2-Pin_3)*%
X129800000Y-118940000D03*
%TO.P,Stepper2,4,Pin_4*%
%TO.N,Net-(Stepper2-Pin_4)*%
X129800000Y-116440000D03*
%TD*%
D18*
%TO.P,StepperController1,1,EN*%
%TO.N,/OUT_2*%
X86500000Y-90640000D03*
%TO.P,StepperController1,2,MS1*%
%TO.N,unconnected-(StepperController1-MS1-Pad2)*%
X86500000Y-88100000D03*
%TO.P,StepperController1,3,MS2*%
%TO.N,unconnected-(StepperController1-MS2-Pad3)*%
X86500000Y-85560000D03*
%TO.P,StepperController1,4,RX*%
%TO.N,/TX_Stepper_Motor_1*%
X86500000Y-83020000D03*
%TO.P,StepperController1,5,TX*%
%TO.N,/RX_Stepper_Motor_1*%
X86500000Y-80480000D03*
%TO.P,StepperController1,6,CLK*%
%TO.N,unconnected-(StepperController1-CLK-Pad6)*%
X86500000Y-77940000D03*
%TO.P,StepperController1,7,STEP*%
%TO.N,/STEP_Stepper_Motor_1*%
X86500000Y-75400000D03*
%TO.P,StepperController1,8,DIR*%
%TO.N,/DIR_Stepper_Motor_1*%
X86500000Y-72860000D03*
%TO.P,StepperController1,9,VS*%
%TO.N,Net-(24To5V1-Vin)*%
X73800000Y-90640000D03*
%TO.P,StepperController1,10,GND*%
%TO.N,/GND_Teensy*%
X73800000Y-88100000D03*
%TO.P,StepperController1,11,A2*%
%TO.N,Net-(Stepper1-Pin_4)*%
X73800000Y-85560000D03*
%TO.P,StepperController1,12,A1*%
%TO.N,Net-(Stepper1-Pin_3)*%
X73800000Y-83020000D03*
%TO.P,StepperController1,13,B1*%
%TO.N,Net-(Stepper1-Pin_2)*%
X73800000Y-80480000D03*
%TO.P,StepperController1,14,B2*%
%TO.N,Net-(Stepper1-Pin_1)*%
X73800000Y-77940000D03*
%TO.P,StepperController1,15,VIO*%
%TO.N,/3v3_Stepper_Motor_1*%
X73800000Y-75400000D03*
%TO.P,StepperController1,16,GND*%
%TO.N,/GND_Teensy*%
X73800000Y-72860000D03*
%TD*%
D19*
%TO.P,StepperController2,1,EN*%
%TO.N,/OUT_1*%
X112380000Y-111690000D03*
%TO.P,StepperController2,2,MS1*%
%TO.N,unconnected-(StepperController2-MS1-Pad2)*%
X112380000Y-114230000D03*
%TO.P,StepperController2,3,MS2*%
%TO.N,unconnected-(StepperController2-MS2-Pad3)*%
X112380000Y-116770000D03*
%TO.P,StepperController2,4,RX*%
%TO.N,/TX_Stepper_Motor_2*%
X112380000Y-119310000D03*
%TO.P,StepperController2,5,TX*%
%TO.N,/RX_Stepper_Motor_2*%
X112380000Y-121850000D03*
%TO.P,StepperController2,6,CLK*%
%TO.N,unconnected-(StepperController2-CLK-Pad6)*%
X112380000Y-124390000D03*
%TO.P,StepperController2,7,STEP*%
%TO.N,/STEP_Stepper_Motor_2*%
X112380000Y-126930000D03*
%TO.P,StepperController2,8,DIR*%
%TO.N,/DIR_Stepper_Motor_2*%
X112380000Y-129470000D03*
%TO.P,StepperController2,9,VS*%
%TO.N,Net-(24To5V1-Vin)*%
X125080000Y-111690000D03*
%TO.P,StepperController2,10,GND*%
%TO.N,/GND_Teensy*%
X125080000Y-114230000D03*
%TO.P,StepperController2,11,A2*%
%TO.N,Net-(Stepper2-Pin_4)*%
X125080000Y-116770000D03*
%TO.P,StepperController2,12,A1*%
%TO.N,Net-(Stepper2-Pin_3)*%
X125080000Y-119310000D03*
%TO.P,StepperController2,13,B1*%
%TO.N,Net-(Stepper2-Pin_2)*%
X125080000Y-121850000D03*
%TO.P,StepperController2,14,B2*%
%TO.N,Net-(Stepper2-Pin_1)*%
X125080000Y-124390000D03*
%TO.P,StepperController2,15,VIO*%
%TO.N,/3v3_Stepper_Motor_2*%
X125080000Y-126930000D03*
%TO.P,StepperController2,16,GND*%
%TO.N,/GND_Teensy*%
X125080000Y-129470000D03*
%TD*%
D20*
%TO.P,BrushedMotorControllerSerial1,1,Pin_1*%
%TO.N,/RX_drill*%
X84880000Y-120140000D03*
D21*
%TO.P,BrushedMotorControllerSerial1,2,Pin_2*%
%TO.N,/TX_drill*%
X84880000Y-122640000D03*
%TD*%
D11*
%TO.P,U1,1,GND*%
%TO.N,/GND_Teensy*%
X90370000Y-71790000D03*
D22*
%TO.P,U1,2,0_RX1_CRX2_CS1*%
%TO.N,/RX_Stepper_Motor_1*%
X90370000Y-74330000D03*
%TO.P,U1,3,1_TX1_CTX2_MISO1*%
%TO.N,/TX_Stepper_Motor_1*%
X90370000Y-76870000D03*
%TO.P,U1,4,2_OUT2*%
%TO.N,/OUT_2*%
X90370000Y-79410000D03*
%TO.P,U1,5,3_LRCLK2*%
%TO.N,unconnected-(U1-3_LRCLK2-Pad5)*%
X90370000Y-81950000D03*
%TO.P,U1,6,4_BCLK2*%
%TO.N,unconnected-(U1-4_BCLK2-Pad6)*%
X90370000Y-84490000D03*
%TO.P,U1,7,5_IN2*%
%TO.N,unconnected-(U1-5_IN2-Pad7)*%
X90370000Y-87030000D03*
%TO.P,U1,8,6_OUT1D*%
%TO.N,unconnected-(U1-6_OUT1D-Pad8)*%
X90370000Y-89570000D03*
%TO.P,U1,9,7_RX2_OUT1A*%
%TO.N,/RX_Stepper_Motor_2*%
X90370000Y-92110000D03*
%TO.P,U1,10,8_TX2_IN1*%
%TO.N,/TX_Stepper_Motor_2*%
X90370000Y-94650000D03*
%TO.P,U1,11,9_OUT1C*%
%TO.N,/OUT_1*%
X90370000Y-97190000D03*
%TO.P,U1,12,10_CS_MQSR*%
%TO.N,/DIR_Stepper_Motor_2*%
X90370000Y-99730000D03*
%TO.P,U1,13,11_MOSI_CTX1*%
%TO.N,/STEP_Stepper_Motor_2*%
X90370000Y-102270000D03*
%TO.P,U1,14,12_MISO_MQSL*%
%TO.N,/STEP_Stepper_Motor_1*%
X90370000Y-104810000D03*
%TO.P,U1,15,3V3*%
%TO.N,/3v3_Stepper_Motor_2*%
X90370000Y-107350000D03*
%TO.P,U1,16,24_A10_TX6_SCL2*%
%TO.N,unconnected-(U1-24_A10_TX6_SCL2-Pad16)*%
X90370000Y-109890000D03*
%TO.P,U1,17,25_A11_RX6_SDA2*%
%TO.N,unconnected-(U1-25_A11_RX6_SDA2-Pad17)*%
X90370000Y-112430000D03*
%TO.P,U1,18,26_A12_MOSI1*%
%TO.N,unconnected-(U1-26_A12_MOSI1-Pad18)*%
X90370000Y-114970000D03*
%TO.P,U1,19,27_A13_SCK1*%
%TO.N,/DIR_Stepper_Motor_1*%
X90370000Y-117510000D03*
%TO.P,U1,20,28_RX7*%
%TO.N,/RX_drill*%
X90370000Y-120050000D03*
%TO.P,U1,21,29_TX7*%
%TO.N,/TX_drill*%
X90370000Y-122590000D03*
%TO.P,U1,22,30_CRX3*%
%TO.N,unconnected-(U1-30_CRX3-Pad22)*%
X90370000Y-125130000D03*
%TO.P,U1,23,31_CTX3*%
%TO.N,unconnected-(U1-31_CTX3-Pad23)*%
X90370000Y-127670000D03*
%TO.P,U1,24,32_OUT1B*%
%TO.N,unconnected-(U1-32_OUT1B-Pad24)*%
X90370000Y-130210000D03*
%TO.P,U1,25,33_MCLK2*%
%TO.N,unconnected-(U1-33_MCLK2-Pad25)*%
X105610000Y-130210000D03*
%TO.P,U1,26,34_RX8*%
%TO.N,/RX_Serial_3*%
X105610000Y-127670000D03*
%TO.P,U1,27,35_TX8*%
%TO.N,/TX_Serial_3*%
X105610000Y-125130000D03*
%TO.P,U1,28,36_CS*%
%TO.N,unconnected-(U1-36_CS-Pad28)*%
X105610000Y-122590000D03*
%TO.P,U1,29,37_CS*%
%TO.N,unconnected-(U1-37_CS-Pad29)*%
X105610000Y-120050000D03*
%TO.P,U1,30,38_CS1_IN1*%
%TO.N,unconnected-(U1-38_CS1_IN1-Pad30)*%
X105610000Y-117510000D03*
%TO.P,U1,31,39_MISO1_OUT1A*%
%TO.N,unconnected-(U1-39_MISO1_OUT1A-Pad31)*%
X105610000Y-114970000D03*
%TO.P,U1,32,40_A16*%
%TO.N,unconnected-(U1-40_A16-Pad32)*%
X105610000Y-112430000D03*
%TO.P,U1,33,41_A17*%
%TO.N,unconnected-(U1-41_A17-Pad33)*%
X105610000Y-109890000D03*
%TO.P,U1,34,GND*%
%TO.N,/GND_Teensy*%
X105610000Y-107350000D03*
%TO.P,U1,35,13_SCK_LED*%
%TO.N,unconnected-(U1-13_SCK_LED-Pad35)*%
X105610000Y-104810000D03*
%TO.P,U1,36,14_A0_TX3_SPDIF_OUT*%
%TO.N,/TX_Serial_2*%
X105610000Y-102270000D03*
%TO.P,U1,37,15_A1_RX3_SPDIF_IN*%
%TO.N,/RX_Serial_2*%
X105610000Y-99730000D03*
%TO.P,U1,38,16_A2_RX4_SCL1*%
%TO.N,/RX_Serial_1*%
X105610000Y-97190000D03*
%TO.P,U1,39,17_A3_TX4_SDA1*%
%TO.N,/TX_Serial_1*%
X105610000Y-94650000D03*
%TO.P,U1,40,18_A4_SDA*%
%TO.N,unconnected-(U1-18_A4_SDA-Pad40)*%
X105610000Y-92110000D03*
%TO.P,U1,41,19_A5_SCL*%
%TO.N,unconnected-(U1-19_A5_SCL-Pad41)*%
X105610000Y-89570000D03*
%TO.P,U1,42,20_A6_TX5_LRCLK1*%
%TO.N,/TX_5_H_Bridge*%
X105610000Y-87030000D03*
%TO.P,U1,43,21_A7_RX5_BCLK1*%
%TO.N,/RX_5_H_Bridge*%
X105610000Y-84490000D03*
%TO.P,U1,44,22_A8_CTX1*%
%TO.N,unconnected-(U1-22_A8_CTX1-Pad44)*%
X105610000Y-81950000D03*
%TO.P,U1,45,23_A9_CRX1_MCLK1*%
%TO.N,unconnected-(U1-23_A9_CRX1_MCLK1-Pad45)*%
X105610000Y-79410000D03*
%TO.P,U1,46,3V3*%
%TO.N,/3v3_Stepper_Motor_1*%
X105610000Y-76870000D03*
%TO.P,U1,47,GND*%
%TO.N,/GND_Teensy*%
X105610000Y-74330000D03*
%TO.P,U1,48,VIN*%
%TO.N,Net-(24To5V1-Vout)*%
X105610000Y-71790000D03*
%TO.P,U1,49,VUSB*%
%TO.N,unconnected-(U1-VUSB-Pad49)*%
X103070000Y-74330000D03*
%TO.P,U1,50,VBAT*%
%TO.N,unconnected-(U1-VBAT-Pad50)*%
X92910000Y-117510000D03*
%TO.P,U1,51,3V3*%
%TO.N,unconnected-(U1-3V3-Pad51)*%
X95450000Y-117510000D03*
%TO.P,U1,52,GND*%
%TO.N,unconnected-(U1-GND-Pad52)*%
X97990000Y-117510000D03*
%TO.P,U1,53,PROGRAM*%
%TO.N,unconnected-(U1-PROGRAM-Pad53)*%
X100530000Y-117510000D03*
%TO.P,U1,54,ON_OFF*%
%TO.N,unconnected-(U1-ON_OFF-Pad54)*%
X103070000Y-117510000D03*
D11*
%TO.P,U1,55,5V*%
%TO.N,unconnected-(U1-5V-Pad55)*%
X93420800Y-78089200D03*
D22*
%TO.P,U1,56,D-*%
%TO.N,unconnected-(U1-D--Pad56)*%
X93420800Y-80629200D03*
%TO.P,U1,57,D+*%
%TO.N,unconnected-(U1-D+-Pad57)*%
X93420800Y-83169200D03*
%TO.P,U1,58,GND*%
%TO.N,unconnected-(U1-GND-Pad58)*%
X93420800Y-85709200D03*
%TO.P,U1,59,GND*%
%TO.N,unconnected-(U1-GND-Pad59)*%
X93420800Y-88249200D03*
D23*
%TO.P,U1,60,R+*%
%TO.N,unconnected-(U1-R+-Pad60)*%
X103171600Y-84760000D03*
D24*
%TO.P,U1,61,LED*%
%TO.N,unconnected-(U1-LED-Pad61)*%
X101171600Y-84760000D03*
%TO.P,U1,62,T-*%
%TO.N,unconnected-(U1-T--Pad62)*%
X99171600Y-84760000D03*
%TO.P,U1,63,T+*%
%TO.N,unconnected-(U1-T+-Pad63)*%
X99171600Y-86760000D03*
%TO.P,U1,64,GND*%
%TO.N,unconnected-(U1-GND-Pad64)*%
X101171600Y-86760000D03*
%TO.P,U1,65,R-*%
%TO.N,unconnected-(U1-R--Pad65)*%
X103171600Y-86760000D03*
%TO.P,U1,66,D-*%
%TO.N,unconnected-(U1-D--Pad66)*%
X99260000Y-72520000D03*
%TO.P,U1,67,D+*%
%TO.N,unconnected-(U1-D+-Pad67)*%
X96720000Y-72520000D03*
%TD*%
D25*
%TO.P,C1,1*%
%TO.N,Net-(24To5V1-Vin)*%
X127580000Y-105390000D03*
D26*
%TO.P,C1,2*%
%TO.N,/GND_Teensy*%
X129080000Y-105390000D03*
%TD*%
D20*
%TO.P,Serial1,1,Pin_1*%
%TO.N,/TX_Serial_1*%
X111880000Y-94390000D03*
D21*
%TO.P,Serial1,2,Pin_2*%
%TO.N,/RX_Serial_1*%
X111880000Y-96890000D03*
%TD*%
D27*
%TO.P,Stepper1,1,Pin_1*%
%TO.N,Net-(Stepper1-Pin_1)*%
X70080000Y-77890000D03*
D17*
%TO.P,Stepper1,2,Pin_2*%
%TO.N,Net-(Stepper1-Pin_2)*%
X70080000Y-80390000D03*
%TO.P,Stepper1,3,Pin_3*%
%TO.N,Net-(Stepper1-Pin_3)*%
X70080000Y-82890000D03*
%TO.P,Stepper1,4,Pin_4*%
%TO.N,Net-(Stepper1-Pin_4)*%
X70080000Y-85390000D03*
%TD*%
D28*
%TO.P,Serial2,1,Pin_1*%
%TO.N,/TX_Serial_2*%
X111280000Y-106140000D03*
D21*
%TO.P,Serial2,2,Pin_2*%
%TO.N,/RX_Serial_2*%
X111280000Y-103640000D03*
%TD*%
D20*
%TO.P,H_Bridge_Serial1,1,Pin_1*%
%TO.N,/RX_5_H_Bridge*%
X111880000Y-84640000D03*
D21*
%TO.P,H_Bridge_Serial1,2,Pin_2*%
%TO.N,/TX_5_H_Bridge*%
X111880000Y-87140000D03*
%TD*%
D29*
%TO.N,Net-(Stepper1-Pin_1)*%
X73800000Y-77940000D02*
X70130000Y-77940000D01*
X70130000Y-77940000D02*
X70080000Y-77890000D01*
%TO.N,Net-(Stepper1-Pin_3)*%
X70210000Y-83020000D02*
X70080000Y-82890000D01*
X73800000Y-83020000D02*
X70210000Y-83020000D01*
%TO.N,Net-(Stepper1-Pin_2)*%
X70170000Y-80480000D02*
X70080000Y-80390000D01*
X73800000Y-80480000D02*
X70170000Y-80480000D01*
%TO.N,Net-(Stepper1-Pin_4)*%
X70250000Y-85560000D02*
X70080000Y-85390000D01*
X73800000Y-85560000D02*
X70250000Y-85560000D01*
%TO.N,Net-(Stepper2-Pin_2)*%
X129390000Y-121850000D02*
X129800000Y-121440000D01*
X125080000Y-121850000D02*
X129390000Y-121850000D01*
%TO.N,Net-(Stepper2-Pin_4)*%
X125080000Y-116770000D02*
X129470000Y-116770000D01*
X129470000Y-116770000D02*
X129800000Y-116440000D01*
%TO.N,Net-(Stepper2-Pin_3)*%
X125080000Y-119310000D02*
X129430000Y-119310000D01*
X129430000Y-119310000D02*
X129800000Y-118940000D01*
%TO.N,Net-(Stepper2-Pin_1)*%
X125080000Y-124390000D02*
X129350000Y-124390000D01*
X129350000Y-124390000D02*
X129800000Y-123940000D01*
%TO.N,/RX_5_H_Bridge*%
X111880000Y-84640000D02*
X105760000Y-84640000D01*
%TO.N,/TX_5_H_Bridge*%
X105720000Y-87140000D02*
X105610000Y-87030000D01*
X111880000Y-87140000D02*
X105720000Y-87140000D01*
%TO.N,/RX_drill*%
X90280000Y-120140000D02*
X90370000Y-120050000D01*
X84880000Y-120140000D02*
X87830000Y-120140000D01*
X87830000Y-120140000D02*
X90280000Y-120140000D01*
%TO.N,/TX_drill*%
X90320000Y-122640000D02*
X90370000Y-122590000D01*
X87830000Y-122640000D02*
X90320000Y-122640000D01*
X84880000Y-122640000D02*
X87830000Y-122640000D01*
%TO.N,/RX_Serial_1*%
X105910000Y-96890000D02*
X105610000Y-97190000D01*
X111880000Y-96890000D02*
X105910000Y-96890000D01*
%TO.N,/TX_Serial_1*%
X105870000Y-94390000D02*
X105610000Y-94650000D01*
X111880000Y-94390000D02*
X105870000Y-94390000D01*
%TO.N,/RX_Serial_2*%
X109520000Y-103640000D02*
X105610000Y-99730000D01*
X111280000Y-103640000D02*
X109520000Y-103640000D01*
%TO.N,/TX_Serial_2*%
X111280000Y-106140000D02*
X109480000Y-106140000D01*
X109480000Y-106140000D02*
X105610000Y-102270000D01*
%TO.N,/RX_Serial_3*%
X106330000Y-128390000D02*
X105610000Y-127670000D01*
X121080000Y-105390000D02*
X121080000Y-120752080D01*
X113442080Y-128390000D02*
X106330000Y-128390000D01*
X121080000Y-120752080D02*
X113442080Y-128390000D01*
%TO.N,/TX_Serial_3*%
X118580000Y-115216080D02*
X113406080Y-120390000D01*
X118580000Y-105390000D02*
X118580000Y-115216080D01*
X113406080Y-120390000D02*
X110350000Y-120390000D01*
X110350000Y-120390000D02*
X105610000Y-125130000D01*
%TD*%
M02*
