%TF.GenerationSoftware,KiCad,Pcbnew,9.0.1*%
%TF.CreationDate,2025-05-12T19:20:38-04:00*%
%TF.ProjectId,science-board-new,73636965-6e63-4652-9d62-6f6172642d6e,rev?*%
%TF.SameCoordinates,Original*%
%TF.FileFunction,Copper,L2,Inr*%
%TF.FilePolarity,Positive*%
%FSLAX46Y46*%
G04 Gerber Fmt 4.6, Leading zero omitted, Abs format (unit mm)*
G04 Created by KiCad (PCBNEW 9.0.1) date 2025-05-12 19:20:38*
%MOMM*%
%LPD*%
G01*
G04 APERTURE LIST*
G04 Aperture macros list*
%AMRoundRect*
0 Rectangle with rounded corners*
0 $1 Rounding radius*
0 $2 $3 $4 $5 $6 $7 $8 $9 X,Y pos of 4 corners*
0 Add a 4 corners polygon primitive as box body*
4,1,4,$2,$3,$4,$5,$6,$7,$8,$9,$2,$3,0*
0 Add four circle primitives for the rounded corners*
1,1,$1+$1,$2,$3*
1,1,$1+$1,$4,$5*
1,1,$1+$1,$6,$7*
1,1,$1+$1,$8,$9*
0 Add four rect primitives between the rounded corners*
20,1,$1+$1,$2,$3,$4,$5,0*
20,1,$1+$1,$4,$5,$6,$7,0*
20,1,$1+$1,$6,$7,$8,$9,0*
20,1,$1+$1,$8,$9,$2,$3,0*%
G04 Aperture macros list end*
%TA.AperFunction,ComponentPad*%
%ADD10O,1.600000X1.600000*%
%TD*%
%TA.AperFunction,ComponentPad*%
%ADD11R,1.600000X1.600000*%
%TD*%
%TA.AperFunction,ComponentPad*%
%ADD12O,1.700000X2.000000*%
%TD*%
%TA.AperFunction,ComponentPad*%
%ADD13RoundRect,0.250000X-0.600000X-0.750000X0.600000X-0.750000X0.600000X0.750000X-0.600000X0.750000X0*%
%TD*%
%TA.AperFunction,ComponentPad*%
%ADD14R,1.700000X1.700000*%
%TD*%
%TA.AperFunction,ComponentPad*%
%ADD15O,1.700000X1.700000*%
%TD*%
%TA.AperFunction,ComponentPad*%
%ADD16RoundRect,0.250000X0.725000X-0.600000X0.725000X0.600000X-0.725000X0.600000X-0.725000X-0.600000X0*%
%TD*%
%TA.AperFunction,ComponentPad*%
%ADD17O,1.950000X1.700000*%
%TD*%
%TA.AperFunction,ComponentPad*%
%ADD18RoundRect,0.381000X0.762000X0.381000X-0.762000X0.381000X-0.762000X-0.381000X0.762000X-0.381000X0*%
%TD*%
%TA.AperFunction,ComponentPad*%
%ADD19RoundRect,0.381000X-0.762000X-0.381000X0.762000X-0.381000X0.762000X0.381000X-0.762000X0.381000X0*%
%TD*%
%TA.AperFunction,ComponentPad*%
%ADD20RoundRect,0.250000X-0.750000X0.600000X-0.750000X-0.600000X0.750000X-0.600000X0.750000X0.600000X0*%
%TD*%
%TA.AperFunction,ComponentPad*%
%ADD21O,2.000000X1.700000*%
%TD*%
%TA.AperFunction,ComponentPad*%
%ADD22C,1.600000*%
%TD*%
%TA.AperFunction,ComponentPad*%
%ADD23R,1.300000X1.300000*%
%TD*%
%TA.AperFunction,ComponentPad*%
%ADD24C,1.300000*%
%TD*%
%TA.AperFunction,ComponentPad*%
%ADD25R,1.200000X1.200000*%
%TD*%
%TA.AperFunction,ComponentPad*%
%ADD26C,1.200000*%
%TD*%
%TA.AperFunction,ComponentPad*%
%ADD27RoundRect,0.250000X-0.725000X0.600000X-0.725000X-0.600000X0.725000X-0.600000X0.725000X0.600000X0*%
%TD*%
%TA.AperFunction,ComponentPad*%
%ADD28RoundRect,0.250000X0.750000X-0.600000X0.750000X0.600000X-0.750000X0.600000X-0.750000X-0.600000X0*%
%TD*%
%TA.AperFunction,Conductor*%
%ADD29C,0.200000*%
%TD*%
G04 APERTURE END LIST*
D10*
%TO.N,Net-(24To5V1-Vin)*%
%TO.C,Switch1*%
X78102500Y-128700000D03*
D11*
%TO.N,Net-(24V1-Pin_1)*%
X70482500Y-128700000D03*
%TD*%
D12*
%TO.N,/GND_Teensy*%
%TO.C,24V1*%
X75000000Y-120000000D03*
D13*
%TO.N,Net-(24V1-Pin_1)*%
X72500000Y-120000000D03*
%TD*%
%TO.N,/TX_Serial_3*%
%TO.C,Serial3*%
X118580000Y-105390000D03*
D12*
%TO.N,/RX_Serial_3*%
X121080000Y-105390000D03*
%TD*%
D14*
%TO.N,unconnected-(24To5V1-SHDN-Pad1)*%
%TO.C,24To5V1*%
X126080000Y-85690000D03*
D15*
%TO.N,Net-(24To5V1-Vin)*%
X126080000Y-83150000D03*
%TO.N,/GND_Teensy*%
X126080000Y-80610000D03*
%TO.N,Net-(24To5V1-Vout)*%
X126080000Y-78070000D03*
%TD*%
D16*
%TO.N,Net-(Stepper2-Pin_1)*%
%TO.C,Stepper2*%
X129800000Y-123940000D03*
D17*
%TO.N,Net-(Stepper2-Pin_2)*%
X129800000Y-121440000D03*
%TO.N,Net-(Stepper2-Pin_3)*%
X129800000Y-118940000D03*
%TO.N,Net-(Stepper2-Pin_4)*%
X129800000Y-116440000D03*
%TD*%
D18*
%TO.N,/OUT_2*%
%TO.C,StepperController1*%
X86500000Y-90640000D03*
%TO.N,unconnected-(StepperController1-MS1-Pad2)*%
X86500000Y-88100000D03*
%TO.N,unconnected-(StepperController1-MS2-Pad3)*%
X86500000Y-85560000D03*
%TO.N,/TX_Stepper_Motor_1*%
X86500000Y-83020000D03*
%TO.N,/RX_Stepper_Motor_1*%
X86500000Y-80480000D03*
%TO.N,unconnected-(StepperController1-CLK-Pad6)*%
X86500000Y-77940000D03*
%TO.N,/STEP_Stepper_Motor_1*%
X86500000Y-75400000D03*
%TO.N,/DIR_Stepper_Motor_1*%
X86500000Y-72860000D03*
%TO.N,Net-(24To5V1-Vin)*%
X73800000Y-90640000D03*
%TO.N,/GND_Teensy*%
X73800000Y-88100000D03*
%TO.N,Net-(Stepper1-Pin_4)*%
X73800000Y-85560000D03*
%TO.N,Net-(Stepper1-Pin_3)*%
X73800000Y-83020000D03*
%TO.N,Net-(Stepper1-Pin_2)*%
X73800000Y-80480000D03*
%TO.N,Net-(Stepper1-Pin_1)*%
X73800000Y-77940000D03*
%TO.N,/3v3_Stepper_Motor_1*%
X73800000Y-75400000D03*
%TO.N,/GND_Teensy*%
X73800000Y-72860000D03*
%TD*%
D19*
%TO.N,/OUT_1*%
%TO.C,StepperController2*%
X112380000Y-111690000D03*
%TO.N,unconnected-(StepperController2-MS1-Pad2)*%
X112380000Y-114230000D03*
%TO.N,unconnected-(StepperController2-MS2-Pad3)*%
X112380000Y-116770000D03*
%TO.N,/TX_Stepper_Motor_2*%
X112380000Y-119310000D03*
%TO.N,/RX_Stepper_Motor_2*%
X112380000Y-121850000D03*
%TO.N,unconnected-(StepperController2-CLK-Pad6)*%
X112380000Y-124390000D03*
%TO.N,/STEP_Stepper_Motor_2*%
X112380000Y-126930000D03*
%TO.N,/DIR_Stepper_Motor_2*%
X112380000Y-129470000D03*
%TO.N,Net-(24To5V1-Vin)*%
X125080000Y-111690000D03*
%TO.N,/GND_Teensy*%
X125080000Y-114230000D03*
%TO.N,Net-(Stepper2-Pin_4)*%
X125080000Y-116770000D03*
%TO.N,Net-(Stepper2-Pin_3)*%
X125080000Y-119310000D03*
%TO.N,Net-(Stepper2-Pin_2)*%
X125080000Y-121850000D03*
%TO.N,Net-(Stepper2-Pin_1)*%
X125080000Y-124390000D03*
%TO.N,/3v3_Stepper_Motor_2*%
X125080000Y-126930000D03*
%TO.N,/GND_Teensy*%
X125080000Y-129470000D03*
%TD*%
D20*
%TO.N,/RX_drill*%
%TO.C,BrushedMotorControllerSerial1*%
X84880000Y-120140000D03*
D21*
%TO.N,/TX_drill*%
X84880000Y-122640000D03*
%TD*%
D11*
%TO.N,/GND_Teensy*%
%TO.C,U1*%
X90370000Y-71790000D03*
D22*
%TO.N,/RX_Stepper_Motor_1*%
X90370000Y-74330000D03*
%TO.N,/TX_Stepper_Motor_1*%
X90370000Y-76870000D03*
%TO.N,/OUT_2*%
X90370000Y-79410000D03*
%TO.N,unconnected-(U1-3_LRCLK2-Pad5)*%
X90370000Y-81950000D03*
%TO.N,unconnected-(U1-4_BCLK2-Pad6)*%
X90370000Y-84490000D03*
%TO.N,unconnected-(U1-5_IN2-Pad7)*%
X90370000Y-87030000D03*
%TO.N,unconnected-(U1-6_OUT1D-Pad8)*%
X90370000Y-89570000D03*
%TO.N,/RX_Stepper_Motor_2*%
X90370000Y-92110000D03*
%TO.N,/TX_Stepper_Motor_2*%
X90370000Y-94650000D03*
%TO.N,/OUT_1*%
X90370000Y-97190000D03*
%TO.N,/DIR_Stepper_Motor_2*%
X90370000Y-99730000D03*
%TO.N,/STEP_Stepper_Motor_2*%
X90370000Y-102270000D03*
%TO.N,/STEP_Stepper_Motor_1*%
X90370000Y-104810000D03*
%TO.N,/3v3_Stepper_Motor_2*%
X90370000Y-107350000D03*
%TO.N,unconnected-(U1-24_A10_TX6_SCL2-Pad16)*%
X90370000Y-109890000D03*
%TO.N,unconnected-(U1-25_A11_RX6_SDA2-Pad17)*%
X90370000Y-112430000D03*
%TO.N,unconnected-(U1-26_A12_MOSI1-Pad18)*%
X90370000Y-114970000D03*
%TO.N,/DIR_Stepper_Motor_1*%
X90370000Y-117510000D03*
%TO.N,/RX_drill*%
X90370000Y-120050000D03*
%TO.N,/TX_drill*%
X90370000Y-122590000D03*
%TO.N,unconnected-(U1-30_CRX3-Pad22)*%
X90370000Y-125130000D03*
%TO.N,unconnected-(U1-31_CTX3-Pad23)*%
X90370000Y-127670000D03*
%TO.N,unconnected-(U1-32_OUT1B-Pad24)*%
X90370000Y-130210000D03*
%TO.N,unconnected-(U1-33_MCLK2-Pad25)*%
X105610000Y-130210000D03*
%TO.N,/RX_Serial_3*%
X105610000Y-127670000D03*
%TO.N,/TX_Serial_3*%
X105610000Y-125130000D03*
%TO.N,unconnected-(U1-36_CS-Pad28)*%
X105610000Y-122590000D03*
%TO.N,unconnected-(U1-37_CS-Pad29)*%
X105610000Y-120050000D03*
%TO.N,unconnected-(U1-38_CS1_IN1-Pad30)*%
X105610000Y-117510000D03*
%TO.N,unconnected-(U1-39_MISO1_OUT1A-Pad31)*%
X105610000Y-114970000D03*
%TO.N,unconnected-(U1-40_A16-Pad32)*%
X105610000Y-112430000D03*
%TO.N,unconnected-(U1-41_A17-Pad33)*%
X105610000Y-109890000D03*
%TO.N,/GND_Teensy*%
X105610000Y-107350000D03*
%TO.N,unconnected-(U1-13_SCK_LED-Pad35)*%
X105610000Y-104810000D03*
%TO.N,/TX_Serial_2*%
X105610000Y-102270000D03*
%TO.N,/RX_Serial_2*%
X105610000Y-99730000D03*
%TO.N,/RX_Serial_1*%
X105610000Y-97190000D03*
%TO.N,/TX_Serial_1*%
X105610000Y-94650000D03*
%TO.N,unconnected-(U1-18_A4_SDA-Pad40)*%
X105610000Y-92110000D03*
%TO.N,unconnected-(U1-19_A5_SCL-Pad41)*%
X105610000Y-89570000D03*
%TO.N,/TX_5_H_Bridge*%
X105610000Y-87030000D03*
%TO.N,/RX_5_H_Bridge*%
X105610000Y-84490000D03*
%TO.N,unconnected-(U1-22_A8_CTX1-Pad44)*%
X105610000Y-81950000D03*
%TO.N,unconnected-(U1-23_A9_CRX1_MCLK1-Pad45)*%
X105610000Y-79410000D03*
%TO.N,/3v3_Stepper_Motor_1*%
X105610000Y-76870000D03*
%TO.N,/GND_Teensy*%
X105610000Y-74330000D03*
%TO.N,Net-(24To5V1-Vout)*%
X105610000Y-71790000D03*
%TO.N,unconnected-(U1-VUSB-Pad49)*%
X103070000Y-74330000D03*
%TO.N,unconnected-(U1-VBAT-Pad50)*%
X92910000Y-117510000D03*
%TO.N,unconnected-(U1-3V3-Pad51)*%
X95450000Y-117510000D03*
%TO.N,unconnected-(U1-GND-Pad52)*%
X97990000Y-117510000D03*
%TO.N,unconnected-(U1-PROGRAM-Pad53)*%
X100530000Y-117510000D03*
%TO.N,unconnected-(U1-ON_OFF-Pad54)*%
X103070000Y-117510000D03*
D11*
%TO.N,unconnected-(U1-5V-Pad55)*%
X93420800Y-78089200D03*
D22*
%TO.N,unconnected-(U1-D--Pad56)*%
X93420800Y-80629200D03*
%TO.N,unconnected-(U1-D+-Pad57)*%
X93420800Y-83169200D03*
%TO.N,unconnected-(U1-GND-Pad58)*%
X93420800Y-85709200D03*
%TO.N,unconnected-(U1-GND-Pad59)*%
X93420800Y-88249200D03*
D23*
%TO.N,unconnected-(U1-R+-Pad60)*%
X103171600Y-84760000D03*
D24*
%TO.N,unconnected-(U1-LED-Pad61)*%
X101171600Y-84760000D03*
%TO.N,unconnected-(U1-T--Pad62)*%
X99171600Y-84760000D03*
%TO.N,unconnected-(U1-T+-Pad63)*%
X99171600Y-86760000D03*
%TO.N,unconnected-(U1-GND-Pad64)*%
X101171600Y-86760000D03*
%TO.N,unconnected-(U1-R--Pad65)*%
X103171600Y-86760000D03*
%TO.N,unconnected-(U1-D--Pad66)*%
X99260000Y-72520000D03*
%TO.N,unconnected-(U1-D+-Pad67)*%
X96720000Y-72520000D03*
%TD*%
D25*
%TO.N,Net-(24To5V1-Vin)*%
%TO.C,C1*%
X127580000Y-105390000D03*
D26*
%TO.N,/GND_Teensy*%
X129080000Y-105390000D03*
%TD*%
D20*
%TO.N,/TX_Serial_1*%
%TO.C,Serial1*%
X111880000Y-94390000D03*
D21*
%TO.N,/RX_Serial_1*%
X111880000Y-96890000D03*
%TD*%
D27*
%TO.N,Net-(Stepper1-Pin_1)*%
%TO.C,Stepper1*%
X70080000Y-77890000D03*
D17*
%TO.N,Net-(Stepper1-Pin_2)*%
X70080000Y-80390000D03*
%TO.N,Net-(Stepper1-Pin_3)*%
X70080000Y-82890000D03*
%TO.N,Net-(Stepper1-Pin_4)*%
X70080000Y-85390000D03*
%TD*%
D28*
%TO.N,/TX_Serial_2*%
%TO.C,Serial2*%
X111280000Y-106140000D03*
D21*
%TO.N,/RX_Serial_2*%
X111280000Y-103640000D03*
%TD*%
D20*
%TO.N,/RX_5_H_Bridge*%
%TO.C,H_Bridge_Serial1*%
X111880000Y-84640000D03*
D21*
%TO.N,/TX_5_H_Bridge*%
X111880000Y-87140000D03*
%TD*%
D29*
%TO.N,/STEP_Stepper_Motor_1*%
X86500000Y-75400000D02*
X86530000Y-75430000D01*
%TD*%
%TA.AperFunction,Conductor*%
%TO.N,/GND_Teensy*%
G36*
X134442539Y-65520185D02*
G01*
X134488294Y-65572989D01*
X134499500Y-65624500D01*
X134499500Y-134375500D01*
X134479815Y-134442539D01*
X134427011Y-134488294D01*
X134375500Y-134499500D01*
X65624500Y-134499500D01*
X65557461Y-134479815D01*
X65511706Y-134427011D01*
X65500500Y-134375500D01*
X65500500Y-130308543D01*
X89369499Y-130308543D01*
X89407947Y-130501829D01*
X89407950Y-130501839D01*
X89483364Y-130683907D01*
X89483371Y-130683920D01*
X89592860Y-130847781D01*
X89592863Y-130847785D01*
X89732214Y-130987136D01*
X89732218Y-130987139D01*
X89896079Y-131096628D01*
X89896092Y-131096635D01*
X90078160Y-131172049D01*
X90078165Y-131172051D01*
X90078169Y-131172051D01*
X90078170Y-131172052D01*
X90271456Y-131210500D01*
X90271459Y-131210500D01*
X90468543Y-131210500D01*
X90598582Y-131184632D01*
X90661835Y-131172051D01*
X90843914Y-131096632D01*
X91007782Y-130987139D01*
X91147139Y-130847782D01*
X91256632Y-130683914D01*
X91332051Y-130501835D01*
X91366575Y-130328275D01*
X91370500Y-130308543D01*
X104609499Y-130308543D01*
X104647947Y-130501829D01*
X104647950Y-130501839D01*
X104723364Y-130683907D01*
X104723371Y-130683920D01*
X104832860Y-130847781D01*
X104832863Y-130847785D01*
X104972214Y-130987136D01*
X104972218Y-130987139D01*
X105136079Y-131096628D01*
X105136092Y-131096635D01*
X105318160Y-131172049D01*
X105318165Y-131172051D01*
X105318169Y-131172051D01*
X105318170Y-131172052D01*
X105511456Y-131210500D01*
X105511459Y-131210500D01*
X105708543Y-131210500D01*
X105838582Y-131184632D01*
X105901835Y-131172051D01*
X106083914Y-131096632D01*
X106247782Y-130987139D01*
X106387139Y-130847782D01*
X106496632Y-130683914D01*
X106496635Y-130683907D01*
X106514681Y-130640341D01*
X106572049Y-130501839D01*
X106572051Y-130501835D01*
X106606575Y-130328275D01*
X106610500Y-130308543D01*
X106610500Y-130111456D01*
X106572052Y-129918170D01*
X106572051Y-129918169D01*
X106572051Y-129918165D01*
X106554084Y-129874789D01*
X106496635Y-129736092D01*
X106496628Y-129736079D01*
X106387139Y-129572218D01*
X106387136Y-129572214D01*
X106247785Y-129432863D01*
X106247781Y-129432860D01*
X106083920Y-129323371D01*
X106083907Y-129323364D01*
X105901839Y-129247950D01*
X105901829Y-129247947D01*
X105708543Y-129209500D01*
X105708541Y-129209500D01*
X105511459Y-129209500D01*
X105511457Y-129209500D01*
X105318170Y-129247947D01*
X105318160Y-129247950D01*
X105136092Y-129323364D01*
X105136079Y-129323371D01*
X104972218Y-129432860D01*
X104972214Y-129432863D01*
X104832863Y-129572214D01*
X104832860Y-129572218D01*
X104723371Y-129736079D01*
X104723364Y-129736092D01*
X104647950Y-129918160D01*
X104647947Y-129918170D01*
X104609500Y-130111456D01*
X104609500Y-130111459D01*
X104609500Y-130308541D01*
X104609500Y-130308543D01*
X104609499Y-130308543D01*
X91370500Y-130308543D01*
X91370500Y-130111456D01*
X91332052Y-129918170D01*
X91332051Y-129918169D01*
X91332051Y-129918165D01*
X91314084Y-129874789D01*
X91256635Y-129736092D01*
X91256628Y-129736079D01*
X91147139Y-129572218D01*
X91147136Y-129572214D01*
X91007785Y-129432863D01*
X91007781Y-129432860D01*
X90843920Y-129323371D01*
X90843907Y-129323364D01*
X90661839Y-129247950D01*
X90661829Y-129247947D01*
X90468543Y-129209500D01*
X90468541Y-129209500D01*
X90271459Y-129209500D01*
X90271457Y-129209500D01*
X90078170Y-129247947D01*
X90078160Y-129247950D01*
X89896092Y-129323364D01*
X89896079Y-129323371D01*
X89732218Y-129432860D01*
X89732214Y-129432863D01*
X89592863Y-129572214D01*
X89592860Y-129572218D01*
X89483371Y-129736079D01*
X89483364Y-129736092D01*
X89407950Y-129918160D01*
X89407947Y-129918170D01*
X89369500Y-130111456D01*
X89369500Y-130111459D01*
X89369500Y-130308541D01*
X89369500Y-130308543D01*
X89369499Y-130308543D01*
X65500500Y-130308543D01*
X65500500Y-127880247D01*
X69482000Y-127880247D01*
X69482000Y-129519752D01*
X69493631Y-129578229D01*
X69493632Y-129578230D01*
X69537947Y-129644552D01*
X69604269Y-129688867D01*
X69604270Y-129688868D01*
X69662747Y-129700499D01*
X69662750Y-129700500D01*
X69662752Y-129700500D01*
X71302250Y-129700500D01*
X71302251Y-129700499D01*
X71317068Y-129697552D01*
X71360729Y-129688868D01*
X71360729Y-129688867D01*
X71360731Y-129688867D01*
X71427052Y-129644552D01*
X71471367Y-129578231D01*
X71471367Y-129578229D01*
X71471368Y-129578229D01*
X71482999Y-129519752D01*
X71483000Y-129519750D01*
X71483000Y-128798543D01*
X77101999Y-128798543D01*
X77140447Y-128991829D01*
X77140450Y-128991839D01*
X77215864Y-129173907D01*
X77215871Y-129173920D01*
X77325360Y-129337781D01*
X77325363Y-129337785D01*
X77464714Y-129477136D01*
X77464718Y-129477139D01*
X77628579Y-129586628D01*
X77628592Y-129586635D01*
X77810660Y-129662049D01*
X77810665Y-129662051D01*
X77810669Y-129662051D01*
X77810670Y-129662052D01*
X78003956Y-129700500D01*
X78003959Y-129700500D01*
X78201043Y-129700500D01*
X78331082Y-129674632D01*
X78394335Y-129662051D01*
X78576414Y-129586632D01*
X78740282Y-129477139D01*
X78879639Y-129337782D01*
X78989132Y-129173914D01*
X79040090Y-129050890D01*
X79040096Y-129050876D01*
X111036500Y-129050876D01*
X111036500Y-129889123D01*
X111051467Y-130002801D01*
X111051467Y-130002802D01*
X111110060Y-130144258D01*
X111110061Y-130144259D01*
X111203269Y-130265731D01*
X111324741Y-130358939D01*
X111466198Y-130417533D01*
X111579884Y-130432500D01*
X111579891Y-130432500D01*
X113180109Y-130432500D01*
X113180116Y-130432500D01*
X113293802Y-130417533D01*
X113435259Y-130358939D01*
X113556731Y-130265731D01*
X113649939Y-130144259D01*
X113708533Y-130002802D01*
X113723500Y-129889116D01*
X113723500Y-129050884D01*
X113718433Y-129012395D01*
X123437000Y-129012395D01*
X123437000Y-129927605D01*
X123437001Y-129927609D01*
X123439917Y-129970632D01*
X123439917Y-129970634D01*
X123486165Y-130156602D01*
X123571307Y-130328275D01*
X123691364Y-130477631D01*
X123706582Y-130489864D01*
X124490439Y-129706008D01*
X124517271Y-129770785D01*
X124586764Y-129874789D01*
X124675211Y-129963236D01*
X124779215Y-130032729D01*
X124843990Y-130059560D01*
X124179227Y-130724322D01*
X124198365Y-130729081D01*
X124241395Y-130731999D01*
X125918605Y-130731999D01*
X125918609Y-130731998D01*
X125961634Y-130729082D01*
X125980771Y-130724323D01*
X125980771Y-130724322D01*
X125316008Y-130059560D01*
X125380785Y-130032729D01*
X125484789Y-129963236D01*
X125573236Y-129874789D01*
X125642729Y-129770785D01*
X125669560Y-129706008D01*
X126453416Y-130489864D01*
X126453417Y-130489864D01*
X126468631Y-130477635D01*
X126588693Y-130328272D01*
X126673834Y-130156602D01*
X126720081Y-129970640D01*
X126722999Y-129927604D01*
X126722999Y-129012394D01*
X126722998Y-129012390D01*
X126720082Y-128969367D01*
X126720082Y-128969365D01*
X126673834Y-128783397D01*
X126588692Y-128611724D01*
X126468636Y-128462368D01*
X126468631Y-128462363D01*
X126453417Y-128450134D01*
X125669560Y-129233990D01*
X125642729Y-129169215D01*
X125573236Y-129065211D01*
X125484789Y-128976764D01*
X125380785Y-128907271D01*
X125316008Y-128880439D01*
X125980770Y-128215676D01*
X125961637Y-128210918D01*
X125918604Y-128208000D01*
X124241394Y-128208000D01*
X124241390Y-128208001D01*
X124198370Y-128210917D01*
X124198367Y-128210917D01*
X124179228Y-128215676D01*
X124843991Y-128880439D01*
X124779215Y-128907271D01*
X124675211Y-128976764D01*
X124586764Y-129065211D01*
X124517271Y-129169215D01*
X124490439Y-129233990D01*
X123706581Y-128450133D01*
X123691370Y-128462362D01*
X123691362Y-128462369D01*
X123571307Y-128611724D01*
X123486165Y-128783397D01*
X123439918Y-128969359D01*
X123437000Y-129012395D01*
X113718433Y-129012395D01*
X113708533Y-128937198D01*
X113649939Y-128795741D01*
X113556731Y-128674269D01*
X113461842Y-128601459D01*
X113435258Y-128581060D01*
X113352395Y-128546737D01*
X113293802Y-128522467D01*
X113279591Y-128520596D01*
X113180123Y-128507500D01*
X113180116Y-128507500D01*
X111579884Y-128507500D01*
X111579876Y-128507500D01*
X111466198Y-128522467D01*
X111466197Y-128522467D01*
X111324741Y-128581060D01*
X111203269Y-128674269D01*
X111110060Y-128795741D01*
X111051467Y-128937197D01*
X111051467Y-128937198D01*
X111036500Y-129050876D01*
X79040096Y-129050876D01*
X79061429Y-128999373D01*
X79064549Y-128991839D01*
X79064551Y-128991835D01*
X79103000Y-128798541D01*
X79103000Y-128601459D01*
X79103000Y-128601456D01*
X79064552Y-128408170D01*
X79064551Y-128408169D01*
X79064551Y-128408165D01*
X79022973Y-128307785D01*
X78989135Y-128226092D01*
X78989128Y-128226079D01*
X78879639Y-128062218D01*
X78879636Y-128062214D01*
X78740285Y-127922863D01*
X78740281Y-127922860D01*
X78576420Y-127813371D01*
X78576407Y-127813364D01*
X78468198Y-127768543D01*
X89369499Y-127768543D01*
X89407947Y-127961829D01*
X89407950Y-127961839D01*
X89483364Y-128143907D01*
X89483371Y-128143920D01*
X89592860Y-128307781D01*
X89592863Y-128307785D01*
X89732214Y-128447136D01*
X89732218Y-128447139D01*
X89896079Y-128556628D01*
X89896092Y-128556635D01*
X90078160Y-128632049D01*
X90078165Y-128632051D01*
X90078169Y-128632051D01*
X90078170Y-128632052D01*
X90271456Y-128670500D01*
X90271459Y-128670500D01*
X90468543Y-128670500D01*
X90598582Y-128644632D01*
X90661835Y-128632051D01*
X90843914Y-128556632D01*
X91007782Y-128447139D01*
X91147139Y-128307782D01*
X91256632Y-128143914D01*
X91332051Y-127961835D01*
X91361583Y-127813371D01*
X91370500Y-127768543D01*
X104609499Y-127768543D01*
X104647947Y-127961829D01*
X104647950Y-127961839D01*
X104723364Y-128143907D01*
X104723371Y-128143920D01*
X104832860Y-128307781D01*
X104832863Y-128307785D01*
X104972214Y-128447136D01*
X104972218Y-128447139D01*
X105136079Y-128556628D01*
X105136092Y-128556635D01*
X105318160Y-128632049D01*
X105318165Y-128632051D01*
X105318169Y-128632051D01*
X105318170Y-128632052D01*
X105511456Y-128670500D01*
X105511459Y-128670500D01*
X105708543Y-128670500D01*
X105838582Y-128644632D01*
X105901835Y-128632051D01*
X106083914Y-128556632D01*
X106247782Y-128447139D01*
X106387139Y-128307782D01*
X106432876Y-128239331D01*
X106470307Y-128183313D01*
X106496628Y-128143920D01*
X106496628Y-128143919D01*
X106496632Y-128143914D01*
X106572051Y-127961835D01*
X106601583Y-127813371D01*
X106610500Y-127768543D01*
X106610500Y-127571456D01*
X106572052Y-127378170D01*
X106572051Y-127378169D01*
X106572051Y-127378165D01*
X106560016Y-127349109D01*
X106496635Y-127196092D01*
X106496628Y-127196079D01*
X106387139Y-127032218D01*
X106387136Y-127032214D01*
X106247785Y-126892863D01*
X106247781Y-126892860D01*
X106083920Y-126783371D01*
X106083907Y-126783364D01*
X105901839Y-126707950D01*
X105901829Y-126707947D01*
X105708543Y-126669500D01*
X105708541Y-126669500D01*
X105511459Y-126669500D01*
X105511457Y-126669500D01*
X105318170Y-126707947D01*
X105318160Y-126707950D01*
X105136092Y-126783364D01*
X105136079Y-126783371D01*
X104972218Y-126892860D01*
X104972214Y-126892863D01*
X104832863Y-127032214D01*
X104832860Y-127032218D01*
X104723371Y-127196079D01*
X104723364Y-127196092D01*
X104647950Y-127378160D01*
X104647947Y-127378170D01*
X104609500Y-127571456D01*
X104609500Y-127571459D01*
X104609500Y-127768541D01*
X104609500Y-127768543D01*
X104609499Y-127768543D01*
X91370500Y-127768543D01*
X91370500Y-127571456D01*
X91332052Y-127378170D01*
X91332051Y-127378169D01*
X91332051Y-127378165D01*
X91320016Y-127349109D01*
X91256635Y-127196092D01*
X91256628Y-127196079D01*
X91147139Y-127032218D01*
X91147136Y-127032214D01*
X91007785Y-126892863D01*
X91007781Y-126892860D01*
X90843920Y-126783371D01*
X90843907Y-126783364D01*
X90661839Y-126707950D01*
X90661829Y-126707947D01*
X90468543Y-126669500D01*
X90468541Y-126669500D01*
X90271459Y-126669500D01*
X90271457Y-126669500D01*
X90078170Y-126707947D01*
X90078160Y-126707950D01*
X89896092Y-126783364D01*
X89896079Y-126783371D01*
X89732218Y-126892860D01*
X89732214Y-126892863D01*
X89592863Y-127032214D01*
X89592860Y-127032218D01*
X89483371Y-127196079D01*
X89483364Y-127196092D01*
X89407950Y-127378160D01*
X89407947Y-127378170D01*
X89369500Y-127571456D01*
X89369500Y-127571459D01*
X89369500Y-127768541D01*
X89369500Y-127768543D01*
X89369499Y-127768543D01*
X78468198Y-127768543D01*
X78394339Y-127737950D01*
X78394329Y-127737947D01*
X78201043Y-127699500D01*
X78201041Y-127699500D01*
X78003959Y-127699500D01*
X78003957Y-127699500D01*
X77810670Y-127737947D01*
X77810660Y-127737950D01*
X77628592Y-127813364D01*
X77628579Y-127813371D01*
X77464718Y-127922860D01*
X77464714Y-127922863D01*
X77325363Y-128062214D01*
X77325360Y-128062218D01*
X77215871Y-128226079D01*
X77215864Y-128226092D01*
X77140450Y-128408160D01*
X77140447Y-128408170D01*
X77102000Y-128601456D01*
X77102000Y-128601459D01*
X77102000Y-128798541D01*
X77102000Y-128798543D01*
X77101999Y-128798543D01*
X71483000Y-128798543D01*
X71483000Y-127880249D01*
X71482999Y-127880247D01*
X71471368Y-127821770D01*
X71471367Y-127821769D01*
X71427052Y-127755447D01*
X71360730Y-127711132D01*
X71360729Y-127711131D01*
X71302252Y-127699500D01*
X71302248Y-127699500D01*
X69662752Y-127699500D01*
X69662747Y-127699500D01*
X69604270Y-127711131D01*
X69604269Y-127711132D01*
X69537947Y-127755447D01*
X69493632Y-127821769D01*
X69493631Y-127821770D01*
X69482000Y-127880247D01*
X65500500Y-127880247D01*
X65500500Y-126510876D01*
X111036500Y-126510876D01*
X111036500Y-127349123D01*
X111051467Y-127462801D01*
X111051467Y-127462802D01*
X111110060Y-127604258D01*
X111110061Y-127604259D01*
X111203269Y-127725731D01*
X111324741Y-127818939D01*
X111466198Y-127877533D01*
X111579884Y-127892500D01*
X111579891Y-127892500D01*
X113180109Y-127892500D01*
X113180116Y-127892500D01*
X113293802Y-127877533D01*
X113435259Y-127818939D01*
X113556731Y-127725731D01*
X113649939Y-127604259D01*
X113708533Y-127462802D01*
X113723500Y-127349116D01*
X113723500Y-126510884D01*
X113723499Y-126510876D01*
X123736500Y-126510876D01*
X123736500Y-127349123D01*
X123751467Y-127462801D01*
X123751467Y-127462802D01*
X123810060Y-127604258D01*
X123810061Y-127604259D01*
X123903269Y-127725731D01*
X124024741Y-127818939D01*
X124166198Y-127877533D01*
X124279884Y-127892500D01*
X124279891Y-127892500D01*
X125880109Y-127892500D01*
X125880116Y-127892500D01*
X125993802Y-127877533D01*
X126135259Y-127818939D01*
X126256731Y-127725731D01*
X126349939Y-127604259D01*
X126408533Y-127462802D01*
X126423500Y-127349116D01*
X126423500Y-126510884D01*
X126408533Y-126397198D01*
X126349939Y-126255741D01*
X126256731Y-126134269D01*
X126135259Y-126041061D01*
X126135258Y-126041060D01*
X126052395Y-126006737D01*
X125993802Y-125982467D01*
X125979591Y-125980596D01*
X125880123Y-125967500D01*
X125880116Y-125967500D01*
X124279884Y-125967500D01*
X124279876Y-125967500D01*
X124166198Y-125982467D01*
X124166197Y-125982467D01*
X124024741Y-126041060D01*
X123903269Y-126134269D01*
X123810060Y-126255741D01*
X123751467Y-126397197D01*
X123751467Y-126397198D01*
X123736500Y-126510876D01*
X113723499Y-126510876D01*
X113708533Y-126397198D01*
X113649939Y-126255741D01*
X113556731Y-126134269D01*
X113435259Y-126041061D01*
X113435258Y-126041060D01*
X113352395Y-126006737D01*
X113293802Y-125982467D01*
X113279591Y-125980596D01*
X113180123Y-125967500D01*
X113180116Y-125967500D01*
X111579884Y-125967500D01*
X111579876Y-125967500D01*
X111466198Y-125982467D01*
X111466197Y-125982467D01*
X111324741Y-126041060D01*
X111203269Y-126134269D01*
X111110060Y-126255741D01*
X111051467Y-126397197D01*
X111051467Y-126397198D01*
X111036500Y-126510876D01*
X65500500Y-126510876D01*
X65500500Y-125228543D01*
X89369499Y-125228543D01*
X89407947Y-125421829D01*
X89407950Y-125421839D01*
X89483364Y-125603907D01*
X89483371Y-125603920D01*
X89592860Y-125767781D01*
X89592863Y-125767785D01*
X89732214Y-125907136D01*
X89732218Y-125907139D01*
X89896079Y-126016628D01*
X89896092Y-126016635D01*
X90078160Y-126092049D01*
X90078165Y-126092051D01*
X90078169Y-126092051D01*
X90078170Y-126092052D01*
X90271456Y-126130500D01*
X90271459Y-126130500D01*
X90468543Y-126130500D01*
X90598582Y-126104632D01*
X90661835Y-126092051D01*
X90843914Y-126016632D01*
X91007782Y-125907139D01*
X91147139Y-125767782D01*
X91256632Y-125603914D01*
X91332051Y-125421835D01*
X91370500Y-125228543D01*
X104609499Y-125228543D01*
X104647947Y-125421829D01*
X104647950Y-125421839D01*
X104723364Y-125603907D01*
X104723371Y-125603920D01*
X104832860Y-125767781D01*
X104832863Y-125767785D01*
X104972214Y-125907136D01*
X104972218Y-125907139D01*
X105136079Y-126016628D01*
X105136092Y-126016635D01*
X105318160Y-126092049D01*
X105318165Y-126092051D01*
X105318169Y-126092051D01*
X105318170Y-126092052D01*
X105511456Y-126130500D01*
X105511459Y-126130500D01*
X105708543Y-126130500D01*
X105838582Y-126104632D01*
X105901835Y-126092051D01*
X106083914Y-126016632D01*
X106247782Y-125907139D01*
X106387139Y-125767782D01*
X106496632Y-125603914D01*
X106572051Y-125421835D01*
X106610500Y-125228541D01*
X106610500Y-125031459D01*
X106610500Y-125031456D01*
X106572052Y-124838170D01*
X106572051Y-124838169D01*
X106572051Y-124838165D01*
X106536725Y-124752880D01*
X106496635Y-124656092D01*
X106496628Y-124656079D01*
X106387139Y-124492218D01*
X106387136Y-124492214D01*
X106247785Y-124352863D01*
X106247781Y-124352860D01*
X106083920Y-124243371D01*
X106083907Y-124243364D01*
X105901839Y-124167950D01*
X105901829Y-124167947D01*
X105708543Y-124129500D01*
X105708541Y-124129500D01*
X105511459Y-124129500D01*
X105511457Y-124129500D01*
X105318170Y-124167947D01*
X105318160Y-124167950D01*
X105136092Y-124243364D01*
X105136079Y-124243371D01*
X104972218Y-124352860D01*
X104972214Y-124352863D01*
X104832863Y-124492214D01*
X104832860Y-124492218D01*
X104723371Y-124656079D01*
X104723364Y-124656092D01*
X104647950Y-124838160D01*
X104647947Y-124838170D01*
X104609500Y-125031456D01*
X104609500Y-125031459D01*
X104609500Y-125228541D01*
X104609500Y-125228543D01*
X104609499Y-125228543D01*
X91370500Y-125228543D01*
X91370500Y-125228541D01*
X91370500Y-125031459D01*
X91370500Y-125031456D01*
X91332052Y-124838170D01*
X91332051Y-124838169D01*
X91332051Y-124838165D01*
X91296725Y-124752880D01*
X91256635Y-124656092D01*
X91256628Y-124656079D01*
X91147139Y-124492218D01*
X91147136Y-124492214D01*
X91007785Y-124352863D01*
X91007781Y-124352860D01*
X90843920Y-124243371D01*
X90843907Y-124243364D01*
X90661839Y-124167950D01*
X90661829Y-124167947D01*
X90468543Y-124129500D01*
X90468541Y-124129500D01*
X90271459Y-124129500D01*
X90271457Y-124129500D01*
X90078170Y-124167947D01*
X90078160Y-124167950D01*
X89896092Y-124243364D01*
X89896079Y-124243371D01*
X89732218Y-124352860D01*
X89732214Y-124352863D01*
X89592863Y-124492214D01*
X89592860Y-124492218D01*
X89483371Y-124656079D01*
X89483364Y-124656092D01*
X89407950Y-124838160D01*
X89407947Y-124838170D01*
X89369500Y-125031456D01*
X89369500Y-125031459D01*
X89369500Y-125228541D01*
X89369500Y-125228543D01*
X89369499Y-125228543D01*
X65500500Y-125228543D01*
X65500500Y-123970876D01*
X111036500Y-123970876D01*
X111036500Y-124809123D01*
X111051467Y-124922801D01*
X111051467Y-124922802D01*
X111110060Y-125064258D01*
X111110061Y-125064259D01*
X111203269Y-125185731D01*
X111324741Y-125278939D01*
X111466198Y-125337533D01*
X111579884Y-125352500D01*
X111579891Y-125352500D01*
X113180109Y-125352500D01*
X113180116Y-125352500D01*
X113293802Y-125337533D01*
X113435259Y-125278939D01*
X113556731Y-125185731D01*
X113649939Y-125064259D01*
X113708533Y-124922802D01*
X113723500Y-124809116D01*
X113723500Y-123970884D01*
X113723499Y-123970876D01*
X123736500Y-123970876D01*
X123736500Y-124809123D01*
X123751467Y-124922801D01*
X123751467Y-124922802D01*
X123810060Y-125064258D01*
X123810061Y-125064259D01*
X123903269Y-125185731D01*
X124024741Y-125278939D01*
X124166198Y-125337533D01*
X124279884Y-125352500D01*
X124279891Y-125352500D01*
X125880109Y-125352500D01*
X125880116Y-125352500D01*
X125993802Y-125337533D01*
X126135259Y-125278939D01*
X126256731Y-125185731D01*
X126349939Y-125064259D01*
X126408533Y-124922802D01*
X126423500Y-124809116D01*
X126423500Y-123970884D01*
X126408533Y-123857198D01*
X126349939Y-123715741D01*
X126256731Y-123594269D01*
X126135259Y-123501061D01*
X126135258Y-123501060D01*
X126052395Y-123466737D01*
X125993802Y-123442467D01*
X125979591Y-123440596D01*
X125880123Y-123427500D01*
X125880116Y-123427500D01*
X124279884Y-123427500D01*
X124279876Y-123427500D01*
X124166198Y-123442467D01*
X124166197Y-123442467D01*
X124024741Y-123501060D01*
X123903269Y-123594269D01*
X123810060Y-123715741D01*
X123751467Y-123857197D01*
X123751467Y-123857198D01*
X123736500Y-123970876D01*
X113723499Y-123970876D01*
X113708533Y-123857198D01*
X113649939Y-123715741D01*
X113556731Y-123594269D01*
X113435259Y-123501061D01*
X113435258Y-123501060D01*
X113352395Y-123466737D01*
X113293802Y-123442467D01*
X113279591Y-123440596D01*
X113180123Y-123427500D01*
X113180116Y-123427500D01*
X111579884Y-123427500D01*
X111579876Y-123427500D01*
X111466198Y-123442467D01*
X111466197Y-123442467D01*
X111324741Y-123501060D01*
X111203269Y-123594269D01*
X111110060Y-123715741D01*
X111051467Y-123857197D01*
X111051467Y-123857198D01*
X111036500Y-123970876D01*
X65500500Y-123970876D01*
X65500500Y-122536530D01*
X83679500Y-122536530D01*
X83679500Y-122743469D01*
X83719868Y-122946412D01*
X83719870Y-122946420D01*
X83799058Y-123137596D01*
X83914024Y-123309657D01*
X84060342Y-123455975D01*
X84060345Y-123455977D01*
X84232402Y-123570941D01*
X84423580Y-123650130D01*
X84626530Y-123690499D01*
X84626534Y-123690500D01*
X84626535Y-123690500D01*
X85133466Y-123690500D01*
X85133467Y-123690499D01*
X85336420Y-123650130D01*
X85527598Y-123570941D01*
X85699655Y-123455977D01*
X85845977Y-123309655D01*
X85960941Y-123137598D01*
X86040130Y-122946420D01*
X86080500Y-122743465D01*
X86080500Y-122688543D01*
X89369499Y-122688543D01*
X89407947Y-122881829D01*
X89407950Y-122881839D01*
X89483364Y-123063907D01*
X89483371Y-123063920D01*
X89592860Y-123227781D01*
X89592863Y-123227785D01*
X89732214Y-123367136D01*
X89732218Y-123367139D01*
X89896079Y-123476628D01*
X89896092Y-123476635D01*
X90078160Y-123552049D01*
X90078165Y-123552051D01*
X90078169Y-123552051D01*
X90078170Y-123552052D01*
X90271456Y-123590500D01*
X90271459Y-123590500D01*
X90468543Y-123590500D01*
X90598582Y-123564632D01*
X90661835Y-123552051D01*
X90843914Y-123476632D01*
X91007782Y-123367139D01*
X91147139Y-123227782D01*
X91256632Y-123063914D01*
X91332051Y-122881835D01*
X91370500Y-122688543D01*
X104609499Y-122688543D01*
X104647947Y-122881829D01*
X104647950Y-122881839D01*
X104723364Y-123063907D01*
X104723371Y-123063920D01*
X104832860Y-123227781D01*
X104832863Y-123227785D01*
X104972214Y-123367136D01*
X104972218Y-123367139D01*
X105136079Y-123476628D01*
X105136092Y-123476635D01*
X105318160Y-123552049D01*
X105318165Y-123552051D01*
X105318169Y-123552051D01*
X105318170Y-123552052D01*
X105511456Y-123590500D01*
X105511459Y-123590500D01*
X105708543Y-123590500D01*
X105838582Y-123564632D01*
X105901835Y-123552051D01*
X106083914Y-123476632D01*
X106247782Y-123367139D01*
X106329191Y-123285730D01*
X128624500Y-123285730D01*
X128624500Y-124594269D01*
X128627353Y-124624699D01*
X128627353Y-124624701D01*
X128672206Y-124752880D01*
X128672207Y-124752882D01*
X128752850Y-124862150D01*
X128862118Y-124942793D01*
X128904845Y-124957744D01*
X128990299Y-124987646D01*
X129020730Y-124990500D01*
X129020734Y-124990500D01*
X130579270Y-124990500D01*
X130609699Y-124987646D01*
X130609701Y-124987646D01*
X130673790Y-124965219D01*
X130737882Y-124942793D01*
X130847150Y-124862150D01*
X130927793Y-124752882D01*
X130950219Y-124688790D01*
X130972646Y-124624701D01*
X130972646Y-124624699D01*
X130975500Y-124594269D01*
X130975500Y-123285730D01*
X130972646Y-123255300D01*
X130972646Y-123255298D01*
X130927793Y-123127119D01*
X130927792Y-123127117D01*
X130847150Y-123017850D01*
X130737882Y-122937207D01*
X130737880Y-122937206D01*
X130609700Y-122892353D01*
X130579270Y-122889500D01*
X130579266Y-122889500D01*
X129020734Y-122889500D01*
X129020730Y-122889500D01*
X128990300Y-122892353D01*
X128990298Y-122892353D01*
X128862119Y-122937206D01*
X128862117Y-122937207D01*
X128752850Y-123017850D01*
X128672207Y-123127117D01*
X128672206Y-123127119D01*
X128627353Y-123255298D01*
X128627353Y-123255300D01*
X128624500Y-123285730D01*
X106329191Y-123285730D01*
X106387139Y-123227782D01*
X106387179Y-123227721D01*
X106396387Y-123213943D01*
X106496628Y-123063920D01*
X106496628Y-123063919D01*
X106496632Y-123063914D01*
X106572051Y-122881835D01*
X106610500Y-122688541D01*
X106610500Y-122491459D01*
X106610500Y-122491456D01*
X106572052Y-122298170D01*
X106572051Y-122298169D01*
X106572051Y-122298165D01*
X106554576Y-122255977D01*
X106496635Y-122116092D01*
X106496628Y-122116079D01*
X106387139Y-121952218D01*
X106387136Y-121952214D01*
X106247785Y-121812863D01*
X106247781Y-121812860D01*
X106083920Y-121703371D01*
X106083907Y-121703364D01*
X105901839Y-121627950D01*
X105901829Y-121627947D01*
X105708543Y-121589500D01*
X105708541Y-121589500D01*
X105511459Y-121589500D01*
X105511457Y-121589500D01*
X105318170Y-121627947D01*
X105318160Y-121627950D01*
X105136092Y-121703364D01*
X105136079Y-121703371D01*
X104972218Y-121812860D01*
X104972214Y-121812863D01*
X104832863Y-121952214D01*
X104832860Y-121952218D01*
X104723371Y-122116079D01*
X104723364Y-122116092D01*
X104647950Y-122298160D01*
X104647947Y-122298170D01*
X104609500Y-122491456D01*
X104609500Y-122491459D01*
X104609500Y-122688541D01*
X104609500Y-122688543D01*
X104609499Y-122688543D01*
X91370500Y-122688543D01*
X91370500Y-122688541D01*
X91370500Y-122491459D01*
X91370500Y-122491456D01*
X91332052Y-122298170D01*
X91332051Y-122298169D01*
X91332051Y-122298165D01*
X91314576Y-122255977D01*
X91256635Y-122116092D01*
X91256628Y-122116079D01*
X91147139Y-121952218D01*
X91147136Y-121952214D01*
X91007785Y-121812863D01*
X91007781Y-121812860D01*
X90843920Y-121703371D01*
X90843907Y-121703364D01*
X90661839Y-121627950D01*
X90661829Y-121627947D01*
X90468543Y-121589500D01*
X90468541Y-121589500D01*
X90271459Y-121589500D01*
X90271457Y-121589500D01*
X90078170Y-121627947D01*
X90078160Y-121627950D01*
X89896092Y-121703364D01*
X89896079Y-121703371D01*
X89732218Y-121812860D01*
X89732214Y-121812863D01*
X89592863Y-121952214D01*
X89592860Y-121952218D01*
X89483371Y-122116079D01*
X89483364Y-122116092D01*
X89407950Y-122298160D01*
X89407947Y-122298170D01*
X89369500Y-122491456D01*
X89369500Y-122491459D01*
X89369500Y-122688541D01*
X89369500Y-122688543D01*
X89369499Y-122688543D01*
X86080500Y-122688543D01*
X86080500Y-122536535D01*
X86040130Y-122333580D01*
X85960941Y-122142402D01*
X85845977Y-121970345D01*
X85845975Y-121970342D01*
X85699657Y-121824024D01*
X85583501Y-121746412D01*
X85527598Y-121709059D01*
X85513849Y-121703364D01*
X85336420Y-121629870D01*
X85336412Y-121629868D01*
X85133469Y-121589500D01*
X85133465Y-121589500D01*
X84626535Y-121589500D01*
X84626530Y-121589500D01*
X84423587Y-121629868D01*
X84423579Y-121629870D01*
X84232403Y-121709058D01*
X84060342Y-121824024D01*
X83914024Y-121970342D01*
X83799058Y-122142403D01*
X83719870Y-122333579D01*
X83719868Y-122333587D01*
X83679500Y-122536530D01*
X65500500Y-122536530D01*
X65500500Y-119195730D01*
X71449500Y-119195730D01*
X71449500Y-120804269D01*
X71452353Y-120834699D01*
X71452353Y-120834701D01*
X71497206Y-120962880D01*
X71497207Y-120962882D01*
X71577850Y-121072150D01*
X71687118Y-121152793D01*
X71729845Y-121167744D01*
X71815299Y-121197646D01*
X71845730Y-121200500D01*
X71845734Y-121200500D01*
X73154270Y-121200500D01*
X73184699Y-121197646D01*
X73184701Y-121197646D01*
X73248790Y-121175219D01*
X73312882Y-121152793D01*
X73422150Y-121072150D01*
X73502793Y-120962882D01*
X73539648Y-120857557D01*
X73547646Y-120834701D01*
X73547646Y-120834699D01*
X73550500Y-120804269D01*
X73550500Y-120795323D01*
X73570185Y-120728284D01*
X73622989Y-120682529D01*
X73692147Y-120672585D01*
X73755703Y-120701610D01*
X73784985Y-120739028D01*
X73845379Y-120857557D01*
X73970272Y-121029459D01*
X73970276Y-121029464D01*
X74120535Y-121179723D01*
X74120540Y-121179727D01*
X74292442Y-121304620D01*
X74481782Y-121401095D01*
X74683871Y-121466757D01*
X74750000Y-121477231D01*
X74750000Y-120433012D01*
X74807007Y-120465925D01*
X74934174Y-120500000D01*
X75065826Y-120500000D01*
X75192993Y-120465925D01*
X75250000Y-120433012D01*
X75250000Y-121477230D01*
X75316126Y-121466757D01*
X75316129Y-121466757D01*
X75426560Y-121430876D01*
X111036500Y-121430876D01*
X111036500Y-122269123D01*
X111051467Y-122382801D01*
X111051467Y-122382802D01*
X111110060Y-122524258D01*
X111131747Y-122552522D01*
X111203269Y-122645731D01*
X111324741Y-122738939D01*
X111466198Y-122797533D01*
X111579884Y-122812500D01*
X111579891Y-122812500D01*
X113180109Y-122812500D01*
X113180116Y-122812500D01*
X113293802Y-122797533D01*
X113435259Y-122738939D01*
X113556731Y-122645731D01*
X113649939Y-122524259D01*
X113708533Y-122382802D01*
X113723500Y-122269116D01*
X113723500Y-121430884D01*
X113723499Y-121430876D01*
X123736500Y-121430876D01*
X123736500Y-122269123D01*
X123751467Y-122382801D01*
X123751467Y-122382802D01*
X123810060Y-122524258D01*
X123831747Y-122552522D01*
X123903269Y-122645731D01*
X124024741Y-122738939D01*
X124166198Y-122797533D01*
X124279884Y-122812500D01*
X124279891Y-122812500D01*
X125880109Y-122812500D01*
X125880116Y-122812500D01*
X125993802Y-122797533D01*
X126135259Y-122738939D01*
X126256731Y-122645731D01*
X126349939Y-122524259D01*
X126408533Y-122382802D01*
X126423500Y-122269116D01*
X126423500Y-121430884D01*
X126411078Y-121336530D01*
X128624500Y-121336530D01*
X128624500Y-121543469D01*
X128664868Y-121746412D01*
X128664870Y-121746420D01*
X128744058Y-121937596D01*
X128859024Y-122109657D01*
X129005342Y-122255975D01*
X129005345Y-122255977D01*
X129177402Y-122370941D01*
X129368580Y-122450130D01*
X129571530Y-122490499D01*
X129571534Y-122490500D01*
X129571535Y-122490500D01*
X130028466Y-122490500D01*
X130028467Y-122490499D01*
X130231420Y-122450130D01*
X130422598Y-122370941D01*
X130594655Y-122255977D01*
X130740977Y-122109655D01*
X130855941Y-121937598D01*
X130935130Y-121746420D01*
X130975500Y-121543465D01*
X130975500Y-121336535D01*
X130935130Y-121133580D01*
X130855941Y-120942402D01*
X130740977Y-120770345D01*
X130740975Y-120770342D01*
X130594657Y-120624024D01*
X130444830Y-120523914D01*
X130422598Y-120509059D01*
X130231420Y-120429870D01*
X130231412Y-120429868D01*
X130028469Y-120389500D01*
X130028465Y-120389500D01*
X129571535Y-120389500D01*
X129571530Y-120389500D01*
X129368587Y-120429868D01*
X129368579Y-120429870D01*
X129177403Y-120509058D01*
X129005342Y-120624024D01*
X128859024Y-120770342D01*
X128744058Y-120942403D01*
X128664870Y-121133579D01*
X128664868Y-121133587D01*
X128624500Y-121336530D01*
X126411078Y-121336530D01*
X126408533Y-121317198D01*
X126349939Y-121175741D01*
X126256731Y-121054269D01*
X126135259Y-120961061D01*
X126135258Y-120961060D01*
X126052395Y-120926737D01*
X125993802Y-120902467D01*
X125979591Y-120900596D01*
X125880123Y-120887500D01*
X125880116Y-120887500D01*
X124279884Y-120887500D01*
X124279876Y-120887500D01*
X124166198Y-120902467D01*
X124166197Y-120902467D01*
X124024741Y-120961060D01*
X123903269Y-121054269D01*
X123810060Y-121175741D01*
X123751467Y-121317197D01*
X123751467Y-121317198D01*
X123736500Y-121430876D01*
X113723499Y-121430876D01*
X113708533Y-121317198D01*
X113649939Y-121175741D01*
X113556731Y-121054269D01*
X113435259Y-120961061D01*
X113435258Y-120961060D01*
X113352395Y-120926737D01*
X113293802Y-120902467D01*
X113279591Y-120900596D01*
X113180123Y-120887500D01*
X113180116Y-120887500D01*
X111579884Y-120887500D01*
X111579876Y-120887500D01*
X111466198Y-120902467D01*
X111466197Y-120902467D01*
X111324741Y-120961060D01*
X111203269Y-121054269D01*
X111110060Y-121175741D01*
X111051467Y-121317197D01*
X111051467Y-121317198D01*
X111036500Y-121430876D01*
X75426560Y-121430876D01*
X75518217Y-121401095D01*
X75684558Y-121316340D01*
X75707557Y-121304620D01*
X75879459Y-121179727D01*
X75879464Y-121179723D01*
X76029723Y-121029464D01*
X76029727Y-121029459D01*
X76154620Y-120857557D01*
X76251095Y-120668217D01*
X76316757Y-120466130D01*
X76316757Y-120466127D01*
X76350000Y-120256246D01*
X76350000Y-120250000D01*
X75433012Y-120250000D01*
X75465925Y-120192993D01*
X75500000Y-120065826D01*
X75500000Y-119934174D01*
X75465925Y-119807007D01*
X75433012Y-119750000D01*
X76350000Y-119750000D01*
X76350000Y-119743753D01*
X76316757Y-119533872D01*
X76316756Y-119533866D01*
X76312626Y-119521155D01*
X76312625Y-119521153D01*
X76301115Y-119485730D01*
X83679500Y-119485730D01*
X83679500Y-120794269D01*
X83682353Y-120824699D01*
X83682353Y-120824701D01*
X83723540Y-120942403D01*
X83727207Y-120952882D01*
X83807850Y-121062150D01*
X83917118Y-121142793D01*
X83959845Y-121157744D01*
X84045299Y-121187646D01*
X84075730Y-121190500D01*
X84075734Y-121190500D01*
X85684270Y-121190500D01*
X85714699Y-121187646D01*
X85714701Y-121187646D01*
X85778790Y-121165219D01*
X85842882Y-121142793D01*
X85952150Y-121062150D01*
X86032793Y-120952882D01*
X86066149Y-120857557D01*
X86077646Y-120824701D01*
X86077646Y-120824699D01*
X86080500Y-120794269D01*
X86080500Y-120148543D01*
X89369499Y-120148543D01*
X89407947Y-120341829D01*
X89407950Y-120341839D01*
X89483364Y-120523907D01*
X89483371Y-120523920D01*
X89592860Y-120687781D01*
X89592863Y-120687785D01*
X89732214Y-120827136D01*
X89732218Y-120827139D01*
X89896079Y-120936628D01*
X89896092Y-120936635D01*
X90078160Y-121012049D01*
X90078165Y-121012051D01*
X90078169Y-121012051D01*
X90078170Y-121012052D01*
X90271456Y-121050500D01*
X90271459Y-121050500D01*
X90468543Y-121050500D01*
X90598582Y-121024632D01*
X90661835Y-121012051D01*
X90804688Y-120952880D01*
X90843907Y-120936635D01*
X90843907Y-120936634D01*
X90843914Y-120936632D01*
X91007782Y-120827139D01*
X91147139Y-120687782D01*
X91256632Y-120523914D01*
X91332051Y-120341835D01*
X91370500Y-120148543D01*
X104609499Y-120148543D01*
X104647947Y-120341829D01*
X104647950Y-120341839D01*
X104723364Y-120523907D01*
X104723371Y-120523920D01*
X104832860Y-120687781D01*
X104832863Y-120687785D01*
X104972214Y-120827136D01*
X104972218Y-120827139D01*
X105136079Y-120936628D01*
X105136092Y-120936635D01*
X105318160Y-121012049D01*
X105318165Y-121012051D01*
X105318169Y-121012051D01*
X105318170Y-121012052D01*
X105511456Y-121050500D01*
X105511459Y-121050500D01*
X105708543Y-121050500D01*
X105838582Y-121024632D01*
X105901835Y-121012051D01*
X106044688Y-120952880D01*
X106083907Y-120936635D01*
X106083907Y-120936634D01*
X106083914Y-120936632D01*
X106247782Y-120827139D01*
X106387139Y-120687782D01*
X106496632Y-120523914D01*
X106572051Y-120341835D01*
X106610500Y-120148541D01*
X106610500Y-119951459D01*
X106610500Y-119951456D01*
X106572052Y-119758170D01*
X106572051Y-119758169D01*
X106572051Y-119758165D01*
X106568669Y-119750000D01*
X106496635Y-119576092D01*
X106496628Y-119576079D01*
X106387139Y-119412218D01*
X106387136Y-119412214D01*
X106247785Y-119272863D01*
X106247781Y-119272860D01*
X106083920Y-119163371D01*
X106083907Y-119163364D01*
X105901839Y-119087950D01*
X105901829Y-119087947D01*
X105708543Y-119049500D01*
X105708541Y-119049500D01*
X105511459Y-119049500D01*
X105511457Y-119049500D01*
X105318170Y-119087947D01*
X105318160Y-119087950D01*
X105136092Y-119163364D01*
X105136079Y-119163371D01*
X104972218Y-119272860D01*
X104972214Y-119272863D01*
X104832863Y-119412214D01*
X104832860Y-119412218D01*
X104723371Y-119576079D01*
X104723364Y-119576092D01*
X104647950Y-119758160D01*
X104647947Y-119758170D01*
X104609500Y-119951456D01*
X104609500Y-119951459D01*
X104609500Y-120148541D01*
X104609500Y-120148543D01*
X104609499Y-120148543D01*
X91370500Y-120148543D01*
X91370500Y-120148541D01*
X91370500Y-119951459D01*
X91370500Y-119951456D01*
X91332052Y-119758170D01*
X91332051Y-119758169D01*
X91332051Y-119758165D01*
X91328669Y-119750000D01*
X91256635Y-119576092D01*
X91256628Y-119576079D01*
X91147139Y-119412218D01*
X91147136Y-119412214D01*
X91007785Y-119272863D01*
X91007781Y-119272860D01*
X90843920Y-119163371D01*
X90843907Y-119163364D01*
X90661839Y-119087950D01*
X90661829Y-119087947D01*
X90468543Y-119049500D01*
X90468541Y-119049500D01*
X90271459Y-119049500D01*
X90271457Y-119049500D01*
X90078170Y-119087947D01*
X90078160Y-119087950D01*
X89896092Y-119163364D01*
X89896079Y-119163371D01*
X89732218Y-119272860D01*
X89732214Y-119272863D01*
X89592863Y-119412214D01*
X89592860Y-119412218D01*
X89483371Y-119576079D01*
X89483364Y-119576092D01*
X89407950Y-119758160D01*
X89407947Y-119758170D01*
X89369500Y-119951456D01*
X89369500Y-119951459D01*
X89369500Y-120148541D01*
X89369500Y-120148543D01*
X89369499Y-120148543D01*
X86080500Y-120148543D01*
X86080500Y-119485730D01*
X86077646Y-119455300D01*
X86077646Y-119455298D01*
X86032793Y-119327119D01*
X86032792Y-119327117D01*
X85952150Y-119217850D01*
X85842882Y-119137207D01*
X85842880Y-119137206D01*
X85714700Y-119092353D01*
X85684270Y-119089500D01*
X85684266Y-119089500D01*
X84075734Y-119089500D01*
X84075730Y-119089500D01*
X84045300Y-119092353D01*
X84045298Y-119092353D01*
X83917119Y-119137206D01*
X83917117Y-119137207D01*
X83807850Y-119217850D01*
X83727207Y-119327117D01*
X83727206Y-119327119D01*
X83682353Y-119455298D01*
X83682353Y-119455300D01*
X83679500Y-119485730D01*
X76301115Y-119485730D01*
X76251095Y-119331782D01*
X76154620Y-119142442D01*
X76029727Y-118970539D01*
X75950064Y-118890876D01*
X111036500Y-118890876D01*
X111036500Y-119729123D01*
X111051467Y-119842801D01*
X111051467Y-119842802D01*
X111110060Y-119984258D01*
X111110061Y-119984259D01*
X111203269Y-120105731D01*
X111324741Y-120198939D01*
X111466198Y-120257533D01*
X111579884Y-120272500D01*
X111579891Y-120272500D01*
X113180109Y-120272500D01*
X113180116Y-120272500D01*
X113293802Y-120257533D01*
X113435259Y-120198939D01*
X113556731Y-120105731D01*
X113649939Y-119984259D01*
X113708533Y-119842802D01*
X113723500Y-119729116D01*
X113723500Y-118890884D01*
X113723499Y-118890876D01*
X123736500Y-118890876D01*
X123736500Y-119729123D01*
X123751467Y-119842801D01*
X123751467Y-119842802D01*
X123810060Y-119984258D01*
X123810061Y-119984259D01*
X123903269Y-120105731D01*
X124024741Y-120198939D01*
X124166198Y-120257533D01*
X124279884Y-120272500D01*
X124279891Y-120272500D01*
X125880109Y-120272500D01*
X125880116Y-120272500D01*
X125993802Y-120257533D01*
X126135259Y-120198939D01*
X126256731Y-120105731D01*
X126349939Y-119984259D01*
X126408533Y-119842802D01*
X126423500Y-119729116D01*
X126423500Y-118890884D01*
X126416344Y-118836530D01*
X128624500Y-118836530D01*
X128624500Y-119043469D01*
X128664868Y-119246412D01*
X128664870Y-119246420D01*
X128744058Y-119437596D01*
X128859024Y-119609657D01*
X129005342Y-119755975D01*
X129005345Y-119755977D01*
X129177402Y-119870941D01*
X129368580Y-119950130D01*
X129571530Y-119990499D01*
X129571534Y-119990500D01*
X129571535Y-119990500D01*
X130028466Y-119990500D01*
X130028467Y-119990499D01*
X130231420Y-119950130D01*
X130422598Y-119870941D01*
X130594655Y-119755977D01*
X130740977Y-119609655D01*
X130855941Y-119437598D01*
X130935130Y-119246420D01*
X130975500Y-119043465D01*
X130975500Y-118836535D01*
X130935130Y-118633580D01*
X130855941Y-118442402D01*
X130740977Y-118270345D01*
X130740975Y-118270342D01*
X130594657Y-118124024D01*
X130508626Y-118066541D01*
X130422598Y-118009059D01*
X130361907Y-117983920D01*
X130231420Y-117929870D01*
X130231412Y-117929868D01*
X130028469Y-117889500D01*
X130028465Y-117889500D01*
X129571535Y-117889500D01*
X129571530Y-117889500D01*
X129368587Y-117929868D01*
X129368579Y-117929870D01*
X129177403Y-118009058D01*
X129005342Y-118124024D01*
X128859024Y-118270342D01*
X128744058Y-118442403D01*
X128664870Y-118633579D01*
X128664868Y-118633587D01*
X128624500Y-118836530D01*
X126416344Y-118836530D01*
X126408533Y-118777198D01*
X126349939Y-118635741D01*
X126256731Y-118514269D01*
X126135259Y-118421061D01*
X126135258Y-118421060D01*
X126052395Y-118386737D01*
X125993802Y-118362467D01*
X125979591Y-118360596D01*
X125880123Y-118347500D01*
X125880116Y-118347500D01*
X124279884Y-118347500D01*
X124279876Y-118347500D01*
X124166198Y-118362467D01*
X124166197Y-118362467D01*
X124024741Y-118421060D01*
X123903269Y-118514269D01*
X123810060Y-118635741D01*
X123751467Y-118777197D01*
X123751467Y-118777198D01*
X123736500Y-118890876D01*
X113723499Y-118890876D01*
X113708533Y-118777198D01*
X113649939Y-118635741D01*
X113556731Y-118514269D01*
X113435259Y-118421061D01*
X113435258Y-118421060D01*
X113352395Y-118386737D01*
X113293802Y-118362467D01*
X113279591Y-118360596D01*
X113180123Y-118347500D01*
X113180116Y-118347500D01*
X111579884Y-118347500D01*
X111579876Y-118347500D01*
X111466198Y-118362467D01*
X111466197Y-118362467D01*
X111324741Y-118421060D01*
X111203269Y-118514269D01*
X111110060Y-118635741D01*
X111051467Y-118777197D01*
X111051467Y-118777198D01*
X111036500Y-118890876D01*
X75950064Y-118890876D01*
X75879464Y-118820276D01*
X75879459Y-118820272D01*
X75707557Y-118695379D01*
X75518215Y-118598903D01*
X75316124Y-118533241D01*
X75250000Y-118522768D01*
X75250000Y-119566988D01*
X75192993Y-119534075D01*
X75065826Y-119500000D01*
X74934174Y-119500000D01*
X74807007Y-119534075D01*
X74750000Y-119566988D01*
X74750000Y-118522768D01*
X74749999Y-118522768D01*
X74683875Y-118533241D01*
X74481784Y-118598903D01*
X74292442Y-118695379D01*
X74120540Y-118820272D01*
X74120535Y-118820276D01*
X73970276Y-118970535D01*
X73970272Y-118970540D01*
X73845379Y-119142442D01*
X73784985Y-119260971D01*
X73737010Y-119311767D01*
X73669189Y-119328562D01*
X73603054Y-119306024D01*
X73559603Y-119251309D01*
X73550500Y-119204676D01*
X73550500Y-119195730D01*
X73547646Y-119165300D01*
X73547646Y-119165298D01*
X73514006Y-119069163D01*
X73502793Y-119037118D01*
X73422150Y-118927850D01*
X73312882Y-118847207D01*
X73312880Y-118847206D01*
X73184700Y-118802353D01*
X73154270Y-118799500D01*
X73154266Y-118799500D01*
X71845734Y-118799500D01*
X71845730Y-118799500D01*
X71815300Y-118802353D01*
X71815298Y-118802353D01*
X71687119Y-118847206D01*
X71687117Y-118847207D01*
X71577850Y-118927850D01*
X71497207Y-119037117D01*
X71497206Y-119037119D01*
X71452353Y-119165298D01*
X71452353Y-119165300D01*
X71449500Y-119195730D01*
X65500500Y-119195730D01*
X65500500Y-117608543D01*
X89369499Y-117608543D01*
X89407947Y-117801829D01*
X89407950Y-117801839D01*
X89483364Y-117983907D01*
X89483371Y-117983920D01*
X89592860Y-118147781D01*
X89592863Y-118147785D01*
X89732214Y-118287136D01*
X89732218Y-118287139D01*
X89896079Y-118396628D01*
X89896092Y-118396635D01*
X90078160Y-118472049D01*
X90078165Y-118472051D01*
X90078169Y-118472051D01*
X90078170Y-118472052D01*
X90271456Y-118510500D01*
X90271459Y-118510500D01*
X90468543Y-118510500D01*
X90598582Y-118484632D01*
X90661835Y-118472051D01*
X90843914Y-118396632D01*
X91007782Y-118287139D01*
X91147139Y-118147782D01*
X91256632Y-117983914D01*
X91332051Y-117801835D01*
X91370500Y-117608543D01*
X91909499Y-117608543D01*
X91947947Y-117801829D01*
X91947950Y-117801839D01*
X92023364Y-117983907D01*
X92023371Y-117983920D01*
X92132860Y-118147781D01*
X92132863Y-118147785D01*
X92272214Y-118287136D01*
X92272218Y-118287139D01*
X92436079Y-118396628D01*
X92436092Y-118396635D01*
X92618160Y-118472049D01*
X92618165Y-118472051D01*
X92618169Y-118472051D01*
X92618170Y-118472052D01*
X92811456Y-118510500D01*
X92811459Y-118510500D01*
X93008543Y-118510500D01*
X93138582Y-118484632D01*
X93201835Y-118472051D01*
X93383914Y-118396632D01*
X93547782Y-118287139D01*
X93687139Y-118147782D01*
X93796632Y-117983914D01*
X93872051Y-117801835D01*
X93910500Y-117608543D01*
X94449499Y-117608543D01*
X94487947Y-117801829D01*
X94487950Y-117801839D01*
X94563364Y-117983907D01*
X94563371Y-117983920D01*
X94672860Y-118147781D01*
X94672863Y-118147785D01*
X94812214Y-118287136D01*
X94812218Y-118287139D01*
X94976079Y-118396628D01*
X94976092Y-118396635D01*
X95158160Y-118472049D01*
X95158165Y-118472051D01*
X95158169Y-118472051D01*
X95158170Y-118472052D01*
X95351456Y-118510500D01*
X95351459Y-118510500D01*
X95548543Y-118510500D01*
X95678582Y-118484632D01*
X95741835Y-118472051D01*
X95923914Y-118396632D01*
X96087782Y-118287139D01*
X96227139Y-118147782D01*
X96336632Y-117983914D01*
X96412051Y-117801835D01*
X96450500Y-117608543D01*
X96989499Y-117608543D01*
X97027947Y-117801829D01*
X97027950Y-117801839D01*
X97103364Y-117983907D01*
X97103371Y-117983920D01*
X97212860Y-118147781D01*
X97212863Y-118147785D01*
X97352214Y-118287136D01*
X97352218Y-118287139D01*
X97516079Y-118396628D01*
X97516092Y-118396635D01*
X97698160Y-118472049D01*
X97698165Y-118472051D01*
X97698169Y-118472051D01*
X97698170Y-118472052D01*
X97891456Y-118510500D01*
X97891459Y-118510500D01*
X98088543Y-118510500D01*
X98218582Y-118484632D01*
X98281835Y-118472051D01*
X98463914Y-118396632D01*
X98627782Y-118287139D01*
X98767139Y-118147782D01*
X98876632Y-117983914D01*
X98952051Y-117801835D01*
X98990500Y-117608543D01*
X99529499Y-117608543D01*
X99567947Y-117801829D01*
X99567950Y-117801839D01*
X99643364Y-117983907D01*
X99643371Y-117983920D01*
X99752860Y-118147781D01*
X99752863Y-118147785D01*
X99892214Y-118287136D01*
X99892218Y-118287139D01*
X100056079Y-118396628D01*
X100056092Y-118396635D01*
X100238160Y-118472049D01*
X100238165Y-118472051D01*
X100238169Y-118472051D01*
X100238170Y-118472052D01*
X100431456Y-118510500D01*
X100431459Y-118510500D01*
X100628543Y-118510500D01*
X100758582Y-118484632D01*
X100821835Y-118472051D01*
X101003914Y-118396632D01*
X101167782Y-118287139D01*
X101307139Y-118147782D01*
X101416632Y-117983914D01*
X101492051Y-117801835D01*
X101530500Y-117608543D01*
X102069499Y-117608543D01*
X102107947Y-117801829D01*
X102107950Y-117801839D01*
X102183364Y-117983907D01*
X102183371Y-117983920D01*
X102292860Y-118147781D01*
X102292863Y-118147785D01*
X102432214Y-118287136D01*
X102432218Y-118287139D01*
X102596079Y-118396628D01*
X102596092Y-118396635D01*
X102778160Y-118472049D01*
X102778165Y-118472051D01*
X102778169Y-118472051D01*
X102778170Y-118472052D01*
X102971456Y-118510500D01*
X102971459Y-118510500D01*
X103168543Y-118510500D01*
X103298582Y-118484632D01*
X103361835Y-118472051D01*
X103543914Y-118396632D01*
X103707782Y-118287139D01*
X103847139Y-118147782D01*
X103956632Y-117983914D01*
X104032051Y-117801835D01*
X104070500Y-117608543D01*
X104609499Y-117608543D01*
X104647947Y-117801829D01*
X104647950Y-117801839D01*
X104723364Y-117983907D01*
X104723371Y-117983920D01*
X104832860Y-118147781D01*
X104832863Y-118147785D01*
X104972214Y-118287136D01*
X104972218Y-118287139D01*
X105136079Y-118396628D01*
X105136092Y-118396635D01*
X105318160Y-118472049D01*
X105318165Y-118472051D01*
X105318169Y-118472051D01*
X105318170Y-118472052D01*
X105511456Y-118510500D01*
X105511459Y-118510500D01*
X105708543Y-118510500D01*
X105838582Y-118484632D01*
X105901835Y-118472051D01*
X106083914Y-118396632D01*
X106247782Y-118287139D01*
X106387139Y-118147782D01*
X106496632Y-117983914D01*
X106572051Y-117801835D01*
X106610500Y-117608541D01*
X106610500Y-117411459D01*
X106610500Y-117411456D01*
X106572052Y-117218170D01*
X106572051Y-117218169D01*
X106572051Y-117218165D01*
X106527105Y-117109655D01*
X106496635Y-117036092D01*
X106496628Y-117036079D01*
X106387139Y-116872218D01*
X106387136Y-116872214D01*
X106247785Y-116732863D01*
X106247781Y-116732860D01*
X106083920Y-116623371D01*
X106083907Y-116623364D01*
X105901839Y-116547950D01*
X105901829Y-116547947D01*
X105708543Y-116509500D01*
X105708541Y-116509500D01*
X105511459Y-116509500D01*
X105511457Y-116509500D01*
X105318170Y-116547947D01*
X105318160Y-116547950D01*
X105136092Y-116623364D01*
X105136079Y-116623371D01*
X104972218Y-116732860D01*
X104972214Y-116732863D01*
X104832863Y-116872214D01*
X104832860Y-116872218D01*
X104723371Y-117036079D01*
X104723364Y-117036092D01*
X104647950Y-117218160D01*
X104647947Y-117218170D01*
X104609500Y-117411456D01*
X104609500Y-117411459D01*
X104609500Y-117608541D01*
X104609500Y-117608543D01*
X104609499Y-117608543D01*
X104070500Y-117608543D01*
X104070500Y-117608541D01*
X104070500Y-117411459D01*
X104070500Y-117411456D01*
X104032052Y-117218170D01*
X104032051Y-117218169D01*
X104032051Y-117218165D01*
X103987105Y-117109655D01*
X103956635Y-117036092D01*
X103956628Y-117036079D01*
X103847139Y-116872218D01*
X103847136Y-116872214D01*
X103707785Y-116732863D01*
X103707781Y-116732860D01*
X103543920Y-116623371D01*
X103543907Y-116623364D01*
X103361839Y-116547950D01*
X103361829Y-116547947D01*
X103168543Y-116509500D01*
X103168541Y-116509500D01*
X102971459Y-116509500D01*
X102971457Y-116509500D01*
X102778170Y-116547947D01*
X102778160Y-116547950D01*
X102596092Y-116623364D01*
X102596079Y-116623371D01*
X102432218Y-116732860D01*
X102432214Y-116732863D01*
X102292863Y-116872214D01*
X102292860Y-116872218D01*
X102183371Y-117036079D01*
X102183364Y-117036092D01*
X102107950Y-117218160D01*
X102107947Y-117218170D01*
X102069500Y-117411456D01*
X102069500Y-117411459D01*
X102069500Y-117608541D01*
X102069500Y-117608543D01*
X102069499Y-117608543D01*
X101530500Y-117608543D01*
X101530500Y-117608541D01*
X101530500Y-117411459D01*
X101530500Y-117411456D01*
X101492052Y-117218170D01*
X101492051Y-117218169D01*
X101492051Y-117218165D01*
X101447105Y-117109655D01*
X101416635Y-117036092D01*
X101416628Y-117036079D01*
X101307139Y-116872218D01*
X101307136Y-116872214D01*
X101167785Y-116732863D01*
X101167781Y-116732860D01*
X101003920Y-116623371D01*
X101003907Y-116623364D01*
X100821839Y-116547950D01*
X100821829Y-116547947D01*
X100628543Y-116509500D01*
X100628541Y-116509500D01*
X100431459Y-116509500D01*
X100431457Y-116509500D01*
X100238170Y-116547947D01*
X100238160Y-116547950D01*
X100056092Y-116623364D01*
X100056079Y-116623371D01*
X99892218Y-116732860D01*
X99892214Y-116732863D01*
X99752863Y-116872214D01*
X99752860Y-116872218D01*
X99643371Y-117036079D01*
X99643364Y-117036092D01*
X99567950Y-117218160D01*
X99567947Y-117218170D01*
X99529500Y-117411456D01*
X99529500Y-117411459D01*
X99529500Y-117608541D01*
X99529500Y-117608543D01*
X99529499Y-117608543D01*
X98990500Y-117608543D01*
X98990500Y-117608541D01*
X98990500Y-117411459D01*
X98990500Y-117411456D01*
X98952052Y-117218170D01*
X98952051Y-117218169D01*
X98952051Y-117218165D01*
X98907105Y-117109655D01*
X98876635Y-117036092D01*
X98876628Y-117036079D01*
X98767139Y-116872218D01*
X98767136Y-116872214D01*
X98627785Y-116732863D01*
X98627781Y-116732860D01*
X98463920Y-116623371D01*
X98463907Y-116623364D01*
X98281839Y-116547950D01*
X98281829Y-116547947D01*
X98088543Y-116509500D01*
X98088541Y-116509500D01*
X97891459Y-116509500D01*
X97891457Y-116509500D01*
X97698170Y-116547947D01*
X97698160Y-116547950D01*
X97516092Y-116623364D01*
X97516079Y-116623371D01*
X97352218Y-116732860D01*
X97352214Y-116732863D01*
X97212863Y-116872214D01*
X97212860Y-116872218D01*
X97103371Y-117036079D01*
X97103364Y-117036092D01*
X97027950Y-117218160D01*
X97027947Y-117218170D01*
X96989500Y-117411456D01*
X96989500Y-117411459D01*
X96989500Y-117608541D01*
X96989500Y-117608543D01*
X96989499Y-117608543D01*
X96450500Y-117608543D01*
X96450500Y-117608541D01*
X96450500Y-117411459D01*
X96450500Y-117411456D01*
X96412052Y-117218170D01*
X96412051Y-117218169D01*
X96412051Y-117218165D01*
X96367105Y-117109655D01*
X96336635Y-117036092D01*
X96336628Y-117036079D01*
X96227139Y-116872218D01*
X96227136Y-116872214D01*
X96087785Y-116732863D01*
X96087781Y-116732860D01*
X95923920Y-116623371D01*
X95923907Y-116623364D01*
X95741839Y-116547950D01*
X95741829Y-116547947D01*
X95548543Y-116509500D01*
X95548541Y-116509500D01*
X95351459Y-116509500D01*
X95351457Y-116509500D01*
X95158170Y-116547947D01*
X95158160Y-116547950D01*
X94976092Y-116623364D01*
X94976079Y-116623371D01*
X94812218Y-116732860D01*
X94812214Y-116732863D01*
X94672863Y-116872214D01*
X94672860Y-116872218D01*
X94563371Y-117036079D01*
X94563364Y-117036092D01*
X94487950Y-117218160D01*
X94487947Y-117218170D01*
X94449500Y-117411456D01*
X94449500Y-117411459D01*
X94449500Y-117608541D01*
X94449500Y-117608543D01*
X94449499Y-117608543D01*
X93910500Y-117608543D01*
X93910500Y-117608541D01*
X93910500Y-117411459D01*
X93910500Y-117411456D01*
X93872052Y-117218170D01*
X93872051Y-117218169D01*
X93872051Y-117218165D01*
X93827105Y-117109655D01*
X93796635Y-117036092D01*
X93796628Y-117036079D01*
X93687139Y-116872218D01*
X93687136Y-116872214D01*
X93547785Y-116732863D01*
X93547781Y-116732860D01*
X93383920Y-116623371D01*
X93383907Y-116623364D01*
X93201839Y-116547950D01*
X93201829Y-116547947D01*
X93008543Y-116509500D01*
X93008541Y-116509500D01*
X92811459Y-116509500D01*
X92811457Y-116509500D01*
X92618170Y-116547947D01*
X92618160Y-116547950D01*
X92436092Y-116623364D01*
X92436079Y-116623371D01*
X92272218Y-116732860D01*
X92272214Y-116732863D01*
X92132863Y-116872214D01*
X92132860Y-116872218D01*
X92023371Y-117036079D01*
X92023364Y-117036092D01*
X91947950Y-117218160D01*
X91947947Y-117218170D01*
X91909500Y-117411456D01*
X91909500Y-117411459D01*
X91909500Y-117608541D01*
X91909500Y-117608543D01*
X91909499Y-117608543D01*
X91370500Y-117608543D01*
X91370500Y-117608541D01*
X91370500Y-117411459D01*
X91370500Y-117411456D01*
X91332052Y-117218170D01*
X91332051Y-117218169D01*
X91332051Y-117218165D01*
X91287105Y-117109655D01*
X91256635Y-117036092D01*
X91256628Y-117036079D01*
X91147139Y-116872218D01*
X91147136Y-116872214D01*
X91007785Y-116732863D01*
X91007781Y-116732860D01*
X90843920Y-116623371D01*
X90843907Y-116623364D01*
X90661839Y-116547950D01*
X90661829Y-116547947D01*
X90468543Y-116509500D01*
X90468541Y-116509500D01*
X90271459Y-116509500D01*
X90271457Y-116509500D01*
X90078170Y-116547947D01*
X90078160Y-116547950D01*
X89896092Y-116623364D01*
X89896079Y-116623371D01*
X89732218Y-116732860D01*
X89732214Y-116732863D01*
X89592863Y-116872214D01*
X89592860Y-116872218D01*
X89483371Y-117036079D01*
X89483364Y-117036092D01*
X89407950Y-117218160D01*
X89407947Y-117218170D01*
X89369500Y-117411456D01*
X89369500Y-117411459D01*
X89369500Y-117608541D01*
X89369500Y-117608543D01*
X89369499Y-117608543D01*
X65500500Y-117608543D01*
X65500500Y-116350876D01*
X111036500Y-116350876D01*
X111036500Y-117189123D01*
X111051467Y-117302801D01*
X111051467Y-117302802D01*
X111110060Y-117444258D01*
X111110061Y-117444259D01*
X111203269Y-117565731D01*
X111324741Y-117658939D01*
X111466198Y-117717533D01*
X111579884Y-117732500D01*
X111579891Y-117732500D01*
X113180109Y-117732500D01*
X113180116Y-117732500D01*
X113293802Y-117717533D01*
X113435259Y-117658939D01*
X113556731Y-117565731D01*
X113649939Y-117444259D01*
X113708533Y-117302802D01*
X113723500Y-117189116D01*
X113723500Y-116350884D01*
X113723499Y-116350876D01*
X123736500Y-116350876D01*
X123736500Y-117189123D01*
X123751467Y-117302801D01*
X123751467Y-117302802D01*
X123810060Y-117444258D01*
X123810061Y-117444259D01*
X123903269Y-117565731D01*
X124024741Y-117658939D01*
X124166198Y-117717533D01*
X124279884Y-117732500D01*
X124279891Y-117732500D01*
X125880109Y-117732500D01*
X125880116Y-117732500D01*
X125993802Y-117717533D01*
X126135259Y-117658939D01*
X126256731Y-117565731D01*
X126349939Y-117444259D01*
X126408533Y-117302802D01*
X126423500Y-117189116D01*
X126423500Y-116350884D01*
X126421610Y-116336530D01*
X128624500Y-116336530D01*
X128624500Y-116543469D01*
X128664868Y-116746412D01*
X128664870Y-116746420D01*
X128744058Y-116937596D01*
X128859024Y-117109657D01*
X129005342Y-117255975D01*
X129005345Y-117255977D01*
X129177402Y-117370941D01*
X129368580Y-117450130D01*
X129571530Y-117490499D01*
X129571534Y-117490500D01*
X129571535Y-117490500D01*
X130028466Y-117490500D01*
X130028467Y-117490499D01*
X130231420Y-117450130D01*
X130422598Y-117370941D01*
X130594655Y-117255977D01*
X130740977Y-117109655D01*
X130855941Y-116937598D01*
X130935130Y-116746420D01*
X130975500Y-116543465D01*
X130975500Y-116336535D01*
X130935130Y-116133580D01*
X130855941Y-115942402D01*
X130740977Y-115770345D01*
X130740975Y-115770342D01*
X130594657Y-115624024D01*
X130508626Y-115566541D01*
X130422598Y-115509059D01*
X130381409Y-115491998D01*
X130231420Y-115429870D01*
X130231412Y-115429868D01*
X130028469Y-115389500D01*
X130028465Y-115389500D01*
X129571535Y-115389500D01*
X129571530Y-115389500D01*
X129368587Y-115429868D01*
X129368579Y-115429870D01*
X129177403Y-115509058D01*
X129005342Y-115624024D01*
X128859024Y-115770342D01*
X128744058Y-115942403D01*
X128664870Y-116133579D01*
X128664868Y-116133587D01*
X128624500Y-116336530D01*
X126421610Y-116336530D01*
X126418516Y-116313034D01*
X126408533Y-116237198D01*
X126349939Y-116095741D01*
X126256731Y-115974269D01*
X126135259Y-115881061D01*
X126135258Y-115881060D01*
X126052395Y-115846737D01*
X125993802Y-115822467D01*
X125979591Y-115820596D01*
X125880123Y-115807500D01*
X125880116Y-115807500D01*
X124279884Y-115807500D01*
X124279876Y-115807500D01*
X124166198Y-115822467D01*
X124166197Y-115822467D01*
X124024741Y-115881060D01*
X123903269Y-115974269D01*
X123810060Y-116095741D01*
X123751467Y-116237197D01*
X123751467Y-116237198D01*
X123736500Y-116350876D01*
X113723499Y-116350876D01*
X113708533Y-116237198D01*
X113649939Y-116095741D01*
X113556731Y-115974269D01*
X113435259Y-115881061D01*
X113435258Y-115881060D01*
X113352395Y-115846737D01*
X113293802Y-115822467D01*
X113279591Y-115820596D01*
X113180123Y-115807500D01*
X113180116Y-115807500D01*
X111579884Y-115807500D01*
X111579876Y-115807500D01*
X111466198Y-115822467D01*
X111466197Y-115822467D01*
X111324741Y-115881060D01*
X111203269Y-115974269D01*
X111110060Y-116095741D01*
X111051467Y-116237197D01*
X111051467Y-116237198D01*
X111036500Y-116350876D01*
X65500500Y-116350876D01*
X65500500Y-115068543D01*
X89369499Y-115068543D01*
X89407947Y-115261829D01*
X89407950Y-115261839D01*
X89483364Y-115443907D01*
X89483371Y-115443920D01*
X89592860Y-115607781D01*
X89592863Y-115607785D01*
X89732214Y-115747136D01*
X89732218Y-115747139D01*
X89896079Y-115856628D01*
X89896092Y-115856635D01*
X90078160Y-115932049D01*
X90078165Y-115932051D01*
X90078169Y-115932051D01*
X90078170Y-115932052D01*
X90271456Y-115970500D01*
X90271459Y-115970500D01*
X90468543Y-115970500D01*
X90598582Y-115944632D01*
X90661835Y-115932051D01*
X90843914Y-115856632D01*
X91007782Y-115747139D01*
X91147139Y-115607782D01*
X91256632Y-115443914D01*
X91332051Y-115261835D01*
X91366575Y-115088275D01*
X91370500Y-115068543D01*
X104609499Y-115068543D01*
X104647947Y-115261829D01*
X104647950Y-115261839D01*
X104723364Y-115443907D01*
X104723371Y-115443920D01*
X104832860Y-115607781D01*
X104832863Y-115607785D01*
X104972214Y-115747136D01*
X104972218Y-115747139D01*
X105136079Y-115856628D01*
X105136092Y-115856635D01*
X105318160Y-115932049D01*
X105318165Y-115932051D01*
X105318169Y-115932051D01*
X105318170Y-115932052D01*
X105511456Y-115970500D01*
X105511459Y-115970500D01*
X105708543Y-115970500D01*
X105838582Y-115944632D01*
X105901835Y-115932051D01*
X106083914Y-115856632D01*
X106247782Y-115747139D01*
X106387139Y-115607782D01*
X106496632Y-115443914D01*
X106502450Y-115429868D01*
X106514681Y-115400341D01*
X106572049Y-115261839D01*
X106572051Y-115261835D01*
X106606575Y-115088275D01*
X106610500Y-115068543D01*
X106610500Y-114871456D01*
X106572052Y-114678170D01*
X106572051Y-114678169D01*
X106572051Y-114678165D01*
X106554084Y-114634789D01*
X106496635Y-114496092D01*
X106496628Y-114496079D01*
X106387139Y-114332218D01*
X106387136Y-114332214D01*
X106247785Y-114192863D01*
X106247781Y-114192860D01*
X106083920Y-114083371D01*
X106083907Y-114083364D01*
X105901839Y-114007950D01*
X105901829Y-114007947D01*
X105708543Y-113969500D01*
X105708541Y-113969500D01*
X105511459Y-113969500D01*
X105511457Y-113969500D01*
X105318170Y-114007947D01*
X105318160Y-114007950D01*
X105136092Y-114083364D01*
X105136079Y-114083371D01*
X104972218Y-114192860D01*
X104972214Y-114192863D01*
X104832863Y-114332214D01*
X104832860Y-114332218D01*
X104723371Y-114496079D01*
X104723364Y-114496092D01*
X104647950Y-114678160D01*
X104647947Y-114678170D01*
X104609500Y-114871456D01*
X104609500Y-114871459D01*
X104609500Y-115068541D01*
X104609500Y-115068543D01*
X104609499Y-115068543D01*
X91370500Y-115068543D01*
X91370500Y-114871456D01*
X91332052Y-114678170D01*
X91332051Y-114678169D01*
X91332051Y-114678165D01*
X91314084Y-114634789D01*
X91256635Y-114496092D01*
X91256628Y-114496079D01*
X91147139Y-114332218D01*
X91147136Y-114332214D01*
X91007785Y-114192863D01*
X91007781Y-114192860D01*
X90843920Y-114083371D01*
X90843907Y-114083364D01*
X90661839Y-114007950D01*
X90661829Y-114007947D01*
X90468543Y-113969500D01*
X90468541Y-113969500D01*
X90271459Y-113969500D01*
X90271457Y-113969500D01*
X90078170Y-114007947D01*
X90078160Y-114007950D01*
X89896092Y-114083364D01*
X89896079Y-114083371D01*
X89732218Y-114192860D01*
X89732214Y-114192863D01*
X89592863Y-114332214D01*
X89592860Y-114332218D01*
X89483371Y-114496079D01*
X89483364Y-114496092D01*
X89407950Y-114678160D01*
X89407947Y-114678170D01*
X89369500Y-114871456D01*
X89369500Y-114871459D01*
X89369500Y-115068541D01*
X89369500Y-115068543D01*
X89369499Y-115068543D01*
X65500500Y-115068543D01*
X65500500Y-113810876D01*
X111036500Y-113810876D01*
X111036500Y-114649123D01*
X111051467Y-114762801D01*
X111051467Y-114762802D01*
X111110060Y-114904258D01*
X111110061Y-114904259D01*
X111203269Y-115025731D01*
X111324741Y-115118939D01*
X111466198Y-115177533D01*
X111579884Y-115192500D01*
X111579891Y-115192500D01*
X113180109Y-115192500D01*
X113180116Y-115192500D01*
X113293802Y-115177533D01*
X113435259Y-115118939D01*
X113556731Y-115025731D01*
X113649939Y-114904259D01*
X113708533Y-114762802D01*
X113723500Y-114649116D01*
X113723500Y-113810884D01*
X113718433Y-113772395D01*
X123437000Y-113772395D01*
X123437000Y-114687605D01*
X123437001Y-114687609D01*
X123439917Y-114730632D01*
X123439917Y-114730634D01*
X123486165Y-114916602D01*
X123571307Y-115088275D01*
X123691364Y-115237631D01*
X123706582Y-115249864D01*
X124490439Y-114466008D01*
X124517271Y-114530785D01*
X124586764Y-114634789D01*
X124675211Y-114723236D01*
X124779215Y-114792729D01*
X124843990Y-114819560D01*
X124179227Y-115484322D01*
X124198365Y-115489081D01*
X124241395Y-115491999D01*
X125918605Y-115491999D01*
X125918609Y-115491998D01*
X125961634Y-115489082D01*
X125980771Y-115484323D01*
X125980771Y-115484322D01*
X125316008Y-114819560D01*
X125380785Y-114792729D01*
X125484789Y-114723236D01*
X125573236Y-114634789D01*
X125642729Y-114530785D01*
X125669560Y-114466008D01*
X126453416Y-115249864D01*
X126453417Y-115249864D01*
X126468631Y-115237635D01*
X126588693Y-115088272D01*
X126673834Y-114916602D01*
X126720081Y-114730640D01*
X126722999Y-114687604D01*
X126722999Y-113772394D01*
X126722998Y-113772390D01*
X126720082Y-113729367D01*
X126720082Y-113729365D01*
X126673834Y-113543397D01*
X126588692Y-113371724D01*
X126468636Y-113222368D01*
X126468631Y-113222363D01*
X126453417Y-113210134D01*
X125669560Y-113993990D01*
X125642729Y-113929215D01*
X125573236Y-113825211D01*
X125484789Y-113736764D01*
X125380785Y-113667271D01*
X125316008Y-113640439D01*
X125980770Y-112975676D01*
X125961637Y-112970918D01*
X125918604Y-112968000D01*
X124241394Y-112968000D01*
X124241390Y-112968001D01*
X124198370Y-112970917D01*
X124198367Y-112970917D01*
X124179228Y-112975676D01*
X124843991Y-113640439D01*
X124779215Y-113667271D01*
X124675211Y-113736764D01*
X124586764Y-113825211D01*
X124517271Y-113929215D01*
X124490439Y-113993990D01*
X123706581Y-113210133D01*
X123691370Y-113222362D01*
X123691362Y-113222369D01*
X123571307Y-113371724D01*
X123486165Y-113543397D01*
X123439918Y-113729359D01*
X123437000Y-113772395D01*
X113718433Y-113772395D01*
X113708533Y-113697198D01*
X113649939Y-113555741D01*
X113556731Y-113434269D01*
X113435259Y-113341061D01*
X113435258Y-113341060D01*
X113352395Y-113306737D01*
X113293802Y-113282467D01*
X113279591Y-113280596D01*
X113180123Y-113267500D01*
X113180116Y-113267500D01*
X111579884Y-113267500D01*
X111579876Y-113267500D01*
X111466198Y-113282467D01*
X111466197Y-113282467D01*
X111324741Y-113341060D01*
X111203269Y-113434269D01*
X111110060Y-113555741D01*
X111051467Y-113697197D01*
X111051467Y-113697198D01*
X111036500Y-113810876D01*
X65500500Y-113810876D01*
X65500500Y-112528543D01*
X89369499Y-112528543D01*
X89407947Y-112721829D01*
X89407950Y-112721839D01*
X89483364Y-112903907D01*
X89483371Y-112903920D01*
X89592860Y-113067781D01*
X89592863Y-113067785D01*
X89732214Y-113207136D01*
X89732218Y-113207139D01*
X89896079Y-113316628D01*
X89896092Y-113316635D01*
X90078160Y-113392049D01*
X90078165Y-113392051D01*
X90078169Y-113392051D01*
X90078170Y-113392052D01*
X90271456Y-113430500D01*
X90271459Y-113430500D01*
X90468543Y-113430500D01*
X90598582Y-113404632D01*
X90661835Y-113392051D01*
X90843914Y-113316632D01*
X91007782Y-113207139D01*
X91147139Y-113067782D01*
X91256632Y-112903914D01*
X91332051Y-112721835D01*
X91370500Y-112528543D01*
X104609499Y-112528543D01*
X104647947Y-112721829D01*
X104647950Y-112721839D01*
X104723364Y-112903907D01*
X104723371Y-112903920D01*
X104832860Y-113067781D01*
X104832863Y-113067785D01*
X104972214Y-113207136D01*
X104972218Y-113207139D01*
X105136079Y-113316628D01*
X105136092Y-113316635D01*
X105318160Y-113392049D01*
X105318165Y-113392051D01*
X105318169Y-113392051D01*
X105318170Y-113392052D01*
X105511456Y-113430500D01*
X105511459Y-113430500D01*
X105708543Y-113430500D01*
X105838582Y-113404632D01*
X105901835Y-113392051D01*
X106083914Y-113316632D01*
X106247782Y-113207139D01*
X106387139Y-113067782D01*
X106448682Y-112975676D01*
X106470307Y-112943313D01*
X106496628Y-112903920D01*
X106496628Y-112903919D01*
X106496632Y-112903914D01*
X106572051Y-112721835D01*
X106610500Y-112528541D01*
X106610500Y-112331459D01*
X106610500Y-112331456D01*
X106572052Y-112138170D01*
X106572051Y-112138169D01*
X106572051Y-112138165D01*
X106560016Y-112109109D01*
X106496635Y-111956092D01*
X106496628Y-111956079D01*
X106387139Y-111792218D01*
X106387136Y-111792214D01*
X106247785Y-111652863D01*
X106247781Y-111652860D01*
X106083920Y-111543371D01*
X106083907Y-111543364D01*
X105901839Y-111467950D01*
X105901829Y-111467947D01*
X105708543Y-111429500D01*
X105708541Y-111429500D01*
X105511459Y-111429500D01*
X105511457Y-111429500D01*
X105318170Y-111467947D01*
X105318160Y-111467950D01*
X105136092Y-111543364D01*
X105136079Y-111543371D01*
X104972218Y-111652860D01*
X104972214Y-111652863D01*
X104832863Y-111792214D01*
X104832860Y-111792218D01*
X104723371Y-111956079D01*
X104723364Y-111956092D01*
X104647950Y-112138160D01*
X104647947Y-112138170D01*
X104609500Y-112331456D01*
X104609500Y-112331459D01*
X104609500Y-112528541D01*
X104609500Y-112528543D01*
X104609499Y-112528543D01*
X91370500Y-112528543D01*
X91370500Y-112528541D01*
X91370500Y-112331459D01*
X91370500Y-112331456D01*
X91332052Y-112138170D01*
X91332051Y-112138169D01*
X91332051Y-112138165D01*
X91320016Y-112109109D01*
X91256635Y-111956092D01*
X91256628Y-111956079D01*
X91147139Y-111792218D01*
X91147136Y-111792214D01*
X91007785Y-111652863D01*
X91007781Y-111652860D01*
X90843920Y-111543371D01*
X90843907Y-111543364D01*
X90661839Y-111467950D01*
X90661829Y-111467947D01*
X90468543Y-111429500D01*
X90468541Y-111429500D01*
X90271459Y-111429500D01*
X90271457Y-111429500D01*
X90078170Y-111467947D01*
X90078160Y-111467950D01*
X89896092Y-111543364D01*
X89896079Y-111543371D01*
X89732218Y-111652860D01*
X89732214Y-111652863D01*
X89592863Y-111792214D01*
X89592860Y-111792218D01*
X89483371Y-111956079D01*
X89483364Y-111956092D01*
X89407950Y-112138160D01*
X89407947Y-112138170D01*
X89369500Y-112331456D01*
X89369500Y-112331459D01*
X89369500Y-112528541D01*
X89369500Y-112528543D01*
X89369499Y-112528543D01*
X65500500Y-112528543D01*
X65500500Y-111270876D01*
X111036500Y-111270876D01*
X111036500Y-112109123D01*
X111051467Y-112222801D01*
X111051467Y-112222802D01*
X111110060Y-112364258D01*
X111110061Y-112364259D01*
X111203269Y-112485731D01*
X111324741Y-112578939D01*
X111466198Y-112637533D01*
X111579884Y-112652500D01*
X111579891Y-112652500D01*
X113180109Y-112652500D01*
X113180116Y-112652500D01*
X113293802Y-112637533D01*
X113435259Y-112578939D01*
X113556731Y-112485731D01*
X113649939Y-112364259D01*
X113708533Y-112222802D01*
X113723500Y-112109116D01*
X113723500Y-111270884D01*
X113723499Y-111270876D01*
X123736500Y-111270876D01*
X123736500Y-112109123D01*
X123751467Y-112222801D01*
X123751467Y-112222802D01*
X123810060Y-112364258D01*
X123810061Y-112364259D01*
X123903269Y-112485731D01*
X124024741Y-112578939D01*
X124166198Y-112637533D01*
X124279884Y-112652500D01*
X124279891Y-112652500D01*
X125880109Y-112652500D01*
X125880116Y-112652500D01*
X125993802Y-112637533D01*
X126135259Y-112578939D01*
X126256731Y-112485731D01*
X126349939Y-112364259D01*
X126408533Y-112222802D01*
X126423500Y-112109116D01*
X126423500Y-111270884D01*
X126408533Y-111157198D01*
X126349939Y-111015741D01*
X126256731Y-110894269D01*
X126135259Y-110801061D01*
X126135258Y-110801060D01*
X126052395Y-110766737D01*
X125993802Y-110742467D01*
X125979591Y-110740596D01*
X125880123Y-110727500D01*
X125880116Y-110727500D01*
X124279884Y-110727500D01*
X124279876Y-110727500D01*
X124166198Y-110742467D01*
X124166197Y-110742467D01*
X124024741Y-110801060D01*
X123903269Y-110894269D01*
X123810060Y-111015741D01*
X123751467Y-111157197D01*
X123751467Y-111157198D01*
X123736500Y-111270876D01*
X113723499Y-111270876D01*
X113708533Y-111157198D01*
X113649939Y-111015741D01*
X113556731Y-110894269D01*
X113435259Y-110801061D01*
X113435258Y-110801060D01*
X113352395Y-110766737D01*
X113293802Y-110742467D01*
X113279591Y-110740596D01*
X113180123Y-110727500D01*
X113180116Y-110727500D01*
X111579884Y-110727500D01*
X111579876Y-110727500D01*
X111466198Y-110742467D01*
X111466197Y-110742467D01*
X111324741Y-110801060D01*
X111203269Y-110894269D01*
X111110060Y-111015741D01*
X111051467Y-111157197D01*
X111051467Y-111157198D01*
X111036500Y-111270876D01*
X65500500Y-111270876D01*
X65500500Y-109988543D01*
X89369499Y-109988543D01*
X89407947Y-110181829D01*
X89407950Y-110181839D01*
X89483364Y-110363907D01*
X89483371Y-110363920D01*
X89592860Y-110527781D01*
X89592863Y-110527785D01*
X89732214Y-110667136D01*
X89732218Y-110667139D01*
X89896079Y-110776628D01*
X89896092Y-110776635D01*
X90078160Y-110852049D01*
X90078165Y-110852051D01*
X90078169Y-110852051D01*
X90078170Y-110852052D01*
X90271456Y-110890500D01*
X90271459Y-110890500D01*
X90468543Y-110890500D01*
X90598582Y-110864632D01*
X90661835Y-110852051D01*
X90843914Y-110776632D01*
X91007782Y-110667139D01*
X91147139Y-110527782D01*
X91256632Y-110363914D01*
X91332051Y-110181835D01*
X91370500Y-109988541D01*
X91370500Y-109791459D01*
X91370500Y-109791456D01*
X91332052Y-109598170D01*
X91332051Y-109598169D01*
X91332051Y-109598165D01*
X91332049Y-109598160D01*
X91256635Y-109416092D01*
X91256628Y-109416079D01*
X91147139Y-109252218D01*
X91147136Y-109252214D01*
X91007785Y-109112863D01*
X91007781Y-109112860D01*
X90843920Y-109003371D01*
X90843907Y-109003364D01*
X90661839Y-108927950D01*
X90661829Y-108927947D01*
X90468543Y-108889500D01*
X90468541Y-108889500D01*
X90271459Y-108889500D01*
X90271457Y-108889500D01*
X90078170Y-108927947D01*
X90078160Y-108927950D01*
X89896092Y-109003364D01*
X89896079Y-109003371D01*
X89732218Y-109112860D01*
X89732214Y-109112863D01*
X89592863Y-109252214D01*
X89592860Y-109252218D01*
X89483371Y-109416079D01*
X89483364Y-109416092D01*
X89407950Y-109598160D01*
X89407947Y-109598170D01*
X89369500Y-109791456D01*
X89369500Y-109791459D01*
X89369500Y-109988541D01*
X89369500Y-109988543D01*
X89369499Y-109988543D01*
X65500500Y-109988543D01*
X65500500Y-107448543D01*
X89369499Y-107448543D01*
X89407947Y-107641829D01*
X89407950Y-107641839D01*
X89483364Y-107823907D01*
X89483371Y-107823920D01*
X89592860Y-107987781D01*
X89592863Y-107987785D01*
X89732214Y-108127136D01*
X89732218Y-108127139D01*
X89896079Y-108236628D01*
X89896092Y-108236635D01*
X90078160Y-108312049D01*
X90078165Y-108312051D01*
X90078169Y-108312051D01*
X90078170Y-108312052D01*
X90271456Y-108350500D01*
X90271459Y-108350500D01*
X90468543Y-108350500D01*
X90598582Y-108324632D01*
X90661835Y-108312051D01*
X90843914Y-108236632D01*
X91007782Y-108127139D01*
X91147139Y-107987782D01*
X91256632Y-107823914D01*
X91332051Y-107641835D01*
X91370500Y-107448541D01*
X91370500Y-107251459D01*
X91369749Y-107247682D01*
X104310000Y-107247682D01*
X104310000Y-107452317D01*
X104342009Y-107654417D01*
X104405244Y-107849031D01*
X104498141Y-108031350D01*
X104498147Y-108031359D01*
X104530523Y-108075921D01*
X104530524Y-108075922D01*
X105086212Y-107520234D01*
X105097482Y-107562292D01*
X105169890Y-107687708D01*
X105272292Y-107790110D01*
X105397708Y-107862518D01*
X105439765Y-107873787D01*
X104884076Y-108429474D01*
X104928650Y-108461859D01*
X105110968Y-108554755D01*
X105305582Y-108617990D01*
X105494268Y-108647875D01*
X105557403Y-108677804D01*
X105594334Y-108737116D01*
X105593336Y-108806978D01*
X105554726Y-108865211D01*
X105499062Y-108891965D01*
X105318170Y-108927947D01*
X105318160Y-108927950D01*
X105136092Y-109003364D01*
X105136079Y-109003371D01*
X104972218Y-109112860D01*
X104972214Y-109112863D01*
X104832863Y-109252214D01*
X104832860Y-109252218D01*
X104723371Y-109416079D01*
X104723364Y-109416092D01*
X104647950Y-109598160D01*
X104647947Y-109598170D01*
X104609500Y-109791456D01*
X104609500Y-109791459D01*
X104609500Y-109988541D01*
X104609500Y-109988543D01*
X104609499Y-109988543D01*
X104647947Y-110181829D01*
X104647950Y-110181839D01*
X104723364Y-110363907D01*
X104723371Y-110363920D01*
X104832860Y-110527781D01*
X104832863Y-110527785D01*
X104972214Y-110667136D01*
X104972218Y-110667139D01*
X105136079Y-110776628D01*
X105136092Y-110776635D01*
X105318160Y-110852049D01*
X105318165Y-110852051D01*
X105318169Y-110852051D01*
X105318170Y-110852052D01*
X105511456Y-110890500D01*
X105511459Y-110890500D01*
X105708543Y-110890500D01*
X105838582Y-110864632D01*
X105901835Y-110852051D01*
X106083914Y-110776632D01*
X106247782Y-110667139D01*
X106387139Y-110527782D01*
X106496632Y-110363914D01*
X106572051Y-110181835D01*
X106610500Y-109988541D01*
X106610500Y-109791459D01*
X106610500Y-109791456D01*
X106572052Y-109598170D01*
X106572051Y-109598169D01*
X106572051Y-109598165D01*
X106572049Y-109598160D01*
X106496635Y-109416092D01*
X106496628Y-109416079D01*
X106387139Y-109252218D01*
X106387136Y-109252214D01*
X106247785Y-109112863D01*
X106247781Y-109112860D01*
X106083920Y-109003371D01*
X106083907Y-109003364D01*
X105901839Y-108927950D01*
X105901829Y-108927947D01*
X105720937Y-108891965D01*
X105659026Y-108859580D01*
X105624452Y-108798864D01*
X105628192Y-108729095D01*
X105669059Y-108672423D01*
X105725731Y-108647875D01*
X105914417Y-108617990D01*
X106109031Y-108554755D01*
X106291349Y-108461859D01*
X106335921Y-108429474D01*
X105780234Y-107873787D01*
X105822292Y-107862518D01*
X105947708Y-107790110D01*
X106050110Y-107687708D01*
X106122518Y-107562292D01*
X106133787Y-107520234D01*
X106689474Y-108075921D01*
X106721859Y-108031349D01*
X106814755Y-107849031D01*
X106877990Y-107654417D01*
X106910000Y-107452317D01*
X106910000Y-107247682D01*
X106877990Y-107045582D01*
X106814755Y-106850968D01*
X106721859Y-106668650D01*
X106689474Y-106624077D01*
X106689474Y-106624076D01*
X106133787Y-107179764D01*
X106122518Y-107137708D01*
X106050110Y-107012292D01*
X105947708Y-106909890D01*
X105822292Y-106837482D01*
X105780233Y-106826212D01*
X106335922Y-106270524D01*
X106335921Y-106270523D01*
X106291359Y-106238147D01*
X106291350Y-106238141D01*
X106109031Y-106145244D01*
X105914417Y-106082009D01*
X105725731Y-106052124D01*
X105662596Y-106022194D01*
X105625665Y-105962883D01*
X105626663Y-105893020D01*
X105665273Y-105834788D01*
X105720938Y-105808034D01*
X105901835Y-105772051D01*
X106042655Y-105713721D01*
X106083907Y-105696635D01*
X106083907Y-105696634D01*
X106083914Y-105696632D01*
X106247782Y-105587139D01*
X106349191Y-105485730D01*
X110079500Y-105485730D01*
X110079500Y-106794269D01*
X110082353Y-106824699D01*
X110082353Y-106824701D01*
X110127206Y-106952880D01*
X110127207Y-106952882D01*
X110207850Y-107062150D01*
X110317118Y-107142793D01*
X110359845Y-107157744D01*
X110445299Y-107187646D01*
X110475730Y-107190500D01*
X110475734Y-107190500D01*
X112084270Y-107190500D01*
X112114699Y-107187646D01*
X112114701Y-107187646D01*
X112178790Y-107165219D01*
X112242882Y-107142793D01*
X112352150Y-107062150D01*
X112432793Y-106952882D01*
X112459665Y-106876086D01*
X112477646Y-106824701D01*
X112477646Y-106824699D01*
X112480500Y-106794269D01*
X112480500Y-105485730D01*
X112477646Y-105455300D01*
X112477646Y-105455298D01*
X112432793Y-105327119D01*
X112432792Y-105327117D01*
X112415309Y-105303428D01*
X112352150Y-105217850D01*
X112242882Y-105137207D01*
X112242880Y-105137206D01*
X112114700Y-105092353D01*
X112084270Y-105089500D01*
X112084266Y-105089500D01*
X110475734Y-105089500D01*
X110475730Y-105089500D01*
X110445300Y-105092353D01*
X110445298Y-105092353D01*
X110317119Y-105137206D01*
X110317117Y-105137207D01*
X110207850Y-105217850D01*
X110127207Y-105327117D01*
X110127206Y-105327119D01*
X110082353Y-105455298D01*
X110082353Y-105455300D01*
X110079500Y-105485730D01*
X106349191Y-105485730D01*
X106387139Y-105447782D01*
X106393562Y-105438169D01*
X106409749Y-105413945D01*
X106409749Y-105413944D01*
X106496628Y-105283920D01*
X106496628Y-105283919D01*
X106496632Y-105283914D01*
X106572051Y-105101835D01*
X106605518Y-104933587D01*
X106610500Y-104908543D01*
X106610500Y-104711456D01*
X106572052Y-104518170D01*
X106572051Y-104518169D01*
X106572051Y-104518165D01*
X106543486Y-104449203D01*
X106496635Y-104336092D01*
X106496628Y-104336079D01*
X106387139Y-104172218D01*
X106387136Y-104172214D01*
X106247785Y-104032863D01*
X106247781Y-104032860D01*
X106083920Y-103923371D01*
X106083907Y-103923364D01*
X105901839Y-103847950D01*
X105901829Y-103847947D01*
X105708543Y-103809500D01*
X105708541Y-103809500D01*
X105511459Y-103809500D01*
X105511457Y-103809500D01*
X105318170Y-103847947D01*
X105318160Y-103847950D01*
X105136092Y-103923364D01*
X105136079Y-103923371D01*
X104972218Y-104032860D01*
X104972214Y-104032863D01*
X104832863Y-104172214D01*
X104832860Y-104172218D01*
X104723371Y-104336079D01*
X104723364Y-104336092D01*
X104647950Y-104518160D01*
X104647947Y-104518170D01*
X104609500Y-104711456D01*
X104609500Y-104711459D01*
X104609500Y-104908541D01*
X104609500Y-104908543D01*
X104609499Y-104908543D01*
X104647947Y-105101829D01*
X104647950Y-105101839D01*
X104723364Y-105283907D01*
X104723371Y-105283920D01*
X104832860Y-105447781D01*
X104832863Y-105447785D01*
X104972214Y-105587136D01*
X104972218Y-105587139D01*
X105136079Y-105696628D01*
X105136092Y-105696635D01*
X105249364Y-105743553D01*
X105318165Y-105772051D01*
X105450674Y-105798409D01*
X105499061Y-105808034D01*
X105560972Y-105840419D01*
X105595546Y-105901134D01*
X105591807Y-105970904D01*
X105550940Y-106027576D01*
X105494269Y-106052124D01*
X105305581Y-106082010D01*
X105110968Y-106145244D01*
X104928644Y-106238143D01*
X104884077Y-106270523D01*
X104884077Y-106270524D01*
X105439766Y-106826212D01*
X105397708Y-106837482D01*
X105272292Y-106909890D01*
X105169890Y-107012292D01*
X105097482Y-107137708D01*
X105086212Y-107179765D01*
X104530524Y-106624077D01*
X104530523Y-106624077D01*
X104498143Y-106668644D01*
X104405244Y-106850968D01*
X104342009Y-107045582D01*
X104310000Y-107247682D01*
X91369749Y-107247682D01*
X91332051Y-107058165D01*
X91313050Y-107012292D01*
X91256635Y-106876092D01*
X91256628Y-106876079D01*
X91147139Y-106712218D01*
X91147136Y-106712214D01*
X91007785Y-106572863D01*
X91007781Y-106572860D01*
X90843920Y-106463371D01*
X90843907Y-106463364D01*
X90661839Y-106387950D01*
X90661829Y-106387947D01*
X90468543Y-106349500D01*
X90468541Y-106349500D01*
X90271459Y-106349500D01*
X90271457Y-106349500D01*
X90078170Y-106387947D01*
X90078160Y-106387950D01*
X89896092Y-106463364D01*
X89896079Y-106463371D01*
X89732218Y-106572860D01*
X89732214Y-106572863D01*
X89592863Y-106712214D01*
X89592860Y-106712218D01*
X89483371Y-106876079D01*
X89483364Y-106876092D01*
X89407950Y-107058160D01*
X89407947Y-107058170D01*
X89369500Y-107251456D01*
X89369500Y-107251458D01*
X89369500Y-107251459D01*
X89369500Y-107448541D01*
X89369500Y-107448543D01*
X89369499Y-107448543D01*
X65500500Y-107448543D01*
X65500500Y-104908543D01*
X89369499Y-104908543D01*
X89407947Y-105101829D01*
X89407950Y-105101839D01*
X89483364Y-105283907D01*
X89483371Y-105283920D01*
X89592860Y-105447781D01*
X89592863Y-105447785D01*
X89732214Y-105587136D01*
X89732218Y-105587139D01*
X89896079Y-105696628D01*
X89896092Y-105696635D01*
X90009364Y-105743553D01*
X90078165Y-105772051D01*
X90078169Y-105772051D01*
X90078170Y-105772052D01*
X90271456Y-105810500D01*
X90271459Y-105810500D01*
X90468543Y-105810500D01*
X90598582Y-105784632D01*
X90661835Y-105772051D01*
X90802655Y-105713721D01*
X90843907Y-105696635D01*
X90843907Y-105696634D01*
X90843914Y-105696632D01*
X91007782Y-105587139D01*
X91147139Y-105447782D01*
X91256632Y-105283914D01*
X91332051Y-105101835D01*
X91365518Y-104933587D01*
X91370500Y-104908543D01*
X91370500Y-104711456D01*
X91332052Y-104518170D01*
X91332051Y-104518169D01*
X91332051Y-104518165D01*
X91303486Y-104449203D01*
X91256635Y-104336092D01*
X91256628Y-104336079D01*
X91147139Y-104172218D01*
X91147136Y-104172214D01*
X91007785Y-104032863D01*
X91007781Y-104032860D01*
X90843920Y-103923371D01*
X90843907Y-103923364D01*
X90661839Y-103847950D01*
X90661829Y-103847947D01*
X90468543Y-103809500D01*
X90468541Y-103809500D01*
X90271459Y-103809500D01*
X90271457Y-103809500D01*
X90078170Y-103847947D01*
X90078160Y-103847950D01*
X89896092Y-103923364D01*
X89896079Y-103923371D01*
X89732218Y-104032860D01*
X89732214Y-104032863D01*
X89592863Y-104172214D01*
X89592860Y-104172218D01*
X89483371Y-104336079D01*
X89483364Y-104336092D01*
X89407950Y-104518160D01*
X89407947Y-104518170D01*
X89369500Y-104711456D01*
X89369500Y-104711459D01*
X89369500Y-104908541D01*
X89369500Y-104908543D01*
X89369499Y-104908543D01*
X65500500Y-104908543D01*
X65500500Y-103536530D01*
X110079500Y-103536530D01*
X110079500Y-103743469D01*
X110119868Y-103946412D01*
X110119870Y-103946420D01*
X110199058Y-104137596D01*
X110314024Y-104309657D01*
X110460342Y-104455975D01*
X110460345Y-104455977D01*
X110632402Y-104570941D01*
X110823580Y-104650130D01*
X111026530Y-104690499D01*
X111026534Y-104690500D01*
X111026535Y-104690500D01*
X111533466Y-104690500D01*
X111533467Y-104690499D01*
X111736420Y-104650130D01*
X111891894Y-104585730D01*
X117529500Y-104585730D01*
X117529500Y-106194269D01*
X117532353Y-106224699D01*
X117532353Y-106224701D01*
X117577206Y-106352880D01*
X117577207Y-106352882D01*
X117657850Y-106462150D01*
X117767118Y-106542793D01*
X117788089Y-106550131D01*
X117895299Y-106587646D01*
X117925730Y-106590500D01*
X117925734Y-106590500D01*
X119234270Y-106590500D01*
X119264699Y-106587646D01*
X119264701Y-106587646D01*
X119328790Y-106565219D01*
X119392882Y-106542793D01*
X119502150Y-106462150D01*
X119582793Y-106352882D01*
X119611612Y-106270523D01*
X119627646Y-106224701D01*
X119627646Y-106224699D01*
X119630500Y-106194269D01*
X119630500Y-105136530D01*
X120029500Y-105136530D01*
X120029500Y-105643469D01*
X120069868Y-105846412D01*
X120069870Y-105846420D01*
X120149058Y-106037596D01*
X120264024Y-106209657D01*
X120410342Y-106355975D01*
X120410345Y-106355977D01*
X120582402Y-106470941D01*
X120773580Y-106550130D01*
X120962187Y-106587646D01*
X120976530Y-106590499D01*
X120976534Y-106590500D01*
X120976535Y-106590500D01*
X121183466Y-106590500D01*
X121183467Y-106590499D01*
X121386420Y-106550130D01*
X121577598Y-106470941D01*
X121749655Y-106355977D01*
X121779343Y-106326289D01*
X128497261Y-106326289D01*
X128497262Y-106326290D01*
X128503471Y-106330801D01*
X128657742Y-106409408D01*
X128822415Y-106462914D01*
X128993429Y-106490000D01*
X129166571Y-106490000D01*
X129337584Y-106462914D01*
X129502257Y-106409408D01*
X129656525Y-106330803D01*
X129662736Y-106326289D01*
X129662737Y-106326289D01*
X129080001Y-105743553D01*
X129080000Y-105743553D01*
X128497261Y-106326289D01*
X121779343Y-106326289D01*
X121895977Y-106209655D01*
X122010941Y-106037598D01*
X122090130Y-105846420D01*
X122130500Y-105643465D01*
X122130500Y-105136535D01*
X122090130Y-104933580D01*
X122022475Y-104770247D01*
X126779500Y-104770247D01*
X126779500Y-106009752D01*
X126791131Y-106068229D01*
X126791132Y-106068230D01*
X126835447Y-106134552D01*
X126901769Y-106178867D01*
X126901770Y-106178868D01*
X126960247Y-106190499D01*
X126960250Y-106190500D01*
X126960252Y-106190500D01*
X128199750Y-106190500D01*
X128199751Y-106190499D01*
X128214568Y-106187552D01*
X128258229Y-106178868D01*
X128258229Y-106178867D01*
X128258231Y-106178867D01*
X128261073Y-106176967D01*
X128262630Y-106175928D01*
X128324552Y-106134552D01*
X128368867Y-106068231D01*
X128368867Y-106068229D01*
X128368868Y-106068229D01*
X128380499Y-106009752D01*
X128380500Y-106009750D01*
X128380500Y-105787308D01*
X128400185Y-105720269D01*
X128416819Y-105699627D01*
X128726446Y-105390000D01*
X128726446Y-105389999D01*
X128686951Y-105350504D01*
X128780000Y-105350504D01*
X128780000Y-105429496D01*
X128800444Y-105505796D01*
X128839940Y-105574205D01*
X128895795Y-105630060D01*
X128964204Y-105669556D01*
X129040504Y-105690000D01*
X129119496Y-105690000D01*
X129195796Y-105669556D01*
X129264205Y-105630060D01*
X129320060Y-105574205D01*
X129359556Y-105505796D01*
X129380000Y-105429496D01*
X129380000Y-105389999D01*
X129433553Y-105389999D01*
X129433553Y-105390000D01*
X130016289Y-105972736D01*
X130020803Y-105966525D01*
X130099408Y-105812257D01*
X130152914Y-105647584D01*
X130180000Y-105476571D01*
X130180000Y-105303428D01*
X130152914Y-105132415D01*
X130099408Y-104967742D01*
X130020801Y-104813471D01*
X130016290Y-104807262D01*
X130016289Y-104807261D01*
X129433553Y-105389999D01*
X129380000Y-105389999D01*
X129380000Y-105350504D01*
X129359556Y-105274204D01*
X129320060Y-105205795D01*
X129264205Y-105149940D01*
X129195796Y-105110444D01*
X129119496Y-105090000D01*
X129040504Y-105090000D01*
X128964204Y-105110444D01*
X128895795Y-105149940D01*
X128839940Y-105205795D01*
X128800444Y-105274204D01*
X128780000Y-105350504D01*
X128686951Y-105350504D01*
X128416819Y-105080372D01*
X128383334Y-105019049D01*
X128380500Y-104992691D01*
X128380500Y-104770249D01*
X128380499Y-104770247D01*
X128368868Y-104711770D01*
X128368867Y-104711769D01*
X128324552Y-104645447D01*
X128262624Y-104604068D01*
X128258230Y-104601132D01*
X128258229Y-104601131D01*
X128199752Y-104589500D01*
X128199748Y-104589500D01*
X126960252Y-104589500D01*
X126960247Y-104589500D01*
X126901770Y-104601131D01*
X126901769Y-104601132D01*
X126835447Y-104645447D01*
X126791132Y-104711769D01*
X126791131Y-104711770D01*
X126779500Y-104770247D01*
X122022475Y-104770247D01*
X122010943Y-104742405D01*
X121895975Y-104570342D01*
X121779341Y-104453708D01*
X128497261Y-104453708D01*
X128497261Y-104453709D01*
X129080000Y-105036446D01*
X129080001Y-105036446D01*
X129662737Y-104453709D01*
X129656525Y-104449196D01*
X129502259Y-104370592D01*
X129337584Y-104317085D01*
X129166571Y-104290000D01*
X128993429Y-104290000D01*
X128822415Y-104317085D01*
X128657740Y-104370592D01*
X128503480Y-104449193D01*
X128503463Y-104449203D01*
X128497261Y-104453708D01*
X121779341Y-104453708D01*
X121749657Y-104424024D01*
X121618047Y-104336086D01*
X121577598Y-104309059D01*
X121386420Y-104229870D01*
X121386412Y-104229868D01*
X121183469Y-104189500D01*
X121183465Y-104189500D01*
X120976535Y-104189500D01*
X120976530Y-104189500D01*
X120773587Y-104229868D01*
X120773579Y-104229870D01*
X120582403Y-104309058D01*
X120410342Y-104424024D01*
X120264024Y-104570342D01*
X120149058Y-104742403D01*
X120069870Y-104933579D01*
X120069868Y-104933587D01*
X120029500Y-105136530D01*
X119630500Y-105136530D01*
X119630500Y-104585730D01*
X119627646Y-104555300D01*
X119627646Y-104555298D01*
X119592890Y-104455975D01*
X119582793Y-104427118D01*
X119502150Y-104317850D01*
X119392882Y-104237207D01*
X119392880Y-104237206D01*
X119264700Y-104192353D01*
X119234270Y-104189500D01*
X119234266Y-104189500D01*
X117925734Y-104189500D01*
X117925730Y-104189500D01*
X117895300Y-104192353D01*
X117895298Y-104192353D01*
X117767119Y-104237206D01*
X117767117Y-104237207D01*
X117657850Y-104317850D01*
X117577207Y-104427117D01*
X117577206Y-104427119D01*
X117532353Y-104555298D01*
X117532353Y-104555300D01*
X117529500Y-104585730D01*
X111891894Y-104585730D01*
X111927598Y-104570941D01*
X112099655Y-104455977D01*
X112245977Y-104309655D01*
X112360941Y-104137598D01*
X112440130Y-103946420D01*
X112480500Y-103743465D01*
X112480500Y-103536535D01*
X112440130Y-103333580D01*
X112360941Y-103142402D01*
X112245977Y-102970345D01*
X112245975Y-102970342D01*
X112099657Y-102824024D01*
X112013626Y-102766541D01*
X111927598Y-102709059D01*
X111736420Y-102629870D01*
X111736412Y-102629868D01*
X111533469Y-102589500D01*
X111533465Y-102589500D01*
X111026535Y-102589500D01*
X111026530Y-102589500D01*
X110823587Y-102629868D01*
X110823579Y-102629870D01*
X110632403Y-102709058D01*
X110460342Y-102824024D01*
X110314024Y-102970342D01*
X110199058Y-103142403D01*
X110119870Y-103333579D01*
X110119868Y-103333587D01*
X110079500Y-103536530D01*
X65500500Y-103536530D01*
X65500500Y-102368543D01*
X89369499Y-102368543D01*
X89407947Y-102561829D01*
X89407950Y-102561839D01*
X89483364Y-102743907D01*
X89483371Y-102743920D01*
X89592860Y-102907781D01*
X89592863Y-102907785D01*
X89732214Y-103047136D01*
X89732218Y-103047139D01*
X89896079Y-103156628D01*
X89896092Y-103156635D01*
X90078160Y-103232049D01*
X90078165Y-103232051D01*
X90078169Y-103232051D01*
X90078170Y-103232052D01*
X90271456Y-103270500D01*
X90271459Y-103270500D01*
X90468543Y-103270500D01*
X90598582Y-103244632D01*
X90661835Y-103232051D01*
X90843914Y-103156632D01*
X91007782Y-103047139D01*
X91147139Y-102907782D01*
X91256632Y-102743914D01*
X91332051Y-102561835D01*
X91370500Y-102368543D01*
X104609499Y-102368543D01*
X104647947Y-102561829D01*
X104647950Y-102561839D01*
X104723364Y-102743907D01*
X104723371Y-102743920D01*
X104832860Y-102907781D01*
X104832863Y-102907785D01*
X104972214Y-103047136D01*
X104972218Y-103047139D01*
X105136079Y-103156628D01*
X105136092Y-103156635D01*
X105318160Y-103232049D01*
X105318165Y-103232051D01*
X105318169Y-103232051D01*
X105318170Y-103232052D01*
X105511456Y-103270500D01*
X105511459Y-103270500D01*
X105708543Y-103270500D01*
X105838582Y-103244632D01*
X105901835Y-103232051D01*
X106083914Y-103156632D01*
X106247782Y-103047139D01*
X106387139Y-102907782D01*
X106496632Y-102743914D01*
X106572051Y-102561835D01*
X106610500Y-102368541D01*
X106610500Y-102171459D01*
X106610500Y-102171456D01*
X106572052Y-101978170D01*
X106572051Y-101978169D01*
X106572051Y-101978165D01*
X106572049Y-101978160D01*
X106496635Y-101796092D01*
X106496628Y-101796079D01*
X106387139Y-101632218D01*
X106387136Y-101632214D01*
X106247785Y-101492863D01*
X106247781Y-101492860D01*
X106083920Y-101383371D01*
X106083907Y-101383364D01*
X105901839Y-101307950D01*
X105901829Y-101307947D01*
X105708543Y-101269500D01*
X105708541Y-101269500D01*
X105511459Y-101269500D01*
X105511457Y-101269500D01*
X105318170Y-101307947D01*
X105318160Y-101307950D01*
X105136092Y-101383364D01*
X105136079Y-101383371D01*
X104972218Y-101492860D01*
X104972214Y-101492863D01*
X104832863Y-101632214D01*
X104832860Y-101632218D01*
X104723371Y-101796079D01*
X104723364Y-101796092D01*
X104647950Y-101978160D01*
X104647947Y-101978170D01*
X104609500Y-102171456D01*
X104609500Y-102171459D01*
X104609500Y-102368541D01*
X104609500Y-102368543D01*
X104609499Y-102368543D01*
X91370500Y-102368543D01*
X91370500Y-102368541D01*
X91370500Y-102171459D01*
X91370500Y-102171456D01*
X91332052Y-101978170D01*
X91332051Y-101978169D01*
X91332051Y-101978165D01*
X91332049Y-101978160D01*
X91256635Y-101796092D01*
X91256628Y-101796079D01*
X91147139Y-101632218D01*
X91147136Y-101632214D01*
X91007785Y-101492863D01*
X91007781Y-101492860D01*
X90843920Y-101383371D01*
X90843907Y-101383364D01*
X90661839Y-101307950D01*
X90661829Y-101307947D01*
X90468543Y-101269500D01*
X90468541Y-101269500D01*
X90271459Y-101269500D01*
X90271457Y-101269500D01*
X90078170Y-101307947D01*
X90078160Y-101307950D01*
X89896092Y-101383364D01*
X89896079Y-101383371D01*
X89732218Y-101492860D01*
X89732214Y-101492863D01*
X89592863Y-101632214D01*
X89592860Y-101632218D01*
X89483371Y-101796079D01*
X89483364Y-101796092D01*
X89407950Y-101978160D01*
X89407947Y-101978170D01*
X89369500Y-102171456D01*
X89369500Y-102171459D01*
X89369500Y-102368541D01*
X89369500Y-102368543D01*
X89369499Y-102368543D01*
X65500500Y-102368543D01*
X65500500Y-99828543D01*
X89369499Y-99828543D01*
X89407947Y-100021829D01*
X89407950Y-100021839D01*
X89483364Y-100203907D01*
X89483371Y-100203920D01*
X89592860Y-100367781D01*
X89592863Y-100367785D01*
X89732214Y-100507136D01*
X89732218Y-100507139D01*
X89896079Y-100616628D01*
X89896092Y-100616635D01*
X90078160Y-100692049D01*
X90078165Y-100692051D01*
X90078169Y-100692051D01*
X90078170Y-100692052D01*
X90271456Y-100730500D01*
X90271459Y-100730500D01*
X90468543Y-100730500D01*
X90598582Y-100704632D01*
X90661835Y-100692051D01*
X90843914Y-100616632D01*
X91007782Y-100507139D01*
X91147139Y-100367782D01*
X91256632Y-100203914D01*
X91332051Y-100021835D01*
X91370500Y-99828543D01*
X104609499Y-99828543D01*
X104647947Y-100021829D01*
X104647950Y-100021839D01*
X104723364Y-100203907D01*
X104723371Y-100203920D01*
X104832860Y-100367781D01*
X104832863Y-100367785D01*
X104972214Y-100507136D01*
X104972218Y-100507139D01*
X105136079Y-100616628D01*
X105136092Y-100616635D01*
X105318160Y-100692049D01*
X105318165Y-100692051D01*
X105318169Y-100692051D01*
X105318170Y-100692052D01*
X105511456Y-100730500D01*
X105511459Y-100730500D01*
X105708543Y-100730500D01*
X105838582Y-100704632D01*
X105901835Y-100692051D01*
X106083914Y-100616632D01*
X106247782Y-100507139D01*
X106387139Y-100367782D01*
X106496632Y-100203914D01*
X106572051Y-100021835D01*
X106610500Y-99828541D01*
X106610500Y-99631459D01*
X106610500Y-99631456D01*
X106572052Y-99438170D01*
X106572051Y-99438169D01*
X106572051Y-99438165D01*
X106572049Y-99438160D01*
X106496635Y-99256092D01*
X106496628Y-99256079D01*
X106387139Y-99092218D01*
X106387136Y-99092214D01*
X106247785Y-98952863D01*
X106247781Y-98952860D01*
X106083920Y-98843371D01*
X106083907Y-98843364D01*
X105901839Y-98767950D01*
X105901829Y-98767947D01*
X105708543Y-98729500D01*
X105708541Y-98729500D01*
X105511459Y-98729500D01*
X105511457Y-98729500D01*
X105318170Y-98767947D01*
X105318160Y-98767950D01*
X105136092Y-98843364D01*
X105136079Y-98843371D01*
X104972218Y-98952860D01*
X104972214Y-98952863D01*
X104832863Y-99092214D01*
X104832860Y-99092218D01*
X104723371Y-99256079D01*
X104723364Y-99256092D01*
X104647950Y-99438160D01*
X104647947Y-99438170D01*
X104609500Y-99631456D01*
X104609500Y-99631459D01*
X104609500Y-99828541D01*
X104609500Y-99828543D01*
X104609499Y-99828543D01*
X91370500Y-99828543D01*
X91370500Y-99828541D01*
X91370500Y-99631459D01*
X91370500Y-99631456D01*
X91332052Y-99438170D01*
X91332051Y-99438169D01*
X91332051Y-99438165D01*
X91332049Y-99438160D01*
X91256635Y-99256092D01*
X91256628Y-99256079D01*
X91147139Y-99092218D01*
X91147136Y-99092214D01*
X91007785Y-98952863D01*
X91007781Y-98952860D01*
X90843920Y-98843371D01*
X90843907Y-98843364D01*
X90661839Y-98767950D01*
X90661829Y-98767947D01*
X90468543Y-98729500D01*
X90468541Y-98729500D01*
X90271459Y-98729500D01*
X90271457Y-98729500D01*
X90078170Y-98767947D01*
X90078160Y-98767950D01*
X89896092Y-98843364D01*
X89896079Y-98843371D01*
X89732218Y-98952860D01*
X89732214Y-98952863D01*
X89592863Y-99092214D01*
X89592860Y-99092218D01*
X89483371Y-99256079D01*
X89483364Y-99256092D01*
X89407950Y-99438160D01*
X89407947Y-99438170D01*
X89369500Y-99631456D01*
X89369500Y-99631459D01*
X89369500Y-99828541D01*
X89369500Y-99828543D01*
X89369499Y-99828543D01*
X65500500Y-99828543D01*
X65500500Y-97288543D01*
X89369499Y-97288543D01*
X89407947Y-97481829D01*
X89407950Y-97481839D01*
X89483364Y-97663907D01*
X89483371Y-97663920D01*
X89592860Y-97827781D01*
X89592863Y-97827785D01*
X89732214Y-97967136D01*
X89732218Y-97967139D01*
X89896079Y-98076628D01*
X89896092Y-98076635D01*
X90078160Y-98152049D01*
X90078165Y-98152051D01*
X90078169Y-98152051D01*
X90078170Y-98152052D01*
X90271456Y-98190500D01*
X90271459Y-98190500D01*
X90468543Y-98190500D01*
X90598582Y-98164632D01*
X90661835Y-98152051D01*
X90843914Y-98076632D01*
X91007782Y-97967139D01*
X91147139Y-97827782D01*
X91256632Y-97663914D01*
X91332051Y-97481835D01*
X91370500Y-97288543D01*
X104609499Y-97288543D01*
X104647947Y-97481829D01*
X104647950Y-97481839D01*
X104723364Y-97663907D01*
X104723371Y-97663920D01*
X104832860Y-97827781D01*
X104832863Y-97827785D01*
X104972214Y-97967136D01*
X104972218Y-97967139D01*
X105136079Y-98076628D01*
X105136092Y-98076635D01*
X105318160Y-98152049D01*
X105318165Y-98152051D01*
X105318169Y-98152051D01*
X105318170Y-98152052D01*
X105511456Y-98190500D01*
X105511459Y-98190500D01*
X105708543Y-98190500D01*
X105838582Y-98164632D01*
X105901835Y-98152051D01*
X106083914Y-98076632D01*
X106247782Y-97967139D01*
X106387139Y-97827782D01*
X106496632Y-97663914D01*
X106572051Y-97481835D01*
X106610500Y-97288541D01*
X106610500Y-97091459D01*
X106610500Y-97091456D01*
X106572052Y-96898170D01*
X106572051Y-96898169D01*
X106572051Y-96898165D01*
X106572049Y-96898160D01*
X106542945Y-96827895D01*
X106525811Y-96786530D01*
X110679500Y-96786530D01*
X110679500Y-96993469D01*
X110719868Y-97196412D01*
X110719870Y-97196420D01*
X110799058Y-97387596D01*
X110914024Y-97559657D01*
X111060342Y-97705975D01*
X111060345Y-97705977D01*
X111232402Y-97820941D01*
X111423580Y-97900130D01*
X111626530Y-97940499D01*
X111626534Y-97940500D01*
X111626535Y-97940500D01*
X112133466Y-97940500D01*
X112133467Y-97940499D01*
X112336420Y-97900130D01*
X112527598Y-97820941D01*
X112699655Y-97705977D01*
X112845977Y-97559655D01*
X112960941Y-97387598D01*
X113040130Y-97196420D01*
X113080500Y-96993465D01*
X113080500Y-96786535D01*
X113040130Y-96583580D01*
X112960941Y-96392402D01*
X112845977Y-96220345D01*
X112845975Y-96220342D01*
X112699657Y-96074024D01*
X112613626Y-96016541D01*
X112527598Y-95959059D01*
X112336420Y-95879870D01*
X112336412Y-95879868D01*
X112133469Y-95839500D01*
X112133465Y-95839500D01*
X111626535Y-95839500D01*
X111626530Y-95839500D01*
X111423587Y-95879868D01*
X111423579Y-95879870D01*
X111232403Y-95959058D01*
X111060342Y-96074024D01*
X110914024Y-96220342D01*
X110799058Y-96392403D01*
X110719870Y-96583579D01*
X110719868Y-96583587D01*
X110679500Y-96786530D01*
X106525811Y-96786530D01*
X106496635Y-96716092D01*
X106496628Y-96716079D01*
X106387139Y-96552218D01*
X106387136Y-96552214D01*
X106247785Y-96412863D01*
X106247781Y-96412860D01*
X106083920Y-96303371D01*
X106083907Y-96303364D01*
X105901839Y-96227950D01*
X105901829Y-96227947D01*
X105708543Y-96189500D01*
X105708541Y-96189500D01*
X105511459Y-96189500D01*
X105511457Y-96189500D01*
X105318170Y-96227947D01*
X105318160Y-96227950D01*
X105136092Y-96303364D01*
X105136079Y-96303371D01*
X104972218Y-96412860D01*
X104972214Y-96412863D01*
X104832863Y-96552214D01*
X104832860Y-96552218D01*
X104723371Y-96716079D01*
X104723364Y-96716092D01*
X104647950Y-96898160D01*
X104647947Y-96898170D01*
X104609500Y-97091456D01*
X104609500Y-97091459D01*
X104609500Y-97288541D01*
X104609500Y-97288543D01*
X104609499Y-97288543D01*
X91370500Y-97288543D01*
X91370500Y-97288541D01*
X91370500Y-97091459D01*
X91370500Y-97091456D01*
X91332052Y-96898170D01*
X91332051Y-96898169D01*
X91332051Y-96898165D01*
X91332049Y-96898160D01*
X91256635Y-96716092D01*
X91256628Y-96716079D01*
X91147139Y-96552218D01*
X91147136Y-96552214D01*
X91007785Y-96412863D01*
X91007781Y-96412860D01*
X90843920Y-96303371D01*
X90843907Y-96303364D01*
X90661839Y-96227950D01*
X90661829Y-96227947D01*
X90468543Y-96189500D01*
X90468541Y-96189500D01*
X90271459Y-96189500D01*
X90271457Y-96189500D01*
X90078170Y-96227947D01*
X90078160Y-96227950D01*
X89896092Y-96303364D01*
X89896079Y-96303371D01*
X89732218Y-96412860D01*
X89732214Y-96412863D01*
X89592863Y-96552214D01*
X89592860Y-96552218D01*
X89483371Y-96716079D01*
X89483364Y-96716092D01*
X89407950Y-96898160D01*
X89407947Y-96898170D01*
X89369500Y-97091456D01*
X89369500Y-97091459D01*
X89369500Y-97288541D01*
X89369500Y-97288543D01*
X89369499Y-97288543D01*
X65500500Y-97288543D01*
X65500500Y-94748543D01*
X89369499Y-94748543D01*
X89407947Y-94941829D01*
X89407950Y-94941839D01*
X89483364Y-95123907D01*
X89483371Y-95123920D01*
X89592860Y-95287781D01*
X89592863Y-95287785D01*
X89732214Y-95427136D01*
X89732218Y-95427139D01*
X89896079Y-95536628D01*
X89896092Y-95536635D01*
X90078160Y-95612049D01*
X90078165Y-95612051D01*
X90078169Y-95612051D01*
X90078170Y-95612052D01*
X90271456Y-95650500D01*
X90271459Y-95650500D01*
X90468543Y-95650500D01*
X90598582Y-95624632D01*
X90661835Y-95612051D01*
X90843914Y-95536632D01*
X91007782Y-95427139D01*
X91147139Y-95287782D01*
X91256632Y-95123914D01*
X91332051Y-94941835D01*
X91370500Y-94748543D01*
X104609499Y-94748543D01*
X104647947Y-94941829D01*
X104647950Y-94941839D01*
X104723364Y-95123907D01*
X104723371Y-95123920D01*
X104832860Y-95287781D01*
X104832863Y-95287785D01*
X104972214Y-95427136D01*
X104972218Y-95427139D01*
X105136079Y-95536628D01*
X105136092Y-95536635D01*
X105318160Y-95612049D01*
X105318165Y-95612051D01*
X105318169Y-95612051D01*
X105318170Y-95612052D01*
X105511456Y-95650500D01*
X105511459Y-95650500D01*
X105708543Y-95650500D01*
X105838582Y-95624632D01*
X105901835Y-95612051D01*
X106083914Y-95536632D01*
X106247782Y-95427139D01*
X106387139Y-95287782D01*
X106496632Y-95123914D01*
X106572051Y-94941835D01*
X106610500Y-94748541D01*
X106610500Y-94551459D01*
X106610500Y-94551456D01*
X106572052Y-94358170D01*
X106572051Y-94358169D01*
X106572051Y-94358165D01*
X106572049Y-94358160D01*
X106496635Y-94176092D01*
X106496628Y-94176079D01*
X106387139Y-94012218D01*
X106387136Y-94012214D01*
X106247785Y-93872863D01*
X106247781Y-93872860D01*
X106192522Y-93835937D01*
X106083920Y-93763371D01*
X106083907Y-93763364D01*
X106017192Y-93735730D01*
X110679500Y-93735730D01*
X110679500Y-95044269D01*
X110682353Y-95074699D01*
X110682353Y-95074701D01*
X110727206Y-95202880D01*
X110727207Y-95202882D01*
X110807850Y-95312150D01*
X110917118Y-95392793D01*
X110959845Y-95407744D01*
X111045299Y-95437646D01*
X111075730Y-95440500D01*
X111075734Y-95440500D01*
X112684270Y-95440500D01*
X112714699Y-95437646D01*
X112714701Y-95437646D01*
X112778790Y-95415219D01*
X112842882Y-95392793D01*
X112952150Y-95312150D01*
X113032793Y-95202882D01*
X113060425Y-95123914D01*
X113077646Y-95074701D01*
X113077646Y-95074699D01*
X113080500Y-95044269D01*
X113080500Y-93735730D01*
X113077646Y-93705300D01*
X113077646Y-93705298D01*
X113032793Y-93577119D01*
X113032792Y-93577117D01*
X112952150Y-93467850D01*
X112842882Y-93387207D01*
X112842880Y-93387206D01*
X112714700Y-93342353D01*
X112684270Y-93339500D01*
X112684266Y-93339500D01*
X111075734Y-93339500D01*
X111075730Y-93339500D01*
X111045300Y-93342353D01*
X111045298Y-93342353D01*
X110917119Y-93387206D01*
X110917117Y-93387207D01*
X110807850Y-93467850D01*
X110727207Y-93577117D01*
X110727206Y-93577119D01*
X110682353Y-93705298D01*
X110682353Y-93705300D01*
X110679500Y-93735730D01*
X106017192Y-93735730D01*
X105901839Y-93687950D01*
X105901829Y-93687947D01*
X105708543Y-93649500D01*
X105708541Y-93649500D01*
X105511459Y-93649500D01*
X105511457Y-93649500D01*
X105318170Y-93687947D01*
X105318160Y-93687950D01*
X105136092Y-93763364D01*
X105136079Y-93763371D01*
X104972218Y-93872860D01*
X104972214Y-93872863D01*
X104832863Y-94012214D01*
X104832860Y-94012218D01*
X104723371Y-94176079D01*
X104723364Y-94176092D01*
X104647950Y-94358160D01*
X104647947Y-94358170D01*
X104609500Y-94551456D01*
X104609500Y-94551459D01*
X104609500Y-94748541D01*
X104609500Y-94748543D01*
X104609499Y-94748543D01*
X91370500Y-94748543D01*
X91370500Y-94748541D01*
X91370500Y-94551459D01*
X91370500Y-94551456D01*
X91332052Y-94358170D01*
X91332051Y-94358169D01*
X91332051Y-94358165D01*
X91332049Y-94358160D01*
X91256635Y-94176092D01*
X91256628Y-94176079D01*
X91147139Y-94012218D01*
X91147136Y-94012214D01*
X91007785Y-93872863D01*
X91007781Y-93872860D01*
X90843920Y-93763371D01*
X90843907Y-93763364D01*
X90661839Y-93687950D01*
X90661829Y-93687947D01*
X90468543Y-93649500D01*
X90468541Y-93649500D01*
X90271459Y-93649500D01*
X90271457Y-93649500D01*
X90078170Y-93687947D01*
X90078160Y-93687950D01*
X89896092Y-93763364D01*
X89896079Y-93763371D01*
X89732218Y-93872860D01*
X89732214Y-93872863D01*
X89592863Y-94012214D01*
X89592860Y-94012218D01*
X89483371Y-94176079D01*
X89483364Y-94176092D01*
X89407950Y-94358160D01*
X89407947Y-94358170D01*
X89369500Y-94551456D01*
X89369500Y-94551459D01*
X89369500Y-94748541D01*
X89369500Y-94748543D01*
X89369499Y-94748543D01*
X65500500Y-94748543D01*
X65500500Y-92208543D01*
X89369499Y-92208543D01*
X89407947Y-92401829D01*
X89407950Y-92401839D01*
X89483364Y-92583907D01*
X89483371Y-92583920D01*
X89592860Y-92747781D01*
X89592863Y-92747785D01*
X89732214Y-92887136D01*
X89732218Y-92887139D01*
X89896079Y-92996628D01*
X89896092Y-92996635D01*
X90078160Y-93072049D01*
X90078165Y-93072051D01*
X90078169Y-93072051D01*
X90078170Y-93072052D01*
X90271456Y-93110500D01*
X90271459Y-93110500D01*
X90468543Y-93110500D01*
X90598582Y-93084632D01*
X90661835Y-93072051D01*
X90843914Y-92996632D01*
X91007782Y-92887139D01*
X91147139Y-92747782D01*
X91256632Y-92583914D01*
X91332051Y-92401835D01*
X91370500Y-92208543D01*
X104609499Y-92208543D01*
X104647947Y-92401829D01*
X104647950Y-92401839D01*
X104723364Y-92583907D01*
X104723371Y-92583920D01*
X104832860Y-92747781D01*
X104832863Y-92747785D01*
X104972214Y-92887136D01*
X104972218Y-92887139D01*
X105136079Y-92996628D01*
X105136092Y-92996635D01*
X105318160Y-93072049D01*
X105318165Y-93072051D01*
X105318169Y-93072051D01*
X105318170Y-93072052D01*
X105511456Y-93110500D01*
X105511459Y-93110500D01*
X105708543Y-93110500D01*
X105838582Y-93084632D01*
X105901835Y-93072051D01*
X106083914Y-92996632D01*
X106247782Y-92887139D01*
X106387139Y-92747782D01*
X106496632Y-92583914D01*
X106572051Y-92401835D01*
X106610500Y-92208541D01*
X106610500Y-92011459D01*
X106610500Y-92011456D01*
X106572052Y-91818170D01*
X106572051Y-91818169D01*
X106572051Y-91818165D01*
X106572049Y-91818160D01*
X106496635Y-91636092D01*
X106496628Y-91636079D01*
X106387139Y-91472218D01*
X106387136Y-91472214D01*
X106247785Y-91332863D01*
X106247781Y-91332860D01*
X106083920Y-91223371D01*
X106083907Y-91223364D01*
X105901839Y-91147950D01*
X105901829Y-91147947D01*
X105708543Y-91109500D01*
X105708541Y-91109500D01*
X105511459Y-91109500D01*
X105511457Y-91109500D01*
X105318170Y-91147947D01*
X105318160Y-91147950D01*
X105136092Y-91223364D01*
X105136079Y-91223371D01*
X104972218Y-91332860D01*
X104972214Y-91332863D01*
X104832863Y-91472214D01*
X104832860Y-91472218D01*
X104723371Y-91636079D01*
X104723364Y-91636092D01*
X104647950Y-91818160D01*
X104647947Y-91818170D01*
X104609500Y-92011456D01*
X104609500Y-92011459D01*
X104609500Y-92208541D01*
X104609500Y-92208543D01*
X104609499Y-92208543D01*
X91370500Y-92208543D01*
X91370500Y-92208541D01*
X91370500Y-92011459D01*
X91370500Y-92011456D01*
X91332052Y-91818170D01*
X91332051Y-91818169D01*
X91332051Y-91818165D01*
X91332049Y-91818160D01*
X91256635Y-91636092D01*
X91256628Y-91636079D01*
X91147139Y-91472218D01*
X91147136Y-91472214D01*
X91007785Y-91332863D01*
X91007781Y-91332860D01*
X90843920Y-91223371D01*
X90843907Y-91223364D01*
X90661839Y-91147950D01*
X90661829Y-91147947D01*
X90468543Y-91109500D01*
X90468541Y-91109500D01*
X90271459Y-91109500D01*
X90271457Y-91109500D01*
X90078170Y-91147947D01*
X90078160Y-91147950D01*
X89896092Y-91223364D01*
X89896079Y-91223371D01*
X89732218Y-91332860D01*
X89732214Y-91332863D01*
X89592863Y-91472214D01*
X89592860Y-91472218D01*
X89483371Y-91636079D01*
X89483364Y-91636092D01*
X89407950Y-91818160D01*
X89407947Y-91818170D01*
X89369500Y-92011456D01*
X89369500Y-92011459D01*
X89369500Y-92208541D01*
X89369500Y-92208543D01*
X89369499Y-92208543D01*
X65500500Y-92208543D01*
X65500500Y-90220876D01*
X72456500Y-90220876D01*
X72456500Y-91059123D01*
X72471467Y-91172801D01*
X72471467Y-91172802D01*
X72530060Y-91314258D01*
X72530061Y-91314259D01*
X72623269Y-91435731D01*
X72744741Y-91528939D01*
X72886198Y-91587533D01*
X72999884Y-91602500D01*
X72999891Y-91602500D01*
X74600109Y-91602500D01*
X74600116Y-91602500D01*
X74713802Y-91587533D01*
X74855259Y-91528939D01*
X74976731Y-91435731D01*
X75069939Y-91314259D01*
X75128533Y-91172802D01*
X75143500Y-91059116D01*
X75143500Y-90220884D01*
X75143499Y-90220876D01*
X85156500Y-90220876D01*
X85156500Y-91059123D01*
X85171467Y-91172801D01*
X85171467Y-91172802D01*
X85230060Y-91314258D01*
X85230061Y-91314259D01*
X85323269Y-91435731D01*
X85444741Y-91528939D01*
X85586198Y-91587533D01*
X85699884Y-91602500D01*
X85699891Y-91602500D01*
X87300109Y-91602500D01*
X87300116Y-91602500D01*
X87413802Y-91587533D01*
X87555259Y-91528939D01*
X87676731Y-91435731D01*
X87769939Y-91314259D01*
X87828533Y-91172802D01*
X87843500Y-91059116D01*
X87843500Y-90220884D01*
X87828533Y-90107198D01*
X87769939Y-89965741D01*
X87676731Y-89844269D01*
X87555259Y-89751061D01*
X87555258Y-89751060D01*
X87472395Y-89716737D01*
X87413802Y-89692467D01*
X87399591Y-89690596D01*
X87300123Y-89677500D01*
X87300116Y-89677500D01*
X85699884Y-89677500D01*
X85699876Y-89677500D01*
X85586198Y-89692467D01*
X85586197Y-89692467D01*
X85444741Y-89751060D01*
X85323269Y-89844269D01*
X85230060Y-89965741D01*
X85171467Y-90107197D01*
X85171467Y-90107198D01*
X85156500Y-90220876D01*
X75143499Y-90220876D01*
X75128533Y-90107198D01*
X75069939Y-89965741D01*
X74976731Y-89844269D01*
X74855259Y-89751061D01*
X74855258Y-89751060D01*
X74772395Y-89716737D01*
X74713802Y-89692467D01*
X74699591Y-89690596D01*
X74600123Y-89677500D01*
X74600116Y-89677500D01*
X72999884Y-89677500D01*
X72999876Y-89677500D01*
X72886198Y-89692467D01*
X72886197Y-89692467D01*
X72744741Y-89751060D01*
X72623269Y-89844269D01*
X72530060Y-89965741D01*
X72471467Y-90107197D01*
X72471467Y-90107198D01*
X72456500Y-90220876D01*
X65500500Y-90220876D01*
X65500500Y-89668543D01*
X89369499Y-89668543D01*
X89407947Y-89861829D01*
X89407950Y-89861839D01*
X89483364Y-90043907D01*
X89483371Y-90043920D01*
X89592860Y-90207781D01*
X89592863Y-90207785D01*
X89732214Y-90347136D01*
X89732218Y-90347139D01*
X89896079Y-90456628D01*
X89896092Y-90456635D01*
X90078160Y-90532049D01*
X90078165Y-90532051D01*
X90078169Y-90532051D01*
X90078170Y-90532052D01*
X90271456Y-90570500D01*
X90271459Y-90570500D01*
X90468543Y-90570500D01*
X90598582Y-90544632D01*
X90661835Y-90532051D01*
X90843914Y-90456632D01*
X91007782Y-90347139D01*
X91147139Y-90207782D01*
X91256632Y-90043914D01*
X91332051Y-89861835D01*
X91370500Y-89668543D01*
X104609499Y-89668543D01*
X104647947Y-89861829D01*
X104647950Y-89861839D01*
X104723364Y-90043907D01*
X104723371Y-90043920D01*
X104832860Y-90207781D01*
X104832863Y-90207785D01*
X104972214Y-90347136D01*
X104972218Y-90347139D01*
X105136079Y-90456628D01*
X105136092Y-90456635D01*
X105318160Y-90532049D01*
X105318165Y-90532051D01*
X105318169Y-90532051D01*
X105318170Y-90532052D01*
X105511456Y-90570500D01*
X105511459Y-90570500D01*
X105708543Y-90570500D01*
X105838582Y-90544632D01*
X105901835Y-90532051D01*
X106083914Y-90456632D01*
X106247782Y-90347139D01*
X106387139Y-90207782D01*
X106496632Y-90043914D01*
X106572051Y-89861835D01*
X106610500Y-89668541D01*
X106610500Y-89471459D01*
X106610500Y-89471456D01*
X106572052Y-89278170D01*
X106572051Y-89278169D01*
X106572051Y-89278165D01*
X106544334Y-89211249D01*
X106496635Y-89096092D01*
X106496628Y-89096079D01*
X106387139Y-88932218D01*
X106387136Y-88932214D01*
X106247785Y-88792863D01*
X106247781Y-88792860D01*
X106083920Y-88683371D01*
X106083907Y-88683364D01*
X105901839Y-88607950D01*
X105901829Y-88607947D01*
X105708543Y-88569500D01*
X105708541Y-88569500D01*
X105511459Y-88569500D01*
X105511457Y-88569500D01*
X105318170Y-88607947D01*
X105318160Y-88607950D01*
X105136092Y-88683364D01*
X105136079Y-88683371D01*
X104972218Y-88792860D01*
X104972214Y-88792863D01*
X104832863Y-88932214D01*
X104832860Y-88932218D01*
X104723371Y-89096079D01*
X104723364Y-89096092D01*
X104647950Y-89278160D01*
X104647947Y-89278170D01*
X104609500Y-89471456D01*
X104609500Y-89471459D01*
X104609500Y-89668541D01*
X104609500Y-89668543D01*
X104609499Y-89668543D01*
X91370500Y-89668543D01*
X91370500Y-89668541D01*
X91370500Y-89471459D01*
X91370500Y-89471456D01*
X91332052Y-89278170D01*
X91332051Y-89278169D01*
X91332051Y-89278165D01*
X91304334Y-89211249D01*
X91256635Y-89096092D01*
X91256628Y-89096079D01*
X91147139Y-88932218D01*
X91147136Y-88932214D01*
X91007785Y-88792863D01*
X91007781Y-88792860D01*
X90843920Y-88683371D01*
X90843907Y-88683364D01*
X90661839Y-88607950D01*
X90661829Y-88607947D01*
X90468543Y-88569500D01*
X90468541Y-88569500D01*
X90271459Y-88569500D01*
X90271457Y-88569500D01*
X90078170Y-88607947D01*
X90078160Y-88607950D01*
X89896092Y-88683364D01*
X89896079Y-88683371D01*
X89732218Y-88792860D01*
X89732214Y-88792863D01*
X89592863Y-88932214D01*
X89592860Y-88932218D01*
X89483371Y-89096079D01*
X89483364Y-89096092D01*
X89407950Y-89278160D01*
X89407947Y-89278170D01*
X89369500Y-89471456D01*
X89369500Y-89471459D01*
X89369500Y-89668541D01*
X89369500Y-89668543D01*
X89369499Y-89668543D01*
X65500500Y-89668543D01*
X65500500Y-87642395D01*
X72157000Y-87642395D01*
X72157000Y-88557605D01*
X72157001Y-88557609D01*
X72159917Y-88600632D01*
X72159917Y-88600634D01*
X72206165Y-88786602D01*
X72291307Y-88958275D01*
X72411364Y-89107631D01*
X72426582Y-89119864D01*
X73210439Y-88336008D01*
X73237271Y-88400785D01*
X73306764Y-88504789D01*
X73395211Y-88593236D01*
X73499215Y-88662729D01*
X73563990Y-88689560D01*
X72899227Y-89354322D01*
X72918365Y-89359081D01*
X72961395Y-89361999D01*
X74638605Y-89361999D01*
X74638609Y-89361998D01*
X74681634Y-89359082D01*
X74700771Y-89354323D01*
X74700771Y-89354322D01*
X74036008Y-88689560D01*
X74100785Y-88662729D01*
X74204789Y-88593236D01*
X74293236Y-88504789D01*
X74362729Y-88400785D01*
X74389560Y-88336008D01*
X75173416Y-89119864D01*
X75173417Y-89119864D01*
X75188631Y-89107635D01*
X75308693Y-88958272D01*
X75393834Y-88786602D01*
X75440081Y-88600640D01*
X75442999Y-88557604D01*
X75442999Y-87680876D01*
X85156500Y-87680876D01*
X85156500Y-88519123D01*
X85171467Y-88632801D01*
X85171467Y-88632802D01*
X85230060Y-88774258D01*
X85230061Y-88774259D01*
X85323269Y-88895731D01*
X85444741Y-88988939D01*
X85586198Y-89047533D01*
X85699884Y-89062500D01*
X85699891Y-89062500D01*
X87300109Y-89062500D01*
X87300116Y-89062500D01*
X87413802Y-89047533D01*
X87555259Y-88988939D01*
X87676731Y-88895731D01*
X87769939Y-88774259D01*
X87828533Y-88632802D01*
X87843500Y-88519116D01*
X87843500Y-88347743D01*
X92420299Y-88347743D01*
X92458747Y-88541029D01*
X92458750Y-88541039D01*
X92534164Y-88723107D01*
X92534171Y-88723120D01*
X92643660Y-88886981D01*
X92643663Y-88886985D01*
X92783014Y-89026336D01*
X92783018Y-89026339D01*
X92946879Y-89135828D01*
X92946892Y-89135835D01*
X93128960Y-89211249D01*
X93128965Y-89211251D01*
X93128969Y-89211251D01*
X93128970Y-89211252D01*
X93322256Y-89249700D01*
X93322259Y-89249700D01*
X93519343Y-89249700D01*
X93649382Y-89223832D01*
X93712635Y-89211251D01*
X93894714Y-89135832D01*
X94058582Y-89026339D01*
X94197939Y-88886982D01*
X94307432Y-88723114D01*
X94382851Y-88541035D01*
X94421300Y-88347741D01*
X94421300Y-88150659D01*
X94421300Y-88150656D01*
X94382852Y-87957370D01*
X94382851Y-87957369D01*
X94382851Y-87957365D01*
X94317344Y-87799215D01*
X94307435Y-87775292D01*
X94307428Y-87775279D01*
X94197939Y-87611418D01*
X94197936Y-87611414D01*
X94058585Y-87472063D01*
X94058581Y-87472060D01*
X93894720Y-87362571D01*
X93894707Y-87362564D01*
X93712639Y-87287150D01*
X93712629Y-87287147D01*
X93519343Y-87248700D01*
X93519341Y-87248700D01*
X93322259Y-87248700D01*
X93322257Y-87248700D01*
X93128970Y-87287147D01*
X93128960Y-87287150D01*
X92946892Y-87362564D01*
X92946879Y-87362571D01*
X92783018Y-87472060D01*
X92783014Y-87472063D01*
X92643663Y-87611414D01*
X92643660Y-87611418D01*
X92534171Y-87775279D01*
X92534164Y-87775292D01*
X92458750Y-87957360D01*
X92458747Y-87957370D01*
X92420300Y-88150656D01*
X92420300Y-88150659D01*
X92420300Y-88347741D01*
X92420300Y-88347743D01*
X92420299Y-88347743D01*
X87843500Y-88347743D01*
X87843500Y-87680884D01*
X87828533Y-87567198D01*
X87769939Y-87425741D01*
X87676731Y-87304269D01*
X87555259Y-87211061D01*
X87555258Y-87211060D01*
X87472395Y-87176737D01*
X87413802Y-87152467D01*
X87399591Y-87150596D01*
X87300123Y-87137500D01*
X87300116Y-87137500D01*
X85699884Y-87137500D01*
X85699876Y-87137500D01*
X85586198Y-87152467D01*
X85586197Y-87152467D01*
X85444741Y-87211060D01*
X85323269Y-87304269D01*
X85230060Y-87425741D01*
X85171467Y-87567197D01*
X85171467Y-87567198D01*
X85156500Y-87680876D01*
X75442999Y-87680876D01*
X75442999Y-87642394D01*
X75442998Y-87642390D01*
X75440082Y-87599367D01*
X75440082Y-87599365D01*
X75393834Y-87413397D01*
X75308692Y-87241724D01*
X75217714Y-87128543D01*
X89369499Y-87128543D01*
X89407947Y-87321829D01*
X89407950Y-87321839D01*
X89483364Y-87503907D01*
X89483371Y-87503920D01*
X89592860Y-87667781D01*
X89592863Y-87667785D01*
X89732214Y-87807136D01*
X89732218Y-87807139D01*
X89896079Y-87916628D01*
X89896092Y-87916635D01*
X90078160Y-87992049D01*
X90078165Y-87992051D01*
X90078169Y-87992051D01*
X90078170Y-87992052D01*
X90271456Y-88030500D01*
X90271459Y-88030500D01*
X90468543Y-88030500D01*
X90506499Y-88022950D01*
X90611243Y-88002114D01*
X90661835Y-87992051D01*
X90843914Y-87916632D01*
X91007782Y-87807139D01*
X91147139Y-87667782D01*
X91256632Y-87503914D01*
X91332051Y-87321835D01*
X91363673Y-87162863D01*
X91370500Y-87128543D01*
X91370500Y-86931456D01*
X91332052Y-86738170D01*
X91332051Y-86738169D01*
X91332051Y-86738165D01*
X91304334Y-86671249D01*
X91256635Y-86556092D01*
X91256628Y-86556079D01*
X91147139Y-86392218D01*
X91147136Y-86392214D01*
X91007785Y-86252863D01*
X91007781Y-86252860D01*
X90843920Y-86143371D01*
X90843907Y-86143364D01*
X90661839Y-86067950D01*
X90661829Y-86067947D01*
X90468543Y-86029500D01*
X90468541Y-86029500D01*
X90271459Y-86029500D01*
X90271457Y-86029500D01*
X90078170Y-86067947D01*
X90078160Y-86067950D01*
X89896092Y-86143364D01*
X89896079Y-86143371D01*
X89732218Y-86252860D01*
X89732214Y-86252863D01*
X89592863Y-86392214D01*
X89592860Y-86392218D01*
X89483371Y-86556079D01*
X89483364Y-86556092D01*
X89407950Y-86738160D01*
X89407947Y-86738170D01*
X89369500Y-86931456D01*
X89369500Y-86931459D01*
X89369500Y-87128541D01*
X89369500Y-87128543D01*
X89369499Y-87128543D01*
X75217714Y-87128543D01*
X75188636Y-87092368D01*
X75188631Y-87092363D01*
X75173417Y-87080134D01*
X74389560Y-87863990D01*
X74362729Y-87799215D01*
X74293236Y-87695211D01*
X74204789Y-87606764D01*
X74100785Y-87537271D01*
X74036008Y-87510439D01*
X74700770Y-86845676D01*
X74681637Y-86840918D01*
X74638604Y-86838000D01*
X72961394Y-86838000D01*
X72961390Y-86838001D01*
X72918370Y-86840917D01*
X72918367Y-86840917D01*
X72899228Y-86845676D01*
X73563991Y-87510439D01*
X73499215Y-87537271D01*
X73395211Y-87606764D01*
X73306764Y-87695211D01*
X73237271Y-87799215D01*
X73210439Y-87863991D01*
X72426581Y-87080133D01*
X72411370Y-87092362D01*
X72411362Y-87092369D01*
X72291307Y-87241724D01*
X72206165Y-87413397D01*
X72159918Y-87599359D01*
X72157000Y-87642395D01*
X65500500Y-87642395D01*
X65500500Y-85286530D01*
X68904500Y-85286530D01*
X68904500Y-85493469D01*
X68943692Y-85690500D01*
X68944870Y-85696420D01*
X69024059Y-85887598D01*
X69060531Y-85942182D01*
X69139024Y-86059657D01*
X69285342Y-86205975D01*
X69285345Y-86205977D01*
X69457402Y-86320941D01*
X69648580Y-86400130D01*
X69851530Y-86440499D01*
X69851534Y-86440500D01*
X69851535Y-86440500D01*
X70308466Y-86440500D01*
X70308467Y-86440499D01*
X70511420Y-86400130D01*
X70702598Y-86320941D01*
X70874655Y-86205977D01*
X71020977Y-86059655D01*
X71135941Y-85887598D01*
X71215130Y-85696420D01*
X71255500Y-85493465D01*
X71255500Y-85286535D01*
X71226527Y-85140876D01*
X72456500Y-85140876D01*
X72456500Y-85979123D01*
X72471467Y-86092801D01*
X72471467Y-86092802D01*
X72530060Y-86234258D01*
X72530061Y-86234259D01*
X72623269Y-86355731D01*
X72744741Y-86448939D01*
X72886198Y-86507533D01*
X72999884Y-86522500D01*
X72999891Y-86522500D01*
X74600109Y-86522500D01*
X74600116Y-86522500D01*
X74713802Y-86507533D01*
X74855259Y-86448939D01*
X74976731Y-86355731D01*
X75069939Y-86234259D01*
X75128533Y-86092802D01*
X75143500Y-85979116D01*
X75143500Y-85140884D01*
X75143499Y-85140876D01*
X85156500Y-85140876D01*
X85156500Y-85979123D01*
X85171467Y-86092801D01*
X85171467Y-86092802D01*
X85230060Y-86234258D01*
X85230061Y-86234259D01*
X85323269Y-86355731D01*
X85444741Y-86448939D01*
X85586198Y-86507533D01*
X85699884Y-86522500D01*
X85699891Y-86522500D01*
X87300109Y-86522500D01*
X87300116Y-86522500D01*
X87413802Y-86507533D01*
X87555259Y-86448939D01*
X87676731Y-86355731D01*
X87769939Y-86234259D01*
X87828533Y-86092802D01*
X87843500Y-85979116D01*
X87843500Y-85807743D01*
X92420299Y-85807743D01*
X92458747Y-86001029D01*
X92458750Y-86001039D01*
X92534164Y-86183107D01*
X92534171Y-86183120D01*
X92643660Y-86346981D01*
X92643663Y-86346985D01*
X92783014Y-86486336D01*
X92783018Y-86486339D01*
X92946879Y-86595828D01*
X92946892Y-86595835D01*
X93059319Y-86642403D01*
X93128965Y-86671251D01*
X93128969Y-86671251D01*
X93128970Y-86671252D01*
X93322256Y-86709700D01*
X93322259Y-86709700D01*
X93519343Y-86709700D01*
X93649382Y-86683832D01*
X93687612Y-86676228D01*
X98321100Y-86676228D01*
X98321100Y-86843771D01*
X98353782Y-87008074D01*
X98353784Y-87008082D01*
X98417895Y-87162860D01*
X98510973Y-87302162D01*
X98629437Y-87420626D01*
X98722094Y-87482537D01*
X98768737Y-87513703D01*
X98923518Y-87577816D01*
X99069051Y-87606764D01*
X99087828Y-87610499D01*
X99087832Y-87610500D01*
X99087833Y-87610500D01*
X99255368Y-87610500D01*
X99255369Y-87610499D01*
X99419682Y-87577816D01*
X99574463Y-87513703D01*
X99713762Y-87420626D01*
X99832226Y-87302162D01*
X99925303Y-87162863D01*
X99989416Y-87008082D01*
X100022100Y-86843767D01*
X100022100Y-86676233D01*
X100022099Y-86676228D01*
X100321100Y-86676228D01*
X100321100Y-86843771D01*
X100353782Y-87008074D01*
X100353784Y-87008082D01*
X100417895Y-87162860D01*
X100510973Y-87302162D01*
X100629437Y-87420626D01*
X100722094Y-87482537D01*
X100768737Y-87513703D01*
X100923518Y-87577816D01*
X101069051Y-87606764D01*
X101087828Y-87610499D01*
X101087832Y-87610500D01*
X101087833Y-87610500D01*
X101255368Y-87610500D01*
X101255369Y-87610499D01*
X101419682Y-87577816D01*
X101574463Y-87513703D01*
X101713762Y-87420626D01*
X101832226Y-87302162D01*
X101925303Y-87162863D01*
X101989416Y-87008082D01*
X102022100Y-86843767D01*
X102022100Y-86676233D01*
X102022099Y-86676228D01*
X102321100Y-86676228D01*
X102321100Y-86843771D01*
X102353782Y-87008074D01*
X102353784Y-87008082D01*
X102417895Y-87162860D01*
X102510973Y-87302162D01*
X102629437Y-87420626D01*
X102722094Y-87482537D01*
X102768737Y-87513703D01*
X102923518Y-87577816D01*
X103069051Y-87606764D01*
X103087828Y-87610499D01*
X103087832Y-87610500D01*
X103087833Y-87610500D01*
X103255368Y-87610500D01*
X103255369Y-87610499D01*
X103419682Y-87577816D01*
X103574463Y-87513703D01*
X103713762Y-87420626D01*
X103832226Y-87302162D01*
X103925303Y-87162863D01*
X103939519Y-87128543D01*
X104609499Y-87128543D01*
X104647947Y-87321829D01*
X104647950Y-87321839D01*
X104723364Y-87503907D01*
X104723371Y-87503920D01*
X104832860Y-87667781D01*
X104832863Y-87667785D01*
X104972214Y-87807136D01*
X104972218Y-87807139D01*
X105136079Y-87916628D01*
X105136092Y-87916635D01*
X105318160Y-87992049D01*
X105318165Y-87992051D01*
X105318169Y-87992051D01*
X105318170Y-87992052D01*
X105511456Y-88030500D01*
X105511459Y-88030500D01*
X105708543Y-88030500D01*
X105838582Y-88004632D01*
X105901835Y-87992051D01*
X106083914Y-87916632D01*
X106247782Y-87807139D01*
X106387139Y-87667782D01*
X106496632Y-87503914D01*
X106572051Y-87321835D01*
X106603673Y-87162863D01*
X106610500Y-87128543D01*
X106610500Y-87036530D01*
X110679500Y-87036530D01*
X110679500Y-87243469D01*
X110719868Y-87446412D01*
X110719870Y-87446420D01*
X110787834Y-87610500D01*
X110799059Y-87637598D01*
X110819227Y-87667782D01*
X110914024Y-87809657D01*
X111060342Y-87955975D01*
X111060345Y-87955977D01*
X111232402Y-88070941D01*
X111423580Y-88150130D01*
X111626530Y-88190499D01*
X111626534Y-88190500D01*
X111626535Y-88190500D01*
X112133466Y-88190500D01*
X112133467Y-88190499D01*
X112336420Y-88150130D01*
X112527598Y-88070941D01*
X112699655Y-87955977D01*
X112845977Y-87809655D01*
X112960941Y-87637598D01*
X113040130Y-87446420D01*
X113080500Y-87243465D01*
X113080500Y-87036535D01*
X113040130Y-86833580D01*
X112960941Y-86642402D01*
X112845977Y-86470345D01*
X112845975Y-86470342D01*
X112699657Y-86324024D01*
X112593151Y-86252860D01*
X112527598Y-86209059D01*
X112520157Y-86205977D01*
X112336420Y-86129870D01*
X112336412Y-86129868D01*
X112133469Y-86089500D01*
X112133465Y-86089500D01*
X111626535Y-86089500D01*
X111626530Y-86089500D01*
X111423587Y-86129868D01*
X111423579Y-86129870D01*
X111232403Y-86209058D01*
X111060342Y-86324024D01*
X110914024Y-86470342D01*
X110799058Y-86642403D01*
X110719870Y-86833579D01*
X110719868Y-86833587D01*
X110679500Y-87036530D01*
X106610500Y-87036530D01*
X106610500Y-86931456D01*
X106572052Y-86738170D01*
X106572051Y-86738169D01*
X106572051Y-86738165D01*
X106544334Y-86671249D01*
X106496635Y-86556092D01*
X106496628Y-86556079D01*
X106387139Y-86392218D01*
X106387136Y-86392214D01*
X106247785Y-86252863D01*
X106247781Y-86252860D01*
X106083920Y-86143371D01*
X106083907Y-86143364D01*
X105901839Y-86067950D01*
X105901829Y-86067947D01*
X105708543Y-86029500D01*
X105708541Y-86029500D01*
X105511459Y-86029500D01*
X105511457Y-86029500D01*
X105318170Y-86067947D01*
X105318160Y-86067950D01*
X105136092Y-86143364D01*
X105136079Y-86143371D01*
X104972218Y-86252860D01*
X104972214Y-86252863D01*
X104832863Y-86392214D01*
X104832860Y-86392218D01*
X104723371Y-86556079D01*
X104723364Y-86556092D01*
X104647950Y-86738160D01*
X104647947Y-86738170D01*
X104609500Y-86931456D01*
X104609500Y-86931459D01*
X104609500Y-87128541D01*
X104609500Y-87128543D01*
X104609499Y-87128543D01*
X103939519Y-87128543D01*
X103989416Y-87008082D01*
X104022100Y-86843767D01*
X104022100Y-86676233D01*
X103989416Y-86511918D01*
X103925303Y-86357137D01*
X103855627Y-86252860D01*
X103832226Y-86217837D01*
X103713762Y-86099373D01*
X103574460Y-86006295D01*
X103419682Y-85942184D01*
X103419674Y-85942182D01*
X103255371Y-85909500D01*
X103255367Y-85909500D01*
X103087833Y-85909500D01*
X103087828Y-85909500D01*
X102923525Y-85942182D01*
X102923517Y-85942184D01*
X102768739Y-86006295D01*
X102629437Y-86099373D01*
X102510973Y-86217837D01*
X102417895Y-86357139D01*
X102353784Y-86511917D01*
X102353782Y-86511925D01*
X102321100Y-86676228D01*
X102022099Y-86676228D01*
X101989416Y-86511918D01*
X101925303Y-86357137D01*
X101855627Y-86252860D01*
X101832226Y-86217837D01*
X101713762Y-86099373D01*
X101574460Y-86006295D01*
X101419682Y-85942184D01*
X101419674Y-85942182D01*
X101255371Y-85909500D01*
X101255367Y-85909500D01*
X101087833Y-85909500D01*
X101087828Y-85909500D01*
X100923525Y-85942182D01*
X100923517Y-85942184D01*
X100768739Y-86006295D01*
X100629437Y-86099373D01*
X100510973Y-86217837D01*
X100417895Y-86357139D01*
X100353784Y-86511917D01*
X100353782Y-86511925D01*
X100321100Y-86676228D01*
X100022099Y-86676228D01*
X99989416Y-86511918D01*
X99925303Y-86357137D01*
X99855627Y-86252860D01*
X99832226Y-86217837D01*
X99713762Y-86099373D01*
X99574460Y-86006295D01*
X99419682Y-85942184D01*
X99419674Y-85942182D01*
X99255371Y-85909500D01*
X99255367Y-85909500D01*
X99087833Y-85909500D01*
X99087828Y-85909500D01*
X98923525Y-85942182D01*
X98923517Y-85942184D01*
X98768739Y-86006295D01*
X98629437Y-86099373D01*
X98510973Y-86217837D01*
X98417895Y-86357139D01*
X98353784Y-86511917D01*
X98353782Y-86511925D01*
X98321100Y-86676228D01*
X93687612Y-86676228D01*
X93712635Y-86671251D01*
X93894714Y-86595832D01*
X93894721Y-86595826D01*
X93894725Y-86595825D01*
X93937803Y-86567041D01*
X93937807Y-86567039D01*
X94020300Y-86511918D01*
X94058582Y-86486339D01*
X94197939Y-86346982D01*
X94307432Y-86183114D01*
X94382851Y-86001035D01*
X94421300Y-85807741D01*
X94421300Y-85610659D01*
X94421300Y-85610656D01*
X94382852Y-85417370D01*
X94382851Y-85417369D01*
X94382851Y-85417365D01*
X94335133Y-85302162D01*
X94307435Y-85235292D01*
X94307428Y-85235279D01*
X94197939Y-85071418D01*
X94197936Y-85071414D01*
X94058585Y-84932063D01*
X94058581Y-84932060D01*
X93894720Y-84822571D01*
X93894707Y-84822564D01*
X93803298Y-84784702D01*
X93712639Y-84747150D01*
X93712629Y-84747147D01*
X93519343Y-84708700D01*
X93519341Y-84708700D01*
X93322259Y-84708700D01*
X93322257Y-84708700D01*
X93128970Y-84747147D01*
X93128960Y-84747150D01*
X92946892Y-84822564D01*
X92946879Y-84822571D01*
X92783018Y-84932060D01*
X92783014Y-84932063D01*
X92643663Y-85071414D01*
X92643660Y-85071418D01*
X92534171Y-85235279D01*
X92534164Y-85235292D01*
X92458750Y-85417360D01*
X92458747Y-85417370D01*
X92420300Y-85610656D01*
X92420300Y-85610659D01*
X92420300Y-85807741D01*
X92420300Y-85807743D01*
X92420299Y-85807743D01*
X87843500Y-85807743D01*
X87843500Y-85140884D01*
X87828533Y-85027198D01*
X87769939Y-84885741D01*
X87676731Y-84764269D01*
X87583522Y-84692747D01*
X87555258Y-84671060D01*
X87472395Y-84636737D01*
X87413802Y-84612467D01*
X87399591Y-84610596D01*
X87300123Y-84597500D01*
X87300116Y-84597500D01*
X85699884Y-84597500D01*
X85699876Y-84597500D01*
X85586198Y-84612467D01*
X85586197Y-84612467D01*
X85444741Y-84671060D01*
X85323269Y-84764269D01*
X85230060Y-84885741D01*
X85171467Y-85027197D01*
X85171467Y-85027198D01*
X85156500Y-85140876D01*
X75143499Y-85140876D01*
X75128533Y-85027198D01*
X75069939Y-84885741D01*
X74976731Y-84764269D01*
X74883522Y-84692747D01*
X74855258Y-84671060D01*
X74772395Y-84636737D01*
X74713802Y-84612467D01*
X74699591Y-84610596D01*
X74600123Y-84597500D01*
X74600116Y-84597500D01*
X72999884Y-84597500D01*
X72999876Y-84597500D01*
X72886198Y-84612467D01*
X72886197Y-84612467D01*
X72744741Y-84671060D01*
X72623269Y-84764269D01*
X72530060Y-84885741D01*
X72471467Y-85027197D01*
X72471467Y-85027198D01*
X72456500Y-85140876D01*
X71226527Y-85140876D01*
X71215130Y-85083580D01*
X71135941Y-84892402D01*
X71020977Y-84720345D01*
X71020975Y-84720342D01*
X70889176Y-84588543D01*
X89369499Y-84588543D01*
X89407947Y-84781829D01*
X89407950Y-84781839D01*
X89483364Y-84963907D01*
X89483371Y-84963920D01*
X89592860Y-85127781D01*
X89592863Y-85127785D01*
X89732214Y-85267136D01*
X89732218Y-85267139D01*
X89896079Y-85376628D01*
X89896092Y-85376635D01*
X90024320Y-85429748D01*
X90078165Y-85452051D01*
X90078169Y-85452051D01*
X90078170Y-85452052D01*
X90271456Y-85490500D01*
X90271459Y-85490500D01*
X90468543Y-85490500D01*
X90506499Y-85482950D01*
X90611243Y-85462114D01*
X90661835Y-85452051D01*
X90843914Y-85376632D01*
X91007782Y-85267139D01*
X91147139Y-85127782D01*
X91256632Y-84963914D01*
X91332051Y-84781835D01*
X91353058Y-84676228D01*
X98321100Y-84676228D01*
X98321100Y-84843771D01*
X98353782Y-85008074D01*
X98353784Y-85008082D01*
X98417895Y-85162860D01*
X98510973Y-85302162D01*
X98629437Y-85420626D01*
X98676470Y-85452052D01*
X98768737Y-85513703D01*
X98923518Y-85577816D01*
X99087828Y-85610499D01*
X99087832Y-85610500D01*
X99087833Y-85610500D01*
X99255368Y-85610500D01*
X99255369Y-85610499D01*
X99419682Y-85577816D01*
X99574463Y-85513703D01*
X99713762Y-85420626D01*
X99832226Y-85302162D01*
X99925303Y-85162863D01*
X99989416Y-85008082D01*
X100022100Y-84843767D01*
X100022100Y-84676233D01*
X100022099Y-84676228D01*
X100321100Y-84676228D01*
X100321100Y-84843771D01*
X100353782Y-85008074D01*
X100353784Y-85008082D01*
X100417895Y-85162860D01*
X100510973Y-85302162D01*
X100629437Y-85420626D01*
X100676470Y-85452052D01*
X100768737Y-85513703D01*
X100923518Y-85577816D01*
X101087828Y-85610499D01*
X101087832Y-85610500D01*
X101087833Y-85610500D01*
X101255368Y-85610500D01*
X101255369Y-85610499D01*
X101419682Y-85577816D01*
X101574463Y-85513703D01*
X101713762Y-85420626D01*
X101832226Y-85302162D01*
X101925303Y-85162863D01*
X101989416Y-85008082D01*
X102022100Y-84843767D01*
X102022100Y-84676233D01*
X101989416Y-84511918D01*
X101925303Y-84357137D01*
X101894137Y-84310494D01*
X101832226Y-84217837D01*
X101713762Y-84099373D01*
X101700104Y-84090247D01*
X102321100Y-84090247D01*
X102321100Y-85429752D01*
X102332731Y-85488229D01*
X102332732Y-85488230D01*
X102377047Y-85554552D01*
X102443369Y-85598867D01*
X102443370Y-85598868D01*
X102501847Y-85610499D01*
X102501850Y-85610500D01*
X102501852Y-85610500D01*
X103841350Y-85610500D01*
X103841351Y-85610499D01*
X103856168Y-85607552D01*
X103899829Y-85598868D01*
X103899829Y-85598867D01*
X103899831Y-85598867D01*
X103966152Y-85554552D01*
X104010467Y-85488231D01*
X104010467Y-85488229D01*
X104010468Y-85488229D01*
X104022099Y-85429752D01*
X104022100Y-85429750D01*
X104022100Y-84588543D01*
X104609499Y-84588543D01*
X104647947Y-84781829D01*
X104647950Y-84781839D01*
X104723364Y-84963907D01*
X104723371Y-84963920D01*
X104832860Y-85127781D01*
X104832863Y-85127785D01*
X104972214Y-85267136D01*
X104972218Y-85267139D01*
X105136079Y-85376628D01*
X105136092Y-85376635D01*
X105264320Y-85429748D01*
X105318165Y-85452051D01*
X105318169Y-85452051D01*
X105318170Y-85452052D01*
X105511456Y-85490500D01*
X105511459Y-85490500D01*
X105708543Y-85490500D01*
X105838582Y-85464632D01*
X105901835Y-85452051D01*
X106083914Y-85376632D01*
X106247782Y-85267139D01*
X106387139Y-85127782D01*
X106496632Y-84963914D01*
X106572051Y-84781835D01*
X106610500Y-84588541D01*
X106610500Y-84391459D01*
X106610500Y-84391456D01*
X106572052Y-84198170D01*
X106572051Y-84198169D01*
X106572051Y-84198165D01*
X106531131Y-84099374D01*
X106502515Y-84030287D01*
X106496633Y-84016089D01*
X106496632Y-84016086D01*
X106496630Y-84016083D01*
X106496628Y-84016079D01*
X106476349Y-83985730D01*
X110679500Y-83985730D01*
X110679500Y-85294269D01*
X110682353Y-85324699D01*
X110682353Y-85324701D01*
X110727206Y-85452880D01*
X110727207Y-85452882D01*
X110807850Y-85562150D01*
X110917118Y-85642793D01*
X110959845Y-85657744D01*
X111045299Y-85687646D01*
X111075730Y-85690500D01*
X111075734Y-85690500D01*
X112684270Y-85690500D01*
X112714699Y-85687646D01*
X112714701Y-85687646D01*
X112778790Y-85665219D01*
X112842882Y-85642793D01*
X112952150Y-85562150D01*
X113032793Y-85452882D01*
X113059475Y-85376628D01*
X113077646Y-85324701D01*
X113077646Y-85324699D01*
X113080500Y-85294269D01*
X113080500Y-84820247D01*
X125029500Y-84820247D01*
X125029500Y-86559752D01*
X125041131Y-86618229D01*
X125041132Y-86618230D01*
X125085447Y-86684552D01*
X125151769Y-86728867D01*
X125151770Y-86728868D01*
X125210247Y-86740499D01*
X125210250Y-86740500D01*
X125210252Y-86740500D01*
X126949750Y-86740500D01*
X126949751Y-86740499D01*
X126964568Y-86737552D01*
X127008229Y-86728868D01*
X127008229Y-86728867D01*
X127008231Y-86728867D01*
X127074552Y-86684552D01*
X127118867Y-86618231D01*
X127118867Y-86618229D01*
X127118868Y-86618229D01*
X127130499Y-86559752D01*
X127130500Y-86559750D01*
X127130500Y-84820249D01*
X127130499Y-84820247D01*
X127118868Y-84761770D01*
X127118867Y-84761769D01*
X127074552Y-84695447D01*
X127008230Y-84651132D01*
X127008229Y-84651131D01*
X126949752Y-84639500D01*
X126949748Y-84639500D01*
X125210252Y-84639500D01*
X125210247Y-84639500D01*
X125151770Y-84651131D01*
X125151769Y-84651132D01*
X125085447Y-84695447D01*
X125041132Y-84761769D01*
X125041131Y-84761770D01*
X125029500Y-84820247D01*
X113080500Y-84820247D01*
X113080500Y-83985730D01*
X113077646Y-83955300D01*
X113077646Y-83955298D01*
X113032793Y-83827119D01*
X113032792Y-83827117D01*
X113028234Y-83820941D01*
X112952150Y-83717850D01*
X112842882Y-83637207D01*
X112842880Y-83637206D01*
X112714700Y-83592353D01*
X112684270Y-83589500D01*
X112684266Y-83589500D01*
X111075734Y-83589500D01*
X111075730Y-83589500D01*
X111045300Y-83592353D01*
X111045298Y-83592353D01*
X110917119Y-83637206D01*
X110917117Y-83637207D01*
X110807850Y-83717850D01*
X110727207Y-83827117D01*
X110727206Y-83827119D01*
X110682353Y-83955298D01*
X110682353Y-83955300D01*
X110679500Y-83985730D01*
X106476349Y-83985730D01*
X106387139Y-83852218D01*
X106387136Y-83852214D01*
X106247785Y-83712863D01*
X106247781Y-83712860D01*
X106083920Y-83603371D01*
X106083907Y-83603364D01*
X105901839Y-83527950D01*
X105901829Y-83527947D01*
X105708543Y-83489500D01*
X105708541Y-83489500D01*
X105511459Y-83489500D01*
X105511457Y-83489500D01*
X105318170Y-83527947D01*
X105318160Y-83527950D01*
X105136092Y-83603364D01*
X105136079Y-83603371D01*
X104972218Y-83712860D01*
X104972214Y-83712863D01*
X104832863Y-83852214D01*
X104832860Y-83852218D01*
X104723371Y-84016079D01*
X104723364Y-84016092D01*
X104647950Y-84198160D01*
X104647947Y-84198170D01*
X104609500Y-84391456D01*
X104609500Y-84391459D01*
X104609500Y-84588541D01*
X104609500Y-84588543D01*
X104609499Y-84588543D01*
X104022100Y-84588543D01*
X104022100Y-84090249D01*
X104022099Y-84090247D01*
X104010468Y-84031770D01*
X104010467Y-84031769D01*
X103966152Y-83965447D01*
X103899830Y-83921132D01*
X103899829Y-83921131D01*
X103841352Y-83909500D01*
X103841348Y-83909500D01*
X102501852Y-83909500D01*
X102501847Y-83909500D01*
X102443370Y-83921131D01*
X102443369Y-83921132D01*
X102377047Y-83965447D01*
X102332732Y-84031769D01*
X102332731Y-84031770D01*
X102321100Y-84090247D01*
X101700104Y-84090247D01*
X101574460Y-84006295D01*
X101419682Y-83942184D01*
X101419674Y-83942182D01*
X101255371Y-83909500D01*
X101255367Y-83909500D01*
X101087833Y-83909500D01*
X101087828Y-83909500D01*
X100923525Y-83942182D01*
X100923517Y-83942184D01*
X100768739Y-84006295D01*
X100629437Y-84099373D01*
X100510973Y-84217837D01*
X100417895Y-84357139D01*
X100353784Y-84511917D01*
X100353782Y-84511925D01*
X100321100Y-84676228D01*
X100022099Y-84676228D01*
X99989416Y-84511918D01*
X99925303Y-84357137D01*
X99894137Y-84310494D01*
X99832226Y-84217837D01*
X99713762Y-84099373D01*
X99574460Y-84006295D01*
X99419682Y-83942184D01*
X99419674Y-83942182D01*
X99255371Y-83909500D01*
X99255367Y-83909500D01*
X99087833Y-83909500D01*
X99087828Y-83909500D01*
X98923525Y-83942182D01*
X98923517Y-83942184D01*
X98768739Y-84006295D01*
X98629437Y-84099373D01*
X98510973Y-84217837D01*
X98417895Y-84357139D01*
X98353784Y-84511917D01*
X98353782Y-84511925D01*
X98321100Y-84676228D01*
X91353058Y-84676228D01*
X91370500Y-84588541D01*
X91370500Y-84391459D01*
X91370500Y-84391456D01*
X91332052Y-84198170D01*
X91332051Y-84198169D01*
X91332051Y-84198165D01*
X91291131Y-84099374D01*
X91256635Y-84016092D01*
X91256628Y-84016079D01*
X91147139Y-83852218D01*
X91147136Y-83852214D01*
X91007785Y-83712863D01*
X91007781Y-83712860D01*
X90843920Y-83603371D01*
X90843907Y-83603364D01*
X90661839Y-83527950D01*
X90661829Y-83527947D01*
X90468543Y-83489500D01*
X90468541Y-83489500D01*
X90271459Y-83489500D01*
X90271457Y-83489500D01*
X90078170Y-83527947D01*
X90078160Y-83527950D01*
X89896092Y-83603364D01*
X89896079Y-83603371D01*
X89732218Y-83712860D01*
X89732214Y-83712863D01*
X89592863Y-83852214D01*
X89592860Y-83852218D01*
X89483371Y-84016079D01*
X89483364Y-84016092D01*
X89407950Y-84198160D01*
X89407947Y-84198170D01*
X89369500Y-84391456D01*
X89369500Y-84391459D01*
X89369500Y-84588541D01*
X89369500Y-84588543D01*
X89369499Y-84588543D01*
X70889176Y-84588543D01*
X70874658Y-84574025D01*
X70874650Y-84574019D01*
X70746689Y-84488518D01*
X70746615Y-84488470D01*
X70745172Y-84487506D01*
X70702598Y-84459059D01*
X70511420Y-84379870D01*
X70511412Y-84379868D01*
X70308469Y-84339500D01*
X70308465Y-84339500D01*
X69851535Y-84339500D01*
X69851530Y-84339500D01*
X69648587Y-84379868D01*
X69648579Y-84379870D01*
X69457403Y-84459058D01*
X69285342Y-84574024D01*
X69139024Y-84720342D01*
X69024058Y-84892403D01*
X68944870Y-85083579D01*
X68944868Y-85083587D01*
X68904500Y-85286530D01*
X65500500Y-85286530D01*
X65500500Y-82786530D01*
X68904500Y-82786530D01*
X68904500Y-82993469D01*
X68944868Y-83196412D01*
X68944870Y-83196420D01*
X69024058Y-83387596D01*
X69139024Y-83559657D01*
X69285342Y-83705975D01*
X69285345Y-83705977D01*
X69457402Y-83820941D01*
X69648580Y-83900130D01*
X69851530Y-83940499D01*
X69851534Y-83940500D01*
X69851535Y-83940500D01*
X70308466Y-83940500D01*
X70308467Y-83940499D01*
X70511420Y-83900130D01*
X70702598Y-83820941D01*
X70874655Y-83705977D01*
X71020977Y-83559655D01*
X71135941Y-83387598D01*
X71215130Y-83196420D01*
X71255500Y-82993465D01*
X71255500Y-82786535D01*
X71255184Y-82784948D01*
X71222577Y-82621016D01*
X71218571Y-82600876D01*
X72456500Y-82600876D01*
X72456500Y-83439123D01*
X72471467Y-83552801D01*
X72471467Y-83552802D01*
X72530060Y-83694258D01*
X72530061Y-83694259D01*
X72623269Y-83815731D01*
X72744741Y-83908939D01*
X72886198Y-83967533D01*
X72999884Y-83982500D01*
X72999891Y-83982500D01*
X74600109Y-83982500D01*
X74600116Y-83982500D01*
X74713802Y-83967533D01*
X74855259Y-83908939D01*
X74976731Y-83815731D01*
X75069939Y-83694259D01*
X75128533Y-83552802D01*
X75143500Y-83439116D01*
X75143500Y-82600884D01*
X75143499Y-82600876D01*
X85156500Y-82600876D01*
X85156500Y-83439123D01*
X85171467Y-83552801D01*
X85171467Y-83552802D01*
X85230060Y-83694258D01*
X85230061Y-83694259D01*
X85323269Y-83815731D01*
X85444741Y-83908939D01*
X85586198Y-83967533D01*
X85699884Y-83982500D01*
X85699891Y-83982500D01*
X87300109Y-83982500D01*
X87300116Y-83982500D01*
X87413802Y-83967533D01*
X87555259Y-83908939D01*
X87676731Y-83815731D01*
X87769939Y-83694259D01*
X87828533Y-83552802D01*
X87843500Y-83439116D01*
X87843500Y-83267743D01*
X92420299Y-83267743D01*
X92458747Y-83461029D01*
X92458750Y-83461039D01*
X92534164Y-83643107D01*
X92534171Y-83643120D01*
X92643660Y-83806981D01*
X92643663Y-83806985D01*
X92783014Y-83946336D01*
X92783018Y-83946339D01*
X92946879Y-84055828D01*
X92946892Y-84055835D01*
X93128960Y-84131249D01*
X93128965Y-84131251D01*
X93128969Y-84131251D01*
X93128970Y-84131252D01*
X93322256Y-84169700D01*
X93322259Y-84169700D01*
X93519343Y-84169700D01*
X93649382Y-84143832D01*
X93712635Y-84131251D01*
X93894714Y-84055832D01*
X94058582Y-83946339D01*
X94197939Y-83806982D01*
X94307432Y-83643114D01*
X94382851Y-83461035D01*
X94421300Y-83267741D01*
X94421300Y-83070659D01*
X94421300Y-83070656D01*
X94382852Y-82877370D01*
X94382851Y-82877369D01*
X94382851Y-82877365D01*
X94368857Y-82843580D01*
X94307435Y-82695292D01*
X94307428Y-82695279D01*
X94197939Y-82531418D01*
X94197936Y-82531414D01*
X94058585Y-82392063D01*
X94058581Y-82392060D01*
X93894720Y-82282571D01*
X93894707Y-82282564D01*
X93712639Y-82207150D01*
X93712629Y-82207147D01*
X93519343Y-82168700D01*
X93519341Y-82168700D01*
X93322259Y-82168700D01*
X93322257Y-82168700D01*
X93128970Y-82207147D01*
X93128960Y-82207150D01*
X92946892Y-82282564D01*
X92946879Y-82282571D01*
X92783018Y-82392060D01*
X92783014Y-82392063D01*
X92643663Y-82531414D01*
X92643660Y-82531418D01*
X92534171Y-82695279D01*
X92534164Y-82695292D01*
X92458750Y-82877360D01*
X92458747Y-82877370D01*
X92420300Y-83070656D01*
X92420300Y-83070659D01*
X92420300Y-83267741D01*
X92420300Y-83267743D01*
X92420299Y-83267743D01*
X87843500Y-83267743D01*
X87843500Y-82600884D01*
X87828533Y-82487198D01*
X87769939Y-82345741D01*
X87676731Y-82224269D01*
X87555259Y-82131061D01*
X87555258Y-82131060D01*
X87458508Y-82090985D01*
X87413802Y-82072467D01*
X87399591Y-82070596D01*
X87300123Y-82057500D01*
X87300116Y-82057500D01*
X85699884Y-82057500D01*
X85699876Y-82057500D01*
X85586198Y-82072467D01*
X85586197Y-82072467D01*
X85444741Y-82131060D01*
X85323269Y-82224269D01*
X85230060Y-82345741D01*
X85171467Y-82487197D01*
X85171467Y-82487198D01*
X85156500Y-82600876D01*
X75143499Y-82600876D01*
X75128533Y-82487198D01*
X75069939Y-82345741D01*
X74976731Y-82224269D01*
X74855259Y-82131061D01*
X74855258Y-82131060D01*
X74758508Y-82090985D01*
X74713802Y-82072467D01*
X74699591Y-82070596D01*
X74600123Y-82057500D01*
X74600116Y-82057500D01*
X72999884Y-82057500D01*
X72999876Y-82057500D01*
X72886198Y-82072467D01*
X72886197Y-82072467D01*
X72744741Y-82131060D01*
X72623269Y-82224269D01*
X72530060Y-82345741D01*
X72471467Y-82487197D01*
X72471467Y-82487198D01*
X72456500Y-82600876D01*
X71218571Y-82600876D01*
X71215966Y-82587782D01*
X71215130Y-82583580D01*
X71135941Y-82392402D01*
X71020977Y-82220345D01*
X71020975Y-82220342D01*
X70874657Y-82074024D01*
X70836521Y-82048543D01*
X89369499Y-82048543D01*
X89407947Y-82241829D01*
X89407950Y-82241839D01*
X89483364Y-82423907D01*
X89483371Y-82423920D01*
X89592860Y-82587781D01*
X89592863Y-82587785D01*
X89732214Y-82727136D01*
X89732218Y-82727139D01*
X89896079Y-82836628D01*
X89896092Y-82836635D01*
X90078160Y-82912049D01*
X90078165Y-82912051D01*
X90078169Y-82912051D01*
X90078170Y-82912052D01*
X90271456Y-82950500D01*
X90271459Y-82950500D01*
X90468543Y-82950500D01*
X90506499Y-82942950D01*
X90611243Y-82922114D01*
X90661835Y-82912051D01*
X90843914Y-82836632D01*
X91007782Y-82727139D01*
X91147139Y-82587782D01*
X91256632Y-82423914D01*
X91332051Y-82241835D01*
X91360364Y-82099500D01*
X91370500Y-82048543D01*
X104609499Y-82048543D01*
X104647947Y-82241829D01*
X104647950Y-82241839D01*
X104723364Y-82423907D01*
X104723371Y-82423920D01*
X104832860Y-82587781D01*
X104832863Y-82587785D01*
X104972214Y-82727136D01*
X104972218Y-82727139D01*
X105136079Y-82836628D01*
X105136092Y-82836635D01*
X105318160Y-82912049D01*
X105318165Y-82912051D01*
X105318169Y-82912051D01*
X105318170Y-82912052D01*
X105511456Y-82950500D01*
X105511459Y-82950500D01*
X105708543Y-82950500D01*
X105838582Y-82924632D01*
X105901835Y-82912051D01*
X106083914Y-82836632D01*
X106247782Y-82727139D01*
X106387139Y-82587782D01*
X106496632Y-82423914D01*
X106572051Y-82241835D01*
X106600364Y-82099500D01*
X106610500Y-82048543D01*
X106610500Y-81851456D01*
X106572052Y-81658170D01*
X106572051Y-81658169D01*
X106572051Y-81658165D01*
X106544334Y-81591249D01*
X106496635Y-81476092D01*
X106496628Y-81476079D01*
X106387139Y-81312218D01*
X106387136Y-81312214D01*
X106247785Y-81172863D01*
X106247781Y-81172860D01*
X106083920Y-81063371D01*
X106083907Y-81063364D01*
X105901839Y-80987950D01*
X105901829Y-80987947D01*
X105708543Y-80949500D01*
X105708541Y-80949500D01*
X105511459Y-80949500D01*
X105511457Y-80949500D01*
X105318170Y-80987947D01*
X105318160Y-80987950D01*
X105136092Y-81063364D01*
X105136079Y-81063371D01*
X104972218Y-81172860D01*
X104972214Y-81172863D01*
X104832863Y-81312214D01*
X104832860Y-81312218D01*
X104723371Y-81476079D01*
X104723364Y-81476092D01*
X104647950Y-81658160D01*
X104647947Y-81658170D01*
X104609500Y-81851456D01*
X104609500Y-81851459D01*
X104609500Y-82048541D01*
X104609500Y-82048543D01*
X104609499Y-82048543D01*
X91370500Y-82048543D01*
X91370500Y-81851456D01*
X91332052Y-81658170D01*
X91332051Y-81658169D01*
X91332051Y-81658165D01*
X91304334Y-81591249D01*
X91256635Y-81476092D01*
X91256628Y-81476079D01*
X91147139Y-81312218D01*
X91147136Y-81312214D01*
X91007785Y-81172863D01*
X91007781Y-81172860D01*
X90843920Y-81063371D01*
X90843907Y-81063364D01*
X90661839Y-80987950D01*
X90661829Y-80987947D01*
X90468543Y-80949500D01*
X90468541Y-80949500D01*
X90271459Y-80949500D01*
X90271457Y-80949500D01*
X90078170Y-80987947D01*
X90078160Y-80987950D01*
X89896092Y-81063364D01*
X89896079Y-81063371D01*
X89732218Y-81172860D01*
X89732214Y-81172863D01*
X89592863Y-81312214D01*
X89592860Y-81312218D01*
X89483371Y-81476079D01*
X89483364Y-81476092D01*
X89407950Y-81658160D01*
X89407947Y-81658170D01*
X89369500Y-81851456D01*
X89369500Y-81851459D01*
X89369500Y-82048541D01*
X89369500Y-82048543D01*
X89369499Y-82048543D01*
X70836521Y-82048543D01*
X70788626Y-82016541D01*
X70702598Y-81959059D01*
X70699510Y-81957780D01*
X70511420Y-81879870D01*
X70511412Y-81879868D01*
X70308469Y-81839500D01*
X70308465Y-81839500D01*
X69851535Y-81839500D01*
X69851530Y-81839500D01*
X69648587Y-81879868D01*
X69648579Y-81879870D01*
X69457403Y-81959058D01*
X69285342Y-82074024D01*
X69139024Y-82220342D01*
X69024058Y-82392403D01*
X68944870Y-82583579D01*
X68944868Y-82583587D01*
X68904500Y-82786530D01*
X65500500Y-82786530D01*
X65500500Y-80286530D01*
X68904500Y-80286530D01*
X68904500Y-80493469D01*
X68944868Y-80696412D01*
X68944870Y-80696420D01*
X69024059Y-80887598D01*
X69065420Y-80949500D01*
X69139024Y-81059657D01*
X69285342Y-81205975D01*
X69285345Y-81205977D01*
X69457402Y-81320941D01*
X69648580Y-81400130D01*
X69851530Y-81440499D01*
X69851534Y-81440500D01*
X69851535Y-81440500D01*
X70308466Y-81440500D01*
X70308467Y-81440499D01*
X70511420Y-81400130D01*
X70702598Y-81320941D01*
X70874655Y-81205977D01*
X71020977Y-81059655D01*
X71135941Y-80887598D01*
X71215130Y-80696420D01*
X71255500Y-80493465D01*
X71255500Y-80286535D01*
X71215130Y-80083580D01*
X71205726Y-80060876D01*
X72456500Y-80060876D01*
X72456500Y-80899123D01*
X72471467Y-81012801D01*
X72471467Y-81012802D01*
X72530060Y-81154258D01*
X72530061Y-81154259D01*
X72623269Y-81275731D01*
X72744741Y-81368939D01*
X72886198Y-81427533D01*
X72999884Y-81442500D01*
X72999891Y-81442500D01*
X74600109Y-81442500D01*
X74600116Y-81442500D01*
X74713802Y-81427533D01*
X74855259Y-81368939D01*
X74976731Y-81275731D01*
X75069939Y-81154259D01*
X75128533Y-81012802D01*
X75143500Y-80899116D01*
X75143500Y-80060884D01*
X75143499Y-80060876D01*
X85156500Y-80060876D01*
X85156500Y-80899123D01*
X85171467Y-81012801D01*
X85171467Y-81012802D01*
X85230060Y-81154258D01*
X85230061Y-81154259D01*
X85323269Y-81275731D01*
X85444741Y-81368939D01*
X85586198Y-81427533D01*
X85699884Y-81442500D01*
X85699891Y-81442500D01*
X87300109Y-81442500D01*
X87300116Y-81442500D01*
X87413802Y-81427533D01*
X87555259Y-81368939D01*
X87676731Y-81275731D01*
X87769939Y-81154259D01*
X87828533Y-81012802D01*
X87843500Y-80899116D01*
X87843500Y-80727743D01*
X92420299Y-80727743D01*
X92458747Y-80921029D01*
X92458750Y-80921039D01*
X92534164Y-81103107D01*
X92534171Y-81103120D01*
X92643660Y-81266981D01*
X92643663Y-81266985D01*
X92783014Y-81406336D01*
X92783018Y-81406339D01*
X92946879Y-81515828D01*
X92946892Y-81515835D01*
X93128960Y-81591249D01*
X93128965Y-81591251D01*
X93128969Y-81591251D01*
X93128970Y-81591252D01*
X93322256Y-81629700D01*
X93322259Y-81629700D01*
X93519343Y-81629700D01*
X93649382Y-81603832D01*
X93712635Y-81591251D01*
X93894714Y-81515832D01*
X94058582Y-81406339D01*
X94197939Y-81266982D01*
X94307432Y-81103114D01*
X94382851Y-80921035D01*
X94394992Y-80860000D01*
X94407177Y-80798744D01*
X94407177Y-80798743D01*
X94421299Y-80727745D01*
X94421300Y-80727743D01*
X94421300Y-80530656D01*
X94382852Y-80337370D01*
X94382851Y-80337369D01*
X94382851Y-80337365D01*
X94320625Y-80187136D01*
X94307435Y-80155292D01*
X94307428Y-80155279D01*
X94197939Y-79991418D01*
X94197936Y-79991414D01*
X94058585Y-79852063D01*
X94058581Y-79852060D01*
X93894720Y-79742571D01*
X93894707Y-79742564D01*
X93712639Y-79667150D01*
X93712629Y-79667147D01*
X93519343Y-79628700D01*
X93519341Y-79628700D01*
X93322259Y-79628700D01*
X93322257Y-79628700D01*
X93128970Y-79667147D01*
X93128960Y-79667150D01*
X92946892Y-79742564D01*
X92946879Y-79742571D01*
X92783018Y-79852060D01*
X92783014Y-79852063D01*
X92643663Y-79991414D01*
X92643660Y-79991418D01*
X92534171Y-80155279D01*
X92534164Y-80155292D01*
X92458750Y-80337360D01*
X92458747Y-80337370D01*
X92420300Y-80530656D01*
X92420300Y-80530659D01*
X92420300Y-80727741D01*
X92420300Y-80727743D01*
X92420299Y-80727743D01*
X87843500Y-80727743D01*
X87843500Y-80060884D01*
X87828533Y-79947198D01*
X87769939Y-79805741D01*
X87676731Y-79684269D01*
X87555259Y-79591061D01*
X87555258Y-79591060D01*
X87472395Y-79556737D01*
X87413802Y-79532467D01*
X87399591Y-79530596D01*
X87300123Y-79517500D01*
X87300116Y-79517500D01*
X85699884Y-79517500D01*
X85699876Y-79517500D01*
X85586198Y-79532467D01*
X85586197Y-79532467D01*
X85444741Y-79591060D01*
X85323269Y-79684269D01*
X85230060Y-79805741D01*
X85171467Y-79947197D01*
X85171467Y-79947198D01*
X85156500Y-80060876D01*
X75143499Y-80060876D01*
X75128533Y-79947198D01*
X75069939Y-79805741D01*
X74976731Y-79684269D01*
X74855259Y-79591061D01*
X74855258Y-79591060D01*
X74772395Y-79556737D01*
X74713802Y-79532467D01*
X74699591Y-79530596D01*
X74600123Y-79517500D01*
X74600116Y-79517500D01*
X72999884Y-79517500D01*
X72999876Y-79517500D01*
X72886198Y-79532467D01*
X72886197Y-79532467D01*
X72744741Y-79591060D01*
X72623269Y-79684269D01*
X72530060Y-79805741D01*
X72471467Y-79947197D01*
X72471467Y-79947198D01*
X72456500Y-80060876D01*
X71205726Y-80060876D01*
X71135941Y-79892402D01*
X71020977Y-79720345D01*
X71020975Y-79720342D01*
X70874657Y-79574024D01*
X70788626Y-79516541D01*
X70776656Y-79508543D01*
X89369499Y-79508543D01*
X89407947Y-79701829D01*
X89407950Y-79701839D01*
X89483364Y-79883907D01*
X89483371Y-79883920D01*
X89592860Y-80047781D01*
X89592863Y-80047785D01*
X89732214Y-80187136D01*
X89732218Y-80187139D01*
X89896079Y-80296628D01*
X89896092Y-80296635D01*
X90049071Y-80360000D01*
X90078165Y-80372051D01*
X90078169Y-80372051D01*
X90078170Y-80372052D01*
X90271456Y-80410500D01*
X90271459Y-80410500D01*
X90468543Y-80410500D01*
X90506499Y-80402950D01*
X90611243Y-80382114D01*
X90661835Y-80372051D01*
X90843914Y-80296632D01*
X91007782Y-80187139D01*
X91147139Y-80047782D01*
X91256632Y-79883914D01*
X91332051Y-79701835D01*
X91356232Y-79580272D01*
X91370500Y-79508543D01*
X104609499Y-79508543D01*
X104647947Y-79701829D01*
X104647950Y-79701839D01*
X104723364Y-79883907D01*
X104723371Y-79883920D01*
X104832860Y-80047781D01*
X104832863Y-80047785D01*
X104972214Y-80187136D01*
X104972218Y-80187139D01*
X105136079Y-80296628D01*
X105136092Y-80296635D01*
X105289071Y-80360000D01*
X105318165Y-80372051D01*
X105318169Y-80372051D01*
X105318170Y-80372052D01*
X105511456Y-80410500D01*
X105511459Y-80410500D01*
X105708543Y-80410500D01*
X105838582Y-80384632D01*
X105901835Y-80372051D01*
X105930929Y-80360000D01*
X124752769Y-80360000D01*
X125646988Y-80360000D01*
X125614075Y-80417007D01*
X125580000Y-80544174D01*
X125580000Y-80675826D01*
X125614075Y-80802993D01*
X125646988Y-80860000D01*
X124752769Y-80860000D01*
X124763242Y-80926126D01*
X124763242Y-80926129D01*
X124828904Y-81128217D01*
X124925379Y-81317557D01*
X125050272Y-81489459D01*
X125050276Y-81489464D01*
X125200535Y-81639723D01*
X125200540Y-81639727D01*
X125372442Y-81764620D01*
X125561782Y-81861095D01*
X125737973Y-81918343D01*
X125795648Y-81957780D01*
X125822847Y-82022139D01*
X125810932Y-82090985D01*
X125763688Y-82142461D01*
X125747108Y-82150835D01*
X125582403Y-82219057D01*
X125410342Y-82334024D01*
X125264024Y-82480342D01*
X125149058Y-82652403D01*
X125069870Y-82843579D01*
X125069868Y-82843587D01*
X125029500Y-83046530D01*
X125029500Y-83253469D01*
X125069868Y-83456412D01*
X125069870Y-83456420D01*
X125149058Y-83647596D01*
X125264024Y-83819657D01*
X125410342Y-83965975D01*
X125410345Y-83965977D01*
X125582402Y-84080941D01*
X125773580Y-84160130D01*
X125964771Y-84198160D01*
X125976530Y-84200499D01*
X125976534Y-84200500D01*
X125976535Y-84200500D01*
X126183466Y-84200500D01*
X126183467Y-84200499D01*
X126386420Y-84160130D01*
X126577598Y-84080941D01*
X126749655Y-83965977D01*
X126895977Y-83819655D01*
X127010941Y-83647598D01*
X127090130Y-83456420D01*
X127130500Y-83253465D01*
X127130500Y-83046535D01*
X127090130Y-82843580D01*
X127010941Y-82652402D01*
X126895977Y-82480345D01*
X126895975Y-82480342D01*
X126749657Y-82334024D01*
X126585395Y-82224269D01*
X126577598Y-82219059D01*
X126577593Y-82219057D01*
X126456021Y-82168700D01*
X126412890Y-82150834D01*
X126358488Y-82106994D01*
X126336423Y-82040700D01*
X126353702Y-81973001D01*
X126404839Y-81925390D01*
X126422026Y-81918343D01*
X126598217Y-81861095D01*
X126787557Y-81764620D01*
X126959459Y-81639727D01*
X126959464Y-81639723D01*
X127109723Y-81489464D01*
X127109727Y-81489459D01*
X127234620Y-81317557D01*
X127331095Y-81128217D01*
X127396757Y-80926129D01*
X127396757Y-80926126D01*
X127407231Y-80860000D01*
X126513012Y-80860000D01*
X126545925Y-80802993D01*
X126580000Y-80675826D01*
X126580000Y-80544174D01*
X126545925Y-80417007D01*
X126513012Y-80360000D01*
X127407231Y-80360000D01*
X127396757Y-80293873D01*
X127396757Y-80293870D01*
X127331095Y-80091782D01*
X127234620Y-79902442D01*
X127109727Y-79730540D01*
X127109723Y-79730535D01*
X126959464Y-79580276D01*
X126959459Y-79580272D01*
X126787557Y-79455379D01*
X126598216Y-79358904D01*
X126422026Y-79301656D01*
X126364350Y-79262218D01*
X126337152Y-79197860D01*
X126349067Y-79129013D01*
X126396311Y-79077538D01*
X126412882Y-79069168D01*
X126577598Y-79000941D01*
X126749655Y-78885977D01*
X126895977Y-78739655D01*
X127010941Y-78567598D01*
X127090130Y-78376420D01*
X127130500Y-78173465D01*
X127130500Y-77966535D01*
X127090130Y-77763580D01*
X127010941Y-77572402D01*
X126895977Y-77400345D01*
X126895975Y-77400342D01*
X126749657Y-77254024D01*
X126611676Y-77161829D01*
X126577598Y-77139059D01*
X126484103Y-77100332D01*
X126386420Y-77059870D01*
X126386412Y-77059868D01*
X126183469Y-77019500D01*
X126183465Y-77019500D01*
X125976535Y-77019500D01*
X125976530Y-77019500D01*
X125773587Y-77059868D01*
X125773579Y-77059870D01*
X125582403Y-77139058D01*
X125410342Y-77254024D01*
X125264024Y-77400342D01*
X125149058Y-77572403D01*
X125069870Y-77763579D01*
X125069868Y-77763587D01*
X125029500Y-77966530D01*
X125029500Y-78173469D01*
X125069868Y-78376412D01*
X125069870Y-78376420D01*
X125149058Y-78567596D01*
X125264024Y-78739657D01*
X125410342Y-78885975D01*
X125582405Y-79000943D01*
X125661614Y-79033752D01*
X125747108Y-79069164D01*
X125801511Y-79113005D01*
X125823576Y-79179299D01*
X125806297Y-79246998D01*
X125755160Y-79294609D01*
X125737974Y-79301656D01*
X125561781Y-79358905D01*
X125372442Y-79455379D01*
X125200540Y-79580272D01*
X125200535Y-79580276D01*
X125050276Y-79730535D01*
X125050272Y-79730540D01*
X124925379Y-79902442D01*
X124828904Y-80091782D01*
X124763242Y-80293870D01*
X124763242Y-80293873D01*
X124752769Y-80360000D01*
X105930929Y-80360000D01*
X106083914Y-80296632D01*
X106083921Y-80296626D01*
X106083925Y-80296625D01*
X106087907Y-80293964D01*
X106087911Y-80293962D01*
X106213716Y-80209901D01*
X106247782Y-80187139D01*
X106387139Y-80047782D01*
X106496632Y-79883914D01*
X106572051Y-79701835D01*
X106596232Y-79580272D01*
X106610500Y-79508543D01*
X106610500Y-79311456D01*
X106572052Y-79118170D01*
X106572051Y-79118169D01*
X106572051Y-79118165D01*
X106556297Y-79080130D01*
X106496635Y-78936092D01*
X106496628Y-78936079D01*
X106387139Y-78772218D01*
X106387136Y-78772214D01*
X106247785Y-78632863D01*
X106247781Y-78632860D01*
X106083920Y-78523371D01*
X106083907Y-78523364D01*
X105901839Y-78447950D01*
X105901829Y-78447947D01*
X105708543Y-78409500D01*
X105708541Y-78409500D01*
X105511459Y-78409500D01*
X105511457Y-78409500D01*
X105318170Y-78447947D01*
X105318160Y-78447950D01*
X105136092Y-78523364D01*
X105136079Y-78523371D01*
X104972218Y-78632860D01*
X104972214Y-78632863D01*
X104832863Y-78772214D01*
X104832860Y-78772218D01*
X104723371Y-78936079D01*
X104723364Y-78936092D01*
X104647950Y-79118160D01*
X104647947Y-79118170D01*
X104609500Y-79311456D01*
X104609500Y-79311459D01*
X104609500Y-79508541D01*
X104609500Y-79508543D01*
X104609499Y-79508543D01*
X91370500Y-79508543D01*
X91370500Y-79311456D01*
X91332052Y-79118170D01*
X91332051Y-79118169D01*
X91332051Y-79118165D01*
X91316297Y-79080130D01*
X91256635Y-78936092D01*
X91256628Y-78936079D01*
X91147139Y-78772218D01*
X91147136Y-78772214D01*
X91007785Y-78632863D01*
X91007781Y-78632860D01*
X90843920Y-78523371D01*
X90843907Y-78523364D01*
X90661839Y-78447950D01*
X90661829Y-78447947D01*
X90468543Y-78409500D01*
X90468541Y-78409500D01*
X90271459Y-78409500D01*
X90271457Y-78409500D01*
X90078170Y-78447947D01*
X90078160Y-78447950D01*
X89896092Y-78523364D01*
X89896079Y-78523371D01*
X89732218Y-78632860D01*
X89732214Y-78632863D01*
X89592863Y-78772214D01*
X89592860Y-78772218D01*
X89483371Y-78936079D01*
X89483364Y-78936092D01*
X89407950Y-79118160D01*
X89407947Y-79118170D01*
X89369500Y-79311456D01*
X89369500Y-79311459D01*
X89369500Y-79508541D01*
X89369500Y-79508543D01*
X89369499Y-79508543D01*
X70776656Y-79508543D01*
X70702598Y-79459059D01*
X70511420Y-79379870D01*
X70511412Y-79379868D01*
X70308469Y-79339500D01*
X70308465Y-79339500D01*
X69851535Y-79339500D01*
X69851530Y-79339500D01*
X69648587Y-79379868D01*
X69648579Y-79379870D01*
X69457403Y-79459058D01*
X69285342Y-79574024D01*
X69139024Y-79720342D01*
X69024058Y-79892403D01*
X68944870Y-80083579D01*
X68944868Y-80083587D01*
X68904500Y-80286530D01*
X65500500Y-80286530D01*
X65500500Y-77235730D01*
X68904500Y-77235730D01*
X68904500Y-78544269D01*
X68907353Y-78574699D01*
X68907353Y-78574701D01*
X68952206Y-78702880D01*
X68952207Y-78702882D01*
X69032850Y-78812150D01*
X69142118Y-78892793D01*
X69169859Y-78902500D01*
X69270299Y-78937646D01*
X69300730Y-78940500D01*
X69300734Y-78940500D01*
X70859270Y-78940500D01*
X70889699Y-78937646D01*
X70889701Y-78937646D01*
X70953790Y-78915219D01*
X71017882Y-78892793D01*
X71127150Y-78812150D01*
X71207793Y-78702882D01*
X71232295Y-78632860D01*
X71252646Y-78574701D01*
X71252646Y-78574699D01*
X71255500Y-78544269D01*
X71255500Y-77520876D01*
X72456500Y-77520876D01*
X72456500Y-78359123D01*
X72471467Y-78472801D01*
X72471467Y-78472802D01*
X72530060Y-78614258D01*
X72530061Y-78614259D01*
X72623269Y-78735731D01*
X72744741Y-78828939D01*
X72886198Y-78887533D01*
X72999884Y-78902500D01*
X72999891Y-78902500D01*
X74600109Y-78902500D01*
X74600116Y-78902500D01*
X74713802Y-78887533D01*
X74855259Y-78828939D01*
X74976731Y-78735731D01*
X75069939Y-78614259D01*
X75128533Y-78472802D01*
X75143500Y-78359116D01*
X75143500Y-77520884D01*
X75143499Y-77520876D01*
X85156500Y-77520876D01*
X85156500Y-78359123D01*
X85171467Y-78472801D01*
X85171467Y-78472802D01*
X85230060Y-78614258D01*
X85230061Y-78614259D01*
X85323269Y-78735731D01*
X85444741Y-78828939D01*
X85586198Y-78887533D01*
X85699884Y-78902500D01*
X85699891Y-78902500D01*
X87300109Y-78902500D01*
X87300116Y-78902500D01*
X87413802Y-78887533D01*
X87555259Y-78828939D01*
X87676731Y-78735731D01*
X87769939Y-78614259D01*
X87828533Y-78472802D01*
X87843500Y-78359116D01*
X87843500Y-77520884D01*
X87828533Y-77407198D01*
X87769939Y-77265741D01*
X87676731Y-77144269D01*
X87555259Y-77051061D01*
X87555258Y-77051060D01*
X87472395Y-77016737D01*
X87413802Y-76992467D01*
X87399591Y-76990596D01*
X87300123Y-76977500D01*
X87300116Y-76977500D01*
X85699884Y-76977500D01*
X85699876Y-76977500D01*
X85586198Y-76992467D01*
X85586197Y-76992467D01*
X85444741Y-77051060D01*
X85323269Y-77144269D01*
X85230060Y-77265741D01*
X85171467Y-77407197D01*
X85171467Y-77407198D01*
X85156500Y-77520876D01*
X75143499Y-77520876D01*
X75128533Y-77407198D01*
X75069939Y-77265741D01*
X74976731Y-77144269D01*
X74855259Y-77051061D01*
X74855258Y-77051060D01*
X74772395Y-77016737D01*
X74713802Y-76992467D01*
X74699591Y-76990596D01*
X74600123Y-76977500D01*
X74600116Y-76977500D01*
X72999884Y-76977500D01*
X72999876Y-76977500D01*
X72886198Y-76992467D01*
X72886197Y-76992467D01*
X72744741Y-77051060D01*
X72623269Y-77144269D01*
X72530060Y-77265741D01*
X72471467Y-77407197D01*
X72471467Y-77407198D01*
X72456500Y-77520876D01*
X71255500Y-77520876D01*
X71255500Y-77235730D01*
X71252646Y-77205300D01*
X71252646Y-77205298D01*
X71215916Y-77100332D01*
X71207793Y-77077118D01*
X71127661Y-76968543D01*
X89369499Y-76968543D01*
X89407947Y-77161829D01*
X89407950Y-77161839D01*
X89483364Y-77343907D01*
X89483371Y-77343920D01*
X89592860Y-77507781D01*
X89592863Y-77507785D01*
X89732214Y-77647136D01*
X89732218Y-77647139D01*
X89896079Y-77756628D01*
X89896092Y-77756635D01*
X90078160Y-77832049D01*
X90078165Y-77832051D01*
X90078169Y-77832051D01*
X90078170Y-77832052D01*
X90271456Y-77870500D01*
X90271459Y-77870500D01*
X90468543Y-77870500D01*
X90598582Y-77844632D01*
X90661835Y-77832051D01*
X90843914Y-77756632D01*
X91007782Y-77647139D01*
X91147139Y-77507782D01*
X91256632Y-77343914D01*
X91287475Y-77269452D01*
X91287477Y-77269447D01*
X92420300Y-77269447D01*
X92420300Y-78908952D01*
X92431931Y-78967429D01*
X92431932Y-78967430D01*
X92476247Y-79033752D01*
X92542569Y-79078067D01*
X92542570Y-79078068D01*
X92601047Y-79089699D01*
X92601050Y-79089700D01*
X92601052Y-79089700D01*
X94240550Y-79089700D01*
X94240551Y-79089699D01*
X94255368Y-79086752D01*
X94299029Y-79078068D01*
X94299029Y-79078067D01*
X94299031Y-79078067D01*
X94365352Y-79033752D01*
X94409667Y-78967431D01*
X94409667Y-78967429D01*
X94409668Y-78967429D01*
X94421299Y-78908952D01*
X94421300Y-78908950D01*
X94421300Y-77269449D01*
X94421299Y-77269447D01*
X94409668Y-77210970D01*
X94409667Y-77210969D01*
X94365352Y-77144647D01*
X94299030Y-77100332D01*
X94299029Y-77100331D01*
X94240552Y-77088700D01*
X94240548Y-77088700D01*
X92601052Y-77088700D01*
X92601047Y-77088700D01*
X92542570Y-77100331D01*
X92542569Y-77100332D01*
X92476247Y-77144647D01*
X92431932Y-77210969D01*
X92431931Y-77210970D01*
X92420300Y-77269447D01*
X91287477Y-77269447D01*
X91309654Y-77215908D01*
X91332049Y-77161839D01*
X91332051Y-77161835D01*
X91348902Y-77077119D01*
X91370500Y-76968543D01*
X91370500Y-76771456D01*
X91332052Y-76578170D01*
X91332051Y-76578169D01*
X91332051Y-76578165D01*
X91332049Y-76578160D01*
X91256635Y-76396092D01*
X91256628Y-76396079D01*
X91147139Y-76232218D01*
X91147136Y-76232214D01*
X91007785Y-76092863D01*
X91007781Y-76092860D01*
X90843920Y-75983371D01*
X90843907Y-75983364D01*
X90661839Y-75907950D01*
X90661829Y-75907947D01*
X90468543Y-75869500D01*
X90468541Y-75869500D01*
X90271459Y-75869500D01*
X90271457Y-75869500D01*
X90078170Y-75907947D01*
X90078160Y-75907950D01*
X89896092Y-75983364D01*
X89896079Y-75983371D01*
X89732218Y-76092860D01*
X89732214Y-76092863D01*
X89592863Y-76232214D01*
X89592860Y-76232218D01*
X89483371Y-76396079D01*
X89483364Y-76396092D01*
X89407950Y-76578160D01*
X89407947Y-76578170D01*
X89369500Y-76771456D01*
X89369500Y-76771459D01*
X89369500Y-76968541D01*
X89369500Y-76968543D01*
X89369499Y-76968543D01*
X71127661Y-76968543D01*
X71127150Y-76967850D01*
X71017882Y-76887207D01*
X71017880Y-76887206D01*
X71004167Y-76882408D01*
X70889700Y-76842353D01*
X70859270Y-76839500D01*
X70859266Y-76839500D01*
X69300734Y-76839500D01*
X69300730Y-76839500D01*
X69270300Y-76842353D01*
X69270298Y-76842353D01*
X69142119Y-76887206D01*
X69142117Y-76887207D01*
X69032850Y-76967850D01*
X68952207Y-77077117D01*
X68952206Y-77077119D01*
X68907353Y-77205298D01*
X68907353Y-77205300D01*
X68904500Y-77235730D01*
X65500500Y-77235730D01*
X65500500Y-74980876D01*
X72456500Y-74980876D01*
X72456500Y-75819123D01*
X72471467Y-75932801D01*
X72471467Y-75932802D01*
X72530060Y-76074258D01*
X72530061Y-76074259D01*
X72623269Y-76195731D01*
X72744741Y-76288939D01*
X72886198Y-76347533D01*
X72999884Y-76362500D01*
X72999891Y-76362500D01*
X74600109Y-76362500D01*
X74600116Y-76362500D01*
X74713802Y-76347533D01*
X74855259Y-76288939D01*
X74976731Y-76195731D01*
X75069939Y-76074259D01*
X75128533Y-75932802D01*
X75143500Y-75819116D01*
X75143500Y-74980884D01*
X75143499Y-74980876D01*
X85156500Y-74980876D01*
X85156500Y-75819123D01*
X85171467Y-75932801D01*
X85171467Y-75932802D01*
X85230060Y-76074258D01*
X85230061Y-76074259D01*
X85323269Y-76195731D01*
X85444741Y-76288939D01*
X85586198Y-76347533D01*
X85699884Y-76362500D01*
X85699891Y-76362500D01*
X87300109Y-76362500D01*
X87300116Y-76362500D01*
X87413802Y-76347533D01*
X87555259Y-76288939D01*
X87676731Y-76195731D01*
X87769939Y-76074259D01*
X87828533Y-75932802D01*
X87843500Y-75819116D01*
X87843500Y-74980884D01*
X87828533Y-74867198D01*
X87769939Y-74725741D01*
X87676731Y-74604269D01*
X87555259Y-74511061D01*
X87555258Y-74511060D01*
X87472395Y-74476737D01*
X87413802Y-74452467D01*
X87399591Y-74450596D01*
X87300123Y-74437500D01*
X87300116Y-74437500D01*
X85699884Y-74437500D01*
X85699876Y-74437500D01*
X85586198Y-74452467D01*
X85586197Y-74452467D01*
X85444741Y-74511060D01*
X85323269Y-74604269D01*
X85230060Y-74725741D01*
X85171467Y-74867197D01*
X85171467Y-74867198D01*
X85156500Y-74980876D01*
X75143499Y-74980876D01*
X75128533Y-74867198D01*
X75069939Y-74725741D01*
X74976731Y-74604269D01*
X74855259Y-74511061D01*
X74855258Y-74511060D01*
X74772395Y-74476737D01*
X74713802Y-74452467D01*
X74699591Y-74450596D01*
X74600123Y-74437500D01*
X74600116Y-74437500D01*
X72999884Y-74437500D01*
X72999876Y-74437500D01*
X72886198Y-74452467D01*
X72886197Y-74452467D01*
X72744741Y-74511060D01*
X72623269Y-74604269D01*
X72530060Y-74725741D01*
X72471467Y-74867197D01*
X72471467Y-74867198D01*
X72456500Y-74980876D01*
X65500500Y-74980876D01*
X65500500Y-72402395D01*
X72157000Y-72402395D01*
X72157000Y-73317605D01*
X72157001Y-73317609D01*
X72159917Y-73360632D01*
X72159917Y-73360634D01*
X72206165Y-73546602D01*
X72291307Y-73718275D01*
X72411364Y-73867631D01*
X72426582Y-73879864D01*
X73210439Y-73096008D01*
X73237271Y-73160785D01*
X73306764Y-73264789D01*
X73395211Y-73353236D01*
X73499215Y-73422729D01*
X73563990Y-73449560D01*
X72899227Y-74114322D01*
X72918365Y-74119081D01*
X72961395Y-74121999D01*
X74638605Y-74121999D01*
X74638609Y-74121998D01*
X74681634Y-74119082D01*
X74700771Y-74114323D01*
X74700771Y-74114322D01*
X74036008Y-73449560D01*
X74100785Y-73422729D01*
X74204789Y-73353236D01*
X74293236Y-73264789D01*
X74362729Y-73160785D01*
X74389560Y-73096008D01*
X75173416Y-73879864D01*
X75173417Y-73879864D01*
X75188631Y-73867635D01*
X75308693Y-73718272D01*
X75393834Y-73546602D01*
X75440081Y-73360640D01*
X75442999Y-73317604D01*
X75442999Y-72440876D01*
X85156500Y-72440876D01*
X85156500Y-73279123D01*
X85171467Y-73392801D01*
X85171467Y-73392802D01*
X85230060Y-73534258D01*
X85230061Y-73534259D01*
X85323269Y-73655731D01*
X85444741Y-73748939D01*
X85586198Y-73807533D01*
X85699884Y-73822500D01*
X85699891Y-73822500D01*
X87300109Y-73822500D01*
X87300116Y-73822500D01*
X87413802Y-73807533D01*
X87555259Y-73748939D01*
X87676731Y-73655731D01*
X87769939Y-73534259D01*
X87828533Y-73392802D01*
X87843500Y-73279116D01*
X87843500Y-72440884D01*
X87828533Y-72327198D01*
X87769939Y-72185741D01*
X87676731Y-72064269D01*
X87645103Y-72040000D01*
X87555258Y-71971060D01*
X87472395Y-71936737D01*
X87413802Y-71912467D01*
X87399591Y-71910596D01*
X87300123Y-71897500D01*
X87300116Y-71897500D01*
X85699884Y-71897500D01*
X85699876Y-71897500D01*
X85586198Y-71912467D01*
X85586197Y-71912467D01*
X85444741Y-71971060D01*
X85323269Y-72064269D01*
X85230060Y-72185741D01*
X85171467Y-72327197D01*
X85171467Y-72327198D01*
X85156500Y-72440876D01*
X75442999Y-72440876D01*
X75442999Y-72402394D01*
X75442998Y-72402390D01*
X75440082Y-72359367D01*
X75440082Y-72359365D01*
X75393834Y-72173397D01*
X75308692Y-72001724D01*
X75188636Y-71852368D01*
X75188631Y-71852363D01*
X75173417Y-71840134D01*
X74389560Y-72623990D01*
X74362729Y-72559215D01*
X74293236Y-72455211D01*
X74204789Y-72366764D01*
X74100785Y-72297271D01*
X74036008Y-72270439D01*
X74700770Y-71605676D01*
X74681637Y-71600918D01*
X74638604Y-71598000D01*
X72961394Y-71598000D01*
X72961390Y-71598001D01*
X72918370Y-71600917D01*
X72918367Y-71600917D01*
X72899228Y-71605676D01*
X73563991Y-72270439D01*
X73499215Y-72297271D01*
X73395211Y-72366764D01*
X73306764Y-72455211D01*
X73237271Y-72559215D01*
X73210439Y-72623991D01*
X72426581Y-71840133D01*
X72411370Y-71852362D01*
X72411362Y-71852369D01*
X72291307Y-72001724D01*
X72206165Y-72173397D01*
X72159918Y-72359359D01*
X72157000Y-72402395D01*
X65500500Y-72402395D01*
X65500500Y-70942155D01*
X89070000Y-70942155D01*
X89070000Y-71540000D01*
X89879252Y-71540000D01*
X89857482Y-71577708D01*
X89820000Y-71717591D01*
X89820000Y-71862409D01*
X89857482Y-72002292D01*
X89879252Y-72040000D01*
X89070000Y-72040000D01*
X89070000Y-72637844D01*
X89076401Y-72697372D01*
X89076403Y-72697379D01*
X89126645Y-72832086D01*
X89126649Y-72832093D01*
X89212809Y-72947187D01*
X89212812Y-72947190D01*
X89327906Y-73033350D01*
X89327913Y-73033354D01*
X89462620Y-73083596D01*
X89462627Y-73083598D01*
X89522155Y-73089999D01*
X89522172Y-73090000D01*
X90216513Y-73090000D01*
X90283552Y-73109685D01*
X90329307Y-73162489D01*
X90339251Y-73231647D01*
X90310226Y-73295203D01*
X90251448Y-73332977D01*
X90240705Y-73335617D01*
X90078170Y-73367947D01*
X90078160Y-73367950D01*
X89896092Y-73443364D01*
X89896079Y-73443371D01*
X89732218Y-73552860D01*
X89732214Y-73552863D01*
X89592863Y-73692214D01*
X89592860Y-73692218D01*
X89483371Y-73856079D01*
X89483364Y-73856092D01*
X89407950Y-74038160D01*
X89407947Y-74038170D01*
X89369500Y-74231456D01*
X89369500Y-74231459D01*
X89369500Y-74428541D01*
X89369500Y-74428543D01*
X89369499Y-74428543D01*
X89407947Y-74621829D01*
X89407950Y-74621839D01*
X89483364Y-74803907D01*
X89483371Y-74803920D01*
X89592860Y-74967781D01*
X89592863Y-74967785D01*
X89732214Y-75107136D01*
X89732218Y-75107139D01*
X89896079Y-75216628D01*
X89896092Y-75216635D01*
X90078160Y-75292049D01*
X90078165Y-75292051D01*
X90078169Y-75292051D01*
X90078170Y-75292052D01*
X90271456Y-75330500D01*
X90271459Y-75330500D01*
X90468543Y-75330500D01*
X90598582Y-75304632D01*
X90661835Y-75292051D01*
X90843914Y-75216632D01*
X91007782Y-75107139D01*
X91147139Y-74967782D01*
X91256632Y-74803914D01*
X91332051Y-74621835D01*
X91370500Y-74428543D01*
X102069499Y-74428543D01*
X102107947Y-74621829D01*
X102107950Y-74621839D01*
X102183364Y-74803907D01*
X102183371Y-74803920D01*
X102292860Y-74967781D01*
X102292863Y-74967785D01*
X102432214Y-75107136D01*
X102432218Y-75107139D01*
X102596079Y-75216628D01*
X102596092Y-75216635D01*
X102778160Y-75292049D01*
X102778165Y-75292051D01*
X102778169Y-75292051D01*
X102778170Y-75292052D01*
X102971456Y-75330500D01*
X102971459Y-75330500D01*
X103168543Y-75330500D01*
X103298582Y-75304632D01*
X103361835Y-75292051D01*
X103543914Y-75216632D01*
X103707782Y-75107139D01*
X103847139Y-74967782D01*
X103956632Y-74803914D01*
X104032051Y-74621835D01*
X104068034Y-74440937D01*
X104100419Y-74379027D01*
X104161134Y-74344453D01*
X104230904Y-74348192D01*
X104287576Y-74389059D01*
X104312124Y-74445731D01*
X104342009Y-74634417D01*
X104405244Y-74829031D01*
X104498141Y-75011350D01*
X104498147Y-75011359D01*
X104530523Y-75055921D01*
X104530524Y-75055922D01*
X105086212Y-74500234D01*
X105097482Y-74542292D01*
X105169890Y-74667708D01*
X105272292Y-74770110D01*
X105397708Y-74842518D01*
X105439765Y-74853787D01*
X104884076Y-75409474D01*
X104928650Y-75441859D01*
X105110968Y-75534755D01*
X105305582Y-75597990D01*
X105494268Y-75627875D01*
X105557403Y-75657804D01*
X105594334Y-75717116D01*
X105593336Y-75786978D01*
X105554726Y-75845211D01*
X105499062Y-75871965D01*
X105318170Y-75907947D01*
X105318160Y-75907950D01*
X105136092Y-75983364D01*
X105136079Y-75983371D01*
X104972218Y-76092860D01*
X104972214Y-76092863D01*
X104832863Y-76232214D01*
X104832860Y-76232218D01*
X104723371Y-76396079D01*
X104723364Y-76396092D01*
X104647950Y-76578160D01*
X104647947Y-76578170D01*
X104609500Y-76771456D01*
X104609500Y-76771459D01*
X104609500Y-76968541D01*
X104609500Y-76968543D01*
X104609499Y-76968543D01*
X104647947Y-77161829D01*
X104647950Y-77161839D01*
X104723364Y-77343907D01*
X104723371Y-77343920D01*
X104832860Y-77507781D01*
X104832863Y-77507785D01*
X104972214Y-77647136D01*
X104972218Y-77647139D01*
X105136079Y-77756628D01*
X105136092Y-77756635D01*
X105318160Y-77832049D01*
X105318165Y-77832051D01*
X105318169Y-77832051D01*
X105318170Y-77832052D01*
X105511456Y-77870500D01*
X105511459Y-77870500D01*
X105708543Y-77870500D01*
X105838582Y-77844632D01*
X105901835Y-77832051D01*
X106083914Y-77756632D01*
X106247782Y-77647139D01*
X106387139Y-77507782D01*
X106496632Y-77343914D01*
X106572051Y-77161835D01*
X106588902Y-77077119D01*
X106610500Y-76968543D01*
X106610500Y-76771456D01*
X106572052Y-76578170D01*
X106572051Y-76578169D01*
X106572051Y-76578165D01*
X106572049Y-76578160D01*
X106496635Y-76396092D01*
X106496628Y-76396079D01*
X106387139Y-76232218D01*
X106387136Y-76232214D01*
X106247785Y-76092863D01*
X106247781Y-76092860D01*
X106083920Y-75983371D01*
X106083907Y-75983364D01*
X105901839Y-75907950D01*
X105901829Y-75907947D01*
X105720937Y-75871965D01*
X105659026Y-75839580D01*
X105624452Y-75778864D01*
X105628192Y-75709095D01*
X105669059Y-75652423D01*
X105725731Y-75627875D01*
X105914417Y-75597990D01*
X106109031Y-75534755D01*
X106291349Y-75441859D01*
X106335921Y-75409474D01*
X105780234Y-74853787D01*
X105822292Y-74842518D01*
X105947708Y-74770110D01*
X106050110Y-74667708D01*
X106122518Y-74542292D01*
X106133787Y-74500234D01*
X106689474Y-75055921D01*
X106721859Y-75011349D01*
X106814755Y-74829031D01*
X106877990Y-74634417D01*
X106910000Y-74432317D01*
X106910000Y-74227682D01*
X106877990Y-74025582D01*
X106814755Y-73830968D01*
X106721859Y-73648650D01*
X106689474Y-73604077D01*
X106689474Y-73604076D01*
X106133787Y-74159764D01*
X106122518Y-74117708D01*
X106050110Y-73992292D01*
X105947708Y-73889890D01*
X105822292Y-73817482D01*
X105780233Y-73806212D01*
X106335922Y-73250524D01*
X106335921Y-73250523D01*
X106291359Y-73218147D01*
X106291350Y-73218141D01*
X106109031Y-73125244D01*
X105914417Y-73062009D01*
X105725731Y-73032124D01*
X105662596Y-73002194D01*
X105625665Y-72942883D01*
X105626663Y-72873020D01*
X105665273Y-72814788D01*
X105720938Y-72788034D01*
X105901835Y-72752051D01*
X106083914Y-72676632D01*
X106247782Y-72567139D01*
X106387139Y-72427782D01*
X106496632Y-72263914D01*
X106572051Y-72081835D01*
X106610500Y-71888541D01*
X106610500Y-71691459D01*
X106610500Y-71691456D01*
X106572052Y-71498170D01*
X106572051Y-71498169D01*
X106572051Y-71498165D01*
X106510634Y-71349890D01*
X106496635Y-71316092D01*
X106496628Y-71316079D01*
X106387139Y-71152218D01*
X106387136Y-71152214D01*
X106247785Y-71012863D01*
X106247781Y-71012860D01*
X106083920Y-70903371D01*
X106083907Y-70903364D01*
X105901839Y-70827950D01*
X105901829Y-70827947D01*
X105708543Y-70789500D01*
X105708541Y-70789500D01*
X105511459Y-70789500D01*
X105511457Y-70789500D01*
X105318170Y-70827947D01*
X105318160Y-70827950D01*
X105136092Y-70903364D01*
X105136079Y-70903371D01*
X104972218Y-71012860D01*
X104972214Y-71012863D01*
X104832863Y-71152214D01*
X104832860Y-71152218D01*
X104723371Y-71316079D01*
X104723364Y-71316092D01*
X104647950Y-71498160D01*
X104647947Y-71498170D01*
X104609500Y-71691456D01*
X104609500Y-71691459D01*
X104609500Y-71888541D01*
X104609500Y-71888543D01*
X104609499Y-71888543D01*
X104647947Y-72081829D01*
X104647950Y-72081839D01*
X104723364Y-72263907D01*
X104723371Y-72263920D01*
X104832860Y-72427781D01*
X104832863Y-72427785D01*
X104972214Y-72567136D01*
X104972218Y-72567139D01*
X105136079Y-72676628D01*
X105136092Y-72676635D01*
X105318160Y-72752049D01*
X105318165Y-72752051D01*
X105450674Y-72778409D01*
X105499061Y-72788034D01*
X105560972Y-72820419D01*
X105595546Y-72881134D01*
X105591807Y-72950904D01*
X105550940Y-73007576D01*
X105494269Y-73032124D01*
X105305581Y-73062010D01*
X105110968Y-73125244D01*
X104928644Y-73218143D01*
X104884077Y-73250523D01*
X104884077Y-73250524D01*
X105439766Y-73806212D01*
X105397708Y-73817482D01*
X105272292Y-73889890D01*
X105169890Y-73992292D01*
X105097482Y-74117708D01*
X105086212Y-74159765D01*
X104530524Y-73604077D01*
X104530523Y-73604077D01*
X104498143Y-73648644D01*
X104405244Y-73830968D01*
X104342010Y-74025581D01*
X104312124Y-74214269D01*
X104282194Y-74277403D01*
X104222883Y-74314334D01*
X104153020Y-74313336D01*
X104094788Y-74274726D01*
X104068034Y-74219061D01*
X104048727Y-74121999D01*
X104032051Y-74038165D01*
X104013050Y-73992292D01*
X103956635Y-73856092D01*
X103956628Y-73856079D01*
X103847139Y-73692218D01*
X103847136Y-73692214D01*
X103707785Y-73552863D01*
X103707781Y-73552860D01*
X103543920Y-73443371D01*
X103543907Y-73443364D01*
X103361839Y-73367950D01*
X103361829Y-73367947D01*
X103168543Y-73329500D01*
X103168541Y-73329500D01*
X102971459Y-73329500D01*
X102971457Y-73329500D01*
X102778170Y-73367947D01*
X102778160Y-73367950D01*
X102596092Y-73443364D01*
X102596079Y-73443371D01*
X102432218Y-73552860D01*
X102432214Y-73552863D01*
X102292863Y-73692214D01*
X102292860Y-73692218D01*
X102183371Y-73856079D01*
X102183364Y-73856092D01*
X102107950Y-74038160D01*
X102107947Y-74038170D01*
X102069500Y-74231456D01*
X102069500Y-74231459D01*
X102069500Y-74428541D01*
X102069500Y-74428543D01*
X102069499Y-74428543D01*
X91370500Y-74428543D01*
X91370500Y-74428541D01*
X91370500Y-74231459D01*
X91370500Y-74231456D01*
X91332052Y-74038170D01*
X91332051Y-74038169D01*
X91332051Y-74038165D01*
X91313050Y-73992292D01*
X91256635Y-73856092D01*
X91256628Y-73856079D01*
X91147139Y-73692218D01*
X91147136Y-73692214D01*
X91007785Y-73552863D01*
X91007781Y-73552860D01*
X90843920Y-73443371D01*
X90843907Y-73443364D01*
X90661839Y-73367950D01*
X90661829Y-73367947D01*
X90499295Y-73335617D01*
X90437385Y-73303232D01*
X90402810Y-73242516D01*
X90406550Y-73172747D01*
X90447417Y-73116075D01*
X90512435Y-73090494D01*
X90523487Y-73090000D01*
X91217828Y-73090000D01*
X91217844Y-73089999D01*
X91277372Y-73083598D01*
X91277379Y-73083596D01*
X91412086Y-73033354D01*
X91412093Y-73033350D01*
X91527187Y-72947190D01*
X91527190Y-72947187D01*
X91613350Y-72832093D01*
X91613354Y-72832086D01*
X91663596Y-72697379D01*
X91663598Y-72697372D01*
X91669999Y-72637844D01*
X91670000Y-72637827D01*
X91670000Y-72436228D01*
X95869500Y-72436228D01*
X95869500Y-72603771D01*
X95902182Y-72768074D01*
X95902184Y-72768082D01*
X95966295Y-72922860D01*
X96059373Y-73062162D01*
X96177837Y-73180626D01*
X96227115Y-73213552D01*
X96317137Y-73273703D01*
X96471918Y-73337816D01*
X96623398Y-73367947D01*
X96636228Y-73370499D01*
X96636232Y-73370500D01*
X96636233Y-73370500D01*
X96803768Y-73370500D01*
X96803769Y-73370499D01*
X96968082Y-73337816D01*
X97122863Y-73273703D01*
X97262162Y-73180626D01*
X97380626Y-73062162D01*
X97473703Y-72922863D01*
X97537816Y-72768082D01*
X97570500Y-72603767D01*
X97570500Y-72436233D01*
X97570499Y-72436228D01*
X98409500Y-72436228D01*
X98409500Y-72603771D01*
X98442182Y-72768074D01*
X98442184Y-72768082D01*
X98506295Y-72922860D01*
X98599373Y-73062162D01*
X98717837Y-73180626D01*
X98767115Y-73213552D01*
X98857137Y-73273703D01*
X99011918Y-73337816D01*
X99163398Y-73367947D01*
X99176228Y-73370499D01*
X99176232Y-73370500D01*
X99176233Y-73370500D01*
X99343768Y-73370500D01*
X99343769Y-73370499D01*
X99508082Y-73337816D01*
X99662863Y-73273703D01*
X99802162Y-73180626D01*
X99920626Y-73062162D01*
X100013703Y-72922863D01*
X100077816Y-72768082D01*
X100110500Y-72603767D01*
X100110500Y-72436233D01*
X100077816Y-72271918D01*
X100013703Y-72117137D01*
X99978376Y-72064266D01*
X99920626Y-71977837D01*
X99802165Y-71859376D01*
X99802157Y-71859370D01*
X99696095Y-71788502D01*
X99696094Y-71788501D01*
X99662863Y-71766297D01*
X99662862Y-71766296D01*
X99662860Y-71766295D01*
X99508082Y-71702184D01*
X99508074Y-71702182D01*
X99343771Y-71669500D01*
X99343767Y-71669500D01*
X99176233Y-71669500D01*
X99176228Y-71669500D01*
X99011925Y-71702182D01*
X99011917Y-71702184D01*
X98857139Y-71766295D01*
X98717837Y-71859373D01*
X98599373Y-71977837D01*
X98506295Y-72117139D01*
X98442184Y-72271917D01*
X98442182Y-72271925D01*
X98409500Y-72436228D01*
X97570499Y-72436228D01*
X97537816Y-72271918D01*
X97473703Y-72117137D01*
X97438376Y-72064266D01*
X97380626Y-71977837D01*
X97262162Y-71859373D01*
X97122860Y-71766295D01*
X96968082Y-71702184D01*
X96968074Y-71702182D01*
X96803771Y-71669500D01*
X96803767Y-71669500D01*
X96636233Y-71669500D01*
X96636228Y-71669500D01*
X96471925Y-71702182D01*
X96471917Y-71702184D01*
X96317139Y-71766295D01*
X96177837Y-71859373D01*
X96059373Y-71977837D01*
X95966295Y-72117139D01*
X95902184Y-72271917D01*
X95902182Y-72271925D01*
X95869500Y-72436228D01*
X91670000Y-72436228D01*
X91670000Y-72040000D01*
X90860748Y-72040000D01*
X90882518Y-72002292D01*
X90920000Y-71862409D01*
X90920000Y-71717591D01*
X90882518Y-71577708D01*
X90860748Y-71540000D01*
X91670000Y-71540000D01*
X91670000Y-70942172D01*
X91669999Y-70942155D01*
X91663598Y-70882627D01*
X91663596Y-70882620D01*
X91613354Y-70747913D01*
X91613350Y-70747906D01*
X91527190Y-70632812D01*
X91527187Y-70632809D01*
X91412093Y-70546649D01*
X91412086Y-70546645D01*
X91277379Y-70496403D01*
X91277372Y-70496401D01*
X91217844Y-70490000D01*
X90620000Y-70490000D01*
X90620000Y-71299252D01*
X90582292Y-71277482D01*
X90442409Y-71240000D01*
X90297591Y-71240000D01*
X90157708Y-71277482D01*
X90120000Y-71299252D01*
X90120000Y-70490000D01*
X89522155Y-70490000D01*
X89462627Y-70496401D01*
X89462620Y-70496403D01*
X89327913Y-70546645D01*
X89327906Y-70546649D01*
X89212812Y-70632809D01*
X89212809Y-70632812D01*
X89126649Y-70747906D01*
X89126645Y-70747913D01*
X89076403Y-70882620D01*
X89076401Y-70882627D01*
X89070000Y-70942155D01*
X65500500Y-70942155D01*
X65500500Y-65624500D01*
X65520185Y-65557461D01*
X65572989Y-65511706D01*
X65624500Y-65500500D01*
X134375500Y-65500500D01*
X134442539Y-65520185D01*
G37*
%TD.AperFunction*%
%TD*%
M02*
