%TF.GenerationSoftware,KiCad,Pcbnew,8.0.1*%
%TF.CreationDate,2024-05-05T16:57:19-04:00*%
%TF.ProjectId,arm,61726d2e-6b69-4636-9164-5f7063625858,rev?*%
%TF.SameCoordinates,Original*%
%TF.FileFunction,Copper,L1,Top*%
%TF.FilePolarity,Positive*%
%FSLAX46Y46*%
G04 Gerber Fmt 4.6, Leading zero omitted, Abs format (unit mm)*
G04 Created by KiCad (PCBNEW 8.0.1) date 2024-05-05 16:57:19*
%MOMM*%
%LPD*%
G01*
G04 APERTURE LIST*
G04 Aperture macros list*
%AMRoundRect*
0 Rectangle with rounded corners*
0 $1 Rounding radius*
0 $2 $3 $4 $5 $6 $7 $8 $9 X,Y pos of 4 corners*
0 Add a 4 corners polygon primitive as box body*
4,1,4,$2,$3,$4,$5,$6,$7,$8,$9,$2,$3,0*
0 Add four circle primitives for the rounded corners*
1,1,$1+$1,$2,$3*
1,1,$1+$1,$4,$5*
1,1,$1+$1,$6,$7*
1,1,$1+$1,$8,$9*
0 Add four rect primitives between the rounded corners*
20,1,$1+$1,$2,$3,$4,$5,0*
20,1,$1+$1,$4,$5,$6,$7,0*
20,1,$1+$1,$6,$7,$8,$9,0*
20,1,$1+$1,$8,$9,$2,$3,0*%
G04 Aperture macros list end*
%TA.AperFunction,ComponentPad*%
%ADD10RoundRect,0.250001X-0.799999X-0.799999X0.799999X-0.799999X0.799999X0.799999X-0.799999X0.799999X0*%
%TD*%
%TA.AperFunction,ComponentPad*%
%ADD11C,2.100000*%
%TD*%
%TA.AperFunction,ComponentPad*%
%ADD12R,1.200000X1.200000*%
%TD*%
%TA.AperFunction,ComponentPad*%
%ADD13C,1.200000*%
%TD*%
%TA.AperFunction,ComponentPad*%
%ADD14C,1.600000*%
%TD*%
%TA.AperFunction,ComponentPad*%
%ADD15R,1.700000X1.700000*%
%TD*%
%TA.AperFunction,ComponentPad*%
%ADD16O,1.700000X1.700000*%
%TD*%
%TA.AperFunction,ComponentPad*%
%ADD17R,1.600000X1.600000*%
%TD*%
%TA.AperFunction,ComponentPad*%
%ADD18R,1.300000X1.300000*%
%TD*%
%TA.AperFunction,ComponentPad*%
%ADD19C,1.300000*%
%TD*%
%TA.AperFunction,ComponentPad*%
%ADD20R,1.508000X1.508000*%
%TD*%
%TA.AperFunction,ComponentPad*%
%ADD21C,1.508000*%
%TD*%
%TA.AperFunction,ComponentPad*%
%ADD22R,1.398000X1.398000*%
%TD*%
%TA.AperFunction,ComponentPad*%
%ADD23C,1.398000*%
%TD*%
%TA.AperFunction,ComponentPad*%
%ADD24C,1.530000*%
%TD*%
%TA.AperFunction,ComponentPad*%
%ADD25C,2.400000*%
%TD*%
%TA.AperFunction,Conductor*%
%ADD26C,0.200000*%
%TD*%
G04 APERTURE END LIST*
D10*
X98700000Y-94075000D03*
D11*
X103300000Y-94075000D03*
D12*
X108000000Y-101500000D03*
D13*
X109500000Y-101500000D03*
D14*
X116500000Y-100750000D03*
X116500000Y-103250000D03*
D15*
X108380000Y-96500000D03*
D16*
X110920000Y-96500000D03*
X113460000Y-96500000D03*
X116000000Y-96500000D03*
D15*
X108380000Y-92500000D03*
D16*
X110920000Y-92500000D03*
X113460000Y-92500000D03*
X116000000Y-92500000D03*
D17*
X76080000Y-88500000D03*
D14*
X78620000Y-88500000D03*
X81160000Y-88500000D03*
X83700000Y-88500000D03*
X86240000Y-88500000D03*
X88780000Y-88500000D03*
X91320000Y-88500000D03*
X93860000Y-88500000D03*
X96400000Y-88500000D03*
X98940000Y-88500000D03*
X101480000Y-88500000D03*
X104020000Y-88500000D03*
X106560000Y-88500000D03*
X109100000Y-88500000D03*
X111640000Y-88500000D03*
X114180000Y-88500000D03*
X116720000Y-88500000D03*
X119260000Y-88500000D03*
X121800000Y-88500000D03*
X124340000Y-88500000D03*
X126880000Y-88500000D03*
X129420000Y-88500000D03*
X131960000Y-88500000D03*
X134500000Y-88500000D03*
X134500000Y-73260000D03*
X131960000Y-73260000D03*
X129420000Y-73260000D03*
X126880000Y-73260000D03*
X124340000Y-73260000D03*
X121800000Y-73260000D03*
X119260000Y-73260000D03*
X116720000Y-73260000D03*
X114180000Y-73260000D03*
X111640000Y-73260000D03*
X109100000Y-73260000D03*
X106560000Y-73260000D03*
X104020000Y-73260000D03*
X101480000Y-73260000D03*
X98940000Y-73260000D03*
X96400000Y-73260000D03*
X93860000Y-73260000D03*
X91320000Y-73260000D03*
X88780000Y-73260000D03*
X86240000Y-73260000D03*
X83700000Y-73260000D03*
X81160000Y-73260000D03*
X78620000Y-73260000D03*
X76080000Y-73260000D03*
X78620000Y-75800000D03*
X121800000Y-85960000D03*
X121800000Y-83420000D03*
X121800000Y-80880000D03*
X121800000Y-78340000D03*
X121800000Y-75800000D03*
D17*
X82379200Y-85449200D03*
D14*
X84919200Y-85449200D03*
X87459200Y-85449200D03*
X89999200Y-85449200D03*
X92539200Y-85449200D03*
D18*
X89050000Y-75698400D03*
D19*
X89050000Y-77698400D03*
X89050000Y-79698400D03*
X91050000Y-79698400D03*
X91050000Y-77698400D03*
X91050000Y-75698400D03*
X76810000Y-79610000D03*
X76810000Y-82150000D03*
D15*
X138900000Y-78180000D03*
D16*
X138900000Y-80720000D03*
X138900000Y-83260000D03*
X138900000Y-85800000D03*
D15*
X139000000Y-93960000D03*
D16*
X139000000Y-96500000D03*
X139000000Y-99040000D03*
X139000000Y-101580000D03*
D20*
X76000000Y-107200000D03*
D21*
X78540000Y-107200000D03*
X81080000Y-107200000D03*
X83620000Y-107200000D03*
X86160000Y-107200000D03*
X88700000Y-107200000D03*
X91240000Y-107200000D03*
X93780000Y-107200000D03*
X76000000Y-94500000D03*
X78540000Y-94500000D03*
X81080000Y-94500000D03*
X83620000Y-94500000D03*
X86160000Y-94500000D03*
X88700000Y-94500000D03*
X91240000Y-94500000D03*
X93780000Y-94500000D03*
X93780000Y-99580000D03*
X93780000Y-97040000D03*
D22*
X122960000Y-95040000D03*
D23*
X124230000Y-92500000D03*
X125500000Y-95040000D03*
X126770000Y-92500000D03*
X128040000Y-95040000D03*
X129310000Y-92500000D03*
X130580000Y-95040000D03*
X131850000Y-92500000D03*
D24*
X121080000Y-106290000D03*
X123595000Y-104770000D03*
X131215000Y-106290000D03*
X133730000Y-104770000D03*
D25*
X135280000Y-98340000D03*
X119530000Y-98340000D03*
D26*
X116500000Y-99500000D02*
X116500000Y-100750000D01*
X116500000Y-99500000D02*
X116500000Y-99248679D01*
X121748679Y-94000000D02*
X127000000Y-94000000D01*
X126770000Y-93770000D02*
X127000000Y-94000000D01*
X127000000Y-94000000D02*
X128040000Y-95040000D01*
X116500000Y-99241465D02*
X116500000Y-99500000D01*
X116500000Y-99248679D02*
X121748679Y-94000000D01*
X126770000Y-92500000D02*
X126770000Y-93770000D01*
X131850000Y-92500000D02*
X130861465Y-92500000D01*
X97871600Y-84520000D02*
X91050000Y-77698400D01*
X118020000Y-104770000D02*
X116500000Y-103250000D01*
X123595000Y-104770000D02*
X118020000Y-104770000D01*
X129500000Y-98865000D02*
X123595000Y-104770000D01*
X125780000Y-88044365D02*
X122255635Y-84520000D01*
X129500000Y-93861465D02*
X129500000Y-98865000D01*
X131850000Y-92500000D02*
X128950000Y-89600000D01*
X130861465Y-92500000D02*
X129500000Y-93861465D01*
X125780000Y-88955635D02*
X125780000Y-88044365D01*
X128950000Y-89600000D02*
X126424365Y-89600000D01*
X126424365Y-89600000D02*
X125780000Y-88955635D01*
X122255635Y-84520000D02*
X97871600Y-84520000D01*
X121192765Y-76748400D02*
X90000000Y-76748400D01*
X122255635Y-76900000D02*
X121344365Y-76900000D01*
X133400000Y-96471138D02*
X133400000Y-88044365D01*
X90000000Y-76748400D02*
X89050000Y-77698400D01*
X121080000Y-106290000D02*
X123581138Y-106290000D01*
X121344365Y-76900000D02*
X121192765Y-76748400D01*
X133400000Y-88044365D02*
X122255635Y-76900000D01*
X123581138Y-106290000D02*
X133400000Y-96471138D01*
X77520000Y-93480000D02*
X78540000Y-94500000D01*
X77520000Y-87980000D02*
X77520000Y-93480000D01*
X85140000Y-87400000D02*
X78100000Y-87400000D01*
X78100000Y-87400000D02*
X77520000Y-87980000D01*
X86240000Y-88500000D02*
X85140000Y-87400000D01*
X83700000Y-88500000D02*
X83700000Y-90700000D01*
X83700000Y-90700000D02*
X84500000Y-91500000D01*
X90780000Y-91500000D02*
X93780000Y-94500000D01*
X84500000Y-91500000D02*
X90780000Y-91500000D01*
X75380000Y-87000000D02*
X74980000Y-87400000D01*
X74980000Y-87400000D02*
X74980000Y-93480000D01*
X87280000Y-87000000D02*
X75380000Y-87000000D01*
X74980000Y-93480000D02*
X76000000Y-94500000D01*
X88780000Y-88500000D02*
X87280000Y-87000000D01*
X138900000Y-74407307D02*
X138900000Y-78180000D01*
X86000000Y-70960000D02*
X135452693Y-70960000D01*
X83700000Y-73260000D02*
X86000000Y-70960000D01*
X135452693Y-70960000D02*
X138900000Y-74407307D01*
X136840000Y-80840000D02*
X136400000Y-80400000D01*
X95360000Y-71760000D02*
X135121321Y-71760000D01*
X93860000Y-73260000D02*
X95360000Y-71760000D01*
X136840000Y-81200000D02*
X138900000Y-83260000D01*
X135121321Y-71760000D02*
X136400000Y-73038679D01*
X136400000Y-73038679D02*
X136400000Y-80400000D01*
X136840000Y-81200000D02*
X136840000Y-80840000D01*
X136800000Y-72872995D02*
X136800000Y-78620000D01*
X135287007Y-71360000D02*
X136800000Y-72872995D01*
X88140000Y-71360000D02*
X135287007Y-71360000D01*
X136800000Y-78620000D02*
X138900000Y-80720000D01*
X86240000Y-73260000D02*
X88140000Y-71360000D01*
X136000000Y-73204365D02*
X136000000Y-82900000D01*
X138900000Y-85800000D02*
X136000000Y-82900000D01*
X134955635Y-72160000D02*
X136000000Y-73204365D01*
X96400000Y-73260000D02*
X97500000Y-72160000D01*
X97500000Y-72160000D02*
X134955635Y-72160000D01*
X108854000Y-93726000D02*
X109694000Y-93726000D01*
X83620000Y-107200000D02*
X92522000Y-98298000D01*
X92522000Y-98298000D02*
X104282000Y-98298000D01*
X109694000Y-93726000D02*
X110920000Y-92500000D01*
X104282000Y-98298000D02*
X108854000Y-93726000D01*
X108235660Y-105325000D02*
X114850000Y-98710660D01*
X114850000Y-93890000D02*
X113460000Y-92500000D01*
X114850000Y-98710660D02*
X114850000Y-93890000D01*
X86160000Y-107200000D02*
X88035000Y-105325000D01*
X88035000Y-105325000D02*
X108235660Y-105325000D01*
X81080000Y-107200000D02*
X92294000Y-95986000D01*
X92294000Y-95986000D02*
X104894000Y-95986000D01*
X104894000Y-95986000D02*
X108380000Y-92500000D01*
X88700000Y-107200000D02*
X89754000Y-108254000D01*
X89754000Y-108254000D02*
X105872346Y-108254000D01*
X117348000Y-93848000D02*
X116000000Y-92500000D01*
X105872346Y-108254000D02*
X117348000Y-96778346D01*
X117348000Y-96778346D02*
X117348000Y-93848000D01*
X78620000Y-89500000D02*
X78620000Y-88500000D01*
X83620000Y-94500000D02*
X78620000Y-89500000D01*
X81160000Y-88500000D02*
X81160000Y-89500000D01*
X81160000Y-89500000D02*
X86160000Y-94500000D01*
M02*
