999
"DXF R12 Output" (www.mydxf.blogspot.com)
 0 
SECTION
 2 
HEADER
 9 
$ACADVER
 1 
AC1009
 9 
$EXTMIN
 10 
 0 
 20 
 0 
 9 
$EXTMAX
 10 
 8.5 
 20 
 11 
 0 
ENDSEC
 0 
SECTION
 2 
ENTITIES
0
LINE
8
Layer 1
10
2.285215
20
123.198710
11
2.429538
21
123.001125
0
LINE
8
Layer 1
10
2.429538
20
123.001125
11
2.337173
21
122.820981
0
LINE
8
Layer 1
10
2.008113
20
123.314931
11
2.218106
21
123.263352
0
LINE
8
Layer 1
10
2.218106
20
123.263352
11
2.337173
21
123.076674
0
LINE
8
Layer 1
10
2.337173
20
123.076674
11
2.337173
21
123.076674
0
LINE
8
Layer 1
10
2.337173
20
123.076674
11
2.158210
21
122.757060
0
LINE
8
Layer 1
10
-4.930988
20
121.339131
11
-5.283140
21
120.275687
0
LINE
8
Layer 1
10
-3.487748
20
126.545945
11
-4.083265
21
127.705093
0
LINE
8
Layer 1
10
-4.083265
20
127.705093
11
-4.788108
21
128.732400
0
LINE
8
Layer 1
10
-4.788108
20
128.732400
11
-6.374231
21
130.648635
0
LINE
8
Layer 1
10
-6.374231
20
130.648635
11
-6.368460
21
130.555655
0
LINE
8
Layer 1
10
-6.368460
20
130.555655
11
-4.821304
21
128.654674
0
LINE
8
Layer 1
10
-4.821304
20
128.654674
11
-4.142439
21
127.637447
0
LINE
8
Layer 1
10
-4.142439
20
127.637447
11
-3.568571
21
126.505268
0
LINE
8
Layer 1
10
-3.568571
20
126.505268
11
-3.487748
21
126.545945
0
LINE
8
Layer 1
10
0.359442
20
126.936036
11
-0.085077
21
127.052260
0
LINE
8
Layer 1
10
-0.085077
20
127.052260
11
-0.725876
21
126.788577
0
LINE
8
Layer 1
10
-0.725876
20
126.788577
11
-1.089573
21
126.128282
0
LINE
8
Layer 1
10
-1.089573
20
126.128282
11
-1.089573
21
126.134093
0
LINE
8
Layer 1
10
-1.089573
20
126.134093
11
-1.095346
21
126.087604
0
LINE
8
Layer 1
10
-1.095346
20
126.087604
11
-1.118438
21
125.826101
0
LINE
8
Layer 1
10
-1.118438
20
125.826101
11
-1.118438
21
125.814478
0
LINE
8
Layer 1
10
-1.118438
20
125.814478
11
-1.083800
21
123.559740
0
LINE
8
Layer 1
10
1.335074
20
124.355872
11
0.913647
21
124.669676
0
LINE
8
Layer 1
10
0.913647
20
124.669676
11
1.264355
21
125.104788
0
LINE
8
Layer 1
10
1.264355
20
125.104788
11
1.398577
21
125.709877
0
LINE
8
Layer 1
10
1.398577
20
125.709877
11
1.096939
21
126.549593
0
LINE
8
Layer 1
10
1.096939
20
126.549593
11
0.778343
21
126.826168
0
LINE
8
Layer 1
10
0.778343
20
126.826168
11
0.370988
21
126.936036
0
LINE
8
Layer 1
10
0.370988
20
126.936036
11
-0.269812
21
126.672354
0
LINE
8
Layer 1
10
-0.269812
20
126.672354
11
-0.633509
21
126.012058
0
LINE
8
Layer 1
10
-0.633509
20
126.012058
11
-0.639282
21
126.017870
0
LINE
8
Layer 1
10
-0.639282
20
126.017870
11
-0.645055
21
125.971380
0
LINE
8
Layer 1
10
-0.645055
20
125.971380
11
-0.668147
21
125.709877
0
LINE
8
Layer 1
10
-0.668147
20
125.709877
11
-0.668147
21
125.692444
0
LINE
8
Layer 1
10
-0.668147
20
125.692444
11
-0.835563
21
123.815432
0
LINE
8
Layer 1
10
1.577539
20
123.344727
11
1.600631
21
123.588796
0
LINE
8
Layer 1
10
1.600631
20
123.588796
11
1.583312
21
123.786376
0
LINE
8
Layer 1
10
1.583312
20
123.786376
11
1.571766
21
123.861922
0
LINE
8
Layer 1
10
-0.477639
20
122.205736
11
0.567269
21
122.438183
0
LINE
8
Layer 1
10
0.567269
20
122.438183
11
1.019004
21
122.601622
0
LINE
8
Layer 1
10
1.019004
20
122.601622
11
1.375485
21
122.908888
0
LINE
8
Layer 1
10
1.586691
20
120.682465
11
1.419269
21
121.106692
0
LINE
8
Layer 1
10
1.419269
20
121.106692
11
1.442355
21
121.344939
0
LINE
8
Layer 1
10
1.598232
20
119.990946
11
1.719463
21
120.089728
0
LINE
8
Layer 1
10
1.719463
20
120.089728
11
1.777202
21
120.798694
0
LINE
8
Layer 1
10
1.777202
20
120.798694
11
1.702147
21
120.874238
0
LINE
8
Layer 1
10
1.702147
20
120.874238
11
1.604011
21
120.804501
0
LINE
8
Layer 1
10
1.321132
20
121.321695
11
1.292268
21
121.042764
0
LINE
8
Layer 1
10
1.292268
20
121.042764
11
1.580917
21
120.548806
0
LINE
8
Layer 1
10
1.477003
20
121.670365
11
1.482775
21
121.711047
0
LINE
8
Layer 1
10
1.482775
20
121.711047
11
1.500090
21
121.879571
0
LINE
8
Layer 1
10
1.500090
20
121.879571
11
1.367313
21
121.838891
0
LINE
8
Layer 1
10
1.367313
20
121.838891
11
1.349998
21
121.676178
0
LINE
8
Layer 1
10
2.267895
20
122.280541
11
1.944609
21
121.647127
0
LINE
8
Layer 1
10
1.944609
20
121.647127
11
1.933066
21
121.641280
0
LINE
8
Layer 1
10
1.933066
20
121.641280
11
2.100480
21
122.286320
0
LINE
8
Layer 1
10
2.337173
20
122.820981
11
2.493042
21
122.728004
0
LINE
8
Layer 1
10
2.493042
20
122.728004
11
2.406449
21
122.565291
0
LINE
8
Layer 1
10
2.181302
20
122.588532
11
2.239032
21
122.797735
0
LINE
8
Layer 1
10
2.435312
20
122.582724
11
2.556546
21
122.576903
0
LINE
8
Layer 1
10
2.556546
20
122.576903
11
2.556546
21
122.327018
0
LINE
8
Layer 1
10
2.556546
20
122.327018
11
2.429538
21
122.268905
0
LINE
8
Layer 1
10
1.927297
20
121.670365
11
1.777202
21
122.297975
0
LINE
8
Layer 1
10
2.140890
20
120.763827
11
2.250580
21
120.850991
0
LINE
8
Layer 1
10
2.250580
20
120.850991
11
2.239036
21
120.659224
0
LINE
8
Layer 1
10
2.354486
20
122.268918
11
2.706643
21
122.036471
0
LINE
8
Layer 1
10
2.706643
20
122.036471
11
2.887045
21
121.899182
0
LINE
8
Layer 1
10
2.887045
20
121.899182
11
2.850968
21
121.687801
0
LINE
8
Layer 1
10
2.850968
20
121.687801
11
2.787464
21
121.002081
0
LINE
8
Layer 1
10
2.787464
20
121.002081
11
2.233260
21
120.293118
0
LINE
8
Layer 1
10
2.233260
20
120.293118
11
2.227463
21
120.142023
0
LINE
8
Layer 1
10
2.227463
20
120.142023
11
2.163959
21
120.054861
0
LINE
8
Layer 1
10
2.163959
20
120.054861
11
2.117771
21
120.025805
0
LINE
8
Layer 1
10
1.475365
20
121.670814
11
1.914938
21
121.650861
0
LINE
8
Layer 1
10
1.345427
20
121.674973
11
1.475365
21
121.670814
0
LINE
8
Layer 1
10
1.843119
20
122.001293
11
1.361564
21
121.829569
0
LINE
8
Layer 1
10
1.361564
20
121.829569
11
1.345427
21
121.674973
0
LINE
8
Layer 1
10
1.588289
20
120.682711
11
1.593337
21
120.808251
0
LINE
8
Layer 1
10
1.593337
20
120.808251
11
1.660226
21
120.733347
0
LINE
8
Layer 1
10
1.660226
20
120.733347
11
1.595850
21
119.990342
0
LINE
8
Layer 1
10
1.595850
20
119.990342
11
1.515767
21
120.079176
0
LINE
8
Layer 1
10
1.515767
20
120.079176
11
1.535023
21
120.277680
0
LINE
8
Layer 1
10
1.535023
20
120.277680
11
1.073232
21
121.074126
0
LINE
8
Layer 1
10
1.073232
20
121.074126
11
1.099757
21
121.756254
0
LINE
8
Layer 1
10
1.099757
20
121.756254
11
1.123986
21
121.972571
0
LINE
8
Layer 1
10
1.123986
20
121.972571
11
1.303114
21
122.041453
0
LINE
8
Layer 1
10
1.303114
20
122.041453
11
1.770928
21
122.292044
0
LINE
8
Layer 1
10
1.578017
20
120.556247
11
1.588289
21
120.682711
0
LINE
8
Layer 1
10
1.914100
20
121.439350
11
1.325703
21
121.324639
0
LINE
8
Layer 1
10
1.325703
20
121.324639
11
1.297462
21
121.054095
0
LINE
8
Layer 1
10
1.297462
20
121.054095
11
1.578017
21
120.556247
0
LINE
8
Layer 1
10
1.919323
20
121.440272
11
2.486808
21
121.242377
0
LINE
8
Layer 1
10
2.486808
20
121.242377
11
2.475153
21
120.969341
0
LINE
8
Layer 1
10
2.475153
20
120.969341
11
2.123245
21
120.517010
0
LINE
8
Layer 1
10
2.123245
20
120.517010
11
2.143787
21
120.769936
0
LINE
8
Layer 1
10
2.143787
20
120.769936
11
2.063236
21
120.706940
0
LINE
8
Layer 1
10
2.063236
20
120.706940
11
2.024061
21
119.973803
0
LINE
8
Layer 1
10
2.106660
20
121.971943
11
2.504252
21
121.760314
0
LINE
8
Layer 1
10
2.504252
20
121.760314
11
2.457418
21
121.627397
0
LINE
8
Layer 1
10
2.457418
20
121.627397
11
1.962864
21
121.653902
0
LINE
8
Layer 1
10
2.024061
20
119.973803
11
2.025893
21
119.963287
0
LINE
8
Layer 1
10
2.025893
20
119.963287
11
2.115059
21
120.038643
0
LINE
8
Layer 1
10
2.115059
20
120.038643
11
2.122953
21
120.240560
0
LINE
8
Layer 1
10
2.122953
20
120.240560
11
2.686189
21
120.963240
0
LINE
8
Layer 1
10
2.686189
20
120.963240
11
2.756333
21
121.642228
0
LINE
8
Layer 1
10
2.756333
20
121.642228
11
2.763666
21
121.858950
0
LINE
8
Layer 1
10
2.763666
20
121.858950
11
2.594158
21
121.955031
0
LINE
8
Layer 1
10
2.594158
20
121.955031
11
2.230108
21
122.221357
0
LINE
8
Layer 1
10
0.738059
20
124.279582
11
1.540510
21
124.378375
0
LINE
8
Layer 1
10
1.696375
20
123.884425
11
0.974755
21
123.797261
0
LINE
8
Layer 1
10
0.905479
20
124.209854
11
1.528963
21
124.285400
0
LINE
8
Layer 1
10
-2.584829
20
120.519844
11
-2.919662
21
120.868514
0
LINE
8
Layer 1
10
-2.919662
20
120.868514
11
-3.924158
21
121.676268
0
LINE
8
Layer 1
10
-3.127489
20
122.234142
11
-2.821521
21
121.990072
0
LINE
8
Layer 1
10
-2.665651
20
120.711613
11
-2.879251
21
120.944060
0
LINE
8
Layer 1
10
-2.879251
20
120.944060
11
-3.854883
21
121.716947
0
LINE
8
Layer 1
10
-5.439011
20
119.340087
11
-5.664156
21
119.264552
0
LINE
8
Layer 1
10
-5.664156
20
119.264552
11
-6.032904
21
119.380045
0
LINE
8
Layer 1
10
-6.032904
20
119.380045
11
-6.154859
21
119.648081
0
LINE
8
Layer 1
10
-6.120221
20
119.909579
11
-5.750751
21
121.042764
0
LINE
8
Layer 1
10
-5.023356
20
121.298451
11
-5.427463
21
120.089728
0
LINE
8
Layer 1
10
-1.969458
20
119.863091
11
-1.882865
21
119.996753
0
LINE
8
Layer 1
10
-0.370347
20
120.676658
11
0.214708
21
120.488067
0
LINE
8
Layer 1
10
0.214708
20
120.488067
11
0.686107
21
120.100625
0
LINE
8
Layer 1
10
0.686107
20
120.100625
11
1.001635
21
119.559549
0
LINE
8
Layer 1
10
1.001635
20
119.559549
11
1.119077
21
118.910058
0
LINE
8
Layer 1
10
1.119077
20
118.910058
11
1.119077
21
118.910058
0
LINE
8
Layer 1
10
1.119077
20
118.910058
11
1.113306
21
118.764781
0
LINE
8
Layer 1
10
-0.635905
20
120.688278
11
-0.895690
21
120.450018
0
LINE
8
Layer 1
10
-0.895690
20
120.450018
11
-1.338312
21
120.215849
0
LINE
8
Layer 1
10
-1.338312
20
120.215849
11
-1.791218
21
120.132586
0
LINE
8
Layer 1
10
-1.791218
20
120.132586
11
-2.201911
21
120.200775
0
LINE
8
Layer 1
10
-2.201911
20
120.200775
11
-2.517891
21
120.420962
0
LINE
8
Layer 1
10
-2.517891
20
120.420962
11
-2.517891
21
120.420962
0
LINE
8
Layer 1
10
-2.517891
20
120.420962
11
-2.686750
21
120.905472
0
LINE
8
Layer 1
10
-2.686750
20
120.905472
11
-2.517891
21
121.455354
0
LINE
8
Layer 1
10
-0.428074
20
121.827263
11
-0.324168
21
121.437921
0
LINE
8
Layer 1
10
-1.940595
20
122.001602
11
-1.819361
21
122.065533
0
LINE
8
Layer 1
10
-0.757134
20
120.914915
11
-1.051559
21
120.612734
0
LINE
8
Layer 1
10
-1.051559
20
120.612734
11
-1.790498
21
120.348327
0
LINE
8
Layer 1
10
-1.790498
20
120.348327
11
-2.129659
21
120.405172
0
LINE
8
Layer 1
10
-2.129659
20
120.405172
11
-2.390886
21
120.589504
0
LINE
8
Layer 1
10
-2.390886
20
120.589504
11
-2.528715
21
120.951980
0
LINE
8
Layer 1
10
-2.528715
20
120.951980
11
-2.437069
21
121.362393
0
LINE
8
Layer 1
10
-3.285693
20
116.951694
11
-2.898906
21
116.742494
0
LINE
8
Layer 1
10
-0.116336
20
115.777837
11
0.374366
21
115.719727
0
LINE
8
Layer 1
10
-2.881586
20
115.568637
11
-2.887359
21
115.981227
0
LINE
8
Layer 1
10
-2.870040
20
114.900353
11
-2.875813
21
115.307136
0
LINE
8
Layer 1
10
-2.864268
20
114.197192
11
-2.870039
21
114.621416
0
LINE
8
Layer 1
10
-2.852723
20
113.534724
11
-2.858493
21
113.935699
0
LINE
8
Layer 1
10
-2.206151
20
113.302282
11
-2.841177
21
112.552634
0
LINE
8
Layer 1
10
-2.841177
20
112.552634
11
-2.852720
21
113.273220
0
LINE
8
Layer 1
10
-1.617306
20
113.999615
11
-1.981004
21
113.569590
0
LINE
8
Layer 1
10
-1.011144
20
114.720204
11
-1.380616
21
114.284369
0
LINE
8
Layer 1
10
-0.404985
20
115.434977
11
-0.768682
21
114.999140
0
LINE
8
Layer 1
10
-0.116336
20
115.777837
11
-0.174066
21
115.708104
0
LINE
8
Layer 1
10
-2.893132
20
116.271787
11
-2.898903
21
116.893586
0
LINE
8
Layer 1
10
-2.898903
20
116.893586
11
-1.474425
21
116.534742
0
LINE
8
Layer 1
10
-1.474425
20
116.534742
11
-0.023963
21
115.888250
0
LINE
8
Layer 1
10
-0.023963
20
115.888250
11
-0.116335
21
115.777837
0
LINE
8
Layer 1
10
-2.898906
20
115.981227
11
-3.233738
21
116.172997
0
LINE
8
Layer 1
10
-3.233738
20
116.172997
11
-3.204874
21
116.260167
0
LINE
8
Layer 1
10
-3.204874
20
116.260167
11
-1.022693
21
116.358954
0
LINE
8
Layer 1
10
-1.022693
20
116.358954
11
-0.474263
21
116.109069
0
LINE
8
Layer 1
10
-0.474263
20
116.109069
11
-2.898906
21
115.981227
0
LINE
8
Layer 1
10
-2.598712
20
118.933299
11
-2.356248
21
119.636457
0
LINE
8
Layer 1
10
-2.356248
20
119.636457
11
-2.056054
21
119.880527
0
LINE
8
Layer 1
10
-2.056054
20
119.880527
11
-2.362020
21
118.944935
0
LINE
8
Layer 1
10
-2.691080
20
117.945404
11
-3.002819
21
117.003994
0
LINE
8
Layer 1
10
-3.002819
20
117.003994
11
-3.285693
21
116.951694
0
LINE
8
Layer 1
10
-3.285693
20
116.951694
11
-2.945090
21
117.939597
0
LINE
8
Layer 1
10
-2.362020
20
118.944935
11
-2.056054
21
119.880527
0
LINE
8
Layer 1
10
-2.056054
20
119.880527
11
-0.878367
21
119.653891
0
LINE
8
Layer 1
10
-0.878367
20
119.653891
11
-1.184335
21
118.735727
0
LINE
8
Layer 1
10
-1.519167
20
117.718773
11
-1.853999
21
116.719250
0
LINE
8
Layer 1
10
-1.853999
20
116.719250
11
-3.002819
21
117.003994
0
LINE
8
Layer 1
10
-3.002819
20
117.003994
11
-2.691080
21
117.945404
0
LINE
8
Layer 1
10
0.420545
20
118.142984
11
0.726513
21
119.066964
0
LINE
8
Layer 1
10
0.726513
20
119.066964
11
-0.872593
21
119.653891
0
LINE
8
Layer 1
10
-0.872593
20
119.653891
11
-1.178561
21
118.735727
0
LINE
8
Layer 1
10
-1.513396
20
117.718773
11
-1.848227
21
116.713442
0
LINE
8
Layer 1
10
-1.848227
20
116.713442
11
-0.249118
21
116.103264
0
LINE
8
Layer 1
10
-0.249118
20
116.103264
11
0.074172
21
117.091166
0
LINE
8
Layer 1
10
0.697652
20
116.678565
11
0.380138
21
115.719727
0
LINE
8
Layer 1
10
0.380138
20
115.719727
11
-0.254888
21
116.109069
0
LINE
8
Layer 1
10
-0.254888
20
116.109069
11
0.068396
21
117.096974
0
LINE
8
Layer 1
10
0.414776
20
118.142984
11
0.720744
21
119.072774
0
LINE
8
Layer 1
10
0.720744
20
119.072774
11
1.332675
21
118.596260
0
LINE
8
Layer 1
10
1.332675
20
118.596260
11
1.003620
21
117.608360
0
LINE
8
Layer 1
10
2.452635
20
123.919292
11
2.417990
21
123.280064
0
LINE
8
Layer 1
10
2.417990
20
123.280064
11
2.348719
21
123.181280
0
LINE
8
Layer 1
10
2.348719
20
123.181280
11
2.389131
21
123.861181
0
LINE
8
Layer 1
10
1.771425
20
123.396290
11
1.800287
21
123.808878
0
LINE
8
Layer 1
10
1.944619
20
122.577215
11
2.429549
21
122.559782
0
LINE
8
Layer 1
10
2.429549
20
122.559782
11
2.429549
21
122.275034
0
LINE
8
Layer 1
10
2.429549
20
122.275034
11
1.777203
21
122.292467
0
LINE
8
Layer 1
10
1.777203
20
122.292467
11
1.471236
21
122.304090
0
LINE
8
Layer 1
10
1.471236
20
122.304090
11
1.477009
21
122.588837
0
LINE
8
Layer 1
10
1.477009
20
122.588837
11
1.546284
21
122.588837
0
LINE
8
Layer 1
10
2.027045
20
123.297642
11
2.171367
21
123.241826
0
LINE
8
Layer 1
10
2.171367
20
123.241826
11
2.161369
21
123.082894
0
LINE
8
Layer 1
10
2.161369
20
123.082894
11
2.243557
21
122.951075
0
LINE
8
Layer 1
10
2.243557
20
122.951075
11
2.146050
21
122.830890
0
LINE
8
Layer 1
10
2.146050
20
122.830890
11
2.136051
21
122.671957
0
LINE
8
Layer 1
10
2.136051
20
122.671957
11
1.986408
21
122.634701
0
LINE
8
Layer 1
10
1.986408
20
122.634701
11
1.888901
21
122.514516
0
LINE
8
Layer 1
10
1.888901
20
122.514516
11
1.743663
21
122.575590
0
LINE
8
Layer 1
10
1.743663
20
122.575590
11
1.594020
21
122.538334
0
LINE
8
Layer 1
10
1.594020
20
122.538334
11
1.511831
21
122.670153
0
LINE
8
Layer 1
10
1.511831
20
122.670153
11
1.367509
21
122.725968
0
LINE
8
Layer 1
10
1.367509
20
122.725968
11
1.377508
21
122.884901
0
LINE
8
Layer 1
10
1.377508
20
122.884901
11
1.295319
21
123.016720
0
LINE
8
Layer 1
10
1.295319
20
123.016720
11
1.392827
21
123.136905
0
LINE
8
Layer 1
10
1.392827
20
123.136905
11
1.402825
21
123.295837
0
LINE
8
Layer 1
10
1.402825
20
123.295837
11
1.552468
21
123.333093
0
LINE
8
Layer 1
10
1.552468
20
123.333093
11
1.649976
21
123.453278
0
LINE
8
Layer 1
10
1.649976
20
123.453278
11
1.795214
21
123.392204
0
LINE
8
Layer 1
10
1.795214
20
123.392204
11
1.944856
21
123.429461
0
LINE
8
Layer 1
10
1.944856
20
123.429461
11
2.027045
21
123.297642
0
LINE
8
Layer 1
10
2.027045
20
123.297642
11
2.027045
21
123.297642
0
LINE
8
Layer 1
10
1.989274
20
123.019996
11
1.804062
21
122.754259
0
LINE
8
Layer 1
10
1.804062
20
122.754259
11
1.804062
21
122.754259
0
LINE
8
Layer 1
10
1.804062
20
122.754259
11
1.540072
21
122.940697
0
LINE
8
Layer 1
10
1.540072
20
122.940697
11
1.540072
21
122.940697
0
LINE
8
Layer 1
10
1.540072
20
122.940697
11
1.725284
21
123.206434
0
LINE
8
Layer 1
10
1.725284
20
123.206434
11
1.725284
21
123.206434
0
LINE
8
Layer 1
10
1.725284
20
123.206434
11
1.989274
21
123.019996
0
LINE
8
Layer 1
10
1.989274
20
123.019996
11
1.989274
21
123.019996
0
LINE
8
Layer 1
10
1.801608
20
123.808334
11
1.535819
21
124.182558
0
LINE
8
Layer 1
10
1.535819
20
124.182558
11
1.535819
21
124.182558
0
LINE
8
Layer 1
10
1.535819
20
124.182558
11
1.623879
21
124.581749
0
LINE
8
Layer 1
10
1.623879
20
124.581749
11
1.966815
21
124.800940
0
LINE
8
Layer 1
10
1.966815
20
124.800940
11
1.966815
21
124.800940
0
LINE
8
Layer 1
10
1.966815
20
124.800940
11
2.363382
21
124.712297
0
LINE
8
Layer 1
10
2.363382
20
124.712297
11
2.581131
21
124.367091
0
LINE
8
Layer 1
10
2.581131
20
124.367091
11
2.581131
21
124.367091
0
LINE
8
Layer 1
10
2.581131
20
124.367091
11
2.493071
21
123.967900
0
LINE
8
Layer 1
10
2.493071
20
123.967900
11
2.150135
21
123.748709
0
LINE
8
Layer 1
10
2.150135
20
123.748709
11
2.150135
21
123.748709
0
LINE
8
Layer 1
10
2.150135
20
123.748709
11
1.801608
21
123.808334
0
LINE
8
Layer 1
10
2.287417
20
124.309471
11
2.090259
21
124.026595
0
LINE
8
Layer 1
10
2.090259
20
124.026595
11
2.090259
21
124.026595
0
LINE
8
Layer 1
10
2.090259
20
124.026595
11
1.809243
21
124.225057
0
LINE
8
Layer 1
10
1.809243
20
124.225057
11
1.809243
21
124.225057
0
LINE
8
Layer 1
10
1.809243
20
124.225057
11
2.006400
21
124.507934
0
LINE
8
Layer 1
10
2.006400
20
124.507934
11
2.006400
21
124.507934
0
LINE
8
Layer 1
10
2.006400
20
124.507934
11
2.187809
21
124.470008
0
LINE
8
Layer 1
10
2.187809
20
124.470008
11
2.287417
21
124.309471
0
LINE
8
Layer 1
10
2.287417
20
124.309471
11
2.287417
21
124.309471
0
LINE
8
Layer 1
10
-5.641064
20
119.903776
11
-6.131767
21
119.909597
0
LINE
8
Layer 1
10
-6.131767
20
119.909597
11
-6.131767
21
119.909597
0
LINE
8
Layer 1
10
-6.131767
20
119.909597
11
-6.154137
21
119.643007
0
LINE
8
Layer 1
10
-6.154137
20
119.643007
11
-6.033625
21
119.485381
0
LINE
8
Layer 1
10
-6.033625
20
119.485381
11
-5.612200
21
119.444696
0
LINE
8
Layer 1
10
-4.994492
20
119.125079
11
-5.121497
21
119.200620
0
LINE
8
Layer 1
10
-5.121497
20
119.200620
11
-5.243452
21
119.162849
0
LINE
8
Layer 1
10
-5.243452
20
119.162849
11
-5.352416
21
119.177390
0
LINE
8
Layer 1
10
-5.352416
20
119.177390
11
-5.425300
21
119.257297
0
LINE
8
Layer 1
10
-5.425300
20
119.257297
11
-5.467875
21
119.380786
0
LINE
8
Layer 1
10
-5.467875
20
119.380786
11
-5.584056
21
119.440350
0
LINE
8
Layer 1
10
-5.584056
20
119.440350
11
-5.652610
21
119.526063
0
LINE
8
Layer 1
10
-5.652610
20
119.526063
11
-5.649002
21
119.635023
0
LINE
8
Layer 1
10
-5.649002
20
119.635023
11
-5.589108
21
119.752691
0
LINE
8
Layer 1
10
-5.589108
20
119.752691
11
-5.626633
21
119.877635
0
LINE
8
Layer 1
10
-5.626633
20
119.877635
11
-5.612196
21
119.985143
0
LINE
8
Layer 1
10
-5.612196
20
119.985143
11
-5.532816
21
120.058509
0
LINE
8
Layer 1
10
-5.532816
20
120.058509
11
-5.410141
21
120.101369
0
LINE
8
Layer 1
10
-5.410141
20
120.101369
11
-5.350969
21
120.218319
0
LINE
8
Layer 1
10
-5.350969
20
120.218319
11
-5.265816
21
120.287329
0
LINE
8
Layer 1
10
-5.265816
20
120.287329
11
-5.155409
21
120.283698
0
LINE
8
Layer 1
10
-5.155409
20
120.283698
11
-5.040672
21
120.223408
0
LINE
8
Layer 1
10
-5.040672
20
120.223408
11
-4.994488
21
120.223408
0
LINE
8
Layer 1
10
-5.063768
20
119.502795
11
-5.109951
21
119.497001
0
LINE
8
Layer 1
10
-5.109951
20
119.497001
11
-5.340870
21
119.712020
0
LINE
8
Layer 1
10
-5.340870
20
119.712020
11
-5.340870
21
119.723635
0
LINE
8
Layer 1
10
-5.340870
20
119.723635
11
-5.127272
21
119.956079
0
LINE
8
Layer 1
10
-5.127272
20
119.956079
11
-5.040676
21
119.944464
0
LINE
8
Layer 1
10
-4.220915
20
119.549291
11
-4.047727
21
119.682950
0
LINE
8
Layer 1
10
-4.047727
20
119.682950
11
-3.522386
21
119.682950
0
LINE
8
Layer 1
10
-3.522386
20
119.682950
11
-3.528159
21
119.526044
0
LINE
8
Layer 1
10
-3.528159
20
119.526044
11
-3.724440
21
119.369141
0
LINE
8
Layer 1
10
-4.325610
20
119.094611
11
-4.417978
21
119.646673
0
LINE
8
Layer 1
10
-4.417978
20
119.646673
11
-4.325610
21
120.123190
0
LINE
8
Layer 1
10
-4.383340
20
118.664584
11
-4.077373
21
118.827297
0
LINE
8
Layer 1
10
-4.077373
20
118.827297
11
-3.725222
21
119.344492
0
LINE
8
Layer 1
10
-5.046448
20
119.468234
11
-4.925215
21
118.666291
0
LINE
8
Layer 1
10
-4.925215
20
118.666291
11
-4.642340
21
118.666291
0
LINE
8
Layer 1
10
-4.642340
20
118.666291
11
-4.486469
21
118.666291
0
LINE
8
Layer 1
10
-4.486469
20
118.666291
11
-4.388329
21
118.666291
0
LINE
8
Layer 1
10
-4.388329
20
118.666291
11
-4.382556
21
118.666291
0
LINE
8
Layer 1
10
-4.382556
20
118.666291
11
-3.886081
21
119.363633
0
LINE
8
Layer 1
10
-3.886081
20
119.363633
11
-3.724437
21
119.363633
0
LINE
8
Layer 1
10
-3.724437
20
119.363633
11
-3.724437
21
119.369444
0
LINE
8
Layer 1
10
-3.724437
20
119.369444
11
-3.724437
21
119.532157
0
LINE
8
Layer 1
10
-3.724437
20
119.532157
11
-4.249778
21
119.532157
0
LINE
8
Layer 1
10
-4.249778
20
119.532157
11
-4.249778
21
119.363633
0
LINE
8
Layer 1
10
-4.249778
20
119.363633
11
-4.145864
21
119.363633
0
LINE
8
Layer 1
10
-4.145864
20
119.363633
11
-4.388329
21
119.003339
0
LINE
8
Layer 1
10
-4.388329
20
119.003339
11
-4.538426
21
119.003339
0
LINE
8
Layer 1
10
-4.538426
20
119.003339
11
-4.619248
21
119.526346
0
LINE
8
Layer 1
10
-4.174732
20
119.874717
11
-4.267099
21
119.874717
0
LINE
8
Layer 1
10
-4.267099
20
119.874717
11
-4.192049
21
119.927017
0
LINE
8
Layer 1
10
-3.678257
20
120.025805
11
-3.528158
21
120.025805
0
LINE
8
Layer 1
10
-3.528158
20
120.025805
11
-3.528158
21
119.857284
0
LINE
8
Layer 1
10
-3.528158
20
119.857284
11
-3.730213
21
119.706188
0
LINE
8
Layer 1
10
-4.728936
20
120.728955
11
-4.168958
21
120.728955
0
LINE
8
Layer 1
10
-4.168958
20
120.728955
11
-4.394104
21
120.577868
0
LINE
8
Layer 1
10
-4.394104
20
120.577868
11
-4.942537
21
120.583688
0
LINE
8
Layer 1
10
-4.942537
20
120.583688
11
-4.728936
21
120.728955
0
LINE
8
Layer 1
10
-4.405650
20
120.577868
11
-4.174732
21
120.723150
0
LINE
8
Layer 1
10
-4.174732
20
120.723150
11
-3.678257
21
120.025805
0
LINE
8
Layer 1
10
-3.678257
20
120.025805
11
-3.909175
21
119.880527
0
LINE
8
Layer 1
10
-3.909175
20
119.880527
11
-4.405650
21
120.577868
0
LINE
8
Layer 1
10
-4.630794
20
119.764307
11
-4.555747
21
120.240823
0
LINE
8
Layer 1
10
-4.555747
20
120.240823
11
-4.405650
21
120.240823
0
LINE
8
Layer 1
10
-4.405650
20
120.240823
11
-4.163183
21
119.880527
0
LINE
8
Layer 1
10
-4.163183
20
119.880527
11
-4.267099
21
119.880527
0
LINE
8
Layer 1
10
-4.267099
20
119.880527
11
-4.267099
21
119.712006
0
LINE
8
Layer 1
10
-4.267099
20
119.712006
11
-3.747533
21
119.712006
0
LINE
8
Layer 1
10
-3.747533
20
119.712006
11
-3.747533
21
119.880527
0
LINE
8
Layer 1
10
-3.747533
20
119.880527
11
-3.909175
21
119.880527
0
LINE
8
Layer 1
10
-3.909175
20
119.880527
11
-4.405650
21
120.577868
0
LINE
8
Layer 1
10
-4.405650
20
120.577868
11
-4.411423
21
120.577868
0
LINE
8
Layer 1
10
-4.411423
20
120.577868
11
-4.509562
21
120.577868
0
LINE
8
Layer 1
10
-4.509562
20
120.577868
11
-4.665434
21
120.577868
0
LINE
8
Layer 1
10
-4.665434
20
120.577868
11
-4.942536
21
120.577868
0
LINE
8
Layer 1
10
-4.942536
20
120.577868
11
-5.063766
21
119.793358
0
LINE
8
Layer 1
10
-4.609485
20
119.650351
11
-4.681128
21
119.449138
0
LINE
8
Layer 1
10
-4.681128
20
119.449138
11
-4.853695
21
119.365603
0
LINE
8
Layer 1
10
-4.853695
20
119.365603
11
-4.853695
21
119.365603
0
LINE
8
Layer 1
10
-4.853695
20
119.365603
11
-5.026262
21
119.449138
0
LINE
8
Layer 1
10
-5.026262
20
119.449138
11
-5.097905
21
119.650351
0
LINE
8
Layer 1
10
-5.097905
20
119.650351
11
-5.097905
21
119.650351
0
LINE
8
Layer 1
10
-5.097905
20
119.650351
11
-5.026262
21
119.851563
0
LINE
8
Layer 1
10
-5.026262
20
119.851563
11
-4.853695
21
119.935098
0
LINE
8
Layer 1
10
-4.853695
20
119.935098
11
-4.853695
21
119.935098
0
LINE
8
Layer 1
10
-4.853695
20
119.935098
11
-4.681128
21
119.851563
0
LINE
8
Layer 1
10
-4.681128
20
119.851563
11
-4.609485
21
119.650351
0
LINE
8
Layer 1
10
-4.609485
20
119.650351
11
-4.609485
21
119.650351
0
LINE
8
Layer 1
10
-4.689227
20
119.650351
11
-4.853695
21
119.458582
0
LINE
8
Layer 1
10
-4.853695
20
119.458582
11
-4.853695
21
119.458582
0
LINE
8
Layer 1
10
-4.853695
20
119.458582
11
-5.018163
21
119.650351
0
LINE
8
Layer 1
10
-5.018163
20
119.650351
11
-5.018163
21
119.650351
0
LINE
8
Layer 1
10
-5.018163
20
119.650351
11
-4.853695
21
119.842119
0
LINE
8
Layer 1
10
-4.853695
20
119.842119
11
-4.853695
21
119.842119
0
LINE
8
Layer 1
10
-4.853695
20
119.842119
11
-4.689227
21
119.650351
0
LINE
8
Layer 1
10
-4.689227
20
119.650351
11
-4.689227
21
119.650351
0
LINE
8
Layer 1
10
-2.465933
20
121.397241
11
-2.806539
21
121.769158
0
LINE
8
Layer 1
10
-2.263880
20
121.176423
11
-2.471707
21
121.403054
0
LINE
8
Layer 1
10
-2.142647
20
122.239867
11
-1.732768
21
121.757537
0
LINE
8
Layer 1
10
-2.500571
20
122.309595
11
-2.226356
21
122.304510
0
LINE
8
Layer 1
10
-2.226356
20
122.304510
11
-2.108009
21
122.129456
0
LINE
8
Layer 1
10
-2.108009
20
122.129456
11
-2.108009
21
122.129456
0
LINE
8
Layer 1
10
-2.108009
20
122.129456
11
-2.208316
21
121.886110
0
LINE
8
Layer 1
10
-2.208316
20
121.886110
11
-2.477479
21
121.716855
0
LINE
8
Layer 1
10
-2.477479
20
121.716855
11
-2.737263
21
121.710306
0
LINE
8
Layer 1
10
-2.737263
20
121.710306
11
-2.841177
21
121.873758
0
LINE
8
Layer 1
10
-2.841177
20
121.873758
11
-2.743035
21
122.146882
0
LINE
8
Layer 1
10
-2.494799
20
120.391903
11
-2.066246
21
120.214848
0
LINE
8
Layer 1
10
-2.066246
20
120.214848
11
-1.568958
21
120.230648
0
LINE
8
Layer 1
10
-1.568958
20
120.230648
11
-1.081412
21
120.422960
0
LINE
8
Layer 1
10
-1.081412
20
120.422960
11
-0.682084
21
120.775442
0
LINE
8
Layer 1
10
-0.202927
20
121.129928
11
-0.444132
21
120.575779
0
LINE
8
Layer 1
10
-0.444132
20
120.575779
11
-0.937541
21
120.170358
0
LINE
8
Layer 1
10
-0.937541
20
120.170358
11
-1.545687
21
119.981767
0
LINE
8
Layer 1
10
-1.545687
20
119.981767
11
-2.131101
21
120.078107
0
LINE
8
Layer 1
10
-2.131101
20
120.078107
11
-2.494799
21
120.391903
0
LINE
8
Layer 1
10
-0.376123
20
121.716855
11
-0.220252
21
121.426306
0
LINE
8
Layer 1
10
-0.220252
20
121.426306
11
-0.197165
21
121.205472
0
LINE
8
Layer 1
10
-2.096463
20
118.857758
11
-1.871319
21
118.822894
0
LINE
8
Layer 1
10
0.639920
20
116.730870
11
-0.104432
21
117.184507
0
LINE
8
Layer 1
10
-0.104432
20
117.184507
11
-1.119391
21
117.605455
0
LINE
8
Layer 1
10
-1.119391
20
117.605455
11
-2.149503
21
117.891293
0
LINE
8
Layer 1
10
-2.149503
20
117.891293
11
-2.939316
21
117.939597
0
LINE
8
Layer 1
10
0.865067
20
117.759453
11
1.003620
21
117.608360
0
LINE
8
Layer 1
10
0.074172
20
118.218531
11
0.276230
21
118.125554
0
LINE
8
Layer 1
10
-1.063102
20
118.631127
11
-0.751365
21
118.532331
0
LINE
8
Layer 1
10
-1.120832
20
118.724106
11
-1.063102
21
118.631127
0
LINE
8
Layer 1
10
-1.063102
20
118.631127
11
-1.386388
21
117.689717
0
LINE
8
Layer 1
10
-1.386388
20
117.689717
11
-2.142647
21
117.887297
0
LINE
8
Layer 1
10
-2.142647
20
117.887297
11
-2.171513
21
117.974458
0
LINE
8
Layer 1
10
-2.165739
20
117.974458
11
-1.848227
21
118.881007
0
LINE
8
Layer 1
10
-1.848227
20
118.881007
11
-1.120832
21
118.724106
0
LINE
8
Layer 1
10
-1.120832
20
118.724106
11
-1.438346
21
117.794312
0
LINE
8
Layer 1
10
-1.438346
20
117.794312
11
-2.165739
21
117.974458
0
LINE
8
Layer 1
10
-2.939316
20
117.933784
11
-2.979728
21
118.020945
0
LINE
8
Layer 1
10
-2.691080
20
117.945404
11
-2.939316
21
117.933789
0
LINE
8
Layer 1
10
-2.142647
20
118.944935
11
-2.084917
21
118.851950
0
LINE
8
Layer 1
10
-2.084917
20
118.851950
11
-2.442841
21
117.933784
0
LINE
8
Layer 1
10
-2.442841
20
117.933784
11
-2.691080
21
117.945399
0
LINE
8
Layer 1
10
-1.732768
20
121.757537
11
-1.617306
21
121.774973
0
LINE
8
Layer 1
10
-1.617306
20
121.774973
11
-1.532878
21
121.688534
0
LINE
8
Layer 1
10
-1.532878
20
121.688534
11
-1.478758
21
121.554150
0
LINE
8
Layer 1
10
-1.478758
20
121.554150
11
-1.478758
21
121.554150
0
LINE
8
Layer 1
10
-1.478758
20
121.554150
11
-1.338762
21
121.517106
0
LINE
8
Layer 1
10
-1.338762
20
121.517106
11
-1.242065
21
121.449549
0
LINE
8
Layer 1
10
-1.242065
20
121.449549
11
-1.242065
21
121.339863
0
LINE
8
Layer 1
10
-1.242065
20
121.339863
11
-1.294020
21
121.217103
0
LINE
8
Layer 1
10
-1.294020
20
121.217103
11
-1.211036
21
121.094341
0
LINE
8
Layer 1
10
-1.211036
20
121.094341
11
-1.184335
21
120.984659
0
LINE
8
Layer 1
10
-1.184335
20
120.984659
11
-1.262270
21
120.916370
0
LINE
8
Layer 1
10
-1.262270
20
120.916370
11
-1.392162
21
120.874243
0
LINE
8
Layer 1
10
-1.392162
20
120.874243
11
-1.415254
21
120.739859
0
LINE
8
Layer 1
10
-1.415254
20
120.739859
11
-1.472984
21
120.653417
0
LINE
8
Layer 1
10
-1.472984
20
120.653417
11
-1.585556
21
120.667946
0
LINE
8
Layer 1
10
-1.585556
20
120.667946
11
-1.715448
21
120.734773
0
LINE
8
Layer 1
10
-1.715448
20
120.734773
11
-1.828021
21
120.667946
0
LINE
8
Layer 1
10
-1.828021
20
120.667946
11
-1.940595
21
120.653417
0
LINE
8
Layer 1
10
-1.940595
20
120.653417
11
-2.020695
21
120.742040
0
LINE
8
Layer 1
10
-2.020695
20
120.742040
11
-2.079146
21
120.874243
0
LINE
8
Layer 1
10
-2.079146
20
120.874243
11
-2.219139
21
120.911289
0
LINE
8
Layer 1
10
-2.219139
20
120.911289
11
-2.315836
21
120.978840
0
LINE
8
Layer 1
10
-2.315836
20
120.978840
11
-2.315836
21
121.088529
0
LINE
8
Layer 1
10
-2.315836
20
121.088529
11
-2.263880
21
121.211290
0
LINE
8
Layer 1
10
-2.263880
20
121.211290
11
-2.346865
21
121.331874
0
LINE
8
Layer 1
10
-2.346865
20
121.331874
11
-2.373565
21
121.443739
0
LINE
8
Layer 1
10
-2.373565
20
121.443739
11
-2.295630
21
121.514204
0
LINE
8
Layer 1
10
-2.295630
20
121.514204
11
-2.165739
21
121.554150
0
LINE
8
Layer 1
10
-2.165739
20
121.554150
11
-2.142647
21
121.688534
0
LINE
8
Layer 1
10
-2.142647
20
121.688534
11
-2.084917
21
121.774973
0
LINE
8
Layer 1
10
-2.084917
20
121.774973
11
-1.972345
21
121.760447
0
LINE
8
Layer 1
10
-1.972345
20
121.760447
11
-1.842453
21
121.693619
0
LINE
8
Layer 1
10
-1.842453
20
121.693619
11
-1.732768
21
121.757543
0
LINE
8
Layer 1
10
-1.478758
20
121.234528
11
-1.519889
21
121.020969
0
LINE
8
Layer 1
10
-1.519889
20
121.020969
11
-1.703902
21
120.920725
0
LINE
8
Layer 1
10
-1.703902
20
120.920725
11
-1.926883
21
120.989008
0
LINE
8
Layer 1
10
-1.926883
20
120.989008
11
-2.050280
21
121.188036
0
LINE
8
Layer 1
10
-2.050280
20
121.188036
11
-2.050280
21
121.188036
0
LINE
8
Layer 1
10
-2.050280
20
121.188036
11
-2.009147
21
121.401601
0
LINE
8
Layer 1
10
-2.009147
20
121.401601
11
-1.825135
21
121.501839
0
LINE
8
Layer 1
10
-1.825135
20
121.501839
11
-1.606484
21
121.433557
0
LINE
8
Layer 1
10
-1.606484
20
121.433557
11
-1.478758
21
121.234528
0
LINE
8
Layer 1
10
-1.478758
20
121.234528
11
-1.478758
21
121.234528
0
LINE
8
Layer 1
10
-0.647449
20
118.590444
11
-0.751365
21
118.526521
0
LINE
8
Layer 1
10
-0.751365
20
118.526521
11
-1.103512
21
117.596734
0
LINE
8
Layer 1
10
-1.103512
20
117.596734
11
-0.353029
21
117.294557
0
LINE
8
Layer 1
10
-0.353029
20
117.294557
11
-0.249118
21
117.341041
0
LINE
8
Layer 1
10
-0.653221
20
118.584637
11
0.091488
21
118.270831
0
LINE
8
Layer 1
10
0.091488
20
118.270831
11
-0.254888
21
117.341041
0
LINE
8
Layer 1
10
-0.254888
20
117.341041
11
-0.993829
21
117.643224
0
LINE
8
Layer 1
10
-0.993829
20
117.643224
11
-0.653221
21
118.584637
0
LINE
8
Layer 1
10
0.397461
20
118.142984
11
0.276230
21
118.119754
0
LINE
8
Layer 1
10
0.276230
20
118.119754
11
-0.093247
21
117.172531
0
LINE
8
Layer 1
10
-0.093247
20
117.172531
11
0.466736
21
116.858728
0
LINE
8
Layer 1
10
0.466736
20
116.858728
11
0.564875
21
116.899410
0
LINE
8
Layer 1
10
0.397461
20
118.142984
11
0.882390
21
117.800127
0
LINE
8
Layer 1
10
0.882390
20
117.800127
11
0.564875
21
116.893586
0
LINE
8
Layer 1
10
0.564875
20
116.893586
11
0.022217
21
117.207384
0
LINE
8
Layer 1
10
0.022217
20
117.207384
11
0.397461
21
118.142984
0
LINE
8
Layer 1
10
-2.639122
20
118.933299
11
-2.142647
21
118.944941
0
LINE
8
Layer 1
10
-2.142647
20
118.944941
11
-2.494799
21
118.020956
0
LINE
8
Layer 1
10
-2.494799
20
118.020956
11
-2.979728
21
118.032571
0
LINE
8
Layer 1
10
-2.979728
20
118.032571
11
-2.639122
21
118.933299
0
LINE
8
Layer 1
10
0.986300
20
117.631604
11
1.084439
21
117.625783
0
LINE
8
Layer 1
10
1.084439
20
117.625783
11
0.772694
21
116.690191
0
LINE
8
Layer 1
10
0.772694
20
116.690191
11
0.686109
21
116.649509
0
LINE
8
Layer 1
10
0.686109
20
116.649509
11
0.697652
21
116.678565
0
LINE
8
Layer 1
10
0.697652
20
116.678565
11
0.639920
21
116.730860
0
LINE
8
Layer 1
10
0.639920
20
116.730860
11
0.986300
21
117.631604
0
LINE
8
Layer 1
10
-2.870040
20
115.307136
11
-3.204874
21
115.469841
0
LINE
8
Layer 1
10
-3.204874
20
115.469841
11
-3.164462
21
115.557014
0
LINE
8
Layer 1
10
-3.164462
20
115.557014
11
-2.881586
21
115.568629
0
LINE
8
Layer 1
10
-2.881586
20
115.568637
11
-0.174066
21
115.708104
0
LINE
8
Layer 1
10
-0.174066
20
115.708104
11
0.074172
21
115.539583
0
LINE
8
Layer 1
10
0.074172
20
115.539583
11
0.033758
21
115.458226
0
LINE
8
Layer 1
10
0.033758
20
115.458226
11
-2.870040
21
115.307136
0
LINE
8
Layer 1
10
-2.864268
20
114.621416
11
-3.204874
21
114.807376
0
LINE
8
Layer 1
10
-3.204874
20
114.807376
11
-3.164462
21
114.888727
0
LINE
8
Layer 1
10
-3.164462
20
114.888727
11
-2.870040
21
114.900342
0
LINE
8
Layer 1
10
-2.870040
20
114.900353
11
-0.768682
21
114.999140
0
LINE
8
Layer 1
10
-0.768682
20
114.999140
11
-0.520444
21
114.824809
0
LINE
8
Layer 1
10
-0.520444
20
114.824809
11
-0.555079
21
114.743450
0
LINE
8
Layer 1
10
-0.555079
20
114.743450
11
-2.864268
21
114.621416
0
LINE
8
Layer 1
10
-2.864268
20
113.935699
11
-3.170234
21
114.098415
0
LINE
8
Layer 1
10
-3.170234
20
114.098415
11
-3.135596
21
114.185577
0
LINE
8
Layer 1
10
-3.135596
20
114.185577
11
-2.864268
21
114.197192
0
LINE
8
Layer 1
10
-2.864268
20
114.197192
11
-1.374842
21
114.278554
0
LINE
8
Layer 1
10
-1.374842
20
114.278554
11
-1.143926
21
114.104223
0
LINE
8
Layer 1
10
-1.143926
20
114.104223
11
-1.178561
21
114.022863
0
LINE
8
Layer 1
10
-1.178561
20
114.022863
11
-2.864268
21
113.935699
0
LINE
8
Layer 1
10
-1.986776
20
113.575403
11
-1.750086
21
113.401062
0
LINE
8
Layer 1
10
-1.750086
20
113.401062
11
-1.784723
21
113.319710
0
LINE
8
Layer 1
10
-1.784723
20
113.319710
11
-2.852723
21
113.273220
0
LINE
8
Layer 1
10
-2.852723
20
113.273220
11
-3.135596
21
113.435934
0
LINE
8
Layer 1
10
-3.135596
20
113.435934
11
-3.100959
21
113.523098
0
LINE
8
Layer 1
10
-3.100959
20
113.523098
11
-1.986776
21
113.575403
0
LINE
8
Layer 1
10
-0.202927
20
123.541565
11
-1.270929
21
123.192897
0
LINE
8
Layer 1
10
-1.270929
20
123.192897
11
-0.982283
21
123.762391
0
LINE
8
Layer 1
10
-0.982283
20
123.762391
11
-0.410761
21
123.971597
0
LINE
8
Layer 1
10
-0.889916
20
121.176423
11
-0.786000
21
121.176423
0
LINE
8
Layer 1
10
-0.786000
20
121.176423
11
-0.526215
21
120.670850
0
LINE
8
Layer 1
10
-0.526215
20
120.670850
11
-0.630126
21
120.670850
0
LINE
8
Layer 1
10
-0.630126
20
120.670850
11
-0.889916
21
121.176423
0
LINE
8
Layer 1
10
-1.167015
20
121.914443
11
-0.982283
21
121.681988
0
LINE
8
Layer 1
10
-0.953417
20
121.397241
11
-1.317115
21
121.856322
0
LINE
8
Layer 1
10
-1.585166
20
122.446336
11
-1.533210
21
122.527692
0
LINE
8
Layer 1
10
-1.533210
20
122.527692
11
-1.423523
21
122.498636
0
LINE
8
Layer 1
10
-1.423523
20
122.498636
11
-1.308064
21
122.568370
0
LINE
8
Layer 1
10
-1.308064
20
122.568370
11
-1.244561
21
122.487014
0
LINE
8
Layer 1
10
-1.244561
20
122.487014
11
-1.146421
21
122.510259
0
LINE
8
Layer 1
10
-1.637123
20
121.783861
11
-1.665988
21
121.801295
0
LINE
8
Layer 1
10
-1.665988
20
121.801295
11
-1.787220
21
121.789672
0
LINE
8
Layer 1
10
-1.787220
20
121.789672
11
-1.787220
21
121.905896
0
LINE
8
Layer 1
10
-1.787220
20
121.905896
11
-1.879588
21
121.958196
0
LINE
8
Layer 1
10
-1.879588
20
121.958196
11
-1.821858
21
122.074420
0
LINE
8
Layer 1
10
-1.821858
20
122.074420
11
-1.862269
21
122.173210
0
LINE
8
Layer 1
10
-1.862269
20
122.173210
11
-1.758356
21
122.260378
0
LINE
8
Layer 1
10
-1.758356
20
122.260378
11
-1.735264
21
122.382413
0
LINE
8
Layer 1
10
-1.059826
20
122.091854
11
-1.152194
21
122.027931
0
LINE
8
Layer 1
10
-1.152194
20
122.027931
11
-1.175286
21
121.905896
0
LINE
8
Layer 1
10
-1.175286
20
121.905896
11
-1.296518
21
121.871029
0
LINE
8
Layer 1
10
-1.296518
20
121.871029
11
-1.377339
21
121.760616
0
LINE
8
Layer 1
10
-1.377339
20
121.760616
11
-1.487026
21
121.789672
0
LINE
8
Layer 1
10
-1.487026
20
121.789672
11
-1.544756
21
121.743183
0
LINE
8
Layer 1
10
-1.469707
20
122.289434
11
-1.435069
21
122.295245
0
LINE
8
Layer 1
10
-1.435069
20
122.295245
11
-1.435069
21
122.295245
0
LINE
8
Layer 1
10
-1.435069
20
122.295245
11
-1.336929
21
122.161588
0
LINE
8
Layer 1
10
-1.336929
20
122.161588
11
-1.336929
21
122.161588
0
LINE
8
Layer 1
10
-1.336929
20
122.161588
11
-1.510118
21
122.027931
0
LINE
8
Layer 1
10
-1.510118
20
122.027931
11
-1.510118
21
122.027931
0
LINE
8
Layer 1
10
-1.510118
20
122.027931
11
-1.608258
21
122.161588
0
LINE
8
Layer 1
10
-1.608258
20
122.161588
11
-1.608258
21
122.161588
0
LINE
8
Layer 1
10
-1.608258
20
122.161588
11
-1.590939
21
122.202266
0
LINE
8
Layer 1
10
-2.084917
20
123.099915
11
-1.397934
21
122.199185
0
LINE
8
Layer 1
10
-1.397934
20
122.199185
11
-1.519167
21
122.106207
0
LINE
8
Layer 1
10
-1.519167
20
122.106207
11
-1.732768
21
122.385144
0
LINE
8
Layer 1
10
-1.732768
20
122.385144
11
-2.200377
21
122.995315
0
LINE
8
Layer 1
10
-1.288249
20
124.971115
11
-1.322887
21
124.082002
0
LINE
8
Layer 1
10
-1.322887
20
124.082002
11
-1.519708
21
123.674403
0
LINE
8
Layer 1
10
-1.519708
20
123.674403
11
-1.979561
21
123.192169
0
LINE
8
Layer 1
10
-1.979561
20
123.192169
11
-3.476202
21
121.949304
0
LINE
8
Layer 1
10
-3.476202
20
121.949304
11
-4.030407
21
121.647849
0
LINE
8
Layer 1
10
-4.030407
20
121.647849
11
-4.567293
21
121.559957
0
LINE
8
Layer 1
10
-4.099682
20
126.348365
11
-4.562060
21
126.477028
0
LINE
8
Layer 1
10
-4.562060
20
126.477028
11
-4.923772
21
126.431900
0
LINE
8
Layer 1
10
-4.923772
20
126.431900
11
-5.739205
21
125.744001
0
LINE
8
Layer 1
10
-5.739205
20
125.744001
11
-6.198877
21
125.181771
0
LINE
8
Layer 1
10
-6.198877
20
125.181771
11
-6.279067
21
124.845086
0
LINE
8
Layer 1
10
-6.279067
20
124.845086
11
-6.177950
21
124.366754
0
LINE
8
Layer 1
10
-3.597436
20
126.569191
11
-3.747533
21
126.522701
0
LINE
8
Layer 1
10
-3.747533
20
126.522701
11
-4.885979
21
125.784408
0
LINE
8
Layer 1
10
-4.885979
20
125.784408
11
-5.975174
21
124.634792
0
LINE
8
Layer 1
10
-5.975174
20
124.634792
11
-6.773196
21
123.311931
0
LINE
8
Layer 1
10
-6.773196
20
123.311931
11
-6.987416
21
122.659932
0
LINE
8
Layer 1
10
-6.987416
20
122.659932
11
-7.038120
21
122.053902
0
LINE
8
Layer 1
10
-7.038120
20
122.053902
11
-6.852664
21
121.348577
0
LINE
8
Layer 1
10
-6.852664
20
121.348577
11
-6.629774
21
121.126392
0
LINE
8
Layer 1
10
-6.629774
20
121.126392
11
-6.281864
21
121.013712
0
LINE
8
Layer 1
10
-6.281864
20
121.013712
11
-5.663051
21
121.061084
0
LINE
8
Layer 1
10
-5.663051
20
121.061084
11
-5.021372
21
121.296821
0
LINE
8
Layer 1
10
-5.021372
20
121.296821
11
-3.735985
21
122.162865
0
LINE
8
Layer 1
10
-3.735985
20
122.162865
11
-1.623081
21
124.279582
0
LINE
8
Layer 1
10
-1.623081
20
124.279582
11
-1.623081
21
124.279582
0
LINE
8
Layer 1
10
-1.623081
20
124.279582
11
-1.366545
21
124.677650
0
LINE
8
Layer 1
10
-1.366545
20
124.677650
11
-1.282115
21
125.073537
0
LINE
8
Layer 1
10
-1.282115
20
125.073537
11
-1.532157
21
125.802114
0
LINE
8
Layer 1
10
-1.532157
20
125.802114
11
-2.178368
21
126.351997
0
LINE
8
Layer 1
10
-2.178368
20
126.351997
11
-3.025911
21
126.609868
0
LINE
8
Layer 1
10
-3.118279
20
126.615678
11
-3.505068
21
126.586622
0
LINE
8
Layer 1
10
-3.938039
20
125.900904
11
-3.392134
21
126.121184
0
LINE
8
Layer 1
10
-3.392134
20
126.121184
11
-2.878701
21
126.046183
0
LINE
8
Layer 1
10
-2.878701
20
126.046183
11
-2.499489
21
125.709680
0
LINE
8
Layer 1
10
-2.499489
20
125.709680
11
-2.356248
21
125.145451
0
LINE
8
Layer 1
10
-2.356248
20
125.145451
11
-2.564074
21
124.610824
0
LINE
8
Layer 1
10
-2.564074
20
124.610824
11
-3.226521
21
123.941812
0
LINE
8
Layer 1
10
-3.226521
20
123.941812
11
-4.053498
21
123.547380
0
LINE
8
Layer 1
10
-4.053498
20
123.547380
11
-4.482863
21
123.552458
0
LINE
8
Layer 1
10
-4.482863
20
123.552458
11
-4.873259
21
123.744953
0
LINE
8
Layer 1
10
-4.873259
20
123.744953
11
-5.028408
21
123.995565
0
LINE
8
Layer 1
10
-5.028408
20
123.995565
11
-5.023356
21
124.389995
0
LINE
8
Layer 1
10
-5.023356
20
124.389995
11
-4.606260
21
125.213005
0
LINE
8
Layer 1
10
-4.606260
20
125.213005
11
-3.938039
21
125.900904
0
LINE
8
Layer 1
10
-3.938039
20
125.900904
11
-3.938039
21
125.900904
0
LINE
8
Layer 1
10
-0.179834
20
121.165098
11
-0.387661
21
121.554447
0
LINE
8
Layer 1
10
-0.387661
20
121.554447
11
-0.635898
21
123.309424
0
LINE
8
Layer 1
10
-0.635898
20
123.309424
11
-1.126601
21
123.152522
0
LINE
8
Layer 1
10
-1.126601
20
123.152522
11
-0.785996
21
121.176721
0
LINE
8
Layer 1
10
-0.785996
20
121.176721
11
-0.526212
21
120.676959
0
LINE
8
Layer 1
10
-0.526212
20
120.676959
11
-0.179834
21
121.165098
0
LINE
8
Layer 1
10
-0.139423
20
123.466326
11
-1.126601
21
123.152522
0
LINE
8
Layer 1
10
-1.126601
20
123.152522
11
-0.785996
21
121.176721
0
LINE
8
Layer 1
10
-0.785996
20
121.176721
11
-0.889909
21
121.176721
0
LINE
8
Layer 1
10
-0.889909
20
121.176721
11
-1.265152
21
123.193200
0
LINE
8
Layer 1
10
-1.265152
20
123.193200
11
-0.202926
21
123.541871
0
LINE
8
Layer 1
10
-2.950862
20
126.400665
11
-3.808148
21
128.557337
0
LINE
8
Layer 1
10
-3.808148
20
128.557337
11
-4.334209
21
129.505194
0
LINE
8
Layer 1
10
-4.334209
20
129.505194
11
-5.046448
21
130.456865
0
LINE
8
Layer 1
10
-5.046448
20
130.456865
11
-5.034904
21
130.352265
0
LINE
8
Layer 1
10
-5.034904
20
130.352265
11
-4.350988
21
129.406133
0
LINE
8
Layer 1
10
-4.350988
20
129.406133
11
-3.858663
21
128.492689
0
LINE
8
Layer 1
10
-3.858663
20
128.492689
11
-3.037459
21
126.389042
0
LINE
8
Layer 1
10
-3.037459
20
126.389042
11
-2.950864
21
126.400657
0
LINE
8
Layer 1
10
-2.950864
20
126.400657
11
-2.950862
21
126.400665
0
LINE
8
Layer 1
10
0.738059
20
124.273772
11
0.917022
21
124.186613
0
LINE
8
Layer 1
10
0.917022
20
124.186613
11
0.870841
21
123.994838
0
LINE
8
Layer 1
10
0.870841
20
123.994838
11
0.980526
21
123.832130
0
LINE
8
Layer 1
10
0.980526
20
123.832130
11
0.841980
21
123.692660
0
LINE
8
Layer 1
10
0.841980
20
123.692660
11
0.859295
21
123.495080
0
LINE
8
Layer 1
10
0.859295
20
123.495080
11
0.777027
21
123.458031
0
LINE
8
Layer 1
10
0.777027
20
123.458031
11
0.668784
21
123.442775
0
LINE
8
Layer 1
10
0.668784
20
123.442775
11
0.582196
21
123.268439
0
LINE
8
Layer 1
10
0.582196
20
123.268439
11
0.391687
21
123.314931
0
LINE
8
Layer 1
10
0.391687
20
123.314931
11
0.230036
21
123.204518
0
LINE
8
Layer 1
10
0.230036
20
123.204518
11
0.085721
21
123.338180
0
LINE
8
Layer 1
10
0.085721
20
123.338180
11
-0.110562
21
123.320744
0
LINE
8
Layer 1
10
-0.110562
20
123.320744
11
-0.168292
21
123.506706
0
LINE
8
Layer 1
10
-0.168292
20
123.506706
11
-0.347257
21
123.593868
0
LINE
8
Layer 1
10
-0.347257
20
123.593868
11
-0.301071
21
123.785637
0
LINE
8
Layer 1
10
-0.301071
20
123.785637
11
-0.410759
21
123.948351
0
LINE
8
Layer 1
10
-0.410759
20
123.948351
11
-0.272208
21
124.087820
0
LINE
8
Layer 1
10
-0.272208
20
124.087820
11
-0.289523
21
124.285395
0
LINE
8
Layer 1
10
-0.289523
20
124.285395
11
-0.207257
21
124.322445
0
LINE
8
Layer 1
10
-0.207257
20
124.322445
11
-0.099014
21
124.337703
0
LINE
8
Layer 1
10
-0.099014
20
124.337703
11
-0.012421
21
124.512039
0
LINE
8
Layer 1
10
-0.012421
20
124.512039
11
0.178091
21
124.465550
0
LINE
8
Layer 1
10
0.178091
20
124.465550
11
0.339734
21
124.575957
0
LINE
8
Layer 1
10
0.339734
20
124.575957
11
0.484051
21
124.442301
0
LINE
8
Layer 1
10
0.484051
20
124.442301
11
0.680337
21
124.459737
0
LINE
8
Layer 1
10
0.680337
20
124.459737
11
0.738064
21
124.273775
0
LINE
8
Layer 1
10
0.738064
20
124.273775
11
0.738059
21
124.273772
0
LINE
8
Layer 1
10
0.622605
20
123.890238
11
0.524461
21
123.654886
0
LINE
8
Layer 1
10
0.524461
20
123.654886
11
0.287768
21
123.559004
0
LINE
8
Layer 1
10
0.287768
20
123.559004
11
0.287768
21
123.559004
0
LINE
8
Layer 1
10
0.287768
20
123.559004
11
0.051079
21
123.657066
0
LINE
8
Layer 1
10
0.051079
20
123.657066
11
-0.047058
21
123.890238
0
LINE
8
Layer 1
10
-0.047058
20
123.890238
11
-0.047058
21
123.890238
0
LINE
8
Layer 1
10
-0.047058
20
123.890238
11
0.051079
21
124.125589
0
LINE
8
Layer 1
10
0.051079
20
124.125589
11
0.287768
21
124.221472
0
LINE
8
Layer 1
10
0.287768
20
124.221472
11
0.287768
21
124.221472
0
LINE
8
Layer 1
10
0.287768
20
124.221472
11
0.524461
21
124.125589
0
LINE
8
Layer 1
10
0.524461
20
124.125589
11
0.622605
21
123.890238
0
LINE
8
Layer 1
10
0.622605
20
123.890238
11
0.622605
21
123.890238
0
LINE
8
Layer 1
10
-2.714171
20
122.571101
11
-2.362020
21
122.123643
0
LINE
8
Layer 1
10
-2.362020
20
122.123643
11
-2.581392
21
121.949304
0
LINE
8
Layer 1
10
-2.581392
20
121.949304
11
-2.927770
21
122.390957
0
LINE
8
Layer 1
10
1.084439
20
117.625791
11
1.090211
21
117.515380
0
LINE
8
Layer 1
10
1.090211
20
117.515380
11
0.772692
21
116.684383
0
LINE
8
Layer 1
10
0.772692
20
116.684383
11
0.732280
21
116.725052
0
LINE
8
Layer 1
10
0.732280
20
116.725052
11
1.084439
21
117.625791
 0 
ENDSEC
 0 
EOF