%TF.GenerationSoftware,KiCad,Pcbnew,8.0.1*%
%TF.CreationDate,2024-05-05T15:46:48-04:00*%
%TF.ProjectId,Main,4d61696e-2e6b-4696-9361-645f70636258,0*%
%TF.SameCoordinates,Original*%
%TF.FileFunction,Drillmap*%
%TF.FilePolarity,Positive*%
%FSLAX45Y45*%
G04 Gerber Fmt 4.5, Leading zero omitted, Abs format (unit mm)*
G04 Created by KiCad (PCBNEW 8.0.1) date 2024-05-05 15:46:48*
%MOMM*%
%LPD*%
G01*
G04 APERTURE LIST*
%ADD10C,0.050000*%
%ADD11C,0.200000*%
%ADD12C,0.320000*%
G04 APERTURE END LIST*
D10*
X8990000Y-4065600D02*
X16990000Y-4065600D01*
X16990000Y-14065600D01*
X8990000Y-14065600D01*
X8990000Y-4065600D01*
D11*
D12*
X11947000Y-5840000D02*
X12267000Y-6160000D01*
X12267000Y-5840000D02*
X11947000Y-6160000D01*
X13090000Y-5840000D02*
X13410000Y-6160000D01*
X13410000Y-5840000D02*
X13090000Y-6160000D01*
D11*
X9248277Y-14379584D02*
X9248277Y-14179584D01*
X9248277Y-14179584D02*
X9295896Y-14179584D01*
X9295896Y-14179584D02*
X9324467Y-14189108D01*
X9324467Y-14189108D02*
X9343515Y-14208155D01*
X9343515Y-14208155D02*
X9353039Y-14227203D01*
X9353039Y-14227203D02*
X9362563Y-14265298D01*
X9362563Y-14265298D02*
X9362563Y-14293869D01*
X9362563Y-14293869D02*
X9353039Y-14331965D01*
X9353039Y-14331965D02*
X9343515Y-14351012D01*
X9343515Y-14351012D02*
X9324467Y-14370060D01*
X9324467Y-14370060D02*
X9295896Y-14379584D01*
X9295896Y-14379584D02*
X9248277Y-14379584D01*
X9448277Y-14379584D02*
X9448277Y-14246250D01*
X9448277Y-14284346D02*
X9457801Y-14265298D01*
X9457801Y-14265298D02*
X9467324Y-14255774D01*
X9467324Y-14255774D02*
X9486372Y-14246250D01*
X9486372Y-14246250D02*
X9505420Y-14246250D01*
X9572086Y-14379584D02*
X9572086Y-14246250D01*
X9572086Y-14179584D02*
X9562563Y-14189108D01*
X9562563Y-14189108D02*
X9572086Y-14198631D01*
X9572086Y-14198631D02*
X9581610Y-14189108D01*
X9581610Y-14189108D02*
X9572086Y-14179584D01*
X9572086Y-14179584D02*
X9572086Y-14198631D01*
X9695896Y-14379584D02*
X9676848Y-14370060D01*
X9676848Y-14370060D02*
X9667324Y-14351012D01*
X9667324Y-14351012D02*
X9667324Y-14179584D01*
X9800658Y-14379584D02*
X9781610Y-14370060D01*
X9781610Y-14370060D02*
X9772086Y-14351012D01*
X9772086Y-14351012D02*
X9772086Y-14179584D01*
X10029229Y-14379584D02*
X10029229Y-14179584D01*
X10029229Y-14179584D02*
X10095896Y-14322441D01*
X10095896Y-14322441D02*
X10162563Y-14179584D01*
X10162563Y-14179584D02*
X10162563Y-14379584D01*
X10343515Y-14379584D02*
X10343515Y-14274822D01*
X10343515Y-14274822D02*
X10333991Y-14255774D01*
X10333991Y-14255774D02*
X10314944Y-14246250D01*
X10314944Y-14246250D02*
X10276848Y-14246250D01*
X10276848Y-14246250D02*
X10257801Y-14255774D01*
X10343515Y-14370060D02*
X10324467Y-14379584D01*
X10324467Y-14379584D02*
X10276848Y-14379584D01*
X10276848Y-14379584D02*
X10257801Y-14370060D01*
X10257801Y-14370060D02*
X10248277Y-14351012D01*
X10248277Y-14351012D02*
X10248277Y-14331965D01*
X10248277Y-14331965D02*
X10257801Y-14312917D01*
X10257801Y-14312917D02*
X10276848Y-14303393D01*
X10276848Y-14303393D02*
X10324467Y-14303393D01*
X10324467Y-14303393D02*
X10343515Y-14293869D01*
X10438753Y-14246250D02*
X10438753Y-14446250D01*
X10438753Y-14255774D02*
X10457801Y-14246250D01*
X10457801Y-14246250D02*
X10495896Y-14246250D01*
X10495896Y-14246250D02*
X10514944Y-14255774D01*
X10514944Y-14255774D02*
X10524467Y-14265298D01*
X10524467Y-14265298D02*
X10533991Y-14284346D01*
X10533991Y-14284346D02*
X10533991Y-14341488D01*
X10533991Y-14341488D02*
X10524467Y-14360536D01*
X10524467Y-14360536D02*
X10514944Y-14370060D01*
X10514944Y-14370060D02*
X10495896Y-14379584D01*
X10495896Y-14379584D02*
X10457801Y-14379584D01*
X10457801Y-14379584D02*
X10438753Y-14370060D01*
X10619705Y-14360536D02*
X10629229Y-14370060D01*
X10629229Y-14370060D02*
X10619705Y-14379584D01*
X10619705Y-14379584D02*
X10610182Y-14370060D01*
X10610182Y-14370060D02*
X10619705Y-14360536D01*
X10619705Y-14360536D02*
X10619705Y-14379584D01*
X10619705Y-14255774D02*
X10629229Y-14265298D01*
X10629229Y-14265298D02*
X10619705Y-14274822D01*
X10619705Y-14274822D02*
X10610182Y-14265298D01*
X10610182Y-14265298D02*
X10619705Y-14255774D01*
X10619705Y-14255774D02*
X10619705Y-14274822D01*
X8787500Y-14608100D02*
X8987500Y-14808100D01*
X8987500Y-14608100D02*
X8787500Y-14808100D01*
X9229229Y-14599584D02*
X9353039Y-14599584D01*
X9353039Y-14599584D02*
X9286372Y-14675774D01*
X9286372Y-14675774D02*
X9314944Y-14675774D01*
X9314944Y-14675774D02*
X9333991Y-14685298D01*
X9333991Y-14685298D02*
X9343515Y-14694822D01*
X9343515Y-14694822D02*
X9353039Y-14713869D01*
X9353039Y-14713869D02*
X9353039Y-14761488D01*
X9353039Y-14761488D02*
X9343515Y-14780536D01*
X9343515Y-14780536D02*
X9333991Y-14790060D01*
X9333991Y-14790060D02*
X9314944Y-14799584D01*
X9314944Y-14799584D02*
X9257801Y-14799584D01*
X9257801Y-14799584D02*
X9238753Y-14790060D01*
X9238753Y-14790060D02*
X9229229Y-14780536D01*
X9438753Y-14780536D02*
X9448277Y-14790060D01*
X9448277Y-14790060D02*
X9438753Y-14799584D01*
X9438753Y-14799584D02*
X9429229Y-14790060D01*
X9429229Y-14790060D02*
X9438753Y-14780536D01*
X9438753Y-14780536D02*
X9438753Y-14799584D01*
X9524467Y-14618631D02*
X9533991Y-14609108D01*
X9533991Y-14609108D02*
X9553039Y-14599584D01*
X9553039Y-14599584D02*
X9600658Y-14599584D01*
X9600658Y-14599584D02*
X9619705Y-14609108D01*
X9619705Y-14609108D02*
X9629229Y-14618631D01*
X9629229Y-14618631D02*
X9638753Y-14637679D01*
X9638753Y-14637679D02*
X9638753Y-14656727D01*
X9638753Y-14656727D02*
X9629229Y-14685298D01*
X9629229Y-14685298D02*
X9514944Y-14799584D01*
X9514944Y-14799584D02*
X9638753Y-14799584D01*
X9762563Y-14599584D02*
X9781610Y-14599584D01*
X9781610Y-14599584D02*
X9800658Y-14609108D01*
X9800658Y-14609108D02*
X9810182Y-14618631D01*
X9810182Y-14618631D02*
X9819705Y-14637679D01*
X9819705Y-14637679D02*
X9829229Y-14675774D01*
X9829229Y-14675774D02*
X9829229Y-14723393D01*
X9829229Y-14723393D02*
X9819705Y-14761488D01*
X9819705Y-14761488D02*
X9810182Y-14780536D01*
X9810182Y-14780536D02*
X9800658Y-14790060D01*
X9800658Y-14790060D02*
X9781610Y-14799584D01*
X9781610Y-14799584D02*
X9762563Y-14799584D01*
X9762563Y-14799584D02*
X9743515Y-14790060D01*
X9743515Y-14790060D02*
X9733991Y-14780536D01*
X9733991Y-14780536D02*
X9724467Y-14761488D01*
X9724467Y-14761488D02*
X9714944Y-14723393D01*
X9714944Y-14723393D02*
X9714944Y-14675774D01*
X9714944Y-14675774D02*
X9724467Y-14637679D01*
X9724467Y-14637679D02*
X9733991Y-14618631D01*
X9733991Y-14618631D02*
X9743515Y-14609108D01*
X9743515Y-14609108D02*
X9762563Y-14599584D01*
X9953039Y-14599584D02*
X9972086Y-14599584D01*
X9972086Y-14599584D02*
X9991134Y-14609108D01*
X9991134Y-14609108D02*
X10000658Y-14618631D01*
X10000658Y-14618631D02*
X10010182Y-14637679D01*
X10010182Y-14637679D02*
X10019705Y-14675774D01*
X10019705Y-14675774D02*
X10019705Y-14723393D01*
X10019705Y-14723393D02*
X10010182Y-14761488D01*
X10010182Y-14761488D02*
X10000658Y-14780536D01*
X10000658Y-14780536D02*
X9991134Y-14790060D01*
X9991134Y-14790060D02*
X9972086Y-14799584D01*
X9972086Y-14799584D02*
X9953039Y-14799584D01*
X9953039Y-14799584D02*
X9933991Y-14790060D01*
X9933991Y-14790060D02*
X9924467Y-14780536D01*
X9924467Y-14780536D02*
X9914944Y-14761488D01*
X9914944Y-14761488D02*
X9905420Y-14723393D01*
X9905420Y-14723393D02*
X9905420Y-14675774D01*
X9905420Y-14675774D02*
X9914944Y-14637679D01*
X9914944Y-14637679D02*
X9924467Y-14618631D01*
X9924467Y-14618631D02*
X9933991Y-14609108D01*
X9933991Y-14609108D02*
X9953039Y-14599584D01*
X10105420Y-14799584D02*
X10105420Y-14666250D01*
X10105420Y-14685298D02*
X10114944Y-14675774D01*
X10114944Y-14675774D02*
X10133991Y-14666250D01*
X10133991Y-14666250D02*
X10162563Y-14666250D01*
X10162563Y-14666250D02*
X10181610Y-14675774D01*
X10181610Y-14675774D02*
X10191134Y-14694822D01*
X10191134Y-14694822D02*
X10191134Y-14799584D01*
X10191134Y-14694822D02*
X10200658Y-14675774D01*
X10200658Y-14675774D02*
X10219705Y-14666250D01*
X10219705Y-14666250D02*
X10248277Y-14666250D01*
X10248277Y-14666250D02*
X10267325Y-14675774D01*
X10267325Y-14675774D02*
X10276848Y-14694822D01*
X10276848Y-14694822D02*
X10276848Y-14799584D01*
X10372086Y-14799584D02*
X10372086Y-14666250D01*
X10372086Y-14685298D02*
X10381610Y-14675774D01*
X10381610Y-14675774D02*
X10400658Y-14666250D01*
X10400658Y-14666250D02*
X10429229Y-14666250D01*
X10429229Y-14666250D02*
X10448277Y-14675774D01*
X10448277Y-14675774D02*
X10457801Y-14694822D01*
X10457801Y-14694822D02*
X10457801Y-14799584D01*
X10457801Y-14694822D02*
X10467325Y-14675774D01*
X10467325Y-14675774D02*
X10486372Y-14666250D01*
X10486372Y-14666250D02*
X10514944Y-14666250D01*
X10514944Y-14666250D02*
X10533991Y-14675774D01*
X10533991Y-14675774D02*
X10543515Y-14694822D01*
X10543515Y-14694822D02*
X10543515Y-14799584D01*
X10933991Y-14590060D02*
X10762563Y-14847203D01*
X11191134Y-14599584D02*
X11210182Y-14599584D01*
X11210182Y-14599584D02*
X11229229Y-14609108D01*
X11229229Y-14609108D02*
X11238753Y-14618631D01*
X11238753Y-14618631D02*
X11248277Y-14637679D01*
X11248277Y-14637679D02*
X11257801Y-14675774D01*
X11257801Y-14675774D02*
X11257801Y-14723393D01*
X11257801Y-14723393D02*
X11248277Y-14761488D01*
X11248277Y-14761488D02*
X11238753Y-14780536D01*
X11238753Y-14780536D02*
X11229229Y-14790060D01*
X11229229Y-14790060D02*
X11210182Y-14799584D01*
X11210182Y-14799584D02*
X11191134Y-14799584D01*
X11191134Y-14799584D02*
X11172087Y-14790060D01*
X11172087Y-14790060D02*
X11162563Y-14780536D01*
X11162563Y-14780536D02*
X11153039Y-14761488D01*
X11153039Y-14761488D02*
X11143515Y-14723393D01*
X11143515Y-14723393D02*
X11143515Y-14675774D01*
X11143515Y-14675774D02*
X11153039Y-14637679D01*
X11153039Y-14637679D02*
X11162563Y-14618631D01*
X11162563Y-14618631D02*
X11172087Y-14609108D01*
X11172087Y-14609108D02*
X11191134Y-14599584D01*
X11343515Y-14780536D02*
X11353039Y-14790060D01*
X11353039Y-14790060D02*
X11343515Y-14799584D01*
X11343515Y-14799584D02*
X11333991Y-14790060D01*
X11333991Y-14790060D02*
X11343515Y-14780536D01*
X11343515Y-14780536D02*
X11343515Y-14799584D01*
X11543515Y-14799584D02*
X11429229Y-14799584D01*
X11486372Y-14799584D02*
X11486372Y-14599584D01*
X11486372Y-14599584D02*
X11467325Y-14628155D01*
X11467325Y-14628155D02*
X11448277Y-14647203D01*
X11448277Y-14647203D02*
X11429229Y-14656727D01*
X11619706Y-14618631D02*
X11629229Y-14609108D01*
X11629229Y-14609108D02*
X11648277Y-14599584D01*
X11648277Y-14599584D02*
X11695896Y-14599584D01*
X11695896Y-14599584D02*
X11714944Y-14609108D01*
X11714944Y-14609108D02*
X11724467Y-14618631D01*
X11724467Y-14618631D02*
X11733991Y-14637679D01*
X11733991Y-14637679D02*
X11733991Y-14656727D01*
X11733991Y-14656727D02*
X11724467Y-14685298D01*
X11724467Y-14685298D02*
X11610182Y-14799584D01*
X11610182Y-14799584D02*
X11733991Y-14799584D01*
X11905420Y-14599584D02*
X11867325Y-14599584D01*
X11867325Y-14599584D02*
X11848277Y-14609108D01*
X11848277Y-14609108D02*
X11838753Y-14618631D01*
X11838753Y-14618631D02*
X11819706Y-14647203D01*
X11819706Y-14647203D02*
X11810182Y-14685298D01*
X11810182Y-14685298D02*
X11810182Y-14761488D01*
X11810182Y-14761488D02*
X11819706Y-14780536D01*
X11819706Y-14780536D02*
X11829229Y-14790060D01*
X11829229Y-14790060D02*
X11848277Y-14799584D01*
X11848277Y-14799584D02*
X11886372Y-14799584D01*
X11886372Y-14799584D02*
X11905420Y-14790060D01*
X11905420Y-14790060D02*
X11914944Y-14780536D01*
X11914944Y-14780536D02*
X11924467Y-14761488D01*
X11924467Y-14761488D02*
X11924467Y-14713869D01*
X11924467Y-14713869D02*
X11914944Y-14694822D01*
X11914944Y-14694822D02*
X11905420Y-14685298D01*
X11905420Y-14685298D02*
X11886372Y-14675774D01*
X11886372Y-14675774D02*
X11848277Y-14675774D01*
X11848277Y-14675774D02*
X11829229Y-14685298D01*
X11829229Y-14685298D02*
X11819706Y-14694822D01*
X11819706Y-14694822D02*
X11810182Y-14713869D01*
X12048277Y-14599584D02*
X12067325Y-14599584D01*
X12067325Y-14599584D02*
X12086372Y-14609108D01*
X12086372Y-14609108D02*
X12095896Y-14618631D01*
X12095896Y-14618631D02*
X12105420Y-14637679D01*
X12105420Y-14637679D02*
X12114944Y-14675774D01*
X12114944Y-14675774D02*
X12114944Y-14723393D01*
X12114944Y-14723393D02*
X12105420Y-14761488D01*
X12105420Y-14761488D02*
X12095896Y-14780536D01*
X12095896Y-14780536D02*
X12086372Y-14790060D01*
X12086372Y-14790060D02*
X12067325Y-14799584D01*
X12067325Y-14799584D02*
X12048277Y-14799584D01*
X12048277Y-14799584D02*
X12029229Y-14790060D01*
X12029229Y-14790060D02*
X12019706Y-14780536D01*
X12019706Y-14780536D02*
X12010182Y-14761488D01*
X12010182Y-14761488D02*
X12000658Y-14723393D01*
X12000658Y-14723393D02*
X12000658Y-14675774D01*
X12000658Y-14675774D02*
X12010182Y-14637679D01*
X12010182Y-14637679D02*
X12019706Y-14618631D01*
X12019706Y-14618631D02*
X12029229Y-14609108D01*
X12029229Y-14609108D02*
X12048277Y-14599584D01*
X12191134Y-14599584D02*
X12191134Y-14637679D01*
X12267325Y-14599584D02*
X12267325Y-14637679D01*
X12562563Y-14875774D02*
X12553039Y-14866250D01*
X12553039Y-14866250D02*
X12533991Y-14837679D01*
X12533991Y-14837679D02*
X12524468Y-14818631D01*
X12524468Y-14818631D02*
X12514944Y-14790060D01*
X12514944Y-14790060D02*
X12505420Y-14742441D01*
X12505420Y-14742441D02*
X12505420Y-14704346D01*
X12505420Y-14704346D02*
X12514944Y-14656727D01*
X12514944Y-14656727D02*
X12524468Y-14628155D01*
X12524468Y-14628155D02*
X12533991Y-14609108D01*
X12533991Y-14609108D02*
X12553039Y-14580536D01*
X12553039Y-14580536D02*
X12562563Y-14571012D01*
X12629229Y-14618631D02*
X12638753Y-14609108D01*
X12638753Y-14609108D02*
X12657801Y-14599584D01*
X12657801Y-14599584D02*
X12705420Y-14599584D01*
X12705420Y-14599584D02*
X12724468Y-14609108D01*
X12724468Y-14609108D02*
X12733991Y-14618631D01*
X12733991Y-14618631D02*
X12743515Y-14637679D01*
X12743515Y-14637679D02*
X12743515Y-14656727D01*
X12743515Y-14656727D02*
X12733991Y-14685298D01*
X12733991Y-14685298D02*
X12619706Y-14799584D01*
X12619706Y-14799584D02*
X12743515Y-14799584D01*
X12981610Y-14799584D02*
X12981610Y-14599584D01*
X13067325Y-14799584D02*
X13067325Y-14694822D01*
X13067325Y-14694822D02*
X13057801Y-14675774D01*
X13057801Y-14675774D02*
X13038753Y-14666250D01*
X13038753Y-14666250D02*
X13010182Y-14666250D01*
X13010182Y-14666250D02*
X12991134Y-14675774D01*
X12991134Y-14675774D02*
X12981610Y-14685298D01*
X13191134Y-14799584D02*
X13172087Y-14790060D01*
X13172087Y-14790060D02*
X13162563Y-14780536D01*
X13162563Y-14780536D02*
X13153039Y-14761488D01*
X13153039Y-14761488D02*
X13153039Y-14704346D01*
X13153039Y-14704346D02*
X13162563Y-14685298D01*
X13162563Y-14685298D02*
X13172087Y-14675774D01*
X13172087Y-14675774D02*
X13191134Y-14666250D01*
X13191134Y-14666250D02*
X13219706Y-14666250D01*
X13219706Y-14666250D02*
X13238753Y-14675774D01*
X13238753Y-14675774D02*
X13248277Y-14685298D01*
X13248277Y-14685298D02*
X13257801Y-14704346D01*
X13257801Y-14704346D02*
X13257801Y-14761488D01*
X13257801Y-14761488D02*
X13248277Y-14780536D01*
X13248277Y-14780536D02*
X13238753Y-14790060D01*
X13238753Y-14790060D02*
X13219706Y-14799584D01*
X13219706Y-14799584D02*
X13191134Y-14799584D01*
X13372087Y-14799584D02*
X13353039Y-14790060D01*
X13353039Y-14790060D02*
X13343515Y-14771012D01*
X13343515Y-14771012D02*
X13343515Y-14599584D01*
X13524468Y-14790060D02*
X13505420Y-14799584D01*
X13505420Y-14799584D02*
X13467325Y-14799584D01*
X13467325Y-14799584D02*
X13448277Y-14790060D01*
X13448277Y-14790060D02*
X13438753Y-14771012D01*
X13438753Y-14771012D02*
X13438753Y-14694822D01*
X13438753Y-14694822D02*
X13448277Y-14675774D01*
X13448277Y-14675774D02*
X13467325Y-14666250D01*
X13467325Y-14666250D02*
X13505420Y-14666250D01*
X13505420Y-14666250D02*
X13524468Y-14675774D01*
X13524468Y-14675774D02*
X13533991Y-14694822D01*
X13533991Y-14694822D02*
X13533991Y-14713869D01*
X13533991Y-14713869D02*
X13438753Y-14732917D01*
X13610182Y-14790060D02*
X13629230Y-14799584D01*
X13629230Y-14799584D02*
X13667325Y-14799584D01*
X13667325Y-14799584D02*
X13686372Y-14790060D01*
X13686372Y-14790060D02*
X13695896Y-14771012D01*
X13695896Y-14771012D02*
X13695896Y-14761488D01*
X13695896Y-14761488D02*
X13686372Y-14742441D01*
X13686372Y-14742441D02*
X13667325Y-14732917D01*
X13667325Y-14732917D02*
X13638753Y-14732917D01*
X13638753Y-14732917D02*
X13619706Y-14723393D01*
X13619706Y-14723393D02*
X13610182Y-14704346D01*
X13610182Y-14704346D02*
X13610182Y-14694822D01*
X13610182Y-14694822D02*
X13619706Y-14675774D01*
X13619706Y-14675774D02*
X13638753Y-14666250D01*
X13638753Y-14666250D02*
X13667325Y-14666250D01*
X13667325Y-14666250D02*
X13686372Y-14675774D01*
X13762563Y-14875774D02*
X13772087Y-14866250D01*
X13772087Y-14866250D02*
X13791134Y-14837679D01*
X13791134Y-14837679D02*
X13800658Y-14818631D01*
X13800658Y-14818631D02*
X13810182Y-14790060D01*
X13810182Y-14790060D02*
X13819706Y-14742441D01*
X13819706Y-14742441D02*
X13819706Y-14704346D01*
X13819706Y-14704346D02*
X13810182Y-14656727D01*
X13810182Y-14656727D02*
X13800658Y-14628155D01*
X13800658Y-14628155D02*
X13791134Y-14609108D01*
X13791134Y-14609108D02*
X13772087Y-14580536D01*
X13772087Y-14580536D02*
X13762563Y-14571012D01*
X14124468Y-14875774D02*
X14114944Y-14866250D01*
X14114944Y-14866250D02*
X14095896Y-14837679D01*
X14095896Y-14837679D02*
X14086372Y-14818631D01*
X14086372Y-14818631D02*
X14076849Y-14790060D01*
X14076849Y-14790060D02*
X14067325Y-14742441D01*
X14067325Y-14742441D02*
X14067325Y-14704346D01*
X14067325Y-14704346D02*
X14076849Y-14656727D01*
X14076849Y-14656727D02*
X14086372Y-14628155D01*
X14086372Y-14628155D02*
X14095896Y-14609108D01*
X14095896Y-14609108D02*
X14114944Y-14580536D01*
X14114944Y-14580536D02*
X14124468Y-14571012D01*
X14200658Y-14666250D02*
X14200658Y-14799584D01*
X14200658Y-14685298D02*
X14210182Y-14675774D01*
X14210182Y-14675774D02*
X14229230Y-14666250D01*
X14229230Y-14666250D02*
X14257801Y-14666250D01*
X14257801Y-14666250D02*
X14276849Y-14675774D01*
X14276849Y-14675774D02*
X14286372Y-14694822D01*
X14286372Y-14694822D02*
X14286372Y-14799584D01*
X14410182Y-14799584D02*
X14391134Y-14790060D01*
X14391134Y-14790060D02*
X14381611Y-14780536D01*
X14381611Y-14780536D02*
X14372087Y-14761488D01*
X14372087Y-14761488D02*
X14372087Y-14704346D01*
X14372087Y-14704346D02*
X14381611Y-14685298D01*
X14381611Y-14685298D02*
X14391134Y-14675774D01*
X14391134Y-14675774D02*
X14410182Y-14666250D01*
X14410182Y-14666250D02*
X14438753Y-14666250D01*
X14438753Y-14666250D02*
X14457801Y-14675774D01*
X14457801Y-14675774D02*
X14467325Y-14685298D01*
X14467325Y-14685298D02*
X14476849Y-14704346D01*
X14476849Y-14704346D02*
X14476849Y-14761488D01*
X14476849Y-14761488D02*
X14467325Y-14780536D01*
X14467325Y-14780536D02*
X14457801Y-14790060D01*
X14457801Y-14790060D02*
X14438753Y-14799584D01*
X14438753Y-14799584D02*
X14410182Y-14799584D01*
X14533992Y-14666250D02*
X14610182Y-14666250D01*
X14562563Y-14599584D02*
X14562563Y-14771012D01*
X14562563Y-14771012D02*
X14572087Y-14790060D01*
X14572087Y-14790060D02*
X14591134Y-14799584D01*
X14591134Y-14799584D02*
X14610182Y-14799584D01*
X14829230Y-14666250D02*
X14829230Y-14866250D01*
X14829230Y-14675774D02*
X14848277Y-14666250D01*
X14848277Y-14666250D02*
X14886373Y-14666250D01*
X14886373Y-14666250D02*
X14905420Y-14675774D01*
X14905420Y-14675774D02*
X14914944Y-14685298D01*
X14914944Y-14685298D02*
X14924468Y-14704346D01*
X14924468Y-14704346D02*
X14924468Y-14761488D01*
X14924468Y-14761488D02*
X14914944Y-14780536D01*
X14914944Y-14780536D02*
X14905420Y-14790060D01*
X14905420Y-14790060D02*
X14886373Y-14799584D01*
X14886373Y-14799584D02*
X14848277Y-14799584D01*
X14848277Y-14799584D02*
X14829230Y-14790060D01*
X15038753Y-14799584D02*
X15019706Y-14790060D01*
X15019706Y-14790060D02*
X15010182Y-14771012D01*
X15010182Y-14771012D02*
X15010182Y-14599584D01*
X15200658Y-14799584D02*
X15200658Y-14694822D01*
X15200658Y-14694822D02*
X15191134Y-14675774D01*
X15191134Y-14675774D02*
X15172087Y-14666250D01*
X15172087Y-14666250D02*
X15133992Y-14666250D01*
X15133992Y-14666250D02*
X15114944Y-14675774D01*
X15200658Y-14790060D02*
X15181611Y-14799584D01*
X15181611Y-14799584D02*
X15133992Y-14799584D01*
X15133992Y-14799584D02*
X15114944Y-14790060D01*
X15114944Y-14790060D02*
X15105420Y-14771012D01*
X15105420Y-14771012D02*
X15105420Y-14751965D01*
X15105420Y-14751965D02*
X15114944Y-14732917D01*
X15114944Y-14732917D02*
X15133992Y-14723393D01*
X15133992Y-14723393D02*
X15181611Y-14723393D01*
X15181611Y-14723393D02*
X15200658Y-14713869D01*
X15267325Y-14666250D02*
X15343515Y-14666250D01*
X15295896Y-14599584D02*
X15295896Y-14771012D01*
X15295896Y-14771012D02*
X15305420Y-14790060D01*
X15305420Y-14790060D02*
X15324468Y-14799584D01*
X15324468Y-14799584D02*
X15343515Y-14799584D01*
X15486373Y-14790060D02*
X15467325Y-14799584D01*
X15467325Y-14799584D02*
X15429230Y-14799584D01*
X15429230Y-14799584D02*
X15410182Y-14790060D01*
X15410182Y-14790060D02*
X15400658Y-14771012D01*
X15400658Y-14771012D02*
X15400658Y-14694822D01*
X15400658Y-14694822D02*
X15410182Y-14675774D01*
X15410182Y-14675774D02*
X15429230Y-14666250D01*
X15429230Y-14666250D02*
X15467325Y-14666250D01*
X15467325Y-14666250D02*
X15486373Y-14675774D01*
X15486373Y-14675774D02*
X15495896Y-14694822D01*
X15495896Y-14694822D02*
X15495896Y-14713869D01*
X15495896Y-14713869D02*
X15400658Y-14732917D01*
X15667325Y-14799584D02*
X15667325Y-14599584D01*
X15667325Y-14790060D02*
X15648277Y-14799584D01*
X15648277Y-14799584D02*
X15610182Y-14799584D01*
X15610182Y-14799584D02*
X15591134Y-14790060D01*
X15591134Y-14790060D02*
X15581611Y-14780536D01*
X15581611Y-14780536D02*
X15572087Y-14761488D01*
X15572087Y-14761488D02*
X15572087Y-14704346D01*
X15572087Y-14704346D02*
X15581611Y-14685298D01*
X15581611Y-14685298D02*
X15591134Y-14675774D01*
X15591134Y-14675774D02*
X15610182Y-14666250D01*
X15610182Y-14666250D02*
X15648277Y-14666250D01*
X15648277Y-14666250D02*
X15667325Y-14675774D01*
X15743515Y-14875774D02*
X15753039Y-14866250D01*
X15753039Y-14866250D02*
X15772087Y-14837679D01*
X15772087Y-14837679D02*
X15781611Y-14818631D01*
X15781611Y-14818631D02*
X15791134Y-14790060D01*
X15791134Y-14790060D02*
X15800658Y-14742441D01*
X15800658Y-14742441D02*
X15800658Y-14704346D01*
X15800658Y-14704346D02*
X15791134Y-14656727D01*
X15791134Y-14656727D02*
X15781611Y-14628155D01*
X15781611Y-14628155D02*
X15772087Y-14609108D01*
X15772087Y-14609108D02*
X15753039Y-14580536D01*
X15753039Y-14580536D02*
X15743515Y-14571012D01*
M02*
