%TF.GenerationSoftware,KiCad,Pcbnew,8.0.1*%
%TF.CreationDate,2024-05-05T15:46:48-04:00*%
%TF.ProjectId,Main,4d61696e-2e6b-4696-9361-645f70636258,0*%
%TF.SameCoordinates,Original*%
%TF.FileFunction,Drillmap*%
%TF.FilePolarity,Positive*%
%FSLAX45Y45*%
G04 Gerber Fmt 4.5, Leading zero omitted, Abs format (unit mm)*
G04 Created by KiCad (PCBNEW 8.0.1) date 2024-05-05 15:46:48*
%MOMM*%
%LPD*%
G01*
G04 APERTURE LIST*
%ADD10C,0.050000*%
%ADD11C,0.200000*%
%ADD12C,0.100000*%
%ADD13C,0.102000*%
%ADD14C,0.110000*%
%ADD15C,0.130000*%
%ADD16C,0.160000*%
%ADD17C,0.320000*%
G04 APERTURE END LIST*
D10*
X8990000Y-4065600D02*
X16990000Y-4065600D01*
X16990000Y-14065600D01*
X8990000Y-14065600D01*
X8990000Y-4065600D01*
D11*
D12*
X9935000Y-9585000D02*
X9965000Y-9615000D01*
X9965000Y-9585000D02*
X9935000Y-9615000D01*
X9964927Y-8639927D02*
X9994927Y-8669927D01*
X9994927Y-8639927D02*
X9964927Y-8669927D01*
X13210000Y-6885000D02*
X13240000Y-6915000D01*
X13240000Y-6885000D02*
X13210000Y-6915000D01*
X13900000Y-9885000D02*
X13930000Y-9915000D01*
X13930000Y-9885000D02*
X13900000Y-9915000D01*
X14010000Y-8885000D02*
X14040000Y-8915000D01*
X14040000Y-8885000D02*
X14010000Y-8915000D01*
X16185000Y-11310000D02*
X16215000Y-11340000D01*
X16215000Y-11310000D02*
X16185000Y-11340000D01*
X13212500Y-11375000D02*
G75*
G02*
X13137500Y-11375000I-37500J0D01*
G01*
X13137500Y-11375000D02*
G75*
G02*
X13212500Y-11375000I37500J0D01*
G01*
X13212500Y-11502000D02*
G75*
G02*
X13137500Y-11502000I-37500J0D01*
G01*
X13137500Y-11502000D02*
G75*
G02*
X13212500Y-11502000I37500J0D01*
G01*
X13212500Y-11629000D02*
G75*
G02*
X13137500Y-11629000I-37500J0D01*
G01*
X13137500Y-11629000D02*
G75*
G02*
X13212500Y-11629000I37500J0D01*
G01*
X13212500Y-12050000D02*
G75*
G02*
X13137500Y-12050000I-37500J0D01*
G01*
X13137500Y-12050000D02*
G75*
G02*
X13212500Y-12050000I37500J0D01*
G01*
X13212500Y-12177000D02*
G75*
G02*
X13137500Y-12177000I-37500J0D01*
G01*
X13137500Y-12177000D02*
G75*
G02*
X13212500Y-12177000I37500J0D01*
G01*
X13212500Y-12304000D02*
G75*
G02*
X13137500Y-12304000I-37500J0D01*
G01*
X13137500Y-12304000D02*
G75*
G02*
X13212500Y-12304000I37500J0D01*
G01*
X13212500Y-12875000D02*
G75*
G02*
X13137500Y-12875000I-37500J0D01*
G01*
X13137500Y-12875000D02*
G75*
G02*
X13212500Y-12875000I37500J0D01*
G01*
X13212500Y-13002000D02*
G75*
G02*
X13137500Y-13002000I-37500J0D01*
G01*
X13137500Y-13002000D02*
G75*
G02*
X13212500Y-13002000I37500J0D01*
G01*
X13212500Y-13129000D02*
G75*
G02*
X13137500Y-13129000I-37500J0D01*
G01*
X13137500Y-13129000D02*
G75*
G02*
X13212500Y-13129000I37500J0D01*
G01*
X10810000Y-7469000D02*
X10810000Y-7549000D01*
X10770000Y-7509000D02*
X10850000Y-7509000D01*
X11055160Y-8693000D02*
X11055160Y-8773000D01*
X11015160Y-8733000D02*
X11095160Y-8733000D01*
X11055160Y-8893000D02*
X11055160Y-8973000D01*
X11015160Y-8933000D02*
X11095160Y-8933000D01*
X11064000Y-7469000D02*
X11064000Y-7549000D01*
X11024000Y-7509000D02*
X11104000Y-7509000D01*
X11255160Y-8693000D02*
X11255160Y-8773000D01*
X11215160Y-8733000D02*
X11295160Y-8733000D01*
X11255160Y-8893000D02*
X11255160Y-8973000D01*
X11215160Y-8933000D02*
X11295160Y-8933000D01*
X11455160Y-8693000D02*
X11455160Y-8773000D01*
X11415160Y-8733000D02*
X11495160Y-8733000D01*
X11455160Y-8893000D02*
X11455160Y-8973000D01*
X11415160Y-8933000D02*
X11495160Y-8933000D01*
X12250000Y-7673000D02*
X12250000Y-7753000D01*
X12210000Y-7713000D02*
X12290000Y-7713000D01*
X12250000Y-9197000D02*
X12250000Y-9277000D01*
X12210000Y-9237000D02*
X12290000Y-9237000D01*
X12250000Y-9473000D02*
X12250000Y-9553000D01*
X12210000Y-9513000D02*
X12290000Y-9513000D01*
X12250000Y-10997000D02*
X12250000Y-11077000D01*
X12210000Y-11037000D02*
X12290000Y-11037000D01*
X12250000Y-11473000D02*
X12250000Y-11553000D01*
X12210000Y-11513000D02*
X12290000Y-11513000D01*
X12250000Y-12997000D02*
X12250000Y-13077000D01*
X12210000Y-13037000D02*
X12290000Y-13037000D01*
X14975000Y-5248000D02*
X14975000Y-5328000D01*
X14935000Y-5288000D02*
X15015000Y-5288000D01*
X14975000Y-6772000D02*
X14975000Y-6852000D01*
X14935000Y-6812000D02*
X15015000Y-6812000D01*
X15450000Y-5248000D02*
X15450000Y-5328000D01*
X15410000Y-5288000D02*
X15490000Y-5288000D01*
X15450000Y-6772000D02*
X15450000Y-6852000D01*
X15410000Y-6812000D02*
X15490000Y-6812000D01*
X12265467Y-6920467D02*
X12265467Y-6857533D01*
X12202533Y-6857533D01*
X12202533Y-6920467D01*
X12265467Y-6920467D01*
X12392467Y-6666467D02*
X12392467Y-6603533D01*
X12329533Y-6603533D01*
X12329533Y-6666467D01*
X12392467Y-6666467D01*
X12519467Y-6920467D02*
X12519467Y-6857533D01*
X12456533Y-6857533D01*
X12456533Y-6920467D01*
X12519467Y-6920467D01*
X12646467Y-6666467D02*
X12646467Y-6603533D01*
X12583533Y-6603533D01*
X12583533Y-6666467D01*
X12646467Y-6666467D01*
X12773467Y-6920467D02*
X12773467Y-6857533D01*
X12710533Y-6857533D01*
X12710533Y-6920467D01*
X12773467Y-6920467D01*
X12900467Y-6666467D02*
X12900467Y-6603533D01*
X12837533Y-6603533D01*
X12837533Y-6666467D01*
X12900467Y-6666467D01*
X13027467Y-6920467D02*
X13027467Y-6857533D01*
X12964533Y-6857533D01*
X12964533Y-6920467D01*
X13027467Y-6920467D01*
X13154467Y-6666467D02*
X13154467Y-6603533D01*
X13091533Y-6603533D01*
X13091533Y-6666467D01*
X13154467Y-6666467D01*
X13975000Y-12762000D02*
X14020000Y-12717000D01*
X13975000Y-12672000D01*
X13930000Y-12717000D01*
X13975000Y-12762000D01*
X13975000Y-13016000D02*
X14020000Y-12971000D01*
X13975000Y-12926000D01*
X13930000Y-12971000D01*
X13975000Y-13016000D01*
X14000000Y-11217500D02*
X14045000Y-11172500D01*
X14000000Y-11127500D01*
X13955000Y-11172500D01*
X14000000Y-11217500D01*
X14000000Y-11471500D02*
X14045000Y-11426500D01*
X14000000Y-11381500D01*
X13955000Y-11426500D01*
X14000000Y-11471500D01*
X14000000Y-11887000D02*
X14045000Y-11842000D01*
X14000000Y-11797000D01*
X13955000Y-11842000D01*
X14000000Y-11887000D01*
X14000000Y-12141000D02*
X14045000Y-12096000D01*
X14000000Y-12051000D01*
X13955000Y-12096000D01*
X14000000Y-12141000D01*
X9625000Y-8571000D02*
X9725000Y-8671000D01*
X9725000Y-8571000D02*
X9625000Y-8671000D01*
X9725000Y-8621000D02*
G75*
G02*
X9625000Y-8621000I-50000J0D01*
G01*
X9625000Y-8621000D02*
G75*
G02*
X9725000Y-8621000I50000J0D01*
G01*
X9625000Y-8825000D02*
X9725000Y-8925000D01*
X9725000Y-8825000D02*
X9625000Y-8925000D01*
X9725000Y-8875000D02*
G75*
G02*
X9625000Y-8875000I-50000J0D01*
G01*
X9625000Y-8875000D02*
G75*
G02*
X9725000Y-8875000I50000J0D01*
G01*
X9625000Y-9188000D02*
X9725000Y-9288000D01*
X9725000Y-9188000D02*
X9625000Y-9288000D01*
X9725000Y-9238000D02*
G75*
G02*
X9625000Y-9238000I-50000J0D01*
G01*
X9625000Y-9238000D02*
G75*
G02*
X9725000Y-9238000I50000J0D01*
G01*
X9625000Y-9442000D02*
X9725000Y-9542000D01*
X9725000Y-9442000D02*
X9625000Y-9542000D01*
X9725000Y-9492000D02*
G75*
G02*
X9625000Y-9492000I-50000J0D01*
G01*
X9625000Y-9492000D02*
G75*
G02*
X9725000Y-9492000I50000J0D01*
G01*
X9625000Y-9813000D02*
X9725000Y-9913000D01*
X9725000Y-9813000D02*
X9625000Y-9913000D01*
X9725000Y-9863000D02*
G75*
G02*
X9625000Y-9863000I-50000J0D01*
G01*
X9625000Y-9863000D02*
G75*
G02*
X9725000Y-9863000I50000J0D01*
G01*
X9625000Y-10067000D02*
X9725000Y-10167000D01*
X9725000Y-10067000D02*
X9625000Y-10167000D01*
X9725000Y-10117000D02*
G75*
G02*
X9625000Y-10117000I-50000J0D01*
G01*
X9625000Y-10117000D02*
G75*
G02*
X9725000Y-10117000I50000J0D01*
G01*
X9625000Y-10321000D02*
X9725000Y-10421000D01*
X9725000Y-10321000D02*
X9625000Y-10421000D01*
X9725000Y-10371000D02*
G75*
G02*
X9625000Y-10371000I-50000J0D01*
G01*
X9625000Y-10371000D02*
G75*
G02*
X9725000Y-10371000I50000J0D01*
G01*
X9625000Y-10575000D02*
X9725000Y-10675000D01*
X9725000Y-10575000D02*
X9625000Y-10675000D01*
X9725000Y-10625000D02*
G75*
G02*
X9625000Y-10625000I-50000J0D01*
G01*
X9625000Y-10625000D02*
G75*
G02*
X9725000Y-10625000I50000J0D01*
G01*
X9625000Y-10937000D02*
X9725000Y-11037000D01*
X9725000Y-10937000D02*
X9625000Y-11037000D01*
X9725000Y-10987000D02*
G75*
G02*
X9625000Y-10987000I-50000J0D01*
G01*
X9625000Y-10987000D02*
G75*
G02*
X9725000Y-10987000I50000J0D01*
G01*
X9625000Y-11191000D02*
X9725000Y-11291000D01*
X9725000Y-11191000D02*
X9625000Y-11291000D01*
X9725000Y-11241000D02*
G75*
G02*
X9625000Y-11241000I-50000J0D01*
G01*
X9625000Y-11241000D02*
G75*
G02*
X9725000Y-11241000I50000J0D01*
G01*
X9625000Y-11445000D02*
X9725000Y-11545000D01*
X9725000Y-11445000D02*
X9625000Y-11545000D01*
X9725000Y-11495000D02*
G75*
G02*
X9625000Y-11495000I-50000J0D01*
G01*
X9625000Y-11495000D02*
G75*
G02*
X9725000Y-11495000I50000J0D01*
G01*
X9625000Y-11699000D02*
X9725000Y-11799000D01*
X9725000Y-11699000D02*
X9625000Y-11799000D01*
X9725000Y-11749000D02*
G75*
G02*
X9625000Y-11749000I-50000J0D01*
G01*
X9625000Y-11749000D02*
G75*
G02*
X9725000Y-11749000I50000J0D01*
G01*
X9625000Y-12097500D02*
X9725000Y-12197500D01*
X9725000Y-12097500D02*
X9625000Y-12197500D01*
X9725000Y-12147500D02*
G75*
G02*
X9625000Y-12147500I-50000J0D01*
G01*
X9625000Y-12147500D02*
G75*
G02*
X9725000Y-12147500I50000J0D01*
G01*
X9625000Y-12351500D02*
X9725000Y-12451500D01*
X9725000Y-12351500D02*
X9625000Y-12451500D01*
X9725000Y-12401500D02*
G75*
G02*
X9625000Y-12401500I-50000J0D01*
G01*
X9625000Y-12401500D02*
G75*
G02*
X9725000Y-12401500I50000J0D01*
G01*
X9627400Y-7443000D02*
X9727400Y-7543000D01*
X9727400Y-7443000D02*
X9627400Y-7543000D01*
X9727400Y-7493000D02*
G75*
G02*
X9627400Y-7493000I-50000J0D01*
G01*
X9627400Y-7493000D02*
G75*
G02*
X9727400Y-7493000I50000J0D01*
G01*
X9627400Y-7697000D02*
X9727400Y-7797000D01*
X9727400Y-7697000D02*
X9627400Y-7797000D01*
X9727400Y-7747000D02*
G75*
G02*
X9627400Y-7747000I-50000J0D01*
G01*
X9627400Y-7747000D02*
G75*
G02*
X9727400Y-7747000I50000J0D01*
G01*
X9627400Y-7951000D02*
X9727400Y-8051000D01*
X9727400Y-7951000D02*
X9627400Y-8051000D01*
X9727400Y-8001000D02*
G75*
G02*
X9627400Y-8001000I-50000J0D01*
G01*
X9627400Y-8001000D02*
G75*
G02*
X9727400Y-8001000I50000J0D01*
G01*
X9627400Y-8205000D02*
X9727400Y-8305000D01*
X9727400Y-8205000D02*
X9627400Y-8305000D01*
X9727400Y-8255000D02*
G75*
G02*
X9627400Y-8255000I-50000J0D01*
G01*
X9627400Y-8255000D02*
G75*
G02*
X9727400Y-8255000I50000J0D01*
G01*
X13521000Y-7646000D02*
X13621000Y-7746000D01*
X13621000Y-7646000D02*
X13521000Y-7746000D01*
X13621000Y-7696000D02*
G75*
G02*
X13521000Y-7696000I-50000J0D01*
G01*
X13521000Y-7696000D02*
G75*
G02*
X13621000Y-7696000I50000J0D01*
G01*
X13521000Y-7900000D02*
X13621000Y-8000000D01*
X13621000Y-7900000D02*
X13521000Y-8000000D01*
X13621000Y-7950000D02*
G75*
G02*
X13521000Y-7950000I-50000J0D01*
G01*
X13521000Y-7950000D02*
G75*
G02*
X13621000Y-7950000I50000J0D01*
G01*
X13521000Y-8154000D02*
X13621000Y-8254000D01*
X13621000Y-8154000D02*
X13521000Y-8254000D01*
X13621000Y-8204000D02*
G75*
G02*
X13521000Y-8204000I-50000J0D01*
G01*
X13521000Y-8204000D02*
G75*
G02*
X13621000Y-8204000I50000J0D01*
G01*
X13775000Y-7646000D02*
X13875000Y-7746000D01*
X13875000Y-7646000D02*
X13775000Y-7746000D01*
X13875000Y-7696000D02*
G75*
G02*
X13775000Y-7696000I-50000J0D01*
G01*
X13775000Y-7696000D02*
G75*
G02*
X13875000Y-7696000I50000J0D01*
G01*
X13775000Y-7900000D02*
X13875000Y-8000000D01*
X13875000Y-7900000D02*
X13775000Y-8000000D01*
X13875000Y-7950000D02*
G75*
G02*
X13775000Y-7950000I-50000J0D01*
G01*
X13775000Y-7950000D02*
G75*
G02*
X13875000Y-7950000I50000J0D01*
G01*
X13775000Y-8154000D02*
X13875000Y-8254000D01*
X13875000Y-8154000D02*
X13775000Y-8254000D01*
X13875000Y-8204000D02*
G75*
G02*
X13775000Y-8204000I-50000J0D01*
G01*
X13775000Y-8204000D02*
G75*
G02*
X13875000Y-8204000I50000J0D01*
G01*
X13849250Y-5200000D02*
X13949250Y-5300000D01*
X13949250Y-5200000D02*
X13849250Y-5300000D01*
X13949250Y-5250000D02*
G75*
G02*
X13849250Y-5250000I-50000J0D01*
G01*
X13849250Y-5250000D02*
G75*
G02*
X13949250Y-5250000I50000J0D01*
G01*
X13849250Y-6700000D02*
X13949250Y-6800000D01*
X13949250Y-6700000D02*
X13849250Y-6800000D01*
X13949250Y-6750000D02*
G75*
G02*
X13849250Y-6750000I-50000J0D01*
G01*
X13849250Y-6750000D02*
G75*
G02*
X13949250Y-6750000I50000J0D01*
G01*
X14475000Y-5250000D02*
X14575000Y-5350000D01*
X14575000Y-5250000D02*
X14475000Y-5350000D01*
X14575000Y-5300000D02*
G75*
G02*
X14475000Y-5300000I-50000J0D01*
G01*
X14475000Y-5300000D02*
G75*
G02*
X14575000Y-5300000I50000J0D01*
G01*
X14475000Y-5620000D02*
X14575000Y-5720000D01*
X14575000Y-5620000D02*
X14475000Y-5720000D01*
X14575000Y-5670000D02*
G75*
G02*
X14475000Y-5670000I-50000J0D01*
G01*
X14475000Y-5670000D02*
G75*
G02*
X14575000Y-5670000I50000J0D01*
G01*
X14475000Y-5874000D02*
X14575000Y-5974000D01*
X14575000Y-5874000D02*
X14475000Y-5974000D01*
X14575000Y-5924000D02*
G75*
G02*
X14475000Y-5924000I-50000J0D01*
G01*
X14475000Y-5924000D02*
G75*
G02*
X14575000Y-5924000I50000J0D01*
G01*
X14475000Y-6128000D02*
X14575000Y-6228000D01*
X14575000Y-6128000D02*
X14475000Y-6228000D01*
X14575000Y-6178000D02*
G75*
G02*
X14475000Y-6178000I-50000J0D01*
G01*
X14475000Y-6178000D02*
G75*
G02*
X14575000Y-6178000I50000J0D01*
G01*
X14475000Y-6382000D02*
X14575000Y-6482000D01*
X14575000Y-6382000D02*
X14475000Y-6482000D01*
X14575000Y-6432000D02*
G75*
G02*
X14475000Y-6432000I-50000J0D01*
G01*
X14475000Y-6432000D02*
G75*
G02*
X14575000Y-6432000I50000J0D01*
G01*
X14475000Y-6775000D02*
X14575000Y-6875000D01*
X14575000Y-6775000D02*
X14475000Y-6875000D01*
X14575000Y-6825000D02*
G75*
G02*
X14475000Y-6825000I-50000J0D01*
G01*
X14475000Y-6825000D02*
G75*
G02*
X14575000Y-6825000I50000J0D01*
G01*
X14475000Y-7392000D02*
X14575000Y-7492000D01*
X14575000Y-7392000D02*
X14475000Y-7492000D01*
X14575000Y-7442000D02*
G75*
G02*
X14475000Y-7442000I-50000J0D01*
G01*
X14475000Y-7442000D02*
G75*
G02*
X14575000Y-7442000I50000J0D01*
G01*
X14475000Y-7646000D02*
X14575000Y-7746000D01*
X14575000Y-7646000D02*
X14475000Y-7746000D01*
X14575000Y-7696000D02*
G75*
G02*
X14475000Y-7696000I-50000J0D01*
G01*
X14475000Y-7696000D02*
G75*
G02*
X14575000Y-7696000I50000J0D01*
G01*
X14475000Y-7900000D02*
X14575000Y-8000000D01*
X14575000Y-7900000D02*
X14475000Y-8000000D01*
X14575000Y-7950000D02*
G75*
G02*
X14475000Y-7950000I-50000J0D01*
G01*
X14475000Y-7950000D02*
G75*
G02*
X14575000Y-7950000I50000J0D01*
G01*
X14475000Y-8154000D02*
X14575000Y-8254000D01*
X14575000Y-8154000D02*
X14475000Y-8254000D01*
X14575000Y-8204000D02*
G75*
G02*
X14475000Y-8204000I-50000J0D01*
G01*
X14475000Y-8204000D02*
G75*
G02*
X14575000Y-8204000I50000J0D01*
G01*
X15846000Y-4993000D02*
X15946000Y-5093000D01*
X15946000Y-4993000D02*
X15846000Y-5093000D01*
X15946000Y-5043000D02*
G75*
G02*
X15846000Y-5043000I-50000J0D01*
G01*
X15846000Y-5043000D02*
G75*
G02*
X15946000Y-5043000I50000J0D01*
G01*
X15846000Y-5247000D02*
X15946000Y-5347000D01*
X15946000Y-5247000D02*
X15846000Y-5347000D01*
X15946000Y-5297000D02*
G75*
G02*
X15846000Y-5297000I-50000J0D01*
G01*
X15846000Y-5297000D02*
G75*
G02*
X15946000Y-5297000I50000J0D01*
G01*
X15846000Y-5501000D02*
X15946000Y-5601000D01*
X15946000Y-5501000D02*
X15846000Y-5601000D01*
X15946000Y-5551000D02*
G75*
G02*
X15846000Y-5551000I-50000J0D01*
G01*
X15846000Y-5551000D02*
G75*
G02*
X15946000Y-5551000I50000J0D01*
G01*
X15846000Y-5755000D02*
X15946000Y-5855000D01*
X15946000Y-5755000D02*
X15846000Y-5855000D01*
X15946000Y-5805000D02*
G75*
G02*
X15846000Y-5805000I-50000J0D01*
G01*
X15846000Y-5805000D02*
G75*
G02*
X15946000Y-5805000I50000J0D01*
G01*
X15846000Y-6009000D02*
X15946000Y-6109000D01*
X15946000Y-6009000D02*
X15846000Y-6109000D01*
X15946000Y-6059000D02*
G75*
G02*
X15846000Y-6059000I-50000J0D01*
G01*
X15846000Y-6059000D02*
G75*
G02*
X15946000Y-6059000I50000J0D01*
G01*
X15846000Y-6263000D02*
X15946000Y-6363000D01*
X15946000Y-6263000D02*
X15846000Y-6363000D01*
X15946000Y-6313000D02*
G75*
G02*
X15846000Y-6313000I-50000J0D01*
G01*
X15846000Y-6313000D02*
G75*
G02*
X15946000Y-6313000I50000J0D01*
G01*
X15846000Y-6517000D02*
X15946000Y-6617000D01*
X15946000Y-6517000D02*
X15846000Y-6617000D01*
X15946000Y-6567000D02*
G75*
G02*
X15846000Y-6567000I-50000J0D01*
G01*
X15846000Y-6567000D02*
G75*
G02*
X15946000Y-6567000I50000J0D01*
G01*
X15846000Y-6771000D02*
X15946000Y-6871000D01*
X15946000Y-6771000D02*
X15846000Y-6871000D01*
X15946000Y-6821000D02*
G75*
G02*
X15846000Y-6821000I-50000J0D01*
G01*
X15846000Y-6821000D02*
G75*
G02*
X15946000Y-6821000I50000J0D01*
G01*
X15846000Y-7025000D02*
X15946000Y-7125000D01*
X15946000Y-7025000D02*
X15846000Y-7125000D01*
X15946000Y-7075000D02*
G75*
G02*
X15846000Y-7075000I-50000J0D01*
G01*
X15846000Y-7075000D02*
G75*
G02*
X15946000Y-7075000I50000J0D01*
G01*
X16100000Y-4993000D02*
X16200000Y-5093000D01*
X16200000Y-4993000D02*
X16100000Y-5093000D01*
X16200000Y-5043000D02*
G75*
G02*
X16100000Y-5043000I-50000J0D01*
G01*
X16100000Y-5043000D02*
G75*
G02*
X16200000Y-5043000I50000J0D01*
G01*
X16100000Y-5247000D02*
X16200000Y-5347000D01*
X16200000Y-5247000D02*
X16100000Y-5347000D01*
X16200000Y-5297000D02*
G75*
G02*
X16100000Y-5297000I-50000J0D01*
G01*
X16100000Y-5297000D02*
G75*
G02*
X16200000Y-5297000I50000J0D01*
G01*
X16100000Y-5501000D02*
X16200000Y-5601000D01*
X16200000Y-5501000D02*
X16100000Y-5601000D01*
X16200000Y-5551000D02*
G75*
G02*
X16100000Y-5551000I-50000J0D01*
G01*
X16100000Y-5551000D02*
G75*
G02*
X16200000Y-5551000I50000J0D01*
G01*
X16100000Y-5755000D02*
X16200000Y-5855000D01*
X16200000Y-5755000D02*
X16100000Y-5855000D01*
X16200000Y-5805000D02*
G75*
G02*
X16100000Y-5805000I-50000J0D01*
G01*
X16100000Y-5805000D02*
G75*
G02*
X16200000Y-5805000I50000J0D01*
G01*
X16100000Y-6009000D02*
X16200000Y-6109000D01*
X16200000Y-6009000D02*
X16100000Y-6109000D01*
X16200000Y-6059000D02*
G75*
G02*
X16100000Y-6059000I-50000J0D01*
G01*
X16100000Y-6059000D02*
G75*
G02*
X16200000Y-6059000I50000J0D01*
G01*
X16100000Y-6263000D02*
X16200000Y-6363000D01*
X16200000Y-6263000D02*
X16100000Y-6363000D01*
X16200000Y-6313000D02*
G75*
G02*
X16100000Y-6313000I-50000J0D01*
G01*
X16100000Y-6313000D02*
G75*
G02*
X16200000Y-6313000I50000J0D01*
G01*
X16100000Y-6517000D02*
X16200000Y-6617000D01*
X16200000Y-6517000D02*
X16100000Y-6617000D01*
X16200000Y-6567000D02*
G75*
G02*
X16100000Y-6567000I-50000J0D01*
G01*
X16100000Y-6567000D02*
G75*
G02*
X16200000Y-6567000I50000J0D01*
G01*
X16100000Y-6771000D02*
X16200000Y-6871000D01*
X16200000Y-6771000D02*
X16100000Y-6871000D01*
X16200000Y-6821000D02*
G75*
G02*
X16100000Y-6821000I-50000J0D01*
G01*
X16100000Y-6821000D02*
G75*
G02*
X16200000Y-6821000I50000J0D01*
G01*
X16100000Y-7025000D02*
X16200000Y-7125000D01*
X16200000Y-7025000D02*
X16100000Y-7125000D01*
X16200000Y-7075000D02*
G75*
G02*
X16100000Y-7075000I-50000J0D01*
G01*
X16100000Y-7075000D02*
G75*
G02*
X16200000Y-7075000I50000J0D01*
G01*
D13*
X11995000Y-5611000D02*
X12097000Y-5713000D01*
X12097000Y-5611000D02*
X11995000Y-5713000D01*
X12046000Y-5611000D02*
X12046000Y-5713000D01*
X11995000Y-5662000D02*
X12097000Y-5662000D01*
X12246500Y-5459000D02*
X12348500Y-5561000D01*
X12348500Y-5459000D02*
X12246500Y-5561000D01*
X12297500Y-5459000D02*
X12297500Y-5561000D01*
X12246500Y-5510000D02*
X12348500Y-5510000D01*
X13008500Y-5611000D02*
X13110500Y-5713000D01*
X13110500Y-5611000D02*
X13008500Y-5713000D01*
X13059500Y-5611000D02*
X13059500Y-5713000D01*
X13008500Y-5662000D02*
X13110500Y-5662000D01*
X13260000Y-5459000D02*
X13362000Y-5561000D01*
X13362000Y-5459000D02*
X13260000Y-5561000D01*
X13311000Y-5459000D02*
X13311000Y-5561000D01*
X13260000Y-5510000D02*
X13362000Y-5510000D01*
D14*
X10120000Y-7381000D02*
X10230000Y-7491000D01*
X10230000Y-7381000D02*
X10120000Y-7491000D01*
X10213891Y-7474891D02*
X10213891Y-7397109D01*
X10136109Y-7397109D01*
X10136109Y-7474891D01*
X10213891Y-7474891D01*
X10120000Y-7635000D02*
X10230000Y-7745000D01*
X10230000Y-7635000D02*
X10120000Y-7745000D01*
X10213891Y-7728891D02*
X10213891Y-7651109D01*
X10136109Y-7651109D01*
X10136109Y-7728891D01*
X10213891Y-7728891D01*
X10120000Y-7889000D02*
X10230000Y-7999000D01*
X10230000Y-7889000D02*
X10120000Y-7999000D01*
X10213891Y-7982891D02*
X10213891Y-7905109D01*
X10136109Y-7905109D01*
X10136109Y-7982891D01*
X10213891Y-7982891D01*
X10120000Y-8143000D02*
X10230000Y-8253000D01*
X10230000Y-8143000D02*
X10120000Y-8253000D01*
X10213891Y-8236891D02*
X10213891Y-8159109D01*
X10136109Y-8159109D01*
X10136109Y-8236891D01*
X10213891Y-8236891D01*
X10120000Y-8397000D02*
X10230000Y-8507000D01*
X10230000Y-8397000D02*
X10120000Y-8507000D01*
X10213891Y-8490891D02*
X10213891Y-8413109D01*
X10136109Y-8413109D01*
X10136109Y-8490891D01*
X10213891Y-8490891D01*
X10120000Y-8651000D02*
X10230000Y-8761000D01*
X10230000Y-8651000D02*
X10120000Y-8761000D01*
X10213891Y-8744891D02*
X10213891Y-8667109D01*
X10136109Y-8667109D01*
X10136109Y-8744891D01*
X10213891Y-8744891D01*
X10120000Y-8905000D02*
X10230000Y-9015000D01*
X10230000Y-8905000D02*
X10120000Y-9015000D01*
X10213891Y-8998891D02*
X10213891Y-8921109D01*
X10136109Y-8921109D01*
X10136109Y-8998891D01*
X10213891Y-8998891D01*
X10120000Y-9159000D02*
X10230000Y-9269000D01*
X10230000Y-9159000D02*
X10120000Y-9269000D01*
X10213891Y-9252891D02*
X10213891Y-9175109D01*
X10136109Y-9175109D01*
X10136109Y-9252891D01*
X10213891Y-9252891D01*
X10120000Y-9413000D02*
X10230000Y-9523000D01*
X10230000Y-9413000D02*
X10120000Y-9523000D01*
X10213891Y-9506891D02*
X10213891Y-9429109D01*
X10136109Y-9429109D01*
X10136109Y-9506891D01*
X10213891Y-9506891D01*
X10120000Y-9667000D02*
X10230000Y-9777000D01*
X10230000Y-9667000D02*
X10120000Y-9777000D01*
X10213891Y-9760891D02*
X10213891Y-9683109D01*
X10136109Y-9683109D01*
X10136109Y-9760891D01*
X10213891Y-9760891D01*
X10120000Y-9921000D02*
X10230000Y-10031000D01*
X10230000Y-9921000D02*
X10120000Y-10031000D01*
X10213891Y-10014891D02*
X10213891Y-9937109D01*
X10136109Y-9937109D01*
X10136109Y-10014891D01*
X10213891Y-10014891D01*
X10120000Y-10175000D02*
X10230000Y-10285000D01*
X10230000Y-10175000D02*
X10120000Y-10285000D01*
X10213891Y-10268891D02*
X10213891Y-10191109D01*
X10136109Y-10191109D01*
X10136109Y-10268891D01*
X10213891Y-10268891D01*
X10120000Y-10429000D02*
X10230000Y-10539000D01*
X10230000Y-10429000D02*
X10120000Y-10539000D01*
X10213891Y-10522891D02*
X10213891Y-10445109D01*
X10136109Y-10445109D01*
X10136109Y-10522891D01*
X10213891Y-10522891D01*
X10120000Y-10683000D02*
X10230000Y-10793000D01*
X10230000Y-10683000D02*
X10120000Y-10793000D01*
X10213891Y-10776891D02*
X10213891Y-10699109D01*
X10136109Y-10699109D01*
X10136109Y-10776891D01*
X10213891Y-10776891D01*
X10120000Y-10937000D02*
X10230000Y-11047000D01*
X10230000Y-10937000D02*
X10120000Y-11047000D01*
X10213891Y-11030891D02*
X10213891Y-10953109D01*
X10136109Y-10953109D01*
X10136109Y-11030891D01*
X10213891Y-11030891D01*
X10120000Y-11191000D02*
X10230000Y-11301000D01*
X10230000Y-11191000D02*
X10120000Y-11301000D01*
X10213891Y-11284891D02*
X10213891Y-11207109D01*
X10136109Y-11207109D01*
X10136109Y-11284891D01*
X10213891Y-11284891D01*
X10120000Y-11445000D02*
X10230000Y-11555000D01*
X10230000Y-11445000D02*
X10120000Y-11555000D01*
X10213891Y-11538891D02*
X10213891Y-11461109D01*
X10136109Y-11461109D01*
X10136109Y-11538891D01*
X10213891Y-11538891D01*
X10120000Y-11699000D02*
X10230000Y-11809000D01*
X10230000Y-11699000D02*
X10120000Y-11809000D01*
X10213891Y-11792891D02*
X10213891Y-11715109D01*
X10136109Y-11715109D01*
X10136109Y-11792891D01*
X10213891Y-11792891D01*
X10120000Y-11953000D02*
X10230000Y-12063000D01*
X10230000Y-11953000D02*
X10120000Y-12063000D01*
X10213891Y-12046891D02*
X10213891Y-11969109D01*
X10136109Y-11969109D01*
X10136109Y-12046891D01*
X10213891Y-12046891D01*
X10120000Y-12207000D02*
X10230000Y-12317000D01*
X10230000Y-12207000D02*
X10120000Y-12317000D01*
X10213891Y-12300891D02*
X10213891Y-12223109D01*
X10136109Y-12223109D01*
X10136109Y-12300891D01*
X10213891Y-12300891D01*
X10120000Y-12461000D02*
X10230000Y-12571000D01*
X10230000Y-12461000D02*
X10120000Y-12571000D01*
X10213891Y-12554891D02*
X10213891Y-12477109D01*
X10136109Y-12477109D01*
X10136109Y-12554891D01*
X10213891Y-12554891D01*
X10120000Y-12715000D02*
X10230000Y-12825000D01*
X10230000Y-12715000D02*
X10120000Y-12825000D01*
X10213891Y-12808891D02*
X10213891Y-12731109D01*
X10136109Y-12731109D01*
X10136109Y-12808891D01*
X10213891Y-12808891D01*
X10120000Y-12969000D02*
X10230000Y-13079000D01*
X10230000Y-12969000D02*
X10120000Y-13079000D01*
X10213891Y-13062891D02*
X10213891Y-12985109D01*
X10136109Y-12985109D01*
X10136109Y-13062891D01*
X10213891Y-13062891D01*
X10120000Y-13223000D02*
X10230000Y-13333000D01*
X10230000Y-13223000D02*
X10120000Y-13333000D01*
X10213891Y-13316891D02*
X10213891Y-13239109D01*
X10136109Y-13239109D01*
X10136109Y-13316891D01*
X10213891Y-13316891D01*
X10374000Y-11953000D02*
X10484000Y-12063000D01*
X10484000Y-11953000D02*
X10374000Y-12063000D01*
X10467891Y-12046891D02*
X10467891Y-11969109D01*
X10390109Y-11969109D01*
X10390109Y-12046891D01*
X10467891Y-12046891D01*
X10425080Y-8010920D02*
X10535080Y-8120920D01*
X10535080Y-8010920D02*
X10425080Y-8120920D01*
X10518971Y-8104811D02*
X10518971Y-8027029D01*
X10441189Y-8027029D01*
X10441189Y-8104811D01*
X10518971Y-8104811D01*
X10425080Y-8264920D02*
X10535080Y-8374920D01*
X10535080Y-8264920D02*
X10425080Y-8374920D01*
X10518971Y-8358811D02*
X10518971Y-8281029D01*
X10441189Y-8281029D01*
X10441189Y-8358811D01*
X10518971Y-8358811D01*
X10425080Y-8518920D02*
X10535080Y-8628920D01*
X10535080Y-8518920D02*
X10425080Y-8628920D01*
X10518971Y-8612811D02*
X10518971Y-8535029D01*
X10441189Y-8535029D01*
X10441189Y-8612811D01*
X10518971Y-8612811D01*
X10425080Y-8772920D02*
X10535080Y-8882920D01*
X10535080Y-8772920D02*
X10425080Y-8882920D01*
X10518971Y-8866811D02*
X10518971Y-8789029D01*
X10441189Y-8789029D01*
X10441189Y-8866811D01*
X10518971Y-8866811D01*
X10425080Y-9026920D02*
X10535080Y-9136920D01*
X10535080Y-9026920D02*
X10425080Y-9136920D01*
X10518971Y-9120811D02*
X10518971Y-9043029D01*
X10441189Y-9043029D01*
X10441189Y-9120811D01*
X10518971Y-9120811D01*
X10628000Y-11953000D02*
X10738000Y-12063000D01*
X10738000Y-11953000D02*
X10628000Y-12063000D01*
X10721891Y-12046891D02*
X10721891Y-11969109D01*
X10644109Y-11969109D01*
X10644109Y-12046891D01*
X10721891Y-12046891D01*
X10882000Y-11953000D02*
X10992000Y-12063000D01*
X10992000Y-11953000D02*
X10882000Y-12063000D01*
X10975891Y-12046891D02*
X10975891Y-11969109D01*
X10898109Y-11969109D01*
X10898109Y-12046891D01*
X10975891Y-12046891D01*
X11136000Y-11953000D02*
X11246000Y-12063000D01*
X11246000Y-11953000D02*
X11136000Y-12063000D01*
X11229891Y-12046891D02*
X11229891Y-11969109D01*
X11152109Y-11969109D01*
X11152109Y-12046891D01*
X11229891Y-12046891D01*
X11390000Y-7635000D02*
X11500000Y-7745000D01*
X11500000Y-7635000D02*
X11390000Y-7745000D01*
X11483891Y-7728891D02*
X11483891Y-7651109D01*
X11406109Y-7651109D01*
X11406109Y-7728891D01*
X11483891Y-7728891D01*
X11390000Y-11953000D02*
X11500000Y-12063000D01*
X11500000Y-11953000D02*
X11390000Y-12063000D01*
X11483891Y-12046891D02*
X11483891Y-11969109D01*
X11406109Y-11969109D01*
X11406109Y-12046891D01*
X11483891Y-12046891D01*
X11644000Y-7381000D02*
X11754000Y-7491000D01*
X11754000Y-7381000D02*
X11644000Y-7491000D01*
X11737891Y-7474891D02*
X11737891Y-7397109D01*
X11660109Y-7397109D01*
X11660109Y-7474891D01*
X11737891Y-7474891D01*
X11644000Y-7635000D02*
X11754000Y-7745000D01*
X11754000Y-7635000D02*
X11644000Y-7745000D01*
X11737891Y-7728891D02*
X11737891Y-7651109D01*
X11660109Y-7651109D01*
X11660109Y-7728891D01*
X11737891Y-7728891D01*
X11644000Y-7889000D02*
X11754000Y-7999000D01*
X11754000Y-7889000D02*
X11644000Y-7999000D01*
X11737891Y-7982891D02*
X11737891Y-7905109D01*
X11660109Y-7905109D01*
X11660109Y-7982891D01*
X11737891Y-7982891D01*
X11644000Y-8143000D02*
X11754000Y-8253000D01*
X11754000Y-8143000D02*
X11644000Y-8253000D01*
X11737891Y-8236891D02*
X11737891Y-8159109D01*
X11660109Y-8159109D01*
X11660109Y-8236891D01*
X11737891Y-8236891D01*
X11644000Y-8397000D02*
X11754000Y-8507000D01*
X11754000Y-8397000D02*
X11644000Y-8507000D01*
X11737891Y-8490891D02*
X11737891Y-8413109D01*
X11660109Y-8413109D01*
X11660109Y-8490891D01*
X11737891Y-8490891D01*
X11644000Y-8651000D02*
X11754000Y-8761000D01*
X11754000Y-8651000D02*
X11644000Y-8761000D01*
X11737891Y-8744891D02*
X11737891Y-8667109D01*
X11660109Y-8667109D01*
X11660109Y-8744891D01*
X11737891Y-8744891D01*
X11644000Y-8905000D02*
X11754000Y-9015000D01*
X11754000Y-8905000D02*
X11644000Y-9015000D01*
X11737891Y-8998891D02*
X11737891Y-8921109D01*
X11660109Y-8921109D01*
X11660109Y-8998891D01*
X11737891Y-8998891D01*
X11644000Y-9159000D02*
X11754000Y-9269000D01*
X11754000Y-9159000D02*
X11644000Y-9269000D01*
X11737891Y-9252891D02*
X11737891Y-9175109D01*
X11660109Y-9175109D01*
X11660109Y-9252891D01*
X11737891Y-9252891D01*
X11644000Y-9413000D02*
X11754000Y-9523000D01*
X11754000Y-9413000D02*
X11644000Y-9523000D01*
X11737891Y-9506891D02*
X11737891Y-9429109D01*
X11660109Y-9429109D01*
X11660109Y-9506891D01*
X11737891Y-9506891D01*
X11644000Y-9667000D02*
X11754000Y-9777000D01*
X11754000Y-9667000D02*
X11644000Y-9777000D01*
X11737891Y-9760891D02*
X11737891Y-9683109D01*
X11660109Y-9683109D01*
X11660109Y-9760891D01*
X11737891Y-9760891D01*
X11644000Y-9921000D02*
X11754000Y-10031000D01*
X11754000Y-9921000D02*
X11644000Y-10031000D01*
X11737891Y-10014891D02*
X11737891Y-9937109D01*
X11660109Y-9937109D01*
X11660109Y-10014891D01*
X11737891Y-10014891D01*
X11644000Y-10175000D02*
X11754000Y-10285000D01*
X11754000Y-10175000D02*
X11644000Y-10285000D01*
X11737891Y-10268891D02*
X11737891Y-10191109D01*
X11660109Y-10191109D01*
X11660109Y-10268891D01*
X11737891Y-10268891D01*
X11644000Y-10429000D02*
X11754000Y-10539000D01*
X11754000Y-10429000D02*
X11644000Y-10539000D01*
X11737891Y-10522891D02*
X11737891Y-10445109D01*
X11660109Y-10445109D01*
X11660109Y-10522891D01*
X11737891Y-10522891D01*
X11644000Y-10683000D02*
X11754000Y-10793000D01*
X11754000Y-10683000D02*
X11644000Y-10793000D01*
X11737891Y-10776891D02*
X11737891Y-10699109D01*
X11660109Y-10699109D01*
X11660109Y-10776891D01*
X11737891Y-10776891D01*
X11644000Y-10937000D02*
X11754000Y-11047000D01*
X11754000Y-10937000D02*
X11644000Y-11047000D01*
X11737891Y-11030891D02*
X11737891Y-10953109D01*
X11660109Y-10953109D01*
X11660109Y-11030891D01*
X11737891Y-11030891D01*
X11644000Y-11191000D02*
X11754000Y-11301000D01*
X11754000Y-11191000D02*
X11644000Y-11301000D01*
X11737891Y-11284891D02*
X11737891Y-11207109D01*
X11660109Y-11207109D01*
X11660109Y-11284891D01*
X11737891Y-11284891D01*
X11644000Y-11445000D02*
X11754000Y-11555000D01*
X11754000Y-11445000D02*
X11644000Y-11555000D01*
X11737891Y-11538891D02*
X11737891Y-11461109D01*
X11660109Y-11461109D01*
X11660109Y-11538891D01*
X11737891Y-11538891D01*
X11644000Y-11699000D02*
X11754000Y-11809000D01*
X11754000Y-11699000D02*
X11644000Y-11809000D01*
X11737891Y-11792891D02*
X11737891Y-11715109D01*
X11660109Y-11715109D01*
X11660109Y-11792891D01*
X11737891Y-11792891D01*
X11644000Y-11953000D02*
X11754000Y-12063000D01*
X11754000Y-11953000D02*
X11644000Y-12063000D01*
X11737891Y-12046891D02*
X11737891Y-11969109D01*
X11660109Y-11969109D01*
X11660109Y-12046891D01*
X11737891Y-12046891D01*
X11644000Y-12207000D02*
X11754000Y-12317000D01*
X11754000Y-12207000D02*
X11644000Y-12317000D01*
X11737891Y-12300891D02*
X11737891Y-12223109D01*
X11660109Y-12223109D01*
X11660109Y-12300891D01*
X11737891Y-12300891D01*
X11644000Y-12461000D02*
X11754000Y-12571000D01*
X11754000Y-12461000D02*
X11644000Y-12571000D01*
X11737891Y-12554891D02*
X11737891Y-12477109D01*
X11660109Y-12477109D01*
X11660109Y-12554891D01*
X11737891Y-12554891D01*
X11644000Y-12715000D02*
X11754000Y-12825000D01*
X11754000Y-12715000D02*
X11644000Y-12825000D01*
X11737891Y-12808891D02*
X11737891Y-12731109D01*
X11660109Y-12731109D01*
X11660109Y-12808891D01*
X11737891Y-12808891D01*
X11644000Y-12969000D02*
X11754000Y-13079000D01*
X11754000Y-12969000D02*
X11644000Y-13079000D01*
X11737891Y-13062891D02*
X11737891Y-12985109D01*
X11660109Y-12985109D01*
X11660109Y-13062891D01*
X11737891Y-13062891D01*
X11644000Y-13223000D02*
X11754000Y-13333000D01*
X11754000Y-13223000D02*
X11644000Y-13333000D01*
X11737891Y-13316891D02*
X11737891Y-13239109D01*
X11660109Y-13239109D01*
X11660109Y-13316891D01*
X11737891Y-13316891D01*
D15*
X12935000Y-8915000D02*
X13065000Y-9045000D01*
X13065000Y-8915000D02*
X12935000Y-9045000D01*
X13000000Y-9045000D02*
X13065000Y-8980000D01*
X13000000Y-8915000D01*
X12935000Y-8980000D01*
X13000000Y-9045000D01*
X12935000Y-10135000D02*
X13065000Y-10265000D01*
X13065000Y-10135000D02*
X12935000Y-10265000D01*
X13000000Y-10265000D02*
X13065000Y-10200000D01*
X13000000Y-10135000D01*
X12935000Y-10200000D01*
X13000000Y-10265000D01*
X13535000Y-8715000D02*
X13665000Y-8845000D01*
X13665000Y-8715000D02*
X13535000Y-8845000D01*
X13600000Y-8845000D02*
X13665000Y-8780000D01*
X13600000Y-8715000D01*
X13535000Y-8780000D01*
X13600000Y-8845000D01*
X14135000Y-8915000D02*
X14265000Y-9045000D01*
X14265000Y-8915000D02*
X14135000Y-9045000D01*
X14200000Y-9045000D02*
X14265000Y-8980000D01*
X14200000Y-8915000D01*
X14135000Y-8980000D01*
X14200000Y-9045000D01*
X14135000Y-10135000D02*
X14265000Y-10265000D01*
X14265000Y-10135000D02*
X14135000Y-10265000D01*
X14200000Y-10265000D02*
X14265000Y-10200000D01*
X14200000Y-10135000D01*
X14135000Y-10200000D01*
X14200000Y-10265000D01*
X14785000Y-8915000D02*
X14915000Y-9045000D01*
X14915000Y-8915000D02*
X14785000Y-9045000D01*
X14850000Y-9045000D02*
X14915000Y-8980000D01*
X14850000Y-8915000D01*
X14785000Y-8980000D01*
X14850000Y-9045000D01*
X14785000Y-10135000D02*
X14915000Y-10265000D01*
X14915000Y-10135000D02*
X14785000Y-10265000D01*
X14850000Y-10265000D02*
X14915000Y-10200000D01*
X14850000Y-10135000D01*
X14785000Y-10200000D01*
X14850000Y-10265000D01*
X14785000Y-11510000D02*
X14915000Y-11640000D01*
X14915000Y-11510000D02*
X14785000Y-11640000D01*
X14850000Y-11640000D02*
X14915000Y-11575000D01*
X14850000Y-11510000D01*
X14785000Y-11575000D01*
X14850000Y-11640000D01*
X14785000Y-12730000D02*
X14915000Y-12860000D01*
X14915000Y-12730000D02*
X14785000Y-12860000D01*
X14850000Y-12860000D02*
X14915000Y-12795000D01*
X14850000Y-12730000D01*
X14785000Y-12795000D01*
X14850000Y-12860000D01*
X15385000Y-8715000D02*
X15515000Y-8845000D01*
X15515000Y-8715000D02*
X15385000Y-8845000D01*
X15450000Y-8845000D02*
X15515000Y-8780000D01*
X15450000Y-8715000D01*
X15385000Y-8780000D01*
X15450000Y-8845000D01*
X15385000Y-12930000D02*
X15515000Y-13060000D01*
X15515000Y-12930000D02*
X15385000Y-13060000D01*
X15450000Y-13060000D02*
X15515000Y-12995000D01*
X15450000Y-12930000D01*
X15385000Y-12995000D01*
X15450000Y-13060000D01*
X15985000Y-8915000D02*
X16115000Y-9045000D01*
X16115000Y-8915000D02*
X15985000Y-9045000D01*
X16050000Y-9045000D02*
X16115000Y-8980000D01*
X16050000Y-8915000D01*
X15985000Y-8980000D01*
X16050000Y-9045000D01*
X15985000Y-10135000D02*
X16115000Y-10265000D01*
X16115000Y-10135000D02*
X15985000Y-10265000D01*
X16050000Y-10265000D02*
X16115000Y-10200000D01*
X16050000Y-10135000D01*
X15985000Y-10200000D01*
X16050000Y-10265000D01*
X15985000Y-11510000D02*
X16115000Y-11640000D01*
X16115000Y-11510000D02*
X15985000Y-11640000D01*
X16050000Y-11640000D02*
X16115000Y-11575000D01*
X16050000Y-11510000D01*
X15985000Y-11575000D01*
X16050000Y-11640000D01*
X15985000Y-12730000D02*
X16115000Y-12860000D01*
X16115000Y-12730000D02*
X15985000Y-12860000D01*
X16050000Y-12860000D02*
X16115000Y-12795000D01*
X16050000Y-12730000D01*
X15985000Y-12795000D01*
X16050000Y-12860000D01*
D16*
X11891000Y-6225000D02*
X11891000Y-6385000D01*
X11811000Y-6305000D02*
X11971000Y-6305000D01*
X11971000Y-6305000D02*
G75*
G02*
X11811000Y-6305000I-80000J0D01*
G01*
X11811000Y-6305000D02*
G75*
G02*
X11971000Y-6305000I80000J0D01*
G01*
X13466000Y-6225000D02*
X13466000Y-6385000D01*
X13386000Y-6305000D02*
X13546000Y-6305000D01*
X13546000Y-6305000D02*
G75*
G02*
X13386000Y-6305000I-80000J0D01*
G01*
X13386000Y-6305000D02*
G75*
G02*
X13546000Y-6305000I80000J0D01*
G01*
D17*
X9587338Y-4659738D02*
X9587338Y-4433462D01*
X9361062Y-4433462D01*
X9361062Y-4659738D01*
X9587338Y-4659738D01*
X9634200Y-4546600D02*
G75*
G02*
X9314200Y-4546600I-160000J0D01*
G01*
X9314200Y-4546600D02*
G75*
G02*
X9634200Y-4546600I160000J0D01*
G01*
X9587338Y-13702138D02*
X9587338Y-13475862D01*
X9361062Y-13475862D01*
X9361062Y-13702138D01*
X9587338Y-13702138D01*
X9634200Y-13589000D02*
G75*
G02*
X9314200Y-13589000I-160000J0D01*
G01*
X9314200Y-13589000D02*
G75*
G02*
X9634200Y-13589000I160000J0D01*
G01*
X16623138Y-4659738D02*
X16623138Y-4433462D01*
X16396862Y-4433462D01*
X16396862Y-4659738D01*
X16623138Y-4659738D01*
X16670000Y-4546600D02*
G75*
G02*
X16350000Y-4546600I-160000J0D01*
G01*
X16350000Y-4546600D02*
G75*
G02*
X16670000Y-4546600I160000J0D01*
G01*
X16623138Y-13702138D02*
X16623138Y-13475862D01*
X16396862Y-13475862D01*
X16396862Y-13702138D01*
X16623138Y-13702138D01*
X16670000Y-13589000D02*
G75*
G02*
X16350000Y-13589000I-160000J0D01*
G01*
X16350000Y-13589000D02*
G75*
G02*
X16670000Y-13589000I160000J0D01*
G01*
D11*
X9248277Y-14379584D02*
X9248277Y-14179584D01*
X9248277Y-14179584D02*
X9295896Y-14179584D01*
X9295896Y-14179584D02*
X9324467Y-14189108D01*
X9324467Y-14189108D02*
X9343515Y-14208155D01*
X9343515Y-14208155D02*
X9353039Y-14227203D01*
X9353039Y-14227203D02*
X9362563Y-14265298D01*
X9362563Y-14265298D02*
X9362563Y-14293869D01*
X9362563Y-14293869D02*
X9353039Y-14331965D01*
X9353039Y-14331965D02*
X9343515Y-14351012D01*
X9343515Y-14351012D02*
X9324467Y-14370060D01*
X9324467Y-14370060D02*
X9295896Y-14379584D01*
X9295896Y-14379584D02*
X9248277Y-14379584D01*
X9448277Y-14379584D02*
X9448277Y-14246250D01*
X9448277Y-14284346D02*
X9457801Y-14265298D01*
X9457801Y-14265298D02*
X9467324Y-14255774D01*
X9467324Y-14255774D02*
X9486372Y-14246250D01*
X9486372Y-14246250D02*
X9505420Y-14246250D01*
X9572086Y-14379584D02*
X9572086Y-14246250D01*
X9572086Y-14179584D02*
X9562563Y-14189108D01*
X9562563Y-14189108D02*
X9572086Y-14198631D01*
X9572086Y-14198631D02*
X9581610Y-14189108D01*
X9581610Y-14189108D02*
X9572086Y-14179584D01*
X9572086Y-14179584D02*
X9572086Y-14198631D01*
X9695896Y-14379584D02*
X9676848Y-14370060D01*
X9676848Y-14370060D02*
X9667324Y-14351012D01*
X9667324Y-14351012D02*
X9667324Y-14179584D01*
X9800658Y-14379584D02*
X9781610Y-14370060D01*
X9781610Y-14370060D02*
X9772086Y-14351012D01*
X9772086Y-14351012D02*
X9772086Y-14179584D01*
X10029229Y-14379584D02*
X10029229Y-14179584D01*
X10029229Y-14179584D02*
X10095896Y-14322441D01*
X10095896Y-14322441D02*
X10162563Y-14179584D01*
X10162563Y-14179584D02*
X10162563Y-14379584D01*
X10343515Y-14379584D02*
X10343515Y-14274822D01*
X10343515Y-14274822D02*
X10333991Y-14255774D01*
X10333991Y-14255774D02*
X10314944Y-14246250D01*
X10314944Y-14246250D02*
X10276848Y-14246250D01*
X10276848Y-14246250D02*
X10257801Y-14255774D01*
X10343515Y-14370060D02*
X10324467Y-14379584D01*
X10324467Y-14379584D02*
X10276848Y-14379584D01*
X10276848Y-14379584D02*
X10257801Y-14370060D01*
X10257801Y-14370060D02*
X10248277Y-14351012D01*
X10248277Y-14351012D02*
X10248277Y-14331965D01*
X10248277Y-14331965D02*
X10257801Y-14312917D01*
X10257801Y-14312917D02*
X10276848Y-14303393D01*
X10276848Y-14303393D02*
X10324467Y-14303393D01*
X10324467Y-14303393D02*
X10343515Y-14293869D01*
X10438753Y-14246250D02*
X10438753Y-14446250D01*
X10438753Y-14255774D02*
X10457801Y-14246250D01*
X10457801Y-14246250D02*
X10495896Y-14246250D01*
X10495896Y-14246250D02*
X10514944Y-14255774D01*
X10514944Y-14255774D02*
X10524467Y-14265298D01*
X10524467Y-14265298D02*
X10533991Y-14284346D01*
X10533991Y-14284346D02*
X10533991Y-14341488D01*
X10533991Y-14341488D02*
X10524467Y-14360536D01*
X10524467Y-14360536D02*
X10514944Y-14370060D01*
X10514944Y-14370060D02*
X10495896Y-14379584D01*
X10495896Y-14379584D02*
X10457801Y-14379584D01*
X10457801Y-14379584D02*
X10438753Y-14370060D01*
X10619705Y-14360536D02*
X10629229Y-14370060D01*
X10629229Y-14370060D02*
X10619705Y-14379584D01*
X10619705Y-14379584D02*
X10610182Y-14370060D01*
X10610182Y-14370060D02*
X10619705Y-14360536D01*
X10619705Y-14360536D02*
X10619705Y-14379584D01*
X10619705Y-14255774D02*
X10629229Y-14265298D01*
X10629229Y-14265298D02*
X10619705Y-14274822D01*
X10619705Y-14274822D02*
X10610182Y-14265298D01*
X10610182Y-14265298D02*
X10619705Y-14255774D01*
X10619705Y-14255774D02*
X10619705Y-14274822D01*
D12*
X8957500Y-14693100D02*
X8987500Y-14723100D01*
X8987500Y-14693100D02*
X8957500Y-14723100D01*
D11*
X9286372Y-14599584D02*
X9305420Y-14599584D01*
X9305420Y-14599584D02*
X9324467Y-14609108D01*
X9324467Y-14609108D02*
X9333991Y-14618631D01*
X9333991Y-14618631D02*
X9343515Y-14637679D01*
X9343515Y-14637679D02*
X9353039Y-14675774D01*
X9353039Y-14675774D02*
X9353039Y-14723393D01*
X9353039Y-14723393D02*
X9343515Y-14761488D01*
X9343515Y-14761488D02*
X9333991Y-14780536D01*
X9333991Y-14780536D02*
X9324467Y-14790060D01*
X9324467Y-14790060D02*
X9305420Y-14799584D01*
X9305420Y-14799584D02*
X9286372Y-14799584D01*
X9286372Y-14799584D02*
X9267324Y-14790060D01*
X9267324Y-14790060D02*
X9257801Y-14780536D01*
X9257801Y-14780536D02*
X9248277Y-14761488D01*
X9248277Y-14761488D02*
X9238753Y-14723393D01*
X9238753Y-14723393D02*
X9238753Y-14675774D01*
X9238753Y-14675774D02*
X9248277Y-14637679D01*
X9248277Y-14637679D02*
X9257801Y-14618631D01*
X9257801Y-14618631D02*
X9267324Y-14609108D01*
X9267324Y-14609108D02*
X9286372Y-14599584D01*
X9438753Y-14780536D02*
X9448277Y-14790060D01*
X9448277Y-14790060D02*
X9438753Y-14799584D01*
X9438753Y-14799584D02*
X9429229Y-14790060D01*
X9429229Y-14790060D02*
X9438753Y-14780536D01*
X9438753Y-14780536D02*
X9438753Y-14799584D01*
X9514944Y-14599584D02*
X9638753Y-14599584D01*
X9638753Y-14599584D02*
X9572086Y-14675774D01*
X9572086Y-14675774D02*
X9600658Y-14675774D01*
X9600658Y-14675774D02*
X9619705Y-14685298D01*
X9619705Y-14685298D02*
X9629229Y-14694822D01*
X9629229Y-14694822D02*
X9638753Y-14713869D01*
X9638753Y-14713869D02*
X9638753Y-14761488D01*
X9638753Y-14761488D02*
X9629229Y-14780536D01*
X9629229Y-14780536D02*
X9619705Y-14790060D01*
X9619705Y-14790060D02*
X9600658Y-14799584D01*
X9600658Y-14799584D02*
X9543515Y-14799584D01*
X9543515Y-14799584D02*
X9524467Y-14790060D01*
X9524467Y-14790060D02*
X9514944Y-14780536D01*
X9762563Y-14599584D02*
X9781610Y-14599584D01*
X9781610Y-14599584D02*
X9800658Y-14609108D01*
X9800658Y-14609108D02*
X9810182Y-14618631D01*
X9810182Y-14618631D02*
X9819705Y-14637679D01*
X9819705Y-14637679D02*
X9829229Y-14675774D01*
X9829229Y-14675774D02*
X9829229Y-14723393D01*
X9829229Y-14723393D02*
X9819705Y-14761488D01*
X9819705Y-14761488D02*
X9810182Y-14780536D01*
X9810182Y-14780536D02*
X9800658Y-14790060D01*
X9800658Y-14790060D02*
X9781610Y-14799584D01*
X9781610Y-14799584D02*
X9762563Y-14799584D01*
X9762563Y-14799584D02*
X9743515Y-14790060D01*
X9743515Y-14790060D02*
X9733991Y-14780536D01*
X9733991Y-14780536D02*
X9724467Y-14761488D01*
X9724467Y-14761488D02*
X9714944Y-14723393D01*
X9714944Y-14723393D02*
X9714944Y-14675774D01*
X9714944Y-14675774D02*
X9724467Y-14637679D01*
X9724467Y-14637679D02*
X9733991Y-14618631D01*
X9733991Y-14618631D02*
X9743515Y-14609108D01*
X9743515Y-14609108D02*
X9762563Y-14599584D01*
X9953039Y-14599584D02*
X9972086Y-14599584D01*
X9972086Y-14599584D02*
X9991134Y-14609108D01*
X9991134Y-14609108D02*
X10000658Y-14618631D01*
X10000658Y-14618631D02*
X10010182Y-14637679D01*
X10010182Y-14637679D02*
X10019705Y-14675774D01*
X10019705Y-14675774D02*
X10019705Y-14723393D01*
X10019705Y-14723393D02*
X10010182Y-14761488D01*
X10010182Y-14761488D02*
X10000658Y-14780536D01*
X10000658Y-14780536D02*
X9991134Y-14790060D01*
X9991134Y-14790060D02*
X9972086Y-14799584D01*
X9972086Y-14799584D02*
X9953039Y-14799584D01*
X9953039Y-14799584D02*
X9933991Y-14790060D01*
X9933991Y-14790060D02*
X9924467Y-14780536D01*
X9924467Y-14780536D02*
X9914944Y-14761488D01*
X9914944Y-14761488D02*
X9905420Y-14723393D01*
X9905420Y-14723393D02*
X9905420Y-14675774D01*
X9905420Y-14675774D02*
X9914944Y-14637679D01*
X9914944Y-14637679D02*
X9924467Y-14618631D01*
X9924467Y-14618631D02*
X9933991Y-14609108D01*
X9933991Y-14609108D02*
X9953039Y-14599584D01*
X10105420Y-14799584D02*
X10105420Y-14666250D01*
X10105420Y-14685298D02*
X10114944Y-14675774D01*
X10114944Y-14675774D02*
X10133991Y-14666250D01*
X10133991Y-14666250D02*
X10162563Y-14666250D01*
X10162563Y-14666250D02*
X10181610Y-14675774D01*
X10181610Y-14675774D02*
X10191134Y-14694822D01*
X10191134Y-14694822D02*
X10191134Y-14799584D01*
X10191134Y-14694822D02*
X10200658Y-14675774D01*
X10200658Y-14675774D02*
X10219705Y-14666250D01*
X10219705Y-14666250D02*
X10248277Y-14666250D01*
X10248277Y-14666250D02*
X10267325Y-14675774D01*
X10267325Y-14675774D02*
X10276848Y-14694822D01*
X10276848Y-14694822D02*
X10276848Y-14799584D01*
X10372086Y-14799584D02*
X10372086Y-14666250D01*
X10372086Y-14685298D02*
X10381610Y-14675774D01*
X10381610Y-14675774D02*
X10400658Y-14666250D01*
X10400658Y-14666250D02*
X10429229Y-14666250D01*
X10429229Y-14666250D02*
X10448277Y-14675774D01*
X10448277Y-14675774D02*
X10457801Y-14694822D01*
X10457801Y-14694822D02*
X10457801Y-14799584D01*
X10457801Y-14694822D02*
X10467325Y-14675774D01*
X10467325Y-14675774D02*
X10486372Y-14666250D01*
X10486372Y-14666250D02*
X10514944Y-14666250D01*
X10514944Y-14666250D02*
X10533991Y-14675774D01*
X10533991Y-14675774D02*
X10543515Y-14694822D01*
X10543515Y-14694822D02*
X10543515Y-14799584D01*
X10933991Y-14590060D02*
X10762563Y-14847203D01*
X11191134Y-14599584D02*
X11210182Y-14599584D01*
X11210182Y-14599584D02*
X11229229Y-14609108D01*
X11229229Y-14609108D02*
X11238753Y-14618631D01*
X11238753Y-14618631D02*
X11248277Y-14637679D01*
X11248277Y-14637679D02*
X11257801Y-14675774D01*
X11257801Y-14675774D02*
X11257801Y-14723393D01*
X11257801Y-14723393D02*
X11248277Y-14761488D01*
X11248277Y-14761488D02*
X11238753Y-14780536D01*
X11238753Y-14780536D02*
X11229229Y-14790060D01*
X11229229Y-14790060D02*
X11210182Y-14799584D01*
X11210182Y-14799584D02*
X11191134Y-14799584D01*
X11191134Y-14799584D02*
X11172087Y-14790060D01*
X11172087Y-14790060D02*
X11162563Y-14780536D01*
X11162563Y-14780536D02*
X11153039Y-14761488D01*
X11153039Y-14761488D02*
X11143515Y-14723393D01*
X11143515Y-14723393D02*
X11143515Y-14675774D01*
X11143515Y-14675774D02*
X11153039Y-14637679D01*
X11153039Y-14637679D02*
X11162563Y-14618631D01*
X11162563Y-14618631D02*
X11172087Y-14609108D01*
X11172087Y-14609108D02*
X11191134Y-14599584D01*
X11343515Y-14780536D02*
X11353039Y-14790060D01*
X11353039Y-14790060D02*
X11343515Y-14799584D01*
X11343515Y-14799584D02*
X11333991Y-14790060D01*
X11333991Y-14790060D02*
X11343515Y-14780536D01*
X11343515Y-14780536D02*
X11343515Y-14799584D01*
X11476848Y-14599584D02*
X11495896Y-14599584D01*
X11495896Y-14599584D02*
X11514944Y-14609108D01*
X11514944Y-14609108D02*
X11524467Y-14618631D01*
X11524467Y-14618631D02*
X11533991Y-14637679D01*
X11533991Y-14637679D02*
X11543515Y-14675774D01*
X11543515Y-14675774D02*
X11543515Y-14723393D01*
X11543515Y-14723393D02*
X11533991Y-14761488D01*
X11533991Y-14761488D02*
X11524467Y-14780536D01*
X11524467Y-14780536D02*
X11514944Y-14790060D01*
X11514944Y-14790060D02*
X11495896Y-14799584D01*
X11495896Y-14799584D02*
X11476848Y-14799584D01*
X11476848Y-14799584D02*
X11457801Y-14790060D01*
X11457801Y-14790060D02*
X11448277Y-14780536D01*
X11448277Y-14780536D02*
X11438753Y-14761488D01*
X11438753Y-14761488D02*
X11429229Y-14723393D01*
X11429229Y-14723393D02*
X11429229Y-14675774D01*
X11429229Y-14675774D02*
X11438753Y-14637679D01*
X11438753Y-14637679D02*
X11448277Y-14618631D01*
X11448277Y-14618631D02*
X11457801Y-14609108D01*
X11457801Y-14609108D02*
X11476848Y-14599584D01*
X11733991Y-14799584D02*
X11619706Y-14799584D01*
X11676848Y-14799584D02*
X11676848Y-14599584D01*
X11676848Y-14599584D02*
X11657801Y-14628155D01*
X11657801Y-14628155D02*
X11638753Y-14647203D01*
X11638753Y-14647203D02*
X11619706Y-14656727D01*
X11924467Y-14799584D02*
X11810182Y-14799584D01*
X11867325Y-14799584D02*
X11867325Y-14599584D01*
X11867325Y-14599584D02*
X11848277Y-14628155D01*
X11848277Y-14628155D02*
X11829229Y-14647203D01*
X11829229Y-14647203D02*
X11810182Y-14656727D01*
X12038753Y-14685298D02*
X12019706Y-14675774D01*
X12019706Y-14675774D02*
X12010182Y-14666250D01*
X12010182Y-14666250D02*
X12000658Y-14647203D01*
X12000658Y-14647203D02*
X12000658Y-14637679D01*
X12000658Y-14637679D02*
X12010182Y-14618631D01*
X12010182Y-14618631D02*
X12019706Y-14609108D01*
X12019706Y-14609108D02*
X12038753Y-14599584D01*
X12038753Y-14599584D02*
X12076848Y-14599584D01*
X12076848Y-14599584D02*
X12095896Y-14609108D01*
X12095896Y-14609108D02*
X12105420Y-14618631D01*
X12105420Y-14618631D02*
X12114944Y-14637679D01*
X12114944Y-14637679D02*
X12114944Y-14647203D01*
X12114944Y-14647203D02*
X12105420Y-14666250D01*
X12105420Y-14666250D02*
X12095896Y-14675774D01*
X12095896Y-14675774D02*
X12076848Y-14685298D01*
X12076848Y-14685298D02*
X12038753Y-14685298D01*
X12038753Y-14685298D02*
X12019706Y-14694822D01*
X12019706Y-14694822D02*
X12010182Y-14704346D01*
X12010182Y-14704346D02*
X12000658Y-14723393D01*
X12000658Y-14723393D02*
X12000658Y-14761488D01*
X12000658Y-14761488D02*
X12010182Y-14780536D01*
X12010182Y-14780536D02*
X12019706Y-14790060D01*
X12019706Y-14790060D02*
X12038753Y-14799584D01*
X12038753Y-14799584D02*
X12076848Y-14799584D01*
X12076848Y-14799584D02*
X12095896Y-14790060D01*
X12095896Y-14790060D02*
X12105420Y-14780536D01*
X12105420Y-14780536D02*
X12114944Y-14761488D01*
X12114944Y-14761488D02*
X12114944Y-14723393D01*
X12114944Y-14723393D02*
X12105420Y-14704346D01*
X12105420Y-14704346D02*
X12095896Y-14694822D01*
X12095896Y-14694822D02*
X12076848Y-14685298D01*
X12191134Y-14599584D02*
X12191134Y-14637679D01*
X12267325Y-14599584D02*
X12267325Y-14637679D01*
X12562563Y-14875774D02*
X12553039Y-14866250D01*
X12553039Y-14866250D02*
X12533991Y-14837679D01*
X12533991Y-14837679D02*
X12524468Y-14818631D01*
X12524468Y-14818631D02*
X12514944Y-14790060D01*
X12514944Y-14790060D02*
X12505420Y-14742441D01*
X12505420Y-14742441D02*
X12505420Y-14704346D01*
X12505420Y-14704346D02*
X12514944Y-14656727D01*
X12514944Y-14656727D02*
X12524468Y-14628155D01*
X12524468Y-14628155D02*
X12533991Y-14609108D01*
X12533991Y-14609108D02*
X12553039Y-14580536D01*
X12553039Y-14580536D02*
X12562563Y-14571012D01*
X12724468Y-14599584D02*
X12686372Y-14599584D01*
X12686372Y-14599584D02*
X12667325Y-14609108D01*
X12667325Y-14609108D02*
X12657801Y-14618631D01*
X12657801Y-14618631D02*
X12638753Y-14647203D01*
X12638753Y-14647203D02*
X12629229Y-14685298D01*
X12629229Y-14685298D02*
X12629229Y-14761488D01*
X12629229Y-14761488D02*
X12638753Y-14780536D01*
X12638753Y-14780536D02*
X12648277Y-14790060D01*
X12648277Y-14790060D02*
X12667325Y-14799584D01*
X12667325Y-14799584D02*
X12705420Y-14799584D01*
X12705420Y-14799584D02*
X12724468Y-14790060D01*
X12724468Y-14790060D02*
X12733991Y-14780536D01*
X12733991Y-14780536D02*
X12743515Y-14761488D01*
X12743515Y-14761488D02*
X12743515Y-14713869D01*
X12743515Y-14713869D02*
X12733991Y-14694822D01*
X12733991Y-14694822D02*
X12724468Y-14685298D01*
X12724468Y-14685298D02*
X12705420Y-14675774D01*
X12705420Y-14675774D02*
X12667325Y-14675774D01*
X12667325Y-14675774D02*
X12648277Y-14685298D01*
X12648277Y-14685298D02*
X12638753Y-14694822D01*
X12638753Y-14694822D02*
X12629229Y-14713869D01*
X12981610Y-14799584D02*
X12981610Y-14599584D01*
X13067325Y-14799584D02*
X13067325Y-14694822D01*
X13067325Y-14694822D02*
X13057801Y-14675774D01*
X13057801Y-14675774D02*
X13038753Y-14666250D01*
X13038753Y-14666250D02*
X13010182Y-14666250D01*
X13010182Y-14666250D02*
X12991134Y-14675774D01*
X12991134Y-14675774D02*
X12981610Y-14685298D01*
X13191134Y-14799584D02*
X13172087Y-14790060D01*
X13172087Y-14790060D02*
X13162563Y-14780536D01*
X13162563Y-14780536D02*
X13153039Y-14761488D01*
X13153039Y-14761488D02*
X13153039Y-14704346D01*
X13153039Y-14704346D02*
X13162563Y-14685298D01*
X13162563Y-14685298D02*
X13172087Y-14675774D01*
X13172087Y-14675774D02*
X13191134Y-14666250D01*
X13191134Y-14666250D02*
X13219706Y-14666250D01*
X13219706Y-14666250D02*
X13238753Y-14675774D01*
X13238753Y-14675774D02*
X13248277Y-14685298D01*
X13248277Y-14685298D02*
X13257801Y-14704346D01*
X13257801Y-14704346D02*
X13257801Y-14761488D01*
X13257801Y-14761488D02*
X13248277Y-14780536D01*
X13248277Y-14780536D02*
X13238753Y-14790060D01*
X13238753Y-14790060D02*
X13219706Y-14799584D01*
X13219706Y-14799584D02*
X13191134Y-14799584D01*
X13372087Y-14799584D02*
X13353039Y-14790060D01*
X13353039Y-14790060D02*
X13343515Y-14771012D01*
X13343515Y-14771012D02*
X13343515Y-14599584D01*
X13524468Y-14790060D02*
X13505420Y-14799584D01*
X13505420Y-14799584D02*
X13467325Y-14799584D01*
X13467325Y-14799584D02*
X13448277Y-14790060D01*
X13448277Y-14790060D02*
X13438753Y-14771012D01*
X13438753Y-14771012D02*
X13438753Y-14694822D01*
X13438753Y-14694822D02*
X13448277Y-14675774D01*
X13448277Y-14675774D02*
X13467325Y-14666250D01*
X13467325Y-14666250D02*
X13505420Y-14666250D01*
X13505420Y-14666250D02*
X13524468Y-14675774D01*
X13524468Y-14675774D02*
X13533991Y-14694822D01*
X13533991Y-14694822D02*
X13533991Y-14713869D01*
X13533991Y-14713869D02*
X13438753Y-14732917D01*
X13610182Y-14790060D02*
X13629230Y-14799584D01*
X13629230Y-14799584D02*
X13667325Y-14799584D01*
X13667325Y-14799584D02*
X13686372Y-14790060D01*
X13686372Y-14790060D02*
X13695896Y-14771012D01*
X13695896Y-14771012D02*
X13695896Y-14761488D01*
X13695896Y-14761488D02*
X13686372Y-14742441D01*
X13686372Y-14742441D02*
X13667325Y-14732917D01*
X13667325Y-14732917D02*
X13638753Y-14732917D01*
X13638753Y-14732917D02*
X13619706Y-14723393D01*
X13619706Y-14723393D02*
X13610182Y-14704346D01*
X13610182Y-14704346D02*
X13610182Y-14694822D01*
X13610182Y-14694822D02*
X13619706Y-14675774D01*
X13619706Y-14675774D02*
X13638753Y-14666250D01*
X13638753Y-14666250D02*
X13667325Y-14666250D01*
X13667325Y-14666250D02*
X13686372Y-14675774D01*
X13762563Y-14875774D02*
X13772087Y-14866250D01*
X13772087Y-14866250D02*
X13791134Y-14837679D01*
X13791134Y-14837679D02*
X13800658Y-14818631D01*
X13800658Y-14818631D02*
X13810182Y-14790060D01*
X13810182Y-14790060D02*
X13819706Y-14742441D01*
X13819706Y-14742441D02*
X13819706Y-14704346D01*
X13819706Y-14704346D02*
X13810182Y-14656727D01*
X13810182Y-14656727D02*
X13800658Y-14628155D01*
X13800658Y-14628155D02*
X13791134Y-14609108D01*
X13791134Y-14609108D02*
X13772087Y-14580536D01*
X13772087Y-14580536D02*
X13762563Y-14571012D01*
D12*
X8987500Y-14972100D02*
G75*
G02*
X8912500Y-14972100I-37500J0D01*
G01*
X8912500Y-14972100D02*
G75*
G02*
X8987500Y-14972100I37500J0D01*
G01*
D11*
X9286372Y-14863584D02*
X9305420Y-14863584D01*
X9305420Y-14863584D02*
X9324467Y-14873108D01*
X9324467Y-14873108D02*
X9333991Y-14882631D01*
X9333991Y-14882631D02*
X9343515Y-14901679D01*
X9343515Y-14901679D02*
X9353039Y-14939774D01*
X9353039Y-14939774D02*
X9353039Y-14987393D01*
X9353039Y-14987393D02*
X9343515Y-15025488D01*
X9343515Y-15025488D02*
X9333991Y-15044536D01*
X9333991Y-15044536D02*
X9324467Y-15054060D01*
X9324467Y-15054060D02*
X9305420Y-15063584D01*
X9305420Y-15063584D02*
X9286372Y-15063584D01*
X9286372Y-15063584D02*
X9267324Y-15054060D01*
X9267324Y-15054060D02*
X9257801Y-15044536D01*
X9257801Y-15044536D02*
X9248277Y-15025488D01*
X9248277Y-15025488D02*
X9238753Y-14987393D01*
X9238753Y-14987393D02*
X9238753Y-14939774D01*
X9238753Y-14939774D02*
X9248277Y-14901679D01*
X9248277Y-14901679D02*
X9257801Y-14882631D01*
X9257801Y-14882631D02*
X9267324Y-14873108D01*
X9267324Y-14873108D02*
X9286372Y-14863584D01*
X9438753Y-15044536D02*
X9448277Y-15054060D01*
X9448277Y-15054060D02*
X9438753Y-15063584D01*
X9438753Y-15063584D02*
X9429229Y-15054060D01*
X9429229Y-15054060D02*
X9438753Y-15044536D01*
X9438753Y-15044536D02*
X9438753Y-15063584D01*
X9514944Y-14863584D02*
X9648277Y-14863584D01*
X9648277Y-14863584D02*
X9562563Y-15063584D01*
X9819705Y-14863584D02*
X9724467Y-14863584D01*
X9724467Y-14863584D02*
X9714944Y-14958822D01*
X9714944Y-14958822D02*
X9724467Y-14949298D01*
X9724467Y-14949298D02*
X9743515Y-14939774D01*
X9743515Y-14939774D02*
X9791134Y-14939774D01*
X9791134Y-14939774D02*
X9810182Y-14949298D01*
X9810182Y-14949298D02*
X9819705Y-14958822D01*
X9819705Y-14958822D02*
X9829229Y-14977869D01*
X9829229Y-14977869D02*
X9829229Y-15025488D01*
X9829229Y-15025488D02*
X9819705Y-15044536D01*
X9819705Y-15044536D02*
X9810182Y-15054060D01*
X9810182Y-15054060D02*
X9791134Y-15063584D01*
X9791134Y-15063584D02*
X9743515Y-15063584D01*
X9743515Y-15063584D02*
X9724467Y-15054060D01*
X9724467Y-15054060D02*
X9714944Y-15044536D01*
X9953039Y-14863584D02*
X9972086Y-14863584D01*
X9972086Y-14863584D02*
X9991134Y-14873108D01*
X9991134Y-14873108D02*
X10000658Y-14882631D01*
X10000658Y-14882631D02*
X10010182Y-14901679D01*
X10010182Y-14901679D02*
X10019705Y-14939774D01*
X10019705Y-14939774D02*
X10019705Y-14987393D01*
X10019705Y-14987393D02*
X10010182Y-15025488D01*
X10010182Y-15025488D02*
X10000658Y-15044536D01*
X10000658Y-15044536D02*
X9991134Y-15054060D01*
X9991134Y-15054060D02*
X9972086Y-15063584D01*
X9972086Y-15063584D02*
X9953039Y-15063584D01*
X9953039Y-15063584D02*
X9933991Y-15054060D01*
X9933991Y-15054060D02*
X9924467Y-15044536D01*
X9924467Y-15044536D02*
X9914944Y-15025488D01*
X9914944Y-15025488D02*
X9905420Y-14987393D01*
X9905420Y-14987393D02*
X9905420Y-14939774D01*
X9905420Y-14939774D02*
X9914944Y-14901679D01*
X9914944Y-14901679D02*
X9924467Y-14882631D01*
X9924467Y-14882631D02*
X9933991Y-14873108D01*
X9933991Y-14873108D02*
X9953039Y-14863584D01*
X10105420Y-15063584D02*
X10105420Y-14930250D01*
X10105420Y-14949298D02*
X10114944Y-14939774D01*
X10114944Y-14939774D02*
X10133991Y-14930250D01*
X10133991Y-14930250D02*
X10162563Y-14930250D01*
X10162563Y-14930250D02*
X10181610Y-14939774D01*
X10181610Y-14939774D02*
X10191134Y-14958822D01*
X10191134Y-14958822D02*
X10191134Y-15063584D01*
X10191134Y-14958822D02*
X10200658Y-14939774D01*
X10200658Y-14939774D02*
X10219705Y-14930250D01*
X10219705Y-14930250D02*
X10248277Y-14930250D01*
X10248277Y-14930250D02*
X10267325Y-14939774D01*
X10267325Y-14939774D02*
X10276848Y-14958822D01*
X10276848Y-14958822D02*
X10276848Y-15063584D01*
X10372086Y-15063584D02*
X10372086Y-14930250D01*
X10372086Y-14949298D02*
X10381610Y-14939774D01*
X10381610Y-14939774D02*
X10400658Y-14930250D01*
X10400658Y-14930250D02*
X10429229Y-14930250D01*
X10429229Y-14930250D02*
X10448277Y-14939774D01*
X10448277Y-14939774D02*
X10457801Y-14958822D01*
X10457801Y-14958822D02*
X10457801Y-15063584D01*
X10457801Y-14958822D02*
X10467325Y-14939774D01*
X10467325Y-14939774D02*
X10486372Y-14930250D01*
X10486372Y-14930250D02*
X10514944Y-14930250D01*
X10514944Y-14930250D02*
X10533991Y-14939774D01*
X10533991Y-14939774D02*
X10543515Y-14958822D01*
X10543515Y-14958822D02*
X10543515Y-15063584D01*
X10933991Y-14854060D02*
X10762563Y-15111203D01*
X11191134Y-14863584D02*
X11210182Y-14863584D01*
X11210182Y-14863584D02*
X11229229Y-14873108D01*
X11229229Y-14873108D02*
X11238753Y-14882631D01*
X11238753Y-14882631D02*
X11248277Y-14901679D01*
X11248277Y-14901679D02*
X11257801Y-14939774D01*
X11257801Y-14939774D02*
X11257801Y-14987393D01*
X11257801Y-14987393D02*
X11248277Y-15025488D01*
X11248277Y-15025488D02*
X11238753Y-15044536D01*
X11238753Y-15044536D02*
X11229229Y-15054060D01*
X11229229Y-15054060D02*
X11210182Y-15063584D01*
X11210182Y-15063584D02*
X11191134Y-15063584D01*
X11191134Y-15063584D02*
X11172087Y-15054060D01*
X11172087Y-15054060D02*
X11162563Y-15044536D01*
X11162563Y-15044536D02*
X11153039Y-15025488D01*
X11153039Y-15025488D02*
X11143515Y-14987393D01*
X11143515Y-14987393D02*
X11143515Y-14939774D01*
X11143515Y-14939774D02*
X11153039Y-14901679D01*
X11153039Y-14901679D02*
X11162563Y-14882631D01*
X11162563Y-14882631D02*
X11172087Y-14873108D01*
X11172087Y-14873108D02*
X11191134Y-14863584D01*
X11343515Y-15044536D02*
X11353039Y-15054060D01*
X11353039Y-15054060D02*
X11343515Y-15063584D01*
X11343515Y-15063584D02*
X11333991Y-15054060D01*
X11333991Y-15054060D02*
X11343515Y-15044536D01*
X11343515Y-15044536D02*
X11343515Y-15063584D01*
X11476848Y-14863584D02*
X11495896Y-14863584D01*
X11495896Y-14863584D02*
X11514944Y-14873108D01*
X11514944Y-14873108D02*
X11524467Y-14882631D01*
X11524467Y-14882631D02*
X11533991Y-14901679D01*
X11533991Y-14901679D02*
X11543515Y-14939774D01*
X11543515Y-14939774D02*
X11543515Y-14987393D01*
X11543515Y-14987393D02*
X11533991Y-15025488D01*
X11533991Y-15025488D02*
X11524467Y-15044536D01*
X11524467Y-15044536D02*
X11514944Y-15054060D01*
X11514944Y-15054060D02*
X11495896Y-15063584D01*
X11495896Y-15063584D02*
X11476848Y-15063584D01*
X11476848Y-15063584D02*
X11457801Y-15054060D01*
X11457801Y-15054060D02*
X11448277Y-15044536D01*
X11448277Y-15044536D02*
X11438753Y-15025488D01*
X11438753Y-15025488D02*
X11429229Y-14987393D01*
X11429229Y-14987393D02*
X11429229Y-14939774D01*
X11429229Y-14939774D02*
X11438753Y-14901679D01*
X11438753Y-14901679D02*
X11448277Y-14882631D01*
X11448277Y-14882631D02*
X11457801Y-14873108D01*
X11457801Y-14873108D02*
X11476848Y-14863584D01*
X11619706Y-14882631D02*
X11629229Y-14873108D01*
X11629229Y-14873108D02*
X11648277Y-14863584D01*
X11648277Y-14863584D02*
X11695896Y-14863584D01*
X11695896Y-14863584D02*
X11714944Y-14873108D01*
X11714944Y-14873108D02*
X11724467Y-14882631D01*
X11724467Y-14882631D02*
X11733991Y-14901679D01*
X11733991Y-14901679D02*
X11733991Y-14920727D01*
X11733991Y-14920727D02*
X11724467Y-14949298D01*
X11724467Y-14949298D02*
X11610182Y-15063584D01*
X11610182Y-15063584D02*
X11733991Y-15063584D01*
X11829229Y-15063584D02*
X11867325Y-15063584D01*
X11867325Y-15063584D02*
X11886372Y-15054060D01*
X11886372Y-15054060D02*
X11895896Y-15044536D01*
X11895896Y-15044536D02*
X11914944Y-15015965D01*
X11914944Y-15015965D02*
X11924467Y-14977869D01*
X11924467Y-14977869D02*
X11924467Y-14901679D01*
X11924467Y-14901679D02*
X11914944Y-14882631D01*
X11914944Y-14882631D02*
X11905420Y-14873108D01*
X11905420Y-14873108D02*
X11886372Y-14863584D01*
X11886372Y-14863584D02*
X11848277Y-14863584D01*
X11848277Y-14863584D02*
X11829229Y-14873108D01*
X11829229Y-14873108D02*
X11819706Y-14882631D01*
X11819706Y-14882631D02*
X11810182Y-14901679D01*
X11810182Y-14901679D02*
X11810182Y-14949298D01*
X11810182Y-14949298D02*
X11819706Y-14968346D01*
X11819706Y-14968346D02*
X11829229Y-14977869D01*
X11829229Y-14977869D02*
X11848277Y-14987393D01*
X11848277Y-14987393D02*
X11886372Y-14987393D01*
X11886372Y-14987393D02*
X11905420Y-14977869D01*
X11905420Y-14977869D02*
X11914944Y-14968346D01*
X11914944Y-14968346D02*
X11924467Y-14949298D01*
X12105420Y-14863584D02*
X12010182Y-14863584D01*
X12010182Y-14863584D02*
X12000658Y-14958822D01*
X12000658Y-14958822D02*
X12010182Y-14949298D01*
X12010182Y-14949298D02*
X12029229Y-14939774D01*
X12029229Y-14939774D02*
X12076848Y-14939774D01*
X12076848Y-14939774D02*
X12095896Y-14949298D01*
X12095896Y-14949298D02*
X12105420Y-14958822D01*
X12105420Y-14958822D02*
X12114944Y-14977869D01*
X12114944Y-14977869D02*
X12114944Y-15025488D01*
X12114944Y-15025488D02*
X12105420Y-15044536D01*
X12105420Y-15044536D02*
X12095896Y-15054060D01*
X12095896Y-15054060D02*
X12076848Y-15063584D01*
X12076848Y-15063584D02*
X12029229Y-15063584D01*
X12029229Y-15063584D02*
X12010182Y-15054060D01*
X12010182Y-15054060D02*
X12000658Y-15044536D01*
X12191134Y-14863584D02*
X12191134Y-14901679D01*
X12267325Y-14863584D02*
X12267325Y-14901679D01*
X12562563Y-15139774D02*
X12553039Y-15130250D01*
X12553039Y-15130250D02*
X12533991Y-15101679D01*
X12533991Y-15101679D02*
X12524468Y-15082631D01*
X12524468Y-15082631D02*
X12514944Y-15054060D01*
X12514944Y-15054060D02*
X12505420Y-15006441D01*
X12505420Y-15006441D02*
X12505420Y-14968346D01*
X12505420Y-14968346D02*
X12514944Y-14920727D01*
X12514944Y-14920727D02*
X12524468Y-14892155D01*
X12524468Y-14892155D02*
X12533991Y-14873108D01*
X12533991Y-14873108D02*
X12553039Y-14844536D01*
X12553039Y-14844536D02*
X12562563Y-14835012D01*
X12648277Y-15063584D02*
X12686372Y-15063584D01*
X12686372Y-15063584D02*
X12705420Y-15054060D01*
X12705420Y-15054060D02*
X12714944Y-15044536D01*
X12714944Y-15044536D02*
X12733991Y-15015965D01*
X12733991Y-15015965D02*
X12743515Y-14977869D01*
X12743515Y-14977869D02*
X12743515Y-14901679D01*
X12743515Y-14901679D02*
X12733991Y-14882631D01*
X12733991Y-14882631D02*
X12724468Y-14873108D01*
X12724468Y-14873108D02*
X12705420Y-14863584D01*
X12705420Y-14863584D02*
X12667325Y-14863584D01*
X12667325Y-14863584D02*
X12648277Y-14873108D01*
X12648277Y-14873108D02*
X12638753Y-14882631D01*
X12638753Y-14882631D02*
X12629229Y-14901679D01*
X12629229Y-14901679D02*
X12629229Y-14949298D01*
X12629229Y-14949298D02*
X12638753Y-14968346D01*
X12638753Y-14968346D02*
X12648277Y-14977869D01*
X12648277Y-14977869D02*
X12667325Y-14987393D01*
X12667325Y-14987393D02*
X12705420Y-14987393D01*
X12705420Y-14987393D02*
X12724468Y-14977869D01*
X12724468Y-14977869D02*
X12733991Y-14968346D01*
X12733991Y-14968346D02*
X12743515Y-14949298D01*
X12981610Y-15063584D02*
X12981610Y-14863584D01*
X13067325Y-15063584D02*
X13067325Y-14958822D01*
X13067325Y-14958822D02*
X13057801Y-14939774D01*
X13057801Y-14939774D02*
X13038753Y-14930250D01*
X13038753Y-14930250D02*
X13010182Y-14930250D01*
X13010182Y-14930250D02*
X12991134Y-14939774D01*
X12991134Y-14939774D02*
X12981610Y-14949298D01*
X13191134Y-15063584D02*
X13172087Y-15054060D01*
X13172087Y-15054060D02*
X13162563Y-15044536D01*
X13162563Y-15044536D02*
X13153039Y-15025488D01*
X13153039Y-15025488D02*
X13153039Y-14968346D01*
X13153039Y-14968346D02*
X13162563Y-14949298D01*
X13162563Y-14949298D02*
X13172087Y-14939774D01*
X13172087Y-14939774D02*
X13191134Y-14930250D01*
X13191134Y-14930250D02*
X13219706Y-14930250D01*
X13219706Y-14930250D02*
X13238753Y-14939774D01*
X13238753Y-14939774D02*
X13248277Y-14949298D01*
X13248277Y-14949298D02*
X13257801Y-14968346D01*
X13257801Y-14968346D02*
X13257801Y-15025488D01*
X13257801Y-15025488D02*
X13248277Y-15044536D01*
X13248277Y-15044536D02*
X13238753Y-15054060D01*
X13238753Y-15054060D02*
X13219706Y-15063584D01*
X13219706Y-15063584D02*
X13191134Y-15063584D01*
X13372087Y-15063584D02*
X13353039Y-15054060D01*
X13353039Y-15054060D02*
X13343515Y-15035012D01*
X13343515Y-15035012D02*
X13343515Y-14863584D01*
X13524468Y-15054060D02*
X13505420Y-15063584D01*
X13505420Y-15063584D02*
X13467325Y-15063584D01*
X13467325Y-15063584D02*
X13448277Y-15054060D01*
X13448277Y-15054060D02*
X13438753Y-15035012D01*
X13438753Y-15035012D02*
X13438753Y-14958822D01*
X13438753Y-14958822D02*
X13448277Y-14939774D01*
X13448277Y-14939774D02*
X13467325Y-14930250D01*
X13467325Y-14930250D02*
X13505420Y-14930250D01*
X13505420Y-14930250D02*
X13524468Y-14939774D01*
X13524468Y-14939774D02*
X13533991Y-14958822D01*
X13533991Y-14958822D02*
X13533991Y-14977869D01*
X13533991Y-14977869D02*
X13438753Y-14996917D01*
X13610182Y-15054060D02*
X13629230Y-15063584D01*
X13629230Y-15063584D02*
X13667325Y-15063584D01*
X13667325Y-15063584D02*
X13686372Y-15054060D01*
X13686372Y-15054060D02*
X13695896Y-15035012D01*
X13695896Y-15035012D02*
X13695896Y-15025488D01*
X13695896Y-15025488D02*
X13686372Y-15006441D01*
X13686372Y-15006441D02*
X13667325Y-14996917D01*
X13667325Y-14996917D02*
X13638753Y-14996917D01*
X13638753Y-14996917D02*
X13619706Y-14987393D01*
X13619706Y-14987393D02*
X13610182Y-14968346D01*
X13610182Y-14968346D02*
X13610182Y-14958822D01*
X13610182Y-14958822D02*
X13619706Y-14939774D01*
X13619706Y-14939774D02*
X13638753Y-14930250D01*
X13638753Y-14930250D02*
X13667325Y-14930250D01*
X13667325Y-14930250D02*
X13686372Y-14939774D01*
X13762563Y-15139774D02*
X13772087Y-15130250D01*
X13772087Y-15130250D02*
X13791134Y-15101679D01*
X13791134Y-15101679D02*
X13800658Y-15082631D01*
X13800658Y-15082631D02*
X13810182Y-15054060D01*
X13810182Y-15054060D02*
X13819706Y-15006441D01*
X13819706Y-15006441D02*
X13819706Y-14968346D01*
X13819706Y-14968346D02*
X13810182Y-14920727D01*
X13810182Y-14920727D02*
X13800658Y-14892155D01*
X13800658Y-14892155D02*
X13791134Y-14873108D01*
X13791134Y-14873108D02*
X13772087Y-14844536D01*
X13772087Y-14844536D02*
X13762563Y-14835012D01*
D12*
X8947500Y-15196100D02*
X8947500Y-15276100D01*
X8907500Y-15236100D02*
X8987500Y-15236100D01*
D11*
X9286372Y-15127584D02*
X9305420Y-15127584D01*
X9305420Y-15127584D02*
X9324467Y-15137108D01*
X9324467Y-15137108D02*
X9333991Y-15146631D01*
X9333991Y-15146631D02*
X9343515Y-15165679D01*
X9343515Y-15165679D02*
X9353039Y-15203774D01*
X9353039Y-15203774D02*
X9353039Y-15251393D01*
X9353039Y-15251393D02*
X9343515Y-15289488D01*
X9343515Y-15289488D02*
X9333991Y-15308536D01*
X9333991Y-15308536D02*
X9324467Y-15318060D01*
X9324467Y-15318060D02*
X9305420Y-15327584D01*
X9305420Y-15327584D02*
X9286372Y-15327584D01*
X9286372Y-15327584D02*
X9267324Y-15318060D01*
X9267324Y-15318060D02*
X9257801Y-15308536D01*
X9257801Y-15308536D02*
X9248277Y-15289488D01*
X9248277Y-15289488D02*
X9238753Y-15251393D01*
X9238753Y-15251393D02*
X9238753Y-15203774D01*
X9238753Y-15203774D02*
X9248277Y-15165679D01*
X9248277Y-15165679D02*
X9257801Y-15146631D01*
X9257801Y-15146631D02*
X9267324Y-15137108D01*
X9267324Y-15137108D02*
X9286372Y-15127584D01*
X9438753Y-15308536D02*
X9448277Y-15318060D01*
X9448277Y-15318060D02*
X9438753Y-15327584D01*
X9438753Y-15327584D02*
X9429229Y-15318060D01*
X9429229Y-15318060D02*
X9438753Y-15308536D01*
X9438753Y-15308536D02*
X9438753Y-15327584D01*
X9562563Y-15213298D02*
X9543515Y-15203774D01*
X9543515Y-15203774D02*
X9533991Y-15194250D01*
X9533991Y-15194250D02*
X9524467Y-15175203D01*
X9524467Y-15175203D02*
X9524467Y-15165679D01*
X9524467Y-15165679D02*
X9533991Y-15146631D01*
X9533991Y-15146631D02*
X9543515Y-15137108D01*
X9543515Y-15137108D02*
X9562563Y-15127584D01*
X9562563Y-15127584D02*
X9600658Y-15127584D01*
X9600658Y-15127584D02*
X9619705Y-15137108D01*
X9619705Y-15137108D02*
X9629229Y-15146631D01*
X9629229Y-15146631D02*
X9638753Y-15165679D01*
X9638753Y-15165679D02*
X9638753Y-15175203D01*
X9638753Y-15175203D02*
X9629229Y-15194250D01*
X9629229Y-15194250D02*
X9619705Y-15203774D01*
X9619705Y-15203774D02*
X9600658Y-15213298D01*
X9600658Y-15213298D02*
X9562563Y-15213298D01*
X9562563Y-15213298D02*
X9543515Y-15222822D01*
X9543515Y-15222822D02*
X9533991Y-15232346D01*
X9533991Y-15232346D02*
X9524467Y-15251393D01*
X9524467Y-15251393D02*
X9524467Y-15289488D01*
X9524467Y-15289488D02*
X9533991Y-15308536D01*
X9533991Y-15308536D02*
X9543515Y-15318060D01*
X9543515Y-15318060D02*
X9562563Y-15327584D01*
X9562563Y-15327584D02*
X9600658Y-15327584D01*
X9600658Y-15327584D02*
X9619705Y-15318060D01*
X9619705Y-15318060D02*
X9629229Y-15308536D01*
X9629229Y-15308536D02*
X9638753Y-15289488D01*
X9638753Y-15289488D02*
X9638753Y-15251393D01*
X9638753Y-15251393D02*
X9629229Y-15232346D01*
X9629229Y-15232346D02*
X9619705Y-15222822D01*
X9619705Y-15222822D02*
X9600658Y-15213298D01*
X9762563Y-15127584D02*
X9781610Y-15127584D01*
X9781610Y-15127584D02*
X9800658Y-15137108D01*
X9800658Y-15137108D02*
X9810182Y-15146631D01*
X9810182Y-15146631D02*
X9819705Y-15165679D01*
X9819705Y-15165679D02*
X9829229Y-15203774D01*
X9829229Y-15203774D02*
X9829229Y-15251393D01*
X9829229Y-15251393D02*
X9819705Y-15289488D01*
X9819705Y-15289488D02*
X9810182Y-15308536D01*
X9810182Y-15308536D02*
X9800658Y-15318060D01*
X9800658Y-15318060D02*
X9781610Y-15327584D01*
X9781610Y-15327584D02*
X9762563Y-15327584D01*
X9762563Y-15327584D02*
X9743515Y-15318060D01*
X9743515Y-15318060D02*
X9733991Y-15308536D01*
X9733991Y-15308536D02*
X9724467Y-15289488D01*
X9724467Y-15289488D02*
X9714944Y-15251393D01*
X9714944Y-15251393D02*
X9714944Y-15203774D01*
X9714944Y-15203774D02*
X9724467Y-15165679D01*
X9724467Y-15165679D02*
X9733991Y-15146631D01*
X9733991Y-15146631D02*
X9743515Y-15137108D01*
X9743515Y-15137108D02*
X9762563Y-15127584D01*
X9953039Y-15127584D02*
X9972086Y-15127584D01*
X9972086Y-15127584D02*
X9991134Y-15137108D01*
X9991134Y-15137108D02*
X10000658Y-15146631D01*
X10000658Y-15146631D02*
X10010182Y-15165679D01*
X10010182Y-15165679D02*
X10019705Y-15203774D01*
X10019705Y-15203774D02*
X10019705Y-15251393D01*
X10019705Y-15251393D02*
X10010182Y-15289488D01*
X10010182Y-15289488D02*
X10000658Y-15308536D01*
X10000658Y-15308536D02*
X9991134Y-15318060D01*
X9991134Y-15318060D02*
X9972086Y-15327584D01*
X9972086Y-15327584D02*
X9953039Y-15327584D01*
X9953039Y-15327584D02*
X9933991Y-15318060D01*
X9933991Y-15318060D02*
X9924467Y-15308536D01*
X9924467Y-15308536D02*
X9914944Y-15289488D01*
X9914944Y-15289488D02*
X9905420Y-15251393D01*
X9905420Y-15251393D02*
X9905420Y-15203774D01*
X9905420Y-15203774D02*
X9914944Y-15165679D01*
X9914944Y-15165679D02*
X9924467Y-15146631D01*
X9924467Y-15146631D02*
X9933991Y-15137108D01*
X9933991Y-15137108D02*
X9953039Y-15127584D01*
X10105420Y-15327584D02*
X10105420Y-15194250D01*
X10105420Y-15213298D02*
X10114944Y-15203774D01*
X10114944Y-15203774D02*
X10133991Y-15194250D01*
X10133991Y-15194250D02*
X10162563Y-15194250D01*
X10162563Y-15194250D02*
X10181610Y-15203774D01*
X10181610Y-15203774D02*
X10191134Y-15222822D01*
X10191134Y-15222822D02*
X10191134Y-15327584D01*
X10191134Y-15222822D02*
X10200658Y-15203774D01*
X10200658Y-15203774D02*
X10219705Y-15194250D01*
X10219705Y-15194250D02*
X10248277Y-15194250D01*
X10248277Y-15194250D02*
X10267325Y-15203774D01*
X10267325Y-15203774D02*
X10276848Y-15222822D01*
X10276848Y-15222822D02*
X10276848Y-15327584D01*
X10372086Y-15327584D02*
X10372086Y-15194250D01*
X10372086Y-15213298D02*
X10381610Y-15203774D01*
X10381610Y-15203774D02*
X10400658Y-15194250D01*
X10400658Y-15194250D02*
X10429229Y-15194250D01*
X10429229Y-15194250D02*
X10448277Y-15203774D01*
X10448277Y-15203774D02*
X10457801Y-15222822D01*
X10457801Y-15222822D02*
X10457801Y-15327584D01*
X10457801Y-15222822D02*
X10467325Y-15203774D01*
X10467325Y-15203774D02*
X10486372Y-15194250D01*
X10486372Y-15194250D02*
X10514944Y-15194250D01*
X10514944Y-15194250D02*
X10533991Y-15203774D01*
X10533991Y-15203774D02*
X10543515Y-15222822D01*
X10543515Y-15222822D02*
X10543515Y-15327584D01*
X10933991Y-15118060D02*
X10762563Y-15375203D01*
X11191134Y-15127584D02*
X11210182Y-15127584D01*
X11210182Y-15127584D02*
X11229229Y-15137108D01*
X11229229Y-15137108D02*
X11238753Y-15146631D01*
X11238753Y-15146631D02*
X11248277Y-15165679D01*
X11248277Y-15165679D02*
X11257801Y-15203774D01*
X11257801Y-15203774D02*
X11257801Y-15251393D01*
X11257801Y-15251393D02*
X11248277Y-15289488D01*
X11248277Y-15289488D02*
X11238753Y-15308536D01*
X11238753Y-15308536D02*
X11229229Y-15318060D01*
X11229229Y-15318060D02*
X11210182Y-15327584D01*
X11210182Y-15327584D02*
X11191134Y-15327584D01*
X11191134Y-15327584D02*
X11172087Y-15318060D01*
X11172087Y-15318060D02*
X11162563Y-15308536D01*
X11162563Y-15308536D02*
X11153039Y-15289488D01*
X11153039Y-15289488D02*
X11143515Y-15251393D01*
X11143515Y-15251393D02*
X11143515Y-15203774D01*
X11143515Y-15203774D02*
X11153039Y-15165679D01*
X11153039Y-15165679D02*
X11162563Y-15146631D01*
X11162563Y-15146631D02*
X11172087Y-15137108D01*
X11172087Y-15137108D02*
X11191134Y-15127584D01*
X11343515Y-15308536D02*
X11353039Y-15318060D01*
X11353039Y-15318060D02*
X11343515Y-15327584D01*
X11343515Y-15327584D02*
X11333991Y-15318060D01*
X11333991Y-15318060D02*
X11343515Y-15308536D01*
X11343515Y-15308536D02*
X11343515Y-15327584D01*
X11476848Y-15127584D02*
X11495896Y-15127584D01*
X11495896Y-15127584D02*
X11514944Y-15137108D01*
X11514944Y-15137108D02*
X11524467Y-15146631D01*
X11524467Y-15146631D02*
X11533991Y-15165679D01*
X11533991Y-15165679D02*
X11543515Y-15203774D01*
X11543515Y-15203774D02*
X11543515Y-15251393D01*
X11543515Y-15251393D02*
X11533991Y-15289488D01*
X11533991Y-15289488D02*
X11524467Y-15308536D01*
X11524467Y-15308536D02*
X11514944Y-15318060D01*
X11514944Y-15318060D02*
X11495896Y-15327584D01*
X11495896Y-15327584D02*
X11476848Y-15327584D01*
X11476848Y-15327584D02*
X11457801Y-15318060D01*
X11457801Y-15318060D02*
X11448277Y-15308536D01*
X11448277Y-15308536D02*
X11438753Y-15289488D01*
X11438753Y-15289488D02*
X11429229Y-15251393D01*
X11429229Y-15251393D02*
X11429229Y-15203774D01*
X11429229Y-15203774D02*
X11438753Y-15165679D01*
X11438753Y-15165679D02*
X11448277Y-15146631D01*
X11448277Y-15146631D02*
X11457801Y-15137108D01*
X11457801Y-15137108D02*
X11476848Y-15127584D01*
X11610182Y-15127584D02*
X11733991Y-15127584D01*
X11733991Y-15127584D02*
X11667325Y-15203774D01*
X11667325Y-15203774D02*
X11695896Y-15203774D01*
X11695896Y-15203774D02*
X11714944Y-15213298D01*
X11714944Y-15213298D02*
X11724467Y-15222822D01*
X11724467Y-15222822D02*
X11733991Y-15241869D01*
X11733991Y-15241869D02*
X11733991Y-15289488D01*
X11733991Y-15289488D02*
X11724467Y-15308536D01*
X11724467Y-15308536D02*
X11714944Y-15318060D01*
X11714944Y-15318060D02*
X11695896Y-15327584D01*
X11695896Y-15327584D02*
X11638753Y-15327584D01*
X11638753Y-15327584D02*
X11619706Y-15318060D01*
X11619706Y-15318060D02*
X11610182Y-15308536D01*
X11924467Y-15327584D02*
X11810182Y-15327584D01*
X11867325Y-15327584D02*
X11867325Y-15127584D01*
X11867325Y-15127584D02*
X11848277Y-15156155D01*
X11848277Y-15156155D02*
X11829229Y-15175203D01*
X11829229Y-15175203D02*
X11810182Y-15184727D01*
X12105420Y-15127584D02*
X12010182Y-15127584D01*
X12010182Y-15127584D02*
X12000658Y-15222822D01*
X12000658Y-15222822D02*
X12010182Y-15213298D01*
X12010182Y-15213298D02*
X12029229Y-15203774D01*
X12029229Y-15203774D02*
X12076848Y-15203774D01*
X12076848Y-15203774D02*
X12095896Y-15213298D01*
X12095896Y-15213298D02*
X12105420Y-15222822D01*
X12105420Y-15222822D02*
X12114944Y-15241869D01*
X12114944Y-15241869D02*
X12114944Y-15289488D01*
X12114944Y-15289488D02*
X12105420Y-15308536D01*
X12105420Y-15308536D02*
X12095896Y-15318060D01*
X12095896Y-15318060D02*
X12076848Y-15327584D01*
X12076848Y-15327584D02*
X12029229Y-15327584D01*
X12029229Y-15327584D02*
X12010182Y-15318060D01*
X12010182Y-15318060D02*
X12000658Y-15308536D01*
X12191134Y-15127584D02*
X12191134Y-15165679D01*
X12267325Y-15127584D02*
X12267325Y-15165679D01*
X12562563Y-15403774D02*
X12553039Y-15394250D01*
X12553039Y-15394250D02*
X12533991Y-15365679D01*
X12533991Y-15365679D02*
X12524468Y-15346631D01*
X12524468Y-15346631D02*
X12514944Y-15318060D01*
X12514944Y-15318060D02*
X12505420Y-15270441D01*
X12505420Y-15270441D02*
X12505420Y-15232346D01*
X12505420Y-15232346D02*
X12514944Y-15184727D01*
X12514944Y-15184727D02*
X12524468Y-15156155D01*
X12524468Y-15156155D02*
X12533991Y-15137108D01*
X12533991Y-15137108D02*
X12553039Y-15108536D01*
X12553039Y-15108536D02*
X12562563Y-15099012D01*
X12743515Y-15327584D02*
X12629229Y-15327584D01*
X12686372Y-15327584D02*
X12686372Y-15127584D01*
X12686372Y-15127584D02*
X12667325Y-15156155D01*
X12667325Y-15156155D02*
X12648277Y-15175203D01*
X12648277Y-15175203D02*
X12629229Y-15184727D01*
X12857801Y-15213298D02*
X12838753Y-15203774D01*
X12838753Y-15203774D02*
X12829229Y-15194250D01*
X12829229Y-15194250D02*
X12819706Y-15175203D01*
X12819706Y-15175203D02*
X12819706Y-15165679D01*
X12819706Y-15165679D02*
X12829229Y-15146631D01*
X12829229Y-15146631D02*
X12838753Y-15137108D01*
X12838753Y-15137108D02*
X12857801Y-15127584D01*
X12857801Y-15127584D02*
X12895896Y-15127584D01*
X12895896Y-15127584D02*
X12914944Y-15137108D01*
X12914944Y-15137108D02*
X12924468Y-15146631D01*
X12924468Y-15146631D02*
X12933991Y-15165679D01*
X12933991Y-15165679D02*
X12933991Y-15175203D01*
X12933991Y-15175203D02*
X12924468Y-15194250D01*
X12924468Y-15194250D02*
X12914944Y-15203774D01*
X12914944Y-15203774D02*
X12895896Y-15213298D01*
X12895896Y-15213298D02*
X12857801Y-15213298D01*
X12857801Y-15213298D02*
X12838753Y-15222822D01*
X12838753Y-15222822D02*
X12829229Y-15232346D01*
X12829229Y-15232346D02*
X12819706Y-15251393D01*
X12819706Y-15251393D02*
X12819706Y-15289488D01*
X12819706Y-15289488D02*
X12829229Y-15308536D01*
X12829229Y-15308536D02*
X12838753Y-15318060D01*
X12838753Y-15318060D02*
X12857801Y-15327584D01*
X12857801Y-15327584D02*
X12895896Y-15327584D01*
X12895896Y-15327584D02*
X12914944Y-15318060D01*
X12914944Y-15318060D02*
X12924468Y-15308536D01*
X12924468Y-15308536D02*
X12933991Y-15289488D01*
X12933991Y-15289488D02*
X12933991Y-15251393D01*
X12933991Y-15251393D02*
X12924468Y-15232346D01*
X12924468Y-15232346D02*
X12914944Y-15222822D01*
X12914944Y-15222822D02*
X12895896Y-15213298D01*
X13172087Y-15327584D02*
X13172087Y-15127584D01*
X13257801Y-15327584D02*
X13257801Y-15222822D01*
X13257801Y-15222822D02*
X13248277Y-15203774D01*
X13248277Y-15203774D02*
X13229230Y-15194250D01*
X13229230Y-15194250D02*
X13200658Y-15194250D01*
X13200658Y-15194250D02*
X13181610Y-15203774D01*
X13181610Y-15203774D02*
X13172087Y-15213298D01*
X13381610Y-15327584D02*
X13362563Y-15318060D01*
X13362563Y-15318060D02*
X13353039Y-15308536D01*
X13353039Y-15308536D02*
X13343515Y-15289488D01*
X13343515Y-15289488D02*
X13343515Y-15232346D01*
X13343515Y-15232346D02*
X13353039Y-15213298D01*
X13353039Y-15213298D02*
X13362563Y-15203774D01*
X13362563Y-15203774D02*
X13381610Y-15194250D01*
X13381610Y-15194250D02*
X13410182Y-15194250D01*
X13410182Y-15194250D02*
X13429230Y-15203774D01*
X13429230Y-15203774D02*
X13438753Y-15213298D01*
X13438753Y-15213298D02*
X13448277Y-15232346D01*
X13448277Y-15232346D02*
X13448277Y-15289488D01*
X13448277Y-15289488D02*
X13438753Y-15308536D01*
X13438753Y-15308536D02*
X13429230Y-15318060D01*
X13429230Y-15318060D02*
X13410182Y-15327584D01*
X13410182Y-15327584D02*
X13381610Y-15327584D01*
X13562563Y-15327584D02*
X13543515Y-15318060D01*
X13543515Y-15318060D02*
X13533991Y-15299012D01*
X13533991Y-15299012D02*
X13533991Y-15127584D01*
X13714944Y-15318060D02*
X13695896Y-15327584D01*
X13695896Y-15327584D02*
X13657801Y-15327584D01*
X13657801Y-15327584D02*
X13638753Y-15318060D01*
X13638753Y-15318060D02*
X13629230Y-15299012D01*
X13629230Y-15299012D02*
X13629230Y-15222822D01*
X13629230Y-15222822D02*
X13638753Y-15203774D01*
X13638753Y-15203774D02*
X13657801Y-15194250D01*
X13657801Y-15194250D02*
X13695896Y-15194250D01*
X13695896Y-15194250D02*
X13714944Y-15203774D01*
X13714944Y-15203774D02*
X13724468Y-15222822D01*
X13724468Y-15222822D02*
X13724468Y-15241869D01*
X13724468Y-15241869D02*
X13629230Y-15260917D01*
X13800658Y-15318060D02*
X13819706Y-15327584D01*
X13819706Y-15327584D02*
X13857801Y-15327584D01*
X13857801Y-15327584D02*
X13876849Y-15318060D01*
X13876849Y-15318060D02*
X13886372Y-15299012D01*
X13886372Y-15299012D02*
X13886372Y-15289488D01*
X13886372Y-15289488D02*
X13876849Y-15270441D01*
X13876849Y-15270441D02*
X13857801Y-15260917D01*
X13857801Y-15260917D02*
X13829230Y-15260917D01*
X13829230Y-15260917D02*
X13810182Y-15251393D01*
X13810182Y-15251393D02*
X13800658Y-15232346D01*
X13800658Y-15232346D02*
X13800658Y-15222822D01*
X13800658Y-15222822D02*
X13810182Y-15203774D01*
X13810182Y-15203774D02*
X13829230Y-15194250D01*
X13829230Y-15194250D02*
X13857801Y-15194250D01*
X13857801Y-15194250D02*
X13876849Y-15203774D01*
X13953039Y-15403774D02*
X13962563Y-15394250D01*
X13962563Y-15394250D02*
X13981611Y-15365679D01*
X13981611Y-15365679D02*
X13991134Y-15346631D01*
X13991134Y-15346631D02*
X14000658Y-15318060D01*
X14000658Y-15318060D02*
X14010182Y-15270441D01*
X14010182Y-15270441D02*
X14010182Y-15232346D01*
X14010182Y-15232346D02*
X14000658Y-15184727D01*
X14000658Y-15184727D02*
X13991134Y-15156155D01*
X13991134Y-15156155D02*
X13981611Y-15137108D01*
X13981611Y-15137108D02*
X13962563Y-15108536D01*
X13962563Y-15108536D02*
X13953039Y-15099012D01*
D12*
X8974467Y-15531567D02*
X8974467Y-15468633D01*
X8911533Y-15468633D01*
X8911533Y-15531567D01*
X8974467Y-15531567D01*
D11*
X9286372Y-15391584D02*
X9305420Y-15391584D01*
X9305420Y-15391584D02*
X9324467Y-15401108D01*
X9324467Y-15401108D02*
X9333991Y-15410631D01*
X9333991Y-15410631D02*
X9343515Y-15429679D01*
X9343515Y-15429679D02*
X9353039Y-15467774D01*
X9353039Y-15467774D02*
X9353039Y-15515393D01*
X9353039Y-15515393D02*
X9343515Y-15553488D01*
X9343515Y-15553488D02*
X9333991Y-15572536D01*
X9333991Y-15572536D02*
X9324467Y-15582060D01*
X9324467Y-15582060D02*
X9305420Y-15591584D01*
X9305420Y-15591584D02*
X9286372Y-15591584D01*
X9286372Y-15591584D02*
X9267324Y-15582060D01*
X9267324Y-15582060D02*
X9257801Y-15572536D01*
X9257801Y-15572536D02*
X9248277Y-15553488D01*
X9248277Y-15553488D02*
X9238753Y-15515393D01*
X9238753Y-15515393D02*
X9238753Y-15467774D01*
X9238753Y-15467774D02*
X9248277Y-15429679D01*
X9248277Y-15429679D02*
X9257801Y-15410631D01*
X9257801Y-15410631D02*
X9267324Y-15401108D01*
X9267324Y-15401108D02*
X9286372Y-15391584D01*
X9438753Y-15572536D02*
X9448277Y-15582060D01*
X9448277Y-15582060D02*
X9438753Y-15591584D01*
X9438753Y-15591584D02*
X9429229Y-15582060D01*
X9429229Y-15582060D02*
X9438753Y-15572536D01*
X9438753Y-15572536D02*
X9438753Y-15591584D01*
X9562563Y-15477298D02*
X9543515Y-15467774D01*
X9543515Y-15467774D02*
X9533991Y-15458250D01*
X9533991Y-15458250D02*
X9524467Y-15439203D01*
X9524467Y-15439203D02*
X9524467Y-15429679D01*
X9524467Y-15429679D02*
X9533991Y-15410631D01*
X9533991Y-15410631D02*
X9543515Y-15401108D01*
X9543515Y-15401108D02*
X9562563Y-15391584D01*
X9562563Y-15391584D02*
X9600658Y-15391584D01*
X9600658Y-15391584D02*
X9619705Y-15401108D01*
X9619705Y-15401108D02*
X9629229Y-15410631D01*
X9629229Y-15410631D02*
X9638753Y-15429679D01*
X9638753Y-15429679D02*
X9638753Y-15439203D01*
X9638753Y-15439203D02*
X9629229Y-15458250D01*
X9629229Y-15458250D02*
X9619705Y-15467774D01*
X9619705Y-15467774D02*
X9600658Y-15477298D01*
X9600658Y-15477298D02*
X9562563Y-15477298D01*
X9562563Y-15477298D02*
X9543515Y-15486822D01*
X9543515Y-15486822D02*
X9533991Y-15496346D01*
X9533991Y-15496346D02*
X9524467Y-15515393D01*
X9524467Y-15515393D02*
X9524467Y-15553488D01*
X9524467Y-15553488D02*
X9533991Y-15572536D01*
X9533991Y-15572536D02*
X9543515Y-15582060D01*
X9543515Y-15582060D02*
X9562563Y-15591584D01*
X9562563Y-15591584D02*
X9600658Y-15591584D01*
X9600658Y-15591584D02*
X9619705Y-15582060D01*
X9619705Y-15582060D02*
X9629229Y-15572536D01*
X9629229Y-15572536D02*
X9638753Y-15553488D01*
X9638753Y-15553488D02*
X9638753Y-15515393D01*
X9638753Y-15515393D02*
X9629229Y-15496346D01*
X9629229Y-15496346D02*
X9619705Y-15486822D01*
X9619705Y-15486822D02*
X9600658Y-15477298D01*
X9733991Y-15591584D02*
X9772086Y-15591584D01*
X9772086Y-15591584D02*
X9791134Y-15582060D01*
X9791134Y-15582060D02*
X9800658Y-15572536D01*
X9800658Y-15572536D02*
X9819705Y-15543965D01*
X9819705Y-15543965D02*
X9829229Y-15505869D01*
X9829229Y-15505869D02*
X9829229Y-15429679D01*
X9829229Y-15429679D02*
X9819705Y-15410631D01*
X9819705Y-15410631D02*
X9810182Y-15401108D01*
X9810182Y-15401108D02*
X9791134Y-15391584D01*
X9791134Y-15391584D02*
X9753039Y-15391584D01*
X9753039Y-15391584D02*
X9733991Y-15401108D01*
X9733991Y-15401108D02*
X9724467Y-15410631D01*
X9724467Y-15410631D02*
X9714944Y-15429679D01*
X9714944Y-15429679D02*
X9714944Y-15477298D01*
X9714944Y-15477298D02*
X9724467Y-15496346D01*
X9724467Y-15496346D02*
X9733991Y-15505869D01*
X9733991Y-15505869D02*
X9753039Y-15515393D01*
X9753039Y-15515393D02*
X9791134Y-15515393D01*
X9791134Y-15515393D02*
X9810182Y-15505869D01*
X9810182Y-15505869D02*
X9819705Y-15496346D01*
X9819705Y-15496346D02*
X9829229Y-15477298D01*
X9953039Y-15391584D02*
X9972086Y-15391584D01*
X9972086Y-15391584D02*
X9991134Y-15401108D01*
X9991134Y-15401108D02*
X10000658Y-15410631D01*
X10000658Y-15410631D02*
X10010182Y-15429679D01*
X10010182Y-15429679D02*
X10019705Y-15467774D01*
X10019705Y-15467774D02*
X10019705Y-15515393D01*
X10019705Y-15515393D02*
X10010182Y-15553488D01*
X10010182Y-15553488D02*
X10000658Y-15572536D01*
X10000658Y-15572536D02*
X9991134Y-15582060D01*
X9991134Y-15582060D02*
X9972086Y-15591584D01*
X9972086Y-15591584D02*
X9953039Y-15591584D01*
X9953039Y-15591584D02*
X9933991Y-15582060D01*
X9933991Y-15582060D02*
X9924467Y-15572536D01*
X9924467Y-15572536D02*
X9914944Y-15553488D01*
X9914944Y-15553488D02*
X9905420Y-15515393D01*
X9905420Y-15515393D02*
X9905420Y-15467774D01*
X9905420Y-15467774D02*
X9914944Y-15429679D01*
X9914944Y-15429679D02*
X9924467Y-15410631D01*
X9924467Y-15410631D02*
X9933991Y-15401108D01*
X9933991Y-15401108D02*
X9953039Y-15391584D01*
X10105420Y-15591584D02*
X10105420Y-15458250D01*
X10105420Y-15477298D02*
X10114944Y-15467774D01*
X10114944Y-15467774D02*
X10133991Y-15458250D01*
X10133991Y-15458250D02*
X10162563Y-15458250D01*
X10162563Y-15458250D02*
X10181610Y-15467774D01*
X10181610Y-15467774D02*
X10191134Y-15486822D01*
X10191134Y-15486822D02*
X10191134Y-15591584D01*
X10191134Y-15486822D02*
X10200658Y-15467774D01*
X10200658Y-15467774D02*
X10219705Y-15458250D01*
X10219705Y-15458250D02*
X10248277Y-15458250D01*
X10248277Y-15458250D02*
X10267325Y-15467774D01*
X10267325Y-15467774D02*
X10276848Y-15486822D01*
X10276848Y-15486822D02*
X10276848Y-15591584D01*
X10372086Y-15591584D02*
X10372086Y-15458250D01*
X10372086Y-15477298D02*
X10381610Y-15467774D01*
X10381610Y-15467774D02*
X10400658Y-15458250D01*
X10400658Y-15458250D02*
X10429229Y-15458250D01*
X10429229Y-15458250D02*
X10448277Y-15467774D01*
X10448277Y-15467774D02*
X10457801Y-15486822D01*
X10457801Y-15486822D02*
X10457801Y-15591584D01*
X10457801Y-15486822D02*
X10467325Y-15467774D01*
X10467325Y-15467774D02*
X10486372Y-15458250D01*
X10486372Y-15458250D02*
X10514944Y-15458250D01*
X10514944Y-15458250D02*
X10533991Y-15467774D01*
X10533991Y-15467774D02*
X10543515Y-15486822D01*
X10543515Y-15486822D02*
X10543515Y-15591584D01*
X10933991Y-15382060D02*
X10762563Y-15639203D01*
X11191134Y-15391584D02*
X11210182Y-15391584D01*
X11210182Y-15391584D02*
X11229229Y-15401108D01*
X11229229Y-15401108D02*
X11238753Y-15410631D01*
X11238753Y-15410631D02*
X11248277Y-15429679D01*
X11248277Y-15429679D02*
X11257801Y-15467774D01*
X11257801Y-15467774D02*
X11257801Y-15515393D01*
X11257801Y-15515393D02*
X11248277Y-15553488D01*
X11248277Y-15553488D02*
X11238753Y-15572536D01*
X11238753Y-15572536D02*
X11229229Y-15582060D01*
X11229229Y-15582060D02*
X11210182Y-15591584D01*
X11210182Y-15591584D02*
X11191134Y-15591584D01*
X11191134Y-15591584D02*
X11172087Y-15582060D01*
X11172087Y-15582060D02*
X11162563Y-15572536D01*
X11162563Y-15572536D02*
X11153039Y-15553488D01*
X11153039Y-15553488D02*
X11143515Y-15515393D01*
X11143515Y-15515393D02*
X11143515Y-15467774D01*
X11143515Y-15467774D02*
X11153039Y-15429679D01*
X11153039Y-15429679D02*
X11162563Y-15410631D01*
X11162563Y-15410631D02*
X11172087Y-15401108D01*
X11172087Y-15401108D02*
X11191134Y-15391584D01*
X11343515Y-15572536D02*
X11353039Y-15582060D01*
X11353039Y-15582060D02*
X11343515Y-15591584D01*
X11343515Y-15591584D02*
X11333991Y-15582060D01*
X11333991Y-15582060D02*
X11343515Y-15572536D01*
X11343515Y-15572536D02*
X11343515Y-15591584D01*
X11476848Y-15391584D02*
X11495896Y-15391584D01*
X11495896Y-15391584D02*
X11514944Y-15401108D01*
X11514944Y-15401108D02*
X11524467Y-15410631D01*
X11524467Y-15410631D02*
X11533991Y-15429679D01*
X11533991Y-15429679D02*
X11543515Y-15467774D01*
X11543515Y-15467774D02*
X11543515Y-15515393D01*
X11543515Y-15515393D02*
X11533991Y-15553488D01*
X11533991Y-15553488D02*
X11524467Y-15572536D01*
X11524467Y-15572536D02*
X11514944Y-15582060D01*
X11514944Y-15582060D02*
X11495896Y-15591584D01*
X11495896Y-15591584D02*
X11476848Y-15591584D01*
X11476848Y-15591584D02*
X11457801Y-15582060D01*
X11457801Y-15582060D02*
X11448277Y-15572536D01*
X11448277Y-15572536D02*
X11438753Y-15553488D01*
X11438753Y-15553488D02*
X11429229Y-15515393D01*
X11429229Y-15515393D02*
X11429229Y-15467774D01*
X11429229Y-15467774D02*
X11438753Y-15429679D01*
X11438753Y-15429679D02*
X11448277Y-15410631D01*
X11448277Y-15410631D02*
X11457801Y-15401108D01*
X11457801Y-15401108D02*
X11476848Y-15391584D01*
X11610182Y-15391584D02*
X11733991Y-15391584D01*
X11733991Y-15391584D02*
X11667325Y-15467774D01*
X11667325Y-15467774D02*
X11695896Y-15467774D01*
X11695896Y-15467774D02*
X11714944Y-15477298D01*
X11714944Y-15477298D02*
X11724467Y-15486822D01*
X11724467Y-15486822D02*
X11733991Y-15505869D01*
X11733991Y-15505869D02*
X11733991Y-15553488D01*
X11733991Y-15553488D02*
X11724467Y-15572536D01*
X11724467Y-15572536D02*
X11714944Y-15582060D01*
X11714944Y-15582060D02*
X11695896Y-15591584D01*
X11695896Y-15591584D02*
X11638753Y-15591584D01*
X11638753Y-15591584D02*
X11619706Y-15582060D01*
X11619706Y-15582060D02*
X11610182Y-15572536D01*
X11914944Y-15391584D02*
X11819706Y-15391584D01*
X11819706Y-15391584D02*
X11810182Y-15486822D01*
X11810182Y-15486822D02*
X11819706Y-15477298D01*
X11819706Y-15477298D02*
X11838753Y-15467774D01*
X11838753Y-15467774D02*
X11886372Y-15467774D01*
X11886372Y-15467774D02*
X11905420Y-15477298D01*
X11905420Y-15477298D02*
X11914944Y-15486822D01*
X11914944Y-15486822D02*
X11924467Y-15505869D01*
X11924467Y-15505869D02*
X11924467Y-15553488D01*
X11924467Y-15553488D02*
X11914944Y-15572536D01*
X11914944Y-15572536D02*
X11905420Y-15582060D01*
X11905420Y-15582060D02*
X11886372Y-15591584D01*
X11886372Y-15591584D02*
X11838753Y-15591584D01*
X11838753Y-15591584D02*
X11819706Y-15582060D01*
X11819706Y-15582060D02*
X11810182Y-15572536D01*
X12048277Y-15391584D02*
X12067325Y-15391584D01*
X12067325Y-15391584D02*
X12086372Y-15401108D01*
X12086372Y-15401108D02*
X12095896Y-15410631D01*
X12095896Y-15410631D02*
X12105420Y-15429679D01*
X12105420Y-15429679D02*
X12114944Y-15467774D01*
X12114944Y-15467774D02*
X12114944Y-15515393D01*
X12114944Y-15515393D02*
X12105420Y-15553488D01*
X12105420Y-15553488D02*
X12095896Y-15572536D01*
X12095896Y-15572536D02*
X12086372Y-15582060D01*
X12086372Y-15582060D02*
X12067325Y-15591584D01*
X12067325Y-15591584D02*
X12048277Y-15591584D01*
X12048277Y-15591584D02*
X12029229Y-15582060D01*
X12029229Y-15582060D02*
X12019706Y-15572536D01*
X12019706Y-15572536D02*
X12010182Y-15553488D01*
X12010182Y-15553488D02*
X12000658Y-15515393D01*
X12000658Y-15515393D02*
X12000658Y-15467774D01*
X12000658Y-15467774D02*
X12010182Y-15429679D01*
X12010182Y-15429679D02*
X12019706Y-15410631D01*
X12019706Y-15410631D02*
X12029229Y-15401108D01*
X12029229Y-15401108D02*
X12048277Y-15391584D01*
X12191134Y-15391584D02*
X12191134Y-15429679D01*
X12267325Y-15391584D02*
X12267325Y-15429679D01*
X12562563Y-15667774D02*
X12553039Y-15658250D01*
X12553039Y-15658250D02*
X12533991Y-15629679D01*
X12533991Y-15629679D02*
X12524468Y-15610631D01*
X12524468Y-15610631D02*
X12514944Y-15582060D01*
X12514944Y-15582060D02*
X12505420Y-15534441D01*
X12505420Y-15534441D02*
X12505420Y-15496346D01*
X12505420Y-15496346D02*
X12514944Y-15448727D01*
X12514944Y-15448727D02*
X12524468Y-15420155D01*
X12524468Y-15420155D02*
X12533991Y-15401108D01*
X12533991Y-15401108D02*
X12553039Y-15372536D01*
X12553039Y-15372536D02*
X12562563Y-15363012D01*
X12667325Y-15477298D02*
X12648277Y-15467774D01*
X12648277Y-15467774D02*
X12638753Y-15458250D01*
X12638753Y-15458250D02*
X12629229Y-15439203D01*
X12629229Y-15439203D02*
X12629229Y-15429679D01*
X12629229Y-15429679D02*
X12638753Y-15410631D01*
X12638753Y-15410631D02*
X12648277Y-15401108D01*
X12648277Y-15401108D02*
X12667325Y-15391584D01*
X12667325Y-15391584D02*
X12705420Y-15391584D01*
X12705420Y-15391584D02*
X12724468Y-15401108D01*
X12724468Y-15401108D02*
X12733991Y-15410631D01*
X12733991Y-15410631D02*
X12743515Y-15429679D01*
X12743515Y-15429679D02*
X12743515Y-15439203D01*
X12743515Y-15439203D02*
X12733991Y-15458250D01*
X12733991Y-15458250D02*
X12724468Y-15467774D01*
X12724468Y-15467774D02*
X12705420Y-15477298D01*
X12705420Y-15477298D02*
X12667325Y-15477298D01*
X12667325Y-15477298D02*
X12648277Y-15486822D01*
X12648277Y-15486822D02*
X12638753Y-15496346D01*
X12638753Y-15496346D02*
X12629229Y-15515393D01*
X12629229Y-15515393D02*
X12629229Y-15553488D01*
X12629229Y-15553488D02*
X12638753Y-15572536D01*
X12638753Y-15572536D02*
X12648277Y-15582060D01*
X12648277Y-15582060D02*
X12667325Y-15591584D01*
X12667325Y-15591584D02*
X12705420Y-15591584D01*
X12705420Y-15591584D02*
X12724468Y-15582060D01*
X12724468Y-15582060D02*
X12733991Y-15572536D01*
X12733991Y-15572536D02*
X12743515Y-15553488D01*
X12743515Y-15553488D02*
X12743515Y-15515393D01*
X12743515Y-15515393D02*
X12733991Y-15496346D01*
X12733991Y-15496346D02*
X12724468Y-15486822D01*
X12724468Y-15486822D02*
X12705420Y-15477298D01*
X12981610Y-15591584D02*
X12981610Y-15391584D01*
X13067325Y-15591584D02*
X13067325Y-15486822D01*
X13067325Y-15486822D02*
X13057801Y-15467774D01*
X13057801Y-15467774D02*
X13038753Y-15458250D01*
X13038753Y-15458250D02*
X13010182Y-15458250D01*
X13010182Y-15458250D02*
X12991134Y-15467774D01*
X12991134Y-15467774D02*
X12981610Y-15477298D01*
X13191134Y-15591584D02*
X13172087Y-15582060D01*
X13172087Y-15582060D02*
X13162563Y-15572536D01*
X13162563Y-15572536D02*
X13153039Y-15553488D01*
X13153039Y-15553488D02*
X13153039Y-15496346D01*
X13153039Y-15496346D02*
X13162563Y-15477298D01*
X13162563Y-15477298D02*
X13172087Y-15467774D01*
X13172087Y-15467774D02*
X13191134Y-15458250D01*
X13191134Y-15458250D02*
X13219706Y-15458250D01*
X13219706Y-15458250D02*
X13238753Y-15467774D01*
X13238753Y-15467774D02*
X13248277Y-15477298D01*
X13248277Y-15477298D02*
X13257801Y-15496346D01*
X13257801Y-15496346D02*
X13257801Y-15553488D01*
X13257801Y-15553488D02*
X13248277Y-15572536D01*
X13248277Y-15572536D02*
X13238753Y-15582060D01*
X13238753Y-15582060D02*
X13219706Y-15591584D01*
X13219706Y-15591584D02*
X13191134Y-15591584D01*
X13372087Y-15591584D02*
X13353039Y-15582060D01*
X13353039Y-15582060D02*
X13343515Y-15563012D01*
X13343515Y-15563012D02*
X13343515Y-15391584D01*
X13524468Y-15582060D02*
X13505420Y-15591584D01*
X13505420Y-15591584D02*
X13467325Y-15591584D01*
X13467325Y-15591584D02*
X13448277Y-15582060D01*
X13448277Y-15582060D02*
X13438753Y-15563012D01*
X13438753Y-15563012D02*
X13438753Y-15486822D01*
X13438753Y-15486822D02*
X13448277Y-15467774D01*
X13448277Y-15467774D02*
X13467325Y-15458250D01*
X13467325Y-15458250D02*
X13505420Y-15458250D01*
X13505420Y-15458250D02*
X13524468Y-15467774D01*
X13524468Y-15467774D02*
X13533991Y-15486822D01*
X13533991Y-15486822D02*
X13533991Y-15505869D01*
X13533991Y-15505869D02*
X13438753Y-15524917D01*
X13610182Y-15582060D02*
X13629230Y-15591584D01*
X13629230Y-15591584D02*
X13667325Y-15591584D01*
X13667325Y-15591584D02*
X13686372Y-15582060D01*
X13686372Y-15582060D02*
X13695896Y-15563012D01*
X13695896Y-15563012D02*
X13695896Y-15553488D01*
X13695896Y-15553488D02*
X13686372Y-15534441D01*
X13686372Y-15534441D02*
X13667325Y-15524917D01*
X13667325Y-15524917D02*
X13638753Y-15524917D01*
X13638753Y-15524917D02*
X13619706Y-15515393D01*
X13619706Y-15515393D02*
X13610182Y-15496346D01*
X13610182Y-15496346D02*
X13610182Y-15486822D01*
X13610182Y-15486822D02*
X13619706Y-15467774D01*
X13619706Y-15467774D02*
X13638753Y-15458250D01*
X13638753Y-15458250D02*
X13667325Y-15458250D01*
X13667325Y-15458250D02*
X13686372Y-15467774D01*
X13762563Y-15667774D02*
X13772087Y-15658250D01*
X13772087Y-15658250D02*
X13791134Y-15629679D01*
X13791134Y-15629679D02*
X13800658Y-15610631D01*
X13800658Y-15610631D02*
X13810182Y-15582060D01*
X13810182Y-15582060D02*
X13819706Y-15534441D01*
X13819706Y-15534441D02*
X13819706Y-15496346D01*
X13819706Y-15496346D02*
X13810182Y-15448727D01*
X13810182Y-15448727D02*
X13800658Y-15420155D01*
X13800658Y-15420155D02*
X13791134Y-15401108D01*
X13791134Y-15401108D02*
X13772087Y-15372536D01*
X13772087Y-15372536D02*
X13762563Y-15363012D01*
D12*
X8942500Y-15809100D02*
X8987500Y-15764100D01*
X8942500Y-15719100D01*
X8897500Y-15764100D01*
X8942500Y-15809100D01*
D11*
X9286372Y-15655584D02*
X9305420Y-15655584D01*
X9305420Y-15655584D02*
X9324467Y-15665108D01*
X9324467Y-15665108D02*
X9333991Y-15674631D01*
X9333991Y-15674631D02*
X9343515Y-15693679D01*
X9343515Y-15693679D02*
X9353039Y-15731774D01*
X9353039Y-15731774D02*
X9353039Y-15779393D01*
X9353039Y-15779393D02*
X9343515Y-15817488D01*
X9343515Y-15817488D02*
X9333991Y-15836536D01*
X9333991Y-15836536D02*
X9324467Y-15846060D01*
X9324467Y-15846060D02*
X9305420Y-15855584D01*
X9305420Y-15855584D02*
X9286372Y-15855584D01*
X9286372Y-15855584D02*
X9267324Y-15846060D01*
X9267324Y-15846060D02*
X9257801Y-15836536D01*
X9257801Y-15836536D02*
X9248277Y-15817488D01*
X9248277Y-15817488D02*
X9238753Y-15779393D01*
X9238753Y-15779393D02*
X9238753Y-15731774D01*
X9238753Y-15731774D02*
X9248277Y-15693679D01*
X9248277Y-15693679D02*
X9257801Y-15674631D01*
X9257801Y-15674631D02*
X9267324Y-15665108D01*
X9267324Y-15665108D02*
X9286372Y-15655584D01*
X9438753Y-15836536D02*
X9448277Y-15846060D01*
X9448277Y-15846060D02*
X9438753Y-15855584D01*
X9438753Y-15855584D02*
X9429229Y-15846060D01*
X9429229Y-15846060D02*
X9438753Y-15836536D01*
X9438753Y-15836536D02*
X9438753Y-15855584D01*
X9543515Y-15855584D02*
X9581610Y-15855584D01*
X9581610Y-15855584D02*
X9600658Y-15846060D01*
X9600658Y-15846060D02*
X9610182Y-15836536D01*
X9610182Y-15836536D02*
X9629229Y-15807965D01*
X9629229Y-15807965D02*
X9638753Y-15769869D01*
X9638753Y-15769869D02*
X9638753Y-15693679D01*
X9638753Y-15693679D02*
X9629229Y-15674631D01*
X9629229Y-15674631D02*
X9619705Y-15665108D01*
X9619705Y-15665108D02*
X9600658Y-15655584D01*
X9600658Y-15655584D02*
X9562563Y-15655584D01*
X9562563Y-15655584D02*
X9543515Y-15665108D01*
X9543515Y-15665108D02*
X9533991Y-15674631D01*
X9533991Y-15674631D02*
X9524467Y-15693679D01*
X9524467Y-15693679D02*
X9524467Y-15741298D01*
X9524467Y-15741298D02*
X9533991Y-15760346D01*
X9533991Y-15760346D02*
X9543515Y-15769869D01*
X9543515Y-15769869D02*
X9562563Y-15779393D01*
X9562563Y-15779393D02*
X9600658Y-15779393D01*
X9600658Y-15779393D02*
X9619705Y-15769869D01*
X9619705Y-15769869D02*
X9629229Y-15760346D01*
X9629229Y-15760346D02*
X9638753Y-15741298D01*
X9762563Y-15655584D02*
X9781610Y-15655584D01*
X9781610Y-15655584D02*
X9800658Y-15665108D01*
X9800658Y-15665108D02*
X9810182Y-15674631D01*
X9810182Y-15674631D02*
X9819705Y-15693679D01*
X9819705Y-15693679D02*
X9829229Y-15731774D01*
X9829229Y-15731774D02*
X9829229Y-15779393D01*
X9829229Y-15779393D02*
X9819705Y-15817488D01*
X9819705Y-15817488D02*
X9810182Y-15836536D01*
X9810182Y-15836536D02*
X9800658Y-15846060D01*
X9800658Y-15846060D02*
X9781610Y-15855584D01*
X9781610Y-15855584D02*
X9762563Y-15855584D01*
X9762563Y-15855584D02*
X9743515Y-15846060D01*
X9743515Y-15846060D02*
X9733991Y-15836536D01*
X9733991Y-15836536D02*
X9724467Y-15817488D01*
X9724467Y-15817488D02*
X9714944Y-15779393D01*
X9714944Y-15779393D02*
X9714944Y-15731774D01*
X9714944Y-15731774D02*
X9724467Y-15693679D01*
X9724467Y-15693679D02*
X9733991Y-15674631D01*
X9733991Y-15674631D02*
X9743515Y-15665108D01*
X9743515Y-15665108D02*
X9762563Y-15655584D01*
X9953039Y-15655584D02*
X9972086Y-15655584D01*
X9972086Y-15655584D02*
X9991134Y-15665108D01*
X9991134Y-15665108D02*
X10000658Y-15674631D01*
X10000658Y-15674631D02*
X10010182Y-15693679D01*
X10010182Y-15693679D02*
X10019705Y-15731774D01*
X10019705Y-15731774D02*
X10019705Y-15779393D01*
X10019705Y-15779393D02*
X10010182Y-15817488D01*
X10010182Y-15817488D02*
X10000658Y-15836536D01*
X10000658Y-15836536D02*
X9991134Y-15846060D01*
X9991134Y-15846060D02*
X9972086Y-15855584D01*
X9972086Y-15855584D02*
X9953039Y-15855584D01*
X9953039Y-15855584D02*
X9933991Y-15846060D01*
X9933991Y-15846060D02*
X9924467Y-15836536D01*
X9924467Y-15836536D02*
X9914944Y-15817488D01*
X9914944Y-15817488D02*
X9905420Y-15779393D01*
X9905420Y-15779393D02*
X9905420Y-15731774D01*
X9905420Y-15731774D02*
X9914944Y-15693679D01*
X9914944Y-15693679D02*
X9924467Y-15674631D01*
X9924467Y-15674631D02*
X9933991Y-15665108D01*
X9933991Y-15665108D02*
X9953039Y-15655584D01*
X10105420Y-15855584D02*
X10105420Y-15722250D01*
X10105420Y-15741298D02*
X10114944Y-15731774D01*
X10114944Y-15731774D02*
X10133991Y-15722250D01*
X10133991Y-15722250D02*
X10162563Y-15722250D01*
X10162563Y-15722250D02*
X10181610Y-15731774D01*
X10181610Y-15731774D02*
X10191134Y-15750822D01*
X10191134Y-15750822D02*
X10191134Y-15855584D01*
X10191134Y-15750822D02*
X10200658Y-15731774D01*
X10200658Y-15731774D02*
X10219705Y-15722250D01*
X10219705Y-15722250D02*
X10248277Y-15722250D01*
X10248277Y-15722250D02*
X10267325Y-15731774D01*
X10267325Y-15731774D02*
X10276848Y-15750822D01*
X10276848Y-15750822D02*
X10276848Y-15855584D01*
X10372086Y-15855584D02*
X10372086Y-15722250D01*
X10372086Y-15741298D02*
X10381610Y-15731774D01*
X10381610Y-15731774D02*
X10400658Y-15722250D01*
X10400658Y-15722250D02*
X10429229Y-15722250D01*
X10429229Y-15722250D02*
X10448277Y-15731774D01*
X10448277Y-15731774D02*
X10457801Y-15750822D01*
X10457801Y-15750822D02*
X10457801Y-15855584D01*
X10457801Y-15750822D02*
X10467325Y-15731774D01*
X10467325Y-15731774D02*
X10486372Y-15722250D01*
X10486372Y-15722250D02*
X10514944Y-15722250D01*
X10514944Y-15722250D02*
X10533991Y-15731774D01*
X10533991Y-15731774D02*
X10543515Y-15750822D01*
X10543515Y-15750822D02*
X10543515Y-15855584D01*
X10933991Y-15646060D02*
X10762563Y-15903203D01*
X11191134Y-15655584D02*
X11210182Y-15655584D01*
X11210182Y-15655584D02*
X11229229Y-15665108D01*
X11229229Y-15665108D02*
X11238753Y-15674631D01*
X11238753Y-15674631D02*
X11248277Y-15693679D01*
X11248277Y-15693679D02*
X11257801Y-15731774D01*
X11257801Y-15731774D02*
X11257801Y-15779393D01*
X11257801Y-15779393D02*
X11248277Y-15817488D01*
X11248277Y-15817488D02*
X11238753Y-15836536D01*
X11238753Y-15836536D02*
X11229229Y-15846060D01*
X11229229Y-15846060D02*
X11210182Y-15855584D01*
X11210182Y-15855584D02*
X11191134Y-15855584D01*
X11191134Y-15855584D02*
X11172087Y-15846060D01*
X11172087Y-15846060D02*
X11162563Y-15836536D01*
X11162563Y-15836536D02*
X11153039Y-15817488D01*
X11153039Y-15817488D02*
X11143515Y-15779393D01*
X11143515Y-15779393D02*
X11143515Y-15731774D01*
X11143515Y-15731774D02*
X11153039Y-15693679D01*
X11153039Y-15693679D02*
X11162563Y-15674631D01*
X11162563Y-15674631D02*
X11172087Y-15665108D01*
X11172087Y-15665108D02*
X11191134Y-15655584D01*
X11343515Y-15836536D02*
X11353039Y-15846060D01*
X11353039Y-15846060D02*
X11343515Y-15855584D01*
X11343515Y-15855584D02*
X11333991Y-15846060D01*
X11333991Y-15846060D02*
X11343515Y-15836536D01*
X11343515Y-15836536D02*
X11343515Y-15855584D01*
X11476848Y-15655584D02*
X11495896Y-15655584D01*
X11495896Y-15655584D02*
X11514944Y-15665108D01*
X11514944Y-15665108D02*
X11524467Y-15674631D01*
X11524467Y-15674631D02*
X11533991Y-15693679D01*
X11533991Y-15693679D02*
X11543515Y-15731774D01*
X11543515Y-15731774D02*
X11543515Y-15779393D01*
X11543515Y-15779393D02*
X11533991Y-15817488D01*
X11533991Y-15817488D02*
X11524467Y-15836536D01*
X11524467Y-15836536D02*
X11514944Y-15846060D01*
X11514944Y-15846060D02*
X11495896Y-15855584D01*
X11495896Y-15855584D02*
X11476848Y-15855584D01*
X11476848Y-15855584D02*
X11457801Y-15846060D01*
X11457801Y-15846060D02*
X11448277Y-15836536D01*
X11448277Y-15836536D02*
X11438753Y-15817488D01*
X11438753Y-15817488D02*
X11429229Y-15779393D01*
X11429229Y-15779393D02*
X11429229Y-15731774D01*
X11429229Y-15731774D02*
X11438753Y-15693679D01*
X11438753Y-15693679D02*
X11448277Y-15674631D01*
X11448277Y-15674631D02*
X11457801Y-15665108D01*
X11457801Y-15665108D02*
X11476848Y-15655584D01*
X11610182Y-15655584D02*
X11733991Y-15655584D01*
X11733991Y-15655584D02*
X11667325Y-15731774D01*
X11667325Y-15731774D02*
X11695896Y-15731774D01*
X11695896Y-15731774D02*
X11714944Y-15741298D01*
X11714944Y-15741298D02*
X11724467Y-15750822D01*
X11724467Y-15750822D02*
X11733991Y-15769869D01*
X11733991Y-15769869D02*
X11733991Y-15817488D01*
X11733991Y-15817488D02*
X11724467Y-15836536D01*
X11724467Y-15836536D02*
X11714944Y-15846060D01*
X11714944Y-15846060D02*
X11695896Y-15855584D01*
X11695896Y-15855584D02*
X11638753Y-15855584D01*
X11638753Y-15855584D02*
X11619706Y-15846060D01*
X11619706Y-15846060D02*
X11610182Y-15836536D01*
X11914944Y-15655584D02*
X11819706Y-15655584D01*
X11819706Y-15655584D02*
X11810182Y-15750822D01*
X11810182Y-15750822D02*
X11819706Y-15741298D01*
X11819706Y-15741298D02*
X11838753Y-15731774D01*
X11838753Y-15731774D02*
X11886372Y-15731774D01*
X11886372Y-15731774D02*
X11905420Y-15741298D01*
X11905420Y-15741298D02*
X11914944Y-15750822D01*
X11914944Y-15750822D02*
X11924467Y-15769869D01*
X11924467Y-15769869D02*
X11924467Y-15817488D01*
X11924467Y-15817488D02*
X11914944Y-15836536D01*
X11914944Y-15836536D02*
X11905420Y-15846060D01*
X11905420Y-15846060D02*
X11886372Y-15855584D01*
X11886372Y-15855584D02*
X11838753Y-15855584D01*
X11838753Y-15855584D02*
X11819706Y-15846060D01*
X11819706Y-15846060D02*
X11810182Y-15836536D01*
X12095896Y-15722250D02*
X12095896Y-15855584D01*
X12048277Y-15646060D02*
X12000658Y-15788917D01*
X12000658Y-15788917D02*
X12124467Y-15788917D01*
X12191134Y-15655584D02*
X12191134Y-15693679D01*
X12267325Y-15655584D02*
X12267325Y-15693679D01*
X12562563Y-15931774D02*
X12553039Y-15922250D01*
X12553039Y-15922250D02*
X12533991Y-15893679D01*
X12533991Y-15893679D02*
X12524468Y-15874631D01*
X12524468Y-15874631D02*
X12514944Y-15846060D01*
X12514944Y-15846060D02*
X12505420Y-15798441D01*
X12505420Y-15798441D02*
X12505420Y-15760346D01*
X12505420Y-15760346D02*
X12514944Y-15712727D01*
X12514944Y-15712727D02*
X12524468Y-15684155D01*
X12524468Y-15684155D02*
X12533991Y-15665108D01*
X12533991Y-15665108D02*
X12553039Y-15636536D01*
X12553039Y-15636536D02*
X12562563Y-15627012D01*
X12724468Y-15655584D02*
X12686372Y-15655584D01*
X12686372Y-15655584D02*
X12667325Y-15665108D01*
X12667325Y-15665108D02*
X12657801Y-15674631D01*
X12657801Y-15674631D02*
X12638753Y-15703203D01*
X12638753Y-15703203D02*
X12629229Y-15741298D01*
X12629229Y-15741298D02*
X12629229Y-15817488D01*
X12629229Y-15817488D02*
X12638753Y-15836536D01*
X12638753Y-15836536D02*
X12648277Y-15846060D01*
X12648277Y-15846060D02*
X12667325Y-15855584D01*
X12667325Y-15855584D02*
X12705420Y-15855584D01*
X12705420Y-15855584D02*
X12724468Y-15846060D01*
X12724468Y-15846060D02*
X12733991Y-15836536D01*
X12733991Y-15836536D02*
X12743515Y-15817488D01*
X12743515Y-15817488D02*
X12743515Y-15769869D01*
X12743515Y-15769869D02*
X12733991Y-15750822D01*
X12733991Y-15750822D02*
X12724468Y-15741298D01*
X12724468Y-15741298D02*
X12705420Y-15731774D01*
X12705420Y-15731774D02*
X12667325Y-15731774D01*
X12667325Y-15731774D02*
X12648277Y-15741298D01*
X12648277Y-15741298D02*
X12638753Y-15750822D01*
X12638753Y-15750822D02*
X12629229Y-15769869D01*
X12981610Y-15855584D02*
X12981610Y-15655584D01*
X13067325Y-15855584D02*
X13067325Y-15750822D01*
X13067325Y-15750822D02*
X13057801Y-15731774D01*
X13057801Y-15731774D02*
X13038753Y-15722250D01*
X13038753Y-15722250D02*
X13010182Y-15722250D01*
X13010182Y-15722250D02*
X12991134Y-15731774D01*
X12991134Y-15731774D02*
X12981610Y-15741298D01*
X13191134Y-15855584D02*
X13172087Y-15846060D01*
X13172087Y-15846060D02*
X13162563Y-15836536D01*
X13162563Y-15836536D02*
X13153039Y-15817488D01*
X13153039Y-15817488D02*
X13153039Y-15760346D01*
X13153039Y-15760346D02*
X13162563Y-15741298D01*
X13162563Y-15741298D02*
X13172087Y-15731774D01*
X13172087Y-15731774D02*
X13191134Y-15722250D01*
X13191134Y-15722250D02*
X13219706Y-15722250D01*
X13219706Y-15722250D02*
X13238753Y-15731774D01*
X13238753Y-15731774D02*
X13248277Y-15741298D01*
X13248277Y-15741298D02*
X13257801Y-15760346D01*
X13257801Y-15760346D02*
X13257801Y-15817488D01*
X13257801Y-15817488D02*
X13248277Y-15836536D01*
X13248277Y-15836536D02*
X13238753Y-15846060D01*
X13238753Y-15846060D02*
X13219706Y-15855584D01*
X13219706Y-15855584D02*
X13191134Y-15855584D01*
X13372087Y-15855584D02*
X13353039Y-15846060D01*
X13353039Y-15846060D02*
X13343515Y-15827012D01*
X13343515Y-15827012D02*
X13343515Y-15655584D01*
X13524468Y-15846060D02*
X13505420Y-15855584D01*
X13505420Y-15855584D02*
X13467325Y-15855584D01*
X13467325Y-15855584D02*
X13448277Y-15846060D01*
X13448277Y-15846060D02*
X13438753Y-15827012D01*
X13438753Y-15827012D02*
X13438753Y-15750822D01*
X13438753Y-15750822D02*
X13448277Y-15731774D01*
X13448277Y-15731774D02*
X13467325Y-15722250D01*
X13467325Y-15722250D02*
X13505420Y-15722250D01*
X13505420Y-15722250D02*
X13524468Y-15731774D01*
X13524468Y-15731774D02*
X13533991Y-15750822D01*
X13533991Y-15750822D02*
X13533991Y-15769869D01*
X13533991Y-15769869D02*
X13438753Y-15788917D01*
X13610182Y-15846060D02*
X13629230Y-15855584D01*
X13629230Y-15855584D02*
X13667325Y-15855584D01*
X13667325Y-15855584D02*
X13686372Y-15846060D01*
X13686372Y-15846060D02*
X13695896Y-15827012D01*
X13695896Y-15827012D02*
X13695896Y-15817488D01*
X13695896Y-15817488D02*
X13686372Y-15798441D01*
X13686372Y-15798441D02*
X13667325Y-15788917D01*
X13667325Y-15788917D02*
X13638753Y-15788917D01*
X13638753Y-15788917D02*
X13619706Y-15779393D01*
X13619706Y-15779393D02*
X13610182Y-15760346D01*
X13610182Y-15760346D02*
X13610182Y-15750822D01*
X13610182Y-15750822D02*
X13619706Y-15731774D01*
X13619706Y-15731774D02*
X13638753Y-15722250D01*
X13638753Y-15722250D02*
X13667325Y-15722250D01*
X13667325Y-15722250D02*
X13686372Y-15731774D01*
X13762563Y-15931774D02*
X13772087Y-15922250D01*
X13772087Y-15922250D02*
X13791134Y-15893679D01*
X13791134Y-15893679D02*
X13800658Y-15874631D01*
X13800658Y-15874631D02*
X13810182Y-15846060D01*
X13810182Y-15846060D02*
X13819706Y-15798441D01*
X13819706Y-15798441D02*
X13819706Y-15760346D01*
X13819706Y-15760346D02*
X13810182Y-15712727D01*
X13810182Y-15712727D02*
X13800658Y-15684155D01*
X13800658Y-15684155D02*
X13791134Y-15665108D01*
X13791134Y-15665108D02*
X13772087Y-15636536D01*
X13772087Y-15636536D02*
X13762563Y-15627012D01*
D12*
X8887500Y-15978100D02*
X8987500Y-16078100D01*
X8987500Y-15978100D02*
X8887500Y-16078100D01*
X8987500Y-16028100D02*
G75*
G02*
X8887500Y-16028100I-50000J0D01*
G01*
X8887500Y-16028100D02*
G75*
G02*
X8987500Y-16028100I50000J0D01*
G01*
D11*
X9353039Y-16119584D02*
X9238753Y-16119584D01*
X9295896Y-16119584D02*
X9295896Y-15919584D01*
X9295896Y-15919584D02*
X9276848Y-15948155D01*
X9276848Y-15948155D02*
X9257801Y-15967203D01*
X9257801Y-15967203D02*
X9238753Y-15976727D01*
X9438753Y-16100536D02*
X9448277Y-16110060D01*
X9448277Y-16110060D02*
X9438753Y-16119584D01*
X9438753Y-16119584D02*
X9429229Y-16110060D01*
X9429229Y-16110060D02*
X9438753Y-16100536D01*
X9438753Y-16100536D02*
X9438753Y-16119584D01*
X9572086Y-15919584D02*
X9591134Y-15919584D01*
X9591134Y-15919584D02*
X9610182Y-15929108D01*
X9610182Y-15929108D02*
X9619705Y-15938631D01*
X9619705Y-15938631D02*
X9629229Y-15957679D01*
X9629229Y-15957679D02*
X9638753Y-15995774D01*
X9638753Y-15995774D02*
X9638753Y-16043393D01*
X9638753Y-16043393D02*
X9629229Y-16081488D01*
X9629229Y-16081488D02*
X9619705Y-16100536D01*
X9619705Y-16100536D02*
X9610182Y-16110060D01*
X9610182Y-16110060D02*
X9591134Y-16119584D01*
X9591134Y-16119584D02*
X9572086Y-16119584D01*
X9572086Y-16119584D02*
X9553039Y-16110060D01*
X9553039Y-16110060D02*
X9543515Y-16100536D01*
X9543515Y-16100536D02*
X9533991Y-16081488D01*
X9533991Y-16081488D02*
X9524467Y-16043393D01*
X9524467Y-16043393D02*
X9524467Y-15995774D01*
X9524467Y-15995774D02*
X9533991Y-15957679D01*
X9533991Y-15957679D02*
X9543515Y-15938631D01*
X9543515Y-15938631D02*
X9553039Y-15929108D01*
X9553039Y-15929108D02*
X9572086Y-15919584D01*
X9762563Y-15919584D02*
X9781610Y-15919584D01*
X9781610Y-15919584D02*
X9800658Y-15929108D01*
X9800658Y-15929108D02*
X9810182Y-15938631D01*
X9810182Y-15938631D02*
X9819705Y-15957679D01*
X9819705Y-15957679D02*
X9829229Y-15995774D01*
X9829229Y-15995774D02*
X9829229Y-16043393D01*
X9829229Y-16043393D02*
X9819705Y-16081488D01*
X9819705Y-16081488D02*
X9810182Y-16100536D01*
X9810182Y-16100536D02*
X9800658Y-16110060D01*
X9800658Y-16110060D02*
X9781610Y-16119584D01*
X9781610Y-16119584D02*
X9762563Y-16119584D01*
X9762563Y-16119584D02*
X9743515Y-16110060D01*
X9743515Y-16110060D02*
X9733991Y-16100536D01*
X9733991Y-16100536D02*
X9724467Y-16081488D01*
X9724467Y-16081488D02*
X9714944Y-16043393D01*
X9714944Y-16043393D02*
X9714944Y-15995774D01*
X9714944Y-15995774D02*
X9724467Y-15957679D01*
X9724467Y-15957679D02*
X9733991Y-15938631D01*
X9733991Y-15938631D02*
X9743515Y-15929108D01*
X9743515Y-15929108D02*
X9762563Y-15919584D01*
X9953039Y-15919584D02*
X9972086Y-15919584D01*
X9972086Y-15919584D02*
X9991134Y-15929108D01*
X9991134Y-15929108D02*
X10000658Y-15938631D01*
X10000658Y-15938631D02*
X10010182Y-15957679D01*
X10010182Y-15957679D02*
X10019705Y-15995774D01*
X10019705Y-15995774D02*
X10019705Y-16043393D01*
X10019705Y-16043393D02*
X10010182Y-16081488D01*
X10010182Y-16081488D02*
X10000658Y-16100536D01*
X10000658Y-16100536D02*
X9991134Y-16110060D01*
X9991134Y-16110060D02*
X9972086Y-16119584D01*
X9972086Y-16119584D02*
X9953039Y-16119584D01*
X9953039Y-16119584D02*
X9933991Y-16110060D01*
X9933991Y-16110060D02*
X9924467Y-16100536D01*
X9924467Y-16100536D02*
X9914944Y-16081488D01*
X9914944Y-16081488D02*
X9905420Y-16043393D01*
X9905420Y-16043393D02*
X9905420Y-15995774D01*
X9905420Y-15995774D02*
X9914944Y-15957679D01*
X9914944Y-15957679D02*
X9924467Y-15938631D01*
X9924467Y-15938631D02*
X9933991Y-15929108D01*
X9933991Y-15929108D02*
X9953039Y-15919584D01*
X10105420Y-16119584D02*
X10105420Y-15986250D01*
X10105420Y-16005298D02*
X10114944Y-15995774D01*
X10114944Y-15995774D02*
X10133991Y-15986250D01*
X10133991Y-15986250D02*
X10162563Y-15986250D01*
X10162563Y-15986250D02*
X10181610Y-15995774D01*
X10181610Y-15995774D02*
X10191134Y-16014822D01*
X10191134Y-16014822D02*
X10191134Y-16119584D01*
X10191134Y-16014822D02*
X10200658Y-15995774D01*
X10200658Y-15995774D02*
X10219705Y-15986250D01*
X10219705Y-15986250D02*
X10248277Y-15986250D01*
X10248277Y-15986250D02*
X10267325Y-15995774D01*
X10267325Y-15995774D02*
X10276848Y-16014822D01*
X10276848Y-16014822D02*
X10276848Y-16119584D01*
X10372086Y-16119584D02*
X10372086Y-15986250D01*
X10372086Y-16005298D02*
X10381610Y-15995774D01*
X10381610Y-15995774D02*
X10400658Y-15986250D01*
X10400658Y-15986250D02*
X10429229Y-15986250D01*
X10429229Y-15986250D02*
X10448277Y-15995774D01*
X10448277Y-15995774D02*
X10457801Y-16014822D01*
X10457801Y-16014822D02*
X10457801Y-16119584D01*
X10457801Y-16014822D02*
X10467325Y-15995774D01*
X10467325Y-15995774D02*
X10486372Y-15986250D01*
X10486372Y-15986250D02*
X10514944Y-15986250D01*
X10514944Y-15986250D02*
X10533991Y-15995774D01*
X10533991Y-15995774D02*
X10543515Y-16014822D01*
X10543515Y-16014822D02*
X10543515Y-16119584D01*
X10933991Y-15910060D02*
X10762563Y-16167203D01*
X11191134Y-15919584D02*
X11210182Y-15919584D01*
X11210182Y-15919584D02*
X11229229Y-15929108D01*
X11229229Y-15929108D02*
X11238753Y-15938631D01*
X11238753Y-15938631D02*
X11248277Y-15957679D01*
X11248277Y-15957679D02*
X11257801Y-15995774D01*
X11257801Y-15995774D02*
X11257801Y-16043393D01*
X11257801Y-16043393D02*
X11248277Y-16081488D01*
X11248277Y-16081488D02*
X11238753Y-16100536D01*
X11238753Y-16100536D02*
X11229229Y-16110060D01*
X11229229Y-16110060D02*
X11210182Y-16119584D01*
X11210182Y-16119584D02*
X11191134Y-16119584D01*
X11191134Y-16119584D02*
X11172087Y-16110060D01*
X11172087Y-16110060D02*
X11162563Y-16100536D01*
X11162563Y-16100536D02*
X11153039Y-16081488D01*
X11153039Y-16081488D02*
X11143515Y-16043393D01*
X11143515Y-16043393D02*
X11143515Y-15995774D01*
X11143515Y-15995774D02*
X11153039Y-15957679D01*
X11153039Y-15957679D02*
X11162563Y-15938631D01*
X11162563Y-15938631D02*
X11172087Y-15929108D01*
X11172087Y-15929108D02*
X11191134Y-15919584D01*
X11343515Y-16100536D02*
X11353039Y-16110060D01*
X11353039Y-16110060D02*
X11343515Y-16119584D01*
X11343515Y-16119584D02*
X11333991Y-16110060D01*
X11333991Y-16110060D02*
X11343515Y-16100536D01*
X11343515Y-16100536D02*
X11343515Y-16119584D01*
X11476848Y-15919584D02*
X11495896Y-15919584D01*
X11495896Y-15919584D02*
X11514944Y-15929108D01*
X11514944Y-15929108D02*
X11524467Y-15938631D01*
X11524467Y-15938631D02*
X11533991Y-15957679D01*
X11533991Y-15957679D02*
X11543515Y-15995774D01*
X11543515Y-15995774D02*
X11543515Y-16043393D01*
X11543515Y-16043393D02*
X11533991Y-16081488D01*
X11533991Y-16081488D02*
X11524467Y-16100536D01*
X11524467Y-16100536D02*
X11514944Y-16110060D01*
X11514944Y-16110060D02*
X11495896Y-16119584D01*
X11495896Y-16119584D02*
X11476848Y-16119584D01*
X11476848Y-16119584D02*
X11457801Y-16110060D01*
X11457801Y-16110060D02*
X11448277Y-16100536D01*
X11448277Y-16100536D02*
X11438753Y-16081488D01*
X11438753Y-16081488D02*
X11429229Y-16043393D01*
X11429229Y-16043393D02*
X11429229Y-15995774D01*
X11429229Y-15995774D02*
X11438753Y-15957679D01*
X11438753Y-15957679D02*
X11448277Y-15938631D01*
X11448277Y-15938631D02*
X11457801Y-15929108D01*
X11457801Y-15929108D02*
X11476848Y-15919584D01*
X11610182Y-15919584D02*
X11733991Y-15919584D01*
X11733991Y-15919584D02*
X11667325Y-15995774D01*
X11667325Y-15995774D02*
X11695896Y-15995774D01*
X11695896Y-15995774D02*
X11714944Y-16005298D01*
X11714944Y-16005298D02*
X11724467Y-16014822D01*
X11724467Y-16014822D02*
X11733991Y-16033869D01*
X11733991Y-16033869D02*
X11733991Y-16081488D01*
X11733991Y-16081488D02*
X11724467Y-16100536D01*
X11724467Y-16100536D02*
X11714944Y-16110060D01*
X11714944Y-16110060D02*
X11695896Y-16119584D01*
X11695896Y-16119584D02*
X11638753Y-16119584D01*
X11638753Y-16119584D02*
X11619706Y-16110060D01*
X11619706Y-16110060D02*
X11610182Y-16100536D01*
X11829229Y-16119584D02*
X11867325Y-16119584D01*
X11867325Y-16119584D02*
X11886372Y-16110060D01*
X11886372Y-16110060D02*
X11895896Y-16100536D01*
X11895896Y-16100536D02*
X11914944Y-16071965D01*
X11914944Y-16071965D02*
X11924467Y-16033869D01*
X11924467Y-16033869D02*
X11924467Y-15957679D01*
X11924467Y-15957679D02*
X11914944Y-15938631D01*
X11914944Y-15938631D02*
X11905420Y-15929108D01*
X11905420Y-15929108D02*
X11886372Y-15919584D01*
X11886372Y-15919584D02*
X11848277Y-15919584D01*
X11848277Y-15919584D02*
X11829229Y-15929108D01*
X11829229Y-15929108D02*
X11819706Y-15938631D01*
X11819706Y-15938631D02*
X11810182Y-15957679D01*
X11810182Y-15957679D02*
X11810182Y-16005298D01*
X11810182Y-16005298D02*
X11819706Y-16024346D01*
X11819706Y-16024346D02*
X11829229Y-16033869D01*
X11829229Y-16033869D02*
X11848277Y-16043393D01*
X11848277Y-16043393D02*
X11886372Y-16043393D01*
X11886372Y-16043393D02*
X11905420Y-16033869D01*
X11905420Y-16033869D02*
X11914944Y-16024346D01*
X11914944Y-16024346D02*
X11924467Y-16005298D01*
X12095896Y-15986250D02*
X12095896Y-16119584D01*
X12048277Y-15910060D02*
X12000658Y-16052917D01*
X12000658Y-16052917D02*
X12124467Y-16052917D01*
X12191134Y-15919584D02*
X12191134Y-15957679D01*
X12267325Y-15919584D02*
X12267325Y-15957679D01*
X12562563Y-16195774D02*
X12553039Y-16186250D01*
X12553039Y-16186250D02*
X12533991Y-16157679D01*
X12533991Y-16157679D02*
X12524468Y-16138631D01*
X12524468Y-16138631D02*
X12514944Y-16110060D01*
X12514944Y-16110060D02*
X12505420Y-16062441D01*
X12505420Y-16062441D02*
X12505420Y-16024346D01*
X12505420Y-16024346D02*
X12514944Y-15976727D01*
X12514944Y-15976727D02*
X12524468Y-15948155D01*
X12524468Y-15948155D02*
X12533991Y-15929108D01*
X12533991Y-15929108D02*
X12553039Y-15900536D01*
X12553039Y-15900536D02*
X12562563Y-15891012D01*
X12733991Y-15919584D02*
X12638753Y-15919584D01*
X12638753Y-15919584D02*
X12629229Y-16014822D01*
X12629229Y-16014822D02*
X12638753Y-16005298D01*
X12638753Y-16005298D02*
X12657801Y-15995774D01*
X12657801Y-15995774D02*
X12705420Y-15995774D01*
X12705420Y-15995774D02*
X12724468Y-16005298D01*
X12724468Y-16005298D02*
X12733991Y-16014822D01*
X12733991Y-16014822D02*
X12743515Y-16033869D01*
X12743515Y-16033869D02*
X12743515Y-16081488D01*
X12743515Y-16081488D02*
X12733991Y-16100536D01*
X12733991Y-16100536D02*
X12724468Y-16110060D01*
X12724468Y-16110060D02*
X12705420Y-16119584D01*
X12705420Y-16119584D02*
X12657801Y-16119584D01*
X12657801Y-16119584D02*
X12638753Y-16110060D01*
X12638753Y-16110060D02*
X12629229Y-16100536D01*
X12914944Y-15986250D02*
X12914944Y-16119584D01*
X12867325Y-15910060D02*
X12819706Y-16052917D01*
X12819706Y-16052917D02*
X12943515Y-16052917D01*
X13172087Y-16119584D02*
X13172087Y-15919584D01*
X13257801Y-16119584D02*
X13257801Y-16014822D01*
X13257801Y-16014822D02*
X13248277Y-15995774D01*
X13248277Y-15995774D02*
X13229230Y-15986250D01*
X13229230Y-15986250D02*
X13200658Y-15986250D01*
X13200658Y-15986250D02*
X13181610Y-15995774D01*
X13181610Y-15995774D02*
X13172087Y-16005298D01*
X13381610Y-16119584D02*
X13362563Y-16110060D01*
X13362563Y-16110060D02*
X13353039Y-16100536D01*
X13353039Y-16100536D02*
X13343515Y-16081488D01*
X13343515Y-16081488D02*
X13343515Y-16024346D01*
X13343515Y-16024346D02*
X13353039Y-16005298D01*
X13353039Y-16005298D02*
X13362563Y-15995774D01*
X13362563Y-15995774D02*
X13381610Y-15986250D01*
X13381610Y-15986250D02*
X13410182Y-15986250D01*
X13410182Y-15986250D02*
X13429230Y-15995774D01*
X13429230Y-15995774D02*
X13438753Y-16005298D01*
X13438753Y-16005298D02*
X13448277Y-16024346D01*
X13448277Y-16024346D02*
X13448277Y-16081488D01*
X13448277Y-16081488D02*
X13438753Y-16100536D01*
X13438753Y-16100536D02*
X13429230Y-16110060D01*
X13429230Y-16110060D02*
X13410182Y-16119584D01*
X13410182Y-16119584D02*
X13381610Y-16119584D01*
X13562563Y-16119584D02*
X13543515Y-16110060D01*
X13543515Y-16110060D02*
X13533991Y-16091012D01*
X13533991Y-16091012D02*
X13533991Y-15919584D01*
X13714944Y-16110060D02*
X13695896Y-16119584D01*
X13695896Y-16119584D02*
X13657801Y-16119584D01*
X13657801Y-16119584D02*
X13638753Y-16110060D01*
X13638753Y-16110060D02*
X13629230Y-16091012D01*
X13629230Y-16091012D02*
X13629230Y-16014822D01*
X13629230Y-16014822D02*
X13638753Y-15995774D01*
X13638753Y-15995774D02*
X13657801Y-15986250D01*
X13657801Y-15986250D02*
X13695896Y-15986250D01*
X13695896Y-15986250D02*
X13714944Y-15995774D01*
X13714944Y-15995774D02*
X13724468Y-16014822D01*
X13724468Y-16014822D02*
X13724468Y-16033869D01*
X13724468Y-16033869D02*
X13629230Y-16052917D01*
X13800658Y-16110060D02*
X13819706Y-16119584D01*
X13819706Y-16119584D02*
X13857801Y-16119584D01*
X13857801Y-16119584D02*
X13876849Y-16110060D01*
X13876849Y-16110060D02*
X13886372Y-16091012D01*
X13886372Y-16091012D02*
X13886372Y-16081488D01*
X13886372Y-16081488D02*
X13876849Y-16062441D01*
X13876849Y-16062441D02*
X13857801Y-16052917D01*
X13857801Y-16052917D02*
X13829230Y-16052917D01*
X13829230Y-16052917D02*
X13810182Y-16043393D01*
X13810182Y-16043393D02*
X13800658Y-16024346D01*
X13800658Y-16024346D02*
X13800658Y-16014822D01*
X13800658Y-16014822D02*
X13810182Y-15995774D01*
X13810182Y-15995774D02*
X13829230Y-15986250D01*
X13829230Y-15986250D02*
X13857801Y-15986250D01*
X13857801Y-15986250D02*
X13876849Y-15995774D01*
X13953039Y-16195774D02*
X13962563Y-16186250D01*
X13962563Y-16186250D02*
X13981611Y-16157679D01*
X13981611Y-16157679D02*
X13991134Y-16138631D01*
X13991134Y-16138631D02*
X14000658Y-16110060D01*
X14000658Y-16110060D02*
X14010182Y-16062441D01*
X14010182Y-16062441D02*
X14010182Y-16024346D01*
X14010182Y-16024346D02*
X14000658Y-15976727D01*
X14000658Y-15976727D02*
X13991134Y-15948155D01*
X13991134Y-15948155D02*
X13981611Y-15929108D01*
X13981611Y-15929108D02*
X13962563Y-15900536D01*
X13962563Y-15900536D02*
X13953039Y-15891012D01*
D13*
X8885500Y-16241100D02*
X8987500Y-16343100D01*
X8987500Y-16241100D02*
X8885500Y-16343100D01*
X8936500Y-16241100D02*
X8936500Y-16343100D01*
X8885500Y-16292100D02*
X8987500Y-16292100D01*
D11*
X9353039Y-16383584D02*
X9238753Y-16383584D01*
X9295896Y-16383584D02*
X9295896Y-16183584D01*
X9295896Y-16183584D02*
X9276848Y-16212155D01*
X9276848Y-16212155D02*
X9257801Y-16231203D01*
X9257801Y-16231203D02*
X9238753Y-16240727D01*
X9438753Y-16364536D02*
X9448277Y-16374060D01*
X9448277Y-16374060D02*
X9438753Y-16383584D01*
X9438753Y-16383584D02*
X9429229Y-16374060D01*
X9429229Y-16374060D02*
X9438753Y-16364536D01*
X9438753Y-16364536D02*
X9438753Y-16383584D01*
X9572086Y-16183584D02*
X9591134Y-16183584D01*
X9591134Y-16183584D02*
X9610182Y-16193108D01*
X9610182Y-16193108D02*
X9619705Y-16202631D01*
X9619705Y-16202631D02*
X9629229Y-16221679D01*
X9629229Y-16221679D02*
X9638753Y-16259774D01*
X9638753Y-16259774D02*
X9638753Y-16307393D01*
X9638753Y-16307393D02*
X9629229Y-16345488D01*
X9629229Y-16345488D02*
X9619705Y-16364536D01*
X9619705Y-16364536D02*
X9610182Y-16374060D01*
X9610182Y-16374060D02*
X9591134Y-16383584D01*
X9591134Y-16383584D02*
X9572086Y-16383584D01*
X9572086Y-16383584D02*
X9553039Y-16374060D01*
X9553039Y-16374060D02*
X9543515Y-16364536D01*
X9543515Y-16364536D02*
X9533991Y-16345488D01*
X9533991Y-16345488D02*
X9524467Y-16307393D01*
X9524467Y-16307393D02*
X9524467Y-16259774D01*
X9524467Y-16259774D02*
X9533991Y-16221679D01*
X9533991Y-16221679D02*
X9543515Y-16202631D01*
X9543515Y-16202631D02*
X9553039Y-16193108D01*
X9553039Y-16193108D02*
X9572086Y-16183584D01*
X9714944Y-16202631D02*
X9724467Y-16193108D01*
X9724467Y-16193108D02*
X9743515Y-16183584D01*
X9743515Y-16183584D02*
X9791134Y-16183584D01*
X9791134Y-16183584D02*
X9810182Y-16193108D01*
X9810182Y-16193108D02*
X9819705Y-16202631D01*
X9819705Y-16202631D02*
X9829229Y-16221679D01*
X9829229Y-16221679D02*
X9829229Y-16240727D01*
X9829229Y-16240727D02*
X9819705Y-16269298D01*
X9819705Y-16269298D02*
X9705420Y-16383584D01*
X9705420Y-16383584D02*
X9829229Y-16383584D01*
X9953039Y-16183584D02*
X9972086Y-16183584D01*
X9972086Y-16183584D02*
X9991134Y-16193108D01*
X9991134Y-16193108D02*
X10000658Y-16202631D01*
X10000658Y-16202631D02*
X10010182Y-16221679D01*
X10010182Y-16221679D02*
X10019705Y-16259774D01*
X10019705Y-16259774D02*
X10019705Y-16307393D01*
X10019705Y-16307393D02*
X10010182Y-16345488D01*
X10010182Y-16345488D02*
X10000658Y-16364536D01*
X10000658Y-16364536D02*
X9991134Y-16374060D01*
X9991134Y-16374060D02*
X9972086Y-16383584D01*
X9972086Y-16383584D02*
X9953039Y-16383584D01*
X9953039Y-16383584D02*
X9933991Y-16374060D01*
X9933991Y-16374060D02*
X9924467Y-16364536D01*
X9924467Y-16364536D02*
X9914944Y-16345488D01*
X9914944Y-16345488D02*
X9905420Y-16307393D01*
X9905420Y-16307393D02*
X9905420Y-16259774D01*
X9905420Y-16259774D02*
X9914944Y-16221679D01*
X9914944Y-16221679D02*
X9924467Y-16202631D01*
X9924467Y-16202631D02*
X9933991Y-16193108D01*
X9933991Y-16193108D02*
X9953039Y-16183584D01*
X10105420Y-16383584D02*
X10105420Y-16250250D01*
X10105420Y-16269298D02*
X10114944Y-16259774D01*
X10114944Y-16259774D02*
X10133991Y-16250250D01*
X10133991Y-16250250D02*
X10162563Y-16250250D01*
X10162563Y-16250250D02*
X10181610Y-16259774D01*
X10181610Y-16259774D02*
X10191134Y-16278822D01*
X10191134Y-16278822D02*
X10191134Y-16383584D01*
X10191134Y-16278822D02*
X10200658Y-16259774D01*
X10200658Y-16259774D02*
X10219705Y-16250250D01*
X10219705Y-16250250D02*
X10248277Y-16250250D01*
X10248277Y-16250250D02*
X10267325Y-16259774D01*
X10267325Y-16259774D02*
X10276848Y-16278822D01*
X10276848Y-16278822D02*
X10276848Y-16383584D01*
X10372086Y-16383584D02*
X10372086Y-16250250D01*
X10372086Y-16269298D02*
X10381610Y-16259774D01*
X10381610Y-16259774D02*
X10400658Y-16250250D01*
X10400658Y-16250250D02*
X10429229Y-16250250D01*
X10429229Y-16250250D02*
X10448277Y-16259774D01*
X10448277Y-16259774D02*
X10457801Y-16278822D01*
X10457801Y-16278822D02*
X10457801Y-16383584D01*
X10457801Y-16278822D02*
X10467325Y-16259774D01*
X10467325Y-16259774D02*
X10486372Y-16250250D01*
X10486372Y-16250250D02*
X10514944Y-16250250D01*
X10514944Y-16250250D02*
X10533991Y-16259774D01*
X10533991Y-16259774D02*
X10543515Y-16278822D01*
X10543515Y-16278822D02*
X10543515Y-16383584D01*
X10933991Y-16174060D02*
X10762563Y-16431203D01*
X11191134Y-16183584D02*
X11210182Y-16183584D01*
X11210182Y-16183584D02*
X11229229Y-16193108D01*
X11229229Y-16193108D02*
X11238753Y-16202631D01*
X11238753Y-16202631D02*
X11248277Y-16221679D01*
X11248277Y-16221679D02*
X11257801Y-16259774D01*
X11257801Y-16259774D02*
X11257801Y-16307393D01*
X11257801Y-16307393D02*
X11248277Y-16345488D01*
X11248277Y-16345488D02*
X11238753Y-16364536D01*
X11238753Y-16364536D02*
X11229229Y-16374060D01*
X11229229Y-16374060D02*
X11210182Y-16383584D01*
X11210182Y-16383584D02*
X11191134Y-16383584D01*
X11191134Y-16383584D02*
X11172087Y-16374060D01*
X11172087Y-16374060D02*
X11162563Y-16364536D01*
X11162563Y-16364536D02*
X11153039Y-16345488D01*
X11153039Y-16345488D02*
X11143515Y-16307393D01*
X11143515Y-16307393D02*
X11143515Y-16259774D01*
X11143515Y-16259774D02*
X11153039Y-16221679D01*
X11153039Y-16221679D02*
X11162563Y-16202631D01*
X11162563Y-16202631D02*
X11172087Y-16193108D01*
X11172087Y-16193108D02*
X11191134Y-16183584D01*
X11343515Y-16364536D02*
X11353039Y-16374060D01*
X11353039Y-16374060D02*
X11343515Y-16383584D01*
X11343515Y-16383584D02*
X11333991Y-16374060D01*
X11333991Y-16374060D02*
X11343515Y-16364536D01*
X11343515Y-16364536D02*
X11343515Y-16383584D01*
X11476848Y-16183584D02*
X11495896Y-16183584D01*
X11495896Y-16183584D02*
X11514944Y-16193108D01*
X11514944Y-16193108D02*
X11524467Y-16202631D01*
X11524467Y-16202631D02*
X11533991Y-16221679D01*
X11533991Y-16221679D02*
X11543515Y-16259774D01*
X11543515Y-16259774D02*
X11543515Y-16307393D01*
X11543515Y-16307393D02*
X11533991Y-16345488D01*
X11533991Y-16345488D02*
X11524467Y-16364536D01*
X11524467Y-16364536D02*
X11514944Y-16374060D01*
X11514944Y-16374060D02*
X11495896Y-16383584D01*
X11495896Y-16383584D02*
X11476848Y-16383584D01*
X11476848Y-16383584D02*
X11457801Y-16374060D01*
X11457801Y-16374060D02*
X11448277Y-16364536D01*
X11448277Y-16364536D02*
X11438753Y-16345488D01*
X11438753Y-16345488D02*
X11429229Y-16307393D01*
X11429229Y-16307393D02*
X11429229Y-16259774D01*
X11429229Y-16259774D02*
X11438753Y-16221679D01*
X11438753Y-16221679D02*
X11448277Y-16202631D01*
X11448277Y-16202631D02*
X11457801Y-16193108D01*
X11457801Y-16193108D02*
X11476848Y-16183584D01*
X11714944Y-16250250D02*
X11714944Y-16383584D01*
X11667325Y-16174060D02*
X11619706Y-16316917D01*
X11619706Y-16316917D02*
X11743515Y-16316917D01*
X11857801Y-16183584D02*
X11876848Y-16183584D01*
X11876848Y-16183584D02*
X11895896Y-16193108D01*
X11895896Y-16193108D02*
X11905420Y-16202631D01*
X11905420Y-16202631D02*
X11914944Y-16221679D01*
X11914944Y-16221679D02*
X11924467Y-16259774D01*
X11924467Y-16259774D02*
X11924467Y-16307393D01*
X11924467Y-16307393D02*
X11914944Y-16345488D01*
X11914944Y-16345488D02*
X11905420Y-16364536D01*
X11905420Y-16364536D02*
X11895896Y-16374060D01*
X11895896Y-16374060D02*
X11876848Y-16383584D01*
X11876848Y-16383584D02*
X11857801Y-16383584D01*
X11857801Y-16383584D02*
X11838753Y-16374060D01*
X11838753Y-16374060D02*
X11829229Y-16364536D01*
X11829229Y-16364536D02*
X11819706Y-16345488D01*
X11819706Y-16345488D02*
X11810182Y-16307393D01*
X11810182Y-16307393D02*
X11810182Y-16259774D01*
X11810182Y-16259774D02*
X11819706Y-16221679D01*
X11819706Y-16221679D02*
X11829229Y-16202631D01*
X11829229Y-16202631D02*
X11838753Y-16193108D01*
X11838753Y-16193108D02*
X11857801Y-16183584D01*
X12000658Y-16202631D02*
X12010182Y-16193108D01*
X12010182Y-16193108D02*
X12029229Y-16183584D01*
X12029229Y-16183584D02*
X12076848Y-16183584D01*
X12076848Y-16183584D02*
X12095896Y-16193108D01*
X12095896Y-16193108D02*
X12105420Y-16202631D01*
X12105420Y-16202631D02*
X12114944Y-16221679D01*
X12114944Y-16221679D02*
X12114944Y-16240727D01*
X12114944Y-16240727D02*
X12105420Y-16269298D01*
X12105420Y-16269298D02*
X11991134Y-16383584D01*
X11991134Y-16383584D02*
X12114944Y-16383584D01*
X12191134Y-16183584D02*
X12191134Y-16221679D01*
X12267325Y-16183584D02*
X12267325Y-16221679D01*
X12562563Y-16459774D02*
X12553039Y-16450250D01*
X12553039Y-16450250D02*
X12533991Y-16421679D01*
X12533991Y-16421679D02*
X12524468Y-16402631D01*
X12524468Y-16402631D02*
X12514944Y-16374060D01*
X12514944Y-16374060D02*
X12505420Y-16326441D01*
X12505420Y-16326441D02*
X12505420Y-16288346D01*
X12505420Y-16288346D02*
X12514944Y-16240727D01*
X12514944Y-16240727D02*
X12524468Y-16212155D01*
X12524468Y-16212155D02*
X12533991Y-16193108D01*
X12533991Y-16193108D02*
X12553039Y-16164536D01*
X12553039Y-16164536D02*
X12562563Y-16155012D01*
X12724468Y-16250250D02*
X12724468Y-16383584D01*
X12676848Y-16174060D02*
X12629229Y-16316917D01*
X12629229Y-16316917D02*
X12753039Y-16316917D01*
X12981610Y-16383584D02*
X12981610Y-16183584D01*
X13067325Y-16383584D02*
X13067325Y-16278822D01*
X13067325Y-16278822D02*
X13057801Y-16259774D01*
X13057801Y-16259774D02*
X13038753Y-16250250D01*
X13038753Y-16250250D02*
X13010182Y-16250250D01*
X13010182Y-16250250D02*
X12991134Y-16259774D01*
X12991134Y-16259774D02*
X12981610Y-16269298D01*
X13191134Y-16383584D02*
X13172087Y-16374060D01*
X13172087Y-16374060D02*
X13162563Y-16364536D01*
X13162563Y-16364536D02*
X13153039Y-16345488D01*
X13153039Y-16345488D02*
X13153039Y-16288346D01*
X13153039Y-16288346D02*
X13162563Y-16269298D01*
X13162563Y-16269298D02*
X13172087Y-16259774D01*
X13172087Y-16259774D02*
X13191134Y-16250250D01*
X13191134Y-16250250D02*
X13219706Y-16250250D01*
X13219706Y-16250250D02*
X13238753Y-16259774D01*
X13238753Y-16259774D02*
X13248277Y-16269298D01*
X13248277Y-16269298D02*
X13257801Y-16288346D01*
X13257801Y-16288346D02*
X13257801Y-16345488D01*
X13257801Y-16345488D02*
X13248277Y-16364536D01*
X13248277Y-16364536D02*
X13238753Y-16374060D01*
X13238753Y-16374060D02*
X13219706Y-16383584D01*
X13219706Y-16383584D02*
X13191134Y-16383584D01*
X13372087Y-16383584D02*
X13353039Y-16374060D01*
X13353039Y-16374060D02*
X13343515Y-16355012D01*
X13343515Y-16355012D02*
X13343515Y-16183584D01*
X13524468Y-16374060D02*
X13505420Y-16383584D01*
X13505420Y-16383584D02*
X13467325Y-16383584D01*
X13467325Y-16383584D02*
X13448277Y-16374060D01*
X13448277Y-16374060D02*
X13438753Y-16355012D01*
X13438753Y-16355012D02*
X13438753Y-16278822D01*
X13438753Y-16278822D02*
X13448277Y-16259774D01*
X13448277Y-16259774D02*
X13467325Y-16250250D01*
X13467325Y-16250250D02*
X13505420Y-16250250D01*
X13505420Y-16250250D02*
X13524468Y-16259774D01*
X13524468Y-16259774D02*
X13533991Y-16278822D01*
X13533991Y-16278822D02*
X13533991Y-16297869D01*
X13533991Y-16297869D02*
X13438753Y-16316917D01*
X13610182Y-16374060D02*
X13629230Y-16383584D01*
X13629230Y-16383584D02*
X13667325Y-16383584D01*
X13667325Y-16383584D02*
X13686372Y-16374060D01*
X13686372Y-16374060D02*
X13695896Y-16355012D01*
X13695896Y-16355012D02*
X13695896Y-16345488D01*
X13695896Y-16345488D02*
X13686372Y-16326441D01*
X13686372Y-16326441D02*
X13667325Y-16316917D01*
X13667325Y-16316917D02*
X13638753Y-16316917D01*
X13638753Y-16316917D02*
X13619706Y-16307393D01*
X13619706Y-16307393D02*
X13610182Y-16288346D01*
X13610182Y-16288346D02*
X13610182Y-16278822D01*
X13610182Y-16278822D02*
X13619706Y-16259774D01*
X13619706Y-16259774D02*
X13638753Y-16250250D01*
X13638753Y-16250250D02*
X13667325Y-16250250D01*
X13667325Y-16250250D02*
X13686372Y-16259774D01*
X13762563Y-16459774D02*
X13772087Y-16450250D01*
X13772087Y-16450250D02*
X13791134Y-16421679D01*
X13791134Y-16421679D02*
X13800658Y-16402631D01*
X13800658Y-16402631D02*
X13810182Y-16374060D01*
X13810182Y-16374060D02*
X13819706Y-16326441D01*
X13819706Y-16326441D02*
X13819706Y-16288346D01*
X13819706Y-16288346D02*
X13810182Y-16240727D01*
X13810182Y-16240727D02*
X13800658Y-16212155D01*
X13800658Y-16212155D02*
X13791134Y-16193108D01*
X13791134Y-16193108D02*
X13772087Y-16164536D01*
X13772087Y-16164536D02*
X13762563Y-16155012D01*
D14*
X8877500Y-16501100D02*
X8987500Y-16611100D01*
X8987500Y-16501100D02*
X8877500Y-16611100D01*
X8971391Y-16594991D02*
X8971391Y-16517209D01*
X8893609Y-16517209D01*
X8893609Y-16594991D01*
X8971391Y-16594991D01*
D11*
X9353039Y-16647584D02*
X9238753Y-16647584D01*
X9295896Y-16647584D02*
X9295896Y-16447584D01*
X9295896Y-16447584D02*
X9276848Y-16476155D01*
X9276848Y-16476155D02*
X9257801Y-16495203D01*
X9257801Y-16495203D02*
X9238753Y-16504727D01*
X9438753Y-16628536D02*
X9448277Y-16638060D01*
X9448277Y-16638060D02*
X9438753Y-16647584D01*
X9438753Y-16647584D02*
X9429229Y-16638060D01*
X9429229Y-16638060D02*
X9438753Y-16628536D01*
X9438753Y-16628536D02*
X9438753Y-16647584D01*
X9638753Y-16647584D02*
X9524467Y-16647584D01*
X9581610Y-16647584D02*
X9581610Y-16447584D01*
X9581610Y-16447584D02*
X9562563Y-16476155D01*
X9562563Y-16476155D02*
X9543515Y-16495203D01*
X9543515Y-16495203D02*
X9524467Y-16504727D01*
X9762563Y-16447584D02*
X9781610Y-16447584D01*
X9781610Y-16447584D02*
X9800658Y-16457108D01*
X9800658Y-16457108D02*
X9810182Y-16466631D01*
X9810182Y-16466631D02*
X9819705Y-16485679D01*
X9819705Y-16485679D02*
X9829229Y-16523774D01*
X9829229Y-16523774D02*
X9829229Y-16571393D01*
X9829229Y-16571393D02*
X9819705Y-16609488D01*
X9819705Y-16609488D02*
X9810182Y-16628536D01*
X9810182Y-16628536D02*
X9800658Y-16638060D01*
X9800658Y-16638060D02*
X9781610Y-16647584D01*
X9781610Y-16647584D02*
X9762563Y-16647584D01*
X9762563Y-16647584D02*
X9743515Y-16638060D01*
X9743515Y-16638060D02*
X9733991Y-16628536D01*
X9733991Y-16628536D02*
X9724467Y-16609488D01*
X9724467Y-16609488D02*
X9714944Y-16571393D01*
X9714944Y-16571393D02*
X9714944Y-16523774D01*
X9714944Y-16523774D02*
X9724467Y-16485679D01*
X9724467Y-16485679D02*
X9733991Y-16466631D01*
X9733991Y-16466631D02*
X9743515Y-16457108D01*
X9743515Y-16457108D02*
X9762563Y-16447584D01*
X9953039Y-16447584D02*
X9972086Y-16447584D01*
X9972086Y-16447584D02*
X9991134Y-16457108D01*
X9991134Y-16457108D02*
X10000658Y-16466631D01*
X10000658Y-16466631D02*
X10010182Y-16485679D01*
X10010182Y-16485679D02*
X10019705Y-16523774D01*
X10019705Y-16523774D02*
X10019705Y-16571393D01*
X10019705Y-16571393D02*
X10010182Y-16609488D01*
X10010182Y-16609488D02*
X10000658Y-16628536D01*
X10000658Y-16628536D02*
X9991134Y-16638060D01*
X9991134Y-16638060D02*
X9972086Y-16647584D01*
X9972086Y-16647584D02*
X9953039Y-16647584D01*
X9953039Y-16647584D02*
X9933991Y-16638060D01*
X9933991Y-16638060D02*
X9924467Y-16628536D01*
X9924467Y-16628536D02*
X9914944Y-16609488D01*
X9914944Y-16609488D02*
X9905420Y-16571393D01*
X9905420Y-16571393D02*
X9905420Y-16523774D01*
X9905420Y-16523774D02*
X9914944Y-16485679D01*
X9914944Y-16485679D02*
X9924467Y-16466631D01*
X9924467Y-16466631D02*
X9933991Y-16457108D01*
X9933991Y-16457108D02*
X9953039Y-16447584D01*
X10105420Y-16647584D02*
X10105420Y-16514250D01*
X10105420Y-16533298D02*
X10114944Y-16523774D01*
X10114944Y-16523774D02*
X10133991Y-16514250D01*
X10133991Y-16514250D02*
X10162563Y-16514250D01*
X10162563Y-16514250D02*
X10181610Y-16523774D01*
X10181610Y-16523774D02*
X10191134Y-16542822D01*
X10191134Y-16542822D02*
X10191134Y-16647584D01*
X10191134Y-16542822D02*
X10200658Y-16523774D01*
X10200658Y-16523774D02*
X10219705Y-16514250D01*
X10219705Y-16514250D02*
X10248277Y-16514250D01*
X10248277Y-16514250D02*
X10267325Y-16523774D01*
X10267325Y-16523774D02*
X10276848Y-16542822D01*
X10276848Y-16542822D02*
X10276848Y-16647584D01*
X10372086Y-16647584D02*
X10372086Y-16514250D01*
X10372086Y-16533298D02*
X10381610Y-16523774D01*
X10381610Y-16523774D02*
X10400658Y-16514250D01*
X10400658Y-16514250D02*
X10429229Y-16514250D01*
X10429229Y-16514250D02*
X10448277Y-16523774D01*
X10448277Y-16523774D02*
X10457801Y-16542822D01*
X10457801Y-16542822D02*
X10457801Y-16647584D01*
X10457801Y-16542822D02*
X10467325Y-16523774D01*
X10467325Y-16523774D02*
X10486372Y-16514250D01*
X10486372Y-16514250D02*
X10514944Y-16514250D01*
X10514944Y-16514250D02*
X10533991Y-16523774D01*
X10533991Y-16523774D02*
X10543515Y-16542822D01*
X10543515Y-16542822D02*
X10543515Y-16647584D01*
X10933991Y-16438060D02*
X10762563Y-16695203D01*
X11191134Y-16447584D02*
X11210182Y-16447584D01*
X11210182Y-16447584D02*
X11229229Y-16457108D01*
X11229229Y-16457108D02*
X11238753Y-16466631D01*
X11238753Y-16466631D02*
X11248277Y-16485679D01*
X11248277Y-16485679D02*
X11257801Y-16523774D01*
X11257801Y-16523774D02*
X11257801Y-16571393D01*
X11257801Y-16571393D02*
X11248277Y-16609488D01*
X11248277Y-16609488D02*
X11238753Y-16628536D01*
X11238753Y-16628536D02*
X11229229Y-16638060D01*
X11229229Y-16638060D02*
X11210182Y-16647584D01*
X11210182Y-16647584D02*
X11191134Y-16647584D01*
X11191134Y-16647584D02*
X11172087Y-16638060D01*
X11172087Y-16638060D02*
X11162563Y-16628536D01*
X11162563Y-16628536D02*
X11153039Y-16609488D01*
X11153039Y-16609488D02*
X11143515Y-16571393D01*
X11143515Y-16571393D02*
X11143515Y-16523774D01*
X11143515Y-16523774D02*
X11153039Y-16485679D01*
X11153039Y-16485679D02*
X11162563Y-16466631D01*
X11162563Y-16466631D02*
X11172087Y-16457108D01*
X11172087Y-16457108D02*
X11191134Y-16447584D01*
X11343515Y-16628536D02*
X11353039Y-16638060D01*
X11353039Y-16638060D02*
X11343515Y-16647584D01*
X11343515Y-16647584D02*
X11333991Y-16638060D01*
X11333991Y-16638060D02*
X11343515Y-16628536D01*
X11343515Y-16628536D02*
X11343515Y-16647584D01*
X11476848Y-16447584D02*
X11495896Y-16447584D01*
X11495896Y-16447584D02*
X11514944Y-16457108D01*
X11514944Y-16457108D02*
X11524467Y-16466631D01*
X11524467Y-16466631D02*
X11533991Y-16485679D01*
X11533991Y-16485679D02*
X11543515Y-16523774D01*
X11543515Y-16523774D02*
X11543515Y-16571393D01*
X11543515Y-16571393D02*
X11533991Y-16609488D01*
X11533991Y-16609488D02*
X11524467Y-16628536D01*
X11524467Y-16628536D02*
X11514944Y-16638060D01*
X11514944Y-16638060D02*
X11495896Y-16647584D01*
X11495896Y-16647584D02*
X11476848Y-16647584D01*
X11476848Y-16647584D02*
X11457801Y-16638060D01*
X11457801Y-16638060D02*
X11448277Y-16628536D01*
X11448277Y-16628536D02*
X11438753Y-16609488D01*
X11438753Y-16609488D02*
X11429229Y-16571393D01*
X11429229Y-16571393D02*
X11429229Y-16523774D01*
X11429229Y-16523774D02*
X11438753Y-16485679D01*
X11438753Y-16485679D02*
X11448277Y-16466631D01*
X11448277Y-16466631D02*
X11457801Y-16457108D01*
X11457801Y-16457108D02*
X11476848Y-16447584D01*
X11714944Y-16514250D02*
X11714944Y-16647584D01*
X11667325Y-16438060D02*
X11619706Y-16580917D01*
X11619706Y-16580917D02*
X11743515Y-16580917D01*
X11800658Y-16447584D02*
X11924467Y-16447584D01*
X11924467Y-16447584D02*
X11857801Y-16523774D01*
X11857801Y-16523774D02*
X11886372Y-16523774D01*
X11886372Y-16523774D02*
X11905420Y-16533298D01*
X11905420Y-16533298D02*
X11914944Y-16542822D01*
X11914944Y-16542822D02*
X11924467Y-16561869D01*
X11924467Y-16561869D02*
X11924467Y-16609488D01*
X11924467Y-16609488D02*
X11914944Y-16628536D01*
X11914944Y-16628536D02*
X11905420Y-16638060D01*
X11905420Y-16638060D02*
X11886372Y-16647584D01*
X11886372Y-16647584D02*
X11829229Y-16647584D01*
X11829229Y-16647584D02*
X11810182Y-16638060D01*
X11810182Y-16638060D02*
X11800658Y-16628536D01*
X11991134Y-16447584D02*
X12114944Y-16447584D01*
X12114944Y-16447584D02*
X12048277Y-16523774D01*
X12048277Y-16523774D02*
X12076848Y-16523774D01*
X12076848Y-16523774D02*
X12095896Y-16533298D01*
X12095896Y-16533298D02*
X12105420Y-16542822D01*
X12105420Y-16542822D02*
X12114944Y-16561869D01*
X12114944Y-16561869D02*
X12114944Y-16609488D01*
X12114944Y-16609488D02*
X12105420Y-16628536D01*
X12105420Y-16628536D02*
X12095896Y-16638060D01*
X12095896Y-16638060D02*
X12076848Y-16647584D01*
X12076848Y-16647584D02*
X12019706Y-16647584D01*
X12019706Y-16647584D02*
X12000658Y-16638060D01*
X12000658Y-16638060D02*
X11991134Y-16628536D01*
X12191134Y-16447584D02*
X12191134Y-16485679D01*
X12267325Y-16447584D02*
X12267325Y-16485679D01*
X12562563Y-16723774D02*
X12553039Y-16714250D01*
X12553039Y-16714250D02*
X12533991Y-16685679D01*
X12533991Y-16685679D02*
X12524468Y-16666631D01*
X12524468Y-16666631D02*
X12514944Y-16638060D01*
X12514944Y-16638060D02*
X12505420Y-16590441D01*
X12505420Y-16590441D02*
X12505420Y-16552346D01*
X12505420Y-16552346D02*
X12514944Y-16504727D01*
X12514944Y-16504727D02*
X12524468Y-16476155D01*
X12524468Y-16476155D02*
X12533991Y-16457108D01*
X12533991Y-16457108D02*
X12553039Y-16428536D01*
X12553039Y-16428536D02*
X12562563Y-16419012D01*
X12733991Y-16447584D02*
X12638753Y-16447584D01*
X12638753Y-16447584D02*
X12629229Y-16542822D01*
X12629229Y-16542822D02*
X12638753Y-16533298D01*
X12638753Y-16533298D02*
X12657801Y-16523774D01*
X12657801Y-16523774D02*
X12705420Y-16523774D01*
X12705420Y-16523774D02*
X12724468Y-16533298D01*
X12724468Y-16533298D02*
X12733991Y-16542822D01*
X12733991Y-16542822D02*
X12743515Y-16561869D01*
X12743515Y-16561869D02*
X12743515Y-16609488D01*
X12743515Y-16609488D02*
X12733991Y-16628536D01*
X12733991Y-16628536D02*
X12724468Y-16638060D01*
X12724468Y-16638060D02*
X12705420Y-16647584D01*
X12705420Y-16647584D02*
X12657801Y-16647584D01*
X12657801Y-16647584D02*
X12638753Y-16638060D01*
X12638753Y-16638060D02*
X12629229Y-16628536D01*
X12838753Y-16647584D02*
X12876848Y-16647584D01*
X12876848Y-16647584D02*
X12895896Y-16638060D01*
X12895896Y-16638060D02*
X12905420Y-16628536D01*
X12905420Y-16628536D02*
X12924468Y-16599965D01*
X12924468Y-16599965D02*
X12933991Y-16561869D01*
X12933991Y-16561869D02*
X12933991Y-16485679D01*
X12933991Y-16485679D02*
X12924468Y-16466631D01*
X12924468Y-16466631D02*
X12914944Y-16457108D01*
X12914944Y-16457108D02*
X12895896Y-16447584D01*
X12895896Y-16447584D02*
X12857801Y-16447584D01*
X12857801Y-16447584D02*
X12838753Y-16457108D01*
X12838753Y-16457108D02*
X12829229Y-16466631D01*
X12829229Y-16466631D02*
X12819706Y-16485679D01*
X12819706Y-16485679D02*
X12819706Y-16533298D01*
X12819706Y-16533298D02*
X12829229Y-16552346D01*
X12829229Y-16552346D02*
X12838753Y-16561869D01*
X12838753Y-16561869D02*
X12857801Y-16571393D01*
X12857801Y-16571393D02*
X12895896Y-16571393D01*
X12895896Y-16571393D02*
X12914944Y-16561869D01*
X12914944Y-16561869D02*
X12924468Y-16552346D01*
X12924468Y-16552346D02*
X12933991Y-16533298D01*
X13172087Y-16647584D02*
X13172087Y-16447584D01*
X13257801Y-16647584D02*
X13257801Y-16542822D01*
X13257801Y-16542822D02*
X13248277Y-16523774D01*
X13248277Y-16523774D02*
X13229230Y-16514250D01*
X13229230Y-16514250D02*
X13200658Y-16514250D01*
X13200658Y-16514250D02*
X13181610Y-16523774D01*
X13181610Y-16523774D02*
X13172087Y-16533298D01*
X13381610Y-16647584D02*
X13362563Y-16638060D01*
X13362563Y-16638060D02*
X13353039Y-16628536D01*
X13353039Y-16628536D02*
X13343515Y-16609488D01*
X13343515Y-16609488D02*
X13343515Y-16552346D01*
X13343515Y-16552346D02*
X13353039Y-16533298D01*
X13353039Y-16533298D02*
X13362563Y-16523774D01*
X13362563Y-16523774D02*
X13381610Y-16514250D01*
X13381610Y-16514250D02*
X13410182Y-16514250D01*
X13410182Y-16514250D02*
X13429230Y-16523774D01*
X13429230Y-16523774D02*
X13438753Y-16533298D01*
X13438753Y-16533298D02*
X13448277Y-16552346D01*
X13448277Y-16552346D02*
X13448277Y-16609488D01*
X13448277Y-16609488D02*
X13438753Y-16628536D01*
X13438753Y-16628536D02*
X13429230Y-16638060D01*
X13429230Y-16638060D02*
X13410182Y-16647584D01*
X13410182Y-16647584D02*
X13381610Y-16647584D01*
X13562563Y-16647584D02*
X13543515Y-16638060D01*
X13543515Y-16638060D02*
X13533991Y-16619012D01*
X13533991Y-16619012D02*
X13533991Y-16447584D01*
X13714944Y-16638060D02*
X13695896Y-16647584D01*
X13695896Y-16647584D02*
X13657801Y-16647584D01*
X13657801Y-16647584D02*
X13638753Y-16638060D01*
X13638753Y-16638060D02*
X13629230Y-16619012D01*
X13629230Y-16619012D02*
X13629230Y-16542822D01*
X13629230Y-16542822D02*
X13638753Y-16523774D01*
X13638753Y-16523774D02*
X13657801Y-16514250D01*
X13657801Y-16514250D02*
X13695896Y-16514250D01*
X13695896Y-16514250D02*
X13714944Y-16523774D01*
X13714944Y-16523774D02*
X13724468Y-16542822D01*
X13724468Y-16542822D02*
X13724468Y-16561869D01*
X13724468Y-16561869D02*
X13629230Y-16580917D01*
X13800658Y-16638060D02*
X13819706Y-16647584D01*
X13819706Y-16647584D02*
X13857801Y-16647584D01*
X13857801Y-16647584D02*
X13876849Y-16638060D01*
X13876849Y-16638060D02*
X13886372Y-16619012D01*
X13886372Y-16619012D02*
X13886372Y-16609488D01*
X13886372Y-16609488D02*
X13876849Y-16590441D01*
X13876849Y-16590441D02*
X13857801Y-16580917D01*
X13857801Y-16580917D02*
X13829230Y-16580917D01*
X13829230Y-16580917D02*
X13810182Y-16571393D01*
X13810182Y-16571393D02*
X13800658Y-16552346D01*
X13800658Y-16552346D02*
X13800658Y-16542822D01*
X13800658Y-16542822D02*
X13810182Y-16523774D01*
X13810182Y-16523774D02*
X13829230Y-16514250D01*
X13829230Y-16514250D02*
X13857801Y-16514250D01*
X13857801Y-16514250D02*
X13876849Y-16523774D01*
X13953039Y-16723774D02*
X13962563Y-16714250D01*
X13962563Y-16714250D02*
X13981611Y-16685679D01*
X13981611Y-16685679D02*
X13991134Y-16666631D01*
X13991134Y-16666631D02*
X14000658Y-16638060D01*
X14000658Y-16638060D02*
X14010182Y-16590441D01*
X14010182Y-16590441D02*
X14010182Y-16552346D01*
X14010182Y-16552346D02*
X14000658Y-16504727D01*
X14000658Y-16504727D02*
X13991134Y-16476155D01*
X13991134Y-16476155D02*
X13981611Y-16457108D01*
X13981611Y-16457108D02*
X13962563Y-16428536D01*
X13962563Y-16428536D02*
X13953039Y-16419012D01*
D15*
X8857500Y-16755100D02*
X8987500Y-16885100D01*
X8987500Y-16755100D02*
X8857500Y-16885100D01*
X8922500Y-16885100D02*
X8987500Y-16820100D01*
X8922500Y-16755100D01*
X8857500Y-16820100D01*
X8922500Y-16885100D01*
D11*
X9353039Y-16911584D02*
X9238753Y-16911584D01*
X9295896Y-16911584D02*
X9295896Y-16711584D01*
X9295896Y-16711584D02*
X9276848Y-16740155D01*
X9276848Y-16740155D02*
X9257801Y-16759203D01*
X9257801Y-16759203D02*
X9238753Y-16768727D01*
X9438753Y-16892536D02*
X9448277Y-16902060D01*
X9448277Y-16902060D02*
X9438753Y-16911584D01*
X9438753Y-16911584D02*
X9429229Y-16902060D01*
X9429229Y-16902060D02*
X9438753Y-16892536D01*
X9438753Y-16892536D02*
X9438753Y-16911584D01*
X9514944Y-16711584D02*
X9638753Y-16711584D01*
X9638753Y-16711584D02*
X9572086Y-16787774D01*
X9572086Y-16787774D02*
X9600658Y-16787774D01*
X9600658Y-16787774D02*
X9619705Y-16797298D01*
X9619705Y-16797298D02*
X9629229Y-16806822D01*
X9629229Y-16806822D02*
X9638753Y-16825870D01*
X9638753Y-16825870D02*
X9638753Y-16873489D01*
X9638753Y-16873489D02*
X9629229Y-16892536D01*
X9629229Y-16892536D02*
X9619705Y-16902060D01*
X9619705Y-16902060D02*
X9600658Y-16911584D01*
X9600658Y-16911584D02*
X9543515Y-16911584D01*
X9543515Y-16911584D02*
X9524467Y-16902060D01*
X9524467Y-16902060D02*
X9514944Y-16892536D01*
X9762563Y-16711584D02*
X9781610Y-16711584D01*
X9781610Y-16711584D02*
X9800658Y-16721108D01*
X9800658Y-16721108D02*
X9810182Y-16730631D01*
X9810182Y-16730631D02*
X9819705Y-16749679D01*
X9819705Y-16749679D02*
X9829229Y-16787774D01*
X9829229Y-16787774D02*
X9829229Y-16835393D01*
X9829229Y-16835393D02*
X9819705Y-16873489D01*
X9819705Y-16873489D02*
X9810182Y-16892536D01*
X9810182Y-16892536D02*
X9800658Y-16902060D01*
X9800658Y-16902060D02*
X9781610Y-16911584D01*
X9781610Y-16911584D02*
X9762563Y-16911584D01*
X9762563Y-16911584D02*
X9743515Y-16902060D01*
X9743515Y-16902060D02*
X9733991Y-16892536D01*
X9733991Y-16892536D02*
X9724467Y-16873489D01*
X9724467Y-16873489D02*
X9714944Y-16835393D01*
X9714944Y-16835393D02*
X9714944Y-16787774D01*
X9714944Y-16787774D02*
X9724467Y-16749679D01*
X9724467Y-16749679D02*
X9733991Y-16730631D01*
X9733991Y-16730631D02*
X9743515Y-16721108D01*
X9743515Y-16721108D02*
X9762563Y-16711584D01*
X9953039Y-16711584D02*
X9972086Y-16711584D01*
X9972086Y-16711584D02*
X9991134Y-16721108D01*
X9991134Y-16721108D02*
X10000658Y-16730631D01*
X10000658Y-16730631D02*
X10010182Y-16749679D01*
X10010182Y-16749679D02*
X10019705Y-16787774D01*
X10019705Y-16787774D02*
X10019705Y-16835393D01*
X10019705Y-16835393D02*
X10010182Y-16873489D01*
X10010182Y-16873489D02*
X10000658Y-16892536D01*
X10000658Y-16892536D02*
X9991134Y-16902060D01*
X9991134Y-16902060D02*
X9972086Y-16911584D01*
X9972086Y-16911584D02*
X9953039Y-16911584D01*
X9953039Y-16911584D02*
X9933991Y-16902060D01*
X9933991Y-16902060D02*
X9924467Y-16892536D01*
X9924467Y-16892536D02*
X9914944Y-16873489D01*
X9914944Y-16873489D02*
X9905420Y-16835393D01*
X9905420Y-16835393D02*
X9905420Y-16787774D01*
X9905420Y-16787774D02*
X9914944Y-16749679D01*
X9914944Y-16749679D02*
X9924467Y-16730631D01*
X9924467Y-16730631D02*
X9933991Y-16721108D01*
X9933991Y-16721108D02*
X9953039Y-16711584D01*
X10105420Y-16911584D02*
X10105420Y-16778250D01*
X10105420Y-16797298D02*
X10114944Y-16787774D01*
X10114944Y-16787774D02*
X10133991Y-16778250D01*
X10133991Y-16778250D02*
X10162563Y-16778250D01*
X10162563Y-16778250D02*
X10181610Y-16787774D01*
X10181610Y-16787774D02*
X10191134Y-16806822D01*
X10191134Y-16806822D02*
X10191134Y-16911584D01*
X10191134Y-16806822D02*
X10200658Y-16787774D01*
X10200658Y-16787774D02*
X10219705Y-16778250D01*
X10219705Y-16778250D02*
X10248277Y-16778250D01*
X10248277Y-16778250D02*
X10267325Y-16787774D01*
X10267325Y-16787774D02*
X10276848Y-16806822D01*
X10276848Y-16806822D02*
X10276848Y-16911584D01*
X10372086Y-16911584D02*
X10372086Y-16778250D01*
X10372086Y-16797298D02*
X10381610Y-16787774D01*
X10381610Y-16787774D02*
X10400658Y-16778250D01*
X10400658Y-16778250D02*
X10429229Y-16778250D01*
X10429229Y-16778250D02*
X10448277Y-16787774D01*
X10448277Y-16787774D02*
X10457801Y-16806822D01*
X10457801Y-16806822D02*
X10457801Y-16911584D01*
X10457801Y-16806822D02*
X10467325Y-16787774D01*
X10467325Y-16787774D02*
X10486372Y-16778250D01*
X10486372Y-16778250D02*
X10514944Y-16778250D01*
X10514944Y-16778250D02*
X10533991Y-16787774D01*
X10533991Y-16787774D02*
X10543515Y-16806822D01*
X10543515Y-16806822D02*
X10543515Y-16911584D01*
X10933991Y-16702060D02*
X10762563Y-16959203D01*
X11191134Y-16711584D02*
X11210182Y-16711584D01*
X11210182Y-16711584D02*
X11229229Y-16721108D01*
X11229229Y-16721108D02*
X11238753Y-16730631D01*
X11238753Y-16730631D02*
X11248277Y-16749679D01*
X11248277Y-16749679D02*
X11257801Y-16787774D01*
X11257801Y-16787774D02*
X11257801Y-16835393D01*
X11257801Y-16835393D02*
X11248277Y-16873489D01*
X11248277Y-16873489D02*
X11238753Y-16892536D01*
X11238753Y-16892536D02*
X11229229Y-16902060D01*
X11229229Y-16902060D02*
X11210182Y-16911584D01*
X11210182Y-16911584D02*
X11191134Y-16911584D01*
X11191134Y-16911584D02*
X11172087Y-16902060D01*
X11172087Y-16902060D02*
X11162563Y-16892536D01*
X11162563Y-16892536D02*
X11153039Y-16873489D01*
X11153039Y-16873489D02*
X11143515Y-16835393D01*
X11143515Y-16835393D02*
X11143515Y-16787774D01*
X11143515Y-16787774D02*
X11153039Y-16749679D01*
X11153039Y-16749679D02*
X11162563Y-16730631D01*
X11162563Y-16730631D02*
X11172087Y-16721108D01*
X11172087Y-16721108D02*
X11191134Y-16711584D01*
X11343515Y-16892536D02*
X11353039Y-16902060D01*
X11353039Y-16902060D02*
X11343515Y-16911584D01*
X11343515Y-16911584D02*
X11333991Y-16902060D01*
X11333991Y-16902060D02*
X11343515Y-16892536D01*
X11343515Y-16892536D02*
X11343515Y-16911584D01*
X11476848Y-16711584D02*
X11495896Y-16711584D01*
X11495896Y-16711584D02*
X11514944Y-16721108D01*
X11514944Y-16721108D02*
X11524467Y-16730631D01*
X11524467Y-16730631D02*
X11533991Y-16749679D01*
X11533991Y-16749679D02*
X11543515Y-16787774D01*
X11543515Y-16787774D02*
X11543515Y-16835393D01*
X11543515Y-16835393D02*
X11533991Y-16873489D01*
X11533991Y-16873489D02*
X11524467Y-16892536D01*
X11524467Y-16892536D02*
X11514944Y-16902060D01*
X11514944Y-16902060D02*
X11495896Y-16911584D01*
X11495896Y-16911584D02*
X11476848Y-16911584D01*
X11476848Y-16911584D02*
X11457801Y-16902060D01*
X11457801Y-16902060D02*
X11448277Y-16892536D01*
X11448277Y-16892536D02*
X11438753Y-16873489D01*
X11438753Y-16873489D02*
X11429229Y-16835393D01*
X11429229Y-16835393D02*
X11429229Y-16787774D01*
X11429229Y-16787774D02*
X11438753Y-16749679D01*
X11438753Y-16749679D02*
X11448277Y-16730631D01*
X11448277Y-16730631D02*
X11457801Y-16721108D01*
X11457801Y-16721108D02*
X11476848Y-16711584D01*
X11724467Y-16711584D02*
X11629229Y-16711584D01*
X11629229Y-16711584D02*
X11619706Y-16806822D01*
X11619706Y-16806822D02*
X11629229Y-16797298D01*
X11629229Y-16797298D02*
X11648277Y-16787774D01*
X11648277Y-16787774D02*
X11695896Y-16787774D01*
X11695896Y-16787774D02*
X11714944Y-16797298D01*
X11714944Y-16797298D02*
X11724467Y-16806822D01*
X11724467Y-16806822D02*
X11733991Y-16825870D01*
X11733991Y-16825870D02*
X11733991Y-16873489D01*
X11733991Y-16873489D02*
X11724467Y-16892536D01*
X11724467Y-16892536D02*
X11714944Y-16902060D01*
X11714944Y-16902060D02*
X11695896Y-16911584D01*
X11695896Y-16911584D02*
X11648277Y-16911584D01*
X11648277Y-16911584D02*
X11629229Y-16902060D01*
X11629229Y-16902060D02*
X11619706Y-16892536D01*
X11924467Y-16911584D02*
X11810182Y-16911584D01*
X11867325Y-16911584D02*
X11867325Y-16711584D01*
X11867325Y-16711584D02*
X11848277Y-16740155D01*
X11848277Y-16740155D02*
X11829229Y-16759203D01*
X11829229Y-16759203D02*
X11810182Y-16768727D01*
X12000658Y-16730631D02*
X12010182Y-16721108D01*
X12010182Y-16721108D02*
X12029229Y-16711584D01*
X12029229Y-16711584D02*
X12076848Y-16711584D01*
X12076848Y-16711584D02*
X12095896Y-16721108D01*
X12095896Y-16721108D02*
X12105420Y-16730631D01*
X12105420Y-16730631D02*
X12114944Y-16749679D01*
X12114944Y-16749679D02*
X12114944Y-16768727D01*
X12114944Y-16768727D02*
X12105420Y-16797298D01*
X12105420Y-16797298D02*
X11991134Y-16911584D01*
X11991134Y-16911584D02*
X12114944Y-16911584D01*
X12191134Y-16711584D02*
X12191134Y-16749679D01*
X12267325Y-16711584D02*
X12267325Y-16749679D01*
X12562563Y-16987774D02*
X12553039Y-16978250D01*
X12553039Y-16978250D02*
X12533991Y-16949679D01*
X12533991Y-16949679D02*
X12524468Y-16930631D01*
X12524468Y-16930631D02*
X12514944Y-16902060D01*
X12514944Y-16902060D02*
X12505420Y-16854441D01*
X12505420Y-16854441D02*
X12505420Y-16816346D01*
X12505420Y-16816346D02*
X12514944Y-16768727D01*
X12514944Y-16768727D02*
X12524468Y-16740155D01*
X12524468Y-16740155D02*
X12533991Y-16721108D01*
X12533991Y-16721108D02*
X12553039Y-16692536D01*
X12553039Y-16692536D02*
X12562563Y-16683012D01*
X12743515Y-16911584D02*
X12629229Y-16911584D01*
X12686372Y-16911584D02*
X12686372Y-16711584D01*
X12686372Y-16711584D02*
X12667325Y-16740155D01*
X12667325Y-16740155D02*
X12648277Y-16759203D01*
X12648277Y-16759203D02*
X12629229Y-16768727D01*
X12924468Y-16711584D02*
X12829229Y-16711584D01*
X12829229Y-16711584D02*
X12819706Y-16806822D01*
X12819706Y-16806822D02*
X12829229Y-16797298D01*
X12829229Y-16797298D02*
X12848277Y-16787774D01*
X12848277Y-16787774D02*
X12895896Y-16787774D01*
X12895896Y-16787774D02*
X12914944Y-16797298D01*
X12914944Y-16797298D02*
X12924468Y-16806822D01*
X12924468Y-16806822D02*
X12933991Y-16825870D01*
X12933991Y-16825870D02*
X12933991Y-16873489D01*
X12933991Y-16873489D02*
X12924468Y-16892536D01*
X12924468Y-16892536D02*
X12914944Y-16902060D01*
X12914944Y-16902060D02*
X12895896Y-16911584D01*
X12895896Y-16911584D02*
X12848277Y-16911584D01*
X12848277Y-16911584D02*
X12829229Y-16902060D01*
X12829229Y-16902060D02*
X12819706Y-16892536D01*
X13172087Y-16911584D02*
X13172087Y-16711584D01*
X13257801Y-16911584D02*
X13257801Y-16806822D01*
X13257801Y-16806822D02*
X13248277Y-16787774D01*
X13248277Y-16787774D02*
X13229230Y-16778250D01*
X13229230Y-16778250D02*
X13200658Y-16778250D01*
X13200658Y-16778250D02*
X13181610Y-16787774D01*
X13181610Y-16787774D02*
X13172087Y-16797298D01*
X13381610Y-16911584D02*
X13362563Y-16902060D01*
X13362563Y-16902060D02*
X13353039Y-16892536D01*
X13353039Y-16892536D02*
X13343515Y-16873489D01*
X13343515Y-16873489D02*
X13343515Y-16816346D01*
X13343515Y-16816346D02*
X13353039Y-16797298D01*
X13353039Y-16797298D02*
X13362563Y-16787774D01*
X13362563Y-16787774D02*
X13381610Y-16778250D01*
X13381610Y-16778250D02*
X13410182Y-16778250D01*
X13410182Y-16778250D02*
X13429230Y-16787774D01*
X13429230Y-16787774D02*
X13438753Y-16797298D01*
X13438753Y-16797298D02*
X13448277Y-16816346D01*
X13448277Y-16816346D02*
X13448277Y-16873489D01*
X13448277Y-16873489D02*
X13438753Y-16892536D01*
X13438753Y-16892536D02*
X13429230Y-16902060D01*
X13429230Y-16902060D02*
X13410182Y-16911584D01*
X13410182Y-16911584D02*
X13381610Y-16911584D01*
X13562563Y-16911584D02*
X13543515Y-16902060D01*
X13543515Y-16902060D02*
X13533991Y-16883012D01*
X13533991Y-16883012D02*
X13533991Y-16711584D01*
X13714944Y-16902060D02*
X13695896Y-16911584D01*
X13695896Y-16911584D02*
X13657801Y-16911584D01*
X13657801Y-16911584D02*
X13638753Y-16902060D01*
X13638753Y-16902060D02*
X13629230Y-16883012D01*
X13629230Y-16883012D02*
X13629230Y-16806822D01*
X13629230Y-16806822D02*
X13638753Y-16787774D01*
X13638753Y-16787774D02*
X13657801Y-16778250D01*
X13657801Y-16778250D02*
X13695896Y-16778250D01*
X13695896Y-16778250D02*
X13714944Y-16787774D01*
X13714944Y-16787774D02*
X13724468Y-16806822D01*
X13724468Y-16806822D02*
X13724468Y-16825870D01*
X13724468Y-16825870D02*
X13629230Y-16844917D01*
X13800658Y-16902060D02*
X13819706Y-16911584D01*
X13819706Y-16911584D02*
X13857801Y-16911584D01*
X13857801Y-16911584D02*
X13876849Y-16902060D01*
X13876849Y-16902060D02*
X13886372Y-16883012D01*
X13886372Y-16883012D02*
X13886372Y-16873489D01*
X13886372Y-16873489D02*
X13876849Y-16854441D01*
X13876849Y-16854441D02*
X13857801Y-16844917D01*
X13857801Y-16844917D02*
X13829230Y-16844917D01*
X13829230Y-16844917D02*
X13810182Y-16835393D01*
X13810182Y-16835393D02*
X13800658Y-16816346D01*
X13800658Y-16816346D02*
X13800658Y-16806822D01*
X13800658Y-16806822D02*
X13810182Y-16787774D01*
X13810182Y-16787774D02*
X13829230Y-16778250D01*
X13829230Y-16778250D02*
X13857801Y-16778250D01*
X13857801Y-16778250D02*
X13876849Y-16787774D01*
X13953039Y-16987774D02*
X13962563Y-16978250D01*
X13962563Y-16978250D02*
X13981611Y-16949679D01*
X13981611Y-16949679D02*
X13991134Y-16930631D01*
X13991134Y-16930631D02*
X14000658Y-16902060D01*
X14000658Y-16902060D02*
X14010182Y-16854441D01*
X14010182Y-16854441D02*
X14010182Y-16816346D01*
X14010182Y-16816346D02*
X14000658Y-16768727D01*
X14000658Y-16768727D02*
X13991134Y-16740155D01*
X13991134Y-16740155D02*
X13981611Y-16721108D01*
X13981611Y-16721108D02*
X13962563Y-16692536D01*
X13962563Y-16692536D02*
X13953039Y-16683012D01*
D16*
X8907500Y-17004100D02*
X8907500Y-17164100D01*
X8827500Y-17084100D02*
X8987500Y-17084100D01*
X8987500Y-17084100D02*
G75*
G02*
X8827500Y-17084100I-80000J0D01*
G01*
X8827500Y-17084100D02*
G75*
G02*
X8987500Y-17084100I80000J0D01*
G01*
D11*
X9353039Y-17175584D02*
X9238753Y-17175584D01*
X9295896Y-17175584D02*
X9295896Y-16975584D01*
X9295896Y-16975584D02*
X9276848Y-17004155D01*
X9276848Y-17004155D02*
X9257801Y-17023203D01*
X9257801Y-17023203D02*
X9238753Y-17032727D01*
X9438753Y-17156536D02*
X9448277Y-17166060D01*
X9448277Y-17166060D02*
X9438753Y-17175584D01*
X9438753Y-17175584D02*
X9429229Y-17166060D01*
X9429229Y-17166060D02*
X9438753Y-17156536D01*
X9438753Y-17156536D02*
X9438753Y-17175584D01*
X9619705Y-16975584D02*
X9581610Y-16975584D01*
X9581610Y-16975584D02*
X9562563Y-16985108D01*
X9562563Y-16985108D02*
X9553039Y-16994631D01*
X9553039Y-16994631D02*
X9533991Y-17023203D01*
X9533991Y-17023203D02*
X9524467Y-17061298D01*
X9524467Y-17061298D02*
X9524467Y-17137489D01*
X9524467Y-17137489D02*
X9533991Y-17156536D01*
X9533991Y-17156536D02*
X9543515Y-17166060D01*
X9543515Y-17166060D02*
X9562563Y-17175584D01*
X9562563Y-17175584D02*
X9600658Y-17175584D01*
X9600658Y-17175584D02*
X9619705Y-17166060D01*
X9619705Y-17166060D02*
X9629229Y-17156536D01*
X9629229Y-17156536D02*
X9638753Y-17137489D01*
X9638753Y-17137489D02*
X9638753Y-17089870D01*
X9638753Y-17089870D02*
X9629229Y-17070822D01*
X9629229Y-17070822D02*
X9619705Y-17061298D01*
X9619705Y-17061298D02*
X9600658Y-17051774D01*
X9600658Y-17051774D02*
X9562563Y-17051774D01*
X9562563Y-17051774D02*
X9543515Y-17061298D01*
X9543515Y-17061298D02*
X9533991Y-17070822D01*
X9533991Y-17070822D02*
X9524467Y-17089870D01*
X9762563Y-16975584D02*
X9781610Y-16975584D01*
X9781610Y-16975584D02*
X9800658Y-16985108D01*
X9800658Y-16985108D02*
X9810182Y-16994631D01*
X9810182Y-16994631D02*
X9819705Y-17013679D01*
X9819705Y-17013679D02*
X9829229Y-17051774D01*
X9829229Y-17051774D02*
X9829229Y-17099393D01*
X9829229Y-17099393D02*
X9819705Y-17137489D01*
X9819705Y-17137489D02*
X9810182Y-17156536D01*
X9810182Y-17156536D02*
X9800658Y-17166060D01*
X9800658Y-17166060D02*
X9781610Y-17175584D01*
X9781610Y-17175584D02*
X9762563Y-17175584D01*
X9762563Y-17175584D02*
X9743515Y-17166060D01*
X9743515Y-17166060D02*
X9733991Y-17156536D01*
X9733991Y-17156536D02*
X9724467Y-17137489D01*
X9724467Y-17137489D02*
X9714944Y-17099393D01*
X9714944Y-17099393D02*
X9714944Y-17051774D01*
X9714944Y-17051774D02*
X9724467Y-17013679D01*
X9724467Y-17013679D02*
X9733991Y-16994631D01*
X9733991Y-16994631D02*
X9743515Y-16985108D01*
X9743515Y-16985108D02*
X9762563Y-16975584D01*
X9953039Y-16975584D02*
X9972086Y-16975584D01*
X9972086Y-16975584D02*
X9991134Y-16985108D01*
X9991134Y-16985108D02*
X10000658Y-16994631D01*
X10000658Y-16994631D02*
X10010182Y-17013679D01*
X10010182Y-17013679D02*
X10019705Y-17051774D01*
X10019705Y-17051774D02*
X10019705Y-17099393D01*
X10019705Y-17099393D02*
X10010182Y-17137489D01*
X10010182Y-17137489D02*
X10000658Y-17156536D01*
X10000658Y-17156536D02*
X9991134Y-17166060D01*
X9991134Y-17166060D02*
X9972086Y-17175584D01*
X9972086Y-17175584D02*
X9953039Y-17175584D01*
X9953039Y-17175584D02*
X9933991Y-17166060D01*
X9933991Y-17166060D02*
X9924467Y-17156536D01*
X9924467Y-17156536D02*
X9914944Y-17137489D01*
X9914944Y-17137489D02*
X9905420Y-17099393D01*
X9905420Y-17099393D02*
X9905420Y-17051774D01*
X9905420Y-17051774D02*
X9914944Y-17013679D01*
X9914944Y-17013679D02*
X9924467Y-16994631D01*
X9924467Y-16994631D02*
X9933991Y-16985108D01*
X9933991Y-16985108D02*
X9953039Y-16975584D01*
X10105420Y-17175584D02*
X10105420Y-17042250D01*
X10105420Y-17061298D02*
X10114944Y-17051774D01*
X10114944Y-17051774D02*
X10133991Y-17042250D01*
X10133991Y-17042250D02*
X10162563Y-17042250D01*
X10162563Y-17042250D02*
X10181610Y-17051774D01*
X10181610Y-17051774D02*
X10191134Y-17070822D01*
X10191134Y-17070822D02*
X10191134Y-17175584D01*
X10191134Y-17070822D02*
X10200658Y-17051774D01*
X10200658Y-17051774D02*
X10219705Y-17042250D01*
X10219705Y-17042250D02*
X10248277Y-17042250D01*
X10248277Y-17042250D02*
X10267325Y-17051774D01*
X10267325Y-17051774D02*
X10276848Y-17070822D01*
X10276848Y-17070822D02*
X10276848Y-17175584D01*
X10372086Y-17175584D02*
X10372086Y-17042250D01*
X10372086Y-17061298D02*
X10381610Y-17051774D01*
X10381610Y-17051774D02*
X10400658Y-17042250D01*
X10400658Y-17042250D02*
X10429229Y-17042250D01*
X10429229Y-17042250D02*
X10448277Y-17051774D01*
X10448277Y-17051774D02*
X10457801Y-17070822D01*
X10457801Y-17070822D02*
X10457801Y-17175584D01*
X10457801Y-17070822D02*
X10467325Y-17051774D01*
X10467325Y-17051774D02*
X10486372Y-17042250D01*
X10486372Y-17042250D02*
X10514944Y-17042250D01*
X10514944Y-17042250D02*
X10533991Y-17051774D01*
X10533991Y-17051774D02*
X10543515Y-17070822D01*
X10543515Y-17070822D02*
X10543515Y-17175584D01*
X10933991Y-16966060D02*
X10762563Y-17223203D01*
X11191134Y-16975584D02*
X11210182Y-16975584D01*
X11210182Y-16975584D02*
X11229229Y-16985108D01*
X11229229Y-16985108D02*
X11238753Y-16994631D01*
X11238753Y-16994631D02*
X11248277Y-17013679D01*
X11248277Y-17013679D02*
X11257801Y-17051774D01*
X11257801Y-17051774D02*
X11257801Y-17099393D01*
X11257801Y-17099393D02*
X11248277Y-17137489D01*
X11248277Y-17137489D02*
X11238753Y-17156536D01*
X11238753Y-17156536D02*
X11229229Y-17166060D01*
X11229229Y-17166060D02*
X11210182Y-17175584D01*
X11210182Y-17175584D02*
X11191134Y-17175584D01*
X11191134Y-17175584D02*
X11172087Y-17166060D01*
X11172087Y-17166060D02*
X11162563Y-17156536D01*
X11162563Y-17156536D02*
X11153039Y-17137489D01*
X11153039Y-17137489D02*
X11143515Y-17099393D01*
X11143515Y-17099393D02*
X11143515Y-17051774D01*
X11143515Y-17051774D02*
X11153039Y-17013679D01*
X11153039Y-17013679D02*
X11162563Y-16994631D01*
X11162563Y-16994631D02*
X11172087Y-16985108D01*
X11172087Y-16985108D02*
X11191134Y-16975584D01*
X11343515Y-17156536D02*
X11353039Y-17166060D01*
X11353039Y-17166060D02*
X11343515Y-17175584D01*
X11343515Y-17175584D02*
X11333991Y-17166060D01*
X11333991Y-17166060D02*
X11343515Y-17156536D01*
X11343515Y-17156536D02*
X11343515Y-17175584D01*
X11476848Y-16975584D02*
X11495896Y-16975584D01*
X11495896Y-16975584D02*
X11514944Y-16985108D01*
X11514944Y-16985108D02*
X11524467Y-16994631D01*
X11524467Y-16994631D02*
X11533991Y-17013679D01*
X11533991Y-17013679D02*
X11543515Y-17051774D01*
X11543515Y-17051774D02*
X11543515Y-17099393D01*
X11543515Y-17099393D02*
X11533991Y-17137489D01*
X11533991Y-17137489D02*
X11524467Y-17156536D01*
X11524467Y-17156536D02*
X11514944Y-17166060D01*
X11514944Y-17166060D02*
X11495896Y-17175584D01*
X11495896Y-17175584D02*
X11476848Y-17175584D01*
X11476848Y-17175584D02*
X11457801Y-17166060D01*
X11457801Y-17166060D02*
X11448277Y-17156536D01*
X11448277Y-17156536D02*
X11438753Y-17137489D01*
X11438753Y-17137489D02*
X11429229Y-17099393D01*
X11429229Y-17099393D02*
X11429229Y-17051774D01*
X11429229Y-17051774D02*
X11438753Y-17013679D01*
X11438753Y-17013679D02*
X11448277Y-16994631D01*
X11448277Y-16994631D02*
X11457801Y-16985108D01*
X11457801Y-16985108D02*
X11476848Y-16975584D01*
X11714944Y-16975584D02*
X11676848Y-16975584D01*
X11676848Y-16975584D02*
X11657801Y-16985108D01*
X11657801Y-16985108D02*
X11648277Y-16994631D01*
X11648277Y-16994631D02*
X11629229Y-17023203D01*
X11629229Y-17023203D02*
X11619706Y-17061298D01*
X11619706Y-17061298D02*
X11619706Y-17137489D01*
X11619706Y-17137489D02*
X11629229Y-17156536D01*
X11629229Y-17156536D02*
X11638753Y-17166060D01*
X11638753Y-17166060D02*
X11657801Y-17175584D01*
X11657801Y-17175584D02*
X11695896Y-17175584D01*
X11695896Y-17175584D02*
X11714944Y-17166060D01*
X11714944Y-17166060D02*
X11724467Y-17156536D01*
X11724467Y-17156536D02*
X11733991Y-17137489D01*
X11733991Y-17137489D02*
X11733991Y-17089870D01*
X11733991Y-17089870D02*
X11724467Y-17070822D01*
X11724467Y-17070822D02*
X11714944Y-17061298D01*
X11714944Y-17061298D02*
X11695896Y-17051774D01*
X11695896Y-17051774D02*
X11657801Y-17051774D01*
X11657801Y-17051774D02*
X11638753Y-17061298D01*
X11638753Y-17061298D02*
X11629229Y-17070822D01*
X11629229Y-17070822D02*
X11619706Y-17089870D01*
X11800658Y-16975584D02*
X11924467Y-16975584D01*
X11924467Y-16975584D02*
X11857801Y-17051774D01*
X11857801Y-17051774D02*
X11886372Y-17051774D01*
X11886372Y-17051774D02*
X11905420Y-17061298D01*
X11905420Y-17061298D02*
X11914944Y-17070822D01*
X11914944Y-17070822D02*
X11924467Y-17089870D01*
X11924467Y-17089870D02*
X11924467Y-17137489D01*
X11924467Y-17137489D02*
X11914944Y-17156536D01*
X11914944Y-17156536D02*
X11905420Y-17166060D01*
X11905420Y-17166060D02*
X11886372Y-17175584D01*
X11886372Y-17175584D02*
X11829229Y-17175584D01*
X11829229Y-17175584D02*
X11810182Y-17166060D01*
X11810182Y-17166060D02*
X11800658Y-17156536D01*
X12048277Y-16975584D02*
X12067325Y-16975584D01*
X12067325Y-16975584D02*
X12086372Y-16985108D01*
X12086372Y-16985108D02*
X12095896Y-16994631D01*
X12095896Y-16994631D02*
X12105420Y-17013679D01*
X12105420Y-17013679D02*
X12114944Y-17051774D01*
X12114944Y-17051774D02*
X12114944Y-17099393D01*
X12114944Y-17099393D02*
X12105420Y-17137489D01*
X12105420Y-17137489D02*
X12095896Y-17156536D01*
X12095896Y-17156536D02*
X12086372Y-17166060D01*
X12086372Y-17166060D02*
X12067325Y-17175584D01*
X12067325Y-17175584D02*
X12048277Y-17175584D01*
X12048277Y-17175584D02*
X12029229Y-17166060D01*
X12029229Y-17166060D02*
X12019706Y-17156536D01*
X12019706Y-17156536D02*
X12010182Y-17137489D01*
X12010182Y-17137489D02*
X12000658Y-17099393D01*
X12000658Y-17099393D02*
X12000658Y-17051774D01*
X12000658Y-17051774D02*
X12010182Y-17013679D01*
X12010182Y-17013679D02*
X12019706Y-16994631D01*
X12019706Y-16994631D02*
X12029229Y-16985108D01*
X12029229Y-16985108D02*
X12048277Y-16975584D01*
X12191134Y-16975584D02*
X12191134Y-17013679D01*
X12267325Y-16975584D02*
X12267325Y-17013679D01*
X12562563Y-17251774D02*
X12553039Y-17242250D01*
X12553039Y-17242250D02*
X12533991Y-17213679D01*
X12533991Y-17213679D02*
X12524468Y-17194631D01*
X12524468Y-17194631D02*
X12514944Y-17166060D01*
X12514944Y-17166060D02*
X12505420Y-17118441D01*
X12505420Y-17118441D02*
X12505420Y-17080346D01*
X12505420Y-17080346D02*
X12514944Y-17032727D01*
X12514944Y-17032727D02*
X12524468Y-17004155D01*
X12524468Y-17004155D02*
X12533991Y-16985108D01*
X12533991Y-16985108D02*
X12553039Y-16956536D01*
X12553039Y-16956536D02*
X12562563Y-16947012D01*
X12629229Y-16994631D02*
X12638753Y-16985108D01*
X12638753Y-16985108D02*
X12657801Y-16975584D01*
X12657801Y-16975584D02*
X12705420Y-16975584D01*
X12705420Y-16975584D02*
X12724468Y-16985108D01*
X12724468Y-16985108D02*
X12733991Y-16994631D01*
X12733991Y-16994631D02*
X12743515Y-17013679D01*
X12743515Y-17013679D02*
X12743515Y-17032727D01*
X12743515Y-17032727D02*
X12733991Y-17061298D01*
X12733991Y-17061298D02*
X12619706Y-17175584D01*
X12619706Y-17175584D02*
X12743515Y-17175584D01*
X12981610Y-17175584D02*
X12981610Y-16975584D01*
X13067325Y-17175584D02*
X13067325Y-17070822D01*
X13067325Y-17070822D02*
X13057801Y-17051774D01*
X13057801Y-17051774D02*
X13038753Y-17042250D01*
X13038753Y-17042250D02*
X13010182Y-17042250D01*
X13010182Y-17042250D02*
X12991134Y-17051774D01*
X12991134Y-17051774D02*
X12981610Y-17061298D01*
X13191134Y-17175584D02*
X13172087Y-17166060D01*
X13172087Y-17166060D02*
X13162563Y-17156536D01*
X13162563Y-17156536D02*
X13153039Y-17137489D01*
X13153039Y-17137489D02*
X13153039Y-17080346D01*
X13153039Y-17080346D02*
X13162563Y-17061298D01*
X13162563Y-17061298D02*
X13172087Y-17051774D01*
X13172087Y-17051774D02*
X13191134Y-17042250D01*
X13191134Y-17042250D02*
X13219706Y-17042250D01*
X13219706Y-17042250D02*
X13238753Y-17051774D01*
X13238753Y-17051774D02*
X13248277Y-17061298D01*
X13248277Y-17061298D02*
X13257801Y-17080346D01*
X13257801Y-17080346D02*
X13257801Y-17137489D01*
X13257801Y-17137489D02*
X13248277Y-17156536D01*
X13248277Y-17156536D02*
X13238753Y-17166060D01*
X13238753Y-17166060D02*
X13219706Y-17175584D01*
X13219706Y-17175584D02*
X13191134Y-17175584D01*
X13372087Y-17175584D02*
X13353039Y-17166060D01*
X13353039Y-17166060D02*
X13343515Y-17147012D01*
X13343515Y-17147012D02*
X13343515Y-16975584D01*
X13524468Y-17166060D02*
X13505420Y-17175584D01*
X13505420Y-17175584D02*
X13467325Y-17175584D01*
X13467325Y-17175584D02*
X13448277Y-17166060D01*
X13448277Y-17166060D02*
X13438753Y-17147012D01*
X13438753Y-17147012D02*
X13438753Y-17070822D01*
X13438753Y-17070822D02*
X13448277Y-17051774D01*
X13448277Y-17051774D02*
X13467325Y-17042250D01*
X13467325Y-17042250D02*
X13505420Y-17042250D01*
X13505420Y-17042250D02*
X13524468Y-17051774D01*
X13524468Y-17051774D02*
X13533991Y-17070822D01*
X13533991Y-17070822D02*
X13533991Y-17089870D01*
X13533991Y-17089870D02*
X13438753Y-17108917D01*
X13610182Y-17166060D02*
X13629230Y-17175584D01*
X13629230Y-17175584D02*
X13667325Y-17175584D01*
X13667325Y-17175584D02*
X13686372Y-17166060D01*
X13686372Y-17166060D02*
X13695896Y-17147012D01*
X13695896Y-17147012D02*
X13695896Y-17137489D01*
X13695896Y-17137489D02*
X13686372Y-17118441D01*
X13686372Y-17118441D02*
X13667325Y-17108917D01*
X13667325Y-17108917D02*
X13638753Y-17108917D01*
X13638753Y-17108917D02*
X13619706Y-17099393D01*
X13619706Y-17099393D02*
X13610182Y-17080346D01*
X13610182Y-17080346D02*
X13610182Y-17070822D01*
X13610182Y-17070822D02*
X13619706Y-17051774D01*
X13619706Y-17051774D02*
X13638753Y-17042250D01*
X13638753Y-17042250D02*
X13667325Y-17042250D01*
X13667325Y-17042250D02*
X13686372Y-17051774D01*
X13762563Y-17251774D02*
X13772087Y-17242250D01*
X13772087Y-17242250D02*
X13791134Y-17213679D01*
X13791134Y-17213679D02*
X13800658Y-17194631D01*
X13800658Y-17194631D02*
X13810182Y-17166060D01*
X13810182Y-17166060D02*
X13819706Y-17118441D01*
X13819706Y-17118441D02*
X13819706Y-17080346D01*
X13819706Y-17080346D02*
X13810182Y-17032727D01*
X13810182Y-17032727D02*
X13800658Y-17004155D01*
X13800658Y-17004155D02*
X13791134Y-16985108D01*
X13791134Y-16985108D02*
X13772087Y-16956536D01*
X13772087Y-16956536D02*
X13762563Y-16947012D01*
X8958211Y-17434811D02*
X8958211Y-17293389D01*
X8816789Y-17293389D01*
X8816789Y-17434811D01*
X8958211Y-17434811D01*
X8987500Y-17364100D02*
G75*
G02*
X8787500Y-17364100I-100000J0D01*
G01*
X8787500Y-17364100D02*
G75*
G02*
X8987500Y-17364100I100000J0D01*
G01*
X9229229Y-17255584D02*
X9353039Y-17255584D01*
X9353039Y-17255584D02*
X9286372Y-17331774D01*
X9286372Y-17331774D02*
X9314944Y-17331774D01*
X9314944Y-17331774D02*
X9333991Y-17341298D01*
X9333991Y-17341298D02*
X9343515Y-17350822D01*
X9343515Y-17350822D02*
X9353039Y-17369870D01*
X9353039Y-17369870D02*
X9353039Y-17417489D01*
X9353039Y-17417489D02*
X9343515Y-17436536D01*
X9343515Y-17436536D02*
X9333991Y-17446060D01*
X9333991Y-17446060D02*
X9314944Y-17455584D01*
X9314944Y-17455584D02*
X9257801Y-17455584D01*
X9257801Y-17455584D02*
X9238753Y-17446060D01*
X9238753Y-17446060D02*
X9229229Y-17436536D01*
X9438753Y-17436536D02*
X9448277Y-17446060D01*
X9448277Y-17446060D02*
X9438753Y-17455584D01*
X9438753Y-17455584D02*
X9429229Y-17446060D01*
X9429229Y-17446060D02*
X9438753Y-17436536D01*
X9438753Y-17436536D02*
X9438753Y-17455584D01*
X9524467Y-17274631D02*
X9533991Y-17265108D01*
X9533991Y-17265108D02*
X9553039Y-17255584D01*
X9553039Y-17255584D02*
X9600658Y-17255584D01*
X9600658Y-17255584D02*
X9619705Y-17265108D01*
X9619705Y-17265108D02*
X9629229Y-17274631D01*
X9629229Y-17274631D02*
X9638753Y-17293679D01*
X9638753Y-17293679D02*
X9638753Y-17312727D01*
X9638753Y-17312727D02*
X9629229Y-17341298D01*
X9629229Y-17341298D02*
X9514944Y-17455584D01*
X9514944Y-17455584D02*
X9638753Y-17455584D01*
X9762563Y-17255584D02*
X9781610Y-17255584D01*
X9781610Y-17255584D02*
X9800658Y-17265108D01*
X9800658Y-17265108D02*
X9810182Y-17274631D01*
X9810182Y-17274631D02*
X9819705Y-17293679D01*
X9819705Y-17293679D02*
X9829229Y-17331774D01*
X9829229Y-17331774D02*
X9829229Y-17379393D01*
X9829229Y-17379393D02*
X9819705Y-17417489D01*
X9819705Y-17417489D02*
X9810182Y-17436536D01*
X9810182Y-17436536D02*
X9800658Y-17446060D01*
X9800658Y-17446060D02*
X9781610Y-17455584D01*
X9781610Y-17455584D02*
X9762563Y-17455584D01*
X9762563Y-17455584D02*
X9743515Y-17446060D01*
X9743515Y-17446060D02*
X9733991Y-17436536D01*
X9733991Y-17436536D02*
X9724467Y-17417489D01*
X9724467Y-17417489D02*
X9714944Y-17379393D01*
X9714944Y-17379393D02*
X9714944Y-17331774D01*
X9714944Y-17331774D02*
X9724467Y-17293679D01*
X9724467Y-17293679D02*
X9733991Y-17274631D01*
X9733991Y-17274631D02*
X9743515Y-17265108D01*
X9743515Y-17265108D02*
X9762563Y-17255584D01*
X9953039Y-17255584D02*
X9972086Y-17255584D01*
X9972086Y-17255584D02*
X9991134Y-17265108D01*
X9991134Y-17265108D02*
X10000658Y-17274631D01*
X10000658Y-17274631D02*
X10010182Y-17293679D01*
X10010182Y-17293679D02*
X10019705Y-17331774D01*
X10019705Y-17331774D02*
X10019705Y-17379393D01*
X10019705Y-17379393D02*
X10010182Y-17417489D01*
X10010182Y-17417489D02*
X10000658Y-17436536D01*
X10000658Y-17436536D02*
X9991134Y-17446060D01*
X9991134Y-17446060D02*
X9972086Y-17455584D01*
X9972086Y-17455584D02*
X9953039Y-17455584D01*
X9953039Y-17455584D02*
X9933991Y-17446060D01*
X9933991Y-17446060D02*
X9924467Y-17436536D01*
X9924467Y-17436536D02*
X9914944Y-17417489D01*
X9914944Y-17417489D02*
X9905420Y-17379393D01*
X9905420Y-17379393D02*
X9905420Y-17331774D01*
X9905420Y-17331774D02*
X9914944Y-17293679D01*
X9914944Y-17293679D02*
X9924467Y-17274631D01*
X9924467Y-17274631D02*
X9933991Y-17265108D01*
X9933991Y-17265108D02*
X9953039Y-17255584D01*
X10105420Y-17455584D02*
X10105420Y-17322250D01*
X10105420Y-17341298D02*
X10114944Y-17331774D01*
X10114944Y-17331774D02*
X10133991Y-17322250D01*
X10133991Y-17322250D02*
X10162563Y-17322250D01*
X10162563Y-17322250D02*
X10181610Y-17331774D01*
X10181610Y-17331774D02*
X10191134Y-17350822D01*
X10191134Y-17350822D02*
X10191134Y-17455584D01*
X10191134Y-17350822D02*
X10200658Y-17331774D01*
X10200658Y-17331774D02*
X10219705Y-17322250D01*
X10219705Y-17322250D02*
X10248277Y-17322250D01*
X10248277Y-17322250D02*
X10267325Y-17331774D01*
X10267325Y-17331774D02*
X10276848Y-17350822D01*
X10276848Y-17350822D02*
X10276848Y-17455584D01*
X10372086Y-17455584D02*
X10372086Y-17322250D01*
X10372086Y-17341298D02*
X10381610Y-17331774D01*
X10381610Y-17331774D02*
X10400658Y-17322250D01*
X10400658Y-17322250D02*
X10429229Y-17322250D01*
X10429229Y-17322250D02*
X10448277Y-17331774D01*
X10448277Y-17331774D02*
X10457801Y-17350822D01*
X10457801Y-17350822D02*
X10457801Y-17455584D01*
X10457801Y-17350822D02*
X10467325Y-17331774D01*
X10467325Y-17331774D02*
X10486372Y-17322250D01*
X10486372Y-17322250D02*
X10514944Y-17322250D01*
X10514944Y-17322250D02*
X10533991Y-17331774D01*
X10533991Y-17331774D02*
X10543515Y-17350822D01*
X10543515Y-17350822D02*
X10543515Y-17455584D01*
X10933991Y-17246060D02*
X10762563Y-17503203D01*
X11191134Y-17255584D02*
X11210182Y-17255584D01*
X11210182Y-17255584D02*
X11229229Y-17265108D01*
X11229229Y-17265108D02*
X11238753Y-17274631D01*
X11238753Y-17274631D02*
X11248277Y-17293679D01*
X11248277Y-17293679D02*
X11257801Y-17331774D01*
X11257801Y-17331774D02*
X11257801Y-17379393D01*
X11257801Y-17379393D02*
X11248277Y-17417489D01*
X11248277Y-17417489D02*
X11238753Y-17436536D01*
X11238753Y-17436536D02*
X11229229Y-17446060D01*
X11229229Y-17446060D02*
X11210182Y-17455584D01*
X11210182Y-17455584D02*
X11191134Y-17455584D01*
X11191134Y-17455584D02*
X11172087Y-17446060D01*
X11172087Y-17446060D02*
X11162563Y-17436536D01*
X11162563Y-17436536D02*
X11153039Y-17417489D01*
X11153039Y-17417489D02*
X11143515Y-17379393D01*
X11143515Y-17379393D02*
X11143515Y-17331774D01*
X11143515Y-17331774D02*
X11153039Y-17293679D01*
X11153039Y-17293679D02*
X11162563Y-17274631D01*
X11162563Y-17274631D02*
X11172087Y-17265108D01*
X11172087Y-17265108D02*
X11191134Y-17255584D01*
X11343515Y-17436536D02*
X11353039Y-17446060D01*
X11353039Y-17446060D02*
X11343515Y-17455584D01*
X11343515Y-17455584D02*
X11333991Y-17446060D01*
X11333991Y-17446060D02*
X11343515Y-17436536D01*
X11343515Y-17436536D02*
X11343515Y-17455584D01*
X11543515Y-17455584D02*
X11429229Y-17455584D01*
X11486372Y-17455584D02*
X11486372Y-17255584D01*
X11486372Y-17255584D02*
X11467325Y-17284155D01*
X11467325Y-17284155D02*
X11448277Y-17303203D01*
X11448277Y-17303203D02*
X11429229Y-17312727D01*
X11619706Y-17274631D02*
X11629229Y-17265108D01*
X11629229Y-17265108D02*
X11648277Y-17255584D01*
X11648277Y-17255584D02*
X11695896Y-17255584D01*
X11695896Y-17255584D02*
X11714944Y-17265108D01*
X11714944Y-17265108D02*
X11724467Y-17274631D01*
X11724467Y-17274631D02*
X11733991Y-17293679D01*
X11733991Y-17293679D02*
X11733991Y-17312727D01*
X11733991Y-17312727D02*
X11724467Y-17341298D01*
X11724467Y-17341298D02*
X11610182Y-17455584D01*
X11610182Y-17455584D02*
X11733991Y-17455584D01*
X11905420Y-17255584D02*
X11867325Y-17255584D01*
X11867325Y-17255584D02*
X11848277Y-17265108D01*
X11848277Y-17265108D02*
X11838753Y-17274631D01*
X11838753Y-17274631D02*
X11819706Y-17303203D01*
X11819706Y-17303203D02*
X11810182Y-17341298D01*
X11810182Y-17341298D02*
X11810182Y-17417489D01*
X11810182Y-17417489D02*
X11819706Y-17436536D01*
X11819706Y-17436536D02*
X11829229Y-17446060D01*
X11829229Y-17446060D02*
X11848277Y-17455584D01*
X11848277Y-17455584D02*
X11886372Y-17455584D01*
X11886372Y-17455584D02*
X11905420Y-17446060D01*
X11905420Y-17446060D02*
X11914944Y-17436536D01*
X11914944Y-17436536D02*
X11924467Y-17417489D01*
X11924467Y-17417489D02*
X11924467Y-17369870D01*
X11924467Y-17369870D02*
X11914944Y-17350822D01*
X11914944Y-17350822D02*
X11905420Y-17341298D01*
X11905420Y-17341298D02*
X11886372Y-17331774D01*
X11886372Y-17331774D02*
X11848277Y-17331774D01*
X11848277Y-17331774D02*
X11829229Y-17341298D01*
X11829229Y-17341298D02*
X11819706Y-17350822D01*
X11819706Y-17350822D02*
X11810182Y-17369870D01*
X12048277Y-17255584D02*
X12067325Y-17255584D01*
X12067325Y-17255584D02*
X12086372Y-17265108D01*
X12086372Y-17265108D02*
X12095896Y-17274631D01*
X12095896Y-17274631D02*
X12105420Y-17293679D01*
X12105420Y-17293679D02*
X12114944Y-17331774D01*
X12114944Y-17331774D02*
X12114944Y-17379393D01*
X12114944Y-17379393D02*
X12105420Y-17417489D01*
X12105420Y-17417489D02*
X12095896Y-17436536D01*
X12095896Y-17436536D02*
X12086372Y-17446060D01*
X12086372Y-17446060D02*
X12067325Y-17455584D01*
X12067325Y-17455584D02*
X12048277Y-17455584D01*
X12048277Y-17455584D02*
X12029229Y-17446060D01*
X12029229Y-17446060D02*
X12019706Y-17436536D01*
X12019706Y-17436536D02*
X12010182Y-17417489D01*
X12010182Y-17417489D02*
X12000658Y-17379393D01*
X12000658Y-17379393D02*
X12000658Y-17331774D01*
X12000658Y-17331774D02*
X12010182Y-17293679D01*
X12010182Y-17293679D02*
X12019706Y-17274631D01*
X12019706Y-17274631D02*
X12029229Y-17265108D01*
X12029229Y-17265108D02*
X12048277Y-17255584D01*
X12191134Y-17255584D02*
X12191134Y-17293679D01*
X12267325Y-17255584D02*
X12267325Y-17293679D01*
X12562563Y-17531774D02*
X12553039Y-17522250D01*
X12553039Y-17522250D02*
X12533991Y-17493679D01*
X12533991Y-17493679D02*
X12524468Y-17474631D01*
X12524468Y-17474631D02*
X12514944Y-17446060D01*
X12514944Y-17446060D02*
X12505420Y-17398441D01*
X12505420Y-17398441D02*
X12505420Y-17360346D01*
X12505420Y-17360346D02*
X12514944Y-17312727D01*
X12514944Y-17312727D02*
X12524468Y-17284155D01*
X12524468Y-17284155D02*
X12533991Y-17265108D01*
X12533991Y-17265108D02*
X12553039Y-17236536D01*
X12553039Y-17236536D02*
X12562563Y-17227012D01*
X12724468Y-17322250D02*
X12724468Y-17455584D01*
X12676848Y-17246060D02*
X12629229Y-17388917D01*
X12629229Y-17388917D02*
X12753039Y-17388917D01*
X12981610Y-17455584D02*
X12981610Y-17255584D01*
X13067325Y-17455584D02*
X13067325Y-17350822D01*
X13067325Y-17350822D02*
X13057801Y-17331774D01*
X13057801Y-17331774D02*
X13038753Y-17322250D01*
X13038753Y-17322250D02*
X13010182Y-17322250D01*
X13010182Y-17322250D02*
X12991134Y-17331774D01*
X12991134Y-17331774D02*
X12981610Y-17341298D01*
X13191134Y-17455584D02*
X13172087Y-17446060D01*
X13172087Y-17446060D02*
X13162563Y-17436536D01*
X13162563Y-17436536D02*
X13153039Y-17417489D01*
X13153039Y-17417489D02*
X13153039Y-17360346D01*
X13153039Y-17360346D02*
X13162563Y-17341298D01*
X13162563Y-17341298D02*
X13172087Y-17331774D01*
X13172087Y-17331774D02*
X13191134Y-17322250D01*
X13191134Y-17322250D02*
X13219706Y-17322250D01*
X13219706Y-17322250D02*
X13238753Y-17331774D01*
X13238753Y-17331774D02*
X13248277Y-17341298D01*
X13248277Y-17341298D02*
X13257801Y-17360346D01*
X13257801Y-17360346D02*
X13257801Y-17417489D01*
X13257801Y-17417489D02*
X13248277Y-17436536D01*
X13248277Y-17436536D02*
X13238753Y-17446060D01*
X13238753Y-17446060D02*
X13219706Y-17455584D01*
X13219706Y-17455584D02*
X13191134Y-17455584D01*
X13372087Y-17455584D02*
X13353039Y-17446060D01*
X13353039Y-17446060D02*
X13343515Y-17427012D01*
X13343515Y-17427012D02*
X13343515Y-17255584D01*
X13524468Y-17446060D02*
X13505420Y-17455584D01*
X13505420Y-17455584D02*
X13467325Y-17455584D01*
X13467325Y-17455584D02*
X13448277Y-17446060D01*
X13448277Y-17446060D02*
X13438753Y-17427012D01*
X13438753Y-17427012D02*
X13438753Y-17350822D01*
X13438753Y-17350822D02*
X13448277Y-17331774D01*
X13448277Y-17331774D02*
X13467325Y-17322250D01*
X13467325Y-17322250D02*
X13505420Y-17322250D01*
X13505420Y-17322250D02*
X13524468Y-17331774D01*
X13524468Y-17331774D02*
X13533991Y-17350822D01*
X13533991Y-17350822D02*
X13533991Y-17369870D01*
X13533991Y-17369870D02*
X13438753Y-17388917D01*
X13610182Y-17446060D02*
X13629230Y-17455584D01*
X13629230Y-17455584D02*
X13667325Y-17455584D01*
X13667325Y-17455584D02*
X13686372Y-17446060D01*
X13686372Y-17446060D02*
X13695896Y-17427012D01*
X13695896Y-17427012D02*
X13695896Y-17417489D01*
X13695896Y-17417489D02*
X13686372Y-17398441D01*
X13686372Y-17398441D02*
X13667325Y-17388917D01*
X13667325Y-17388917D02*
X13638753Y-17388917D01*
X13638753Y-17388917D02*
X13619706Y-17379393D01*
X13619706Y-17379393D02*
X13610182Y-17360346D01*
X13610182Y-17360346D02*
X13610182Y-17350822D01*
X13610182Y-17350822D02*
X13619706Y-17331774D01*
X13619706Y-17331774D02*
X13638753Y-17322250D01*
X13638753Y-17322250D02*
X13667325Y-17322250D01*
X13667325Y-17322250D02*
X13686372Y-17331774D01*
X13762563Y-17531774D02*
X13772087Y-17522250D01*
X13772087Y-17522250D02*
X13791134Y-17493679D01*
X13791134Y-17493679D02*
X13800658Y-17474631D01*
X13800658Y-17474631D02*
X13810182Y-17446060D01*
X13810182Y-17446060D02*
X13819706Y-17398441D01*
X13819706Y-17398441D02*
X13819706Y-17360346D01*
X13819706Y-17360346D02*
X13810182Y-17312727D01*
X13810182Y-17312727D02*
X13800658Y-17284155D01*
X13800658Y-17284155D02*
X13791134Y-17265108D01*
X13791134Y-17265108D02*
X13772087Y-17236536D01*
X13772087Y-17236536D02*
X13762563Y-17227012D01*
M02*
