%TF.GenerationSoftware,KiCad,Pcbnew,8.0.1*%
%TF.CreationDate,2024-05-05T15:46:41-04:00*%
%TF.ProjectId,Main,4d61696e-2e6b-4696-9361-645f70636258,0*%
%TF.SameCoordinates,Original*%
%TF.FileFunction,Soldermask,Top*%
%TF.FilePolarity,Negative*%
%FSLAX46Y46*%
G04 Gerber Fmt 4.6, Leading zero omitted, Abs format (unit mm)*
G04 Created by KiCad (PCBNEW 8.0.1) date 2024-05-05 15:46:41*
%MOMM*%
%LPD*%
G01*
G04 APERTURE LIST*
G04 Aperture macros list*
%AMRoundRect*
0 Rectangle with rounded corners*
0 $1 Rounding radius*
0 $2 $3 $4 $5 $6 $7 $8 $9 X,Y pos of 4 corners*
0 Add a 4 corners polygon primitive as box body*
4,1,4,$2,$3,$4,$5,$6,$7,$8,$9,$2,$3,0*
0 Add four circle primitives for the rounded corners*
1,1,$1+$1,$2,$3*
1,1,$1+$1,$4,$5*
1,1,$1+$1,$6,$7*
1,1,$1+$1,$8,$9*
0 Add four rect primitives between the rounded corners*
20,1,$1+$1,$2,$3,$4,$5,0*
20,1,$1+$1,$4,$5,$6,$7,0*
20,1,$1+$1,$6,$7,$8,$9,0*
20,1,$1+$1,$8,$9,$2,$3,0*%
G04 Aperture macros list end*
%ADD10R,1.700000X1.700000*%
%ADD11O,1.700000X1.700000*%
%ADD12C,1.600000*%
%ADD13O,1.600000X1.600000*%
%ADD14R,1.500000X1.050000*%
%ADD15O,1.500000X1.050000*%
%ADD16C,5.600000*%
%ADD17R,1.800000X1.800000*%
%ADD18C,1.800000*%
%ADD19R,2.500000X2.500000*%
%ADD20O,2.500000X2.500000*%
%ADD21R,1.600000X1.600000*%
%ADD22R,1.300000X1.300000*%
%ADD23C,1.300000*%
%ADD24R,2.000000X2.000000*%
%ADD25O,2.000000X2.000000*%
%ADD26C,3.200000*%
%ADD27RoundRect,0.102000X-0.699000X-0.699000X0.699000X-0.699000X0.699000X0.699000X-0.699000X0.699000X0*%
%ADD28C,1.602000*%
%ADD29C,1.734000*%
%ADD30C,2.604000*%
G04 APERTURE END LIST*
D10*
X96774000Y-74930000D03*
D11*
X96774000Y-77470000D03*
X96774000Y-80010000D03*
X96774000Y-82550000D03*
D12*
X122500000Y-92370000D03*
D13*
X122500000Y-77130000D03*
D10*
X158960000Y-50430000D03*
D11*
X161500000Y-50430000D03*
X158960000Y-52970000D03*
X161500000Y-52970000D03*
X158960000Y-55510000D03*
X161500000Y-55510000D03*
X158960000Y-58050000D03*
X161500000Y-58050000D03*
X158960000Y-60590000D03*
X161500000Y-60590000D03*
X158960000Y-63130000D03*
X161500000Y-63130000D03*
X158960000Y-65670000D03*
X161500000Y-65670000D03*
X158960000Y-68210000D03*
X161500000Y-68210000D03*
X158960000Y-70750000D03*
X161500000Y-70750000D03*
D12*
X122500000Y-130370000D03*
D13*
X122500000Y-115130000D03*
D12*
X154500000Y-68120000D03*
D13*
X154500000Y-52880000D03*
D10*
X96750000Y-109870000D03*
D11*
X96750000Y-112410000D03*
X96750000Y-114950000D03*
X96750000Y-117490000D03*
D14*
X131750000Y-120500000D03*
D15*
X131750000Y-121770000D03*
X131750000Y-123040000D03*
D10*
X145250000Y-56700000D03*
D11*
X145250000Y-59240000D03*
X145250000Y-61780000D03*
X145250000Y-64320000D03*
D14*
X131750000Y-128750000D03*
D15*
X131750000Y-130020000D03*
X131750000Y-131290000D03*
D10*
X145250000Y-53000000D03*
D12*
X149750000Y-52880000D03*
D13*
X149750000Y-68120000D03*
D14*
X131750000Y-113750000D03*
D15*
X131750000Y-115020000D03*
X131750000Y-116290000D03*
D10*
X145250000Y-68250000D03*
D16*
X94742000Y-135890000D03*
D17*
X140000000Y-111725000D03*
D18*
X140000000Y-114265000D03*
D10*
X96750000Y-98630000D03*
D11*
X96750000Y-101170000D03*
X96750000Y-103710000D03*
X96750000Y-106250000D03*
D10*
X145250000Y-82040000D03*
D11*
X145250000Y-79500000D03*
X145250000Y-76960000D03*
X145250000Y-74420000D03*
D17*
X139750000Y-127170000D03*
D18*
X139750000Y-129710000D03*
D17*
X140000000Y-118420000D03*
D18*
X140000000Y-120960000D03*
D10*
X96750000Y-86210000D03*
D11*
X96750000Y-88750000D03*
D16*
X165100000Y-45466000D03*
D19*
X154500000Y-129950000D03*
D20*
X160500000Y-127950000D03*
X160500000Y-115750000D03*
X148500000Y-115750000D03*
X148500000Y-127950000D03*
D19*
X154500000Y-87800000D03*
D20*
X148500000Y-89800000D03*
X148500000Y-102000000D03*
X160500000Y-102000000D03*
X160500000Y-89800000D03*
D21*
X101750000Y-74360000D03*
D12*
X101750000Y-76900000D03*
X101750000Y-79440000D03*
X101750000Y-81980000D03*
X101750000Y-84520000D03*
X101750000Y-87060000D03*
X101750000Y-89600000D03*
X101750000Y-92140000D03*
X101750000Y-94680000D03*
X101750000Y-97220000D03*
X101750000Y-99760000D03*
X101750000Y-102300000D03*
X101750000Y-104840000D03*
X101750000Y-107380000D03*
X101750000Y-109920000D03*
X101750000Y-112460000D03*
X101750000Y-115000000D03*
X101750000Y-117540000D03*
X101750000Y-120080000D03*
X101750000Y-122620000D03*
X101750000Y-125160000D03*
X101750000Y-127700000D03*
X101750000Y-130240000D03*
X101750000Y-132780000D03*
X116990000Y-132780000D03*
X116990000Y-130240000D03*
X116990000Y-127700000D03*
X116990000Y-125160000D03*
X116990000Y-122620000D03*
X116990000Y-120080000D03*
X116990000Y-117540000D03*
X116990000Y-115000000D03*
X116990000Y-112460000D03*
X116990000Y-109920000D03*
X116990000Y-107380000D03*
X116990000Y-104840000D03*
X116990000Y-102300000D03*
X116990000Y-99760000D03*
X116990000Y-97220000D03*
X116990000Y-94680000D03*
X116990000Y-92140000D03*
X116990000Y-89600000D03*
X116990000Y-87060000D03*
X116990000Y-84520000D03*
X116990000Y-81980000D03*
X116990000Y-79440000D03*
X116990000Y-76900000D03*
X116990000Y-74360000D03*
X114450000Y-76900000D03*
X104290000Y-120080000D03*
X106830000Y-120080000D03*
X109370000Y-120080000D03*
X111910000Y-120080000D03*
X114450000Y-120080000D03*
D21*
X104800800Y-80659200D03*
D12*
X104800800Y-83199200D03*
X104800800Y-85739200D03*
X104800800Y-88279200D03*
X104800800Y-90819200D03*
D22*
X114551600Y-87330000D03*
D23*
X112551600Y-87330000D03*
X110551600Y-87330000D03*
X110551600Y-89330000D03*
X112551600Y-89330000D03*
X114551600Y-89330000D03*
X110640000Y-75090000D03*
X108100000Y-75090000D03*
D10*
X96750000Y-92380000D03*
D11*
X96750000Y-94920000D03*
D19*
X136000000Y-87800000D03*
D20*
X130000000Y-89800000D03*
X130000000Y-102000000D03*
X142000000Y-102000000D03*
X142000000Y-89800000D03*
D24*
X138992500Y-67500000D03*
D25*
X138992500Y-52500000D03*
D12*
X122500000Y-110370000D03*
D13*
X122500000Y-95130000D03*
D16*
X165100000Y-135890000D03*
D10*
X135710000Y-76960000D03*
D11*
X138250000Y-76960000D03*
X135710000Y-79500000D03*
X138250000Y-79500000D03*
X135710000Y-82040000D03*
X138250000Y-82040000D03*
D16*
X94742000Y-45466000D03*
D26*
X121070000Y-60000000D03*
X132500000Y-60000000D03*
D27*
X131230000Y-66350000D03*
D28*
X129960000Y-68890000D03*
X128690000Y-66350000D03*
X127420000Y-68890000D03*
X126150000Y-66350000D03*
X124880000Y-68890000D03*
X123610000Y-66350000D03*
X122340000Y-68890000D03*
D29*
X133110000Y-55100000D03*
X130595000Y-56620000D03*
X122975000Y-55100000D03*
X120460000Y-56620000D03*
D30*
X118910000Y-63050000D03*
X134660000Y-63050000D03*
D10*
X96750000Y-121475000D03*
D11*
X96750000Y-124015000D03*
M02*
