M48
; DRILL file {KiCad 8.0.1} date 2024-05-05T15:46:46-0400
; FORMAT={-:-/ absolute / metric / decimal}
; #@! TF.CreationDate,2024-05-05T15:46:46-04:00
; #@! TF.GenerationSoftware,Kicad,Pcbnew,8.0.1
; #@! TF.FileFunction,Plated,1,2,PTH
FMAT,2
METRIC
; #@! TA.AperFunction,Plated,PTH,ViaDrill
T1C0.300
; #@! TA.AperFunction,Plated,PTH,ComponentDrill
T2C0.750
; #@! TA.AperFunction,Plated,PTH,ComponentDrill
T3C0.800
; #@! TA.AperFunction,Plated,PTH,ComponentDrill
T4C0.890
; #@! TA.AperFunction,Plated,PTH,ComponentDrill
T5C0.900
; #@! TA.AperFunction,Plated,PTH,ComponentDrill
T6C1.000
; #@! TA.AperFunction,Plated,PTH,ComponentDrill
T7C1.020
; #@! TA.AperFunction,Plated,PTH,ComponentDrill
T8C1.100
; #@! TA.AperFunction,Plated,PTH,ComponentDrill
T9C1.300
; #@! TA.AperFunction,Plated,PTH,ComponentDrill
T10C1.600
; #@! TA.AperFunction,Plated,PTH,ComponentDrill
T11C3.200
%
G90
G05
T1
X99.5Y-96.0
X99.799Y-86.549
X132.25Y-69.0
X139.15Y-99.0
X140.25Y-89.0
X162.0Y-113.25
T2
X131.75Y-113.75
X131.75Y-115.02
X131.75Y-116.29
X131.75Y-120.5
X131.75Y-121.77
X131.75Y-123.04
X131.75Y-128.75
X131.75Y-130.02
X131.75Y-131.29
T3
X108.1Y-75.09
X110.552Y-87.33
X110.552Y-89.33
X110.64Y-75.09
X112.552Y-87.33
X112.552Y-89.33
X114.552Y-87.33
X114.552Y-89.33
X122.5Y-77.13
X122.5Y-92.37
X122.5Y-95.13
X122.5Y-110.37
X122.5Y-115.13
X122.5Y-130.37
X149.75Y-52.88
X149.75Y-68.12
X154.5Y-52.88
X154.5Y-68.12
T4
X122.34Y-68.89
X123.61Y-66.35
X124.88Y-68.89
X126.15Y-66.35
X127.42Y-68.89
X128.69Y-66.35
X129.96Y-68.89
X131.23Y-66.35
T5
X139.75Y-127.17
X139.75Y-129.71
X140.0Y-111.725
X140.0Y-114.265
X140.0Y-118.42
X140.0Y-120.96
T6
X96.75Y-86.21
X96.75Y-88.75
X96.75Y-92.38
X96.75Y-94.92
X96.75Y-98.63
X96.75Y-101.17
X96.75Y-103.71
X96.75Y-106.25
X96.75Y-109.87
X96.75Y-112.41
X96.75Y-114.95
X96.75Y-117.49
X96.75Y-121.475
X96.75Y-124.015
X96.774Y-74.93
X96.774Y-77.47
X96.774Y-80.01
X96.774Y-82.55
X135.71Y-76.96
X135.71Y-79.5
X135.71Y-82.04
X138.25Y-76.96
X138.25Y-79.5
X138.25Y-82.04
X138.993Y-52.5
X138.993Y-67.5
X145.25Y-53.0
X145.25Y-56.7
X145.25Y-59.24
X145.25Y-61.78
X145.25Y-64.32
X145.25Y-68.25
X145.25Y-74.42
X145.25Y-76.96
X145.25Y-79.5
X145.25Y-82.04
X158.96Y-50.43
X158.96Y-52.97
X158.96Y-55.51
X158.96Y-58.05
X158.96Y-60.59
X158.96Y-63.13
X158.96Y-65.67
X158.96Y-68.21
X158.96Y-70.75
X161.5Y-50.43
X161.5Y-52.97
X161.5Y-55.51
X161.5Y-58.05
X161.5Y-60.59
X161.5Y-63.13
X161.5Y-65.67
X161.5Y-68.21
X161.5Y-70.75
T7
X120.46Y-56.62
X122.975Y-55.1
X130.595Y-56.62
X133.11Y-55.1
T8
X101.75Y-74.36
X101.75Y-76.9
X101.75Y-79.44
X101.75Y-81.98
X101.75Y-84.52
X101.75Y-87.06
X101.75Y-89.6
X101.75Y-92.14
X101.75Y-94.68
X101.75Y-97.22
X101.75Y-99.76
X101.75Y-102.3
X101.75Y-104.84
X101.75Y-107.38
X101.75Y-109.92
X101.75Y-112.46
X101.75Y-115.0
X101.75Y-117.54
X101.75Y-120.08
X101.75Y-122.62
X101.75Y-125.16
X101.75Y-127.7
X101.75Y-130.24
X101.75Y-132.78
X104.29Y-120.08
X104.801Y-80.659
X104.801Y-83.199
X104.801Y-85.739
X104.801Y-88.279
X104.801Y-90.819
X106.83Y-120.08
X109.37Y-120.08
X111.91Y-120.08
X114.45Y-76.9
X114.45Y-120.08
X116.99Y-74.36
X116.99Y-76.9
X116.99Y-79.44
X116.99Y-81.98
X116.99Y-84.52
X116.99Y-87.06
X116.99Y-89.6
X116.99Y-92.14
X116.99Y-94.68
X116.99Y-97.22
X116.99Y-99.76
X116.99Y-102.3
X116.99Y-104.84
X116.99Y-107.38
X116.99Y-109.92
X116.99Y-112.46
X116.99Y-115.0
X116.99Y-117.54
X116.99Y-120.08
X116.99Y-122.62
X116.99Y-125.16
X116.99Y-127.7
X116.99Y-130.24
X116.99Y-132.78
T9
X130.0Y-89.8
X130.0Y-102.0
X136.0Y-87.8
X142.0Y-89.8
X142.0Y-102.0
X148.5Y-89.8
X148.5Y-102.0
X148.5Y-115.75
X148.5Y-127.95
X154.5Y-87.8
X154.5Y-129.95
X160.5Y-89.8
X160.5Y-102.0
X160.5Y-115.75
X160.5Y-127.95
T10
X118.91Y-63.05
X134.66Y-63.05
T11
X94.742Y-45.466
X94.742Y-135.89
X165.1Y-45.466
X165.1Y-135.89
M30
