%TF.GenerationSoftware,KiCad,Pcbnew,8.0.6*%
%TF.CreationDate,2024-11-20T20:47:09-05:00*%
%TF.ProjectId,solouno_sidepanel,736f6c6f-756e-46f5-9f73-69646570616e,rev?*%
%TF.SameCoordinates,Original*%
%TF.FileFunction,Drillmap*%
%TF.FilePolarity,Positive*%
%FSLAX45Y45*%
G04 Gerber Fmt 4.5, Leading zero omitted, Abs format (unit mm)*
G04 Created by KiCad (PCBNEW 8.0.6) date 2024-11-20 20:47:09*
%MOMM*%
%LPD*%
G01*
G04 APERTURE LIST*
%ADD10C,0.050000*%
%ADD11C,0.200000*%
%ADD12C,0.100000*%
%ADD13C,0.140000*%
%ADD14C,0.250000*%
G04 APERTURE END LIST*
D10*
X17529000Y-6355000D02*
X20429000Y-6355000D01*
X20429000Y-14355000D01*
X17529000Y-14355000D01*
X17529000Y-6355000D01*
D11*
D12*
X18395500Y-9653500D02*
X18490500Y-9748500D01*
X18490500Y-9653500D02*
X18395500Y-9748500D01*
X18398500Y-10086500D02*
X18493500Y-10181500D01*
X18493500Y-10086500D02*
X18398500Y-10181500D01*
X18645500Y-9653500D02*
X18740500Y-9748500D01*
X18740500Y-9653500D02*
X18645500Y-9748500D01*
X18648500Y-10086500D02*
X18743500Y-10181500D01*
X18743500Y-10086500D02*
X18648500Y-10181500D01*
X18895500Y-9653500D02*
X18990500Y-9748500D01*
X18990500Y-9653500D02*
X18895500Y-9748500D01*
X18898500Y-10086500D02*
X18993500Y-10181500D01*
X18993500Y-10086500D02*
X18898500Y-10181500D01*
X19145500Y-9653500D02*
X19240500Y-9748500D01*
X19240500Y-9653500D02*
X19145500Y-9748500D01*
X19148500Y-10086500D02*
X19243500Y-10181500D01*
X19243500Y-10086500D02*
X19148500Y-10181500D01*
X19395500Y-9653500D02*
X19490500Y-9748500D01*
X19490500Y-9653500D02*
X19395500Y-9748500D01*
X19398500Y-10086500D02*
X19493500Y-10181500D01*
X19493500Y-10086500D02*
X19398500Y-10181500D01*
X18127000Y-6760000D02*
G75*
G02*
X18027000Y-6760000I-50000J0D01*
G01*
X18027000Y-6760000D02*
G75*
G02*
X18127000Y-6760000I50000J0D01*
G01*
X18127000Y-7010000D02*
G75*
G02*
X18027000Y-7010000I-50000J0D01*
G01*
X18027000Y-7010000D02*
G75*
G02*
X18127000Y-7010000I50000J0D01*
G01*
X18888000Y-8483000D02*
G75*
G02*
X18788000Y-8483000I-50000J0D01*
G01*
X18788000Y-8483000D02*
G75*
G02*
X18888000Y-8483000I50000J0D01*
G01*
X18891000Y-8915000D02*
G75*
G02*
X18791000Y-8915000I-50000J0D01*
G01*
X18791000Y-8915000D02*
G75*
G02*
X18891000Y-8915000I50000J0D01*
G01*
X19138000Y-8483000D02*
G75*
G02*
X19038000Y-8483000I-50000J0D01*
G01*
X19038000Y-8483000D02*
G75*
G02*
X19138000Y-8483000I50000J0D01*
G01*
X19141000Y-8915000D02*
G75*
G02*
X19041000Y-8915000I-50000J0D01*
G01*
X19041000Y-8915000D02*
G75*
G02*
X19141000Y-8915000I50000J0D01*
G01*
X19927000Y-6760000D02*
G75*
G02*
X19827000Y-6760000I-50000J0D01*
G01*
X19827000Y-6760000D02*
G75*
G02*
X19927000Y-6760000I50000J0D01*
G01*
X19927000Y-7010000D02*
G75*
G02*
X19827000Y-7010000I-50000J0D01*
G01*
X19827000Y-7010000D02*
G75*
G02*
X19927000Y-7010000I50000J0D01*
G01*
D13*
X18438000Y-7607000D02*
X18438000Y-7747000D01*
X18368000Y-7677000D02*
X18508000Y-7677000D01*
X19469000Y-7607000D02*
X19469000Y-7747000D01*
X19399000Y-7677000D02*
X19539000Y-7677000D01*
D14*
X18809389Y-11355883D02*
X18809389Y-11179105D01*
X18632611Y-11179105D01*
X18632611Y-11355883D01*
X18809389Y-11355883D01*
X19059389Y-11788896D02*
X19059389Y-11612117D01*
X18882611Y-11612117D01*
X18882611Y-11788896D01*
X19059389Y-11788896D01*
X19309389Y-11355883D02*
X19309389Y-11179105D01*
X19132611Y-11179105D01*
X19132611Y-11355883D01*
X19309389Y-11355883D01*
D11*
X17787277Y-14668984D02*
X17787277Y-14468984D01*
X17787277Y-14468984D02*
X17834896Y-14468984D01*
X17834896Y-14468984D02*
X17863467Y-14478508D01*
X17863467Y-14478508D02*
X17882515Y-14497555D01*
X17882515Y-14497555D02*
X17892039Y-14516603D01*
X17892039Y-14516603D02*
X17901563Y-14554698D01*
X17901563Y-14554698D02*
X17901563Y-14583269D01*
X17901563Y-14583269D02*
X17892039Y-14621365D01*
X17892039Y-14621365D02*
X17882515Y-14640412D01*
X17882515Y-14640412D02*
X17863467Y-14659460D01*
X17863467Y-14659460D02*
X17834896Y-14668984D01*
X17834896Y-14668984D02*
X17787277Y-14668984D01*
X17987277Y-14668984D02*
X17987277Y-14535650D01*
X17987277Y-14573746D02*
X17996801Y-14554698D01*
X17996801Y-14554698D02*
X18006324Y-14545174D01*
X18006324Y-14545174D02*
X18025372Y-14535650D01*
X18025372Y-14535650D02*
X18044420Y-14535650D01*
X18111086Y-14668984D02*
X18111086Y-14535650D01*
X18111086Y-14468984D02*
X18101563Y-14478508D01*
X18101563Y-14478508D02*
X18111086Y-14488031D01*
X18111086Y-14488031D02*
X18120610Y-14478508D01*
X18120610Y-14478508D02*
X18111086Y-14468984D01*
X18111086Y-14468984D02*
X18111086Y-14488031D01*
X18234896Y-14668984D02*
X18215848Y-14659460D01*
X18215848Y-14659460D02*
X18206324Y-14640412D01*
X18206324Y-14640412D02*
X18206324Y-14468984D01*
X18339658Y-14668984D02*
X18320610Y-14659460D01*
X18320610Y-14659460D02*
X18311086Y-14640412D01*
X18311086Y-14640412D02*
X18311086Y-14468984D01*
X18568229Y-14668984D02*
X18568229Y-14468984D01*
X18568229Y-14468984D02*
X18634896Y-14611841D01*
X18634896Y-14611841D02*
X18701563Y-14468984D01*
X18701563Y-14468984D02*
X18701563Y-14668984D01*
X18882515Y-14668984D02*
X18882515Y-14564222D01*
X18882515Y-14564222D02*
X18872991Y-14545174D01*
X18872991Y-14545174D02*
X18853944Y-14535650D01*
X18853944Y-14535650D02*
X18815848Y-14535650D01*
X18815848Y-14535650D02*
X18796801Y-14545174D01*
X18882515Y-14659460D02*
X18863467Y-14668984D01*
X18863467Y-14668984D02*
X18815848Y-14668984D01*
X18815848Y-14668984D02*
X18796801Y-14659460D01*
X18796801Y-14659460D02*
X18787277Y-14640412D01*
X18787277Y-14640412D02*
X18787277Y-14621365D01*
X18787277Y-14621365D02*
X18796801Y-14602317D01*
X18796801Y-14602317D02*
X18815848Y-14592793D01*
X18815848Y-14592793D02*
X18863467Y-14592793D01*
X18863467Y-14592793D02*
X18882515Y-14583269D01*
X18977753Y-14535650D02*
X18977753Y-14735650D01*
X18977753Y-14545174D02*
X18996801Y-14535650D01*
X18996801Y-14535650D02*
X19034896Y-14535650D01*
X19034896Y-14535650D02*
X19053944Y-14545174D01*
X19053944Y-14545174D02*
X19063467Y-14554698D01*
X19063467Y-14554698D02*
X19072991Y-14573746D01*
X19072991Y-14573746D02*
X19072991Y-14630888D01*
X19072991Y-14630888D02*
X19063467Y-14649936D01*
X19063467Y-14649936D02*
X19053944Y-14659460D01*
X19053944Y-14659460D02*
X19034896Y-14668984D01*
X19034896Y-14668984D02*
X18996801Y-14668984D01*
X18996801Y-14668984D02*
X18977753Y-14659460D01*
X19158705Y-14649936D02*
X19168229Y-14659460D01*
X19168229Y-14659460D02*
X19158705Y-14668984D01*
X19158705Y-14668984D02*
X19149182Y-14659460D01*
X19149182Y-14659460D02*
X19158705Y-14649936D01*
X19158705Y-14649936D02*
X19158705Y-14668984D01*
X19158705Y-14545174D02*
X19168229Y-14554698D01*
X19168229Y-14554698D02*
X19158705Y-14564222D01*
X19158705Y-14564222D02*
X19149182Y-14554698D01*
X19149182Y-14554698D02*
X19158705Y-14545174D01*
X19158705Y-14545174D02*
X19158705Y-14564222D01*
D12*
X17431500Y-14950000D02*
X17526500Y-15045000D01*
X17526500Y-14950000D02*
X17431500Y-15045000D01*
D11*
X17825372Y-14888984D02*
X17844420Y-14888984D01*
X17844420Y-14888984D02*
X17863467Y-14898508D01*
X17863467Y-14898508D02*
X17872991Y-14908031D01*
X17872991Y-14908031D02*
X17882515Y-14927079D01*
X17882515Y-14927079D02*
X17892039Y-14965174D01*
X17892039Y-14965174D02*
X17892039Y-15012793D01*
X17892039Y-15012793D02*
X17882515Y-15050888D01*
X17882515Y-15050888D02*
X17872991Y-15069936D01*
X17872991Y-15069936D02*
X17863467Y-15079460D01*
X17863467Y-15079460D02*
X17844420Y-15088984D01*
X17844420Y-15088984D02*
X17825372Y-15088984D01*
X17825372Y-15088984D02*
X17806324Y-15079460D01*
X17806324Y-15079460D02*
X17796801Y-15069936D01*
X17796801Y-15069936D02*
X17787277Y-15050888D01*
X17787277Y-15050888D02*
X17777753Y-15012793D01*
X17777753Y-15012793D02*
X17777753Y-14965174D01*
X17777753Y-14965174D02*
X17787277Y-14927079D01*
X17787277Y-14927079D02*
X17796801Y-14908031D01*
X17796801Y-14908031D02*
X17806324Y-14898508D01*
X17806324Y-14898508D02*
X17825372Y-14888984D01*
X17977753Y-15069936D02*
X17987277Y-15079460D01*
X17987277Y-15079460D02*
X17977753Y-15088984D01*
X17977753Y-15088984D02*
X17968229Y-15079460D01*
X17968229Y-15079460D02*
X17977753Y-15069936D01*
X17977753Y-15069936D02*
X17977753Y-15088984D01*
X18082515Y-15088984D02*
X18120610Y-15088984D01*
X18120610Y-15088984D02*
X18139658Y-15079460D01*
X18139658Y-15079460D02*
X18149182Y-15069936D01*
X18149182Y-15069936D02*
X18168229Y-15041365D01*
X18168229Y-15041365D02*
X18177753Y-15003269D01*
X18177753Y-15003269D02*
X18177753Y-14927079D01*
X18177753Y-14927079D02*
X18168229Y-14908031D01*
X18168229Y-14908031D02*
X18158705Y-14898508D01*
X18158705Y-14898508D02*
X18139658Y-14888984D01*
X18139658Y-14888984D02*
X18101563Y-14888984D01*
X18101563Y-14888984D02*
X18082515Y-14898508D01*
X18082515Y-14898508D02*
X18072991Y-14908031D01*
X18072991Y-14908031D02*
X18063467Y-14927079D01*
X18063467Y-14927079D02*
X18063467Y-14974698D01*
X18063467Y-14974698D02*
X18072991Y-14993746D01*
X18072991Y-14993746D02*
X18082515Y-15003269D01*
X18082515Y-15003269D02*
X18101563Y-15012793D01*
X18101563Y-15012793D02*
X18139658Y-15012793D01*
X18139658Y-15012793D02*
X18158705Y-15003269D01*
X18158705Y-15003269D02*
X18168229Y-14993746D01*
X18168229Y-14993746D02*
X18177753Y-14974698D01*
X18358705Y-14888984D02*
X18263467Y-14888984D01*
X18263467Y-14888984D02*
X18253944Y-14984222D01*
X18253944Y-14984222D02*
X18263467Y-14974698D01*
X18263467Y-14974698D02*
X18282515Y-14965174D01*
X18282515Y-14965174D02*
X18330134Y-14965174D01*
X18330134Y-14965174D02*
X18349182Y-14974698D01*
X18349182Y-14974698D02*
X18358705Y-14984222D01*
X18358705Y-14984222D02*
X18368229Y-15003269D01*
X18368229Y-15003269D02*
X18368229Y-15050888D01*
X18368229Y-15050888D02*
X18358705Y-15069936D01*
X18358705Y-15069936D02*
X18349182Y-15079460D01*
X18349182Y-15079460D02*
X18330134Y-15088984D01*
X18330134Y-15088984D02*
X18282515Y-15088984D01*
X18282515Y-15088984D02*
X18263467Y-15079460D01*
X18263467Y-15079460D02*
X18253944Y-15069936D01*
X18492039Y-14888984D02*
X18511086Y-14888984D01*
X18511086Y-14888984D02*
X18530134Y-14898508D01*
X18530134Y-14898508D02*
X18539658Y-14908031D01*
X18539658Y-14908031D02*
X18549182Y-14927079D01*
X18549182Y-14927079D02*
X18558705Y-14965174D01*
X18558705Y-14965174D02*
X18558705Y-15012793D01*
X18558705Y-15012793D02*
X18549182Y-15050888D01*
X18549182Y-15050888D02*
X18539658Y-15069936D01*
X18539658Y-15069936D02*
X18530134Y-15079460D01*
X18530134Y-15079460D02*
X18511086Y-15088984D01*
X18511086Y-15088984D02*
X18492039Y-15088984D01*
X18492039Y-15088984D02*
X18472991Y-15079460D01*
X18472991Y-15079460D02*
X18463467Y-15069936D01*
X18463467Y-15069936D02*
X18453944Y-15050888D01*
X18453944Y-15050888D02*
X18444420Y-15012793D01*
X18444420Y-15012793D02*
X18444420Y-14965174D01*
X18444420Y-14965174D02*
X18453944Y-14927079D01*
X18453944Y-14927079D02*
X18463467Y-14908031D01*
X18463467Y-14908031D02*
X18472991Y-14898508D01*
X18472991Y-14898508D02*
X18492039Y-14888984D01*
X18644420Y-15088984D02*
X18644420Y-14955650D01*
X18644420Y-14974698D02*
X18653944Y-14965174D01*
X18653944Y-14965174D02*
X18672991Y-14955650D01*
X18672991Y-14955650D02*
X18701563Y-14955650D01*
X18701563Y-14955650D02*
X18720610Y-14965174D01*
X18720610Y-14965174D02*
X18730134Y-14984222D01*
X18730134Y-14984222D02*
X18730134Y-15088984D01*
X18730134Y-14984222D02*
X18739658Y-14965174D01*
X18739658Y-14965174D02*
X18758705Y-14955650D01*
X18758705Y-14955650D02*
X18787277Y-14955650D01*
X18787277Y-14955650D02*
X18806325Y-14965174D01*
X18806325Y-14965174D02*
X18815848Y-14984222D01*
X18815848Y-14984222D02*
X18815848Y-15088984D01*
X18911086Y-15088984D02*
X18911086Y-14955650D01*
X18911086Y-14974698D02*
X18920610Y-14965174D01*
X18920610Y-14965174D02*
X18939658Y-14955650D01*
X18939658Y-14955650D02*
X18968229Y-14955650D01*
X18968229Y-14955650D02*
X18987277Y-14965174D01*
X18987277Y-14965174D02*
X18996801Y-14984222D01*
X18996801Y-14984222D02*
X18996801Y-15088984D01*
X18996801Y-14984222D02*
X19006325Y-14965174D01*
X19006325Y-14965174D02*
X19025372Y-14955650D01*
X19025372Y-14955650D02*
X19053944Y-14955650D01*
X19053944Y-14955650D02*
X19072991Y-14965174D01*
X19072991Y-14965174D02*
X19082515Y-14984222D01*
X19082515Y-14984222D02*
X19082515Y-15088984D01*
X19472991Y-14879460D02*
X19301563Y-15136603D01*
X19730134Y-14888984D02*
X19749182Y-14888984D01*
X19749182Y-14888984D02*
X19768229Y-14898508D01*
X19768229Y-14898508D02*
X19777753Y-14908031D01*
X19777753Y-14908031D02*
X19787277Y-14927079D01*
X19787277Y-14927079D02*
X19796801Y-14965174D01*
X19796801Y-14965174D02*
X19796801Y-15012793D01*
X19796801Y-15012793D02*
X19787277Y-15050888D01*
X19787277Y-15050888D02*
X19777753Y-15069936D01*
X19777753Y-15069936D02*
X19768229Y-15079460D01*
X19768229Y-15079460D02*
X19749182Y-15088984D01*
X19749182Y-15088984D02*
X19730134Y-15088984D01*
X19730134Y-15088984D02*
X19711087Y-15079460D01*
X19711087Y-15079460D02*
X19701563Y-15069936D01*
X19701563Y-15069936D02*
X19692039Y-15050888D01*
X19692039Y-15050888D02*
X19682515Y-15012793D01*
X19682515Y-15012793D02*
X19682515Y-14965174D01*
X19682515Y-14965174D02*
X19692039Y-14927079D01*
X19692039Y-14927079D02*
X19701563Y-14908031D01*
X19701563Y-14908031D02*
X19711087Y-14898508D01*
X19711087Y-14898508D02*
X19730134Y-14888984D01*
X19882515Y-15069936D02*
X19892039Y-15079460D01*
X19892039Y-15079460D02*
X19882515Y-15088984D01*
X19882515Y-15088984D02*
X19872991Y-15079460D01*
X19872991Y-15079460D02*
X19882515Y-15069936D01*
X19882515Y-15069936D02*
X19882515Y-15088984D01*
X20015848Y-14888984D02*
X20034896Y-14888984D01*
X20034896Y-14888984D02*
X20053944Y-14898508D01*
X20053944Y-14898508D02*
X20063468Y-14908031D01*
X20063468Y-14908031D02*
X20072991Y-14927079D01*
X20072991Y-14927079D02*
X20082515Y-14965174D01*
X20082515Y-14965174D02*
X20082515Y-15012793D01*
X20082515Y-15012793D02*
X20072991Y-15050888D01*
X20072991Y-15050888D02*
X20063468Y-15069936D01*
X20063468Y-15069936D02*
X20053944Y-15079460D01*
X20053944Y-15079460D02*
X20034896Y-15088984D01*
X20034896Y-15088984D02*
X20015848Y-15088984D01*
X20015848Y-15088984D02*
X19996801Y-15079460D01*
X19996801Y-15079460D02*
X19987277Y-15069936D01*
X19987277Y-15069936D02*
X19977753Y-15050888D01*
X19977753Y-15050888D02*
X19968229Y-15012793D01*
X19968229Y-15012793D02*
X19968229Y-14965174D01*
X19968229Y-14965174D02*
X19977753Y-14927079D01*
X19977753Y-14927079D02*
X19987277Y-14908031D01*
X19987277Y-14908031D02*
X19996801Y-14898508D01*
X19996801Y-14898508D02*
X20015848Y-14888984D01*
X20149182Y-14888984D02*
X20272991Y-14888984D01*
X20272991Y-14888984D02*
X20206325Y-14965174D01*
X20206325Y-14965174D02*
X20234896Y-14965174D01*
X20234896Y-14965174D02*
X20253944Y-14974698D01*
X20253944Y-14974698D02*
X20263468Y-14984222D01*
X20263468Y-14984222D02*
X20272991Y-15003269D01*
X20272991Y-15003269D02*
X20272991Y-15050888D01*
X20272991Y-15050888D02*
X20263468Y-15069936D01*
X20263468Y-15069936D02*
X20253944Y-15079460D01*
X20253944Y-15079460D02*
X20234896Y-15088984D01*
X20234896Y-15088984D02*
X20177753Y-15088984D01*
X20177753Y-15088984D02*
X20158706Y-15079460D01*
X20158706Y-15079460D02*
X20149182Y-15069936D01*
X20339658Y-14888984D02*
X20472991Y-14888984D01*
X20472991Y-14888984D02*
X20387277Y-15088984D01*
X20634896Y-14955650D02*
X20634896Y-15088984D01*
X20587277Y-14879460D02*
X20539658Y-15022317D01*
X20539658Y-15022317D02*
X20663468Y-15022317D01*
X20730134Y-14888984D02*
X20730134Y-14927079D01*
X20806325Y-14888984D02*
X20806325Y-14927079D01*
X21101563Y-15165174D02*
X21092039Y-15155650D01*
X21092039Y-15155650D02*
X21072991Y-15127079D01*
X21072991Y-15127079D02*
X21063468Y-15108031D01*
X21063468Y-15108031D02*
X21053944Y-15079460D01*
X21053944Y-15079460D02*
X21044420Y-15031841D01*
X21044420Y-15031841D02*
X21044420Y-14993746D01*
X21044420Y-14993746D02*
X21053944Y-14946127D01*
X21053944Y-14946127D02*
X21063468Y-14917555D01*
X21063468Y-14917555D02*
X21072991Y-14898508D01*
X21072991Y-14898508D02*
X21092039Y-14869936D01*
X21092039Y-14869936D02*
X21101563Y-14860412D01*
X21282515Y-15088984D02*
X21168230Y-15088984D01*
X21225372Y-15088984D02*
X21225372Y-14888984D01*
X21225372Y-14888984D02*
X21206325Y-14917555D01*
X21206325Y-14917555D02*
X21187277Y-14936603D01*
X21187277Y-14936603D02*
X21168230Y-14946127D01*
X21406325Y-14888984D02*
X21425372Y-14888984D01*
X21425372Y-14888984D02*
X21444420Y-14898508D01*
X21444420Y-14898508D02*
X21453944Y-14908031D01*
X21453944Y-14908031D02*
X21463468Y-14927079D01*
X21463468Y-14927079D02*
X21472991Y-14965174D01*
X21472991Y-14965174D02*
X21472991Y-15012793D01*
X21472991Y-15012793D02*
X21463468Y-15050888D01*
X21463468Y-15050888D02*
X21453944Y-15069936D01*
X21453944Y-15069936D02*
X21444420Y-15079460D01*
X21444420Y-15079460D02*
X21425372Y-15088984D01*
X21425372Y-15088984D02*
X21406325Y-15088984D01*
X21406325Y-15088984D02*
X21387277Y-15079460D01*
X21387277Y-15079460D02*
X21377753Y-15069936D01*
X21377753Y-15069936D02*
X21368230Y-15050888D01*
X21368230Y-15050888D02*
X21358706Y-15012793D01*
X21358706Y-15012793D02*
X21358706Y-14965174D01*
X21358706Y-14965174D02*
X21368230Y-14927079D01*
X21368230Y-14927079D02*
X21377753Y-14908031D01*
X21377753Y-14908031D02*
X21387277Y-14898508D01*
X21387277Y-14898508D02*
X21406325Y-14888984D01*
X21711087Y-15088984D02*
X21711087Y-14888984D01*
X21796801Y-15088984D02*
X21796801Y-14984222D01*
X21796801Y-14984222D02*
X21787277Y-14965174D01*
X21787277Y-14965174D02*
X21768230Y-14955650D01*
X21768230Y-14955650D02*
X21739658Y-14955650D01*
X21739658Y-14955650D02*
X21720611Y-14965174D01*
X21720611Y-14965174D02*
X21711087Y-14974698D01*
X21920611Y-15088984D02*
X21901563Y-15079460D01*
X21901563Y-15079460D02*
X21892039Y-15069936D01*
X21892039Y-15069936D02*
X21882515Y-15050888D01*
X21882515Y-15050888D02*
X21882515Y-14993746D01*
X21882515Y-14993746D02*
X21892039Y-14974698D01*
X21892039Y-14974698D02*
X21901563Y-14965174D01*
X21901563Y-14965174D02*
X21920611Y-14955650D01*
X21920611Y-14955650D02*
X21949182Y-14955650D01*
X21949182Y-14955650D02*
X21968230Y-14965174D01*
X21968230Y-14965174D02*
X21977753Y-14974698D01*
X21977753Y-14974698D02*
X21987277Y-14993746D01*
X21987277Y-14993746D02*
X21987277Y-15050888D01*
X21987277Y-15050888D02*
X21977753Y-15069936D01*
X21977753Y-15069936D02*
X21968230Y-15079460D01*
X21968230Y-15079460D02*
X21949182Y-15088984D01*
X21949182Y-15088984D02*
X21920611Y-15088984D01*
X22101563Y-15088984D02*
X22082515Y-15079460D01*
X22082515Y-15079460D02*
X22072992Y-15060412D01*
X22072992Y-15060412D02*
X22072992Y-14888984D01*
X22253944Y-15079460D02*
X22234896Y-15088984D01*
X22234896Y-15088984D02*
X22196801Y-15088984D01*
X22196801Y-15088984D02*
X22177753Y-15079460D01*
X22177753Y-15079460D02*
X22168230Y-15060412D01*
X22168230Y-15060412D02*
X22168230Y-14984222D01*
X22168230Y-14984222D02*
X22177753Y-14965174D01*
X22177753Y-14965174D02*
X22196801Y-14955650D01*
X22196801Y-14955650D02*
X22234896Y-14955650D01*
X22234896Y-14955650D02*
X22253944Y-14965174D01*
X22253944Y-14965174D02*
X22263468Y-14984222D01*
X22263468Y-14984222D02*
X22263468Y-15003269D01*
X22263468Y-15003269D02*
X22168230Y-15022317D01*
X22339658Y-15079460D02*
X22358706Y-15088984D01*
X22358706Y-15088984D02*
X22396801Y-15088984D01*
X22396801Y-15088984D02*
X22415849Y-15079460D01*
X22415849Y-15079460D02*
X22425372Y-15060412D01*
X22425372Y-15060412D02*
X22425372Y-15050888D01*
X22425372Y-15050888D02*
X22415849Y-15031841D01*
X22415849Y-15031841D02*
X22396801Y-15022317D01*
X22396801Y-15022317D02*
X22368230Y-15022317D01*
X22368230Y-15022317D02*
X22349182Y-15012793D01*
X22349182Y-15012793D02*
X22339658Y-14993746D01*
X22339658Y-14993746D02*
X22339658Y-14984222D01*
X22339658Y-14984222D02*
X22349182Y-14965174D01*
X22349182Y-14965174D02*
X22368230Y-14955650D01*
X22368230Y-14955650D02*
X22396801Y-14955650D01*
X22396801Y-14955650D02*
X22415849Y-14965174D01*
X22492039Y-15165174D02*
X22501563Y-15155650D01*
X22501563Y-15155650D02*
X22520611Y-15127079D01*
X22520611Y-15127079D02*
X22530134Y-15108031D01*
X22530134Y-15108031D02*
X22539658Y-15079460D01*
X22539658Y-15079460D02*
X22549182Y-15031841D01*
X22549182Y-15031841D02*
X22549182Y-14993746D01*
X22549182Y-14993746D02*
X22539658Y-14946127D01*
X22539658Y-14946127D02*
X22530134Y-14917555D01*
X22530134Y-14917555D02*
X22520611Y-14898508D01*
X22520611Y-14898508D02*
X22501563Y-14869936D01*
X22501563Y-14869936D02*
X22492039Y-14860412D01*
D12*
X17526500Y-15261500D02*
G75*
G02*
X17426500Y-15261500I-50000J0D01*
G01*
X17426500Y-15261500D02*
G75*
G02*
X17526500Y-15261500I50000J0D01*
G01*
D11*
X17892039Y-15352984D02*
X17777753Y-15352984D01*
X17834896Y-15352984D02*
X17834896Y-15152984D01*
X17834896Y-15152984D02*
X17815848Y-15181555D01*
X17815848Y-15181555D02*
X17796801Y-15200603D01*
X17796801Y-15200603D02*
X17777753Y-15210127D01*
X17977753Y-15333936D02*
X17987277Y-15343460D01*
X17987277Y-15343460D02*
X17977753Y-15352984D01*
X17977753Y-15352984D02*
X17968229Y-15343460D01*
X17968229Y-15343460D02*
X17977753Y-15333936D01*
X17977753Y-15333936D02*
X17977753Y-15352984D01*
X18111086Y-15152984D02*
X18130134Y-15152984D01*
X18130134Y-15152984D02*
X18149182Y-15162508D01*
X18149182Y-15162508D02*
X18158705Y-15172031D01*
X18158705Y-15172031D02*
X18168229Y-15191079D01*
X18168229Y-15191079D02*
X18177753Y-15229174D01*
X18177753Y-15229174D02*
X18177753Y-15276793D01*
X18177753Y-15276793D02*
X18168229Y-15314888D01*
X18168229Y-15314888D02*
X18158705Y-15333936D01*
X18158705Y-15333936D02*
X18149182Y-15343460D01*
X18149182Y-15343460D02*
X18130134Y-15352984D01*
X18130134Y-15352984D02*
X18111086Y-15352984D01*
X18111086Y-15352984D02*
X18092039Y-15343460D01*
X18092039Y-15343460D02*
X18082515Y-15333936D01*
X18082515Y-15333936D02*
X18072991Y-15314888D01*
X18072991Y-15314888D02*
X18063467Y-15276793D01*
X18063467Y-15276793D02*
X18063467Y-15229174D01*
X18063467Y-15229174D02*
X18072991Y-15191079D01*
X18072991Y-15191079D02*
X18082515Y-15172031D01*
X18082515Y-15172031D02*
X18092039Y-15162508D01*
X18092039Y-15162508D02*
X18111086Y-15152984D01*
X18301563Y-15152984D02*
X18320610Y-15152984D01*
X18320610Y-15152984D02*
X18339658Y-15162508D01*
X18339658Y-15162508D02*
X18349182Y-15172031D01*
X18349182Y-15172031D02*
X18358705Y-15191079D01*
X18358705Y-15191079D02*
X18368229Y-15229174D01*
X18368229Y-15229174D02*
X18368229Y-15276793D01*
X18368229Y-15276793D02*
X18358705Y-15314888D01*
X18358705Y-15314888D02*
X18349182Y-15333936D01*
X18349182Y-15333936D02*
X18339658Y-15343460D01*
X18339658Y-15343460D02*
X18320610Y-15352984D01*
X18320610Y-15352984D02*
X18301563Y-15352984D01*
X18301563Y-15352984D02*
X18282515Y-15343460D01*
X18282515Y-15343460D02*
X18272991Y-15333936D01*
X18272991Y-15333936D02*
X18263467Y-15314888D01*
X18263467Y-15314888D02*
X18253944Y-15276793D01*
X18253944Y-15276793D02*
X18253944Y-15229174D01*
X18253944Y-15229174D02*
X18263467Y-15191079D01*
X18263467Y-15191079D02*
X18272991Y-15172031D01*
X18272991Y-15172031D02*
X18282515Y-15162508D01*
X18282515Y-15162508D02*
X18301563Y-15152984D01*
X18492039Y-15152984D02*
X18511086Y-15152984D01*
X18511086Y-15152984D02*
X18530134Y-15162508D01*
X18530134Y-15162508D02*
X18539658Y-15172031D01*
X18539658Y-15172031D02*
X18549182Y-15191079D01*
X18549182Y-15191079D02*
X18558705Y-15229174D01*
X18558705Y-15229174D02*
X18558705Y-15276793D01*
X18558705Y-15276793D02*
X18549182Y-15314888D01*
X18549182Y-15314888D02*
X18539658Y-15333936D01*
X18539658Y-15333936D02*
X18530134Y-15343460D01*
X18530134Y-15343460D02*
X18511086Y-15352984D01*
X18511086Y-15352984D02*
X18492039Y-15352984D01*
X18492039Y-15352984D02*
X18472991Y-15343460D01*
X18472991Y-15343460D02*
X18463467Y-15333936D01*
X18463467Y-15333936D02*
X18453944Y-15314888D01*
X18453944Y-15314888D02*
X18444420Y-15276793D01*
X18444420Y-15276793D02*
X18444420Y-15229174D01*
X18444420Y-15229174D02*
X18453944Y-15191079D01*
X18453944Y-15191079D02*
X18463467Y-15172031D01*
X18463467Y-15172031D02*
X18472991Y-15162508D01*
X18472991Y-15162508D02*
X18492039Y-15152984D01*
X18644420Y-15352984D02*
X18644420Y-15219650D01*
X18644420Y-15238698D02*
X18653944Y-15229174D01*
X18653944Y-15229174D02*
X18672991Y-15219650D01*
X18672991Y-15219650D02*
X18701563Y-15219650D01*
X18701563Y-15219650D02*
X18720610Y-15229174D01*
X18720610Y-15229174D02*
X18730134Y-15248222D01*
X18730134Y-15248222D02*
X18730134Y-15352984D01*
X18730134Y-15248222D02*
X18739658Y-15229174D01*
X18739658Y-15229174D02*
X18758705Y-15219650D01*
X18758705Y-15219650D02*
X18787277Y-15219650D01*
X18787277Y-15219650D02*
X18806325Y-15229174D01*
X18806325Y-15229174D02*
X18815848Y-15248222D01*
X18815848Y-15248222D02*
X18815848Y-15352984D01*
X18911086Y-15352984D02*
X18911086Y-15219650D01*
X18911086Y-15238698D02*
X18920610Y-15229174D01*
X18920610Y-15229174D02*
X18939658Y-15219650D01*
X18939658Y-15219650D02*
X18968229Y-15219650D01*
X18968229Y-15219650D02*
X18987277Y-15229174D01*
X18987277Y-15229174D02*
X18996801Y-15248222D01*
X18996801Y-15248222D02*
X18996801Y-15352984D01*
X18996801Y-15248222D02*
X19006325Y-15229174D01*
X19006325Y-15229174D02*
X19025372Y-15219650D01*
X19025372Y-15219650D02*
X19053944Y-15219650D01*
X19053944Y-15219650D02*
X19072991Y-15229174D01*
X19072991Y-15229174D02*
X19082515Y-15248222D01*
X19082515Y-15248222D02*
X19082515Y-15352984D01*
X19472991Y-15143460D02*
X19301563Y-15400603D01*
X19730134Y-15152984D02*
X19749182Y-15152984D01*
X19749182Y-15152984D02*
X19768229Y-15162508D01*
X19768229Y-15162508D02*
X19777753Y-15172031D01*
X19777753Y-15172031D02*
X19787277Y-15191079D01*
X19787277Y-15191079D02*
X19796801Y-15229174D01*
X19796801Y-15229174D02*
X19796801Y-15276793D01*
X19796801Y-15276793D02*
X19787277Y-15314888D01*
X19787277Y-15314888D02*
X19777753Y-15333936D01*
X19777753Y-15333936D02*
X19768229Y-15343460D01*
X19768229Y-15343460D02*
X19749182Y-15352984D01*
X19749182Y-15352984D02*
X19730134Y-15352984D01*
X19730134Y-15352984D02*
X19711087Y-15343460D01*
X19711087Y-15343460D02*
X19701563Y-15333936D01*
X19701563Y-15333936D02*
X19692039Y-15314888D01*
X19692039Y-15314888D02*
X19682515Y-15276793D01*
X19682515Y-15276793D02*
X19682515Y-15229174D01*
X19682515Y-15229174D02*
X19692039Y-15191079D01*
X19692039Y-15191079D02*
X19701563Y-15172031D01*
X19701563Y-15172031D02*
X19711087Y-15162508D01*
X19711087Y-15162508D02*
X19730134Y-15152984D01*
X19882515Y-15333936D02*
X19892039Y-15343460D01*
X19892039Y-15343460D02*
X19882515Y-15352984D01*
X19882515Y-15352984D02*
X19872991Y-15343460D01*
X19872991Y-15343460D02*
X19882515Y-15333936D01*
X19882515Y-15333936D02*
X19882515Y-15352984D01*
X20015848Y-15152984D02*
X20034896Y-15152984D01*
X20034896Y-15152984D02*
X20053944Y-15162508D01*
X20053944Y-15162508D02*
X20063468Y-15172031D01*
X20063468Y-15172031D02*
X20072991Y-15191079D01*
X20072991Y-15191079D02*
X20082515Y-15229174D01*
X20082515Y-15229174D02*
X20082515Y-15276793D01*
X20082515Y-15276793D02*
X20072991Y-15314888D01*
X20072991Y-15314888D02*
X20063468Y-15333936D01*
X20063468Y-15333936D02*
X20053944Y-15343460D01*
X20053944Y-15343460D02*
X20034896Y-15352984D01*
X20034896Y-15352984D02*
X20015848Y-15352984D01*
X20015848Y-15352984D02*
X19996801Y-15343460D01*
X19996801Y-15343460D02*
X19987277Y-15333936D01*
X19987277Y-15333936D02*
X19977753Y-15314888D01*
X19977753Y-15314888D02*
X19968229Y-15276793D01*
X19968229Y-15276793D02*
X19968229Y-15229174D01*
X19968229Y-15229174D02*
X19977753Y-15191079D01*
X19977753Y-15191079D02*
X19987277Y-15172031D01*
X19987277Y-15172031D02*
X19996801Y-15162508D01*
X19996801Y-15162508D02*
X20015848Y-15152984D01*
X20149182Y-15152984D02*
X20272991Y-15152984D01*
X20272991Y-15152984D02*
X20206325Y-15229174D01*
X20206325Y-15229174D02*
X20234896Y-15229174D01*
X20234896Y-15229174D02*
X20253944Y-15238698D01*
X20253944Y-15238698D02*
X20263468Y-15248222D01*
X20263468Y-15248222D02*
X20272991Y-15267269D01*
X20272991Y-15267269D02*
X20272991Y-15314888D01*
X20272991Y-15314888D02*
X20263468Y-15333936D01*
X20263468Y-15333936D02*
X20253944Y-15343460D01*
X20253944Y-15343460D02*
X20234896Y-15352984D01*
X20234896Y-15352984D02*
X20177753Y-15352984D01*
X20177753Y-15352984D02*
X20158706Y-15343460D01*
X20158706Y-15343460D02*
X20149182Y-15333936D01*
X20368229Y-15352984D02*
X20406325Y-15352984D01*
X20406325Y-15352984D02*
X20425372Y-15343460D01*
X20425372Y-15343460D02*
X20434896Y-15333936D01*
X20434896Y-15333936D02*
X20453944Y-15305365D01*
X20453944Y-15305365D02*
X20463468Y-15267269D01*
X20463468Y-15267269D02*
X20463468Y-15191079D01*
X20463468Y-15191079D02*
X20453944Y-15172031D01*
X20453944Y-15172031D02*
X20444420Y-15162508D01*
X20444420Y-15162508D02*
X20425372Y-15152984D01*
X20425372Y-15152984D02*
X20387277Y-15152984D01*
X20387277Y-15152984D02*
X20368229Y-15162508D01*
X20368229Y-15162508D02*
X20358706Y-15172031D01*
X20358706Y-15172031D02*
X20349182Y-15191079D01*
X20349182Y-15191079D02*
X20349182Y-15238698D01*
X20349182Y-15238698D02*
X20358706Y-15257746D01*
X20358706Y-15257746D02*
X20368229Y-15267269D01*
X20368229Y-15267269D02*
X20387277Y-15276793D01*
X20387277Y-15276793D02*
X20425372Y-15276793D01*
X20425372Y-15276793D02*
X20444420Y-15267269D01*
X20444420Y-15267269D02*
X20453944Y-15257746D01*
X20453944Y-15257746D02*
X20463468Y-15238698D01*
X20634896Y-15219650D02*
X20634896Y-15352984D01*
X20587277Y-15143460D02*
X20539658Y-15286317D01*
X20539658Y-15286317D02*
X20663468Y-15286317D01*
X20730134Y-15152984D02*
X20730134Y-15191079D01*
X20806325Y-15152984D02*
X20806325Y-15191079D01*
X21101563Y-15429174D02*
X21092039Y-15419650D01*
X21092039Y-15419650D02*
X21072991Y-15391079D01*
X21072991Y-15391079D02*
X21063468Y-15372031D01*
X21063468Y-15372031D02*
X21053944Y-15343460D01*
X21053944Y-15343460D02*
X21044420Y-15295841D01*
X21044420Y-15295841D02*
X21044420Y-15257746D01*
X21044420Y-15257746D02*
X21053944Y-15210127D01*
X21053944Y-15210127D02*
X21063468Y-15181555D01*
X21063468Y-15181555D02*
X21072991Y-15162508D01*
X21072991Y-15162508D02*
X21092039Y-15133936D01*
X21092039Y-15133936D02*
X21101563Y-15124412D01*
X21206325Y-15238698D02*
X21187277Y-15229174D01*
X21187277Y-15229174D02*
X21177753Y-15219650D01*
X21177753Y-15219650D02*
X21168230Y-15200603D01*
X21168230Y-15200603D02*
X21168230Y-15191079D01*
X21168230Y-15191079D02*
X21177753Y-15172031D01*
X21177753Y-15172031D02*
X21187277Y-15162508D01*
X21187277Y-15162508D02*
X21206325Y-15152984D01*
X21206325Y-15152984D02*
X21244420Y-15152984D01*
X21244420Y-15152984D02*
X21263468Y-15162508D01*
X21263468Y-15162508D02*
X21272991Y-15172031D01*
X21272991Y-15172031D02*
X21282515Y-15191079D01*
X21282515Y-15191079D02*
X21282515Y-15200603D01*
X21282515Y-15200603D02*
X21272991Y-15219650D01*
X21272991Y-15219650D02*
X21263468Y-15229174D01*
X21263468Y-15229174D02*
X21244420Y-15238698D01*
X21244420Y-15238698D02*
X21206325Y-15238698D01*
X21206325Y-15238698D02*
X21187277Y-15248222D01*
X21187277Y-15248222D02*
X21177753Y-15257746D01*
X21177753Y-15257746D02*
X21168230Y-15276793D01*
X21168230Y-15276793D02*
X21168230Y-15314888D01*
X21168230Y-15314888D02*
X21177753Y-15333936D01*
X21177753Y-15333936D02*
X21187277Y-15343460D01*
X21187277Y-15343460D02*
X21206325Y-15352984D01*
X21206325Y-15352984D02*
X21244420Y-15352984D01*
X21244420Y-15352984D02*
X21263468Y-15343460D01*
X21263468Y-15343460D02*
X21272991Y-15333936D01*
X21272991Y-15333936D02*
X21282515Y-15314888D01*
X21282515Y-15314888D02*
X21282515Y-15276793D01*
X21282515Y-15276793D02*
X21272991Y-15257746D01*
X21272991Y-15257746D02*
X21263468Y-15248222D01*
X21263468Y-15248222D02*
X21244420Y-15238698D01*
X21520611Y-15352984D02*
X21520611Y-15152984D01*
X21606325Y-15352984D02*
X21606325Y-15248222D01*
X21606325Y-15248222D02*
X21596801Y-15229174D01*
X21596801Y-15229174D02*
X21577753Y-15219650D01*
X21577753Y-15219650D02*
X21549182Y-15219650D01*
X21549182Y-15219650D02*
X21530134Y-15229174D01*
X21530134Y-15229174D02*
X21520611Y-15238698D01*
X21730134Y-15352984D02*
X21711087Y-15343460D01*
X21711087Y-15343460D02*
X21701563Y-15333936D01*
X21701563Y-15333936D02*
X21692039Y-15314888D01*
X21692039Y-15314888D02*
X21692039Y-15257746D01*
X21692039Y-15257746D02*
X21701563Y-15238698D01*
X21701563Y-15238698D02*
X21711087Y-15229174D01*
X21711087Y-15229174D02*
X21730134Y-15219650D01*
X21730134Y-15219650D02*
X21758706Y-15219650D01*
X21758706Y-15219650D02*
X21777753Y-15229174D01*
X21777753Y-15229174D02*
X21787277Y-15238698D01*
X21787277Y-15238698D02*
X21796801Y-15257746D01*
X21796801Y-15257746D02*
X21796801Y-15314888D01*
X21796801Y-15314888D02*
X21787277Y-15333936D01*
X21787277Y-15333936D02*
X21777753Y-15343460D01*
X21777753Y-15343460D02*
X21758706Y-15352984D01*
X21758706Y-15352984D02*
X21730134Y-15352984D01*
X21911087Y-15352984D02*
X21892039Y-15343460D01*
X21892039Y-15343460D02*
X21882515Y-15324412D01*
X21882515Y-15324412D02*
X21882515Y-15152984D01*
X22063468Y-15343460D02*
X22044420Y-15352984D01*
X22044420Y-15352984D02*
X22006325Y-15352984D01*
X22006325Y-15352984D02*
X21987277Y-15343460D01*
X21987277Y-15343460D02*
X21977753Y-15324412D01*
X21977753Y-15324412D02*
X21977753Y-15248222D01*
X21977753Y-15248222D02*
X21987277Y-15229174D01*
X21987277Y-15229174D02*
X22006325Y-15219650D01*
X22006325Y-15219650D02*
X22044420Y-15219650D01*
X22044420Y-15219650D02*
X22063468Y-15229174D01*
X22063468Y-15229174D02*
X22072992Y-15248222D01*
X22072992Y-15248222D02*
X22072992Y-15267269D01*
X22072992Y-15267269D02*
X21977753Y-15286317D01*
X22149182Y-15343460D02*
X22168230Y-15352984D01*
X22168230Y-15352984D02*
X22206325Y-15352984D01*
X22206325Y-15352984D02*
X22225373Y-15343460D01*
X22225373Y-15343460D02*
X22234896Y-15324412D01*
X22234896Y-15324412D02*
X22234896Y-15314888D01*
X22234896Y-15314888D02*
X22225373Y-15295841D01*
X22225373Y-15295841D02*
X22206325Y-15286317D01*
X22206325Y-15286317D02*
X22177753Y-15286317D01*
X22177753Y-15286317D02*
X22158706Y-15276793D01*
X22158706Y-15276793D02*
X22149182Y-15257746D01*
X22149182Y-15257746D02*
X22149182Y-15248222D01*
X22149182Y-15248222D02*
X22158706Y-15229174D01*
X22158706Y-15229174D02*
X22177753Y-15219650D01*
X22177753Y-15219650D02*
X22206325Y-15219650D01*
X22206325Y-15219650D02*
X22225373Y-15229174D01*
X22301563Y-15429174D02*
X22311087Y-15419650D01*
X22311087Y-15419650D02*
X22330134Y-15391079D01*
X22330134Y-15391079D02*
X22339658Y-15372031D01*
X22339658Y-15372031D02*
X22349182Y-15343460D01*
X22349182Y-15343460D02*
X22358706Y-15295841D01*
X22358706Y-15295841D02*
X22358706Y-15257746D01*
X22358706Y-15257746D02*
X22349182Y-15210127D01*
X22349182Y-15210127D02*
X22339658Y-15181555D01*
X22339658Y-15181555D02*
X22330134Y-15162508D01*
X22330134Y-15162508D02*
X22311087Y-15133936D01*
X22311087Y-15133936D02*
X22301563Y-15124412D01*
D13*
X17456500Y-15455500D02*
X17456500Y-15595500D01*
X17386500Y-15525500D02*
X17526500Y-15525500D01*
D11*
X17892039Y-15616984D02*
X17777753Y-15616984D01*
X17834896Y-15616984D02*
X17834896Y-15416984D01*
X17834896Y-15416984D02*
X17815848Y-15445555D01*
X17815848Y-15445555D02*
X17796801Y-15464603D01*
X17796801Y-15464603D02*
X17777753Y-15474127D01*
X17977753Y-15597936D02*
X17987277Y-15607460D01*
X17987277Y-15607460D02*
X17977753Y-15616984D01*
X17977753Y-15616984D02*
X17968229Y-15607460D01*
X17968229Y-15607460D02*
X17977753Y-15597936D01*
X17977753Y-15597936D02*
X17977753Y-15616984D01*
X18158705Y-15483650D02*
X18158705Y-15616984D01*
X18111086Y-15407460D02*
X18063467Y-15550317D01*
X18063467Y-15550317D02*
X18187277Y-15550317D01*
X18301563Y-15416984D02*
X18320610Y-15416984D01*
X18320610Y-15416984D02*
X18339658Y-15426508D01*
X18339658Y-15426508D02*
X18349182Y-15436031D01*
X18349182Y-15436031D02*
X18358705Y-15455079D01*
X18358705Y-15455079D02*
X18368229Y-15493174D01*
X18368229Y-15493174D02*
X18368229Y-15540793D01*
X18368229Y-15540793D02*
X18358705Y-15578888D01*
X18358705Y-15578888D02*
X18349182Y-15597936D01*
X18349182Y-15597936D02*
X18339658Y-15607460D01*
X18339658Y-15607460D02*
X18320610Y-15616984D01*
X18320610Y-15616984D02*
X18301563Y-15616984D01*
X18301563Y-15616984D02*
X18282515Y-15607460D01*
X18282515Y-15607460D02*
X18272991Y-15597936D01*
X18272991Y-15597936D02*
X18263467Y-15578888D01*
X18263467Y-15578888D02*
X18253944Y-15540793D01*
X18253944Y-15540793D02*
X18253944Y-15493174D01*
X18253944Y-15493174D02*
X18263467Y-15455079D01*
X18263467Y-15455079D02*
X18272991Y-15436031D01*
X18272991Y-15436031D02*
X18282515Y-15426508D01*
X18282515Y-15426508D02*
X18301563Y-15416984D01*
X18492039Y-15416984D02*
X18511086Y-15416984D01*
X18511086Y-15416984D02*
X18530134Y-15426508D01*
X18530134Y-15426508D02*
X18539658Y-15436031D01*
X18539658Y-15436031D02*
X18549182Y-15455079D01*
X18549182Y-15455079D02*
X18558705Y-15493174D01*
X18558705Y-15493174D02*
X18558705Y-15540793D01*
X18558705Y-15540793D02*
X18549182Y-15578888D01*
X18549182Y-15578888D02*
X18539658Y-15597936D01*
X18539658Y-15597936D02*
X18530134Y-15607460D01*
X18530134Y-15607460D02*
X18511086Y-15616984D01*
X18511086Y-15616984D02*
X18492039Y-15616984D01*
X18492039Y-15616984D02*
X18472991Y-15607460D01*
X18472991Y-15607460D02*
X18463467Y-15597936D01*
X18463467Y-15597936D02*
X18453944Y-15578888D01*
X18453944Y-15578888D02*
X18444420Y-15540793D01*
X18444420Y-15540793D02*
X18444420Y-15493174D01*
X18444420Y-15493174D02*
X18453944Y-15455079D01*
X18453944Y-15455079D02*
X18463467Y-15436031D01*
X18463467Y-15436031D02*
X18472991Y-15426508D01*
X18472991Y-15426508D02*
X18492039Y-15416984D01*
X18644420Y-15616984D02*
X18644420Y-15483650D01*
X18644420Y-15502698D02*
X18653944Y-15493174D01*
X18653944Y-15493174D02*
X18672991Y-15483650D01*
X18672991Y-15483650D02*
X18701563Y-15483650D01*
X18701563Y-15483650D02*
X18720610Y-15493174D01*
X18720610Y-15493174D02*
X18730134Y-15512222D01*
X18730134Y-15512222D02*
X18730134Y-15616984D01*
X18730134Y-15512222D02*
X18739658Y-15493174D01*
X18739658Y-15493174D02*
X18758705Y-15483650D01*
X18758705Y-15483650D02*
X18787277Y-15483650D01*
X18787277Y-15483650D02*
X18806325Y-15493174D01*
X18806325Y-15493174D02*
X18815848Y-15512222D01*
X18815848Y-15512222D02*
X18815848Y-15616984D01*
X18911086Y-15616984D02*
X18911086Y-15483650D01*
X18911086Y-15502698D02*
X18920610Y-15493174D01*
X18920610Y-15493174D02*
X18939658Y-15483650D01*
X18939658Y-15483650D02*
X18968229Y-15483650D01*
X18968229Y-15483650D02*
X18987277Y-15493174D01*
X18987277Y-15493174D02*
X18996801Y-15512222D01*
X18996801Y-15512222D02*
X18996801Y-15616984D01*
X18996801Y-15512222D02*
X19006325Y-15493174D01*
X19006325Y-15493174D02*
X19025372Y-15483650D01*
X19025372Y-15483650D02*
X19053944Y-15483650D01*
X19053944Y-15483650D02*
X19072991Y-15493174D01*
X19072991Y-15493174D02*
X19082515Y-15512222D01*
X19082515Y-15512222D02*
X19082515Y-15616984D01*
X19472991Y-15407460D02*
X19301563Y-15664603D01*
X19730134Y-15416984D02*
X19749182Y-15416984D01*
X19749182Y-15416984D02*
X19768229Y-15426508D01*
X19768229Y-15426508D02*
X19777753Y-15436031D01*
X19777753Y-15436031D02*
X19787277Y-15455079D01*
X19787277Y-15455079D02*
X19796801Y-15493174D01*
X19796801Y-15493174D02*
X19796801Y-15540793D01*
X19796801Y-15540793D02*
X19787277Y-15578888D01*
X19787277Y-15578888D02*
X19777753Y-15597936D01*
X19777753Y-15597936D02*
X19768229Y-15607460D01*
X19768229Y-15607460D02*
X19749182Y-15616984D01*
X19749182Y-15616984D02*
X19730134Y-15616984D01*
X19730134Y-15616984D02*
X19711087Y-15607460D01*
X19711087Y-15607460D02*
X19701563Y-15597936D01*
X19701563Y-15597936D02*
X19692039Y-15578888D01*
X19692039Y-15578888D02*
X19682515Y-15540793D01*
X19682515Y-15540793D02*
X19682515Y-15493174D01*
X19682515Y-15493174D02*
X19692039Y-15455079D01*
X19692039Y-15455079D02*
X19701563Y-15436031D01*
X19701563Y-15436031D02*
X19711087Y-15426508D01*
X19711087Y-15426508D02*
X19730134Y-15416984D01*
X19882515Y-15597936D02*
X19892039Y-15607460D01*
X19892039Y-15607460D02*
X19882515Y-15616984D01*
X19882515Y-15616984D02*
X19872991Y-15607460D01*
X19872991Y-15607460D02*
X19882515Y-15597936D01*
X19882515Y-15597936D02*
X19882515Y-15616984D01*
X20015848Y-15416984D02*
X20034896Y-15416984D01*
X20034896Y-15416984D02*
X20053944Y-15426508D01*
X20053944Y-15426508D02*
X20063468Y-15436031D01*
X20063468Y-15436031D02*
X20072991Y-15455079D01*
X20072991Y-15455079D02*
X20082515Y-15493174D01*
X20082515Y-15493174D02*
X20082515Y-15540793D01*
X20082515Y-15540793D02*
X20072991Y-15578888D01*
X20072991Y-15578888D02*
X20063468Y-15597936D01*
X20063468Y-15597936D02*
X20053944Y-15607460D01*
X20053944Y-15607460D02*
X20034896Y-15616984D01*
X20034896Y-15616984D02*
X20015848Y-15616984D01*
X20015848Y-15616984D02*
X19996801Y-15607460D01*
X19996801Y-15607460D02*
X19987277Y-15597936D01*
X19987277Y-15597936D02*
X19977753Y-15578888D01*
X19977753Y-15578888D02*
X19968229Y-15540793D01*
X19968229Y-15540793D02*
X19968229Y-15493174D01*
X19968229Y-15493174D02*
X19977753Y-15455079D01*
X19977753Y-15455079D02*
X19987277Y-15436031D01*
X19987277Y-15436031D02*
X19996801Y-15426508D01*
X19996801Y-15426508D02*
X20015848Y-15416984D01*
X20263468Y-15416984D02*
X20168229Y-15416984D01*
X20168229Y-15416984D02*
X20158706Y-15512222D01*
X20158706Y-15512222D02*
X20168229Y-15502698D01*
X20168229Y-15502698D02*
X20187277Y-15493174D01*
X20187277Y-15493174D02*
X20234896Y-15493174D01*
X20234896Y-15493174D02*
X20253944Y-15502698D01*
X20253944Y-15502698D02*
X20263468Y-15512222D01*
X20263468Y-15512222D02*
X20272991Y-15531269D01*
X20272991Y-15531269D02*
X20272991Y-15578888D01*
X20272991Y-15578888D02*
X20263468Y-15597936D01*
X20263468Y-15597936D02*
X20253944Y-15607460D01*
X20253944Y-15607460D02*
X20234896Y-15616984D01*
X20234896Y-15616984D02*
X20187277Y-15616984D01*
X20187277Y-15616984D02*
X20168229Y-15607460D01*
X20168229Y-15607460D02*
X20158706Y-15597936D01*
X20453944Y-15416984D02*
X20358706Y-15416984D01*
X20358706Y-15416984D02*
X20349182Y-15512222D01*
X20349182Y-15512222D02*
X20358706Y-15502698D01*
X20358706Y-15502698D02*
X20377753Y-15493174D01*
X20377753Y-15493174D02*
X20425372Y-15493174D01*
X20425372Y-15493174D02*
X20444420Y-15502698D01*
X20444420Y-15502698D02*
X20453944Y-15512222D01*
X20453944Y-15512222D02*
X20463468Y-15531269D01*
X20463468Y-15531269D02*
X20463468Y-15578888D01*
X20463468Y-15578888D02*
X20453944Y-15597936D01*
X20453944Y-15597936D02*
X20444420Y-15607460D01*
X20444420Y-15607460D02*
X20425372Y-15616984D01*
X20425372Y-15616984D02*
X20377753Y-15616984D01*
X20377753Y-15616984D02*
X20358706Y-15607460D01*
X20358706Y-15607460D02*
X20349182Y-15597936D01*
X20653944Y-15616984D02*
X20539658Y-15616984D01*
X20596801Y-15616984D02*
X20596801Y-15416984D01*
X20596801Y-15416984D02*
X20577753Y-15445555D01*
X20577753Y-15445555D02*
X20558706Y-15464603D01*
X20558706Y-15464603D02*
X20539658Y-15474127D01*
X20730134Y-15416984D02*
X20730134Y-15455079D01*
X20806325Y-15416984D02*
X20806325Y-15455079D01*
X21101563Y-15693174D02*
X21092039Y-15683650D01*
X21092039Y-15683650D02*
X21072991Y-15655079D01*
X21072991Y-15655079D02*
X21063468Y-15636031D01*
X21063468Y-15636031D02*
X21053944Y-15607460D01*
X21053944Y-15607460D02*
X21044420Y-15559841D01*
X21044420Y-15559841D02*
X21044420Y-15521746D01*
X21044420Y-15521746D02*
X21053944Y-15474127D01*
X21053944Y-15474127D02*
X21063468Y-15445555D01*
X21063468Y-15445555D02*
X21072991Y-15426508D01*
X21072991Y-15426508D02*
X21092039Y-15397936D01*
X21092039Y-15397936D02*
X21101563Y-15388412D01*
X21168230Y-15436031D02*
X21177753Y-15426508D01*
X21177753Y-15426508D02*
X21196801Y-15416984D01*
X21196801Y-15416984D02*
X21244420Y-15416984D01*
X21244420Y-15416984D02*
X21263468Y-15426508D01*
X21263468Y-15426508D02*
X21272991Y-15436031D01*
X21272991Y-15436031D02*
X21282515Y-15455079D01*
X21282515Y-15455079D02*
X21282515Y-15474127D01*
X21282515Y-15474127D02*
X21272991Y-15502698D01*
X21272991Y-15502698D02*
X21158706Y-15616984D01*
X21158706Y-15616984D02*
X21282515Y-15616984D01*
X21520611Y-15616984D02*
X21520611Y-15416984D01*
X21606325Y-15616984D02*
X21606325Y-15512222D01*
X21606325Y-15512222D02*
X21596801Y-15493174D01*
X21596801Y-15493174D02*
X21577753Y-15483650D01*
X21577753Y-15483650D02*
X21549182Y-15483650D01*
X21549182Y-15483650D02*
X21530134Y-15493174D01*
X21530134Y-15493174D02*
X21520611Y-15502698D01*
X21730134Y-15616984D02*
X21711087Y-15607460D01*
X21711087Y-15607460D02*
X21701563Y-15597936D01*
X21701563Y-15597936D02*
X21692039Y-15578888D01*
X21692039Y-15578888D02*
X21692039Y-15521746D01*
X21692039Y-15521746D02*
X21701563Y-15502698D01*
X21701563Y-15502698D02*
X21711087Y-15493174D01*
X21711087Y-15493174D02*
X21730134Y-15483650D01*
X21730134Y-15483650D02*
X21758706Y-15483650D01*
X21758706Y-15483650D02*
X21777753Y-15493174D01*
X21777753Y-15493174D02*
X21787277Y-15502698D01*
X21787277Y-15502698D02*
X21796801Y-15521746D01*
X21796801Y-15521746D02*
X21796801Y-15578888D01*
X21796801Y-15578888D02*
X21787277Y-15597936D01*
X21787277Y-15597936D02*
X21777753Y-15607460D01*
X21777753Y-15607460D02*
X21758706Y-15616984D01*
X21758706Y-15616984D02*
X21730134Y-15616984D01*
X21911087Y-15616984D02*
X21892039Y-15607460D01*
X21892039Y-15607460D02*
X21882515Y-15588412D01*
X21882515Y-15588412D02*
X21882515Y-15416984D01*
X22063468Y-15607460D02*
X22044420Y-15616984D01*
X22044420Y-15616984D02*
X22006325Y-15616984D01*
X22006325Y-15616984D02*
X21987277Y-15607460D01*
X21987277Y-15607460D02*
X21977753Y-15588412D01*
X21977753Y-15588412D02*
X21977753Y-15512222D01*
X21977753Y-15512222D02*
X21987277Y-15493174D01*
X21987277Y-15493174D02*
X22006325Y-15483650D01*
X22006325Y-15483650D02*
X22044420Y-15483650D01*
X22044420Y-15483650D02*
X22063468Y-15493174D01*
X22063468Y-15493174D02*
X22072992Y-15512222D01*
X22072992Y-15512222D02*
X22072992Y-15531269D01*
X22072992Y-15531269D02*
X21977753Y-15550317D01*
X22149182Y-15607460D02*
X22168230Y-15616984D01*
X22168230Y-15616984D02*
X22206325Y-15616984D01*
X22206325Y-15616984D02*
X22225373Y-15607460D01*
X22225373Y-15607460D02*
X22234896Y-15588412D01*
X22234896Y-15588412D02*
X22234896Y-15578888D01*
X22234896Y-15578888D02*
X22225373Y-15559841D01*
X22225373Y-15559841D02*
X22206325Y-15550317D01*
X22206325Y-15550317D02*
X22177753Y-15550317D01*
X22177753Y-15550317D02*
X22158706Y-15540793D01*
X22158706Y-15540793D02*
X22149182Y-15521746D01*
X22149182Y-15521746D02*
X22149182Y-15512222D01*
X22149182Y-15512222D02*
X22158706Y-15493174D01*
X22158706Y-15493174D02*
X22177753Y-15483650D01*
X22177753Y-15483650D02*
X22206325Y-15483650D01*
X22206325Y-15483650D02*
X22225373Y-15493174D01*
X22301563Y-15693174D02*
X22311087Y-15683650D01*
X22311087Y-15683650D02*
X22330134Y-15655079D01*
X22330134Y-15655079D02*
X22339658Y-15636031D01*
X22339658Y-15636031D02*
X22349182Y-15607460D01*
X22349182Y-15607460D02*
X22358706Y-15559841D01*
X22358706Y-15559841D02*
X22358706Y-15521746D01*
X22358706Y-15521746D02*
X22349182Y-15474127D01*
X22349182Y-15474127D02*
X22339658Y-15445555D01*
X22339658Y-15445555D02*
X22330134Y-15426508D01*
X22330134Y-15426508D02*
X22311087Y-15397936D01*
X22311087Y-15397936D02*
X22301563Y-15388412D01*
X17497211Y-15860211D02*
X17497211Y-15718789D01*
X17355789Y-15718789D01*
X17355789Y-15860211D01*
X17497211Y-15860211D01*
X17777753Y-15700031D02*
X17787277Y-15690508D01*
X17787277Y-15690508D02*
X17806324Y-15680984D01*
X17806324Y-15680984D02*
X17853944Y-15680984D01*
X17853944Y-15680984D02*
X17872991Y-15690508D01*
X17872991Y-15690508D02*
X17882515Y-15700031D01*
X17882515Y-15700031D02*
X17892039Y-15719079D01*
X17892039Y-15719079D02*
X17892039Y-15738127D01*
X17892039Y-15738127D02*
X17882515Y-15766698D01*
X17882515Y-15766698D02*
X17768229Y-15880984D01*
X17768229Y-15880984D02*
X17892039Y-15880984D01*
X17977753Y-15861936D02*
X17987277Y-15871460D01*
X17987277Y-15871460D02*
X17977753Y-15880984D01*
X17977753Y-15880984D02*
X17968229Y-15871460D01*
X17968229Y-15871460D02*
X17977753Y-15861936D01*
X17977753Y-15861936D02*
X17977753Y-15880984D01*
X18168229Y-15680984D02*
X18072991Y-15680984D01*
X18072991Y-15680984D02*
X18063467Y-15776222D01*
X18063467Y-15776222D02*
X18072991Y-15766698D01*
X18072991Y-15766698D02*
X18092039Y-15757174D01*
X18092039Y-15757174D02*
X18139658Y-15757174D01*
X18139658Y-15757174D02*
X18158705Y-15766698D01*
X18158705Y-15766698D02*
X18168229Y-15776222D01*
X18168229Y-15776222D02*
X18177753Y-15795269D01*
X18177753Y-15795269D02*
X18177753Y-15842888D01*
X18177753Y-15842888D02*
X18168229Y-15861936D01*
X18168229Y-15861936D02*
X18158705Y-15871460D01*
X18158705Y-15871460D02*
X18139658Y-15880984D01*
X18139658Y-15880984D02*
X18092039Y-15880984D01*
X18092039Y-15880984D02*
X18072991Y-15871460D01*
X18072991Y-15871460D02*
X18063467Y-15861936D01*
X18301563Y-15680984D02*
X18320610Y-15680984D01*
X18320610Y-15680984D02*
X18339658Y-15690508D01*
X18339658Y-15690508D02*
X18349182Y-15700031D01*
X18349182Y-15700031D02*
X18358705Y-15719079D01*
X18358705Y-15719079D02*
X18368229Y-15757174D01*
X18368229Y-15757174D02*
X18368229Y-15804793D01*
X18368229Y-15804793D02*
X18358705Y-15842888D01*
X18358705Y-15842888D02*
X18349182Y-15861936D01*
X18349182Y-15861936D02*
X18339658Y-15871460D01*
X18339658Y-15871460D02*
X18320610Y-15880984D01*
X18320610Y-15880984D02*
X18301563Y-15880984D01*
X18301563Y-15880984D02*
X18282515Y-15871460D01*
X18282515Y-15871460D02*
X18272991Y-15861936D01*
X18272991Y-15861936D02*
X18263467Y-15842888D01*
X18263467Y-15842888D02*
X18253944Y-15804793D01*
X18253944Y-15804793D02*
X18253944Y-15757174D01*
X18253944Y-15757174D02*
X18263467Y-15719079D01*
X18263467Y-15719079D02*
X18272991Y-15700031D01*
X18272991Y-15700031D02*
X18282515Y-15690508D01*
X18282515Y-15690508D02*
X18301563Y-15680984D01*
X18492039Y-15680984D02*
X18511086Y-15680984D01*
X18511086Y-15680984D02*
X18530134Y-15690508D01*
X18530134Y-15690508D02*
X18539658Y-15700031D01*
X18539658Y-15700031D02*
X18549182Y-15719079D01*
X18549182Y-15719079D02*
X18558705Y-15757174D01*
X18558705Y-15757174D02*
X18558705Y-15804793D01*
X18558705Y-15804793D02*
X18549182Y-15842888D01*
X18549182Y-15842888D02*
X18539658Y-15861936D01*
X18539658Y-15861936D02*
X18530134Y-15871460D01*
X18530134Y-15871460D02*
X18511086Y-15880984D01*
X18511086Y-15880984D02*
X18492039Y-15880984D01*
X18492039Y-15880984D02*
X18472991Y-15871460D01*
X18472991Y-15871460D02*
X18463467Y-15861936D01*
X18463467Y-15861936D02*
X18453944Y-15842888D01*
X18453944Y-15842888D02*
X18444420Y-15804793D01*
X18444420Y-15804793D02*
X18444420Y-15757174D01*
X18444420Y-15757174D02*
X18453944Y-15719079D01*
X18453944Y-15719079D02*
X18463467Y-15700031D01*
X18463467Y-15700031D02*
X18472991Y-15690508D01*
X18472991Y-15690508D02*
X18492039Y-15680984D01*
X18644420Y-15880984D02*
X18644420Y-15747650D01*
X18644420Y-15766698D02*
X18653944Y-15757174D01*
X18653944Y-15757174D02*
X18672991Y-15747650D01*
X18672991Y-15747650D02*
X18701563Y-15747650D01*
X18701563Y-15747650D02*
X18720610Y-15757174D01*
X18720610Y-15757174D02*
X18730134Y-15776222D01*
X18730134Y-15776222D02*
X18730134Y-15880984D01*
X18730134Y-15776222D02*
X18739658Y-15757174D01*
X18739658Y-15757174D02*
X18758705Y-15747650D01*
X18758705Y-15747650D02*
X18787277Y-15747650D01*
X18787277Y-15747650D02*
X18806325Y-15757174D01*
X18806325Y-15757174D02*
X18815848Y-15776222D01*
X18815848Y-15776222D02*
X18815848Y-15880984D01*
X18911086Y-15880984D02*
X18911086Y-15747650D01*
X18911086Y-15766698D02*
X18920610Y-15757174D01*
X18920610Y-15757174D02*
X18939658Y-15747650D01*
X18939658Y-15747650D02*
X18968229Y-15747650D01*
X18968229Y-15747650D02*
X18987277Y-15757174D01*
X18987277Y-15757174D02*
X18996801Y-15776222D01*
X18996801Y-15776222D02*
X18996801Y-15880984D01*
X18996801Y-15776222D02*
X19006325Y-15757174D01*
X19006325Y-15757174D02*
X19025372Y-15747650D01*
X19025372Y-15747650D02*
X19053944Y-15747650D01*
X19053944Y-15747650D02*
X19072991Y-15757174D01*
X19072991Y-15757174D02*
X19082515Y-15776222D01*
X19082515Y-15776222D02*
X19082515Y-15880984D01*
X19472991Y-15671460D02*
X19301563Y-15928603D01*
X19730134Y-15680984D02*
X19749182Y-15680984D01*
X19749182Y-15680984D02*
X19768229Y-15690508D01*
X19768229Y-15690508D02*
X19777753Y-15700031D01*
X19777753Y-15700031D02*
X19787277Y-15719079D01*
X19787277Y-15719079D02*
X19796801Y-15757174D01*
X19796801Y-15757174D02*
X19796801Y-15804793D01*
X19796801Y-15804793D02*
X19787277Y-15842888D01*
X19787277Y-15842888D02*
X19777753Y-15861936D01*
X19777753Y-15861936D02*
X19768229Y-15871460D01*
X19768229Y-15871460D02*
X19749182Y-15880984D01*
X19749182Y-15880984D02*
X19730134Y-15880984D01*
X19730134Y-15880984D02*
X19711087Y-15871460D01*
X19711087Y-15871460D02*
X19701563Y-15861936D01*
X19701563Y-15861936D02*
X19692039Y-15842888D01*
X19692039Y-15842888D02*
X19682515Y-15804793D01*
X19682515Y-15804793D02*
X19682515Y-15757174D01*
X19682515Y-15757174D02*
X19692039Y-15719079D01*
X19692039Y-15719079D02*
X19701563Y-15700031D01*
X19701563Y-15700031D02*
X19711087Y-15690508D01*
X19711087Y-15690508D02*
X19730134Y-15680984D01*
X19882515Y-15861936D02*
X19892039Y-15871460D01*
X19892039Y-15871460D02*
X19882515Y-15880984D01*
X19882515Y-15880984D02*
X19872991Y-15871460D01*
X19872991Y-15871460D02*
X19882515Y-15861936D01*
X19882515Y-15861936D02*
X19882515Y-15880984D01*
X20015848Y-15680984D02*
X20034896Y-15680984D01*
X20034896Y-15680984D02*
X20053944Y-15690508D01*
X20053944Y-15690508D02*
X20063468Y-15700031D01*
X20063468Y-15700031D02*
X20072991Y-15719079D01*
X20072991Y-15719079D02*
X20082515Y-15757174D01*
X20082515Y-15757174D02*
X20082515Y-15804793D01*
X20082515Y-15804793D02*
X20072991Y-15842888D01*
X20072991Y-15842888D02*
X20063468Y-15861936D01*
X20063468Y-15861936D02*
X20053944Y-15871460D01*
X20053944Y-15871460D02*
X20034896Y-15880984D01*
X20034896Y-15880984D02*
X20015848Y-15880984D01*
X20015848Y-15880984D02*
X19996801Y-15871460D01*
X19996801Y-15871460D02*
X19987277Y-15861936D01*
X19987277Y-15861936D02*
X19977753Y-15842888D01*
X19977753Y-15842888D02*
X19968229Y-15804793D01*
X19968229Y-15804793D02*
X19968229Y-15757174D01*
X19968229Y-15757174D02*
X19977753Y-15719079D01*
X19977753Y-15719079D02*
X19987277Y-15700031D01*
X19987277Y-15700031D02*
X19996801Y-15690508D01*
X19996801Y-15690508D02*
X20015848Y-15680984D01*
X20177753Y-15880984D02*
X20215848Y-15880984D01*
X20215848Y-15880984D02*
X20234896Y-15871460D01*
X20234896Y-15871460D02*
X20244420Y-15861936D01*
X20244420Y-15861936D02*
X20263468Y-15833365D01*
X20263468Y-15833365D02*
X20272991Y-15795269D01*
X20272991Y-15795269D02*
X20272991Y-15719079D01*
X20272991Y-15719079D02*
X20263468Y-15700031D01*
X20263468Y-15700031D02*
X20253944Y-15690508D01*
X20253944Y-15690508D02*
X20234896Y-15680984D01*
X20234896Y-15680984D02*
X20196801Y-15680984D01*
X20196801Y-15680984D02*
X20177753Y-15690508D01*
X20177753Y-15690508D02*
X20168229Y-15700031D01*
X20168229Y-15700031D02*
X20158706Y-15719079D01*
X20158706Y-15719079D02*
X20158706Y-15766698D01*
X20158706Y-15766698D02*
X20168229Y-15785746D01*
X20168229Y-15785746D02*
X20177753Y-15795269D01*
X20177753Y-15795269D02*
X20196801Y-15804793D01*
X20196801Y-15804793D02*
X20234896Y-15804793D01*
X20234896Y-15804793D02*
X20253944Y-15795269D01*
X20253944Y-15795269D02*
X20263468Y-15785746D01*
X20263468Y-15785746D02*
X20272991Y-15766698D01*
X20387277Y-15766698D02*
X20368229Y-15757174D01*
X20368229Y-15757174D02*
X20358706Y-15747650D01*
X20358706Y-15747650D02*
X20349182Y-15728603D01*
X20349182Y-15728603D02*
X20349182Y-15719079D01*
X20349182Y-15719079D02*
X20358706Y-15700031D01*
X20358706Y-15700031D02*
X20368229Y-15690508D01*
X20368229Y-15690508D02*
X20387277Y-15680984D01*
X20387277Y-15680984D02*
X20425372Y-15680984D01*
X20425372Y-15680984D02*
X20444420Y-15690508D01*
X20444420Y-15690508D02*
X20453944Y-15700031D01*
X20453944Y-15700031D02*
X20463468Y-15719079D01*
X20463468Y-15719079D02*
X20463468Y-15728603D01*
X20463468Y-15728603D02*
X20453944Y-15747650D01*
X20453944Y-15747650D02*
X20444420Y-15757174D01*
X20444420Y-15757174D02*
X20425372Y-15766698D01*
X20425372Y-15766698D02*
X20387277Y-15766698D01*
X20387277Y-15766698D02*
X20368229Y-15776222D01*
X20368229Y-15776222D02*
X20358706Y-15785746D01*
X20358706Y-15785746D02*
X20349182Y-15804793D01*
X20349182Y-15804793D02*
X20349182Y-15842888D01*
X20349182Y-15842888D02*
X20358706Y-15861936D01*
X20358706Y-15861936D02*
X20368229Y-15871460D01*
X20368229Y-15871460D02*
X20387277Y-15880984D01*
X20387277Y-15880984D02*
X20425372Y-15880984D01*
X20425372Y-15880984D02*
X20444420Y-15871460D01*
X20444420Y-15871460D02*
X20453944Y-15861936D01*
X20453944Y-15861936D02*
X20463468Y-15842888D01*
X20463468Y-15842888D02*
X20463468Y-15804793D01*
X20463468Y-15804793D02*
X20453944Y-15785746D01*
X20453944Y-15785746D02*
X20444420Y-15776222D01*
X20444420Y-15776222D02*
X20425372Y-15766698D01*
X20634896Y-15747650D02*
X20634896Y-15880984D01*
X20587277Y-15671460D02*
X20539658Y-15814317D01*
X20539658Y-15814317D02*
X20663468Y-15814317D01*
X20730134Y-15680984D02*
X20730134Y-15719079D01*
X20806325Y-15680984D02*
X20806325Y-15719079D01*
X21101563Y-15957174D02*
X21092039Y-15947650D01*
X21092039Y-15947650D02*
X21072991Y-15919079D01*
X21072991Y-15919079D02*
X21063468Y-15900031D01*
X21063468Y-15900031D02*
X21053944Y-15871460D01*
X21053944Y-15871460D02*
X21044420Y-15823841D01*
X21044420Y-15823841D02*
X21044420Y-15785746D01*
X21044420Y-15785746D02*
X21053944Y-15738127D01*
X21053944Y-15738127D02*
X21063468Y-15709555D01*
X21063468Y-15709555D02*
X21072991Y-15690508D01*
X21072991Y-15690508D02*
X21092039Y-15661936D01*
X21092039Y-15661936D02*
X21101563Y-15652412D01*
X21158706Y-15680984D02*
X21282515Y-15680984D01*
X21282515Y-15680984D02*
X21215849Y-15757174D01*
X21215849Y-15757174D02*
X21244420Y-15757174D01*
X21244420Y-15757174D02*
X21263468Y-15766698D01*
X21263468Y-15766698D02*
X21272991Y-15776222D01*
X21272991Y-15776222D02*
X21282515Y-15795269D01*
X21282515Y-15795269D02*
X21282515Y-15842888D01*
X21282515Y-15842888D02*
X21272991Y-15861936D01*
X21272991Y-15861936D02*
X21263468Y-15871460D01*
X21263468Y-15871460D02*
X21244420Y-15880984D01*
X21244420Y-15880984D02*
X21187277Y-15880984D01*
X21187277Y-15880984D02*
X21168230Y-15871460D01*
X21168230Y-15871460D02*
X21158706Y-15861936D01*
X21520611Y-15880984D02*
X21520611Y-15680984D01*
X21606325Y-15880984D02*
X21606325Y-15776222D01*
X21606325Y-15776222D02*
X21596801Y-15757174D01*
X21596801Y-15757174D02*
X21577753Y-15747650D01*
X21577753Y-15747650D02*
X21549182Y-15747650D01*
X21549182Y-15747650D02*
X21530134Y-15757174D01*
X21530134Y-15757174D02*
X21520611Y-15766698D01*
X21730134Y-15880984D02*
X21711087Y-15871460D01*
X21711087Y-15871460D02*
X21701563Y-15861936D01*
X21701563Y-15861936D02*
X21692039Y-15842888D01*
X21692039Y-15842888D02*
X21692039Y-15785746D01*
X21692039Y-15785746D02*
X21701563Y-15766698D01*
X21701563Y-15766698D02*
X21711087Y-15757174D01*
X21711087Y-15757174D02*
X21730134Y-15747650D01*
X21730134Y-15747650D02*
X21758706Y-15747650D01*
X21758706Y-15747650D02*
X21777753Y-15757174D01*
X21777753Y-15757174D02*
X21787277Y-15766698D01*
X21787277Y-15766698D02*
X21796801Y-15785746D01*
X21796801Y-15785746D02*
X21796801Y-15842888D01*
X21796801Y-15842888D02*
X21787277Y-15861936D01*
X21787277Y-15861936D02*
X21777753Y-15871460D01*
X21777753Y-15871460D02*
X21758706Y-15880984D01*
X21758706Y-15880984D02*
X21730134Y-15880984D01*
X21911087Y-15880984D02*
X21892039Y-15871460D01*
X21892039Y-15871460D02*
X21882515Y-15852412D01*
X21882515Y-15852412D02*
X21882515Y-15680984D01*
X22063468Y-15871460D02*
X22044420Y-15880984D01*
X22044420Y-15880984D02*
X22006325Y-15880984D01*
X22006325Y-15880984D02*
X21987277Y-15871460D01*
X21987277Y-15871460D02*
X21977753Y-15852412D01*
X21977753Y-15852412D02*
X21977753Y-15776222D01*
X21977753Y-15776222D02*
X21987277Y-15757174D01*
X21987277Y-15757174D02*
X22006325Y-15747650D01*
X22006325Y-15747650D02*
X22044420Y-15747650D01*
X22044420Y-15747650D02*
X22063468Y-15757174D01*
X22063468Y-15757174D02*
X22072992Y-15776222D01*
X22072992Y-15776222D02*
X22072992Y-15795269D01*
X22072992Y-15795269D02*
X21977753Y-15814317D01*
X22149182Y-15871460D02*
X22168230Y-15880984D01*
X22168230Y-15880984D02*
X22206325Y-15880984D01*
X22206325Y-15880984D02*
X22225373Y-15871460D01*
X22225373Y-15871460D02*
X22234896Y-15852412D01*
X22234896Y-15852412D02*
X22234896Y-15842888D01*
X22234896Y-15842888D02*
X22225373Y-15823841D01*
X22225373Y-15823841D02*
X22206325Y-15814317D01*
X22206325Y-15814317D02*
X22177753Y-15814317D01*
X22177753Y-15814317D02*
X22158706Y-15804793D01*
X22158706Y-15804793D02*
X22149182Y-15785746D01*
X22149182Y-15785746D02*
X22149182Y-15776222D01*
X22149182Y-15776222D02*
X22158706Y-15757174D01*
X22158706Y-15757174D02*
X22177753Y-15747650D01*
X22177753Y-15747650D02*
X22206325Y-15747650D01*
X22206325Y-15747650D02*
X22225373Y-15757174D01*
X22301563Y-15957174D02*
X22311087Y-15947650D01*
X22311087Y-15947650D02*
X22330134Y-15919079D01*
X22330134Y-15919079D02*
X22339658Y-15900031D01*
X22339658Y-15900031D02*
X22349182Y-15871460D01*
X22349182Y-15871460D02*
X22358706Y-15823841D01*
X22358706Y-15823841D02*
X22358706Y-15785746D01*
X22358706Y-15785746D02*
X22349182Y-15738127D01*
X22349182Y-15738127D02*
X22339658Y-15709555D01*
X22339658Y-15709555D02*
X22330134Y-15690508D01*
X22330134Y-15690508D02*
X22311087Y-15661936D01*
X22311087Y-15661936D02*
X22301563Y-15652412D01*
M02*
