%TF.GenerationSoftware,KiCad,Pcbnew,8.0.6*%
%TF.CreationDate,2024-11-17T15:39:32-05:00*%
%TF.ProjectId,solouno_sidepanel,736f6c6f-756e-46f5-9f73-69646570616e,rev?*%
%TF.SameCoordinates,Original*%
%TF.FileFunction,Copper,L2,Bot*%
%TF.FilePolarity,Positive*%
%FSLAX46Y46*%
G04 Gerber Fmt 4.6, Leading zero omitted, Abs format (unit mm)*
G04 Created by KiCad (PCBNEW 8.0.6) date 2024-11-17 15:39:32*
%MOMM*%
%LPD*%
G01*
G04 APERTURE LIST*
G04 Aperture macros list*
%AMRoundRect*
0 Rectangle with rounded corners*
0 $1 Rounding radius*
0 $2 $3 $4 $5 $6 $7 $8 $9 X,Y pos of 4 corners*
0 Add a 4 corners polygon primitive as box body*
4,1,4,$2,$3,$4,$5,$6,$7,$8,$9,$2,$3,0*
0 Add four circle primitives for the rounded corners*
1,1,$1+$1,$2,$3*
1,1,$1+$1,$4,$5*
1,1,$1+$1,$6,$7*
1,1,$1+$1,$8,$9*
0 Add four rect primitives between the rounded corners*
20,1,$1+$1,$2,$3,$4,$5,0*
20,1,$1+$1,$4,$5,$6,$7,0*
20,1,$1+$1,$6,$7,$8,$9,0*
20,1,$1+$1,$8,$9,$2,$3,0*%
G04 Aperture macros list end*
%TA.AperFunction,ComponentPad*%
%ADD10RoundRect,0.250001X0.799999X0.799999X-0.799999X0.799999X-0.799999X-0.799999X0.799999X-0.799999X0*%
%TD*%
%TA.AperFunction,ComponentPad*%
%ADD11C,2.100000*%
%TD*%
%TA.AperFunction,ComponentPad*%
%ADD12RoundRect,0.250000X0.600000X0.750000X-0.600000X0.750000X-0.600000X-0.750000X0.600000X-0.750000X0*%
%TD*%
%TA.AperFunction,ComponentPad*%
%ADD13O,1.700000X2.000000*%
%TD*%
%TA.AperFunction,ComponentPad*%
%ADD14C,1.600000*%
%TD*%
%TA.AperFunction,ComponentPad*%
%ADD15RoundRect,0.250000X-0.600000X-0.725000X0.600000X-0.725000X0.600000X0.725000X-0.600000X0.725000X0*%
%TD*%
%TA.AperFunction,ComponentPad*%
%ADD16O,1.700000X1.950000*%
%TD*%
%TA.AperFunction,ComponentPad*%
%ADD17RoundRect,0.250000X0.750000X-0.600000X0.750000X0.600000X-0.750000X0.600000X-0.750000X-0.600000X0*%
%TD*%
%TA.AperFunction,ComponentPad*%
%ADD18O,2.000000X1.700000*%
%TD*%
%TA.AperFunction,ComponentPad*%
%ADD19C,4.000000*%
%TD*%
%TA.AperFunction,ComponentPad*%
%ADD20RoundRect,0.250000X0.600000X0.725000X-0.600000X0.725000X-0.600000X-0.725000X0.600000X-0.725000X0*%
%TD*%
%TA.AperFunction,Conductor*%
%ADD21C,2.000000*%
%TD*%
G04 APERTURE END LIST*
D10*
%TO.P,S1,1,Pin_1*%
%TO.N,+28V*%
X73910000Y-166710000D03*
D11*
%TO.P,S1,2,Pin_2*%
%TO.N,GND*%
X69310000Y-166710000D03*
%TO.P,S1,3,Pin_3*%
%TO.N,Net-(PW2-Pin_1)*%
X64710000Y-166710000D03*
%TO.P,S1,4,Pin_4*%
%TO.N,GND*%
X60110000Y-166710000D03*
%TD*%
D12*
%TO.P,CN1,1,Pin_1*%
%TO.N,Net-(CN1-Pin_1)*%
X68260000Y-126020000D03*
D13*
%TO.P,CN1,2,Pin_2*%
%TO.N,Net-(CN1-Pin_2)*%
X65760000Y-126020000D03*
%TD*%
D14*
%TO.P,C1,1*%
%TO.N,Net-(PW2-Pin_1)*%
X68320000Y-116570000D03*
%TO.P,C1,2*%
%TO.N,GND*%
X65820000Y-116570000D03*
%TD*%
D15*
%TO.P,E1,1,Pin_1*%
%TO.N,Net-(E1-Pin_1)*%
X62010000Y-143670000D03*
D16*
%TO.P,E1,2,Pin_2*%
%TO.N,Net-(E1-Pin_2)*%
X64510000Y-143670000D03*
%TO.P,E1,3,Pin_3*%
%TO.N,Net-(E1-Pin_3)*%
X67010000Y-143670000D03*
%TO.P,E1,4,Pin_4*%
%TO.N,Net-(E1-Pin_4)*%
X69510000Y-143670000D03*
%TO.P,E1,5,Pin_5*%
%TO.N,Net-(E1-Pin_5)*%
X72010000Y-143670000D03*
%TD*%
D17*
%TO.P,PW1,1,Pin_1*%
%TO.N,+28V*%
X57990000Y-96130000D03*
D18*
%TO.P,PW1,2,Pin_2*%
%TO.N,GND*%
X57990000Y-93630000D03*
%TD*%
D19*
%TO.P,A1,1*%
%TO.N,Net-(A2-Pin_1)*%
X69510000Y-105154937D03*
%TO.P,A1,2*%
%TO.N,Net-(A2-Pin_2)*%
X67010000Y-109485064D03*
%TO.P,A1,3*%
%TO.N,Net-(A2-Pin_3)*%
X64510000Y-105154937D03*
%TD*%
D20*
%TO.P,A2,1,Pin_1*%
%TO.N,Net-(A2-Pin_1)*%
X69510000Y-93630000D03*
D16*
%TO.P,A2,2,Pin_2*%
%TO.N,Net-(A2-Pin_2)*%
X67010000Y-93630000D03*
%TO.P,A2,3,Pin_3*%
%TO.N,Net-(A2-Pin_3)*%
X64510000Y-93630000D03*
%TD*%
D15*
%TO.P,E2,1,Pin_1*%
%TO.N,Net-(E1-Pin_1)*%
X62010000Y-132820000D03*
D16*
%TO.P,E2,2,Pin_2*%
%TO.N,Net-(E1-Pin_2)*%
X64510000Y-132820000D03*
%TO.P,E2,3,Pin_3*%
%TO.N,Net-(E1-Pin_3)*%
X67010000Y-132820000D03*
%TO.P,E2,4,Pin_4*%
%TO.N,Net-(E1-Pin_4)*%
X69510000Y-132820000D03*
%TO.P,E2,5,Pin_5*%
%TO.N,Net-(E1-Pin_5)*%
X72010000Y-132820000D03*
%TD*%
D17*
%TO.P,PW2,1,Pin_1*%
%TO.N,Net-(PW2-Pin_1)*%
X75990000Y-96130000D03*
D18*
%TO.P,PW2,2,Pin_2*%
%TO.N,GND*%
X75990000Y-93630000D03*
%TD*%
D12*
%TO.P,CN2,1,Pin_1*%
%TO.N,Net-(CN1-Pin_1)*%
X68260000Y-138200000D03*
D13*
%TO.P,CN2,2,Pin_2*%
%TO.N,Net-(CN1-Pin_2)*%
X65760000Y-138200000D03*
%TD*%
D21*
%TO.N,Net-(A2-Pin_3)*%
X64510000Y-93630000D02*
X64510000Y-105154937D01*
%TO.N,Net-(A2-Pin_2)*%
X67010000Y-92420000D02*
X67010000Y-93630000D01*
X69838427Y-109485064D02*
X72790000Y-106533491D01*
X68000000Y-91430000D02*
X67010000Y-92420000D01*
X67010000Y-109485064D02*
X69838427Y-109485064D01*
X71680000Y-91430000D02*
X68000000Y-91430000D01*
X72790000Y-106533491D02*
X72790000Y-92540000D01*
X72790000Y-92540000D02*
X71680000Y-91430000D01*
%TO.N,Net-(A2-Pin_1)*%
X69510000Y-93630000D02*
X69510000Y-105154937D01*
%TD*%
%TA.AperFunction,Conductor*%
%TO.N,GND*%
G36*
X66995150Y-90100185D02*
G01*
X67040905Y-90152989D01*
X67050849Y-90222147D01*
X67021824Y-90285703D01*
X67015792Y-90292181D01*
X65865485Y-91442487D01*
X65865484Y-91442488D01*
X65726657Y-91633565D01*
X65665514Y-91753566D01*
X65665513Y-91753565D01*
X65619434Y-91844000D01*
X65546446Y-92068631D01*
X65512809Y-92281007D01*
X65482880Y-92344142D01*
X65423568Y-92381073D01*
X65353705Y-92380075D01*
X65317450Y-92361927D01*
X65296433Y-92346657D01*
X65085996Y-92239433D01*
X64861368Y-92166446D01*
X64628097Y-92129500D01*
X64628092Y-92129500D01*
X64391908Y-92129500D01*
X64391903Y-92129500D01*
X64158631Y-92166446D01*
X63934003Y-92239433D01*
X63723566Y-92346657D01*
X63620001Y-92421902D01*
X63532490Y-92485483D01*
X63532488Y-92485485D01*
X63532487Y-92485485D01*
X63365485Y-92652487D01*
X63365485Y-92652488D01*
X63365483Y-92652490D01*
X63305862Y-92734550D01*
X63226657Y-92843566D01*
X63119433Y-93054003D01*
X63046446Y-93278631D01*
X63009500Y-93511902D01*
X63009500Y-103091144D01*
X62989815Y-103158183D01*
X62958386Y-103191462D01*
X62912971Y-103224457D01*
X62912968Y-103224460D01*
X62683608Y-103439844D01*
X62683606Y-103439846D01*
X62483054Y-103682271D01*
X62483051Y-103682275D01*
X62314464Y-103947927D01*
X62314461Y-103947933D01*
X62180499Y-104232615D01*
X62180497Y-104232620D01*
X62083270Y-104531853D01*
X62024311Y-104840925D01*
X62024310Y-104840932D01*
X62004556Y-105154931D01*
X62004556Y-105154942D01*
X62024310Y-105468941D01*
X62024311Y-105468948D01*
X62083270Y-105778020D01*
X62180497Y-106077253D01*
X62180499Y-106077258D01*
X62314461Y-106361940D01*
X62314464Y-106361946D01*
X62483051Y-106627598D01*
X62483054Y-106627602D01*
X62683606Y-106870027D01*
X62683608Y-106870029D01*
X62683610Y-106870031D01*
X62791273Y-106971133D01*
X62912968Y-107085413D01*
X62912978Y-107085421D01*
X63167504Y-107270345D01*
X63167509Y-107270347D01*
X63167516Y-107270353D01*
X63443234Y-107421931D01*
X63443239Y-107421933D01*
X63443241Y-107421934D01*
X63443242Y-107421935D01*
X63735771Y-107537755D01*
X63735774Y-107537756D01*
X63998573Y-107605231D01*
X64040527Y-107616003D01*
X64106010Y-107624275D01*
X64352670Y-107655436D01*
X64352679Y-107655436D01*
X64352682Y-107655437D01*
X64352684Y-107655437D01*
X64667316Y-107655437D01*
X64667318Y-107655437D01*
X64667321Y-107655436D01*
X64667329Y-107655436D01*
X64853593Y-107631905D01*
X64979473Y-107616003D01*
X65030746Y-107602838D01*
X65100572Y-107605231D01*
X65158022Y-107644997D01*
X65184852Y-107709510D01*
X65172546Y-107778287D01*
X65157126Y-107801983D01*
X64983049Y-108012405D01*
X64814464Y-108278054D01*
X64814461Y-108278060D01*
X64680499Y-108562742D01*
X64680497Y-108562747D01*
X64583270Y-108861980D01*
X64524311Y-109171052D01*
X64524310Y-109171059D01*
X64504556Y-109485058D01*
X64504556Y-109485069D01*
X64524310Y-109799068D01*
X64524311Y-109799075D01*
X64583270Y-110108147D01*
X64680497Y-110407380D01*
X64680499Y-110407385D01*
X64814461Y-110692067D01*
X64814464Y-110692073D01*
X64983051Y-110957725D01*
X64983054Y-110957729D01*
X65183606Y-111200154D01*
X65183608Y-111200156D01*
X65412968Y-111415540D01*
X65412978Y-111415548D01*
X65667504Y-111600472D01*
X65667509Y-111600474D01*
X65667516Y-111600480D01*
X65943234Y-111752058D01*
X65943239Y-111752060D01*
X65943241Y-111752061D01*
X65943242Y-111752062D01*
X66235771Y-111867882D01*
X66235774Y-111867883D01*
X66540523Y-111946129D01*
X66540527Y-111946130D01*
X66606010Y-111954402D01*
X66852670Y-111985563D01*
X66852679Y-111985563D01*
X66852682Y-111985564D01*
X66852684Y-111985564D01*
X67167316Y-111985564D01*
X67167318Y-111985564D01*
X67167321Y-111985563D01*
X67167329Y-111985563D01*
X67353593Y-111962032D01*
X67479473Y-111946130D01*
X67784225Y-111867883D01*
X67784228Y-111867882D01*
X68076757Y-111752062D01*
X68076758Y-111752061D01*
X68076756Y-111752061D01*
X68076766Y-111752058D01*
X68352484Y-111600480D01*
X68607030Y-111415542D01*
X68836390Y-111200158D01*
X68976725Y-111030522D01*
X69034624Y-110991416D01*
X69072268Y-110985564D01*
X69956524Y-110985564D01*
X70189795Y-110948617D01*
X70414419Y-110875632D01*
X70624861Y-110768407D01*
X70815937Y-110629581D01*
X73934518Y-107511001D01*
X74073343Y-107319924D01*
X74180568Y-107109483D01*
X74253553Y-106884859D01*
X74255038Y-106875485D01*
X74255902Y-106870029D01*
X74290500Y-106651588D01*
X74290500Y-97018988D01*
X74310185Y-96951949D01*
X74362989Y-96906194D01*
X74432147Y-96896250D01*
X74495703Y-96925275D01*
X74532205Y-96979982D01*
X74555186Y-97049334D01*
X74647288Y-97198656D01*
X74771344Y-97322712D01*
X74920666Y-97414814D01*
X75087203Y-97469999D01*
X75189991Y-97480500D01*
X76790008Y-97480499D01*
X76892797Y-97469999D01*
X77059334Y-97414814D01*
X77208656Y-97322712D01*
X77332712Y-97198656D01*
X77424814Y-97049334D01*
X77479999Y-96882797D01*
X77490500Y-96780009D01*
X77490499Y-95479992D01*
X77479999Y-95377203D01*
X77424814Y-95210666D01*
X77332712Y-95061344D01*
X77208656Y-94937288D01*
X77059334Y-94845186D01*
X77059332Y-94845185D01*
X77053440Y-94841551D01*
X77006716Y-94789603D01*
X76995493Y-94720641D01*
X77023337Y-94656558D01*
X77030856Y-94648330D01*
X77169728Y-94509458D01*
X77294620Y-94337557D01*
X77391095Y-94148217D01*
X77456757Y-93946129D01*
X77456757Y-93946126D01*
X77467231Y-93880000D01*
X76423012Y-93880000D01*
X76455925Y-93822993D01*
X76490000Y-93695826D01*
X76490000Y-93564174D01*
X76455925Y-93437007D01*
X76423012Y-93380000D01*
X77467231Y-93380000D01*
X77456757Y-93313873D01*
X77456757Y-93313870D01*
X77391095Y-93111782D01*
X77294620Y-92922442D01*
X77169727Y-92750540D01*
X77169723Y-92750535D01*
X77019464Y-92600276D01*
X77019459Y-92600272D01*
X76847557Y-92475379D01*
X76658217Y-92378904D01*
X76456129Y-92313242D01*
X76246246Y-92280000D01*
X76240000Y-92280000D01*
X76240000Y-93196988D01*
X76182993Y-93164075D01*
X76055826Y-93130000D01*
X75924174Y-93130000D01*
X75797007Y-93164075D01*
X75740000Y-93196988D01*
X75740000Y-92280000D01*
X75733754Y-92280000D01*
X75523872Y-92313242D01*
X75523869Y-92313242D01*
X75321782Y-92378904D01*
X75132442Y-92475379D01*
X74960540Y-92600272D01*
X74960535Y-92600276D01*
X74810276Y-92750535D01*
X74810272Y-92750540D01*
X74685379Y-92922442D01*
X74588904Y-93111782D01*
X74532431Y-93285591D01*
X74492994Y-93343266D01*
X74428635Y-93370465D01*
X74359789Y-93358550D01*
X74308313Y-93311306D01*
X74290500Y-93247273D01*
X74290500Y-92421902D01*
X74253553Y-92188631D01*
X74219689Y-92084412D01*
X74180568Y-91964008D01*
X74180566Y-91964005D01*
X74180566Y-91964003D01*
X74087509Y-91781369D01*
X74073343Y-91753566D01*
X73934517Y-91562490D01*
X72664208Y-90292181D01*
X72630723Y-90230858D01*
X72635707Y-90161166D01*
X72677579Y-90105233D01*
X72743043Y-90080816D01*
X72751889Y-90080500D01*
X80885500Y-90080500D01*
X80952539Y-90100185D01*
X80998294Y-90152989D01*
X81009500Y-90204500D01*
X81009500Y-168955500D01*
X80989815Y-169022539D01*
X80937011Y-169068294D01*
X80885500Y-169079500D01*
X53134500Y-169079500D01*
X53067461Y-169059815D01*
X53021706Y-169007011D01*
X53010500Y-168955500D01*
X53010500Y-166710000D01*
X58555207Y-166710000D01*
X58574348Y-166953219D01*
X58631303Y-167190457D01*
X58724668Y-167415861D01*
X58848504Y-167617941D01*
X59586212Y-166880233D01*
X59597482Y-166922292D01*
X59669890Y-167047708D01*
X59772292Y-167150110D01*
X59897708Y-167222518D01*
X59939765Y-167233787D01*
X59202057Y-167971494D01*
X59404138Y-168095331D01*
X59629542Y-168188696D01*
X59866780Y-168245651D01*
X59866779Y-168245651D01*
X60110000Y-168264792D01*
X60353219Y-168245651D01*
X60590457Y-168188696D01*
X60815861Y-168095331D01*
X61017941Y-167971495D01*
X61017941Y-167971494D01*
X60280235Y-167233787D01*
X60322292Y-167222518D01*
X60447708Y-167150110D01*
X60550110Y-167047708D01*
X60622518Y-166922292D01*
X60633787Y-166880234D01*
X61371494Y-167617941D01*
X61371495Y-167617941D01*
X61495331Y-167415861D01*
X61588696Y-167190457D01*
X61645651Y-166953219D01*
X61664792Y-166710000D01*
X63154706Y-166710000D01*
X63173853Y-166953297D01*
X63173853Y-166953300D01*
X63173854Y-166953302D01*
X63200323Y-167063553D01*
X63230830Y-167190619D01*
X63324222Y-167416089D01*
X63451737Y-167624173D01*
X63451738Y-167624176D01*
X63451741Y-167624179D01*
X63610241Y-167809759D01*
X63753897Y-167932453D01*
X63795823Y-167968261D01*
X63795826Y-167968262D01*
X64003910Y-168095777D01*
X64229381Y-168189169D01*
X64229378Y-168189169D01*
X64229384Y-168189170D01*
X64229388Y-168189172D01*
X64466698Y-168246146D01*
X64710000Y-168265294D01*
X64953302Y-168246146D01*
X65190612Y-168189172D01*
X65416089Y-168095777D01*
X65624179Y-167968259D01*
X65809759Y-167809759D01*
X65968259Y-167624179D01*
X66095777Y-167416089D01*
X66189172Y-167190612D01*
X66246146Y-166953302D01*
X66265294Y-166710000D01*
X67755207Y-166710000D01*
X67774348Y-166953219D01*
X67831303Y-167190457D01*
X67924668Y-167415861D01*
X68048504Y-167617941D01*
X68786212Y-166880233D01*
X68797482Y-166922292D01*
X68869890Y-167047708D01*
X68972292Y-167150110D01*
X69097708Y-167222518D01*
X69139765Y-167233787D01*
X68402057Y-167971494D01*
X68604138Y-168095331D01*
X68829542Y-168188696D01*
X69066780Y-168245651D01*
X69066779Y-168245651D01*
X69310000Y-168264792D01*
X69553219Y-168245651D01*
X69790457Y-168188696D01*
X70015861Y-168095331D01*
X70217941Y-167971495D01*
X70217941Y-167971494D01*
X69480235Y-167233787D01*
X69522292Y-167222518D01*
X69647708Y-167150110D01*
X69750110Y-167047708D01*
X69822518Y-166922292D01*
X69833787Y-166880234D01*
X70571494Y-167617941D01*
X70571495Y-167617941D01*
X70695331Y-167415861D01*
X70788696Y-167190457D01*
X70845651Y-166953219D01*
X70864792Y-166710000D01*
X70845651Y-166466780D01*
X70788696Y-166229542D01*
X70695331Y-166004138D01*
X70606992Y-165859984D01*
X72359500Y-165859984D01*
X72359500Y-167560015D01*
X72370000Y-167662795D01*
X72370001Y-167662796D01*
X72425186Y-167829335D01*
X72425187Y-167829337D01*
X72517286Y-167978651D01*
X72517289Y-167978655D01*
X72641344Y-168102710D01*
X72641348Y-168102713D01*
X72790662Y-168194812D01*
X72790664Y-168194813D01*
X72790666Y-168194814D01*
X72957203Y-168249999D01*
X73059992Y-168260500D01*
X73059997Y-168260500D01*
X74760003Y-168260500D01*
X74760008Y-168260500D01*
X74862797Y-168249999D01*
X75029334Y-168194814D01*
X75178655Y-168102711D01*
X75302711Y-167978655D01*
X75394814Y-167829334D01*
X75449999Y-167662797D01*
X75460500Y-167560008D01*
X75460500Y-165859992D01*
X75449999Y-165757203D01*
X75394814Y-165590666D01*
X75309123Y-165451741D01*
X75302713Y-165441348D01*
X75302710Y-165441344D01*
X75178655Y-165317289D01*
X75178651Y-165317286D01*
X75029337Y-165225187D01*
X75029335Y-165225186D01*
X74875915Y-165174348D01*
X74862797Y-165170001D01*
X74862795Y-165170000D01*
X74760015Y-165159500D01*
X74760008Y-165159500D01*
X73059992Y-165159500D01*
X73059984Y-165159500D01*
X72957204Y-165170000D01*
X72957203Y-165170001D01*
X72790664Y-165225186D01*
X72790662Y-165225187D01*
X72641348Y-165317286D01*
X72641344Y-165317289D01*
X72517289Y-165441344D01*
X72517286Y-165441348D01*
X72425187Y-165590662D01*
X72425186Y-165590664D01*
X72370001Y-165757203D01*
X72370000Y-165757204D01*
X72359500Y-165859984D01*
X70606992Y-165859984D01*
X70571494Y-165802057D01*
X69833787Y-166539764D01*
X69822518Y-166497708D01*
X69750110Y-166372292D01*
X69647708Y-166269890D01*
X69522292Y-166197482D01*
X69480234Y-166186212D01*
X70217941Y-165448504D01*
X70015861Y-165324668D01*
X69790457Y-165231303D01*
X69553219Y-165174348D01*
X69553220Y-165174348D01*
X69310000Y-165155207D01*
X69066780Y-165174348D01*
X68829542Y-165231303D01*
X68604138Y-165324668D01*
X68402057Y-165448504D01*
X69139766Y-166186212D01*
X69097708Y-166197482D01*
X68972292Y-166269890D01*
X68869890Y-166372292D01*
X68797482Y-166497708D01*
X68786212Y-166539765D01*
X68048504Y-165802057D01*
X67924668Y-166004138D01*
X67831303Y-166229542D01*
X67774348Y-166466780D01*
X67755207Y-166710000D01*
X66265294Y-166710000D01*
X66246146Y-166466698D01*
X66189172Y-166229388D01*
X66189169Y-166229380D01*
X66095777Y-166003910D01*
X65968262Y-165795826D01*
X65968261Y-165795823D01*
X65932453Y-165753897D01*
X65809759Y-165610241D01*
X65687063Y-165505449D01*
X65624176Y-165451738D01*
X65624173Y-165451737D01*
X65416089Y-165324222D01*
X65190618Y-165230830D01*
X65190621Y-165230830D01*
X65084992Y-165205470D01*
X64953302Y-165173854D01*
X64953300Y-165173853D01*
X64953297Y-165173853D01*
X64710000Y-165154706D01*
X64466702Y-165173853D01*
X64466698Y-165173854D01*
X64252889Y-165225186D01*
X64229380Y-165230830D01*
X64003910Y-165324222D01*
X63795826Y-165451737D01*
X63795823Y-165451738D01*
X63610241Y-165610241D01*
X63451738Y-165795823D01*
X63451737Y-165795826D01*
X63324222Y-166003910D01*
X63230830Y-166229380D01*
X63173853Y-166466702D01*
X63154706Y-166710000D01*
X61664792Y-166710000D01*
X61645651Y-166466780D01*
X61588696Y-166229542D01*
X61495331Y-166004138D01*
X61371494Y-165802057D01*
X60633787Y-166539764D01*
X60622518Y-166497708D01*
X60550110Y-166372292D01*
X60447708Y-166269890D01*
X60322292Y-166197482D01*
X60280234Y-166186212D01*
X61017941Y-165448504D01*
X60815861Y-165324668D01*
X60590457Y-165231303D01*
X60353219Y-165174348D01*
X60353220Y-165174348D01*
X60110000Y-165155207D01*
X59866780Y-165174348D01*
X59629542Y-165231303D01*
X59404138Y-165324668D01*
X59202057Y-165448504D01*
X59939766Y-166186212D01*
X59897708Y-166197482D01*
X59772292Y-166269890D01*
X59669890Y-166372292D01*
X59597482Y-166497708D01*
X59586212Y-166539765D01*
X58848504Y-165802057D01*
X58724668Y-166004138D01*
X58631303Y-166229542D01*
X58574348Y-166466780D01*
X58555207Y-166710000D01*
X53010500Y-166710000D01*
X53010500Y-142894983D01*
X60659500Y-142894983D01*
X60659500Y-144445001D01*
X60659501Y-144445018D01*
X60670000Y-144547796D01*
X60670001Y-144547799D01*
X60715894Y-144686294D01*
X60725186Y-144714334D01*
X60817288Y-144863656D01*
X60941344Y-144987712D01*
X61090666Y-145079814D01*
X61257203Y-145134999D01*
X61359991Y-145145500D01*
X62660008Y-145145499D01*
X62762797Y-145134999D01*
X62929334Y-145079814D01*
X63078656Y-144987712D01*
X63202712Y-144863656D01*
X63294814Y-144714334D01*
X63294814Y-144714331D01*
X63298178Y-144708879D01*
X63350126Y-144662154D01*
X63419088Y-144650931D01*
X63483170Y-144678774D01*
X63491398Y-144686294D01*
X63630213Y-144825109D01*
X63802179Y-144950048D01*
X63802181Y-144950049D01*
X63802184Y-144950051D01*
X63991588Y-145046557D01*
X64193757Y-145112246D01*
X64403713Y-145145500D01*
X64403714Y-145145500D01*
X64616286Y-145145500D01*
X64616287Y-145145500D01*
X64826243Y-145112246D01*
X65028412Y-145046557D01*
X65217816Y-144950051D01*
X65239789Y-144934086D01*
X65389786Y-144825109D01*
X65389788Y-144825106D01*
X65389792Y-144825104D01*
X65540104Y-144674792D01*
X65659683Y-144510204D01*
X65715011Y-144467540D01*
X65784624Y-144461561D01*
X65846420Y-144494166D01*
X65860313Y-144510199D01*
X65962560Y-144650931D01*
X65979896Y-144674792D01*
X66130213Y-144825109D01*
X66302179Y-144950048D01*
X66302181Y-144950049D01*
X66302184Y-144950051D01*
X66491588Y-145046557D01*
X66693757Y-145112246D01*
X66903713Y-145145500D01*
X66903714Y-145145500D01*
X67116286Y-145145500D01*
X67116287Y-145145500D01*
X67326243Y-145112246D01*
X67528412Y-145046557D01*
X67717816Y-144950051D01*
X67739789Y-144934086D01*
X67889786Y-144825109D01*
X67889788Y-144825106D01*
X67889792Y-144825104D01*
X68040104Y-144674792D01*
X68159683Y-144510204D01*
X68215011Y-144467540D01*
X68284624Y-144461561D01*
X68346420Y-144494166D01*
X68360313Y-144510199D01*
X68462560Y-144650931D01*
X68479896Y-144674792D01*
X68630213Y-144825109D01*
X68802179Y-144950048D01*
X68802181Y-144950049D01*
X68802184Y-144950051D01*
X68991588Y-145046557D01*
X69193757Y-145112246D01*
X69403713Y-145145500D01*
X69403714Y-145145500D01*
X69616286Y-145145500D01*
X69616287Y-145145500D01*
X69826243Y-145112246D01*
X70028412Y-145046557D01*
X70217816Y-144950051D01*
X70239789Y-144934086D01*
X70389786Y-144825109D01*
X70389788Y-144825106D01*
X70389792Y-144825104D01*
X70540104Y-144674792D01*
X70659683Y-144510204D01*
X70715011Y-144467540D01*
X70784624Y-144461561D01*
X70846420Y-144494166D01*
X70860313Y-144510199D01*
X70962560Y-144650931D01*
X70979896Y-144674792D01*
X71130213Y-144825109D01*
X71302179Y-144950048D01*
X71302181Y-144950049D01*
X71302184Y-144950051D01*
X71491588Y-145046557D01*
X71693757Y-145112246D01*
X71903713Y-145145500D01*
X71903714Y-145145500D01*
X72116286Y-145145500D01*
X72116287Y-145145500D01*
X72326243Y-145112246D01*
X72528412Y-145046557D01*
X72717816Y-144950051D01*
X72739789Y-144934086D01*
X72889786Y-144825109D01*
X72889788Y-144825106D01*
X72889792Y-144825104D01*
X73040104Y-144674792D01*
X73040106Y-144674788D01*
X73040109Y-144674786D01*
X73165048Y-144502820D01*
X73165047Y-144502820D01*
X73165051Y-144502816D01*
X73261557Y-144313412D01*
X73327246Y-144111243D01*
X73360500Y-143901287D01*
X73360500Y-143438713D01*
X73327246Y-143228757D01*
X73261557Y-143026588D01*
X73165051Y-142837184D01*
X73165049Y-142837181D01*
X73165048Y-142837179D01*
X73040109Y-142665213D01*
X72889786Y-142514890D01*
X72717820Y-142389951D01*
X72528414Y-142293444D01*
X72528413Y-142293443D01*
X72528412Y-142293443D01*
X72326243Y-142227754D01*
X72326241Y-142227753D01*
X72326240Y-142227753D01*
X72164957Y-142202208D01*
X72116287Y-142194500D01*
X71903713Y-142194500D01*
X71855042Y-142202208D01*
X71693760Y-142227753D01*
X71491585Y-142293444D01*
X71302179Y-142389951D01*
X71130213Y-142514890D01*
X70979894Y-142665209D01*
X70979890Y-142665214D01*
X70860318Y-142829793D01*
X70804989Y-142872459D01*
X70735375Y-142878438D01*
X70673580Y-142845833D01*
X70659682Y-142829793D01*
X70540109Y-142665214D01*
X70540105Y-142665209D01*
X70389786Y-142514890D01*
X70217820Y-142389951D01*
X70028414Y-142293444D01*
X70028413Y-142293443D01*
X70028412Y-142293443D01*
X69826243Y-142227754D01*
X69826241Y-142227753D01*
X69826240Y-142227753D01*
X69664957Y-142202208D01*
X69616287Y-142194500D01*
X69403713Y-142194500D01*
X69355042Y-142202208D01*
X69193760Y-142227753D01*
X68991585Y-142293444D01*
X68802179Y-142389951D01*
X68630213Y-142514890D01*
X68479894Y-142665209D01*
X68479890Y-142665214D01*
X68360318Y-142829793D01*
X68304989Y-142872459D01*
X68235375Y-142878438D01*
X68173580Y-142845833D01*
X68159682Y-142829793D01*
X68040109Y-142665214D01*
X68040105Y-142665209D01*
X67889786Y-142514890D01*
X67717820Y-142389951D01*
X67528414Y-142293444D01*
X67528413Y-142293443D01*
X67528412Y-142293443D01*
X67326243Y-142227754D01*
X67326241Y-142227753D01*
X67326240Y-142227753D01*
X67164957Y-142202208D01*
X67116287Y-142194500D01*
X66903713Y-142194500D01*
X66855042Y-142202208D01*
X66693760Y-142227753D01*
X66491585Y-142293444D01*
X66302179Y-142389951D01*
X66130213Y-142514890D01*
X65979894Y-142665209D01*
X65979890Y-142665214D01*
X65860318Y-142829793D01*
X65804989Y-142872459D01*
X65735375Y-142878438D01*
X65673580Y-142845833D01*
X65659682Y-142829793D01*
X65540109Y-142665214D01*
X65540105Y-142665209D01*
X65389786Y-142514890D01*
X65217820Y-142389951D01*
X65028414Y-142293444D01*
X65028413Y-142293443D01*
X65028412Y-142293443D01*
X64826243Y-142227754D01*
X64826241Y-142227753D01*
X64826240Y-142227753D01*
X64664957Y-142202208D01*
X64616287Y-142194500D01*
X64403713Y-142194500D01*
X64355042Y-142202208D01*
X64193760Y-142227753D01*
X63991585Y-142293444D01*
X63802179Y-142389951D01*
X63630215Y-142514889D01*
X63491398Y-142653706D01*
X63430075Y-142687190D01*
X63360383Y-142682206D01*
X63304450Y-142640334D01*
X63298178Y-142631120D01*
X63202712Y-142476344D01*
X63078657Y-142352289D01*
X63078656Y-142352288D01*
X62929334Y-142260186D01*
X62762797Y-142205001D01*
X62762795Y-142205000D01*
X62660010Y-142194500D01*
X61359998Y-142194500D01*
X61359981Y-142194501D01*
X61257203Y-142205000D01*
X61257200Y-142205001D01*
X61090668Y-142260185D01*
X61090663Y-142260187D01*
X60941342Y-142352289D01*
X60817289Y-142476342D01*
X60725187Y-142625663D01*
X60725185Y-142625668D01*
X60720325Y-142640334D01*
X60670001Y-142792203D01*
X60670001Y-142792204D01*
X60670000Y-142792204D01*
X60659500Y-142894983D01*
X53010500Y-142894983D01*
X53010500Y-137943713D01*
X64409500Y-137943713D01*
X64409500Y-138456286D01*
X64442753Y-138666239D01*
X64508444Y-138868414D01*
X64604951Y-139057820D01*
X64729890Y-139229786D01*
X64880213Y-139380109D01*
X65052179Y-139505048D01*
X65052181Y-139505049D01*
X65052184Y-139505051D01*
X65241588Y-139601557D01*
X65443757Y-139667246D01*
X65653713Y-139700500D01*
X65653714Y-139700500D01*
X65866286Y-139700500D01*
X65866287Y-139700500D01*
X66076243Y-139667246D01*
X66278412Y-139601557D01*
X66467816Y-139505051D01*
X66639792Y-139380104D01*
X66778604Y-139241291D01*
X66839923Y-139207809D01*
X66909615Y-139212793D01*
X66965549Y-139254664D01*
X66971821Y-139263878D01*
X66975185Y-139269333D01*
X66975186Y-139269334D01*
X67067288Y-139418656D01*
X67191344Y-139542712D01*
X67340666Y-139634814D01*
X67507203Y-139689999D01*
X67609991Y-139700500D01*
X68910008Y-139700499D01*
X69012797Y-139689999D01*
X69179334Y-139634814D01*
X69328656Y-139542712D01*
X69452712Y-139418656D01*
X69544814Y-139269334D01*
X69599999Y-139102797D01*
X69610500Y-139000009D01*
X69610499Y-137399992D01*
X69599999Y-137297203D01*
X69544814Y-137130666D01*
X69452712Y-136981344D01*
X69328656Y-136857288D01*
X69179334Y-136765186D01*
X69012797Y-136710001D01*
X69012795Y-136710000D01*
X68910010Y-136699500D01*
X67609998Y-136699500D01*
X67609981Y-136699501D01*
X67507203Y-136710000D01*
X67507200Y-136710001D01*
X67340668Y-136765185D01*
X67340663Y-136765187D01*
X67191342Y-136857289D01*
X67067289Y-136981342D01*
X66971821Y-137136121D01*
X66919873Y-137182845D01*
X66850910Y-137194068D01*
X66786828Y-137166224D01*
X66778601Y-137158705D01*
X66639786Y-137019890D01*
X66467820Y-136894951D01*
X66278414Y-136798444D01*
X66278413Y-136798443D01*
X66278412Y-136798443D01*
X66076243Y-136732754D01*
X66076241Y-136732753D01*
X66076240Y-136732753D01*
X65914957Y-136707208D01*
X65866287Y-136699500D01*
X65653713Y-136699500D01*
X65605042Y-136707208D01*
X65443760Y-136732753D01*
X65241585Y-136798444D01*
X65052179Y-136894951D01*
X64880213Y-137019890D01*
X64729890Y-137170213D01*
X64604951Y-137342179D01*
X64508444Y-137531585D01*
X64442753Y-137733760D01*
X64409500Y-137943713D01*
X53010500Y-137943713D01*
X53010500Y-132044983D01*
X60659500Y-132044983D01*
X60659500Y-133595001D01*
X60659501Y-133595018D01*
X60670000Y-133697796D01*
X60670001Y-133697799D01*
X60715894Y-133836294D01*
X60725186Y-133864334D01*
X60817288Y-134013656D01*
X60941344Y-134137712D01*
X61090666Y-134229814D01*
X61257203Y-134284999D01*
X61359991Y-134295500D01*
X62660008Y-134295499D01*
X62762797Y-134284999D01*
X62929334Y-134229814D01*
X63078656Y-134137712D01*
X63202712Y-134013656D01*
X63294814Y-133864334D01*
X63294814Y-133864331D01*
X63298178Y-133858879D01*
X63350126Y-133812154D01*
X63419088Y-133800931D01*
X63483170Y-133828774D01*
X63491398Y-133836294D01*
X63630213Y-133975109D01*
X63802179Y-134100048D01*
X63802181Y-134100049D01*
X63802184Y-134100051D01*
X63991588Y-134196557D01*
X64193757Y-134262246D01*
X64403713Y-134295500D01*
X64403714Y-134295500D01*
X64616286Y-134295500D01*
X64616287Y-134295500D01*
X64826243Y-134262246D01*
X65028412Y-134196557D01*
X65217816Y-134100051D01*
X65239789Y-134084086D01*
X65389786Y-133975109D01*
X65389788Y-133975106D01*
X65389792Y-133975104D01*
X65540104Y-133824792D01*
X65659683Y-133660204D01*
X65715011Y-133617540D01*
X65784624Y-133611561D01*
X65846420Y-133644166D01*
X65860313Y-133660199D01*
X65962560Y-133800931D01*
X65979896Y-133824792D01*
X66130213Y-133975109D01*
X66302179Y-134100048D01*
X66302181Y-134100049D01*
X66302184Y-134100051D01*
X66491588Y-134196557D01*
X66693757Y-134262246D01*
X66903713Y-134295500D01*
X66903714Y-134295500D01*
X67116286Y-134295500D01*
X67116287Y-134295500D01*
X67326243Y-134262246D01*
X67528412Y-134196557D01*
X67717816Y-134100051D01*
X67739789Y-134084086D01*
X67889786Y-133975109D01*
X67889788Y-133975106D01*
X67889792Y-133975104D01*
X68040104Y-133824792D01*
X68159683Y-133660204D01*
X68215011Y-133617540D01*
X68284624Y-133611561D01*
X68346420Y-133644166D01*
X68360313Y-133660199D01*
X68462560Y-133800931D01*
X68479896Y-133824792D01*
X68630213Y-133975109D01*
X68802179Y-134100048D01*
X68802181Y-134100049D01*
X68802184Y-134100051D01*
X68991588Y-134196557D01*
X69193757Y-134262246D01*
X69403713Y-134295500D01*
X69403714Y-134295500D01*
X69616286Y-134295500D01*
X69616287Y-134295500D01*
X69826243Y-134262246D01*
X70028412Y-134196557D01*
X70217816Y-134100051D01*
X70239789Y-134084086D01*
X70389786Y-133975109D01*
X70389788Y-133975106D01*
X70389792Y-133975104D01*
X70540104Y-133824792D01*
X70659683Y-133660204D01*
X70715011Y-133617540D01*
X70784624Y-133611561D01*
X70846420Y-133644166D01*
X70860313Y-133660199D01*
X70962560Y-133800931D01*
X70979896Y-133824792D01*
X71130213Y-133975109D01*
X71302179Y-134100048D01*
X71302181Y-134100049D01*
X71302184Y-134100051D01*
X71491588Y-134196557D01*
X71693757Y-134262246D01*
X71903713Y-134295500D01*
X71903714Y-134295500D01*
X72116286Y-134295500D01*
X72116287Y-134295500D01*
X72326243Y-134262246D01*
X72528412Y-134196557D01*
X72717816Y-134100051D01*
X72739789Y-134084086D01*
X72889786Y-133975109D01*
X72889788Y-133975106D01*
X72889792Y-133975104D01*
X73040104Y-133824792D01*
X73040106Y-133824788D01*
X73040109Y-133824786D01*
X73165048Y-133652820D01*
X73165047Y-133652820D01*
X73165051Y-133652816D01*
X73261557Y-133463412D01*
X73327246Y-133261243D01*
X73360500Y-133051287D01*
X73360500Y-132588713D01*
X73327246Y-132378757D01*
X73261557Y-132176588D01*
X73165051Y-131987184D01*
X73165049Y-131987181D01*
X73165048Y-131987179D01*
X73040109Y-131815213D01*
X72889786Y-131664890D01*
X72717820Y-131539951D01*
X72528414Y-131443444D01*
X72528413Y-131443443D01*
X72528412Y-131443443D01*
X72326243Y-131377754D01*
X72326241Y-131377753D01*
X72326240Y-131377753D01*
X72164957Y-131352208D01*
X72116287Y-131344500D01*
X71903713Y-131344500D01*
X71855042Y-131352208D01*
X71693760Y-131377753D01*
X71491585Y-131443444D01*
X71302179Y-131539951D01*
X71130213Y-131664890D01*
X70979894Y-131815209D01*
X70979890Y-131815214D01*
X70860318Y-131979793D01*
X70804989Y-132022459D01*
X70735375Y-132028438D01*
X70673580Y-131995833D01*
X70659682Y-131979793D01*
X70540109Y-131815214D01*
X70540105Y-131815209D01*
X70389786Y-131664890D01*
X70217820Y-131539951D01*
X70028414Y-131443444D01*
X70028413Y-131443443D01*
X70028412Y-131443443D01*
X69826243Y-131377754D01*
X69826241Y-131377753D01*
X69826240Y-131377753D01*
X69664957Y-131352208D01*
X69616287Y-131344500D01*
X69403713Y-131344500D01*
X69355042Y-131352208D01*
X69193760Y-131377753D01*
X68991585Y-131443444D01*
X68802179Y-131539951D01*
X68630213Y-131664890D01*
X68479894Y-131815209D01*
X68479890Y-131815214D01*
X68360318Y-131979793D01*
X68304989Y-132022459D01*
X68235375Y-132028438D01*
X68173580Y-131995833D01*
X68159682Y-131979793D01*
X68040109Y-131815214D01*
X68040105Y-131815209D01*
X67889786Y-131664890D01*
X67717820Y-131539951D01*
X67528414Y-131443444D01*
X67528413Y-131443443D01*
X67528412Y-131443443D01*
X67326243Y-131377754D01*
X67326241Y-131377753D01*
X67326240Y-131377753D01*
X67164957Y-131352208D01*
X67116287Y-131344500D01*
X66903713Y-131344500D01*
X66855042Y-131352208D01*
X66693760Y-131377753D01*
X66491585Y-131443444D01*
X66302179Y-131539951D01*
X66130213Y-131664890D01*
X65979894Y-131815209D01*
X65979890Y-131815214D01*
X65860318Y-131979793D01*
X65804989Y-132022459D01*
X65735375Y-132028438D01*
X65673580Y-131995833D01*
X65659682Y-131979793D01*
X65540109Y-131815214D01*
X65540105Y-131815209D01*
X65389786Y-131664890D01*
X65217820Y-131539951D01*
X65028414Y-131443444D01*
X65028413Y-131443443D01*
X65028412Y-131443443D01*
X64826243Y-131377754D01*
X64826241Y-131377753D01*
X64826240Y-131377753D01*
X64664957Y-131352208D01*
X64616287Y-131344500D01*
X64403713Y-131344500D01*
X64355042Y-131352208D01*
X64193760Y-131377753D01*
X63991585Y-131443444D01*
X63802179Y-131539951D01*
X63630215Y-131664889D01*
X63491398Y-131803706D01*
X63430075Y-131837190D01*
X63360383Y-131832206D01*
X63304450Y-131790334D01*
X63298178Y-131781120D01*
X63202712Y-131626344D01*
X63078657Y-131502289D01*
X63078656Y-131502288D01*
X62929334Y-131410186D01*
X62762797Y-131355001D01*
X62762795Y-131355000D01*
X62660010Y-131344500D01*
X61359998Y-131344500D01*
X61359981Y-131344501D01*
X61257203Y-131355000D01*
X61257200Y-131355001D01*
X61090668Y-131410185D01*
X61090663Y-131410187D01*
X60941342Y-131502289D01*
X60817289Y-131626342D01*
X60725187Y-131775663D01*
X60725185Y-131775668D01*
X60720325Y-131790334D01*
X60670001Y-131942203D01*
X60670001Y-131942204D01*
X60670000Y-131942204D01*
X60659500Y-132044983D01*
X53010500Y-132044983D01*
X53010500Y-125763713D01*
X64409500Y-125763713D01*
X64409500Y-126276286D01*
X64442753Y-126486239D01*
X64508444Y-126688414D01*
X64604951Y-126877820D01*
X64729890Y-127049786D01*
X64880213Y-127200109D01*
X65052179Y-127325048D01*
X65052181Y-127325049D01*
X65052184Y-127325051D01*
X65241588Y-127421557D01*
X65443757Y-127487246D01*
X65653713Y-127520500D01*
X65653714Y-127520500D01*
X65866286Y-127520500D01*
X65866287Y-127520500D01*
X66076243Y-127487246D01*
X66278412Y-127421557D01*
X66467816Y-127325051D01*
X66639792Y-127200104D01*
X66778604Y-127061291D01*
X66839923Y-127027809D01*
X66909615Y-127032793D01*
X66965549Y-127074664D01*
X66971821Y-127083878D01*
X66975185Y-127089333D01*
X66975186Y-127089334D01*
X67067288Y-127238656D01*
X67191344Y-127362712D01*
X67340666Y-127454814D01*
X67507203Y-127509999D01*
X67609991Y-127520500D01*
X68910008Y-127520499D01*
X69012797Y-127509999D01*
X69179334Y-127454814D01*
X69328656Y-127362712D01*
X69452712Y-127238656D01*
X69544814Y-127089334D01*
X69599999Y-126922797D01*
X69610500Y-126820009D01*
X69610499Y-125219992D01*
X69599999Y-125117203D01*
X69544814Y-124950666D01*
X69452712Y-124801344D01*
X69328656Y-124677288D01*
X69179334Y-124585186D01*
X69012797Y-124530001D01*
X69012795Y-124530000D01*
X68910010Y-124519500D01*
X67609998Y-124519500D01*
X67609981Y-124519501D01*
X67507203Y-124530000D01*
X67507200Y-124530001D01*
X67340668Y-124585185D01*
X67340663Y-124585187D01*
X67191342Y-124677289D01*
X67067289Y-124801342D01*
X66971821Y-124956121D01*
X66919873Y-125002845D01*
X66850910Y-125014068D01*
X66786828Y-124986224D01*
X66778601Y-124978705D01*
X66639786Y-124839890D01*
X66467820Y-124714951D01*
X66278414Y-124618444D01*
X66278413Y-124618443D01*
X66278412Y-124618443D01*
X66076243Y-124552754D01*
X66076241Y-124552753D01*
X66076240Y-124552753D01*
X65914957Y-124527208D01*
X65866287Y-124519500D01*
X65653713Y-124519500D01*
X65605042Y-124527208D01*
X65443760Y-124552753D01*
X65241585Y-124618444D01*
X65052179Y-124714951D01*
X64880213Y-124839890D01*
X64729890Y-124990213D01*
X64604951Y-125162179D01*
X64508444Y-125351585D01*
X64442753Y-125553760D01*
X64409500Y-125763713D01*
X53010500Y-125763713D01*
X53010500Y-116569997D01*
X64515034Y-116569997D01*
X64515034Y-116570002D01*
X64534858Y-116796599D01*
X64534860Y-116796610D01*
X64593730Y-117016317D01*
X64593735Y-117016331D01*
X64689863Y-117222478D01*
X64740974Y-117295472D01*
X65420000Y-116616446D01*
X65420000Y-116622661D01*
X65447259Y-116724394D01*
X65499920Y-116815606D01*
X65574394Y-116890080D01*
X65665606Y-116942741D01*
X65767339Y-116970000D01*
X65773553Y-116970000D01*
X65094526Y-117649025D01*
X65167513Y-117700132D01*
X65167521Y-117700136D01*
X65373668Y-117796264D01*
X65373682Y-117796269D01*
X65593389Y-117855139D01*
X65593400Y-117855141D01*
X65819998Y-117874966D01*
X65820002Y-117874966D01*
X66046599Y-117855141D01*
X66046610Y-117855139D01*
X66266317Y-117796269D01*
X66266331Y-117796264D01*
X66472478Y-117700136D01*
X66545471Y-117649024D01*
X65866447Y-116970000D01*
X65872661Y-116970000D01*
X65974394Y-116942741D01*
X66065606Y-116890080D01*
X66140080Y-116815606D01*
X66192741Y-116724394D01*
X66220000Y-116622661D01*
X66220000Y-116616447D01*
X66899024Y-117295471D01*
X66950134Y-117222481D01*
X66957340Y-117207028D01*
X67003511Y-117154587D01*
X67070704Y-117135433D01*
X67137585Y-117155646D01*
X67182105Y-117207022D01*
X67189430Y-117222730D01*
X67189432Y-117222734D01*
X67319954Y-117409141D01*
X67480858Y-117570045D01*
X67480861Y-117570047D01*
X67667266Y-117700568D01*
X67873504Y-117796739D01*
X68093308Y-117855635D01*
X68255230Y-117869801D01*
X68319998Y-117875468D01*
X68320000Y-117875468D01*
X68320002Y-117875468D01*
X68376673Y-117870509D01*
X68546692Y-117855635D01*
X68766496Y-117796739D01*
X68972734Y-117700568D01*
X69159139Y-117570047D01*
X69320047Y-117409139D01*
X69450568Y-117222734D01*
X69546739Y-117016496D01*
X69605635Y-116796692D01*
X69625468Y-116570000D01*
X69605635Y-116343308D01*
X69546739Y-116123504D01*
X69450568Y-115917266D01*
X69320047Y-115730861D01*
X69320045Y-115730858D01*
X69159141Y-115569954D01*
X68972734Y-115439432D01*
X68972732Y-115439431D01*
X68766497Y-115343261D01*
X68766488Y-115343258D01*
X68546697Y-115284366D01*
X68546693Y-115284365D01*
X68546692Y-115284365D01*
X68546691Y-115284364D01*
X68546686Y-115284364D01*
X68320002Y-115264532D01*
X68319998Y-115264532D01*
X68093313Y-115284364D01*
X68093302Y-115284366D01*
X67873511Y-115343258D01*
X67873502Y-115343261D01*
X67667267Y-115439431D01*
X67667265Y-115439432D01*
X67480858Y-115569954D01*
X67319954Y-115730858D01*
X67189432Y-115917265D01*
X67189429Y-115917270D01*
X67182104Y-115932979D01*
X67135929Y-115985417D01*
X67068735Y-116004566D01*
X67001855Y-115984347D01*
X66957341Y-115932973D01*
X66950133Y-115917515D01*
X66950132Y-115917513D01*
X66899025Y-115844526D01*
X66220000Y-116523551D01*
X66220000Y-116517339D01*
X66192741Y-116415606D01*
X66140080Y-116324394D01*
X66065606Y-116249920D01*
X65974394Y-116197259D01*
X65872661Y-116170000D01*
X65866448Y-116170000D01*
X66545472Y-115490974D01*
X66472478Y-115439863D01*
X66266331Y-115343735D01*
X66266317Y-115343730D01*
X66046610Y-115284860D01*
X66046599Y-115284858D01*
X65820002Y-115265034D01*
X65819998Y-115265034D01*
X65593400Y-115284858D01*
X65593389Y-115284860D01*
X65373682Y-115343730D01*
X65373673Y-115343734D01*
X65167516Y-115439866D01*
X65167512Y-115439868D01*
X65094526Y-115490973D01*
X65094526Y-115490974D01*
X65773553Y-116170000D01*
X65767339Y-116170000D01*
X65665606Y-116197259D01*
X65574394Y-116249920D01*
X65499920Y-116324394D01*
X65447259Y-116415606D01*
X65420000Y-116517339D01*
X65420000Y-116523552D01*
X64740974Y-115844526D01*
X64740973Y-115844526D01*
X64689868Y-115917512D01*
X64689866Y-115917516D01*
X64593734Y-116123673D01*
X64593730Y-116123682D01*
X64534860Y-116343389D01*
X64534858Y-116343400D01*
X64515034Y-116569997D01*
X53010500Y-116569997D01*
X53010500Y-95479983D01*
X56489500Y-95479983D01*
X56489500Y-96780001D01*
X56489501Y-96780018D01*
X56500000Y-96882796D01*
X56500001Y-96882799D01*
X56545130Y-97018988D01*
X56555186Y-97049334D01*
X56647288Y-97198656D01*
X56771344Y-97322712D01*
X56920666Y-97414814D01*
X57087203Y-97469999D01*
X57189991Y-97480500D01*
X58790008Y-97480499D01*
X58892797Y-97469999D01*
X59059334Y-97414814D01*
X59208656Y-97322712D01*
X59332712Y-97198656D01*
X59424814Y-97049334D01*
X59479999Y-96882797D01*
X59490500Y-96780009D01*
X59490499Y-95479992D01*
X59479999Y-95377203D01*
X59424814Y-95210666D01*
X59332712Y-95061344D01*
X59208656Y-94937288D01*
X59059334Y-94845186D01*
X59059332Y-94845185D01*
X59053440Y-94841551D01*
X59006716Y-94789603D01*
X58995493Y-94720641D01*
X59023337Y-94656558D01*
X59030856Y-94648330D01*
X59169728Y-94509458D01*
X59294620Y-94337557D01*
X59391095Y-94148217D01*
X59456757Y-93946129D01*
X59456757Y-93946126D01*
X59467231Y-93880000D01*
X58423012Y-93880000D01*
X58455925Y-93822993D01*
X58490000Y-93695826D01*
X58490000Y-93564174D01*
X58455925Y-93437007D01*
X58423012Y-93380000D01*
X59467231Y-93380000D01*
X59456757Y-93313873D01*
X59456757Y-93313870D01*
X59391095Y-93111782D01*
X59294620Y-92922442D01*
X59169727Y-92750540D01*
X59169723Y-92750535D01*
X59019464Y-92600276D01*
X59019459Y-92600272D01*
X58847557Y-92475379D01*
X58658217Y-92378904D01*
X58456129Y-92313242D01*
X58246246Y-92280000D01*
X58240000Y-92280000D01*
X58240000Y-93196988D01*
X58182993Y-93164075D01*
X58055826Y-93130000D01*
X57924174Y-93130000D01*
X57797007Y-93164075D01*
X57740000Y-93196988D01*
X57740000Y-92280000D01*
X57733754Y-92280000D01*
X57523872Y-92313242D01*
X57523869Y-92313242D01*
X57321782Y-92378904D01*
X57132442Y-92475379D01*
X56960540Y-92600272D01*
X56960535Y-92600276D01*
X56810276Y-92750535D01*
X56810272Y-92750540D01*
X56685379Y-92922442D01*
X56588904Y-93111782D01*
X56523242Y-93313870D01*
X56523242Y-93313873D01*
X56512769Y-93380000D01*
X57556988Y-93380000D01*
X57524075Y-93437007D01*
X57490000Y-93564174D01*
X57490000Y-93695826D01*
X57524075Y-93822993D01*
X57556988Y-93880000D01*
X56512769Y-93880000D01*
X56523242Y-93946126D01*
X56523242Y-93946129D01*
X56588904Y-94148217D01*
X56685379Y-94337557D01*
X56810272Y-94509459D01*
X56810276Y-94509464D01*
X56949143Y-94648331D01*
X56982628Y-94709654D01*
X56977644Y-94779346D01*
X56935772Y-94835279D01*
X56926559Y-94841551D01*
X56771342Y-94937289D01*
X56647289Y-95061342D01*
X56555187Y-95210663D01*
X56555186Y-95210666D01*
X56500001Y-95377203D01*
X56500001Y-95377204D01*
X56500000Y-95377204D01*
X56489500Y-95479983D01*
X53010500Y-95479983D01*
X53010500Y-90204500D01*
X53030185Y-90137461D01*
X53082989Y-90091706D01*
X53134500Y-90080500D01*
X66928111Y-90080500D01*
X66995150Y-90100185D01*
G37*
%TD.AperFunction*%
%TD*%
M02*
