%TF.GenerationSoftware,KiCad,Pcbnew,8.0.6*%
%TF.CreationDate,2024-11-17T15:39:36-05:00*%
%TF.ProjectId,solouno_sidepanel,736f6c6f-756e-46f5-9f73-69646570616e,rev?*%
%TF.SameCoordinates,Original*%
%TF.FileFunction,Drillmap*%
%TF.FilePolarity,Positive*%
%FSLAX45Y45*%
G04 Gerber Fmt 4.5, Leading zero omitted, Abs format (unit mm)*
G04 Created by KiCad (PCBNEW 8.0.6) date 2024-11-17 15:39:36*
%MOMM*%
%LPD*%
G01*
G04 APERTURE LIST*
%ADD10C,0.050000*%
%ADD11C,0.200000*%
G04 APERTURE END LIST*
D10*
X5251000Y-8958000D02*
X8151000Y-8958000D01*
X8151000Y-16958000D01*
X5251000Y-16958000D01*
X5251000Y-8958000D01*
D11*
X5509277Y-17271984D02*
X5509277Y-17071984D01*
X5509277Y-17071984D02*
X5556896Y-17071984D01*
X5556896Y-17071984D02*
X5585467Y-17081508D01*
X5585467Y-17081508D02*
X5604515Y-17100555D01*
X5604515Y-17100555D02*
X5614039Y-17119603D01*
X5614039Y-17119603D02*
X5623562Y-17157698D01*
X5623562Y-17157698D02*
X5623562Y-17186270D01*
X5623562Y-17186270D02*
X5614039Y-17224365D01*
X5614039Y-17224365D02*
X5604515Y-17243412D01*
X5604515Y-17243412D02*
X5585467Y-17262460D01*
X5585467Y-17262460D02*
X5556896Y-17271984D01*
X5556896Y-17271984D02*
X5509277Y-17271984D01*
X5709277Y-17271984D02*
X5709277Y-17138650D01*
X5709277Y-17176746D02*
X5718801Y-17157698D01*
X5718801Y-17157698D02*
X5728324Y-17148174D01*
X5728324Y-17148174D02*
X5747372Y-17138650D01*
X5747372Y-17138650D02*
X5766420Y-17138650D01*
X5833086Y-17271984D02*
X5833086Y-17138650D01*
X5833086Y-17071984D02*
X5823562Y-17081508D01*
X5823562Y-17081508D02*
X5833086Y-17091031D01*
X5833086Y-17091031D02*
X5842610Y-17081508D01*
X5842610Y-17081508D02*
X5833086Y-17071984D01*
X5833086Y-17071984D02*
X5833086Y-17091031D01*
X5956896Y-17271984D02*
X5937848Y-17262460D01*
X5937848Y-17262460D02*
X5928324Y-17243412D01*
X5928324Y-17243412D02*
X5928324Y-17071984D01*
X6061658Y-17271984D02*
X6042610Y-17262460D01*
X6042610Y-17262460D02*
X6033086Y-17243412D01*
X6033086Y-17243412D02*
X6033086Y-17071984D01*
X6290229Y-17271984D02*
X6290229Y-17071984D01*
X6290229Y-17071984D02*
X6356896Y-17214841D01*
X6356896Y-17214841D02*
X6423562Y-17071984D01*
X6423562Y-17071984D02*
X6423562Y-17271984D01*
X6604515Y-17271984D02*
X6604515Y-17167222D01*
X6604515Y-17167222D02*
X6594991Y-17148174D01*
X6594991Y-17148174D02*
X6575943Y-17138650D01*
X6575943Y-17138650D02*
X6537848Y-17138650D01*
X6537848Y-17138650D02*
X6518801Y-17148174D01*
X6604515Y-17262460D02*
X6585467Y-17271984D01*
X6585467Y-17271984D02*
X6537848Y-17271984D01*
X6537848Y-17271984D02*
X6518801Y-17262460D01*
X6518801Y-17262460D02*
X6509277Y-17243412D01*
X6509277Y-17243412D02*
X6509277Y-17224365D01*
X6509277Y-17224365D02*
X6518801Y-17205317D01*
X6518801Y-17205317D02*
X6537848Y-17195793D01*
X6537848Y-17195793D02*
X6585467Y-17195793D01*
X6585467Y-17195793D02*
X6604515Y-17186270D01*
X6699753Y-17138650D02*
X6699753Y-17338650D01*
X6699753Y-17148174D02*
X6718801Y-17138650D01*
X6718801Y-17138650D02*
X6756896Y-17138650D01*
X6756896Y-17138650D02*
X6775943Y-17148174D01*
X6775943Y-17148174D02*
X6785467Y-17157698D01*
X6785467Y-17157698D02*
X6794991Y-17176746D01*
X6794991Y-17176746D02*
X6794991Y-17233889D01*
X6794991Y-17233889D02*
X6785467Y-17252936D01*
X6785467Y-17252936D02*
X6775943Y-17262460D01*
X6775943Y-17262460D02*
X6756896Y-17271984D01*
X6756896Y-17271984D02*
X6718801Y-17271984D01*
X6718801Y-17271984D02*
X6699753Y-17262460D01*
X6880705Y-17252936D02*
X6890229Y-17262460D01*
X6890229Y-17262460D02*
X6880705Y-17271984D01*
X6880705Y-17271984D02*
X6871182Y-17262460D01*
X6871182Y-17262460D02*
X6880705Y-17252936D01*
X6880705Y-17252936D02*
X6880705Y-17271984D01*
X6880705Y-17148174D02*
X6890229Y-17157698D01*
X6890229Y-17157698D02*
X6880705Y-17167222D01*
X6880705Y-17167222D02*
X6871182Y-17157698D01*
X6871182Y-17157698D02*
X6880705Y-17148174D01*
X6880705Y-17148174D02*
X6880705Y-17167222D01*
M02*
