%TF.GenerationSoftware,KiCad,Pcbnew,8.0.6*%
%TF.CreationDate,2024-11-20T20:47:06-05:00*%
%TF.ProjectId,solouno_sidepanel,736f6c6f-756e-46f5-9f73-69646570616e,rev?*%
%TF.SameCoordinates,Original*%
%TF.FileFunction,Copper,L2,Bot*%
%TF.FilePolarity,Positive*%
%FSLAX46Y46*%
G04 Gerber Fmt 4.6, Leading zero omitted, Abs format (unit mm)*
G04 Created by KiCad (PCBNEW 8.0.6) date 2024-11-20 20:47:06*
%MOMM*%
%LPD*%
G01*
G04 APERTURE LIST*
G04 Aperture macros list*
%AMRoundRect*
0 Rectangle with rounded corners*
0 $1 Rounding radius*
0 $2 $3 $4 $5 $6 $7 $8 $9 X,Y pos of 4 corners*
0 Add a 4 corners polygon primitive as box body*
4,1,4,$2,$3,$4,$5,$6,$7,$8,$9,$2,$3,0*
0 Add four circle primitives for the rounded corners*
1,1,$1+$1,$2,$3*
1,1,$1+$1,$4,$5*
1,1,$1+$1,$6,$7*
1,1,$1+$1,$8,$9*
0 Add four rect primitives between the rounded corners*
20,1,$1+$1,$2,$3,$4,$5,0*
20,1,$1+$1,$4,$5,$6,$7,0*
20,1,$1+$1,$6,$7,$8,$9,0*
20,1,$1+$1,$8,$9,$2,$3,0*%
G04 Aperture macros list end*
%TA.AperFunction,ComponentPad*%
%ADD10RoundRect,0.250000X0.600000X0.750000X-0.600000X0.750000X-0.600000X-0.750000X0.600000X-0.750000X0*%
%TD*%
%TA.AperFunction,ComponentPad*%
%ADD11O,1.700000X2.000000*%
%TD*%
%TA.AperFunction,ComponentPad*%
%ADD12RoundRect,0.250000X-0.600000X-0.725000X0.600000X-0.725000X0.600000X0.725000X-0.600000X0.725000X0*%
%TD*%
%TA.AperFunction,ComponentPad*%
%ADD13O,1.700000X1.950000*%
%TD*%
%TA.AperFunction,ComponentPad*%
%ADD14C,2.800000*%
%TD*%
%TA.AperFunction,ComponentPad*%
%ADD15RoundRect,0.250000X0.750000X-0.600000X0.750000X0.600000X-0.750000X0.600000X-0.750000X-0.600000X0*%
%TD*%
%TA.AperFunction,ComponentPad*%
%ADD16O,2.000000X1.700000*%
%TD*%
%TA.AperFunction,ComponentPad*%
%ADD17C,4.000000*%
%TD*%
G04 APERTURE END LIST*
D10*
%TO.P,CN1,1,Pin_1*%
%TO.N,Net-(CN1-Pin_1)*%
X190880000Y-84830000D03*
D11*
%TO.P,CN1,2,Pin_2*%
%TO.N,Net-(CN1-Pin_2)*%
X188380000Y-84830000D03*
%TD*%
D12*
%TO.P,E1,1,Pin_1*%
%TO.N,Net-(E1-Pin_1)*%
X184460000Y-101340000D03*
D13*
%TO.P,E1,2,Pin_2*%
%TO.N,Net-(E1-Pin_2)*%
X186960000Y-101340000D03*
%TO.P,E1,3,Pin_3*%
%TO.N,Net-(E1-Pin_3)*%
X189460000Y-101340000D03*
%TO.P,E1,4,Pin_4*%
%TO.N,Net-(E1-Pin_4)*%
X191960000Y-101340000D03*
%TO.P,E1,5,Pin_5*%
%TO.N,Net-(E1-Pin_5)*%
X194460000Y-101340000D03*
%TD*%
D14*
%TO.P,S1,1,1*%
%TO.N,+28V*%
X184380000Y-76770000D03*
%TD*%
%TO.P,S2,1,1*%
%TO.N,Net-(PW2-Pin_1)*%
X194690000Y-76770000D03*
%TD*%
D15*
%TO.P,PW1,1,Pin_1*%
%TO.N,+28V*%
X180770000Y-70100000D03*
D16*
%TO.P,PW1,2,Pin_2*%
%TO.N,GND*%
X180770000Y-67600000D03*
%TD*%
D17*
%TO.P,A1,1*%
%TO.N,Net-(A1-Pad1)*%
X192210000Y-112674937D03*
%TO.P,A1,2*%
%TO.N,Net-(A1-Pad2)*%
X189710000Y-117005064D03*
%TO.P,A1,3*%
%TO.N,Net-(A1-Pad3)*%
X187210000Y-112674937D03*
%TD*%
D12*
%TO.P,E2,1,Pin_1*%
%TO.N,Net-(E1-Pin_1)*%
X184430000Y-97010000D03*
D13*
%TO.P,E2,2,Pin_2*%
%TO.N,Net-(E1-Pin_2)*%
X186930000Y-97010000D03*
%TO.P,E2,3,Pin_3*%
%TO.N,Net-(E1-Pin_3)*%
X189430000Y-97010000D03*
%TO.P,E2,4,Pin_4*%
%TO.N,Net-(E1-Pin_4)*%
X191930000Y-97010000D03*
%TO.P,E2,5,Pin_5*%
%TO.N,Net-(E1-Pin_5)*%
X194430000Y-97010000D03*
%TD*%
D15*
%TO.P,PW2,1,Pin_1*%
%TO.N,Net-(PW2-Pin_1)*%
X198770000Y-70100000D03*
D16*
%TO.P,PW2,2,Pin_2*%
%TO.N,GND*%
X198770000Y-67600000D03*
%TD*%
D10*
%TO.P,CN2,1,Pin_1*%
%TO.N,Net-(CN1-Pin_1)*%
X190910000Y-89150000D03*
D11*
%TO.P,CN2,2,Pin_2*%
%TO.N,Net-(CN1-Pin_2)*%
X188410000Y-89150000D03*
%TD*%
%TA.AperFunction,Conductor*%
%TO.N,GND*%
G36*
X203732539Y-64070185D02*
G01*
X203778294Y-64122989D01*
X203789500Y-64174500D01*
X203789500Y-80441644D01*
X203769815Y-80508683D01*
X203717011Y-80554438D01*
X203664775Y-80565642D01*
X175913775Y-80403412D01*
X175846852Y-80383336D01*
X175801406Y-80330265D01*
X175790500Y-80279414D01*
X175790500Y-76769998D01*
X182474645Y-76769998D01*
X182474645Y-76770001D01*
X182494039Y-77041160D01*
X182494040Y-77041167D01*
X182551823Y-77306793D01*
X182551825Y-77306801D01*
X182628330Y-77511920D01*
X182646830Y-77561519D01*
X182777109Y-77800107D01*
X182777110Y-77800108D01*
X182777113Y-77800113D01*
X182940029Y-78017742D01*
X182940033Y-78017746D01*
X182940038Y-78017752D01*
X183132247Y-78209961D01*
X183132253Y-78209966D01*
X183132258Y-78209971D01*
X183349887Y-78372887D01*
X183349891Y-78372889D01*
X183349892Y-78372890D01*
X183588481Y-78503169D01*
X183588480Y-78503169D01*
X183588484Y-78503170D01*
X183588487Y-78503172D01*
X183843199Y-78598175D01*
X184108840Y-78655961D01*
X184360605Y-78673967D01*
X184379999Y-78675355D01*
X184380000Y-78675355D01*
X184380001Y-78675355D01*
X184398100Y-78674060D01*
X184651160Y-78655961D01*
X184916801Y-78598175D01*
X185171513Y-78503172D01*
X185171517Y-78503169D01*
X185171519Y-78503169D01*
X185290813Y-78438029D01*
X185410113Y-78372887D01*
X185627742Y-78209971D01*
X185819971Y-78017742D01*
X185982887Y-77800113D01*
X186113172Y-77561513D01*
X186208175Y-77306801D01*
X186265961Y-77041160D01*
X186285355Y-76770000D01*
X186285355Y-76769998D01*
X192784645Y-76769998D01*
X192784645Y-76770001D01*
X192804039Y-77041160D01*
X192804040Y-77041167D01*
X192861823Y-77306793D01*
X192861825Y-77306801D01*
X192938330Y-77511920D01*
X192956830Y-77561519D01*
X193087109Y-77800107D01*
X193087110Y-77800108D01*
X193087113Y-77800113D01*
X193250029Y-78017742D01*
X193250033Y-78017746D01*
X193250038Y-78017752D01*
X193442247Y-78209961D01*
X193442253Y-78209966D01*
X193442258Y-78209971D01*
X193659887Y-78372887D01*
X193659891Y-78372889D01*
X193659892Y-78372890D01*
X193898481Y-78503169D01*
X193898480Y-78503169D01*
X193898484Y-78503170D01*
X193898487Y-78503172D01*
X194153199Y-78598175D01*
X194418840Y-78655961D01*
X194670605Y-78673967D01*
X194689999Y-78675355D01*
X194690000Y-78675355D01*
X194690001Y-78675355D01*
X194708100Y-78674060D01*
X194961160Y-78655961D01*
X195226801Y-78598175D01*
X195481513Y-78503172D01*
X195481517Y-78503169D01*
X195481519Y-78503169D01*
X195600813Y-78438029D01*
X195720113Y-78372887D01*
X195937742Y-78209971D01*
X196129971Y-78017742D01*
X196292887Y-77800113D01*
X196423172Y-77561513D01*
X196518175Y-77306801D01*
X196575961Y-77041160D01*
X196595355Y-76770000D01*
X196575961Y-76498840D01*
X196518175Y-76233199D01*
X196423172Y-75978487D01*
X196423170Y-75978484D01*
X196423169Y-75978480D01*
X196292890Y-75739892D01*
X196292889Y-75739891D01*
X196292887Y-75739887D01*
X196129971Y-75522258D01*
X196129966Y-75522253D01*
X196129961Y-75522247D01*
X195937752Y-75330038D01*
X195937746Y-75330033D01*
X195937742Y-75330029D01*
X195720113Y-75167113D01*
X195720108Y-75167110D01*
X195720107Y-75167109D01*
X195481518Y-75036830D01*
X195481519Y-75036830D01*
X195431920Y-75018330D01*
X195226801Y-74941825D01*
X195226794Y-74941823D01*
X195226793Y-74941823D01*
X194961167Y-74884040D01*
X194961160Y-74884039D01*
X194690001Y-74864645D01*
X194689999Y-74864645D01*
X194418839Y-74884039D01*
X194418832Y-74884040D01*
X194153206Y-74941823D01*
X194153202Y-74941824D01*
X194153199Y-74941825D01*
X194025843Y-74989326D01*
X193898480Y-75036830D01*
X193659892Y-75167109D01*
X193659891Y-75167110D01*
X193442259Y-75330028D01*
X193442247Y-75330038D01*
X193250038Y-75522247D01*
X193250028Y-75522259D01*
X193087110Y-75739891D01*
X193087109Y-75739892D01*
X192956830Y-75978480D01*
X192909326Y-76105843D01*
X192861825Y-76233199D01*
X192861824Y-76233202D01*
X192861823Y-76233206D01*
X192804040Y-76498832D01*
X192804039Y-76498839D01*
X192784645Y-76769998D01*
X186285355Y-76769998D01*
X186265961Y-76498840D01*
X186208175Y-76233199D01*
X186113172Y-75978487D01*
X186113170Y-75978484D01*
X186113169Y-75978480D01*
X185982890Y-75739892D01*
X185982889Y-75739891D01*
X185982887Y-75739887D01*
X185819971Y-75522258D01*
X185819966Y-75522253D01*
X185819961Y-75522247D01*
X185627752Y-75330038D01*
X185627746Y-75330033D01*
X185627742Y-75330029D01*
X185410113Y-75167113D01*
X185410108Y-75167110D01*
X185410107Y-75167109D01*
X185171518Y-75036830D01*
X185171519Y-75036830D01*
X185121920Y-75018330D01*
X184916801Y-74941825D01*
X184916794Y-74941823D01*
X184916793Y-74941823D01*
X184651167Y-74884040D01*
X184651160Y-74884039D01*
X184380001Y-74864645D01*
X184379999Y-74864645D01*
X184108839Y-74884039D01*
X184108832Y-74884040D01*
X183843206Y-74941823D01*
X183843202Y-74941824D01*
X183843199Y-74941825D01*
X183715843Y-74989326D01*
X183588480Y-75036830D01*
X183349892Y-75167109D01*
X183349891Y-75167110D01*
X183132259Y-75330028D01*
X183132247Y-75330038D01*
X182940038Y-75522247D01*
X182940028Y-75522259D01*
X182777110Y-75739891D01*
X182777109Y-75739892D01*
X182646830Y-75978480D01*
X182599326Y-76105843D01*
X182551825Y-76233199D01*
X182551824Y-76233202D01*
X182551823Y-76233206D01*
X182494040Y-76498832D01*
X182494039Y-76498839D01*
X182474645Y-76769998D01*
X175790500Y-76769998D01*
X175790500Y-69449983D01*
X179269500Y-69449983D01*
X179269500Y-70750001D01*
X179269501Y-70750018D01*
X179280000Y-70852796D01*
X179280001Y-70852799D01*
X179335185Y-71019331D01*
X179335186Y-71019334D01*
X179427288Y-71168656D01*
X179551344Y-71292712D01*
X179700666Y-71384814D01*
X179867203Y-71439999D01*
X179969991Y-71450500D01*
X181570008Y-71450499D01*
X181672797Y-71439999D01*
X181839334Y-71384814D01*
X181988656Y-71292712D01*
X182112712Y-71168656D01*
X182204814Y-71019334D01*
X182259999Y-70852797D01*
X182270500Y-70750009D01*
X182270499Y-69449992D01*
X182270498Y-69449983D01*
X197269500Y-69449983D01*
X197269500Y-70750001D01*
X197269501Y-70750018D01*
X197280000Y-70852796D01*
X197280001Y-70852799D01*
X197335185Y-71019331D01*
X197335186Y-71019334D01*
X197427288Y-71168656D01*
X197551344Y-71292712D01*
X197700666Y-71384814D01*
X197867203Y-71439999D01*
X197969991Y-71450500D01*
X199570008Y-71450499D01*
X199672797Y-71439999D01*
X199839334Y-71384814D01*
X199988656Y-71292712D01*
X200112712Y-71168656D01*
X200204814Y-71019334D01*
X200259999Y-70852797D01*
X200270500Y-70750009D01*
X200270499Y-69449992D01*
X200259999Y-69347203D01*
X200204814Y-69180666D01*
X200112712Y-69031344D01*
X199988656Y-68907288D01*
X199839334Y-68815186D01*
X199839332Y-68815185D01*
X199833440Y-68811551D01*
X199786716Y-68759603D01*
X199775493Y-68690641D01*
X199803337Y-68626558D01*
X199810856Y-68618330D01*
X199949728Y-68479458D01*
X200074620Y-68307557D01*
X200171095Y-68118217D01*
X200236757Y-67916129D01*
X200236757Y-67916126D01*
X200247231Y-67850000D01*
X199203012Y-67850000D01*
X199235925Y-67792993D01*
X199270000Y-67665826D01*
X199270000Y-67534174D01*
X199235925Y-67407007D01*
X199203012Y-67350000D01*
X200247231Y-67350000D01*
X200236757Y-67283873D01*
X200236757Y-67283870D01*
X200171095Y-67081782D01*
X200074620Y-66892442D01*
X199949727Y-66720540D01*
X199949723Y-66720535D01*
X199799464Y-66570276D01*
X199799459Y-66570272D01*
X199627557Y-66445379D01*
X199438217Y-66348904D01*
X199236129Y-66283242D01*
X199026246Y-66250000D01*
X199020000Y-66250000D01*
X199020000Y-67166988D01*
X198962993Y-67134075D01*
X198835826Y-67100000D01*
X198704174Y-67100000D01*
X198577007Y-67134075D01*
X198520000Y-67166988D01*
X198520000Y-66250000D01*
X198513754Y-66250000D01*
X198303872Y-66283242D01*
X198303869Y-66283242D01*
X198101782Y-66348904D01*
X197912442Y-66445379D01*
X197740540Y-66570272D01*
X197740535Y-66570276D01*
X197590276Y-66720535D01*
X197590272Y-66720540D01*
X197465379Y-66892442D01*
X197368904Y-67081782D01*
X197303242Y-67283870D01*
X197303242Y-67283873D01*
X197292769Y-67350000D01*
X198336988Y-67350000D01*
X198304075Y-67407007D01*
X198270000Y-67534174D01*
X198270000Y-67665826D01*
X198304075Y-67792993D01*
X198336988Y-67850000D01*
X197292769Y-67850000D01*
X197303242Y-67916126D01*
X197303242Y-67916129D01*
X197368904Y-68118217D01*
X197465379Y-68307557D01*
X197590272Y-68479459D01*
X197590276Y-68479464D01*
X197729143Y-68618331D01*
X197762628Y-68679654D01*
X197757644Y-68749346D01*
X197715772Y-68805279D01*
X197706559Y-68811551D01*
X197551342Y-68907289D01*
X197427289Y-69031342D01*
X197335187Y-69180663D01*
X197335186Y-69180666D01*
X197280001Y-69347203D01*
X197280001Y-69347204D01*
X197280000Y-69347204D01*
X197269500Y-69449983D01*
X182270498Y-69449983D01*
X182259999Y-69347203D01*
X182204814Y-69180666D01*
X182112712Y-69031344D01*
X181988656Y-68907288D01*
X181839334Y-68815186D01*
X181839332Y-68815185D01*
X181833440Y-68811551D01*
X181786716Y-68759603D01*
X181775493Y-68690641D01*
X181803337Y-68626558D01*
X181810856Y-68618330D01*
X181949728Y-68479458D01*
X182074620Y-68307557D01*
X182171095Y-68118217D01*
X182236757Y-67916129D01*
X182236757Y-67916126D01*
X182247231Y-67850000D01*
X181203012Y-67850000D01*
X181235925Y-67792993D01*
X181270000Y-67665826D01*
X181270000Y-67534174D01*
X181235925Y-67407007D01*
X181203012Y-67350000D01*
X182247231Y-67350000D01*
X182236757Y-67283873D01*
X182236757Y-67283870D01*
X182171095Y-67081782D01*
X182074620Y-66892442D01*
X181949727Y-66720540D01*
X181949723Y-66720535D01*
X181799464Y-66570276D01*
X181799459Y-66570272D01*
X181627557Y-66445379D01*
X181438217Y-66348904D01*
X181236129Y-66283242D01*
X181026246Y-66250000D01*
X181020000Y-66250000D01*
X181020000Y-67166988D01*
X180962993Y-67134075D01*
X180835826Y-67100000D01*
X180704174Y-67100000D01*
X180577007Y-67134075D01*
X180520000Y-67166988D01*
X180520000Y-66250000D01*
X180513754Y-66250000D01*
X180303872Y-66283242D01*
X180303869Y-66283242D01*
X180101782Y-66348904D01*
X179912442Y-66445379D01*
X179740540Y-66570272D01*
X179740535Y-66570276D01*
X179590276Y-66720535D01*
X179590272Y-66720540D01*
X179465379Y-66892442D01*
X179368904Y-67081782D01*
X179303242Y-67283870D01*
X179303242Y-67283873D01*
X179292769Y-67350000D01*
X180336988Y-67350000D01*
X180304075Y-67407007D01*
X180270000Y-67534174D01*
X180270000Y-67665826D01*
X180304075Y-67792993D01*
X180336988Y-67850000D01*
X179292769Y-67850000D01*
X179303242Y-67916126D01*
X179303242Y-67916129D01*
X179368904Y-68118217D01*
X179465379Y-68307557D01*
X179590272Y-68479459D01*
X179590276Y-68479464D01*
X179729143Y-68618331D01*
X179762628Y-68679654D01*
X179757644Y-68749346D01*
X179715772Y-68805279D01*
X179706559Y-68811551D01*
X179551342Y-68907289D01*
X179427289Y-69031342D01*
X179335187Y-69180663D01*
X179335186Y-69180666D01*
X179280001Y-69347203D01*
X179280001Y-69347204D01*
X179280000Y-69347204D01*
X179269500Y-69449983D01*
X175790500Y-69449983D01*
X175790500Y-64174500D01*
X175810185Y-64107461D01*
X175862989Y-64061706D01*
X175914500Y-64050500D01*
X203665500Y-64050500D01*
X203732539Y-64070185D01*
G37*
%TD.AperFunction*%
%TD*%
M02*
