M48
; DRILL file {KiCad 8.0.6} date 2024-11-20T20:47:08-0500
; FORMAT={-:-/ absolute / metric / decimal}
; #@! TF.CreationDate,2024-11-20T20:47:08-05:00
; #@! TF.GenerationSoftware,Kicad,Pcbnew,8.0.6
; #@! TF.FileFunction,Plated,1,2,PTH
FMAT,2
METRIC
; #@! TA.AperFunction,Plated,PTH,ComponentDrill
T1C0.950
; #@! TA.AperFunction,Plated,PTH,ComponentDrill
T2C1.000
; #@! TA.AperFunction,Plated,PTH,ComponentDrill
T3C1.400
; #@! TA.AperFunction,Plated,PTH,ComponentDrill
T4C2.500
%
G90
G05
T1
X184.43Y-97.01
X184.46Y-101.34
X186.93Y-97.01
X186.96Y-101.34
X189.43Y-97.01
X189.46Y-101.34
X191.93Y-97.01
X191.96Y-101.34
X194.43Y-97.01
X194.46Y-101.34
T2
X180.77Y-67.6
X180.77Y-70.1
X188.38Y-84.83
X188.41Y-89.15
X190.88Y-84.83
X190.91Y-89.15
X198.77Y-67.6
X198.77Y-70.1
T3
X184.38Y-76.77
X194.69Y-76.77
T4
X187.21Y-112.675
X189.71Y-117.005
X192.21Y-112.675
M30
