%TF.GenerationSoftware,KiCad,Pcbnew,8.0.6*%
%TF.CreationDate,2024-11-20T20:47:06-05:00*%
%TF.ProjectId,solouno_sidepanel,736f6c6f-756e-46f5-9f73-69646570616e,rev?*%
%TF.SameCoordinates,Original*%
%TF.FileFunction,Legend,Bot*%
%TF.FilePolarity,Positive*%
%FSLAX46Y46*%
G04 Gerber Fmt 4.6, Leading zero omitted, Abs format (unit mm)*
G04 Created by KiCad (PCBNEW 8.0.6) date 2024-11-20 20:47:06*
%MOMM*%
%LPD*%
G01*
G04 APERTURE LIST*
%ADD10C,0.153000*%
%ADD11C,0.120000*%
G04 APERTURE END LIST*
D10*
X187670336Y-109546485D02*
X187670336Y-108927438D01*
X187670336Y-108927438D02*
X187289384Y-109260771D01*
X187289384Y-109260771D02*
X187289384Y-109117914D01*
X187289384Y-109117914D02*
X187241765Y-109022676D01*
X187241765Y-109022676D02*
X187194146Y-108975057D01*
X187194146Y-108975057D02*
X187098908Y-108927438D01*
X187098908Y-108927438D02*
X186860813Y-108927438D01*
X186860813Y-108927438D02*
X186765575Y-108975057D01*
X186765575Y-108975057D02*
X186717956Y-109022676D01*
X186717956Y-109022676D02*
X186670336Y-109117914D01*
X186670336Y-109117914D02*
X186670336Y-109403628D01*
X186670336Y-109403628D02*
X186717956Y-109498866D01*
X186717956Y-109498866D02*
X186765575Y-109546485D01*
X193885057Y-92769663D02*
X194361247Y-92769663D01*
X194361247Y-92769663D02*
X194408866Y-93245853D01*
X194408866Y-93245853D02*
X194361247Y-93198234D01*
X194361247Y-93198234D02*
X194266009Y-93150615D01*
X194266009Y-93150615D02*
X194027914Y-93150615D01*
X194027914Y-93150615D02*
X193932676Y-93198234D01*
X193932676Y-93198234D02*
X193885057Y-93245853D01*
X193885057Y-93245853D02*
X193837438Y-93341091D01*
X193837438Y-93341091D02*
X193837438Y-93579186D01*
X193837438Y-93579186D02*
X193885057Y-93674424D01*
X193885057Y-93674424D02*
X193932676Y-93722044D01*
X193932676Y-93722044D02*
X194027914Y-93769663D01*
X194027914Y-93769663D02*
X194266009Y-93769663D01*
X194266009Y-93769663D02*
X194361247Y-93722044D01*
X194361247Y-93722044D02*
X194408866Y-93674424D01*
X191662676Y-93182996D02*
X191662676Y-93849663D01*
X191900771Y-92802044D02*
X192138866Y-93516329D01*
X192138866Y-93516329D02*
X191519819Y-93516329D01*
X187088866Y-92934901D02*
X187041247Y-92887282D01*
X187041247Y-92887282D02*
X186946009Y-92839663D01*
X186946009Y-92839663D02*
X186707914Y-92839663D01*
X186707914Y-92839663D02*
X186612676Y-92887282D01*
X186612676Y-92887282D02*
X186565057Y-92934901D01*
X186565057Y-92934901D02*
X186517438Y-93030139D01*
X186517438Y-93030139D02*
X186517438Y-93125377D01*
X186517438Y-93125377D02*
X186565057Y-93268234D01*
X186565057Y-93268234D02*
X187136485Y-93839663D01*
X187136485Y-93839663D02*
X186517438Y-93839663D01*
X193035098Y-117088866D02*
X193082717Y-117041247D01*
X193082717Y-117041247D02*
X193130336Y-116946009D01*
X193130336Y-116946009D02*
X193130336Y-116707914D01*
X193130336Y-116707914D02*
X193082717Y-116612676D01*
X193082717Y-116612676D02*
X193035098Y-116565057D01*
X193035098Y-116565057D02*
X192939860Y-116517438D01*
X192939860Y-116517438D02*
X192844622Y-116517438D01*
X192844622Y-116517438D02*
X192701765Y-116565057D01*
X192701765Y-116565057D02*
X192130336Y-117136485D01*
X192130336Y-117136485D02*
X192130336Y-116517438D01*
X183897438Y-93779663D02*
X184468866Y-93779663D01*
X184183152Y-93779663D02*
X184183152Y-92779663D01*
X184183152Y-92779663D02*
X184278390Y-92922520D01*
X184278390Y-92922520D02*
X184373628Y-93017758D01*
X184373628Y-93017758D02*
X184468866Y-93065377D01*
X189566485Y-92859663D02*
X188947438Y-92859663D01*
X188947438Y-92859663D02*
X189280771Y-93240615D01*
X189280771Y-93240615D02*
X189137914Y-93240615D01*
X189137914Y-93240615D02*
X189042676Y-93288234D01*
X189042676Y-93288234D02*
X188995057Y-93335853D01*
X188995057Y-93335853D02*
X188947438Y-93431091D01*
X188947438Y-93431091D02*
X188947438Y-93669186D01*
X188947438Y-93669186D02*
X188995057Y-93764424D01*
X188995057Y-93764424D02*
X189042676Y-93812044D01*
X189042676Y-93812044D02*
X189137914Y-93859663D01*
X189137914Y-93859663D02*
X189423628Y-93859663D01*
X189423628Y-93859663D02*
X189518866Y-93812044D01*
X189518866Y-93812044D02*
X189566485Y-93764424D01*
X191930336Y-109167438D02*
X191930336Y-109738866D01*
X191930336Y-109453152D02*
X192930336Y-109453152D01*
X192930336Y-109453152D02*
X192787479Y-109548390D01*
X192787479Y-109548390D02*
X192692241Y-109643628D01*
X192692241Y-109643628D02*
X192644622Y-109738866D01*
X199320475Y-96640853D02*
X198987142Y-96640853D01*
X198844285Y-97164663D02*
X199320475Y-97164663D01*
X199320475Y-97164663D02*
X199320475Y-96164663D01*
X199320475Y-96164663D02*
X198844285Y-96164663D01*
X198463332Y-96259901D02*
X198415713Y-96212282D01*
X198415713Y-96212282D02*
X198320475Y-96164663D01*
X198320475Y-96164663D02*
X198082380Y-96164663D01*
X198082380Y-96164663D02*
X197987142Y-96212282D01*
X197987142Y-96212282D02*
X197939523Y-96259901D01*
X197939523Y-96259901D02*
X197891904Y-96355139D01*
X197891904Y-96355139D02*
X197891904Y-96450377D01*
X197891904Y-96450377D02*
X197939523Y-96593234D01*
X197939523Y-96593234D02*
X198510951Y-97164663D01*
X198510951Y-97164663D02*
X197891904Y-97164663D01*
X200119523Y-74654663D02*
X200119523Y-73654663D01*
X200119523Y-73654663D02*
X199738571Y-73654663D01*
X199738571Y-73654663D02*
X199643333Y-73702282D01*
X199643333Y-73702282D02*
X199595714Y-73749901D01*
X199595714Y-73749901D02*
X199548095Y-73845139D01*
X199548095Y-73845139D02*
X199548095Y-73987996D01*
X199548095Y-73987996D02*
X199595714Y-74083234D01*
X199595714Y-74083234D02*
X199643333Y-74130853D01*
X199643333Y-74130853D02*
X199738571Y-74178472D01*
X199738571Y-74178472D02*
X200119523Y-74178472D01*
X199214761Y-73654663D02*
X198976666Y-74654663D01*
X198976666Y-74654663D02*
X198786190Y-73940377D01*
X198786190Y-73940377D02*
X198595714Y-74654663D01*
X198595714Y-74654663D02*
X198357619Y-73654663D01*
X198024285Y-73749901D02*
X197976666Y-73702282D01*
X197976666Y-73702282D02*
X197881428Y-73654663D01*
X197881428Y-73654663D02*
X197643333Y-73654663D01*
X197643333Y-73654663D02*
X197548095Y-73702282D01*
X197548095Y-73702282D02*
X197500476Y-73749901D01*
X197500476Y-73749901D02*
X197452857Y-73845139D01*
X197452857Y-73845139D02*
X197452857Y-73940377D01*
X197452857Y-73940377D02*
X197500476Y-74083234D01*
X197500476Y-74083234D02*
X198071904Y-74654663D01*
X198071904Y-74654663D02*
X197452857Y-74654663D01*
X184320476Y-90049424D02*
X184368095Y-90097044D01*
X184368095Y-90097044D02*
X184510952Y-90144663D01*
X184510952Y-90144663D02*
X184606190Y-90144663D01*
X184606190Y-90144663D02*
X184749047Y-90097044D01*
X184749047Y-90097044D02*
X184844285Y-90001805D01*
X184844285Y-90001805D02*
X184891904Y-89906567D01*
X184891904Y-89906567D02*
X184939523Y-89716091D01*
X184939523Y-89716091D02*
X184939523Y-89573234D01*
X184939523Y-89573234D02*
X184891904Y-89382758D01*
X184891904Y-89382758D02*
X184844285Y-89287520D01*
X184844285Y-89287520D02*
X184749047Y-89192282D01*
X184749047Y-89192282D02*
X184606190Y-89144663D01*
X184606190Y-89144663D02*
X184510952Y-89144663D01*
X184510952Y-89144663D02*
X184368095Y-89192282D01*
X184368095Y-89192282D02*
X184320476Y-89239901D01*
X183891904Y-90144663D02*
X183891904Y-89144663D01*
X183891904Y-89144663D02*
X183320476Y-90144663D01*
X183320476Y-90144663D02*
X183320476Y-89144663D01*
X182891904Y-89239901D02*
X182844285Y-89192282D01*
X182844285Y-89192282D02*
X182749047Y-89144663D01*
X182749047Y-89144663D02*
X182510952Y-89144663D01*
X182510952Y-89144663D02*
X182415714Y-89192282D01*
X182415714Y-89192282D02*
X182368095Y-89239901D01*
X182368095Y-89239901D02*
X182320476Y-89335139D01*
X182320476Y-89335139D02*
X182320476Y-89430377D01*
X182320476Y-89430377D02*
X182368095Y-89573234D01*
X182368095Y-89573234D02*
X182939523Y-90144663D01*
X182939523Y-90144663D02*
X182320476Y-90144663D01*
D11*
%TO.C,E2*%
X181520000Y-94400000D02*
X181520000Y-96900000D01*
X181820000Y-94700000D02*
X181820000Y-98720000D01*
X181820000Y-98720000D02*
X197040000Y-98720000D01*
X182320000Y-97010000D02*
X181820000Y-97010000D01*
X182320000Y-98220000D02*
X182320000Y-97010000D01*
X182820000Y-94700000D02*
X182820000Y-96200000D01*
X182820000Y-96200000D02*
X181820000Y-96200000D01*
X184020000Y-94400000D02*
X181520000Y-94400000D01*
X196040000Y-94700000D02*
X196040000Y-96200000D01*
X196040000Y-96200000D02*
X197040000Y-96200000D01*
X196540000Y-97010000D02*
X196540000Y-98220000D01*
X196540000Y-98220000D02*
X182320000Y-98220000D01*
X197040000Y-94700000D02*
X181820000Y-94700000D01*
X197040000Y-97010000D02*
X196540000Y-97010000D01*
X197040000Y-98720000D02*
X197040000Y-94700000D01*
%TO.C,PW2*%
X196160000Y-70510000D02*
X196160000Y-73010000D01*
X196160000Y-73010000D02*
X198660000Y-73010000D01*
X196460000Y-64990000D02*
X196460000Y-72710000D01*
X196460000Y-65990000D02*
X197960000Y-65990000D01*
X196460000Y-71710000D02*
X197960000Y-71710000D01*
X196460000Y-72710000D02*
X200480000Y-72710000D01*
X197960000Y-65990000D02*
X197960000Y-64990000D01*
X197960000Y-71710000D02*
X197960000Y-72710000D01*
X198770000Y-64990000D02*
X198770000Y-65490000D01*
X198770000Y-65490000D02*
X199980000Y-65490000D01*
X198770000Y-72210000D02*
X198770000Y-72710000D01*
X199980000Y-65490000D02*
X199980000Y-72210000D01*
X199980000Y-72210000D02*
X198770000Y-72210000D01*
X200480000Y-64990000D02*
X196460000Y-64990000D01*
X200480000Y-72710000D02*
X200480000Y-64990000D01*
%TO.C,CN2*%
X185800000Y-87440000D02*
X185800000Y-91460000D01*
X185800000Y-89150000D02*
X186300000Y-89150000D01*
X185800000Y-91460000D02*
X193520000Y-91460000D01*
X186300000Y-87940000D02*
X193020000Y-87940000D01*
X186300000Y-89150000D02*
X186300000Y-87940000D01*
X186800000Y-89960000D02*
X185800000Y-89960000D01*
X186800000Y-91460000D02*
X186800000Y-89960000D01*
X191320000Y-91760000D02*
X193820000Y-91760000D01*
X192520000Y-89960000D02*
X193520000Y-89960000D01*
X192520000Y-91460000D02*
X192520000Y-89960000D01*
X193020000Y-87940000D02*
X193020000Y-89150000D01*
X193020000Y-89150000D02*
X193520000Y-89150000D01*
X193520000Y-87440000D02*
X185800000Y-87440000D01*
X193520000Y-91460000D02*
X193520000Y-87440000D01*
X193820000Y-91760000D02*
X193820000Y-89260000D01*
%TD*%
M02*
