%TF.GenerationSoftware,KiCad,Pcbnew,8.0.6*%
%TF.CreationDate,2024-11-17T15:39:36-05:00*%
%TF.ProjectId,solouno_sidepanel,736f6c6f-756e-46f5-9f73-69646570616e,rev?*%
%TF.SameCoordinates,Original*%
%TF.FileFunction,Drillmap*%
%TF.FilePolarity,Positive*%
%FSLAX45Y45*%
G04 Gerber Fmt 4.5, Leading zero omitted, Abs format (unit mm)*
G04 Created by KiCad (PCBNEW 8.0.6) date 2024-11-17 15:39:36*
%MOMM*%
%LPD*%
G01*
G04 APERTURE LIST*
%ADD10C,0.050000*%
%ADD11C,0.200000*%
%ADD12C,0.100000*%
%ADD13C,0.110000*%
%ADD14C,0.250000*%
G04 APERTURE END LIST*
D10*
X5251000Y-8958000D02*
X8151000Y-8958000D01*
X8151000Y-16958000D01*
X5251000Y-16958000D01*
X5251000Y-8958000D01*
D11*
D12*
X6542000Y-11617000D02*
X6622000Y-11697000D01*
X6622000Y-11617000D02*
X6542000Y-11697000D01*
X6792000Y-11617000D02*
X6872000Y-11697000D01*
X6872000Y-11617000D02*
X6792000Y-11697000D01*
X6248500Y-13282000D02*
G75*
G02*
X6153500Y-13282000I-47500J0D01*
G01*
X6153500Y-13282000D02*
G75*
G02*
X6248500Y-13282000I47500J0D01*
G01*
X6248500Y-14367000D02*
G75*
G02*
X6153500Y-14367000I-47500J0D01*
G01*
X6153500Y-14367000D02*
G75*
G02*
X6248500Y-14367000I47500J0D01*
G01*
X6498500Y-9363000D02*
G75*
G02*
X6403500Y-9363000I-47500J0D01*
G01*
X6403500Y-9363000D02*
G75*
G02*
X6498500Y-9363000I47500J0D01*
G01*
X6498500Y-13282000D02*
G75*
G02*
X6403500Y-13282000I-47500J0D01*
G01*
X6403500Y-13282000D02*
G75*
G02*
X6498500Y-13282000I47500J0D01*
G01*
X6498500Y-14367000D02*
G75*
G02*
X6403500Y-14367000I-47500J0D01*
G01*
X6403500Y-14367000D02*
G75*
G02*
X6498500Y-14367000I47500J0D01*
G01*
X6748500Y-9363000D02*
G75*
G02*
X6653500Y-9363000I-47500J0D01*
G01*
X6653500Y-9363000D02*
G75*
G02*
X6748500Y-9363000I47500J0D01*
G01*
X6748500Y-13282000D02*
G75*
G02*
X6653500Y-13282000I-47500J0D01*
G01*
X6653500Y-13282000D02*
G75*
G02*
X6748500Y-13282000I47500J0D01*
G01*
X6748500Y-14367000D02*
G75*
G02*
X6653500Y-14367000I-47500J0D01*
G01*
X6653500Y-14367000D02*
G75*
G02*
X6748500Y-14367000I47500J0D01*
G01*
X6998500Y-9363000D02*
G75*
G02*
X6903500Y-9363000I-47500J0D01*
G01*
X6903500Y-9363000D02*
G75*
G02*
X6998500Y-9363000I47500J0D01*
G01*
X6998500Y-13282000D02*
G75*
G02*
X6903500Y-13282000I-47500J0D01*
G01*
X6903500Y-13282000D02*
G75*
G02*
X6998500Y-13282000I47500J0D01*
G01*
X6998500Y-14367000D02*
G75*
G02*
X6903500Y-14367000I-47500J0D01*
G01*
X6903500Y-14367000D02*
G75*
G02*
X6998500Y-14367000I47500J0D01*
G01*
X7248500Y-13282000D02*
G75*
G02*
X7153500Y-13282000I-47500J0D01*
G01*
X7153500Y-13282000D02*
G75*
G02*
X7248500Y-13282000I47500J0D01*
G01*
X7248500Y-14367000D02*
G75*
G02*
X7153500Y-14367000I-47500J0D01*
G01*
X7153500Y-14367000D02*
G75*
G02*
X7248500Y-14367000I47500J0D01*
G01*
X5799000Y-9313000D02*
X5799000Y-9413000D01*
X5749000Y-9363000D02*
X5849000Y-9363000D01*
X5799000Y-9563000D02*
X5799000Y-9663000D01*
X5749000Y-9613000D02*
X5849000Y-9613000D01*
X6576000Y-12552000D02*
X6576000Y-12652000D01*
X6526000Y-12602000D02*
X6626000Y-12602000D01*
X6576000Y-13770000D02*
X6576000Y-13870000D01*
X6526000Y-13820000D02*
X6626000Y-13820000D01*
X6826000Y-12552000D02*
X6826000Y-12652000D01*
X6776000Y-12602000D02*
X6876000Y-12602000D01*
X6826000Y-13770000D02*
X6826000Y-13870000D01*
X6776000Y-13820000D02*
X6876000Y-13820000D01*
X7599000Y-9313000D02*
X7599000Y-9413000D01*
X7549000Y-9363000D02*
X7649000Y-9363000D01*
X7599000Y-9563000D02*
X7599000Y-9663000D01*
X7549000Y-9613000D02*
X7649000Y-9613000D01*
D13*
X6049891Y-16709891D02*
X6049891Y-16632109D01*
X5972109Y-16632109D01*
X5972109Y-16709891D01*
X6049891Y-16709891D01*
X6509891Y-16709891D02*
X6509891Y-16632109D01*
X6432109Y-16632109D01*
X6432109Y-16709891D01*
X6509891Y-16709891D01*
X6969891Y-16709891D02*
X6969891Y-16632109D01*
X6892109Y-16632109D01*
X6892109Y-16709891D01*
X6969891Y-16709891D01*
X7429891Y-16709891D02*
X7429891Y-16632109D01*
X7352109Y-16632109D01*
X7352109Y-16709891D01*
X7429891Y-16709891D01*
D14*
X6451000Y-10640494D02*
X6576000Y-10515494D01*
X6451000Y-10390494D01*
X6326000Y-10515494D01*
X6451000Y-10640494D01*
X6701000Y-11073506D02*
X6826000Y-10948506D01*
X6701000Y-10823506D01*
X6576000Y-10948506D01*
X6701000Y-11073506D01*
X6951000Y-10640494D02*
X7076000Y-10515494D01*
X6951000Y-10390494D01*
X6826000Y-10515494D01*
X6951000Y-10640494D01*
D11*
X5509277Y-17271984D02*
X5509277Y-17071984D01*
X5509277Y-17071984D02*
X5556896Y-17071984D01*
X5556896Y-17071984D02*
X5585467Y-17081508D01*
X5585467Y-17081508D02*
X5604515Y-17100555D01*
X5604515Y-17100555D02*
X5614039Y-17119603D01*
X5614039Y-17119603D02*
X5623562Y-17157698D01*
X5623562Y-17157698D02*
X5623562Y-17186270D01*
X5623562Y-17186270D02*
X5614039Y-17224365D01*
X5614039Y-17224365D02*
X5604515Y-17243412D01*
X5604515Y-17243412D02*
X5585467Y-17262460D01*
X5585467Y-17262460D02*
X5556896Y-17271984D01*
X5556896Y-17271984D02*
X5509277Y-17271984D01*
X5709277Y-17271984D02*
X5709277Y-17138650D01*
X5709277Y-17176746D02*
X5718801Y-17157698D01*
X5718801Y-17157698D02*
X5728324Y-17148174D01*
X5728324Y-17148174D02*
X5747372Y-17138650D01*
X5747372Y-17138650D02*
X5766420Y-17138650D01*
X5833086Y-17271984D02*
X5833086Y-17138650D01*
X5833086Y-17071984D02*
X5823562Y-17081508D01*
X5823562Y-17081508D02*
X5833086Y-17091031D01*
X5833086Y-17091031D02*
X5842610Y-17081508D01*
X5842610Y-17081508D02*
X5833086Y-17071984D01*
X5833086Y-17071984D02*
X5833086Y-17091031D01*
X5956896Y-17271984D02*
X5937848Y-17262460D01*
X5937848Y-17262460D02*
X5928324Y-17243412D01*
X5928324Y-17243412D02*
X5928324Y-17071984D01*
X6061658Y-17271984D02*
X6042610Y-17262460D01*
X6042610Y-17262460D02*
X6033086Y-17243412D01*
X6033086Y-17243412D02*
X6033086Y-17071984D01*
X6290229Y-17271984D02*
X6290229Y-17071984D01*
X6290229Y-17071984D02*
X6356896Y-17214841D01*
X6356896Y-17214841D02*
X6423562Y-17071984D01*
X6423562Y-17071984D02*
X6423562Y-17271984D01*
X6604515Y-17271984D02*
X6604515Y-17167222D01*
X6604515Y-17167222D02*
X6594991Y-17148174D01*
X6594991Y-17148174D02*
X6575943Y-17138650D01*
X6575943Y-17138650D02*
X6537848Y-17138650D01*
X6537848Y-17138650D02*
X6518801Y-17148174D01*
X6604515Y-17262460D02*
X6585467Y-17271984D01*
X6585467Y-17271984D02*
X6537848Y-17271984D01*
X6537848Y-17271984D02*
X6518801Y-17262460D01*
X6518801Y-17262460D02*
X6509277Y-17243412D01*
X6509277Y-17243412D02*
X6509277Y-17224365D01*
X6509277Y-17224365D02*
X6518801Y-17205317D01*
X6518801Y-17205317D02*
X6537848Y-17195793D01*
X6537848Y-17195793D02*
X6585467Y-17195793D01*
X6585467Y-17195793D02*
X6604515Y-17186270D01*
X6699753Y-17138650D02*
X6699753Y-17338650D01*
X6699753Y-17148174D02*
X6718801Y-17138650D01*
X6718801Y-17138650D02*
X6756896Y-17138650D01*
X6756896Y-17138650D02*
X6775943Y-17148174D01*
X6775943Y-17148174D02*
X6785467Y-17157698D01*
X6785467Y-17157698D02*
X6794991Y-17176746D01*
X6794991Y-17176746D02*
X6794991Y-17233889D01*
X6794991Y-17233889D02*
X6785467Y-17252936D01*
X6785467Y-17252936D02*
X6775943Y-17262460D01*
X6775943Y-17262460D02*
X6756896Y-17271984D01*
X6756896Y-17271984D02*
X6718801Y-17271984D01*
X6718801Y-17271984D02*
X6699753Y-17262460D01*
X6880705Y-17252936D02*
X6890229Y-17262460D01*
X6890229Y-17262460D02*
X6880705Y-17271984D01*
X6880705Y-17271984D02*
X6871182Y-17262460D01*
X6871182Y-17262460D02*
X6880705Y-17252936D01*
X6880705Y-17252936D02*
X6880705Y-17271984D01*
X6880705Y-17148174D02*
X6890229Y-17157698D01*
X6890229Y-17157698D02*
X6880705Y-17167222D01*
X6880705Y-17167222D02*
X6871182Y-17157698D01*
X6871182Y-17157698D02*
X6880705Y-17148174D01*
X6880705Y-17148174D02*
X6880705Y-17167222D01*
D12*
X5168500Y-17560500D02*
X5248500Y-17640500D01*
X5248500Y-17560500D02*
X5168500Y-17640500D01*
D11*
X5547372Y-17491984D02*
X5566420Y-17491984D01*
X5566420Y-17491984D02*
X5585467Y-17501508D01*
X5585467Y-17501508D02*
X5594991Y-17511031D01*
X5594991Y-17511031D02*
X5604515Y-17530079D01*
X5604515Y-17530079D02*
X5614039Y-17568174D01*
X5614039Y-17568174D02*
X5614039Y-17615793D01*
X5614039Y-17615793D02*
X5604515Y-17653889D01*
X5604515Y-17653889D02*
X5594991Y-17672936D01*
X5594991Y-17672936D02*
X5585467Y-17682460D01*
X5585467Y-17682460D02*
X5566420Y-17691984D01*
X5566420Y-17691984D02*
X5547372Y-17691984D01*
X5547372Y-17691984D02*
X5528324Y-17682460D01*
X5528324Y-17682460D02*
X5518801Y-17672936D01*
X5518801Y-17672936D02*
X5509277Y-17653889D01*
X5509277Y-17653889D02*
X5499753Y-17615793D01*
X5499753Y-17615793D02*
X5499753Y-17568174D01*
X5499753Y-17568174D02*
X5509277Y-17530079D01*
X5509277Y-17530079D02*
X5518801Y-17511031D01*
X5518801Y-17511031D02*
X5528324Y-17501508D01*
X5528324Y-17501508D02*
X5547372Y-17491984D01*
X5699753Y-17672936D02*
X5709277Y-17682460D01*
X5709277Y-17682460D02*
X5699753Y-17691984D01*
X5699753Y-17691984D02*
X5690229Y-17682460D01*
X5690229Y-17682460D02*
X5699753Y-17672936D01*
X5699753Y-17672936D02*
X5699753Y-17691984D01*
X5823562Y-17577698D02*
X5804515Y-17568174D01*
X5804515Y-17568174D02*
X5794991Y-17558650D01*
X5794991Y-17558650D02*
X5785467Y-17539603D01*
X5785467Y-17539603D02*
X5785467Y-17530079D01*
X5785467Y-17530079D02*
X5794991Y-17511031D01*
X5794991Y-17511031D02*
X5804515Y-17501508D01*
X5804515Y-17501508D02*
X5823562Y-17491984D01*
X5823562Y-17491984D02*
X5861658Y-17491984D01*
X5861658Y-17491984D02*
X5880705Y-17501508D01*
X5880705Y-17501508D02*
X5890229Y-17511031D01*
X5890229Y-17511031D02*
X5899753Y-17530079D01*
X5899753Y-17530079D02*
X5899753Y-17539603D01*
X5899753Y-17539603D02*
X5890229Y-17558650D01*
X5890229Y-17558650D02*
X5880705Y-17568174D01*
X5880705Y-17568174D02*
X5861658Y-17577698D01*
X5861658Y-17577698D02*
X5823562Y-17577698D01*
X5823562Y-17577698D02*
X5804515Y-17587222D01*
X5804515Y-17587222D02*
X5794991Y-17596746D01*
X5794991Y-17596746D02*
X5785467Y-17615793D01*
X5785467Y-17615793D02*
X5785467Y-17653889D01*
X5785467Y-17653889D02*
X5794991Y-17672936D01*
X5794991Y-17672936D02*
X5804515Y-17682460D01*
X5804515Y-17682460D02*
X5823562Y-17691984D01*
X5823562Y-17691984D02*
X5861658Y-17691984D01*
X5861658Y-17691984D02*
X5880705Y-17682460D01*
X5880705Y-17682460D02*
X5890229Y-17672936D01*
X5890229Y-17672936D02*
X5899753Y-17653889D01*
X5899753Y-17653889D02*
X5899753Y-17615793D01*
X5899753Y-17615793D02*
X5890229Y-17596746D01*
X5890229Y-17596746D02*
X5880705Y-17587222D01*
X5880705Y-17587222D02*
X5861658Y-17577698D01*
X6023562Y-17491984D02*
X6042610Y-17491984D01*
X6042610Y-17491984D02*
X6061658Y-17501508D01*
X6061658Y-17501508D02*
X6071182Y-17511031D01*
X6071182Y-17511031D02*
X6080705Y-17530079D01*
X6080705Y-17530079D02*
X6090229Y-17568174D01*
X6090229Y-17568174D02*
X6090229Y-17615793D01*
X6090229Y-17615793D02*
X6080705Y-17653889D01*
X6080705Y-17653889D02*
X6071182Y-17672936D01*
X6071182Y-17672936D02*
X6061658Y-17682460D01*
X6061658Y-17682460D02*
X6042610Y-17691984D01*
X6042610Y-17691984D02*
X6023562Y-17691984D01*
X6023562Y-17691984D02*
X6004515Y-17682460D01*
X6004515Y-17682460D02*
X5994991Y-17672936D01*
X5994991Y-17672936D02*
X5985467Y-17653889D01*
X5985467Y-17653889D02*
X5975943Y-17615793D01*
X5975943Y-17615793D02*
X5975943Y-17568174D01*
X5975943Y-17568174D02*
X5985467Y-17530079D01*
X5985467Y-17530079D02*
X5994991Y-17511031D01*
X5994991Y-17511031D02*
X6004515Y-17501508D01*
X6004515Y-17501508D02*
X6023562Y-17491984D01*
X6214039Y-17491984D02*
X6233086Y-17491984D01*
X6233086Y-17491984D02*
X6252134Y-17501508D01*
X6252134Y-17501508D02*
X6261658Y-17511031D01*
X6261658Y-17511031D02*
X6271182Y-17530079D01*
X6271182Y-17530079D02*
X6280705Y-17568174D01*
X6280705Y-17568174D02*
X6280705Y-17615793D01*
X6280705Y-17615793D02*
X6271182Y-17653889D01*
X6271182Y-17653889D02*
X6261658Y-17672936D01*
X6261658Y-17672936D02*
X6252134Y-17682460D01*
X6252134Y-17682460D02*
X6233086Y-17691984D01*
X6233086Y-17691984D02*
X6214039Y-17691984D01*
X6214039Y-17691984D02*
X6194991Y-17682460D01*
X6194991Y-17682460D02*
X6185467Y-17672936D01*
X6185467Y-17672936D02*
X6175943Y-17653889D01*
X6175943Y-17653889D02*
X6166420Y-17615793D01*
X6166420Y-17615793D02*
X6166420Y-17568174D01*
X6166420Y-17568174D02*
X6175943Y-17530079D01*
X6175943Y-17530079D02*
X6185467Y-17511031D01*
X6185467Y-17511031D02*
X6194991Y-17501508D01*
X6194991Y-17501508D02*
X6214039Y-17491984D01*
X6366420Y-17691984D02*
X6366420Y-17558650D01*
X6366420Y-17577698D02*
X6375943Y-17568174D01*
X6375943Y-17568174D02*
X6394991Y-17558650D01*
X6394991Y-17558650D02*
X6423563Y-17558650D01*
X6423563Y-17558650D02*
X6442610Y-17568174D01*
X6442610Y-17568174D02*
X6452134Y-17587222D01*
X6452134Y-17587222D02*
X6452134Y-17691984D01*
X6452134Y-17587222D02*
X6461658Y-17568174D01*
X6461658Y-17568174D02*
X6480705Y-17558650D01*
X6480705Y-17558650D02*
X6509277Y-17558650D01*
X6509277Y-17558650D02*
X6528324Y-17568174D01*
X6528324Y-17568174D02*
X6537848Y-17587222D01*
X6537848Y-17587222D02*
X6537848Y-17691984D01*
X6633086Y-17691984D02*
X6633086Y-17558650D01*
X6633086Y-17577698D02*
X6642610Y-17568174D01*
X6642610Y-17568174D02*
X6661658Y-17558650D01*
X6661658Y-17558650D02*
X6690229Y-17558650D01*
X6690229Y-17558650D02*
X6709277Y-17568174D01*
X6709277Y-17568174D02*
X6718801Y-17587222D01*
X6718801Y-17587222D02*
X6718801Y-17691984D01*
X6718801Y-17587222D02*
X6728324Y-17568174D01*
X6728324Y-17568174D02*
X6747372Y-17558650D01*
X6747372Y-17558650D02*
X6775943Y-17558650D01*
X6775943Y-17558650D02*
X6794991Y-17568174D01*
X6794991Y-17568174D02*
X6804515Y-17587222D01*
X6804515Y-17587222D02*
X6804515Y-17691984D01*
X7194991Y-17482460D02*
X7023563Y-17739603D01*
X7452134Y-17491984D02*
X7471182Y-17491984D01*
X7471182Y-17491984D02*
X7490229Y-17501508D01*
X7490229Y-17501508D02*
X7499753Y-17511031D01*
X7499753Y-17511031D02*
X7509277Y-17530079D01*
X7509277Y-17530079D02*
X7518801Y-17568174D01*
X7518801Y-17568174D02*
X7518801Y-17615793D01*
X7518801Y-17615793D02*
X7509277Y-17653889D01*
X7509277Y-17653889D02*
X7499753Y-17672936D01*
X7499753Y-17672936D02*
X7490229Y-17682460D01*
X7490229Y-17682460D02*
X7471182Y-17691984D01*
X7471182Y-17691984D02*
X7452134Y-17691984D01*
X7452134Y-17691984D02*
X7433086Y-17682460D01*
X7433086Y-17682460D02*
X7423563Y-17672936D01*
X7423563Y-17672936D02*
X7414039Y-17653889D01*
X7414039Y-17653889D02*
X7404515Y-17615793D01*
X7404515Y-17615793D02*
X7404515Y-17568174D01*
X7404515Y-17568174D02*
X7414039Y-17530079D01*
X7414039Y-17530079D02*
X7423563Y-17511031D01*
X7423563Y-17511031D02*
X7433086Y-17501508D01*
X7433086Y-17501508D02*
X7452134Y-17491984D01*
X7604515Y-17672936D02*
X7614039Y-17682460D01*
X7614039Y-17682460D02*
X7604515Y-17691984D01*
X7604515Y-17691984D02*
X7594991Y-17682460D01*
X7594991Y-17682460D02*
X7604515Y-17672936D01*
X7604515Y-17672936D02*
X7604515Y-17691984D01*
X7737848Y-17491984D02*
X7756896Y-17491984D01*
X7756896Y-17491984D02*
X7775944Y-17501508D01*
X7775944Y-17501508D02*
X7785467Y-17511031D01*
X7785467Y-17511031D02*
X7794991Y-17530079D01*
X7794991Y-17530079D02*
X7804515Y-17568174D01*
X7804515Y-17568174D02*
X7804515Y-17615793D01*
X7804515Y-17615793D02*
X7794991Y-17653889D01*
X7794991Y-17653889D02*
X7785467Y-17672936D01*
X7785467Y-17672936D02*
X7775944Y-17682460D01*
X7775944Y-17682460D02*
X7756896Y-17691984D01*
X7756896Y-17691984D02*
X7737848Y-17691984D01*
X7737848Y-17691984D02*
X7718801Y-17682460D01*
X7718801Y-17682460D02*
X7709277Y-17672936D01*
X7709277Y-17672936D02*
X7699753Y-17653889D01*
X7699753Y-17653889D02*
X7690229Y-17615793D01*
X7690229Y-17615793D02*
X7690229Y-17568174D01*
X7690229Y-17568174D02*
X7699753Y-17530079D01*
X7699753Y-17530079D02*
X7709277Y-17511031D01*
X7709277Y-17511031D02*
X7718801Y-17501508D01*
X7718801Y-17501508D02*
X7737848Y-17491984D01*
X7871182Y-17491984D02*
X7994991Y-17491984D01*
X7994991Y-17491984D02*
X7928325Y-17568174D01*
X7928325Y-17568174D02*
X7956896Y-17568174D01*
X7956896Y-17568174D02*
X7975944Y-17577698D01*
X7975944Y-17577698D02*
X7985467Y-17587222D01*
X7985467Y-17587222D02*
X7994991Y-17606270D01*
X7994991Y-17606270D02*
X7994991Y-17653889D01*
X7994991Y-17653889D02*
X7985467Y-17672936D01*
X7985467Y-17672936D02*
X7975944Y-17682460D01*
X7975944Y-17682460D02*
X7956896Y-17691984D01*
X7956896Y-17691984D02*
X7899753Y-17691984D01*
X7899753Y-17691984D02*
X7880706Y-17682460D01*
X7880706Y-17682460D02*
X7871182Y-17672936D01*
X8185467Y-17691984D02*
X8071182Y-17691984D01*
X8128325Y-17691984D02*
X8128325Y-17491984D01*
X8128325Y-17491984D02*
X8109277Y-17520555D01*
X8109277Y-17520555D02*
X8090229Y-17539603D01*
X8090229Y-17539603D02*
X8071182Y-17549127D01*
X8366420Y-17491984D02*
X8271182Y-17491984D01*
X8271182Y-17491984D02*
X8261658Y-17587222D01*
X8261658Y-17587222D02*
X8271182Y-17577698D01*
X8271182Y-17577698D02*
X8290229Y-17568174D01*
X8290229Y-17568174D02*
X8337848Y-17568174D01*
X8337848Y-17568174D02*
X8356896Y-17577698D01*
X8356896Y-17577698D02*
X8366420Y-17587222D01*
X8366420Y-17587222D02*
X8375944Y-17606270D01*
X8375944Y-17606270D02*
X8375944Y-17653889D01*
X8375944Y-17653889D02*
X8366420Y-17672936D01*
X8366420Y-17672936D02*
X8356896Y-17682460D01*
X8356896Y-17682460D02*
X8337848Y-17691984D01*
X8337848Y-17691984D02*
X8290229Y-17691984D01*
X8290229Y-17691984D02*
X8271182Y-17682460D01*
X8271182Y-17682460D02*
X8261658Y-17672936D01*
X8452134Y-17491984D02*
X8452134Y-17530079D01*
X8528325Y-17491984D02*
X8528325Y-17530079D01*
X8823563Y-17768174D02*
X8814039Y-17758650D01*
X8814039Y-17758650D02*
X8794991Y-17730079D01*
X8794991Y-17730079D02*
X8785468Y-17711031D01*
X8785468Y-17711031D02*
X8775944Y-17682460D01*
X8775944Y-17682460D02*
X8766420Y-17634841D01*
X8766420Y-17634841D02*
X8766420Y-17596746D01*
X8766420Y-17596746D02*
X8775944Y-17549127D01*
X8775944Y-17549127D02*
X8785468Y-17520555D01*
X8785468Y-17520555D02*
X8794991Y-17501508D01*
X8794991Y-17501508D02*
X8814039Y-17472936D01*
X8814039Y-17472936D02*
X8823563Y-17463412D01*
X8890230Y-17511031D02*
X8899753Y-17501508D01*
X8899753Y-17501508D02*
X8918801Y-17491984D01*
X8918801Y-17491984D02*
X8966420Y-17491984D01*
X8966420Y-17491984D02*
X8985468Y-17501508D01*
X8985468Y-17501508D02*
X8994991Y-17511031D01*
X8994991Y-17511031D02*
X9004515Y-17530079D01*
X9004515Y-17530079D02*
X9004515Y-17549127D01*
X9004515Y-17549127D02*
X8994991Y-17577698D01*
X8994991Y-17577698D02*
X8880706Y-17691984D01*
X8880706Y-17691984D02*
X9004515Y-17691984D01*
X9242611Y-17691984D02*
X9242611Y-17491984D01*
X9328325Y-17691984D02*
X9328325Y-17587222D01*
X9328325Y-17587222D02*
X9318801Y-17568174D01*
X9318801Y-17568174D02*
X9299753Y-17558650D01*
X9299753Y-17558650D02*
X9271182Y-17558650D01*
X9271182Y-17558650D02*
X9252134Y-17568174D01*
X9252134Y-17568174D02*
X9242611Y-17577698D01*
X9452134Y-17691984D02*
X9433087Y-17682460D01*
X9433087Y-17682460D02*
X9423563Y-17672936D01*
X9423563Y-17672936D02*
X9414039Y-17653889D01*
X9414039Y-17653889D02*
X9414039Y-17596746D01*
X9414039Y-17596746D02*
X9423563Y-17577698D01*
X9423563Y-17577698D02*
X9433087Y-17568174D01*
X9433087Y-17568174D02*
X9452134Y-17558650D01*
X9452134Y-17558650D02*
X9480706Y-17558650D01*
X9480706Y-17558650D02*
X9499753Y-17568174D01*
X9499753Y-17568174D02*
X9509277Y-17577698D01*
X9509277Y-17577698D02*
X9518801Y-17596746D01*
X9518801Y-17596746D02*
X9518801Y-17653889D01*
X9518801Y-17653889D02*
X9509277Y-17672936D01*
X9509277Y-17672936D02*
X9499753Y-17682460D01*
X9499753Y-17682460D02*
X9480706Y-17691984D01*
X9480706Y-17691984D02*
X9452134Y-17691984D01*
X9633087Y-17691984D02*
X9614039Y-17682460D01*
X9614039Y-17682460D02*
X9604515Y-17663412D01*
X9604515Y-17663412D02*
X9604515Y-17491984D01*
X9785468Y-17682460D02*
X9766420Y-17691984D01*
X9766420Y-17691984D02*
X9728325Y-17691984D01*
X9728325Y-17691984D02*
X9709277Y-17682460D01*
X9709277Y-17682460D02*
X9699753Y-17663412D01*
X9699753Y-17663412D02*
X9699753Y-17587222D01*
X9699753Y-17587222D02*
X9709277Y-17568174D01*
X9709277Y-17568174D02*
X9728325Y-17558650D01*
X9728325Y-17558650D02*
X9766420Y-17558650D01*
X9766420Y-17558650D02*
X9785468Y-17568174D01*
X9785468Y-17568174D02*
X9794992Y-17587222D01*
X9794992Y-17587222D02*
X9794992Y-17606270D01*
X9794992Y-17606270D02*
X9699753Y-17625317D01*
X9871182Y-17682460D02*
X9890230Y-17691984D01*
X9890230Y-17691984D02*
X9928325Y-17691984D01*
X9928325Y-17691984D02*
X9947373Y-17682460D01*
X9947373Y-17682460D02*
X9956896Y-17663412D01*
X9956896Y-17663412D02*
X9956896Y-17653889D01*
X9956896Y-17653889D02*
X9947373Y-17634841D01*
X9947373Y-17634841D02*
X9928325Y-17625317D01*
X9928325Y-17625317D02*
X9899753Y-17625317D01*
X9899753Y-17625317D02*
X9880706Y-17615793D01*
X9880706Y-17615793D02*
X9871182Y-17596746D01*
X9871182Y-17596746D02*
X9871182Y-17587222D01*
X9871182Y-17587222D02*
X9880706Y-17568174D01*
X9880706Y-17568174D02*
X9899753Y-17558650D01*
X9899753Y-17558650D02*
X9928325Y-17558650D01*
X9928325Y-17558650D02*
X9947373Y-17568174D01*
X10023563Y-17768174D02*
X10033087Y-17758650D01*
X10033087Y-17758650D02*
X10052134Y-17730079D01*
X10052134Y-17730079D02*
X10061658Y-17711031D01*
X10061658Y-17711031D02*
X10071182Y-17682460D01*
X10071182Y-17682460D02*
X10080706Y-17634841D01*
X10080706Y-17634841D02*
X10080706Y-17596746D01*
X10080706Y-17596746D02*
X10071182Y-17549127D01*
X10071182Y-17549127D02*
X10061658Y-17520555D01*
X10061658Y-17520555D02*
X10052134Y-17501508D01*
X10052134Y-17501508D02*
X10033087Y-17472936D01*
X10033087Y-17472936D02*
X10023563Y-17463412D01*
D12*
X5248500Y-17864500D02*
G75*
G02*
X5153500Y-17864500I-47500J0D01*
G01*
X5153500Y-17864500D02*
G75*
G02*
X5248500Y-17864500I47500J0D01*
G01*
D11*
X5547372Y-17755984D02*
X5566420Y-17755984D01*
X5566420Y-17755984D02*
X5585467Y-17765508D01*
X5585467Y-17765508D02*
X5594991Y-17775031D01*
X5594991Y-17775031D02*
X5604515Y-17794079D01*
X5604515Y-17794079D02*
X5614039Y-17832174D01*
X5614039Y-17832174D02*
X5614039Y-17879793D01*
X5614039Y-17879793D02*
X5604515Y-17917889D01*
X5604515Y-17917889D02*
X5594991Y-17936936D01*
X5594991Y-17936936D02*
X5585467Y-17946460D01*
X5585467Y-17946460D02*
X5566420Y-17955984D01*
X5566420Y-17955984D02*
X5547372Y-17955984D01*
X5547372Y-17955984D02*
X5528324Y-17946460D01*
X5528324Y-17946460D02*
X5518801Y-17936936D01*
X5518801Y-17936936D02*
X5509277Y-17917889D01*
X5509277Y-17917889D02*
X5499753Y-17879793D01*
X5499753Y-17879793D02*
X5499753Y-17832174D01*
X5499753Y-17832174D02*
X5509277Y-17794079D01*
X5509277Y-17794079D02*
X5518801Y-17775031D01*
X5518801Y-17775031D02*
X5528324Y-17765508D01*
X5528324Y-17765508D02*
X5547372Y-17755984D01*
X5699753Y-17936936D02*
X5709277Y-17946460D01*
X5709277Y-17946460D02*
X5699753Y-17955984D01*
X5699753Y-17955984D02*
X5690229Y-17946460D01*
X5690229Y-17946460D02*
X5699753Y-17936936D01*
X5699753Y-17936936D02*
X5699753Y-17955984D01*
X5804515Y-17955984D02*
X5842610Y-17955984D01*
X5842610Y-17955984D02*
X5861658Y-17946460D01*
X5861658Y-17946460D02*
X5871182Y-17936936D01*
X5871182Y-17936936D02*
X5890229Y-17908365D01*
X5890229Y-17908365D02*
X5899753Y-17870270D01*
X5899753Y-17870270D02*
X5899753Y-17794079D01*
X5899753Y-17794079D02*
X5890229Y-17775031D01*
X5890229Y-17775031D02*
X5880705Y-17765508D01*
X5880705Y-17765508D02*
X5861658Y-17755984D01*
X5861658Y-17755984D02*
X5823562Y-17755984D01*
X5823562Y-17755984D02*
X5804515Y-17765508D01*
X5804515Y-17765508D02*
X5794991Y-17775031D01*
X5794991Y-17775031D02*
X5785467Y-17794079D01*
X5785467Y-17794079D02*
X5785467Y-17841698D01*
X5785467Y-17841698D02*
X5794991Y-17860746D01*
X5794991Y-17860746D02*
X5804515Y-17870270D01*
X5804515Y-17870270D02*
X5823562Y-17879793D01*
X5823562Y-17879793D02*
X5861658Y-17879793D01*
X5861658Y-17879793D02*
X5880705Y-17870270D01*
X5880705Y-17870270D02*
X5890229Y-17860746D01*
X5890229Y-17860746D02*
X5899753Y-17841698D01*
X6080705Y-17755984D02*
X5985467Y-17755984D01*
X5985467Y-17755984D02*
X5975943Y-17851222D01*
X5975943Y-17851222D02*
X5985467Y-17841698D01*
X5985467Y-17841698D02*
X6004515Y-17832174D01*
X6004515Y-17832174D02*
X6052134Y-17832174D01*
X6052134Y-17832174D02*
X6071182Y-17841698D01*
X6071182Y-17841698D02*
X6080705Y-17851222D01*
X6080705Y-17851222D02*
X6090229Y-17870270D01*
X6090229Y-17870270D02*
X6090229Y-17917889D01*
X6090229Y-17917889D02*
X6080705Y-17936936D01*
X6080705Y-17936936D02*
X6071182Y-17946460D01*
X6071182Y-17946460D02*
X6052134Y-17955984D01*
X6052134Y-17955984D02*
X6004515Y-17955984D01*
X6004515Y-17955984D02*
X5985467Y-17946460D01*
X5985467Y-17946460D02*
X5975943Y-17936936D01*
X6214039Y-17755984D02*
X6233086Y-17755984D01*
X6233086Y-17755984D02*
X6252134Y-17765508D01*
X6252134Y-17765508D02*
X6261658Y-17775031D01*
X6261658Y-17775031D02*
X6271182Y-17794079D01*
X6271182Y-17794079D02*
X6280705Y-17832174D01*
X6280705Y-17832174D02*
X6280705Y-17879793D01*
X6280705Y-17879793D02*
X6271182Y-17917889D01*
X6271182Y-17917889D02*
X6261658Y-17936936D01*
X6261658Y-17936936D02*
X6252134Y-17946460D01*
X6252134Y-17946460D02*
X6233086Y-17955984D01*
X6233086Y-17955984D02*
X6214039Y-17955984D01*
X6214039Y-17955984D02*
X6194991Y-17946460D01*
X6194991Y-17946460D02*
X6185467Y-17936936D01*
X6185467Y-17936936D02*
X6175943Y-17917889D01*
X6175943Y-17917889D02*
X6166420Y-17879793D01*
X6166420Y-17879793D02*
X6166420Y-17832174D01*
X6166420Y-17832174D02*
X6175943Y-17794079D01*
X6175943Y-17794079D02*
X6185467Y-17775031D01*
X6185467Y-17775031D02*
X6194991Y-17765508D01*
X6194991Y-17765508D02*
X6214039Y-17755984D01*
X6366420Y-17955984D02*
X6366420Y-17822650D01*
X6366420Y-17841698D02*
X6375943Y-17832174D01*
X6375943Y-17832174D02*
X6394991Y-17822650D01*
X6394991Y-17822650D02*
X6423563Y-17822650D01*
X6423563Y-17822650D02*
X6442610Y-17832174D01*
X6442610Y-17832174D02*
X6452134Y-17851222D01*
X6452134Y-17851222D02*
X6452134Y-17955984D01*
X6452134Y-17851222D02*
X6461658Y-17832174D01*
X6461658Y-17832174D02*
X6480705Y-17822650D01*
X6480705Y-17822650D02*
X6509277Y-17822650D01*
X6509277Y-17822650D02*
X6528324Y-17832174D01*
X6528324Y-17832174D02*
X6537848Y-17851222D01*
X6537848Y-17851222D02*
X6537848Y-17955984D01*
X6633086Y-17955984D02*
X6633086Y-17822650D01*
X6633086Y-17841698D02*
X6642610Y-17832174D01*
X6642610Y-17832174D02*
X6661658Y-17822650D01*
X6661658Y-17822650D02*
X6690229Y-17822650D01*
X6690229Y-17822650D02*
X6709277Y-17832174D01*
X6709277Y-17832174D02*
X6718801Y-17851222D01*
X6718801Y-17851222D02*
X6718801Y-17955984D01*
X6718801Y-17851222D02*
X6728324Y-17832174D01*
X6728324Y-17832174D02*
X6747372Y-17822650D01*
X6747372Y-17822650D02*
X6775943Y-17822650D01*
X6775943Y-17822650D02*
X6794991Y-17832174D01*
X6794991Y-17832174D02*
X6804515Y-17851222D01*
X6804515Y-17851222D02*
X6804515Y-17955984D01*
X7194991Y-17746460D02*
X7023563Y-18003603D01*
X7452134Y-17755984D02*
X7471182Y-17755984D01*
X7471182Y-17755984D02*
X7490229Y-17765508D01*
X7490229Y-17765508D02*
X7499753Y-17775031D01*
X7499753Y-17775031D02*
X7509277Y-17794079D01*
X7509277Y-17794079D02*
X7518801Y-17832174D01*
X7518801Y-17832174D02*
X7518801Y-17879793D01*
X7518801Y-17879793D02*
X7509277Y-17917889D01*
X7509277Y-17917889D02*
X7499753Y-17936936D01*
X7499753Y-17936936D02*
X7490229Y-17946460D01*
X7490229Y-17946460D02*
X7471182Y-17955984D01*
X7471182Y-17955984D02*
X7452134Y-17955984D01*
X7452134Y-17955984D02*
X7433086Y-17946460D01*
X7433086Y-17946460D02*
X7423563Y-17936936D01*
X7423563Y-17936936D02*
X7414039Y-17917889D01*
X7414039Y-17917889D02*
X7404515Y-17879793D01*
X7404515Y-17879793D02*
X7404515Y-17832174D01*
X7404515Y-17832174D02*
X7414039Y-17794079D01*
X7414039Y-17794079D02*
X7423563Y-17775031D01*
X7423563Y-17775031D02*
X7433086Y-17765508D01*
X7433086Y-17765508D02*
X7452134Y-17755984D01*
X7604515Y-17936936D02*
X7614039Y-17946460D01*
X7614039Y-17946460D02*
X7604515Y-17955984D01*
X7604515Y-17955984D02*
X7594991Y-17946460D01*
X7594991Y-17946460D02*
X7604515Y-17936936D01*
X7604515Y-17936936D02*
X7604515Y-17955984D01*
X7737848Y-17755984D02*
X7756896Y-17755984D01*
X7756896Y-17755984D02*
X7775944Y-17765508D01*
X7775944Y-17765508D02*
X7785467Y-17775031D01*
X7785467Y-17775031D02*
X7794991Y-17794079D01*
X7794991Y-17794079D02*
X7804515Y-17832174D01*
X7804515Y-17832174D02*
X7804515Y-17879793D01*
X7804515Y-17879793D02*
X7794991Y-17917889D01*
X7794991Y-17917889D02*
X7785467Y-17936936D01*
X7785467Y-17936936D02*
X7775944Y-17946460D01*
X7775944Y-17946460D02*
X7756896Y-17955984D01*
X7756896Y-17955984D02*
X7737848Y-17955984D01*
X7737848Y-17955984D02*
X7718801Y-17946460D01*
X7718801Y-17946460D02*
X7709277Y-17936936D01*
X7709277Y-17936936D02*
X7699753Y-17917889D01*
X7699753Y-17917889D02*
X7690229Y-17879793D01*
X7690229Y-17879793D02*
X7690229Y-17832174D01*
X7690229Y-17832174D02*
X7699753Y-17794079D01*
X7699753Y-17794079D02*
X7709277Y-17775031D01*
X7709277Y-17775031D02*
X7718801Y-17765508D01*
X7718801Y-17765508D02*
X7737848Y-17755984D01*
X7871182Y-17755984D02*
X7994991Y-17755984D01*
X7994991Y-17755984D02*
X7928325Y-17832174D01*
X7928325Y-17832174D02*
X7956896Y-17832174D01*
X7956896Y-17832174D02*
X7975944Y-17841698D01*
X7975944Y-17841698D02*
X7985467Y-17851222D01*
X7985467Y-17851222D02*
X7994991Y-17870270D01*
X7994991Y-17870270D02*
X7994991Y-17917889D01*
X7994991Y-17917889D02*
X7985467Y-17936936D01*
X7985467Y-17936936D02*
X7975944Y-17946460D01*
X7975944Y-17946460D02*
X7956896Y-17955984D01*
X7956896Y-17955984D02*
X7899753Y-17955984D01*
X7899753Y-17955984D02*
X7880706Y-17946460D01*
X7880706Y-17946460D02*
X7871182Y-17936936D01*
X8061658Y-17755984D02*
X8194991Y-17755984D01*
X8194991Y-17755984D02*
X8109277Y-17955984D01*
X8356896Y-17822650D02*
X8356896Y-17955984D01*
X8309277Y-17746460D02*
X8261658Y-17889317D01*
X8261658Y-17889317D02*
X8385467Y-17889317D01*
X8452134Y-17755984D02*
X8452134Y-17794079D01*
X8528325Y-17755984D02*
X8528325Y-17794079D01*
X8823563Y-18032174D02*
X8814039Y-18022650D01*
X8814039Y-18022650D02*
X8794991Y-17994079D01*
X8794991Y-17994079D02*
X8785468Y-17975031D01*
X8785468Y-17975031D02*
X8775944Y-17946460D01*
X8775944Y-17946460D02*
X8766420Y-17898841D01*
X8766420Y-17898841D02*
X8766420Y-17860746D01*
X8766420Y-17860746D02*
X8775944Y-17813127D01*
X8775944Y-17813127D02*
X8785468Y-17784555D01*
X8785468Y-17784555D02*
X8794991Y-17765508D01*
X8794991Y-17765508D02*
X8814039Y-17736936D01*
X8814039Y-17736936D02*
X8823563Y-17727412D01*
X9004515Y-17955984D02*
X8890230Y-17955984D01*
X8947372Y-17955984D02*
X8947372Y-17755984D01*
X8947372Y-17755984D02*
X8928325Y-17784555D01*
X8928325Y-17784555D02*
X8909277Y-17803603D01*
X8909277Y-17803603D02*
X8890230Y-17813127D01*
X9071182Y-17755984D02*
X9194991Y-17755984D01*
X9194991Y-17755984D02*
X9128325Y-17832174D01*
X9128325Y-17832174D02*
X9156896Y-17832174D01*
X9156896Y-17832174D02*
X9175944Y-17841698D01*
X9175944Y-17841698D02*
X9185468Y-17851222D01*
X9185468Y-17851222D02*
X9194991Y-17870270D01*
X9194991Y-17870270D02*
X9194991Y-17917889D01*
X9194991Y-17917889D02*
X9185468Y-17936936D01*
X9185468Y-17936936D02*
X9175944Y-17946460D01*
X9175944Y-17946460D02*
X9156896Y-17955984D01*
X9156896Y-17955984D02*
X9099753Y-17955984D01*
X9099753Y-17955984D02*
X9080706Y-17946460D01*
X9080706Y-17946460D02*
X9071182Y-17936936D01*
X9433087Y-17955984D02*
X9433087Y-17755984D01*
X9518801Y-17955984D02*
X9518801Y-17851222D01*
X9518801Y-17851222D02*
X9509277Y-17832174D01*
X9509277Y-17832174D02*
X9490230Y-17822650D01*
X9490230Y-17822650D02*
X9461658Y-17822650D01*
X9461658Y-17822650D02*
X9442611Y-17832174D01*
X9442611Y-17832174D02*
X9433087Y-17841698D01*
X9642611Y-17955984D02*
X9623563Y-17946460D01*
X9623563Y-17946460D02*
X9614039Y-17936936D01*
X9614039Y-17936936D02*
X9604515Y-17917889D01*
X9604515Y-17917889D02*
X9604515Y-17860746D01*
X9604515Y-17860746D02*
X9614039Y-17841698D01*
X9614039Y-17841698D02*
X9623563Y-17832174D01*
X9623563Y-17832174D02*
X9642611Y-17822650D01*
X9642611Y-17822650D02*
X9671182Y-17822650D01*
X9671182Y-17822650D02*
X9690230Y-17832174D01*
X9690230Y-17832174D02*
X9699753Y-17841698D01*
X9699753Y-17841698D02*
X9709277Y-17860746D01*
X9709277Y-17860746D02*
X9709277Y-17917889D01*
X9709277Y-17917889D02*
X9699753Y-17936936D01*
X9699753Y-17936936D02*
X9690230Y-17946460D01*
X9690230Y-17946460D02*
X9671182Y-17955984D01*
X9671182Y-17955984D02*
X9642611Y-17955984D01*
X9823563Y-17955984D02*
X9804515Y-17946460D01*
X9804515Y-17946460D02*
X9794992Y-17927412D01*
X9794992Y-17927412D02*
X9794992Y-17755984D01*
X9975944Y-17946460D02*
X9956896Y-17955984D01*
X9956896Y-17955984D02*
X9918801Y-17955984D01*
X9918801Y-17955984D02*
X9899753Y-17946460D01*
X9899753Y-17946460D02*
X9890230Y-17927412D01*
X9890230Y-17927412D02*
X9890230Y-17851222D01*
X9890230Y-17851222D02*
X9899753Y-17832174D01*
X9899753Y-17832174D02*
X9918801Y-17822650D01*
X9918801Y-17822650D02*
X9956896Y-17822650D01*
X9956896Y-17822650D02*
X9975944Y-17832174D01*
X9975944Y-17832174D02*
X9985468Y-17851222D01*
X9985468Y-17851222D02*
X9985468Y-17870270D01*
X9985468Y-17870270D02*
X9890230Y-17889317D01*
X10061658Y-17946460D02*
X10080706Y-17955984D01*
X10080706Y-17955984D02*
X10118801Y-17955984D01*
X10118801Y-17955984D02*
X10137849Y-17946460D01*
X10137849Y-17946460D02*
X10147373Y-17927412D01*
X10147373Y-17927412D02*
X10147373Y-17917889D01*
X10147373Y-17917889D02*
X10137849Y-17898841D01*
X10137849Y-17898841D02*
X10118801Y-17889317D01*
X10118801Y-17889317D02*
X10090230Y-17889317D01*
X10090230Y-17889317D02*
X10071182Y-17879793D01*
X10071182Y-17879793D02*
X10061658Y-17860746D01*
X10061658Y-17860746D02*
X10061658Y-17851222D01*
X10061658Y-17851222D02*
X10071182Y-17832174D01*
X10071182Y-17832174D02*
X10090230Y-17822650D01*
X10090230Y-17822650D02*
X10118801Y-17822650D01*
X10118801Y-17822650D02*
X10137849Y-17832174D01*
X10214039Y-18032174D02*
X10223563Y-18022650D01*
X10223563Y-18022650D02*
X10242611Y-17994079D01*
X10242611Y-17994079D02*
X10252134Y-17975031D01*
X10252134Y-17975031D02*
X10261658Y-17946460D01*
X10261658Y-17946460D02*
X10271182Y-17898841D01*
X10271182Y-17898841D02*
X10271182Y-17860746D01*
X10271182Y-17860746D02*
X10261658Y-17813127D01*
X10261658Y-17813127D02*
X10252134Y-17784555D01*
X10252134Y-17784555D02*
X10242611Y-17765508D01*
X10242611Y-17765508D02*
X10223563Y-17736936D01*
X10223563Y-17736936D02*
X10214039Y-17727412D01*
D12*
X5198500Y-18078500D02*
X5198500Y-18178500D01*
X5148500Y-18128500D02*
X5248500Y-18128500D01*
D11*
X5614039Y-18219984D02*
X5499753Y-18219984D01*
X5556896Y-18219984D02*
X5556896Y-18019984D01*
X5556896Y-18019984D02*
X5537848Y-18048555D01*
X5537848Y-18048555D02*
X5518801Y-18067603D01*
X5518801Y-18067603D02*
X5499753Y-18077127D01*
X5699753Y-18200936D02*
X5709277Y-18210460D01*
X5709277Y-18210460D02*
X5699753Y-18219984D01*
X5699753Y-18219984D02*
X5690229Y-18210460D01*
X5690229Y-18210460D02*
X5699753Y-18200936D01*
X5699753Y-18200936D02*
X5699753Y-18219984D01*
X5833086Y-18019984D02*
X5852134Y-18019984D01*
X5852134Y-18019984D02*
X5871182Y-18029508D01*
X5871182Y-18029508D02*
X5880705Y-18039031D01*
X5880705Y-18039031D02*
X5890229Y-18058079D01*
X5890229Y-18058079D02*
X5899753Y-18096174D01*
X5899753Y-18096174D02*
X5899753Y-18143793D01*
X5899753Y-18143793D02*
X5890229Y-18181889D01*
X5890229Y-18181889D02*
X5880705Y-18200936D01*
X5880705Y-18200936D02*
X5871182Y-18210460D01*
X5871182Y-18210460D02*
X5852134Y-18219984D01*
X5852134Y-18219984D02*
X5833086Y-18219984D01*
X5833086Y-18219984D02*
X5814039Y-18210460D01*
X5814039Y-18210460D02*
X5804515Y-18200936D01*
X5804515Y-18200936D02*
X5794991Y-18181889D01*
X5794991Y-18181889D02*
X5785467Y-18143793D01*
X5785467Y-18143793D02*
X5785467Y-18096174D01*
X5785467Y-18096174D02*
X5794991Y-18058079D01*
X5794991Y-18058079D02*
X5804515Y-18039031D01*
X5804515Y-18039031D02*
X5814039Y-18029508D01*
X5814039Y-18029508D02*
X5833086Y-18019984D01*
X6023562Y-18019984D02*
X6042610Y-18019984D01*
X6042610Y-18019984D02*
X6061658Y-18029508D01*
X6061658Y-18029508D02*
X6071182Y-18039031D01*
X6071182Y-18039031D02*
X6080705Y-18058079D01*
X6080705Y-18058079D02*
X6090229Y-18096174D01*
X6090229Y-18096174D02*
X6090229Y-18143793D01*
X6090229Y-18143793D02*
X6080705Y-18181889D01*
X6080705Y-18181889D02*
X6071182Y-18200936D01*
X6071182Y-18200936D02*
X6061658Y-18210460D01*
X6061658Y-18210460D02*
X6042610Y-18219984D01*
X6042610Y-18219984D02*
X6023562Y-18219984D01*
X6023562Y-18219984D02*
X6004515Y-18210460D01*
X6004515Y-18210460D02*
X5994991Y-18200936D01*
X5994991Y-18200936D02*
X5985467Y-18181889D01*
X5985467Y-18181889D02*
X5975943Y-18143793D01*
X5975943Y-18143793D02*
X5975943Y-18096174D01*
X5975943Y-18096174D02*
X5985467Y-18058079D01*
X5985467Y-18058079D02*
X5994991Y-18039031D01*
X5994991Y-18039031D02*
X6004515Y-18029508D01*
X6004515Y-18029508D02*
X6023562Y-18019984D01*
X6214039Y-18019984D02*
X6233086Y-18019984D01*
X6233086Y-18019984D02*
X6252134Y-18029508D01*
X6252134Y-18029508D02*
X6261658Y-18039031D01*
X6261658Y-18039031D02*
X6271182Y-18058079D01*
X6271182Y-18058079D02*
X6280705Y-18096174D01*
X6280705Y-18096174D02*
X6280705Y-18143793D01*
X6280705Y-18143793D02*
X6271182Y-18181889D01*
X6271182Y-18181889D02*
X6261658Y-18200936D01*
X6261658Y-18200936D02*
X6252134Y-18210460D01*
X6252134Y-18210460D02*
X6233086Y-18219984D01*
X6233086Y-18219984D02*
X6214039Y-18219984D01*
X6214039Y-18219984D02*
X6194991Y-18210460D01*
X6194991Y-18210460D02*
X6185467Y-18200936D01*
X6185467Y-18200936D02*
X6175943Y-18181889D01*
X6175943Y-18181889D02*
X6166420Y-18143793D01*
X6166420Y-18143793D02*
X6166420Y-18096174D01*
X6166420Y-18096174D02*
X6175943Y-18058079D01*
X6175943Y-18058079D02*
X6185467Y-18039031D01*
X6185467Y-18039031D02*
X6194991Y-18029508D01*
X6194991Y-18029508D02*
X6214039Y-18019984D01*
X6366420Y-18219984D02*
X6366420Y-18086650D01*
X6366420Y-18105698D02*
X6375943Y-18096174D01*
X6375943Y-18096174D02*
X6394991Y-18086650D01*
X6394991Y-18086650D02*
X6423563Y-18086650D01*
X6423563Y-18086650D02*
X6442610Y-18096174D01*
X6442610Y-18096174D02*
X6452134Y-18115222D01*
X6452134Y-18115222D02*
X6452134Y-18219984D01*
X6452134Y-18115222D02*
X6461658Y-18096174D01*
X6461658Y-18096174D02*
X6480705Y-18086650D01*
X6480705Y-18086650D02*
X6509277Y-18086650D01*
X6509277Y-18086650D02*
X6528324Y-18096174D01*
X6528324Y-18096174D02*
X6537848Y-18115222D01*
X6537848Y-18115222D02*
X6537848Y-18219984D01*
X6633086Y-18219984D02*
X6633086Y-18086650D01*
X6633086Y-18105698D02*
X6642610Y-18096174D01*
X6642610Y-18096174D02*
X6661658Y-18086650D01*
X6661658Y-18086650D02*
X6690229Y-18086650D01*
X6690229Y-18086650D02*
X6709277Y-18096174D01*
X6709277Y-18096174D02*
X6718801Y-18115222D01*
X6718801Y-18115222D02*
X6718801Y-18219984D01*
X6718801Y-18115222D02*
X6728324Y-18096174D01*
X6728324Y-18096174D02*
X6747372Y-18086650D01*
X6747372Y-18086650D02*
X6775943Y-18086650D01*
X6775943Y-18086650D02*
X6794991Y-18096174D01*
X6794991Y-18096174D02*
X6804515Y-18115222D01*
X6804515Y-18115222D02*
X6804515Y-18219984D01*
X7194991Y-18010460D02*
X7023563Y-18267603D01*
X7452134Y-18019984D02*
X7471182Y-18019984D01*
X7471182Y-18019984D02*
X7490229Y-18029508D01*
X7490229Y-18029508D02*
X7499753Y-18039031D01*
X7499753Y-18039031D02*
X7509277Y-18058079D01*
X7509277Y-18058079D02*
X7518801Y-18096174D01*
X7518801Y-18096174D02*
X7518801Y-18143793D01*
X7518801Y-18143793D02*
X7509277Y-18181889D01*
X7509277Y-18181889D02*
X7499753Y-18200936D01*
X7499753Y-18200936D02*
X7490229Y-18210460D01*
X7490229Y-18210460D02*
X7471182Y-18219984D01*
X7471182Y-18219984D02*
X7452134Y-18219984D01*
X7452134Y-18219984D02*
X7433086Y-18210460D01*
X7433086Y-18210460D02*
X7423563Y-18200936D01*
X7423563Y-18200936D02*
X7414039Y-18181889D01*
X7414039Y-18181889D02*
X7404515Y-18143793D01*
X7404515Y-18143793D02*
X7404515Y-18096174D01*
X7404515Y-18096174D02*
X7414039Y-18058079D01*
X7414039Y-18058079D02*
X7423563Y-18039031D01*
X7423563Y-18039031D02*
X7433086Y-18029508D01*
X7433086Y-18029508D02*
X7452134Y-18019984D01*
X7604515Y-18200936D02*
X7614039Y-18210460D01*
X7614039Y-18210460D02*
X7604515Y-18219984D01*
X7604515Y-18219984D02*
X7594991Y-18210460D01*
X7594991Y-18210460D02*
X7604515Y-18200936D01*
X7604515Y-18200936D02*
X7604515Y-18219984D01*
X7737848Y-18019984D02*
X7756896Y-18019984D01*
X7756896Y-18019984D02*
X7775944Y-18029508D01*
X7775944Y-18029508D02*
X7785467Y-18039031D01*
X7785467Y-18039031D02*
X7794991Y-18058079D01*
X7794991Y-18058079D02*
X7804515Y-18096174D01*
X7804515Y-18096174D02*
X7804515Y-18143793D01*
X7804515Y-18143793D02*
X7794991Y-18181889D01*
X7794991Y-18181889D02*
X7785467Y-18200936D01*
X7785467Y-18200936D02*
X7775944Y-18210460D01*
X7775944Y-18210460D02*
X7756896Y-18219984D01*
X7756896Y-18219984D02*
X7737848Y-18219984D01*
X7737848Y-18219984D02*
X7718801Y-18210460D01*
X7718801Y-18210460D02*
X7709277Y-18200936D01*
X7709277Y-18200936D02*
X7699753Y-18181889D01*
X7699753Y-18181889D02*
X7690229Y-18143793D01*
X7690229Y-18143793D02*
X7690229Y-18096174D01*
X7690229Y-18096174D02*
X7699753Y-18058079D01*
X7699753Y-18058079D02*
X7709277Y-18039031D01*
X7709277Y-18039031D02*
X7718801Y-18029508D01*
X7718801Y-18029508D02*
X7737848Y-18019984D01*
X7871182Y-18019984D02*
X7994991Y-18019984D01*
X7994991Y-18019984D02*
X7928325Y-18096174D01*
X7928325Y-18096174D02*
X7956896Y-18096174D01*
X7956896Y-18096174D02*
X7975944Y-18105698D01*
X7975944Y-18105698D02*
X7985467Y-18115222D01*
X7985467Y-18115222D02*
X7994991Y-18134270D01*
X7994991Y-18134270D02*
X7994991Y-18181889D01*
X7994991Y-18181889D02*
X7985467Y-18200936D01*
X7985467Y-18200936D02*
X7975944Y-18210460D01*
X7975944Y-18210460D02*
X7956896Y-18219984D01*
X7956896Y-18219984D02*
X7899753Y-18219984D01*
X7899753Y-18219984D02*
X7880706Y-18210460D01*
X7880706Y-18210460D02*
X7871182Y-18200936D01*
X8090229Y-18219984D02*
X8128325Y-18219984D01*
X8128325Y-18219984D02*
X8147372Y-18210460D01*
X8147372Y-18210460D02*
X8156896Y-18200936D01*
X8156896Y-18200936D02*
X8175944Y-18172365D01*
X8175944Y-18172365D02*
X8185467Y-18134270D01*
X8185467Y-18134270D02*
X8185467Y-18058079D01*
X8185467Y-18058079D02*
X8175944Y-18039031D01*
X8175944Y-18039031D02*
X8166420Y-18029508D01*
X8166420Y-18029508D02*
X8147372Y-18019984D01*
X8147372Y-18019984D02*
X8109277Y-18019984D01*
X8109277Y-18019984D02*
X8090229Y-18029508D01*
X8090229Y-18029508D02*
X8080706Y-18039031D01*
X8080706Y-18039031D02*
X8071182Y-18058079D01*
X8071182Y-18058079D02*
X8071182Y-18105698D01*
X8071182Y-18105698D02*
X8080706Y-18124746D01*
X8080706Y-18124746D02*
X8090229Y-18134270D01*
X8090229Y-18134270D02*
X8109277Y-18143793D01*
X8109277Y-18143793D02*
X8147372Y-18143793D01*
X8147372Y-18143793D02*
X8166420Y-18134270D01*
X8166420Y-18134270D02*
X8175944Y-18124746D01*
X8175944Y-18124746D02*
X8185467Y-18105698D01*
X8356896Y-18086650D02*
X8356896Y-18219984D01*
X8309277Y-18010460D02*
X8261658Y-18153317D01*
X8261658Y-18153317D02*
X8385467Y-18153317D01*
X8452134Y-18019984D02*
X8452134Y-18058079D01*
X8528325Y-18019984D02*
X8528325Y-18058079D01*
X8823563Y-18296174D02*
X8814039Y-18286650D01*
X8814039Y-18286650D02*
X8794991Y-18258079D01*
X8794991Y-18258079D02*
X8785468Y-18239031D01*
X8785468Y-18239031D02*
X8775944Y-18210460D01*
X8775944Y-18210460D02*
X8766420Y-18162841D01*
X8766420Y-18162841D02*
X8766420Y-18124746D01*
X8766420Y-18124746D02*
X8775944Y-18077127D01*
X8775944Y-18077127D02*
X8785468Y-18048555D01*
X8785468Y-18048555D02*
X8794991Y-18029508D01*
X8794991Y-18029508D02*
X8814039Y-18000936D01*
X8814039Y-18000936D02*
X8823563Y-17991412D01*
X8928325Y-18105698D02*
X8909277Y-18096174D01*
X8909277Y-18096174D02*
X8899753Y-18086650D01*
X8899753Y-18086650D02*
X8890230Y-18067603D01*
X8890230Y-18067603D02*
X8890230Y-18058079D01*
X8890230Y-18058079D02*
X8899753Y-18039031D01*
X8899753Y-18039031D02*
X8909277Y-18029508D01*
X8909277Y-18029508D02*
X8928325Y-18019984D01*
X8928325Y-18019984D02*
X8966420Y-18019984D01*
X8966420Y-18019984D02*
X8985468Y-18029508D01*
X8985468Y-18029508D02*
X8994991Y-18039031D01*
X8994991Y-18039031D02*
X9004515Y-18058079D01*
X9004515Y-18058079D02*
X9004515Y-18067603D01*
X9004515Y-18067603D02*
X8994991Y-18086650D01*
X8994991Y-18086650D02*
X8985468Y-18096174D01*
X8985468Y-18096174D02*
X8966420Y-18105698D01*
X8966420Y-18105698D02*
X8928325Y-18105698D01*
X8928325Y-18105698D02*
X8909277Y-18115222D01*
X8909277Y-18115222D02*
X8899753Y-18124746D01*
X8899753Y-18124746D02*
X8890230Y-18143793D01*
X8890230Y-18143793D02*
X8890230Y-18181889D01*
X8890230Y-18181889D02*
X8899753Y-18200936D01*
X8899753Y-18200936D02*
X8909277Y-18210460D01*
X8909277Y-18210460D02*
X8928325Y-18219984D01*
X8928325Y-18219984D02*
X8966420Y-18219984D01*
X8966420Y-18219984D02*
X8985468Y-18210460D01*
X8985468Y-18210460D02*
X8994991Y-18200936D01*
X8994991Y-18200936D02*
X9004515Y-18181889D01*
X9004515Y-18181889D02*
X9004515Y-18143793D01*
X9004515Y-18143793D02*
X8994991Y-18124746D01*
X8994991Y-18124746D02*
X8985468Y-18115222D01*
X8985468Y-18115222D02*
X8966420Y-18105698D01*
X9242611Y-18219984D02*
X9242611Y-18019984D01*
X9328325Y-18219984D02*
X9328325Y-18115222D01*
X9328325Y-18115222D02*
X9318801Y-18096174D01*
X9318801Y-18096174D02*
X9299753Y-18086650D01*
X9299753Y-18086650D02*
X9271182Y-18086650D01*
X9271182Y-18086650D02*
X9252134Y-18096174D01*
X9252134Y-18096174D02*
X9242611Y-18105698D01*
X9452134Y-18219984D02*
X9433087Y-18210460D01*
X9433087Y-18210460D02*
X9423563Y-18200936D01*
X9423563Y-18200936D02*
X9414039Y-18181889D01*
X9414039Y-18181889D02*
X9414039Y-18124746D01*
X9414039Y-18124746D02*
X9423563Y-18105698D01*
X9423563Y-18105698D02*
X9433087Y-18096174D01*
X9433087Y-18096174D02*
X9452134Y-18086650D01*
X9452134Y-18086650D02*
X9480706Y-18086650D01*
X9480706Y-18086650D02*
X9499753Y-18096174D01*
X9499753Y-18096174D02*
X9509277Y-18105698D01*
X9509277Y-18105698D02*
X9518801Y-18124746D01*
X9518801Y-18124746D02*
X9518801Y-18181889D01*
X9518801Y-18181889D02*
X9509277Y-18200936D01*
X9509277Y-18200936D02*
X9499753Y-18210460D01*
X9499753Y-18210460D02*
X9480706Y-18219984D01*
X9480706Y-18219984D02*
X9452134Y-18219984D01*
X9633087Y-18219984D02*
X9614039Y-18210460D01*
X9614039Y-18210460D02*
X9604515Y-18191412D01*
X9604515Y-18191412D02*
X9604515Y-18019984D01*
X9785468Y-18210460D02*
X9766420Y-18219984D01*
X9766420Y-18219984D02*
X9728325Y-18219984D01*
X9728325Y-18219984D02*
X9709277Y-18210460D01*
X9709277Y-18210460D02*
X9699753Y-18191412D01*
X9699753Y-18191412D02*
X9699753Y-18115222D01*
X9699753Y-18115222D02*
X9709277Y-18096174D01*
X9709277Y-18096174D02*
X9728325Y-18086650D01*
X9728325Y-18086650D02*
X9766420Y-18086650D01*
X9766420Y-18086650D02*
X9785468Y-18096174D01*
X9785468Y-18096174D02*
X9794992Y-18115222D01*
X9794992Y-18115222D02*
X9794992Y-18134270D01*
X9794992Y-18134270D02*
X9699753Y-18153317D01*
X9871182Y-18210460D02*
X9890230Y-18219984D01*
X9890230Y-18219984D02*
X9928325Y-18219984D01*
X9928325Y-18219984D02*
X9947373Y-18210460D01*
X9947373Y-18210460D02*
X9956896Y-18191412D01*
X9956896Y-18191412D02*
X9956896Y-18181889D01*
X9956896Y-18181889D02*
X9947373Y-18162841D01*
X9947373Y-18162841D02*
X9928325Y-18153317D01*
X9928325Y-18153317D02*
X9899753Y-18153317D01*
X9899753Y-18153317D02*
X9880706Y-18143793D01*
X9880706Y-18143793D02*
X9871182Y-18124746D01*
X9871182Y-18124746D02*
X9871182Y-18115222D01*
X9871182Y-18115222D02*
X9880706Y-18096174D01*
X9880706Y-18096174D02*
X9899753Y-18086650D01*
X9899753Y-18086650D02*
X9928325Y-18086650D01*
X9928325Y-18086650D02*
X9947373Y-18096174D01*
X10023563Y-18296174D02*
X10033087Y-18286650D01*
X10033087Y-18286650D02*
X10052134Y-18258079D01*
X10052134Y-18258079D02*
X10061658Y-18239031D01*
X10061658Y-18239031D02*
X10071182Y-18210460D01*
X10071182Y-18210460D02*
X10080706Y-18162841D01*
X10080706Y-18162841D02*
X10080706Y-18124746D01*
X10080706Y-18124746D02*
X10071182Y-18077127D01*
X10071182Y-18077127D02*
X10061658Y-18048555D01*
X10061658Y-18048555D02*
X10052134Y-18029508D01*
X10052134Y-18029508D02*
X10033087Y-18000936D01*
X10033087Y-18000936D02*
X10023563Y-17991412D01*
D13*
X5232391Y-18431391D02*
X5232391Y-18353609D01*
X5154609Y-18353609D01*
X5154609Y-18431391D01*
X5232391Y-18431391D01*
D11*
X5614039Y-18483984D02*
X5499753Y-18483984D01*
X5556896Y-18483984D02*
X5556896Y-18283984D01*
X5556896Y-18283984D02*
X5537848Y-18312555D01*
X5537848Y-18312555D02*
X5518801Y-18331603D01*
X5518801Y-18331603D02*
X5499753Y-18341127D01*
X5699753Y-18464936D02*
X5709277Y-18474460D01*
X5709277Y-18474460D02*
X5699753Y-18483984D01*
X5699753Y-18483984D02*
X5690229Y-18474460D01*
X5690229Y-18474460D02*
X5699753Y-18464936D01*
X5699753Y-18464936D02*
X5699753Y-18483984D01*
X5899753Y-18483984D02*
X5785467Y-18483984D01*
X5842610Y-18483984D02*
X5842610Y-18283984D01*
X5842610Y-18283984D02*
X5823562Y-18312555D01*
X5823562Y-18312555D02*
X5804515Y-18331603D01*
X5804515Y-18331603D02*
X5785467Y-18341127D01*
X6023562Y-18283984D02*
X6042610Y-18283984D01*
X6042610Y-18283984D02*
X6061658Y-18293508D01*
X6061658Y-18293508D02*
X6071182Y-18303031D01*
X6071182Y-18303031D02*
X6080705Y-18322079D01*
X6080705Y-18322079D02*
X6090229Y-18360174D01*
X6090229Y-18360174D02*
X6090229Y-18407793D01*
X6090229Y-18407793D02*
X6080705Y-18445889D01*
X6080705Y-18445889D02*
X6071182Y-18464936D01*
X6071182Y-18464936D02*
X6061658Y-18474460D01*
X6061658Y-18474460D02*
X6042610Y-18483984D01*
X6042610Y-18483984D02*
X6023562Y-18483984D01*
X6023562Y-18483984D02*
X6004515Y-18474460D01*
X6004515Y-18474460D02*
X5994991Y-18464936D01*
X5994991Y-18464936D02*
X5985467Y-18445889D01*
X5985467Y-18445889D02*
X5975943Y-18407793D01*
X5975943Y-18407793D02*
X5975943Y-18360174D01*
X5975943Y-18360174D02*
X5985467Y-18322079D01*
X5985467Y-18322079D02*
X5994991Y-18303031D01*
X5994991Y-18303031D02*
X6004515Y-18293508D01*
X6004515Y-18293508D02*
X6023562Y-18283984D01*
X6214039Y-18283984D02*
X6233086Y-18283984D01*
X6233086Y-18283984D02*
X6252134Y-18293508D01*
X6252134Y-18293508D02*
X6261658Y-18303031D01*
X6261658Y-18303031D02*
X6271182Y-18322079D01*
X6271182Y-18322079D02*
X6280705Y-18360174D01*
X6280705Y-18360174D02*
X6280705Y-18407793D01*
X6280705Y-18407793D02*
X6271182Y-18445889D01*
X6271182Y-18445889D02*
X6261658Y-18464936D01*
X6261658Y-18464936D02*
X6252134Y-18474460D01*
X6252134Y-18474460D02*
X6233086Y-18483984D01*
X6233086Y-18483984D02*
X6214039Y-18483984D01*
X6214039Y-18483984D02*
X6194991Y-18474460D01*
X6194991Y-18474460D02*
X6185467Y-18464936D01*
X6185467Y-18464936D02*
X6175943Y-18445889D01*
X6175943Y-18445889D02*
X6166420Y-18407793D01*
X6166420Y-18407793D02*
X6166420Y-18360174D01*
X6166420Y-18360174D02*
X6175943Y-18322079D01*
X6175943Y-18322079D02*
X6185467Y-18303031D01*
X6185467Y-18303031D02*
X6194991Y-18293508D01*
X6194991Y-18293508D02*
X6214039Y-18283984D01*
X6366420Y-18483984D02*
X6366420Y-18350650D01*
X6366420Y-18369698D02*
X6375943Y-18360174D01*
X6375943Y-18360174D02*
X6394991Y-18350650D01*
X6394991Y-18350650D02*
X6423563Y-18350650D01*
X6423563Y-18350650D02*
X6442610Y-18360174D01*
X6442610Y-18360174D02*
X6452134Y-18379222D01*
X6452134Y-18379222D02*
X6452134Y-18483984D01*
X6452134Y-18379222D02*
X6461658Y-18360174D01*
X6461658Y-18360174D02*
X6480705Y-18350650D01*
X6480705Y-18350650D02*
X6509277Y-18350650D01*
X6509277Y-18350650D02*
X6528324Y-18360174D01*
X6528324Y-18360174D02*
X6537848Y-18379222D01*
X6537848Y-18379222D02*
X6537848Y-18483984D01*
X6633086Y-18483984D02*
X6633086Y-18350650D01*
X6633086Y-18369698D02*
X6642610Y-18360174D01*
X6642610Y-18360174D02*
X6661658Y-18350650D01*
X6661658Y-18350650D02*
X6690229Y-18350650D01*
X6690229Y-18350650D02*
X6709277Y-18360174D01*
X6709277Y-18360174D02*
X6718801Y-18379222D01*
X6718801Y-18379222D02*
X6718801Y-18483984D01*
X6718801Y-18379222D02*
X6728324Y-18360174D01*
X6728324Y-18360174D02*
X6747372Y-18350650D01*
X6747372Y-18350650D02*
X6775943Y-18350650D01*
X6775943Y-18350650D02*
X6794991Y-18360174D01*
X6794991Y-18360174D02*
X6804515Y-18379222D01*
X6804515Y-18379222D02*
X6804515Y-18483984D01*
X7194991Y-18274460D02*
X7023563Y-18531603D01*
X7452134Y-18283984D02*
X7471182Y-18283984D01*
X7471182Y-18283984D02*
X7490229Y-18293508D01*
X7490229Y-18293508D02*
X7499753Y-18303031D01*
X7499753Y-18303031D02*
X7509277Y-18322079D01*
X7509277Y-18322079D02*
X7518801Y-18360174D01*
X7518801Y-18360174D02*
X7518801Y-18407793D01*
X7518801Y-18407793D02*
X7509277Y-18445889D01*
X7509277Y-18445889D02*
X7499753Y-18464936D01*
X7499753Y-18464936D02*
X7490229Y-18474460D01*
X7490229Y-18474460D02*
X7471182Y-18483984D01*
X7471182Y-18483984D02*
X7452134Y-18483984D01*
X7452134Y-18483984D02*
X7433086Y-18474460D01*
X7433086Y-18474460D02*
X7423563Y-18464936D01*
X7423563Y-18464936D02*
X7414039Y-18445889D01*
X7414039Y-18445889D02*
X7404515Y-18407793D01*
X7404515Y-18407793D02*
X7404515Y-18360174D01*
X7404515Y-18360174D02*
X7414039Y-18322079D01*
X7414039Y-18322079D02*
X7423563Y-18303031D01*
X7423563Y-18303031D02*
X7433086Y-18293508D01*
X7433086Y-18293508D02*
X7452134Y-18283984D01*
X7604515Y-18464936D02*
X7614039Y-18474460D01*
X7614039Y-18474460D02*
X7604515Y-18483984D01*
X7604515Y-18483984D02*
X7594991Y-18474460D01*
X7594991Y-18474460D02*
X7604515Y-18464936D01*
X7604515Y-18464936D02*
X7604515Y-18483984D01*
X7737848Y-18283984D02*
X7756896Y-18283984D01*
X7756896Y-18283984D02*
X7775944Y-18293508D01*
X7775944Y-18293508D02*
X7785467Y-18303031D01*
X7785467Y-18303031D02*
X7794991Y-18322079D01*
X7794991Y-18322079D02*
X7804515Y-18360174D01*
X7804515Y-18360174D02*
X7804515Y-18407793D01*
X7804515Y-18407793D02*
X7794991Y-18445889D01*
X7794991Y-18445889D02*
X7785467Y-18464936D01*
X7785467Y-18464936D02*
X7775944Y-18474460D01*
X7775944Y-18474460D02*
X7756896Y-18483984D01*
X7756896Y-18483984D02*
X7737848Y-18483984D01*
X7737848Y-18483984D02*
X7718801Y-18474460D01*
X7718801Y-18474460D02*
X7709277Y-18464936D01*
X7709277Y-18464936D02*
X7699753Y-18445889D01*
X7699753Y-18445889D02*
X7690229Y-18407793D01*
X7690229Y-18407793D02*
X7690229Y-18360174D01*
X7690229Y-18360174D02*
X7699753Y-18322079D01*
X7699753Y-18322079D02*
X7709277Y-18303031D01*
X7709277Y-18303031D02*
X7718801Y-18293508D01*
X7718801Y-18293508D02*
X7737848Y-18283984D01*
X7975944Y-18350650D02*
X7975944Y-18483984D01*
X7928325Y-18274460D02*
X7880706Y-18417317D01*
X7880706Y-18417317D02*
X8004515Y-18417317D01*
X8061658Y-18283984D02*
X8185467Y-18283984D01*
X8185467Y-18283984D02*
X8118801Y-18360174D01*
X8118801Y-18360174D02*
X8147372Y-18360174D01*
X8147372Y-18360174D02*
X8166420Y-18369698D01*
X8166420Y-18369698D02*
X8175944Y-18379222D01*
X8175944Y-18379222D02*
X8185467Y-18398270D01*
X8185467Y-18398270D02*
X8185467Y-18445889D01*
X8185467Y-18445889D02*
X8175944Y-18464936D01*
X8175944Y-18464936D02*
X8166420Y-18474460D01*
X8166420Y-18474460D02*
X8147372Y-18483984D01*
X8147372Y-18483984D02*
X8090229Y-18483984D01*
X8090229Y-18483984D02*
X8071182Y-18474460D01*
X8071182Y-18474460D02*
X8061658Y-18464936D01*
X8252134Y-18283984D02*
X8375944Y-18283984D01*
X8375944Y-18283984D02*
X8309277Y-18360174D01*
X8309277Y-18360174D02*
X8337848Y-18360174D01*
X8337848Y-18360174D02*
X8356896Y-18369698D01*
X8356896Y-18369698D02*
X8366420Y-18379222D01*
X8366420Y-18379222D02*
X8375944Y-18398270D01*
X8375944Y-18398270D02*
X8375944Y-18445889D01*
X8375944Y-18445889D02*
X8366420Y-18464936D01*
X8366420Y-18464936D02*
X8356896Y-18474460D01*
X8356896Y-18474460D02*
X8337848Y-18483984D01*
X8337848Y-18483984D02*
X8280706Y-18483984D01*
X8280706Y-18483984D02*
X8261658Y-18474460D01*
X8261658Y-18474460D02*
X8252134Y-18464936D01*
X8452134Y-18283984D02*
X8452134Y-18322079D01*
X8528325Y-18283984D02*
X8528325Y-18322079D01*
X8823563Y-18560174D02*
X8814039Y-18550650D01*
X8814039Y-18550650D02*
X8794991Y-18522079D01*
X8794991Y-18522079D02*
X8785468Y-18503031D01*
X8785468Y-18503031D02*
X8775944Y-18474460D01*
X8775944Y-18474460D02*
X8766420Y-18426841D01*
X8766420Y-18426841D02*
X8766420Y-18388746D01*
X8766420Y-18388746D02*
X8775944Y-18341127D01*
X8775944Y-18341127D02*
X8785468Y-18312555D01*
X8785468Y-18312555D02*
X8794991Y-18293508D01*
X8794991Y-18293508D02*
X8814039Y-18264936D01*
X8814039Y-18264936D02*
X8823563Y-18255412D01*
X8985468Y-18350650D02*
X8985468Y-18483984D01*
X8937849Y-18274460D02*
X8890230Y-18417317D01*
X8890230Y-18417317D02*
X9014039Y-18417317D01*
X9242611Y-18483984D02*
X9242611Y-18283984D01*
X9328325Y-18483984D02*
X9328325Y-18379222D01*
X9328325Y-18379222D02*
X9318801Y-18360174D01*
X9318801Y-18360174D02*
X9299753Y-18350650D01*
X9299753Y-18350650D02*
X9271182Y-18350650D01*
X9271182Y-18350650D02*
X9252134Y-18360174D01*
X9252134Y-18360174D02*
X9242611Y-18369698D01*
X9452134Y-18483984D02*
X9433087Y-18474460D01*
X9433087Y-18474460D02*
X9423563Y-18464936D01*
X9423563Y-18464936D02*
X9414039Y-18445889D01*
X9414039Y-18445889D02*
X9414039Y-18388746D01*
X9414039Y-18388746D02*
X9423563Y-18369698D01*
X9423563Y-18369698D02*
X9433087Y-18360174D01*
X9433087Y-18360174D02*
X9452134Y-18350650D01*
X9452134Y-18350650D02*
X9480706Y-18350650D01*
X9480706Y-18350650D02*
X9499753Y-18360174D01*
X9499753Y-18360174D02*
X9509277Y-18369698D01*
X9509277Y-18369698D02*
X9518801Y-18388746D01*
X9518801Y-18388746D02*
X9518801Y-18445889D01*
X9518801Y-18445889D02*
X9509277Y-18464936D01*
X9509277Y-18464936D02*
X9499753Y-18474460D01*
X9499753Y-18474460D02*
X9480706Y-18483984D01*
X9480706Y-18483984D02*
X9452134Y-18483984D01*
X9633087Y-18483984D02*
X9614039Y-18474460D01*
X9614039Y-18474460D02*
X9604515Y-18455412D01*
X9604515Y-18455412D02*
X9604515Y-18283984D01*
X9785468Y-18474460D02*
X9766420Y-18483984D01*
X9766420Y-18483984D02*
X9728325Y-18483984D01*
X9728325Y-18483984D02*
X9709277Y-18474460D01*
X9709277Y-18474460D02*
X9699753Y-18455412D01*
X9699753Y-18455412D02*
X9699753Y-18379222D01*
X9699753Y-18379222D02*
X9709277Y-18360174D01*
X9709277Y-18360174D02*
X9728325Y-18350650D01*
X9728325Y-18350650D02*
X9766420Y-18350650D01*
X9766420Y-18350650D02*
X9785468Y-18360174D01*
X9785468Y-18360174D02*
X9794992Y-18379222D01*
X9794992Y-18379222D02*
X9794992Y-18398270D01*
X9794992Y-18398270D02*
X9699753Y-18417317D01*
X9871182Y-18474460D02*
X9890230Y-18483984D01*
X9890230Y-18483984D02*
X9928325Y-18483984D01*
X9928325Y-18483984D02*
X9947373Y-18474460D01*
X9947373Y-18474460D02*
X9956896Y-18455412D01*
X9956896Y-18455412D02*
X9956896Y-18445889D01*
X9956896Y-18445889D02*
X9947373Y-18426841D01*
X9947373Y-18426841D02*
X9928325Y-18417317D01*
X9928325Y-18417317D02*
X9899753Y-18417317D01*
X9899753Y-18417317D02*
X9880706Y-18407793D01*
X9880706Y-18407793D02*
X9871182Y-18388746D01*
X9871182Y-18388746D02*
X9871182Y-18379222D01*
X9871182Y-18379222D02*
X9880706Y-18360174D01*
X9880706Y-18360174D02*
X9899753Y-18350650D01*
X9899753Y-18350650D02*
X9928325Y-18350650D01*
X9928325Y-18350650D02*
X9947373Y-18360174D01*
X10023563Y-18560174D02*
X10033087Y-18550650D01*
X10033087Y-18550650D02*
X10052134Y-18522079D01*
X10052134Y-18522079D02*
X10061658Y-18503031D01*
X10061658Y-18503031D02*
X10071182Y-18474460D01*
X10071182Y-18474460D02*
X10080706Y-18426841D01*
X10080706Y-18426841D02*
X10080706Y-18388746D01*
X10080706Y-18388746D02*
X10071182Y-18341127D01*
X10071182Y-18341127D02*
X10061658Y-18312555D01*
X10061658Y-18312555D02*
X10052134Y-18293508D01*
X10052134Y-18293508D02*
X10033087Y-18264936D01*
X10033087Y-18264936D02*
X10023563Y-18255412D01*
X5148500Y-18756500D02*
X5248500Y-18656500D01*
X5148500Y-18556500D01*
X5048500Y-18656500D01*
X5148500Y-18756500D01*
X5499753Y-18567031D02*
X5509277Y-18557508D01*
X5509277Y-18557508D02*
X5528324Y-18547984D01*
X5528324Y-18547984D02*
X5575944Y-18547984D01*
X5575944Y-18547984D02*
X5594991Y-18557508D01*
X5594991Y-18557508D02*
X5604515Y-18567031D01*
X5604515Y-18567031D02*
X5614039Y-18586079D01*
X5614039Y-18586079D02*
X5614039Y-18605127D01*
X5614039Y-18605127D02*
X5604515Y-18633698D01*
X5604515Y-18633698D02*
X5490229Y-18747984D01*
X5490229Y-18747984D02*
X5614039Y-18747984D01*
X5699753Y-18728936D02*
X5709277Y-18738460D01*
X5709277Y-18738460D02*
X5699753Y-18747984D01*
X5699753Y-18747984D02*
X5690229Y-18738460D01*
X5690229Y-18738460D02*
X5699753Y-18728936D01*
X5699753Y-18728936D02*
X5699753Y-18747984D01*
X5890229Y-18547984D02*
X5794991Y-18547984D01*
X5794991Y-18547984D02*
X5785467Y-18643222D01*
X5785467Y-18643222D02*
X5794991Y-18633698D01*
X5794991Y-18633698D02*
X5814039Y-18624174D01*
X5814039Y-18624174D02*
X5861658Y-18624174D01*
X5861658Y-18624174D02*
X5880705Y-18633698D01*
X5880705Y-18633698D02*
X5890229Y-18643222D01*
X5890229Y-18643222D02*
X5899753Y-18662270D01*
X5899753Y-18662270D02*
X5899753Y-18709889D01*
X5899753Y-18709889D02*
X5890229Y-18728936D01*
X5890229Y-18728936D02*
X5880705Y-18738460D01*
X5880705Y-18738460D02*
X5861658Y-18747984D01*
X5861658Y-18747984D02*
X5814039Y-18747984D01*
X5814039Y-18747984D02*
X5794991Y-18738460D01*
X5794991Y-18738460D02*
X5785467Y-18728936D01*
X6023562Y-18547984D02*
X6042610Y-18547984D01*
X6042610Y-18547984D02*
X6061658Y-18557508D01*
X6061658Y-18557508D02*
X6071182Y-18567031D01*
X6071182Y-18567031D02*
X6080705Y-18586079D01*
X6080705Y-18586079D02*
X6090229Y-18624174D01*
X6090229Y-18624174D02*
X6090229Y-18671793D01*
X6090229Y-18671793D02*
X6080705Y-18709889D01*
X6080705Y-18709889D02*
X6071182Y-18728936D01*
X6071182Y-18728936D02*
X6061658Y-18738460D01*
X6061658Y-18738460D02*
X6042610Y-18747984D01*
X6042610Y-18747984D02*
X6023562Y-18747984D01*
X6023562Y-18747984D02*
X6004515Y-18738460D01*
X6004515Y-18738460D02*
X5994991Y-18728936D01*
X5994991Y-18728936D02*
X5985467Y-18709889D01*
X5985467Y-18709889D02*
X5975943Y-18671793D01*
X5975943Y-18671793D02*
X5975943Y-18624174D01*
X5975943Y-18624174D02*
X5985467Y-18586079D01*
X5985467Y-18586079D02*
X5994991Y-18567031D01*
X5994991Y-18567031D02*
X6004515Y-18557508D01*
X6004515Y-18557508D02*
X6023562Y-18547984D01*
X6214039Y-18547984D02*
X6233086Y-18547984D01*
X6233086Y-18547984D02*
X6252134Y-18557508D01*
X6252134Y-18557508D02*
X6261658Y-18567031D01*
X6261658Y-18567031D02*
X6271182Y-18586079D01*
X6271182Y-18586079D02*
X6280705Y-18624174D01*
X6280705Y-18624174D02*
X6280705Y-18671793D01*
X6280705Y-18671793D02*
X6271182Y-18709889D01*
X6271182Y-18709889D02*
X6261658Y-18728936D01*
X6261658Y-18728936D02*
X6252134Y-18738460D01*
X6252134Y-18738460D02*
X6233086Y-18747984D01*
X6233086Y-18747984D02*
X6214039Y-18747984D01*
X6214039Y-18747984D02*
X6194991Y-18738460D01*
X6194991Y-18738460D02*
X6185467Y-18728936D01*
X6185467Y-18728936D02*
X6175943Y-18709889D01*
X6175943Y-18709889D02*
X6166420Y-18671793D01*
X6166420Y-18671793D02*
X6166420Y-18624174D01*
X6166420Y-18624174D02*
X6175943Y-18586079D01*
X6175943Y-18586079D02*
X6185467Y-18567031D01*
X6185467Y-18567031D02*
X6194991Y-18557508D01*
X6194991Y-18557508D02*
X6214039Y-18547984D01*
X6366420Y-18747984D02*
X6366420Y-18614650D01*
X6366420Y-18633698D02*
X6375943Y-18624174D01*
X6375943Y-18624174D02*
X6394991Y-18614650D01*
X6394991Y-18614650D02*
X6423563Y-18614650D01*
X6423563Y-18614650D02*
X6442610Y-18624174D01*
X6442610Y-18624174D02*
X6452134Y-18643222D01*
X6452134Y-18643222D02*
X6452134Y-18747984D01*
X6452134Y-18643222D02*
X6461658Y-18624174D01*
X6461658Y-18624174D02*
X6480705Y-18614650D01*
X6480705Y-18614650D02*
X6509277Y-18614650D01*
X6509277Y-18614650D02*
X6528324Y-18624174D01*
X6528324Y-18624174D02*
X6537848Y-18643222D01*
X6537848Y-18643222D02*
X6537848Y-18747984D01*
X6633086Y-18747984D02*
X6633086Y-18614650D01*
X6633086Y-18633698D02*
X6642610Y-18624174D01*
X6642610Y-18624174D02*
X6661658Y-18614650D01*
X6661658Y-18614650D02*
X6690229Y-18614650D01*
X6690229Y-18614650D02*
X6709277Y-18624174D01*
X6709277Y-18624174D02*
X6718801Y-18643222D01*
X6718801Y-18643222D02*
X6718801Y-18747984D01*
X6718801Y-18643222D02*
X6728324Y-18624174D01*
X6728324Y-18624174D02*
X6747372Y-18614650D01*
X6747372Y-18614650D02*
X6775943Y-18614650D01*
X6775943Y-18614650D02*
X6794991Y-18624174D01*
X6794991Y-18624174D02*
X6804515Y-18643222D01*
X6804515Y-18643222D02*
X6804515Y-18747984D01*
X7194991Y-18538460D02*
X7023563Y-18795603D01*
X7452134Y-18547984D02*
X7471182Y-18547984D01*
X7471182Y-18547984D02*
X7490229Y-18557508D01*
X7490229Y-18557508D02*
X7499753Y-18567031D01*
X7499753Y-18567031D02*
X7509277Y-18586079D01*
X7509277Y-18586079D02*
X7518801Y-18624174D01*
X7518801Y-18624174D02*
X7518801Y-18671793D01*
X7518801Y-18671793D02*
X7509277Y-18709889D01*
X7509277Y-18709889D02*
X7499753Y-18728936D01*
X7499753Y-18728936D02*
X7490229Y-18738460D01*
X7490229Y-18738460D02*
X7471182Y-18747984D01*
X7471182Y-18747984D02*
X7452134Y-18747984D01*
X7452134Y-18747984D02*
X7433086Y-18738460D01*
X7433086Y-18738460D02*
X7423563Y-18728936D01*
X7423563Y-18728936D02*
X7414039Y-18709889D01*
X7414039Y-18709889D02*
X7404515Y-18671793D01*
X7404515Y-18671793D02*
X7404515Y-18624174D01*
X7404515Y-18624174D02*
X7414039Y-18586079D01*
X7414039Y-18586079D02*
X7423563Y-18567031D01*
X7423563Y-18567031D02*
X7433086Y-18557508D01*
X7433086Y-18557508D02*
X7452134Y-18547984D01*
X7604515Y-18728936D02*
X7614039Y-18738460D01*
X7614039Y-18738460D02*
X7604515Y-18747984D01*
X7604515Y-18747984D02*
X7594991Y-18738460D01*
X7594991Y-18738460D02*
X7604515Y-18728936D01*
X7604515Y-18728936D02*
X7604515Y-18747984D01*
X7737848Y-18547984D02*
X7756896Y-18547984D01*
X7756896Y-18547984D02*
X7775944Y-18557508D01*
X7775944Y-18557508D02*
X7785467Y-18567031D01*
X7785467Y-18567031D02*
X7794991Y-18586079D01*
X7794991Y-18586079D02*
X7804515Y-18624174D01*
X7804515Y-18624174D02*
X7804515Y-18671793D01*
X7804515Y-18671793D02*
X7794991Y-18709889D01*
X7794991Y-18709889D02*
X7785467Y-18728936D01*
X7785467Y-18728936D02*
X7775944Y-18738460D01*
X7775944Y-18738460D02*
X7756896Y-18747984D01*
X7756896Y-18747984D02*
X7737848Y-18747984D01*
X7737848Y-18747984D02*
X7718801Y-18738460D01*
X7718801Y-18738460D02*
X7709277Y-18728936D01*
X7709277Y-18728936D02*
X7699753Y-18709889D01*
X7699753Y-18709889D02*
X7690229Y-18671793D01*
X7690229Y-18671793D02*
X7690229Y-18624174D01*
X7690229Y-18624174D02*
X7699753Y-18586079D01*
X7699753Y-18586079D02*
X7709277Y-18567031D01*
X7709277Y-18567031D02*
X7718801Y-18557508D01*
X7718801Y-18557508D02*
X7737848Y-18547984D01*
X7899753Y-18747984D02*
X7937848Y-18747984D01*
X7937848Y-18747984D02*
X7956896Y-18738460D01*
X7956896Y-18738460D02*
X7966420Y-18728936D01*
X7966420Y-18728936D02*
X7985467Y-18700365D01*
X7985467Y-18700365D02*
X7994991Y-18662270D01*
X7994991Y-18662270D02*
X7994991Y-18586079D01*
X7994991Y-18586079D02*
X7985467Y-18567031D01*
X7985467Y-18567031D02*
X7975944Y-18557508D01*
X7975944Y-18557508D02*
X7956896Y-18547984D01*
X7956896Y-18547984D02*
X7918801Y-18547984D01*
X7918801Y-18547984D02*
X7899753Y-18557508D01*
X7899753Y-18557508D02*
X7890229Y-18567031D01*
X7890229Y-18567031D02*
X7880706Y-18586079D01*
X7880706Y-18586079D02*
X7880706Y-18633698D01*
X7880706Y-18633698D02*
X7890229Y-18652746D01*
X7890229Y-18652746D02*
X7899753Y-18662270D01*
X7899753Y-18662270D02*
X7918801Y-18671793D01*
X7918801Y-18671793D02*
X7956896Y-18671793D01*
X7956896Y-18671793D02*
X7975944Y-18662270D01*
X7975944Y-18662270D02*
X7985467Y-18652746D01*
X7985467Y-18652746D02*
X7994991Y-18633698D01*
X8109277Y-18633698D02*
X8090229Y-18624174D01*
X8090229Y-18624174D02*
X8080706Y-18614650D01*
X8080706Y-18614650D02*
X8071182Y-18595603D01*
X8071182Y-18595603D02*
X8071182Y-18586079D01*
X8071182Y-18586079D02*
X8080706Y-18567031D01*
X8080706Y-18567031D02*
X8090229Y-18557508D01*
X8090229Y-18557508D02*
X8109277Y-18547984D01*
X8109277Y-18547984D02*
X8147372Y-18547984D01*
X8147372Y-18547984D02*
X8166420Y-18557508D01*
X8166420Y-18557508D02*
X8175944Y-18567031D01*
X8175944Y-18567031D02*
X8185467Y-18586079D01*
X8185467Y-18586079D02*
X8185467Y-18595603D01*
X8185467Y-18595603D02*
X8175944Y-18614650D01*
X8175944Y-18614650D02*
X8166420Y-18624174D01*
X8166420Y-18624174D02*
X8147372Y-18633698D01*
X8147372Y-18633698D02*
X8109277Y-18633698D01*
X8109277Y-18633698D02*
X8090229Y-18643222D01*
X8090229Y-18643222D02*
X8080706Y-18652746D01*
X8080706Y-18652746D02*
X8071182Y-18671793D01*
X8071182Y-18671793D02*
X8071182Y-18709889D01*
X8071182Y-18709889D02*
X8080706Y-18728936D01*
X8080706Y-18728936D02*
X8090229Y-18738460D01*
X8090229Y-18738460D02*
X8109277Y-18747984D01*
X8109277Y-18747984D02*
X8147372Y-18747984D01*
X8147372Y-18747984D02*
X8166420Y-18738460D01*
X8166420Y-18738460D02*
X8175944Y-18728936D01*
X8175944Y-18728936D02*
X8185467Y-18709889D01*
X8185467Y-18709889D02*
X8185467Y-18671793D01*
X8185467Y-18671793D02*
X8175944Y-18652746D01*
X8175944Y-18652746D02*
X8166420Y-18643222D01*
X8166420Y-18643222D02*
X8147372Y-18633698D01*
X8356896Y-18614650D02*
X8356896Y-18747984D01*
X8309277Y-18538460D02*
X8261658Y-18681317D01*
X8261658Y-18681317D02*
X8385467Y-18681317D01*
X8452134Y-18547984D02*
X8452134Y-18586079D01*
X8528325Y-18547984D02*
X8528325Y-18586079D01*
X8823563Y-18824174D02*
X8814039Y-18814650D01*
X8814039Y-18814650D02*
X8794991Y-18786079D01*
X8794991Y-18786079D02*
X8785468Y-18767031D01*
X8785468Y-18767031D02*
X8775944Y-18738460D01*
X8775944Y-18738460D02*
X8766420Y-18690841D01*
X8766420Y-18690841D02*
X8766420Y-18652746D01*
X8766420Y-18652746D02*
X8775944Y-18605127D01*
X8775944Y-18605127D02*
X8785468Y-18576555D01*
X8785468Y-18576555D02*
X8794991Y-18557508D01*
X8794991Y-18557508D02*
X8814039Y-18528936D01*
X8814039Y-18528936D02*
X8823563Y-18519412D01*
X8880706Y-18547984D02*
X9004515Y-18547984D01*
X9004515Y-18547984D02*
X8937849Y-18624174D01*
X8937849Y-18624174D02*
X8966420Y-18624174D01*
X8966420Y-18624174D02*
X8985468Y-18633698D01*
X8985468Y-18633698D02*
X8994991Y-18643222D01*
X8994991Y-18643222D02*
X9004515Y-18662270D01*
X9004515Y-18662270D02*
X9004515Y-18709889D01*
X9004515Y-18709889D02*
X8994991Y-18728936D01*
X8994991Y-18728936D02*
X8985468Y-18738460D01*
X8985468Y-18738460D02*
X8966420Y-18747984D01*
X8966420Y-18747984D02*
X8909277Y-18747984D01*
X8909277Y-18747984D02*
X8890230Y-18738460D01*
X8890230Y-18738460D02*
X8880706Y-18728936D01*
X9242611Y-18747984D02*
X9242611Y-18547984D01*
X9328325Y-18747984D02*
X9328325Y-18643222D01*
X9328325Y-18643222D02*
X9318801Y-18624174D01*
X9318801Y-18624174D02*
X9299753Y-18614650D01*
X9299753Y-18614650D02*
X9271182Y-18614650D01*
X9271182Y-18614650D02*
X9252134Y-18624174D01*
X9252134Y-18624174D02*
X9242611Y-18633698D01*
X9452134Y-18747984D02*
X9433087Y-18738460D01*
X9433087Y-18738460D02*
X9423563Y-18728936D01*
X9423563Y-18728936D02*
X9414039Y-18709889D01*
X9414039Y-18709889D02*
X9414039Y-18652746D01*
X9414039Y-18652746D02*
X9423563Y-18633698D01*
X9423563Y-18633698D02*
X9433087Y-18624174D01*
X9433087Y-18624174D02*
X9452134Y-18614650D01*
X9452134Y-18614650D02*
X9480706Y-18614650D01*
X9480706Y-18614650D02*
X9499753Y-18624174D01*
X9499753Y-18624174D02*
X9509277Y-18633698D01*
X9509277Y-18633698D02*
X9518801Y-18652746D01*
X9518801Y-18652746D02*
X9518801Y-18709889D01*
X9518801Y-18709889D02*
X9509277Y-18728936D01*
X9509277Y-18728936D02*
X9499753Y-18738460D01*
X9499753Y-18738460D02*
X9480706Y-18747984D01*
X9480706Y-18747984D02*
X9452134Y-18747984D01*
X9633087Y-18747984D02*
X9614039Y-18738460D01*
X9614039Y-18738460D02*
X9604515Y-18719412D01*
X9604515Y-18719412D02*
X9604515Y-18547984D01*
X9785468Y-18738460D02*
X9766420Y-18747984D01*
X9766420Y-18747984D02*
X9728325Y-18747984D01*
X9728325Y-18747984D02*
X9709277Y-18738460D01*
X9709277Y-18738460D02*
X9699753Y-18719412D01*
X9699753Y-18719412D02*
X9699753Y-18643222D01*
X9699753Y-18643222D02*
X9709277Y-18624174D01*
X9709277Y-18624174D02*
X9728325Y-18614650D01*
X9728325Y-18614650D02*
X9766420Y-18614650D01*
X9766420Y-18614650D02*
X9785468Y-18624174D01*
X9785468Y-18624174D02*
X9794992Y-18643222D01*
X9794992Y-18643222D02*
X9794992Y-18662270D01*
X9794992Y-18662270D02*
X9699753Y-18681317D01*
X9871182Y-18738460D02*
X9890230Y-18747984D01*
X9890230Y-18747984D02*
X9928325Y-18747984D01*
X9928325Y-18747984D02*
X9947373Y-18738460D01*
X9947373Y-18738460D02*
X9956896Y-18719412D01*
X9956896Y-18719412D02*
X9956896Y-18709889D01*
X9956896Y-18709889D02*
X9947373Y-18690841D01*
X9947373Y-18690841D02*
X9928325Y-18681317D01*
X9928325Y-18681317D02*
X9899753Y-18681317D01*
X9899753Y-18681317D02*
X9880706Y-18671793D01*
X9880706Y-18671793D02*
X9871182Y-18652746D01*
X9871182Y-18652746D02*
X9871182Y-18643222D01*
X9871182Y-18643222D02*
X9880706Y-18624174D01*
X9880706Y-18624174D02*
X9899753Y-18614650D01*
X9899753Y-18614650D02*
X9928325Y-18614650D01*
X9928325Y-18614650D02*
X9947373Y-18624174D01*
X10023563Y-18824174D02*
X10033087Y-18814650D01*
X10033087Y-18814650D02*
X10052134Y-18786079D01*
X10052134Y-18786079D02*
X10061658Y-18767031D01*
X10061658Y-18767031D02*
X10071182Y-18738460D01*
X10071182Y-18738460D02*
X10080706Y-18690841D01*
X10080706Y-18690841D02*
X10080706Y-18652746D01*
X10080706Y-18652746D02*
X10071182Y-18605127D01*
X10071182Y-18605127D02*
X10061658Y-18576555D01*
X10061658Y-18576555D02*
X10052134Y-18557508D01*
X10052134Y-18557508D02*
X10033087Y-18528936D01*
X10033087Y-18528936D02*
X10023563Y-18519412D01*
M02*
