%TF.GenerationSoftware,KiCad,Pcbnew,8.0.6*%
%TF.CreationDate,2024-11-20T19:23:55-05:00*%
%TF.ProjectId,solouno_sidepanel,736f6c6f-756e-46f5-9f73-69646570616e,rev?*%
%TF.SameCoordinates,Original*%
%TF.FileFunction,Copper,L2,Bot*%
%TF.FilePolarity,Positive*%
%FSLAX46Y46*%
G04 Gerber Fmt 4.6, Leading zero omitted, Abs format (unit mm)*
G04 Created by KiCad (PCBNEW 8.0.6) date 2024-11-20 19:23:55*
%MOMM*%
%LPD*%
G01*
G04 APERTURE LIST*
G04 Aperture macros list*
%AMRoundRect*
0 Rectangle with rounded corners*
0 $1 Rounding radius*
0 $2 $3 $4 $5 $6 $7 $8 $9 X,Y pos of 4 corners*
0 Add a 4 corners polygon primitive as box body*
4,1,4,$2,$3,$4,$5,$6,$7,$8,$9,$2,$3,0*
0 Add four circle primitives for the rounded corners*
1,1,$1+$1,$2,$3*
1,1,$1+$1,$4,$5*
1,1,$1+$1,$6,$7*
1,1,$1+$1,$8,$9*
0 Add four rect primitives between the rounded corners*
20,1,$1+$1,$2,$3,$4,$5,0*
20,1,$1+$1,$4,$5,$6,$7,0*
20,1,$1+$1,$6,$7,$8,$9,0*
20,1,$1+$1,$8,$9,$2,$3,0*%
G04 Aperture macros list end*
%TA.AperFunction,ComponentPad*%
%ADD10RoundRect,0.250000X0.600000X0.750000X-0.600000X0.750000X-0.600000X-0.750000X0.600000X-0.750000X0*%
%TD*%
%TA.AperFunction,ComponentPad*%
%ADD11O,1.700000X2.000000*%
%TD*%
%TA.AperFunction,ComponentPad*%
%ADD12C,1.600000*%
%TD*%
%TA.AperFunction,ComponentPad*%
%ADD13RoundRect,0.250000X-0.600000X-0.725000X0.600000X-0.725000X0.600000X0.725000X-0.600000X0.725000X0*%
%TD*%
%TA.AperFunction,ComponentPad*%
%ADD14O,1.700000X1.950000*%
%TD*%
%TA.AperFunction,ComponentPad*%
%ADD15RoundRect,0.250000X0.750000X-0.600000X0.750000X0.600000X-0.750000X0.600000X-0.750000X-0.600000X0*%
%TD*%
%TA.AperFunction,ComponentPad*%
%ADD16O,2.000000X1.700000*%
%TD*%
%TA.AperFunction,ComponentPad*%
%ADD17C,4.000000*%
%TD*%
%TA.AperFunction,ComponentPad*%
%ADD18RoundRect,0.250000X0.600000X0.725000X-0.600000X0.725000X-0.600000X-0.725000X0.600000X-0.725000X0*%
%TD*%
%TA.AperFunction,Conductor*%
%ADD19C,2.500000*%
%TD*%
G04 APERTURE END LIST*
D10*
%TO.P,CN1,1,Pin_1*%
%TO.N,Net-(CN1-Pin_1)*%
X68260000Y-126020000D03*
D11*
%TO.P,CN1,2,Pin_2*%
%TO.N,Net-(CN1-Pin_2)*%
X65760000Y-126020000D03*
%TD*%
D12*
%TO.P,C1,1*%
%TO.N,Net-(PW2-Pin_1)*%
X68320000Y-116570000D03*
%TO.P,C1,2*%
%TO.N,GND*%
X65820000Y-116570000D03*
%TD*%
D13*
%TO.P,E1,1,Pin_1*%
%TO.N,Net-(E1-Pin_1)*%
X62010000Y-143670000D03*
D14*
%TO.P,E1,2,Pin_2*%
%TO.N,Net-(E1-Pin_2)*%
X64510000Y-143670000D03*
%TO.P,E1,3,Pin_3*%
%TO.N,Net-(E1-Pin_3)*%
X67010000Y-143670000D03*
%TO.P,E1,4,Pin_4*%
%TO.N,Net-(E1-Pin_4)*%
X69510000Y-143670000D03*
%TO.P,E1,5,Pin_5*%
%TO.N,Net-(E1-Pin_5)*%
X72010000Y-143670000D03*
%TD*%
D15*
%TO.P,PW1,1,Pin_1*%
%TO.N,+28V*%
X57990000Y-96130000D03*
D16*
%TO.P,PW1,2,Pin_2*%
%TO.N,GND*%
X57990000Y-93630000D03*
%TD*%
D17*
%TO.P,A1,1*%
%TO.N,Net-(A2-Pin_1)*%
X69510000Y-105154937D03*
%TO.P,A1,2*%
%TO.N,Net-(A2-Pin_2)*%
X67010000Y-109485064D03*
%TO.P,A1,3*%
%TO.N,Net-(A2-Pin_3)*%
X64510000Y-105154937D03*
%TD*%
D18*
%TO.P,A2,1,Pin_1*%
%TO.N,Net-(A2-Pin_1)*%
X69510000Y-93630000D03*
D14*
%TO.P,A2,2,Pin_2*%
%TO.N,Net-(A2-Pin_2)*%
X67010000Y-93630000D03*
%TO.P,A2,3,Pin_3*%
%TO.N,Net-(A2-Pin_3)*%
X64510000Y-93630000D03*
%TD*%
D13*
%TO.P,E2,1,Pin_1*%
%TO.N,Net-(E1-Pin_1)*%
X62010000Y-132820000D03*
D14*
%TO.P,E2,2,Pin_2*%
%TO.N,Net-(E1-Pin_2)*%
X64510000Y-132820000D03*
%TO.P,E2,3,Pin_3*%
%TO.N,Net-(E1-Pin_3)*%
X67010000Y-132820000D03*
%TO.P,E2,4,Pin_4*%
%TO.N,Net-(E1-Pin_4)*%
X69510000Y-132820000D03*
%TO.P,E2,5,Pin_5*%
%TO.N,Net-(E1-Pin_5)*%
X72010000Y-132820000D03*
%TD*%
D15*
%TO.P,PW2,1,Pin_1*%
%TO.N,Net-(PW2-Pin_1)*%
X75990000Y-96130000D03*
D16*
%TO.P,PW2,2,Pin_2*%
%TO.N,GND*%
X75990000Y-93630000D03*
%TD*%
D10*
%TO.P,CN2,1,Pin_1*%
%TO.N,Net-(CN1-Pin_1)*%
X68260000Y-138200000D03*
D11*
%TO.P,CN2,2,Pin_2*%
%TO.N,Net-(CN1-Pin_2)*%
X65760000Y-138200000D03*
%TD*%
D19*
%TO.N,Net-(A2-Pin_1)*%
X69510000Y-93630000D02*
X69510000Y-105154937D01*
%TO.N,Net-(A2-Pin_3)*%
X64510000Y-93630000D02*
X64510000Y-105154937D01*
%TD*%
%TA.AperFunction,Conductor*%
%TO.N,GND*%
G36*
X80952539Y-90100185D02*
G01*
X80998294Y-90152989D01*
X81009500Y-90204500D01*
X81009500Y-168955500D01*
X80989815Y-169022539D01*
X80937011Y-169068294D01*
X80885500Y-169079500D01*
X53134500Y-169079500D01*
X53067461Y-169059815D01*
X53021706Y-169007011D01*
X53010500Y-168955500D01*
X53010500Y-142894983D01*
X60659500Y-142894983D01*
X60659500Y-144445001D01*
X60659501Y-144445018D01*
X60670000Y-144547796D01*
X60670001Y-144547799D01*
X60715894Y-144686294D01*
X60725186Y-144714334D01*
X60817288Y-144863656D01*
X60941344Y-144987712D01*
X61090666Y-145079814D01*
X61257203Y-145134999D01*
X61359991Y-145145500D01*
X62660008Y-145145499D01*
X62762797Y-145134999D01*
X62929334Y-145079814D01*
X63078656Y-144987712D01*
X63202712Y-144863656D01*
X63294814Y-144714334D01*
X63294814Y-144714331D01*
X63298178Y-144708879D01*
X63350126Y-144662154D01*
X63419088Y-144650931D01*
X63483170Y-144678774D01*
X63491398Y-144686294D01*
X63630213Y-144825109D01*
X63802179Y-144950048D01*
X63802181Y-144950049D01*
X63802184Y-144950051D01*
X63991588Y-145046557D01*
X64193757Y-145112246D01*
X64403713Y-145145500D01*
X64403714Y-145145500D01*
X64616286Y-145145500D01*
X64616287Y-145145500D01*
X64826243Y-145112246D01*
X65028412Y-145046557D01*
X65217816Y-144950051D01*
X65239789Y-144934086D01*
X65389786Y-144825109D01*
X65389788Y-144825106D01*
X65389792Y-144825104D01*
X65540104Y-144674792D01*
X65659683Y-144510204D01*
X65715011Y-144467540D01*
X65784624Y-144461561D01*
X65846420Y-144494166D01*
X65860313Y-144510199D01*
X65962560Y-144650931D01*
X65979896Y-144674792D01*
X66130213Y-144825109D01*
X66302179Y-144950048D01*
X66302181Y-144950049D01*
X66302184Y-144950051D01*
X66491588Y-145046557D01*
X66693757Y-145112246D01*
X66903713Y-145145500D01*
X66903714Y-145145500D01*
X67116286Y-145145500D01*
X67116287Y-145145500D01*
X67326243Y-145112246D01*
X67528412Y-145046557D01*
X67717816Y-144950051D01*
X67739789Y-144934086D01*
X67889786Y-144825109D01*
X67889788Y-144825106D01*
X67889792Y-144825104D01*
X68040104Y-144674792D01*
X68159683Y-144510204D01*
X68215011Y-144467540D01*
X68284624Y-144461561D01*
X68346420Y-144494166D01*
X68360313Y-144510199D01*
X68462560Y-144650931D01*
X68479896Y-144674792D01*
X68630213Y-144825109D01*
X68802179Y-144950048D01*
X68802181Y-144950049D01*
X68802184Y-144950051D01*
X68991588Y-145046557D01*
X69193757Y-145112246D01*
X69403713Y-145145500D01*
X69403714Y-145145500D01*
X69616286Y-145145500D01*
X69616287Y-145145500D01*
X69826243Y-145112246D01*
X70028412Y-145046557D01*
X70217816Y-144950051D01*
X70239789Y-144934086D01*
X70389786Y-144825109D01*
X70389788Y-144825106D01*
X70389792Y-144825104D01*
X70540104Y-144674792D01*
X70659683Y-144510204D01*
X70715011Y-144467540D01*
X70784624Y-144461561D01*
X70846420Y-144494166D01*
X70860313Y-144510199D01*
X70962560Y-144650931D01*
X70979896Y-144674792D01*
X71130213Y-144825109D01*
X71302179Y-144950048D01*
X71302181Y-144950049D01*
X71302184Y-144950051D01*
X71491588Y-145046557D01*
X71693757Y-145112246D01*
X71903713Y-145145500D01*
X71903714Y-145145500D01*
X72116286Y-145145500D01*
X72116287Y-145145500D01*
X72326243Y-145112246D01*
X72528412Y-145046557D01*
X72717816Y-144950051D01*
X72739789Y-144934086D01*
X72889786Y-144825109D01*
X72889788Y-144825106D01*
X72889792Y-144825104D01*
X73040104Y-144674792D01*
X73040106Y-144674788D01*
X73040109Y-144674786D01*
X73165048Y-144502820D01*
X73165047Y-144502820D01*
X73165051Y-144502816D01*
X73261557Y-144313412D01*
X73327246Y-144111243D01*
X73360500Y-143901287D01*
X73360500Y-143438713D01*
X73327246Y-143228757D01*
X73261557Y-143026588D01*
X73165051Y-142837184D01*
X73165049Y-142837181D01*
X73165048Y-142837179D01*
X73040109Y-142665213D01*
X72889786Y-142514890D01*
X72717820Y-142389951D01*
X72528414Y-142293444D01*
X72528413Y-142293443D01*
X72528412Y-142293443D01*
X72326243Y-142227754D01*
X72326241Y-142227753D01*
X72326240Y-142227753D01*
X72164957Y-142202208D01*
X72116287Y-142194500D01*
X71903713Y-142194500D01*
X71855042Y-142202208D01*
X71693760Y-142227753D01*
X71491585Y-142293444D01*
X71302179Y-142389951D01*
X71130213Y-142514890D01*
X70979894Y-142665209D01*
X70979890Y-142665214D01*
X70860318Y-142829793D01*
X70804989Y-142872459D01*
X70735375Y-142878438D01*
X70673580Y-142845833D01*
X70659682Y-142829793D01*
X70540109Y-142665214D01*
X70540105Y-142665209D01*
X70389786Y-142514890D01*
X70217820Y-142389951D01*
X70028414Y-142293444D01*
X70028413Y-142293443D01*
X70028412Y-142293443D01*
X69826243Y-142227754D01*
X69826241Y-142227753D01*
X69826240Y-142227753D01*
X69664957Y-142202208D01*
X69616287Y-142194500D01*
X69403713Y-142194500D01*
X69355042Y-142202208D01*
X69193760Y-142227753D01*
X68991585Y-142293444D01*
X68802179Y-142389951D01*
X68630213Y-142514890D01*
X68479894Y-142665209D01*
X68479890Y-142665214D01*
X68360318Y-142829793D01*
X68304989Y-142872459D01*
X68235375Y-142878438D01*
X68173580Y-142845833D01*
X68159682Y-142829793D01*
X68040109Y-142665214D01*
X68040105Y-142665209D01*
X67889786Y-142514890D01*
X67717820Y-142389951D01*
X67528414Y-142293444D01*
X67528413Y-142293443D01*
X67528412Y-142293443D01*
X67326243Y-142227754D01*
X67326241Y-142227753D01*
X67326240Y-142227753D01*
X67164957Y-142202208D01*
X67116287Y-142194500D01*
X66903713Y-142194500D01*
X66855042Y-142202208D01*
X66693760Y-142227753D01*
X66491585Y-142293444D01*
X66302179Y-142389951D01*
X66130213Y-142514890D01*
X65979894Y-142665209D01*
X65979890Y-142665214D01*
X65860318Y-142829793D01*
X65804989Y-142872459D01*
X65735375Y-142878438D01*
X65673580Y-142845833D01*
X65659682Y-142829793D01*
X65540109Y-142665214D01*
X65540105Y-142665209D01*
X65389786Y-142514890D01*
X65217820Y-142389951D01*
X65028414Y-142293444D01*
X65028413Y-142293443D01*
X65028412Y-142293443D01*
X64826243Y-142227754D01*
X64826241Y-142227753D01*
X64826240Y-142227753D01*
X64664957Y-142202208D01*
X64616287Y-142194500D01*
X64403713Y-142194500D01*
X64355042Y-142202208D01*
X64193760Y-142227753D01*
X63991585Y-142293444D01*
X63802179Y-142389951D01*
X63630215Y-142514889D01*
X63491398Y-142653706D01*
X63430075Y-142687190D01*
X63360383Y-142682206D01*
X63304450Y-142640334D01*
X63298178Y-142631120D01*
X63202712Y-142476344D01*
X63078657Y-142352289D01*
X63078656Y-142352288D01*
X62929334Y-142260186D01*
X62762797Y-142205001D01*
X62762795Y-142205000D01*
X62660010Y-142194500D01*
X61359998Y-142194500D01*
X61359981Y-142194501D01*
X61257203Y-142205000D01*
X61257200Y-142205001D01*
X61090668Y-142260185D01*
X61090663Y-142260187D01*
X60941342Y-142352289D01*
X60817289Y-142476342D01*
X60725187Y-142625663D01*
X60725185Y-142625668D01*
X60720325Y-142640334D01*
X60670001Y-142792203D01*
X60670001Y-142792204D01*
X60670000Y-142792204D01*
X60659500Y-142894983D01*
X53010500Y-142894983D01*
X53010500Y-137943713D01*
X64409500Y-137943713D01*
X64409500Y-138456286D01*
X64442753Y-138666239D01*
X64508444Y-138868414D01*
X64604951Y-139057820D01*
X64729890Y-139229786D01*
X64880213Y-139380109D01*
X65052179Y-139505048D01*
X65052181Y-139505049D01*
X65052184Y-139505051D01*
X65241588Y-139601557D01*
X65443757Y-139667246D01*
X65653713Y-139700500D01*
X65653714Y-139700500D01*
X65866286Y-139700500D01*
X65866287Y-139700500D01*
X66076243Y-139667246D01*
X66278412Y-139601557D01*
X66467816Y-139505051D01*
X66639792Y-139380104D01*
X66778604Y-139241291D01*
X66839923Y-139207809D01*
X66909615Y-139212793D01*
X66965549Y-139254664D01*
X66971821Y-139263878D01*
X66975185Y-139269333D01*
X66975186Y-139269334D01*
X67067288Y-139418656D01*
X67191344Y-139542712D01*
X67340666Y-139634814D01*
X67507203Y-139689999D01*
X67609991Y-139700500D01*
X68910008Y-139700499D01*
X69012797Y-139689999D01*
X69179334Y-139634814D01*
X69328656Y-139542712D01*
X69452712Y-139418656D01*
X69544814Y-139269334D01*
X69599999Y-139102797D01*
X69610500Y-139000009D01*
X69610499Y-137399992D01*
X69599999Y-137297203D01*
X69544814Y-137130666D01*
X69452712Y-136981344D01*
X69328656Y-136857288D01*
X69179334Y-136765186D01*
X69012797Y-136710001D01*
X69012795Y-136710000D01*
X68910010Y-136699500D01*
X67609998Y-136699500D01*
X67609981Y-136699501D01*
X67507203Y-136710000D01*
X67507200Y-136710001D01*
X67340668Y-136765185D01*
X67340663Y-136765187D01*
X67191342Y-136857289D01*
X67067289Y-136981342D01*
X66971821Y-137136121D01*
X66919873Y-137182845D01*
X66850910Y-137194068D01*
X66786828Y-137166224D01*
X66778601Y-137158705D01*
X66639786Y-137019890D01*
X66467820Y-136894951D01*
X66278414Y-136798444D01*
X66278413Y-136798443D01*
X66278412Y-136798443D01*
X66076243Y-136732754D01*
X66076241Y-136732753D01*
X66076240Y-136732753D01*
X65914957Y-136707208D01*
X65866287Y-136699500D01*
X65653713Y-136699500D01*
X65605042Y-136707208D01*
X65443760Y-136732753D01*
X65241585Y-136798444D01*
X65052179Y-136894951D01*
X64880213Y-137019890D01*
X64729890Y-137170213D01*
X64604951Y-137342179D01*
X64508444Y-137531585D01*
X64442753Y-137733760D01*
X64409500Y-137943713D01*
X53010500Y-137943713D01*
X53010500Y-132044983D01*
X60659500Y-132044983D01*
X60659500Y-133595001D01*
X60659501Y-133595018D01*
X60670000Y-133697796D01*
X60670001Y-133697799D01*
X60715894Y-133836294D01*
X60725186Y-133864334D01*
X60817288Y-134013656D01*
X60941344Y-134137712D01*
X61090666Y-134229814D01*
X61257203Y-134284999D01*
X61359991Y-134295500D01*
X62660008Y-134295499D01*
X62762797Y-134284999D01*
X62929334Y-134229814D01*
X63078656Y-134137712D01*
X63202712Y-134013656D01*
X63294814Y-133864334D01*
X63294814Y-133864331D01*
X63298178Y-133858879D01*
X63350126Y-133812154D01*
X63419088Y-133800931D01*
X63483170Y-133828774D01*
X63491398Y-133836294D01*
X63630213Y-133975109D01*
X63802179Y-134100048D01*
X63802181Y-134100049D01*
X63802184Y-134100051D01*
X63991588Y-134196557D01*
X64193757Y-134262246D01*
X64403713Y-134295500D01*
X64403714Y-134295500D01*
X64616286Y-134295500D01*
X64616287Y-134295500D01*
X64826243Y-134262246D01*
X65028412Y-134196557D01*
X65217816Y-134100051D01*
X65239789Y-134084086D01*
X65389786Y-133975109D01*
X65389788Y-133975106D01*
X65389792Y-133975104D01*
X65540104Y-133824792D01*
X65659683Y-133660204D01*
X65715011Y-133617540D01*
X65784624Y-133611561D01*
X65846420Y-133644166D01*
X65860313Y-133660199D01*
X65962560Y-133800931D01*
X65979896Y-133824792D01*
X66130213Y-133975109D01*
X66302179Y-134100048D01*
X66302181Y-134100049D01*
X66302184Y-134100051D01*
X66491588Y-134196557D01*
X66693757Y-134262246D01*
X66903713Y-134295500D01*
X66903714Y-134295500D01*
X67116286Y-134295500D01*
X67116287Y-134295500D01*
X67326243Y-134262246D01*
X67528412Y-134196557D01*
X67717816Y-134100051D01*
X67739789Y-134084086D01*
X67889786Y-133975109D01*
X67889788Y-133975106D01*
X67889792Y-133975104D01*
X68040104Y-133824792D01*
X68159683Y-133660204D01*
X68215011Y-133617540D01*
X68284624Y-133611561D01*
X68346420Y-133644166D01*
X68360313Y-133660199D01*
X68462560Y-133800931D01*
X68479896Y-133824792D01*
X68630213Y-133975109D01*
X68802179Y-134100048D01*
X68802181Y-134100049D01*
X68802184Y-134100051D01*
X68991588Y-134196557D01*
X69193757Y-134262246D01*
X69403713Y-134295500D01*
X69403714Y-134295500D01*
X69616286Y-134295500D01*
X69616287Y-134295500D01*
X69826243Y-134262246D01*
X70028412Y-134196557D01*
X70217816Y-134100051D01*
X70239789Y-134084086D01*
X70389786Y-133975109D01*
X70389788Y-133975106D01*
X70389792Y-133975104D01*
X70540104Y-133824792D01*
X70659683Y-133660204D01*
X70715011Y-133617540D01*
X70784624Y-133611561D01*
X70846420Y-133644166D01*
X70860313Y-133660199D01*
X70962560Y-133800931D01*
X70979896Y-133824792D01*
X71130213Y-133975109D01*
X71302179Y-134100048D01*
X71302181Y-134100049D01*
X71302184Y-134100051D01*
X71491588Y-134196557D01*
X71693757Y-134262246D01*
X71903713Y-134295500D01*
X71903714Y-134295500D01*
X72116286Y-134295500D01*
X72116287Y-134295500D01*
X72326243Y-134262246D01*
X72528412Y-134196557D01*
X72717816Y-134100051D01*
X72739789Y-134084086D01*
X72889786Y-133975109D01*
X72889788Y-133975106D01*
X72889792Y-133975104D01*
X73040104Y-133824792D01*
X73040106Y-133824788D01*
X73040109Y-133824786D01*
X73165048Y-133652820D01*
X73165047Y-133652820D01*
X73165051Y-133652816D01*
X73261557Y-133463412D01*
X73327246Y-133261243D01*
X73360500Y-133051287D01*
X73360500Y-132588713D01*
X73327246Y-132378757D01*
X73261557Y-132176588D01*
X73165051Y-131987184D01*
X73165049Y-131987181D01*
X73165048Y-131987179D01*
X73040109Y-131815213D01*
X72889786Y-131664890D01*
X72717820Y-131539951D01*
X72528414Y-131443444D01*
X72528413Y-131443443D01*
X72528412Y-131443443D01*
X72326243Y-131377754D01*
X72326241Y-131377753D01*
X72326240Y-131377753D01*
X72164957Y-131352208D01*
X72116287Y-131344500D01*
X71903713Y-131344500D01*
X71855042Y-131352208D01*
X71693760Y-131377753D01*
X71491585Y-131443444D01*
X71302179Y-131539951D01*
X71130213Y-131664890D01*
X70979894Y-131815209D01*
X70979890Y-131815214D01*
X70860318Y-131979793D01*
X70804989Y-132022459D01*
X70735375Y-132028438D01*
X70673580Y-131995833D01*
X70659682Y-131979793D01*
X70540109Y-131815214D01*
X70540105Y-131815209D01*
X70389786Y-131664890D01*
X70217820Y-131539951D01*
X70028414Y-131443444D01*
X70028413Y-131443443D01*
X70028412Y-131443443D01*
X69826243Y-131377754D01*
X69826241Y-131377753D01*
X69826240Y-131377753D01*
X69664957Y-131352208D01*
X69616287Y-131344500D01*
X69403713Y-131344500D01*
X69355042Y-131352208D01*
X69193760Y-131377753D01*
X68991585Y-131443444D01*
X68802179Y-131539951D01*
X68630213Y-131664890D01*
X68479894Y-131815209D01*
X68479890Y-131815214D01*
X68360318Y-131979793D01*
X68304989Y-132022459D01*
X68235375Y-132028438D01*
X68173580Y-131995833D01*
X68159682Y-131979793D01*
X68040109Y-131815214D01*
X68040105Y-131815209D01*
X67889786Y-131664890D01*
X67717820Y-131539951D01*
X67528414Y-131443444D01*
X67528413Y-131443443D01*
X67528412Y-131443443D01*
X67326243Y-131377754D01*
X67326241Y-131377753D01*
X67326240Y-131377753D01*
X67164957Y-131352208D01*
X67116287Y-131344500D01*
X66903713Y-131344500D01*
X66855042Y-131352208D01*
X66693760Y-131377753D01*
X66491585Y-131443444D01*
X66302179Y-131539951D01*
X66130213Y-131664890D01*
X65979894Y-131815209D01*
X65979890Y-131815214D01*
X65860318Y-131979793D01*
X65804989Y-132022459D01*
X65735375Y-132028438D01*
X65673580Y-131995833D01*
X65659682Y-131979793D01*
X65540109Y-131815214D01*
X65540105Y-131815209D01*
X65389786Y-131664890D01*
X65217820Y-131539951D01*
X65028414Y-131443444D01*
X65028413Y-131443443D01*
X65028412Y-131443443D01*
X64826243Y-131377754D01*
X64826241Y-131377753D01*
X64826240Y-131377753D01*
X64664957Y-131352208D01*
X64616287Y-131344500D01*
X64403713Y-131344500D01*
X64355042Y-131352208D01*
X64193760Y-131377753D01*
X63991585Y-131443444D01*
X63802179Y-131539951D01*
X63630215Y-131664889D01*
X63491398Y-131803706D01*
X63430075Y-131837190D01*
X63360383Y-131832206D01*
X63304450Y-131790334D01*
X63298178Y-131781120D01*
X63202712Y-131626344D01*
X63078657Y-131502289D01*
X63078656Y-131502288D01*
X62929334Y-131410186D01*
X62762797Y-131355001D01*
X62762795Y-131355000D01*
X62660010Y-131344500D01*
X61359998Y-131344500D01*
X61359981Y-131344501D01*
X61257203Y-131355000D01*
X61257200Y-131355001D01*
X61090668Y-131410185D01*
X61090663Y-131410187D01*
X60941342Y-131502289D01*
X60817289Y-131626342D01*
X60725187Y-131775663D01*
X60725185Y-131775668D01*
X60720325Y-131790334D01*
X60670001Y-131942203D01*
X60670001Y-131942204D01*
X60670000Y-131942204D01*
X60659500Y-132044983D01*
X53010500Y-132044983D01*
X53010500Y-125763713D01*
X64409500Y-125763713D01*
X64409500Y-126276286D01*
X64442753Y-126486239D01*
X64508444Y-126688414D01*
X64604951Y-126877820D01*
X64729890Y-127049786D01*
X64880213Y-127200109D01*
X65052179Y-127325048D01*
X65052181Y-127325049D01*
X65052184Y-127325051D01*
X65241588Y-127421557D01*
X65443757Y-127487246D01*
X65653713Y-127520500D01*
X65653714Y-127520500D01*
X65866286Y-127520500D01*
X65866287Y-127520500D01*
X66076243Y-127487246D01*
X66278412Y-127421557D01*
X66467816Y-127325051D01*
X66639792Y-127200104D01*
X66778604Y-127061291D01*
X66839923Y-127027809D01*
X66909615Y-127032793D01*
X66965549Y-127074664D01*
X66971821Y-127083878D01*
X66975185Y-127089333D01*
X66975186Y-127089334D01*
X67067288Y-127238656D01*
X67191344Y-127362712D01*
X67340666Y-127454814D01*
X67507203Y-127509999D01*
X67609991Y-127520500D01*
X68910008Y-127520499D01*
X69012797Y-127509999D01*
X69179334Y-127454814D01*
X69328656Y-127362712D01*
X69452712Y-127238656D01*
X69544814Y-127089334D01*
X69599999Y-126922797D01*
X69610500Y-126820009D01*
X69610499Y-125219992D01*
X69599999Y-125117203D01*
X69544814Y-124950666D01*
X69452712Y-124801344D01*
X69328656Y-124677288D01*
X69179334Y-124585186D01*
X69012797Y-124530001D01*
X69012795Y-124530000D01*
X68910010Y-124519500D01*
X67609998Y-124519500D01*
X67609981Y-124519501D01*
X67507203Y-124530000D01*
X67507200Y-124530001D01*
X67340668Y-124585185D01*
X67340663Y-124585187D01*
X67191342Y-124677289D01*
X67067289Y-124801342D01*
X66971821Y-124956121D01*
X66919873Y-125002845D01*
X66850910Y-125014068D01*
X66786828Y-124986224D01*
X66778601Y-124978705D01*
X66639786Y-124839890D01*
X66467820Y-124714951D01*
X66278414Y-124618444D01*
X66278413Y-124618443D01*
X66278412Y-124618443D01*
X66076243Y-124552754D01*
X66076241Y-124552753D01*
X66076240Y-124552753D01*
X65914957Y-124527208D01*
X65866287Y-124519500D01*
X65653713Y-124519500D01*
X65605042Y-124527208D01*
X65443760Y-124552753D01*
X65241585Y-124618444D01*
X65052179Y-124714951D01*
X64880213Y-124839890D01*
X64729890Y-124990213D01*
X64604951Y-125162179D01*
X64508444Y-125351585D01*
X64442753Y-125553760D01*
X64409500Y-125763713D01*
X53010500Y-125763713D01*
X53010500Y-116569997D01*
X64515034Y-116569997D01*
X64515034Y-116570002D01*
X64534858Y-116796599D01*
X64534860Y-116796610D01*
X64593730Y-117016317D01*
X64593735Y-117016331D01*
X64689863Y-117222478D01*
X64740974Y-117295472D01*
X65420000Y-116616446D01*
X65420000Y-116622661D01*
X65447259Y-116724394D01*
X65499920Y-116815606D01*
X65574394Y-116890080D01*
X65665606Y-116942741D01*
X65767339Y-116970000D01*
X65773553Y-116970000D01*
X65094526Y-117649025D01*
X65167513Y-117700132D01*
X65167521Y-117700136D01*
X65373668Y-117796264D01*
X65373682Y-117796269D01*
X65593389Y-117855139D01*
X65593400Y-117855141D01*
X65819998Y-117874966D01*
X65820002Y-117874966D01*
X66046599Y-117855141D01*
X66046610Y-117855139D01*
X66266317Y-117796269D01*
X66266331Y-117796264D01*
X66472478Y-117700136D01*
X66545471Y-117649024D01*
X65866447Y-116970000D01*
X65872661Y-116970000D01*
X65974394Y-116942741D01*
X66065606Y-116890080D01*
X66140080Y-116815606D01*
X66192741Y-116724394D01*
X66220000Y-116622661D01*
X66220000Y-116616447D01*
X66899024Y-117295471D01*
X66950134Y-117222481D01*
X66957340Y-117207028D01*
X67003511Y-117154587D01*
X67070704Y-117135433D01*
X67137585Y-117155646D01*
X67182105Y-117207022D01*
X67189430Y-117222730D01*
X67189432Y-117222734D01*
X67319954Y-117409141D01*
X67480858Y-117570045D01*
X67480861Y-117570047D01*
X67667266Y-117700568D01*
X67873504Y-117796739D01*
X68093308Y-117855635D01*
X68255230Y-117869801D01*
X68319998Y-117875468D01*
X68320000Y-117875468D01*
X68320002Y-117875468D01*
X68376673Y-117870509D01*
X68546692Y-117855635D01*
X68766496Y-117796739D01*
X68972734Y-117700568D01*
X69159139Y-117570047D01*
X69320047Y-117409139D01*
X69450568Y-117222734D01*
X69546739Y-117016496D01*
X69605635Y-116796692D01*
X69625468Y-116570000D01*
X69605635Y-116343308D01*
X69546739Y-116123504D01*
X69450568Y-115917266D01*
X69320047Y-115730861D01*
X69320045Y-115730858D01*
X69159141Y-115569954D01*
X68972734Y-115439432D01*
X68972732Y-115439431D01*
X68766497Y-115343261D01*
X68766488Y-115343258D01*
X68546697Y-115284366D01*
X68546693Y-115284365D01*
X68546692Y-115284365D01*
X68546691Y-115284364D01*
X68546686Y-115284364D01*
X68320002Y-115264532D01*
X68319998Y-115264532D01*
X68093313Y-115284364D01*
X68093302Y-115284366D01*
X67873511Y-115343258D01*
X67873502Y-115343261D01*
X67667267Y-115439431D01*
X67667265Y-115439432D01*
X67480858Y-115569954D01*
X67319954Y-115730858D01*
X67189432Y-115917265D01*
X67189429Y-115917270D01*
X67182104Y-115932979D01*
X67135929Y-115985417D01*
X67068735Y-116004566D01*
X67001855Y-115984347D01*
X66957341Y-115932973D01*
X66950133Y-115917515D01*
X66950132Y-115917513D01*
X66899025Y-115844526D01*
X66220000Y-116523551D01*
X66220000Y-116517339D01*
X66192741Y-116415606D01*
X66140080Y-116324394D01*
X66065606Y-116249920D01*
X65974394Y-116197259D01*
X65872661Y-116170000D01*
X65866448Y-116170000D01*
X66545472Y-115490974D01*
X66472478Y-115439863D01*
X66266331Y-115343735D01*
X66266317Y-115343730D01*
X66046610Y-115284860D01*
X66046599Y-115284858D01*
X65820002Y-115265034D01*
X65819998Y-115265034D01*
X65593400Y-115284858D01*
X65593389Y-115284860D01*
X65373682Y-115343730D01*
X65373673Y-115343734D01*
X65167516Y-115439866D01*
X65167512Y-115439868D01*
X65094526Y-115490973D01*
X65094526Y-115490974D01*
X65773553Y-116170000D01*
X65767339Y-116170000D01*
X65665606Y-116197259D01*
X65574394Y-116249920D01*
X65499920Y-116324394D01*
X65447259Y-116415606D01*
X65420000Y-116517339D01*
X65420000Y-116523552D01*
X64740974Y-115844526D01*
X64740973Y-115844526D01*
X64689868Y-115917512D01*
X64689866Y-115917516D01*
X64593734Y-116123673D01*
X64593730Y-116123682D01*
X64534860Y-116343389D01*
X64534858Y-116343400D01*
X64515034Y-116569997D01*
X53010500Y-116569997D01*
X53010500Y-105154931D01*
X62004556Y-105154931D01*
X62004556Y-105154942D01*
X62024310Y-105468941D01*
X62024311Y-105468948D01*
X62083270Y-105778020D01*
X62180497Y-106077253D01*
X62180499Y-106077258D01*
X62314461Y-106361940D01*
X62314464Y-106361946D01*
X62483051Y-106627598D01*
X62483054Y-106627602D01*
X62683606Y-106870027D01*
X62683608Y-106870029D01*
X62683610Y-106870031D01*
X62791273Y-106971133D01*
X62912968Y-107085413D01*
X62912978Y-107085421D01*
X63167504Y-107270345D01*
X63167509Y-107270347D01*
X63167516Y-107270353D01*
X63443234Y-107421931D01*
X63443239Y-107421933D01*
X63443241Y-107421934D01*
X63443242Y-107421935D01*
X63735771Y-107537755D01*
X63735774Y-107537756D01*
X63998573Y-107605231D01*
X64040527Y-107616003D01*
X64106010Y-107624275D01*
X64352670Y-107655436D01*
X64352679Y-107655436D01*
X64352682Y-107655437D01*
X64352684Y-107655437D01*
X64667316Y-107655437D01*
X64667318Y-107655437D01*
X64667321Y-107655436D01*
X64667329Y-107655436D01*
X64853593Y-107631905D01*
X64979473Y-107616003D01*
X65030746Y-107602838D01*
X65100572Y-107605231D01*
X65158022Y-107644997D01*
X65184852Y-107709510D01*
X65172546Y-107778287D01*
X65157126Y-107801983D01*
X64983049Y-108012405D01*
X64814464Y-108278054D01*
X64814461Y-108278060D01*
X64680499Y-108562742D01*
X64680497Y-108562747D01*
X64583270Y-108861980D01*
X64524311Y-109171052D01*
X64524310Y-109171059D01*
X64504556Y-109485058D01*
X64504556Y-109485069D01*
X64524310Y-109799068D01*
X64524311Y-109799075D01*
X64583270Y-110108147D01*
X64680497Y-110407380D01*
X64680499Y-110407385D01*
X64814461Y-110692067D01*
X64814464Y-110692073D01*
X64983051Y-110957725D01*
X64983054Y-110957729D01*
X65183606Y-111200154D01*
X65183608Y-111200156D01*
X65412968Y-111415540D01*
X65412978Y-111415548D01*
X65667504Y-111600472D01*
X65667509Y-111600474D01*
X65667516Y-111600480D01*
X65943234Y-111752058D01*
X65943239Y-111752060D01*
X65943241Y-111752061D01*
X65943242Y-111752062D01*
X66235771Y-111867882D01*
X66235774Y-111867883D01*
X66540523Y-111946129D01*
X66540527Y-111946130D01*
X66606010Y-111954402D01*
X66852670Y-111985563D01*
X66852679Y-111985563D01*
X66852682Y-111985564D01*
X66852684Y-111985564D01*
X67167316Y-111985564D01*
X67167318Y-111985564D01*
X67167321Y-111985563D01*
X67167329Y-111985563D01*
X67353593Y-111962032D01*
X67479473Y-111946130D01*
X67784225Y-111867883D01*
X67784228Y-111867882D01*
X68076757Y-111752062D01*
X68076758Y-111752061D01*
X68076756Y-111752061D01*
X68076766Y-111752058D01*
X68352484Y-111600480D01*
X68607030Y-111415542D01*
X68836390Y-111200158D01*
X69036947Y-110957727D01*
X69205537Y-110692071D01*
X69339503Y-110407379D01*
X69436731Y-110108143D01*
X69495688Y-109799079D01*
X69515444Y-109485064D01*
X69495688Y-109171049D01*
X69436731Y-108861985D01*
X69339503Y-108562749D01*
X69205537Y-108278057D01*
X69036947Y-108012401D01*
X68862874Y-107801983D01*
X68835308Y-107737781D01*
X68846829Y-107668867D01*
X68893778Y-107617122D01*
X68961250Y-107598974D01*
X68989250Y-107602837D01*
X69040527Y-107616003D01*
X69106010Y-107624275D01*
X69352670Y-107655436D01*
X69352679Y-107655436D01*
X69352682Y-107655437D01*
X69352684Y-107655437D01*
X69667316Y-107655437D01*
X69667318Y-107655437D01*
X69667321Y-107655436D01*
X69667329Y-107655436D01*
X69853593Y-107631905D01*
X69979473Y-107616003D01*
X70284225Y-107537756D01*
X70284228Y-107537755D01*
X70576757Y-107421935D01*
X70576758Y-107421934D01*
X70576756Y-107421934D01*
X70576766Y-107421931D01*
X70852484Y-107270353D01*
X71107030Y-107085415D01*
X71336390Y-106870031D01*
X71536947Y-106627600D01*
X71705537Y-106361944D01*
X71839503Y-106077252D01*
X71936731Y-105778016D01*
X71995688Y-105468952D01*
X72015444Y-105154937D01*
X71995688Y-104840922D01*
X71936731Y-104531858D01*
X71839503Y-104232622D01*
X71705537Y-103947930D01*
X71536947Y-103682274D01*
X71536945Y-103682271D01*
X71336393Y-103439846D01*
X71336390Y-103439843D01*
X71299615Y-103405308D01*
X71264221Y-103345066D01*
X71260500Y-103314917D01*
X71260500Y-95479983D01*
X74489500Y-95479983D01*
X74489500Y-96780001D01*
X74489501Y-96780018D01*
X74500000Y-96882796D01*
X74500001Y-96882799D01*
X74555185Y-97049331D01*
X74555186Y-97049334D01*
X74647288Y-97198656D01*
X74771344Y-97322712D01*
X74920666Y-97414814D01*
X75087203Y-97469999D01*
X75189991Y-97480500D01*
X76790008Y-97480499D01*
X76892797Y-97469999D01*
X77059334Y-97414814D01*
X77208656Y-97322712D01*
X77332712Y-97198656D01*
X77424814Y-97049334D01*
X77479999Y-96882797D01*
X77490500Y-96780009D01*
X77490499Y-95479992D01*
X77479999Y-95377203D01*
X77424814Y-95210666D01*
X77332712Y-95061344D01*
X77208656Y-94937288D01*
X77059334Y-94845186D01*
X77059332Y-94845185D01*
X77053440Y-94841551D01*
X77006716Y-94789603D01*
X76995493Y-94720641D01*
X77023337Y-94656558D01*
X77030856Y-94648330D01*
X77169728Y-94509458D01*
X77294620Y-94337557D01*
X77391095Y-94148217D01*
X77456757Y-93946129D01*
X77456757Y-93946126D01*
X77467231Y-93880000D01*
X76423012Y-93880000D01*
X76455925Y-93822993D01*
X76490000Y-93695826D01*
X76490000Y-93564174D01*
X76455925Y-93437007D01*
X76423012Y-93380000D01*
X77467231Y-93380000D01*
X77456757Y-93313873D01*
X77456757Y-93313870D01*
X77391095Y-93111782D01*
X77294620Y-92922442D01*
X77169727Y-92750540D01*
X77169723Y-92750535D01*
X77019464Y-92600276D01*
X77019459Y-92600272D01*
X76847557Y-92475379D01*
X76658217Y-92378904D01*
X76456129Y-92313242D01*
X76246246Y-92280000D01*
X76240000Y-92280000D01*
X76240000Y-93196988D01*
X76182993Y-93164075D01*
X76055826Y-93130000D01*
X75924174Y-93130000D01*
X75797007Y-93164075D01*
X75740000Y-93196988D01*
X75740000Y-92280000D01*
X75733754Y-92280000D01*
X75523872Y-92313242D01*
X75523869Y-92313242D01*
X75321782Y-92378904D01*
X75132442Y-92475379D01*
X74960540Y-92600272D01*
X74960535Y-92600276D01*
X74810276Y-92750535D01*
X74810272Y-92750540D01*
X74685379Y-92922442D01*
X74588904Y-93111782D01*
X74523242Y-93313870D01*
X74523242Y-93313873D01*
X74512769Y-93380000D01*
X75556988Y-93380000D01*
X75524075Y-93437007D01*
X75490000Y-93564174D01*
X75490000Y-93695826D01*
X75524075Y-93822993D01*
X75556988Y-93880000D01*
X74512769Y-93880000D01*
X74523242Y-93946126D01*
X74523242Y-93946129D01*
X74588904Y-94148217D01*
X74685379Y-94337557D01*
X74810272Y-94509459D01*
X74810276Y-94509464D01*
X74949143Y-94648331D01*
X74982628Y-94709654D01*
X74977644Y-94779346D01*
X74935772Y-94835279D01*
X74926559Y-94841551D01*
X74771342Y-94937289D01*
X74647289Y-95061342D01*
X74555187Y-95210663D01*
X74555186Y-95210666D01*
X74500001Y-95377203D01*
X74500001Y-95377204D01*
X74500000Y-95377204D01*
X74489500Y-95479983D01*
X71260500Y-95479983D01*
X71260500Y-93515272D01*
X71260499Y-93515258D01*
X71259057Y-93504312D01*
X71230548Y-93287762D01*
X71171158Y-93066113D01*
X71083344Y-92854112D01*
X70968611Y-92655388D01*
X70968608Y-92655385D01*
X70968607Y-92655382D01*
X70828918Y-92473338D01*
X70828911Y-92473330D01*
X70666670Y-92311089D01*
X70666661Y-92311081D01*
X70484617Y-92171392D01*
X70285890Y-92056657D01*
X70285876Y-92056650D01*
X70073887Y-91968842D01*
X69852238Y-91909452D01*
X69814215Y-91904446D01*
X69624741Y-91879500D01*
X69624734Y-91879500D01*
X69395266Y-91879500D01*
X69395258Y-91879500D01*
X69178715Y-91908009D01*
X69167762Y-91909452D01*
X69074076Y-91934554D01*
X68946112Y-91968842D01*
X68734123Y-92056650D01*
X68734109Y-92056657D01*
X68535382Y-92171392D01*
X68353338Y-92311081D01*
X68191085Y-92473334D01*
X68145666Y-92532523D01*
X68089237Y-92573724D01*
X68019491Y-92577877D01*
X67959611Y-92544715D01*
X67889786Y-92474890D01*
X67717820Y-92349951D01*
X67528414Y-92253444D01*
X67528413Y-92253443D01*
X67528412Y-92253443D01*
X67326243Y-92187754D01*
X67326241Y-92187753D01*
X67326240Y-92187753D01*
X67164957Y-92162208D01*
X67116287Y-92154500D01*
X66903713Y-92154500D01*
X66855042Y-92162208D01*
X66693760Y-92187753D01*
X66491585Y-92253444D01*
X66302179Y-92349951D01*
X66130215Y-92474889D01*
X66060388Y-92544716D01*
X65999064Y-92578200D01*
X65929373Y-92573215D01*
X65874331Y-92532521D01*
X65830484Y-92475379D01*
X65828919Y-92473339D01*
X65828917Y-92473337D01*
X65828914Y-92473333D01*
X65666670Y-92311089D01*
X65666661Y-92311081D01*
X65484617Y-92171392D01*
X65285890Y-92056657D01*
X65285876Y-92056650D01*
X65073887Y-91968842D01*
X64852238Y-91909452D01*
X64814215Y-91904446D01*
X64624741Y-91879500D01*
X64624734Y-91879500D01*
X64395266Y-91879500D01*
X64395258Y-91879500D01*
X64178715Y-91908009D01*
X64167762Y-91909452D01*
X64074076Y-91934554D01*
X63946112Y-91968842D01*
X63734123Y-92056650D01*
X63734109Y-92056657D01*
X63535382Y-92171392D01*
X63353338Y-92311081D01*
X63191081Y-92473338D01*
X63051392Y-92655382D01*
X62936657Y-92854109D01*
X62936650Y-92854123D01*
X62848842Y-93066112D01*
X62789453Y-93287759D01*
X62789451Y-93287770D01*
X62759500Y-93515258D01*
X62759500Y-103314917D01*
X62739815Y-103381956D01*
X62720385Y-103405308D01*
X62683609Y-103439843D01*
X62683606Y-103439846D01*
X62483054Y-103682271D01*
X62483051Y-103682275D01*
X62314464Y-103947927D01*
X62314461Y-103947933D01*
X62180499Y-104232615D01*
X62180497Y-104232620D01*
X62083270Y-104531853D01*
X62024311Y-104840925D01*
X62024310Y-104840932D01*
X62004556Y-105154931D01*
X53010500Y-105154931D01*
X53010500Y-95479983D01*
X56489500Y-95479983D01*
X56489500Y-96780001D01*
X56489501Y-96780018D01*
X56500000Y-96882796D01*
X56500001Y-96882799D01*
X56555185Y-97049331D01*
X56555186Y-97049334D01*
X56647288Y-97198656D01*
X56771344Y-97322712D01*
X56920666Y-97414814D01*
X57087203Y-97469999D01*
X57189991Y-97480500D01*
X58790008Y-97480499D01*
X58892797Y-97469999D01*
X59059334Y-97414814D01*
X59208656Y-97322712D01*
X59332712Y-97198656D01*
X59424814Y-97049334D01*
X59479999Y-96882797D01*
X59490500Y-96780009D01*
X59490499Y-95479992D01*
X59479999Y-95377203D01*
X59424814Y-95210666D01*
X59332712Y-95061344D01*
X59208656Y-94937288D01*
X59059334Y-94845186D01*
X59059332Y-94845185D01*
X59053440Y-94841551D01*
X59006716Y-94789603D01*
X58995493Y-94720641D01*
X59023337Y-94656558D01*
X59030856Y-94648330D01*
X59169728Y-94509458D01*
X59294620Y-94337557D01*
X59391095Y-94148217D01*
X59456757Y-93946129D01*
X59456757Y-93946126D01*
X59467231Y-93880000D01*
X58423012Y-93880000D01*
X58455925Y-93822993D01*
X58490000Y-93695826D01*
X58490000Y-93564174D01*
X58455925Y-93437007D01*
X58423012Y-93380000D01*
X59467231Y-93380000D01*
X59456757Y-93313873D01*
X59456757Y-93313870D01*
X59391095Y-93111782D01*
X59294620Y-92922442D01*
X59169727Y-92750540D01*
X59169723Y-92750535D01*
X59019464Y-92600276D01*
X59019459Y-92600272D01*
X58847557Y-92475379D01*
X58658217Y-92378904D01*
X58456129Y-92313242D01*
X58246246Y-92280000D01*
X58240000Y-92280000D01*
X58240000Y-93196988D01*
X58182993Y-93164075D01*
X58055826Y-93130000D01*
X57924174Y-93130000D01*
X57797007Y-93164075D01*
X57740000Y-93196988D01*
X57740000Y-92280000D01*
X57733754Y-92280000D01*
X57523872Y-92313242D01*
X57523869Y-92313242D01*
X57321782Y-92378904D01*
X57132442Y-92475379D01*
X56960540Y-92600272D01*
X56960535Y-92600276D01*
X56810276Y-92750535D01*
X56810272Y-92750540D01*
X56685379Y-92922442D01*
X56588904Y-93111782D01*
X56523242Y-93313870D01*
X56523242Y-93313873D01*
X56512769Y-93380000D01*
X57556988Y-93380000D01*
X57524075Y-93437007D01*
X57490000Y-93564174D01*
X57490000Y-93695826D01*
X57524075Y-93822993D01*
X57556988Y-93880000D01*
X56512769Y-93880000D01*
X56523242Y-93946126D01*
X56523242Y-93946129D01*
X56588904Y-94148217D01*
X56685379Y-94337557D01*
X56810272Y-94509459D01*
X56810276Y-94509464D01*
X56949143Y-94648331D01*
X56982628Y-94709654D01*
X56977644Y-94779346D01*
X56935772Y-94835279D01*
X56926559Y-94841551D01*
X56771342Y-94937289D01*
X56647289Y-95061342D01*
X56555187Y-95210663D01*
X56555186Y-95210666D01*
X56500001Y-95377203D01*
X56500001Y-95377204D01*
X56500000Y-95377204D01*
X56489500Y-95479983D01*
X53010500Y-95479983D01*
X53010500Y-90204500D01*
X53030185Y-90137461D01*
X53082989Y-90091706D01*
X53134500Y-90080500D01*
X80885500Y-90080500D01*
X80952539Y-90100185D01*
G37*
%TD.AperFunction*%
%TD*%
M02*
