%TF.GenerationSoftware,KiCad,Pcbnew,8.0.6*%
%TF.CreationDate,2024-11-20T20:47:06-05:00*%
%TF.ProjectId,solouno_sidepanel,736f6c6f-756e-46f5-9f73-69646570616e,rev?*%
%TF.SameCoordinates,Original*%
%TF.FileFunction,Copper,L1,Top*%
%TF.FilePolarity,Positive*%
%FSLAX46Y46*%
G04 Gerber Fmt 4.6, Leading zero omitted, Abs format (unit mm)*
G04 Created by KiCad (PCBNEW 8.0.6) date 2024-11-20 20:47:06*
%MOMM*%
%LPD*%
G01*
G04 APERTURE LIST*
G04 Aperture macros list*
%AMRoundRect*
0 Rectangle with rounded corners*
0 $1 Rounding radius*
0 $2 $3 $4 $5 $6 $7 $8 $9 X,Y pos of 4 corners*
0 Add a 4 corners polygon primitive as box body*
4,1,4,$2,$3,$4,$5,$6,$7,$8,$9,$2,$3,0*
0 Add four circle primitives for the rounded corners*
1,1,$1+$1,$2,$3*
1,1,$1+$1,$4,$5*
1,1,$1+$1,$6,$7*
1,1,$1+$1,$8,$9*
0 Add four rect primitives between the rounded corners*
20,1,$1+$1,$2,$3,$4,$5,0*
20,1,$1+$1,$4,$5,$6,$7,0*
20,1,$1+$1,$6,$7,$8,$9,0*
20,1,$1+$1,$8,$9,$2,$3,0*%
G04 Aperture macros list end*
%TA.AperFunction,ComponentPad*%
%ADD10RoundRect,0.250000X0.600000X0.750000X-0.600000X0.750000X-0.600000X-0.750000X0.600000X-0.750000X0*%
%TD*%
%TA.AperFunction,ComponentPad*%
%ADD11O,1.700000X2.000000*%
%TD*%
%TA.AperFunction,SMDPad,CuDef*%
%ADD12R,1.500000X1.500000*%
%TD*%
%TA.AperFunction,ComponentPad*%
%ADD13RoundRect,0.250000X-0.600000X-0.725000X0.600000X-0.725000X0.600000X0.725000X-0.600000X0.725000X0*%
%TD*%
%TA.AperFunction,ComponentPad*%
%ADD14O,1.700000X1.950000*%
%TD*%
%TA.AperFunction,ComponentPad*%
%ADD15C,2.800000*%
%TD*%
%TA.AperFunction,ComponentPad*%
%ADD16RoundRect,0.250000X0.750000X-0.600000X0.750000X0.600000X-0.750000X0.600000X-0.750000X-0.600000X0*%
%TD*%
%TA.AperFunction,ComponentPad*%
%ADD17O,2.000000X1.700000*%
%TD*%
%TA.AperFunction,ComponentPad*%
%ADD18C,4.000000*%
%TD*%
%TA.AperFunction,Conductor*%
%ADD19C,6.000000*%
%TD*%
%TA.AperFunction,Conductor*%
%ADD20C,2.000000*%
%TD*%
%TA.AperFunction,Conductor*%
%ADD21C,0.500000*%
%TD*%
G04 APERTURE END LIST*
D10*
%TO.P,CN1,1,Pin_1*%
%TO.N,Net-(CN1-Pin_1)*%
X190880000Y-84830000D03*
D11*
%TO.P,CN1,2,Pin_2*%
%TO.N,Net-(CN1-Pin_2)*%
X188380000Y-84830000D03*
%TD*%
D12*
%TO.P,T3,1,1*%
%TO.N,Net-(A1-Pad3)*%
X186530000Y-124440000D03*
%TD*%
%TO.P,T2,1,1*%
%TO.N,Net-(A1-Pad2)*%
X189820000Y-124450000D03*
%TD*%
D13*
%TO.P,E1,1,Pin_1*%
%TO.N,Net-(E1-Pin_1)*%
X184460000Y-101340000D03*
D14*
%TO.P,E1,2,Pin_2*%
%TO.N,Net-(E1-Pin_2)*%
X186960000Y-101340000D03*
%TO.P,E1,3,Pin_3*%
%TO.N,Net-(E1-Pin_3)*%
X189460000Y-101340000D03*
%TO.P,E1,4,Pin_4*%
%TO.N,Net-(E1-Pin_4)*%
X191960000Y-101340000D03*
%TO.P,E1,5,Pin_5*%
%TO.N,Net-(E1-Pin_5)*%
X194460000Y-101340000D03*
%TD*%
D12*
%TO.P,T1,1,1*%
%TO.N,Net-(A1-Pad1)*%
X193040000Y-124580000D03*
%TD*%
D15*
%TO.P,S1,1,1*%
%TO.N,+28V*%
X184380000Y-76770000D03*
%TD*%
%TO.P,S2,1,1*%
%TO.N,Net-(PW2-Pin_1)*%
X194690000Y-76770000D03*
%TD*%
D16*
%TO.P,PW1,1,Pin_1*%
%TO.N,+28V*%
X180770000Y-70100000D03*
D17*
%TO.P,PW1,2,Pin_2*%
%TO.N,GND*%
X180770000Y-67600000D03*
%TD*%
D18*
%TO.P,A1,1*%
%TO.N,Net-(A1-Pad1)*%
X192210000Y-112674937D03*
%TO.P,A1,2*%
%TO.N,Net-(A1-Pad2)*%
X189710000Y-117005064D03*
%TO.P,A1,3*%
%TO.N,Net-(A1-Pad3)*%
X187210000Y-112674937D03*
%TD*%
D13*
%TO.P,E2,1,Pin_1*%
%TO.N,Net-(E1-Pin_1)*%
X184430000Y-97010000D03*
D14*
%TO.P,E2,2,Pin_2*%
%TO.N,Net-(E1-Pin_2)*%
X186930000Y-97010000D03*
%TO.P,E2,3,Pin_3*%
%TO.N,Net-(E1-Pin_3)*%
X189430000Y-97010000D03*
%TO.P,E2,4,Pin_4*%
%TO.N,Net-(E1-Pin_4)*%
X191930000Y-97010000D03*
%TO.P,E2,5,Pin_5*%
%TO.N,Net-(E1-Pin_5)*%
X194430000Y-97010000D03*
%TD*%
D16*
%TO.P,PW2,1,Pin_1*%
%TO.N,Net-(PW2-Pin_1)*%
X198770000Y-70100000D03*
D17*
%TO.P,PW2,2,Pin_2*%
%TO.N,GND*%
X198770000Y-67600000D03*
%TD*%
D10*
%TO.P,CN2,1,Pin_1*%
%TO.N,Net-(CN1-Pin_1)*%
X190910000Y-89150000D03*
D11*
%TO.P,CN2,2,Pin_2*%
%TO.N,Net-(CN1-Pin_2)*%
X188410000Y-89150000D03*
%TD*%
D19*
%TO.N,Net-(PW2-Pin_1)*%
X198770000Y-72690000D02*
X198770000Y-71650000D01*
X194690000Y-76770000D02*
X198770000Y-72690000D01*
D20*
%TO.N,Net-(CN1-Pin_1)*%
X190880000Y-84830000D02*
X190880000Y-89120000D01*
X190880000Y-89120000D02*
X190910000Y-89150000D01*
%TO.N,Net-(CN1-Pin_2)*%
X188380000Y-85080000D02*
X188410000Y-85110000D01*
X188380000Y-84830000D02*
X188380000Y-85080000D01*
X188410000Y-85110000D02*
X188410000Y-89150000D01*
%TO.N,Net-(E1-Pin_5)*%
X194430000Y-101310000D02*
X194460000Y-101340000D01*
X194430000Y-97010000D02*
X194430000Y-101310000D01*
%TO.N,Net-(E1-Pin_4)*%
X191930000Y-97010000D02*
X191930000Y-101310000D01*
X191930000Y-101310000D02*
X191960000Y-101340000D01*
%TO.N,Net-(E1-Pin_1)*%
X184430000Y-97010000D02*
X184430000Y-101310000D01*
X184430000Y-101310000D02*
X184460000Y-101340000D01*
%TO.N,Net-(E1-Pin_3)*%
X189430000Y-97010000D02*
X189430000Y-101310000D01*
X189430000Y-101310000D02*
X189460000Y-101340000D01*
%TO.N,Net-(E1-Pin_2)*%
X186930000Y-101310000D02*
X186960000Y-101340000D01*
X186930000Y-97010000D02*
X186930000Y-101310000D01*
%TO.N,Net-(A1-Pad2)*%
X189710000Y-117005064D02*
X189710000Y-124340000D01*
X189710000Y-124340000D02*
X189820000Y-124450000D01*
D21*
X189820000Y-124450000D02*
X189580000Y-124690000D01*
D20*
%TO.N,Net-(A1-Pad3)*%
X185210000Y-114674937D02*
X187210000Y-112674937D01*
X186530000Y-124440000D02*
X185210000Y-123120000D01*
X185210000Y-123120000D02*
X185210000Y-114674937D01*
%TO.N,Net-(A1-Pad1)*%
X193040000Y-113504937D02*
X192210000Y-112674937D01*
X193040000Y-124580000D02*
X193040000Y-113504937D01*
%TD*%
%TA.AperFunction,Conductor*%
%TO.N,+28V*%
G36*
X203732539Y-64070185D02*
G01*
X203778294Y-64122989D01*
X203789500Y-64174500D01*
X203789500Y-81842404D01*
X203769815Y-81909443D01*
X203717011Y-81955198D01*
X203664775Y-81966402D01*
X175913775Y-81804171D01*
X175846852Y-81784095D01*
X175801406Y-81731024D01*
X175790500Y-81680173D01*
X175790500Y-76769998D01*
X182475147Y-76769998D01*
X182475147Y-76770001D01*
X182494536Y-77041090D01*
X182494537Y-77041097D01*
X182552305Y-77306654D01*
X182647285Y-77561306D01*
X182647287Y-77561310D01*
X182777532Y-77799835D01*
X182777537Y-77799843D01*
X182871321Y-77925123D01*
X182871322Y-77925124D01*
X183740690Y-77055756D01*
X183759668Y-77101574D01*
X183836274Y-77216224D01*
X183933776Y-77313726D01*
X184048426Y-77390332D01*
X184094242Y-77409309D01*
X183224874Y-78278676D01*
X183350163Y-78372466D01*
X183350164Y-78372467D01*
X183588689Y-78502712D01*
X183588693Y-78502714D01*
X183843345Y-78597694D01*
X184108902Y-78655462D01*
X184108909Y-78655463D01*
X184379999Y-78674853D01*
X184380001Y-78674853D01*
X184651090Y-78655463D01*
X184651097Y-78655462D01*
X184916654Y-78597694D01*
X185171306Y-78502714D01*
X185171310Y-78502712D01*
X185409844Y-78372462D01*
X185535123Y-78278677D01*
X185535124Y-78278676D01*
X184665757Y-77409309D01*
X184711574Y-77390332D01*
X184826224Y-77313726D01*
X184923726Y-77216224D01*
X185000332Y-77101574D01*
X185019309Y-77055757D01*
X185888676Y-77925124D01*
X185888677Y-77925123D01*
X185982462Y-77799844D01*
X186112712Y-77561310D01*
X186112714Y-77561306D01*
X186207694Y-77306654D01*
X186265462Y-77041097D01*
X186265463Y-77041090D01*
X186284853Y-76770001D01*
X186284853Y-76769998D01*
X186272553Y-76598034D01*
X191189500Y-76598034D01*
X191189500Y-76941965D01*
X191223211Y-77284246D01*
X191290304Y-77621557D01*
X191290307Y-77621568D01*
X191390150Y-77950706D01*
X191521770Y-78268464D01*
X191521772Y-78268469D01*
X191683897Y-78571782D01*
X191683908Y-78571800D01*
X191874974Y-78857751D01*
X191874984Y-78857765D01*
X192093176Y-79123632D01*
X192336367Y-79366823D01*
X192336372Y-79366827D01*
X192336373Y-79366828D01*
X192602240Y-79585020D01*
X192743374Y-79679322D01*
X192888199Y-79776091D01*
X192888205Y-79776094D01*
X192888213Y-79776100D01*
X192888217Y-79776102D01*
X193191530Y-79938227D01*
X193191532Y-79938227D01*
X193191538Y-79938231D01*
X193509295Y-80069850D01*
X193838422Y-80169690D01*
X193838428Y-80169691D01*
X193838431Y-80169692D01*
X193838442Y-80169695D01*
X194051390Y-80212051D01*
X194175750Y-80236788D01*
X194518031Y-80270500D01*
X194518034Y-80270500D01*
X194861966Y-80270500D01*
X194861969Y-80270500D01*
X195204250Y-80236788D01*
X195370062Y-80203806D01*
X195541557Y-80169695D01*
X195541568Y-80169692D01*
X195541568Y-80169691D01*
X195541578Y-80169690D01*
X195870705Y-80069850D01*
X196188462Y-79938231D01*
X196491787Y-79776100D01*
X196777760Y-79585020D01*
X197043627Y-79366828D01*
X201119290Y-75291162D01*
X201119312Y-75291143D01*
X201366823Y-75043632D01*
X201366828Y-75043627D01*
X201497798Y-74884039D01*
X201585019Y-74777761D01*
X201776100Y-74491788D01*
X201938231Y-74188462D01*
X202069850Y-73870705D01*
X202169690Y-73541578D01*
X202236789Y-73204250D01*
X202270500Y-72861969D01*
X202270500Y-71478031D01*
X202236789Y-71135750D01*
X202169690Y-70798422D01*
X202069850Y-70469295D01*
X201938231Y-70151538D01*
X201875498Y-70034174D01*
X201776106Y-69848224D01*
X201776105Y-69848222D01*
X201776100Y-69848213D01*
X201585019Y-69562240D01*
X201366828Y-69296373D01*
X201366827Y-69296372D01*
X201366823Y-69296367D01*
X201123632Y-69053176D01*
X200857765Y-68834985D01*
X200857764Y-68834984D01*
X200857760Y-68834981D01*
X200571787Y-68643900D01*
X200571782Y-68643897D01*
X200571775Y-68643893D01*
X200268469Y-68481772D01*
X200268464Y-68481770D01*
X200263674Y-68479786D01*
X200159500Y-68436635D01*
X200105098Y-68392795D01*
X200083033Y-68326501D01*
X200096469Y-68265780D01*
X200096470Y-68265779D01*
X200171557Y-68118412D01*
X200237246Y-67916243D01*
X200270500Y-67706287D01*
X200270500Y-67493713D01*
X200237246Y-67283757D01*
X200171557Y-67081588D01*
X200075051Y-66892184D01*
X200075049Y-66892181D01*
X200075048Y-66892179D01*
X199950109Y-66720213D01*
X199799786Y-66569890D01*
X199627820Y-66444951D01*
X199438414Y-66348444D01*
X199438413Y-66348443D01*
X199438412Y-66348443D01*
X199236243Y-66282754D01*
X199236241Y-66282753D01*
X199236240Y-66282753D01*
X199074957Y-66257208D01*
X199026287Y-66249500D01*
X198513713Y-66249500D01*
X198465042Y-66257208D01*
X198303760Y-66282753D01*
X198101585Y-66348444D01*
X197912179Y-66444951D01*
X197740213Y-66569890D01*
X197589890Y-66720213D01*
X197464951Y-66892179D01*
X197368444Y-67081585D01*
X197302753Y-67283760D01*
X197269500Y-67493713D01*
X197269500Y-67706287D01*
X197302754Y-67916243D01*
X197368443Y-68118412D01*
X197443531Y-68265780D01*
X197456427Y-68334448D01*
X197430151Y-68399188D01*
X197380500Y-68436635D01*
X197380498Y-68436636D01*
X197271538Y-68481769D01*
X197271535Y-68481770D01*
X197271529Y-68481773D01*
X196968224Y-68643893D01*
X196968206Y-68643904D01*
X196682248Y-68834975D01*
X196682234Y-68834985D01*
X196416367Y-69053176D01*
X196173176Y-69296367D01*
X195954985Y-69562234D01*
X195954975Y-69562248D01*
X195763904Y-69848206D01*
X195763893Y-69848224D01*
X195601772Y-70151530D01*
X195601770Y-70151535D01*
X195470150Y-70469293D01*
X195370308Y-70798427D01*
X195326410Y-71019119D01*
X195303211Y-71135750D01*
X195299848Y-71169894D01*
X195273685Y-71234681D01*
X195264126Y-71245418D01*
X192093176Y-74416367D01*
X191874984Y-74682234D01*
X191874974Y-74682248D01*
X191683908Y-74968199D01*
X191683897Y-74968217D01*
X191521772Y-75271530D01*
X191521770Y-75271535D01*
X191390150Y-75589293D01*
X191290307Y-75918431D01*
X191290304Y-75918442D01*
X191223211Y-76255753D01*
X191189500Y-76598034D01*
X186272553Y-76598034D01*
X186265463Y-76498909D01*
X186265462Y-76498902D01*
X186207694Y-76233345D01*
X186112714Y-75978693D01*
X186112712Y-75978689D01*
X185982467Y-75740164D01*
X185982466Y-75740163D01*
X185888676Y-75614874D01*
X185019309Y-76484242D01*
X185000332Y-76438426D01*
X184923726Y-76323776D01*
X184826224Y-76226274D01*
X184711574Y-76149668D01*
X184665757Y-76130690D01*
X185535124Y-75261322D01*
X185535123Y-75261321D01*
X185409843Y-75167537D01*
X185409835Y-75167532D01*
X185171310Y-75037287D01*
X185171306Y-75037285D01*
X184916654Y-74942305D01*
X184651097Y-74884537D01*
X184651090Y-74884536D01*
X184380001Y-74865147D01*
X184379999Y-74865147D01*
X184108909Y-74884536D01*
X184108902Y-74884537D01*
X183843345Y-74942305D01*
X183588693Y-75037285D01*
X183588689Y-75037287D01*
X183350164Y-75167532D01*
X183350156Y-75167537D01*
X183224875Y-75261321D01*
X183224874Y-75261322D01*
X184094242Y-76130690D01*
X184048426Y-76149668D01*
X183933776Y-76226274D01*
X183836274Y-76323776D01*
X183759668Y-76438426D01*
X183740690Y-76484242D01*
X182871322Y-75614874D01*
X182871321Y-75614875D01*
X182777537Y-75740156D01*
X182777532Y-75740164D01*
X182647287Y-75978689D01*
X182647285Y-75978693D01*
X182552305Y-76233345D01*
X182494537Y-76498902D01*
X182494536Y-76498909D01*
X182475147Y-76769998D01*
X175790500Y-76769998D01*
X175790500Y-67493713D01*
X179269500Y-67493713D01*
X179269500Y-67706286D01*
X179302753Y-67916239D01*
X179368444Y-68118414D01*
X179464951Y-68307820D01*
X179589890Y-68479786D01*
X179729068Y-68618964D01*
X179762553Y-68680287D01*
X179757569Y-68749979D01*
X179715697Y-68805912D01*
X179706484Y-68812183D01*
X179551659Y-68907680D01*
X179551655Y-68907683D01*
X179427684Y-69031654D01*
X179335643Y-69180875D01*
X179335641Y-69180880D01*
X179280494Y-69347302D01*
X179280493Y-69347309D01*
X179270000Y-69450013D01*
X179270000Y-69850000D01*
X180336988Y-69850000D01*
X180304075Y-69907007D01*
X180270000Y-70034174D01*
X180270000Y-70165826D01*
X180304075Y-70292993D01*
X180336988Y-70350000D01*
X179270001Y-70350000D01*
X179270001Y-70749986D01*
X179280494Y-70852697D01*
X179335641Y-71019119D01*
X179335643Y-71019124D01*
X179427684Y-71168345D01*
X179551654Y-71292315D01*
X179700875Y-71384356D01*
X179700880Y-71384358D01*
X179867302Y-71439505D01*
X179867309Y-71439506D01*
X179970019Y-71449999D01*
X180519999Y-71449999D01*
X180520000Y-71449998D01*
X180520000Y-70533012D01*
X180577007Y-70565925D01*
X180704174Y-70600000D01*
X180835826Y-70600000D01*
X180962993Y-70565925D01*
X181020000Y-70533012D01*
X181020000Y-71449999D01*
X181569972Y-71449999D01*
X181569986Y-71449998D01*
X181672697Y-71439505D01*
X181839119Y-71384358D01*
X181839124Y-71384356D01*
X181988345Y-71292315D01*
X182112315Y-71168345D01*
X182204356Y-71019124D01*
X182204358Y-71019119D01*
X182259505Y-70852697D01*
X182259506Y-70852690D01*
X182269999Y-70749986D01*
X182270000Y-70749973D01*
X182270000Y-70350000D01*
X181203012Y-70350000D01*
X181235925Y-70292993D01*
X181270000Y-70165826D01*
X181270000Y-70034174D01*
X181235925Y-69907007D01*
X181203012Y-69850000D01*
X182269999Y-69850000D01*
X182269999Y-69450028D01*
X182269998Y-69450013D01*
X182259505Y-69347302D01*
X182204358Y-69180880D01*
X182204356Y-69180875D01*
X182112315Y-69031654D01*
X181988345Y-68907684D01*
X181833515Y-68812184D01*
X181786791Y-68760236D01*
X181775568Y-68691273D01*
X181803412Y-68627191D01*
X181810909Y-68618986D01*
X181950104Y-68479792D01*
X181981459Y-68436636D01*
X182075048Y-68307820D01*
X182075047Y-68307820D01*
X182075051Y-68307816D01*
X182171557Y-68118412D01*
X182237246Y-67916243D01*
X182270500Y-67706287D01*
X182270500Y-67493713D01*
X182237246Y-67283757D01*
X182171557Y-67081588D01*
X182075051Y-66892184D01*
X182075049Y-66892181D01*
X182075048Y-66892179D01*
X181950109Y-66720213D01*
X181799786Y-66569890D01*
X181627820Y-66444951D01*
X181438414Y-66348444D01*
X181438413Y-66348443D01*
X181438412Y-66348443D01*
X181236243Y-66282754D01*
X181236241Y-66282753D01*
X181236240Y-66282753D01*
X181074957Y-66257208D01*
X181026287Y-66249500D01*
X180513713Y-66249500D01*
X180465042Y-66257208D01*
X180303760Y-66282753D01*
X180101585Y-66348444D01*
X179912179Y-66444951D01*
X179740213Y-66569890D01*
X179589890Y-66720213D01*
X179464951Y-66892179D01*
X179368444Y-67081585D01*
X179302753Y-67283760D01*
X179269500Y-67493713D01*
X175790500Y-67493713D01*
X175790500Y-64174500D01*
X175810185Y-64107461D01*
X175862989Y-64061706D01*
X175914500Y-64050500D01*
X203665500Y-64050500D01*
X203732539Y-64070185D01*
G37*
%TD.AperFunction*%
%TD*%
M02*
