%TF.GenerationSoftware,KiCad,Pcbnew,8.0.6*%
%TF.CreationDate,2024-11-20T19:23:55-05:00*%
%TF.ProjectId,solouno_sidepanel,736f6c6f-756e-46f5-9f73-69646570616e,rev?*%
%TF.SameCoordinates,Original*%
%TF.FileFunction,Legend,Bot*%
%TF.FilePolarity,Positive*%
%FSLAX46Y46*%
G04 Gerber Fmt 4.6, Leading zero omitted, Abs format (unit mm)*
G04 Created by KiCad (PCBNEW 8.0.6) date 2024-11-20 19:23:55*
%MOMM*%
%LPD*%
G01*
G04 APERTURE LIST*
%ADD10C,0.153000*%
%ADD11C,0.120000*%
G04 APERTURE END LIST*
D10*
X71465057Y-128579663D02*
X71941247Y-128579663D01*
X71941247Y-128579663D02*
X71988866Y-129055853D01*
X71988866Y-129055853D02*
X71941247Y-129008234D01*
X71941247Y-129008234D02*
X71846009Y-128960615D01*
X71846009Y-128960615D02*
X71607914Y-128960615D01*
X71607914Y-128960615D02*
X71512676Y-129008234D01*
X71512676Y-129008234D02*
X71465057Y-129055853D01*
X71465057Y-129055853D02*
X71417438Y-129151091D01*
X71417438Y-129151091D02*
X71417438Y-129389186D01*
X71417438Y-129389186D02*
X71465057Y-129484424D01*
X71465057Y-129484424D02*
X71512676Y-129532044D01*
X71512676Y-129532044D02*
X71607914Y-129579663D01*
X71607914Y-129579663D02*
X71846009Y-129579663D01*
X71846009Y-129579663D02*
X71941247Y-129532044D01*
X71941247Y-129532044D02*
X71988866Y-129484424D01*
X69242676Y-128992996D02*
X69242676Y-129659663D01*
X69480771Y-128612044D02*
X69718866Y-129326329D01*
X69718866Y-129326329D02*
X69099819Y-129326329D01*
X64668866Y-128744901D02*
X64621247Y-128697282D01*
X64621247Y-128697282D02*
X64526009Y-128649663D01*
X64526009Y-128649663D02*
X64287914Y-128649663D01*
X64287914Y-128649663D02*
X64192676Y-128697282D01*
X64192676Y-128697282D02*
X64145057Y-128744901D01*
X64145057Y-128744901D02*
X64097438Y-128840139D01*
X64097438Y-128840139D02*
X64097438Y-128935377D01*
X64097438Y-128935377D02*
X64145057Y-129078234D01*
X64145057Y-129078234D02*
X64716485Y-129649663D01*
X64716485Y-129649663D02*
X64097438Y-129649663D01*
X64546485Y-96839663D02*
X63927438Y-96839663D01*
X63927438Y-96839663D02*
X64260771Y-97220615D01*
X64260771Y-97220615D02*
X64117914Y-97220615D01*
X64117914Y-97220615D02*
X64022676Y-97268234D01*
X64022676Y-97268234D02*
X63975057Y-97315853D01*
X63975057Y-97315853D02*
X63927438Y-97411091D01*
X63927438Y-97411091D02*
X63927438Y-97649186D01*
X63927438Y-97649186D02*
X63975057Y-97744424D01*
X63975057Y-97744424D02*
X64022676Y-97792044D01*
X64022676Y-97792044D02*
X64117914Y-97839663D01*
X64117914Y-97839663D02*
X64403628Y-97839663D01*
X64403628Y-97839663D02*
X64498866Y-97792044D01*
X64498866Y-97792044D02*
X64546485Y-97744424D01*
X69167438Y-97829663D02*
X69738866Y-97829663D01*
X69453152Y-97829663D02*
X69453152Y-96829663D01*
X69453152Y-96829663D02*
X69548390Y-96972520D01*
X69548390Y-96972520D02*
X69643628Y-97067758D01*
X69643628Y-97067758D02*
X69738866Y-97115377D01*
X67118866Y-96894901D02*
X67071247Y-96847282D01*
X67071247Y-96847282D02*
X66976009Y-96799663D01*
X66976009Y-96799663D02*
X66737914Y-96799663D01*
X66737914Y-96799663D02*
X66642676Y-96847282D01*
X66642676Y-96847282D02*
X66595057Y-96894901D01*
X66595057Y-96894901D02*
X66547438Y-96990139D01*
X66547438Y-96990139D02*
X66547438Y-97085377D01*
X66547438Y-97085377D02*
X66595057Y-97228234D01*
X66595057Y-97228234D02*
X67166485Y-97799663D01*
X67166485Y-97799663D02*
X66547438Y-97799663D01*
X61477438Y-129589663D02*
X62048866Y-129589663D01*
X61763152Y-129589663D02*
X61763152Y-128589663D01*
X61763152Y-128589663D02*
X61858390Y-128732520D01*
X61858390Y-128732520D02*
X61953628Y-128827758D01*
X61953628Y-128827758D02*
X62048866Y-128875377D01*
X67146485Y-128669663D02*
X66527438Y-128669663D01*
X66527438Y-128669663D02*
X66860771Y-129050615D01*
X66860771Y-129050615D02*
X66717914Y-129050615D01*
X66717914Y-129050615D02*
X66622676Y-129098234D01*
X66622676Y-129098234D02*
X66575057Y-129145853D01*
X66575057Y-129145853D02*
X66527438Y-129241091D01*
X66527438Y-129241091D02*
X66527438Y-129479186D01*
X66527438Y-129479186D02*
X66575057Y-129574424D01*
X66575057Y-129574424D02*
X66622676Y-129622044D01*
X66622676Y-129622044D02*
X66717914Y-129669663D01*
X66717914Y-129669663D02*
X67003628Y-129669663D01*
X67003628Y-129669663D02*
X67098866Y-129622044D01*
X67098866Y-129622044D02*
X67146485Y-129574424D01*
X67724285Y-90998948D02*
X67248095Y-90998948D01*
X67819523Y-91284663D02*
X67486190Y-90284663D01*
X67486190Y-90284663D02*
X67152857Y-91284663D01*
X66867142Y-90379901D02*
X66819523Y-90332282D01*
X66819523Y-90332282D02*
X66724285Y-90284663D01*
X66724285Y-90284663D02*
X66486190Y-90284663D01*
X66486190Y-90284663D02*
X66390952Y-90332282D01*
X66390952Y-90332282D02*
X66343333Y-90379901D01*
X66343333Y-90379901D02*
X66295714Y-90475139D01*
X66295714Y-90475139D02*
X66295714Y-90570377D01*
X66295714Y-90570377D02*
X66343333Y-90713234D01*
X66343333Y-90713234D02*
X66914761Y-91284663D01*
X66914761Y-91284663D02*
X66295714Y-91284663D01*
X76900475Y-132450853D02*
X76567142Y-132450853D01*
X76424285Y-132974663D02*
X76900475Y-132974663D01*
X76900475Y-132974663D02*
X76900475Y-131974663D01*
X76900475Y-131974663D02*
X76424285Y-131974663D01*
X76043332Y-132069901D02*
X75995713Y-132022282D01*
X75995713Y-132022282D02*
X75900475Y-131974663D01*
X75900475Y-131974663D02*
X75662380Y-131974663D01*
X75662380Y-131974663D02*
X75567142Y-132022282D01*
X75567142Y-132022282D02*
X75519523Y-132069901D01*
X75519523Y-132069901D02*
X75471904Y-132165139D01*
X75471904Y-132165139D02*
X75471904Y-132260377D01*
X75471904Y-132260377D02*
X75519523Y-132403234D01*
X75519523Y-132403234D02*
X76090951Y-132974663D01*
X76090951Y-132974663D02*
X75471904Y-132974663D01*
X77339523Y-100684663D02*
X77339523Y-99684663D01*
X77339523Y-99684663D02*
X76958571Y-99684663D01*
X76958571Y-99684663D02*
X76863333Y-99732282D01*
X76863333Y-99732282D02*
X76815714Y-99779901D01*
X76815714Y-99779901D02*
X76768095Y-99875139D01*
X76768095Y-99875139D02*
X76768095Y-100017996D01*
X76768095Y-100017996D02*
X76815714Y-100113234D01*
X76815714Y-100113234D02*
X76863333Y-100160853D01*
X76863333Y-100160853D02*
X76958571Y-100208472D01*
X76958571Y-100208472D02*
X77339523Y-100208472D01*
X76434761Y-99684663D02*
X76196666Y-100684663D01*
X76196666Y-100684663D02*
X76006190Y-99970377D01*
X76006190Y-99970377D02*
X75815714Y-100684663D01*
X75815714Y-100684663D02*
X75577619Y-99684663D01*
X75244285Y-99779901D02*
X75196666Y-99732282D01*
X75196666Y-99732282D02*
X75101428Y-99684663D01*
X75101428Y-99684663D02*
X74863333Y-99684663D01*
X74863333Y-99684663D02*
X74768095Y-99732282D01*
X74768095Y-99732282D02*
X74720476Y-99779901D01*
X74720476Y-99779901D02*
X74672857Y-99875139D01*
X74672857Y-99875139D02*
X74672857Y-99970377D01*
X74672857Y-99970377D02*
X74720476Y-100113234D01*
X74720476Y-100113234D02*
X75291904Y-100684663D01*
X75291904Y-100684663D02*
X74672857Y-100684663D01*
X61670476Y-139099424D02*
X61718095Y-139147044D01*
X61718095Y-139147044D02*
X61860952Y-139194663D01*
X61860952Y-139194663D02*
X61956190Y-139194663D01*
X61956190Y-139194663D02*
X62099047Y-139147044D01*
X62099047Y-139147044D02*
X62194285Y-139051805D01*
X62194285Y-139051805D02*
X62241904Y-138956567D01*
X62241904Y-138956567D02*
X62289523Y-138766091D01*
X62289523Y-138766091D02*
X62289523Y-138623234D01*
X62289523Y-138623234D02*
X62241904Y-138432758D01*
X62241904Y-138432758D02*
X62194285Y-138337520D01*
X62194285Y-138337520D02*
X62099047Y-138242282D01*
X62099047Y-138242282D02*
X61956190Y-138194663D01*
X61956190Y-138194663D02*
X61860952Y-138194663D01*
X61860952Y-138194663D02*
X61718095Y-138242282D01*
X61718095Y-138242282D02*
X61670476Y-138289901D01*
X61241904Y-139194663D02*
X61241904Y-138194663D01*
X61241904Y-138194663D02*
X60670476Y-139194663D01*
X60670476Y-139194663D02*
X60670476Y-138194663D01*
X60241904Y-138289901D02*
X60194285Y-138242282D01*
X60194285Y-138242282D02*
X60099047Y-138194663D01*
X60099047Y-138194663D02*
X59860952Y-138194663D01*
X59860952Y-138194663D02*
X59765714Y-138242282D01*
X59765714Y-138242282D02*
X59718095Y-138289901D01*
X59718095Y-138289901D02*
X59670476Y-138385139D01*
X59670476Y-138385139D02*
X59670476Y-138480377D01*
X59670476Y-138480377D02*
X59718095Y-138623234D01*
X59718095Y-138623234D02*
X60289523Y-139194663D01*
X60289523Y-139194663D02*
X59670476Y-139194663D01*
D11*
%TO.C,A2*%
X61900000Y-91920000D02*
X61900000Y-95940000D01*
X61900000Y-93630000D02*
X62400000Y-93630000D01*
X61900000Y-95940000D02*
X72120000Y-95940000D01*
X62400000Y-92420000D02*
X71620000Y-92420000D01*
X62400000Y-93630000D02*
X62400000Y-92420000D01*
X62900000Y-94440000D02*
X61900000Y-94440000D01*
X62900000Y-95940000D02*
X62900000Y-94440000D01*
X69920000Y-96240000D02*
X72420000Y-96240000D01*
X71120000Y-94440000D02*
X72120000Y-94440000D01*
X71120000Y-95940000D02*
X71120000Y-94440000D01*
X71620000Y-92420000D02*
X71620000Y-93630000D01*
X71620000Y-93630000D02*
X72120000Y-93630000D01*
X72120000Y-91920000D02*
X61900000Y-91920000D01*
X72120000Y-95940000D02*
X72120000Y-91920000D01*
X72420000Y-96240000D02*
X72420000Y-93740000D01*
%TO.C,E2*%
X59100000Y-130210000D02*
X59100000Y-132710000D01*
X59400000Y-130510000D02*
X59400000Y-134530000D01*
X59400000Y-134530000D02*
X74620000Y-134530000D01*
X59900000Y-132820000D02*
X59400000Y-132820000D01*
X59900000Y-134030000D02*
X59900000Y-132820000D01*
X60400000Y-130510000D02*
X60400000Y-132010000D01*
X60400000Y-132010000D02*
X59400000Y-132010000D01*
X61600000Y-130210000D02*
X59100000Y-130210000D01*
X73620000Y-130510000D02*
X73620000Y-132010000D01*
X73620000Y-132010000D02*
X74620000Y-132010000D01*
X74120000Y-132820000D02*
X74120000Y-134030000D01*
X74120000Y-134030000D02*
X59900000Y-134030000D01*
X74620000Y-130510000D02*
X59400000Y-130510000D01*
X74620000Y-132820000D02*
X74120000Y-132820000D01*
X74620000Y-134530000D02*
X74620000Y-130510000D01*
%TO.C,PW2*%
X73380000Y-96540000D02*
X73380000Y-99040000D01*
X73380000Y-99040000D02*
X75880000Y-99040000D01*
X73680000Y-91020000D02*
X73680000Y-98740000D01*
X73680000Y-92020000D02*
X75180000Y-92020000D01*
X73680000Y-97740000D02*
X75180000Y-97740000D01*
X73680000Y-98740000D02*
X77700000Y-98740000D01*
X75180000Y-92020000D02*
X75180000Y-91020000D01*
X75180000Y-97740000D02*
X75180000Y-98740000D01*
X75990000Y-91020000D02*
X75990000Y-91520000D01*
X75990000Y-91520000D02*
X77200000Y-91520000D01*
X75990000Y-98240000D02*
X75990000Y-98740000D01*
X77200000Y-91520000D02*
X77200000Y-98240000D01*
X77200000Y-98240000D02*
X75990000Y-98240000D01*
X77700000Y-91020000D02*
X73680000Y-91020000D01*
X77700000Y-98740000D02*
X77700000Y-91020000D01*
%TO.C,CN2*%
X63150000Y-136490000D02*
X63150000Y-140510000D01*
X63150000Y-138200000D02*
X63650000Y-138200000D01*
X63150000Y-140510000D02*
X70870000Y-140510000D01*
X63650000Y-136990000D02*
X70370000Y-136990000D01*
X63650000Y-138200000D02*
X63650000Y-136990000D01*
X64150000Y-139010000D02*
X63150000Y-139010000D01*
X64150000Y-140510000D02*
X64150000Y-139010000D01*
X68670000Y-140810000D02*
X71170000Y-140810000D01*
X69870000Y-139010000D02*
X70870000Y-139010000D01*
X69870000Y-140510000D02*
X69870000Y-139010000D01*
X70370000Y-136990000D02*
X70370000Y-138200000D01*
X70370000Y-138200000D02*
X70870000Y-138200000D01*
X70870000Y-136490000D02*
X63150000Y-136490000D01*
X70870000Y-140510000D02*
X70870000Y-136490000D01*
X71170000Y-140810000D02*
X71170000Y-138310000D01*
%TD*%
M02*
