M48
; DRILL file {KiCad 8.0.1} date 2024-05-05T15:48:21-0400
; FORMAT={-:-/ absolute / metric / decimal}
; #@! TF.CreationDate,2024-05-05T15:48:21-04:00
; #@! TF.GenerationSoftware,Kicad,Pcbnew,8.0.1
; #@! TF.FileFunction,Plated,1,2,PTH
FMAT,2
METRIC
; #@! TA.AperFunction,Plated,PTH,ViaDrill
T1C0.300
; #@! TA.AperFunction,Plated,PTH,ComponentDrill
T2C0.600
; #@! TA.AperFunction,Plated,PTH,ComponentDrill
T3C0.700
; #@! TA.AperFunction,Plated,PTH,ComponentDrill
T4C0.800
; #@! TA.AperFunction,Plated,PTH,ComponentDrill
T5C0.890
; #@! TA.AperFunction,Plated,PTH,ComponentDrill
T6C0.950
; #@! TA.AperFunction,Plated,PTH,ComponentDrill
T7C1.000
; #@! TA.AperFunction,Plated,PTH,ComponentDrill
T8C1.020
; #@! TA.AperFunction,Plated,PTH,ComponentDrill
T9C1.100
; #@! TA.AperFunction,Plated,PTH,ComponentDrill
T10C1.600
%
G90
G05
T1
X32.65Y-39.24
X37.55Y-51.55
X48.87Y-66.508
X54.12Y-28.92
X82.3Y-29.09
T2
X25.55Y-37.02
X25.55Y-38.52
T3
X49.05Y-63.988
X49.05Y-69.068
T4
X26.85Y-49.73
X29.302Y-61.97
X29.302Y-63.97
X29.39Y-49.73
X31.302Y-61.97
X31.302Y-63.97
X33.302Y-61.97
X33.302Y-63.97
X93.18Y-46.01
X95.68Y-46.01
X98.54Y-45.98
X98.54Y-47.98
X100.54Y-45.98
X100.54Y-47.98
X102.54Y-45.98
X102.54Y-47.98
T5
X90.29Y-41.77
X91.56Y-39.23
X92.83Y-41.77
X94.1Y-39.23
X95.37Y-41.77
X96.64Y-39.23
X97.91Y-41.77
X99.18Y-39.23
T6
X40.086Y-100.878
X40.086Y-103.378
X40.086Y-105.878
X41.495Y-26.3
X43.995Y-26.3
X45.72Y-61.548
X45.72Y-64.048
X45.72Y-66.548
X45.72Y-69.048
X45.72Y-79.582
X45.72Y-82.082
X45.72Y-84.582
X45.72Y-87.082
X46.495Y-26.3
X48.995Y-26.3
X52.116Y-79.562
X52.116Y-82.062
X52.116Y-84.562
X52.116Y-87.062
X69.655Y-26.3
X72.155Y-26.3
X74.655Y-26.3
X77.155Y-26.3
T7
X20.03Y-36.81
X20.03Y-39.31
X30.48Y-34.19
X30.48Y-36.73
X30.48Y-39.27
X30.48Y-41.81
X36.34Y-31.3
X36.37Y-43.95
X38.88Y-31.3
X38.91Y-43.95
X41.42Y-31.3
X41.45Y-43.95
X43.96Y-31.3
X43.99Y-43.95
X46.5Y-31.3
X46.53Y-43.95
X49.04Y-31.3
X49.07Y-43.95
X51.58Y-31.3
X51.61Y-43.95
X54.12Y-31.3
X54.15Y-43.95
X64.5Y-31.3
X64.53Y-43.95
X67.04Y-31.3
X67.07Y-43.95
X69.58Y-31.3
X69.61Y-43.95
X72.12Y-31.3
X72.15Y-43.95
X74.66Y-31.3
X74.69Y-43.95
X77.2Y-31.3
X77.23Y-43.95
X79.74Y-31.3
X79.77Y-43.95
X82.28Y-31.3
X82.31Y-43.95
T8
X88.41Y-29.5
X90.925Y-27.98
X98.545Y-29.5
X101.06Y-27.98
T9
X20.5Y-49.0
X20.5Y-51.54
X20.5Y-54.08
X20.5Y-56.62
X20.5Y-59.16
X20.5Y-61.7
X20.5Y-64.24
X20.5Y-66.78
X20.5Y-69.32
X20.5Y-71.86
X20.5Y-74.4
X20.5Y-76.94
X20.5Y-79.48
X20.5Y-82.02
X20.5Y-84.56
X20.5Y-87.1
X20.5Y-89.64
X20.5Y-92.18
X20.5Y-94.72
X20.5Y-97.26
X20.5Y-99.8
X20.5Y-102.34
X20.5Y-104.88
X20.5Y-107.42
X23.04Y-94.72
X23.551Y-55.299
X23.551Y-57.839
X23.551Y-60.379
X23.551Y-62.919
X23.551Y-65.459
X25.58Y-94.72
X28.12Y-94.72
X30.66Y-94.72
X33.2Y-51.54
X33.2Y-94.72
X35.74Y-49.0
X35.74Y-51.54
X35.74Y-54.08
X35.74Y-56.62
X35.74Y-59.16
X35.74Y-61.7
X35.74Y-64.24
X35.74Y-66.78
X35.74Y-69.32
X35.74Y-71.86
X35.74Y-74.4
X35.74Y-76.94
X35.74Y-79.48
X35.74Y-82.02
X35.74Y-84.56
X35.74Y-87.1
X35.74Y-89.64
X35.74Y-92.18
X35.74Y-94.72
X35.74Y-97.26
X35.74Y-99.8
X35.74Y-102.34
X35.74Y-104.88
X35.74Y-107.42
T10
X86.86Y-35.93
X102.61Y-35.93
M30
