M48
; DRILL file {KiCad 8.0.5} date 2025-04-25T17:06:28-0400
; FORMAT={-:-/ absolute / metric / decimal}
; #@! TF.CreationDate,2025-04-25T17:06:28-04:00
; #@! TF.GenerationSoftware,Kicad,Pcbnew,8.0.5
; #@! TF.FileFunction,Plated,1,4,PTH
FMAT,2
METRIC
; #@! TA.AperFunction,Plated,PTH,ComponentDrill
T1C0.600
; #@! TA.AperFunction,Plated,PTH,ComponentDrill
T2C0.800
; #@! TA.AperFunction,Plated,PTH,ComponentDrill
T3C0.950
; #@! TA.AperFunction,Plated,PTH,ComponentDrill
T4C1.000
; #@! TA.AperFunction,Plated,PTH,ComponentDrill
T5C1.100
; #@! TA.AperFunction,Plated,PTH,ComponentDrill
T6C1.270
%
G90
G05
T1
X127.58Y-105.39
X129.08Y-105.39
T2
X70.562Y-124.09
X78.182Y-124.09
X96.72Y-72.52
X99.172Y-84.76
X99.172Y-86.76
X99.26Y-72.52
X101.172Y-84.76
X101.172Y-86.76
X103.172Y-84.76
X103.172Y-86.76
T3
X70.08Y-77.89
X70.08Y-80.39
X70.08Y-82.89
X70.08Y-85.39
X129.8Y-116.44
X129.8Y-118.94
X129.8Y-121.44
X129.8Y-123.94
T4
X72.58Y-114.39
X75.08Y-114.39
X84.88Y-120.14
X84.88Y-122.64
X111.28Y-103.64
X111.28Y-106.14
X111.88Y-84.64
X111.88Y-87.14
X111.88Y-94.39
X111.88Y-96.89
X118.58Y-105.39
X121.08Y-105.39
X126.08Y-78.07
X126.08Y-80.61
X126.08Y-83.15
X126.08Y-85.69
T5
X90.37Y-71.79
X90.37Y-74.33
X90.37Y-76.87
X90.37Y-79.41
X90.37Y-81.95
X90.37Y-84.49
X90.37Y-87.03
X90.37Y-89.57
X90.37Y-92.11
X90.37Y-94.65
X90.37Y-97.19
X90.37Y-99.73
X90.37Y-102.27
X90.37Y-104.81
X90.37Y-107.35
X90.37Y-109.89
X90.37Y-112.43
X90.37Y-114.97
X90.37Y-117.51
X90.37Y-120.05
X90.37Y-122.59
X90.37Y-125.13
X90.37Y-127.67
X90.37Y-130.21
X92.91Y-117.51
X93.421Y-78.089
X93.421Y-80.629
X93.421Y-83.169
X93.421Y-85.709
X93.421Y-88.249
X95.45Y-117.51
X97.99Y-117.51
X100.53Y-117.51
X103.07Y-74.33
X103.07Y-117.51
X105.61Y-71.79
X105.61Y-74.33
X105.61Y-76.87
X105.61Y-79.41
X105.61Y-81.95
X105.61Y-84.49
X105.61Y-87.03
X105.61Y-89.57
X105.61Y-92.11
X105.61Y-94.65
X105.61Y-97.19
X105.61Y-99.73
X105.61Y-102.27
X105.61Y-104.81
X105.61Y-107.35
X105.61Y-109.89
X105.61Y-112.43
X105.61Y-114.97
X105.61Y-117.51
X105.61Y-120.05
X105.61Y-122.59
X105.61Y-125.13
X105.61Y-127.67
X105.61Y-130.21
T6
X73.8Y-72.86
X73.8Y-75.4
X73.8Y-77.94
X73.8Y-80.48
X73.8Y-83.02
X73.8Y-85.56
X73.8Y-88.1
X73.8Y-90.64
X86.5Y-72.86
X86.5Y-75.4
X86.5Y-77.94
X86.5Y-80.48
X86.5Y-83.02
X86.5Y-85.56
X86.5Y-88.1
X86.5Y-90.64
X112.38Y-111.69
X112.38Y-114.23
X112.38Y-116.77
X112.38Y-119.31
X112.38Y-121.85
X112.38Y-124.39
X112.38Y-126.93
X112.38Y-129.47
X125.08Y-111.69
X125.08Y-114.23
X125.08Y-116.77
X125.08Y-119.31
X125.08Y-121.85
X125.08Y-124.39
X125.08Y-126.93
X125.08Y-129.47
M30
