%TF.GenerationSoftware,KiCad,Pcbnew,8.0.1*%
%TF.CreationDate,2024-11-17T22:06:19-05:00*%
%TF.ProjectId,Main_4layer,4d61696e-5f34-46c6-9179-65722e6b6963,0*%
%TF.SameCoordinates,Original*%
%TF.FileFunction,Drillmap*%
%TF.FilePolarity,Positive*%
%FSLAX45Y45*%
G04 Gerber Fmt 4.5, Leading zero omitted, Abs format (unit mm)*
G04 Created by KiCad (PCBNEW 8.0.1) date 2024-11-17 22:06:19*
%MOMM*%
%LPD*%
G01*
G04 APERTURE LIST*
%ADD10C,0.050000*%
%ADD11C,0.200000*%
%ADD12C,0.320000*%
G04 APERTURE END LIST*
D10*
X11282000Y-4517000D02*
X19282000Y-4517000D01*
X19282000Y-14517000D01*
X11282000Y-14517000D01*
X11282000Y-4517000D01*
D11*
D12*
X14739000Y-5770000D02*
X15059000Y-6090000D01*
X15059000Y-5770000D02*
X14739000Y-6090000D01*
X15882000Y-5770000D02*
X16202000Y-6090000D01*
X16202000Y-5770000D02*
X15882000Y-6090000D01*
D11*
X11540277Y-14830984D02*
X11540277Y-14630984D01*
X11540277Y-14630984D02*
X11587896Y-14630984D01*
X11587896Y-14630984D02*
X11616467Y-14640508D01*
X11616467Y-14640508D02*
X11635515Y-14659555D01*
X11635515Y-14659555D02*
X11645039Y-14678603D01*
X11645039Y-14678603D02*
X11654562Y-14716698D01*
X11654562Y-14716698D02*
X11654562Y-14745269D01*
X11654562Y-14745269D02*
X11645039Y-14783365D01*
X11645039Y-14783365D02*
X11635515Y-14802412D01*
X11635515Y-14802412D02*
X11616467Y-14821460D01*
X11616467Y-14821460D02*
X11587896Y-14830984D01*
X11587896Y-14830984D02*
X11540277Y-14830984D01*
X11740277Y-14830984D02*
X11740277Y-14697650D01*
X11740277Y-14735746D02*
X11749801Y-14716698D01*
X11749801Y-14716698D02*
X11759324Y-14707174D01*
X11759324Y-14707174D02*
X11778372Y-14697650D01*
X11778372Y-14697650D02*
X11797420Y-14697650D01*
X11864086Y-14830984D02*
X11864086Y-14697650D01*
X11864086Y-14630984D02*
X11854562Y-14640508D01*
X11854562Y-14640508D02*
X11864086Y-14650031D01*
X11864086Y-14650031D02*
X11873610Y-14640508D01*
X11873610Y-14640508D02*
X11864086Y-14630984D01*
X11864086Y-14630984D02*
X11864086Y-14650031D01*
X11987896Y-14830984D02*
X11968848Y-14821460D01*
X11968848Y-14821460D02*
X11959324Y-14802412D01*
X11959324Y-14802412D02*
X11959324Y-14630984D01*
X12092658Y-14830984D02*
X12073610Y-14821460D01*
X12073610Y-14821460D02*
X12064086Y-14802412D01*
X12064086Y-14802412D02*
X12064086Y-14630984D01*
X12321229Y-14830984D02*
X12321229Y-14630984D01*
X12321229Y-14630984D02*
X12387896Y-14773841D01*
X12387896Y-14773841D02*
X12454562Y-14630984D01*
X12454562Y-14630984D02*
X12454562Y-14830984D01*
X12635515Y-14830984D02*
X12635515Y-14726222D01*
X12635515Y-14726222D02*
X12625991Y-14707174D01*
X12625991Y-14707174D02*
X12606943Y-14697650D01*
X12606943Y-14697650D02*
X12568848Y-14697650D01*
X12568848Y-14697650D02*
X12549801Y-14707174D01*
X12635515Y-14821460D02*
X12616467Y-14830984D01*
X12616467Y-14830984D02*
X12568848Y-14830984D01*
X12568848Y-14830984D02*
X12549801Y-14821460D01*
X12549801Y-14821460D02*
X12540277Y-14802412D01*
X12540277Y-14802412D02*
X12540277Y-14783365D01*
X12540277Y-14783365D02*
X12549801Y-14764317D01*
X12549801Y-14764317D02*
X12568848Y-14754793D01*
X12568848Y-14754793D02*
X12616467Y-14754793D01*
X12616467Y-14754793D02*
X12635515Y-14745269D01*
X12730753Y-14697650D02*
X12730753Y-14897650D01*
X12730753Y-14707174D02*
X12749801Y-14697650D01*
X12749801Y-14697650D02*
X12787896Y-14697650D01*
X12787896Y-14697650D02*
X12806943Y-14707174D01*
X12806943Y-14707174D02*
X12816467Y-14716698D01*
X12816467Y-14716698D02*
X12825991Y-14735746D01*
X12825991Y-14735746D02*
X12825991Y-14792888D01*
X12825991Y-14792888D02*
X12816467Y-14811936D01*
X12816467Y-14811936D02*
X12806943Y-14821460D01*
X12806943Y-14821460D02*
X12787896Y-14830984D01*
X12787896Y-14830984D02*
X12749801Y-14830984D01*
X12749801Y-14830984D02*
X12730753Y-14821460D01*
X12911705Y-14811936D02*
X12921229Y-14821460D01*
X12921229Y-14821460D02*
X12911705Y-14830984D01*
X12911705Y-14830984D02*
X12902182Y-14821460D01*
X12902182Y-14821460D02*
X12911705Y-14811936D01*
X12911705Y-14811936D02*
X12911705Y-14830984D01*
X12911705Y-14707174D02*
X12921229Y-14716698D01*
X12921229Y-14716698D02*
X12911705Y-14726222D01*
X12911705Y-14726222D02*
X12902182Y-14716698D01*
X12902182Y-14716698D02*
X12911705Y-14707174D01*
X12911705Y-14707174D02*
X12911705Y-14726222D01*
X11079500Y-15059500D02*
X11279500Y-15259500D01*
X11279500Y-15059500D02*
X11079500Y-15259500D01*
X11521229Y-15050984D02*
X11645039Y-15050984D01*
X11645039Y-15050984D02*
X11578372Y-15127174D01*
X11578372Y-15127174D02*
X11606943Y-15127174D01*
X11606943Y-15127174D02*
X11625991Y-15136698D01*
X11625991Y-15136698D02*
X11635515Y-15146222D01*
X11635515Y-15146222D02*
X11645039Y-15165269D01*
X11645039Y-15165269D02*
X11645039Y-15212888D01*
X11645039Y-15212888D02*
X11635515Y-15231936D01*
X11635515Y-15231936D02*
X11625991Y-15241460D01*
X11625991Y-15241460D02*
X11606943Y-15250984D01*
X11606943Y-15250984D02*
X11549801Y-15250984D01*
X11549801Y-15250984D02*
X11530753Y-15241460D01*
X11530753Y-15241460D02*
X11521229Y-15231936D01*
X11730753Y-15231936D02*
X11740277Y-15241460D01*
X11740277Y-15241460D02*
X11730753Y-15250984D01*
X11730753Y-15250984D02*
X11721229Y-15241460D01*
X11721229Y-15241460D02*
X11730753Y-15231936D01*
X11730753Y-15231936D02*
X11730753Y-15250984D01*
X11816467Y-15070031D02*
X11825991Y-15060508D01*
X11825991Y-15060508D02*
X11845039Y-15050984D01*
X11845039Y-15050984D02*
X11892658Y-15050984D01*
X11892658Y-15050984D02*
X11911705Y-15060508D01*
X11911705Y-15060508D02*
X11921229Y-15070031D01*
X11921229Y-15070031D02*
X11930753Y-15089079D01*
X11930753Y-15089079D02*
X11930753Y-15108127D01*
X11930753Y-15108127D02*
X11921229Y-15136698D01*
X11921229Y-15136698D02*
X11806943Y-15250984D01*
X11806943Y-15250984D02*
X11930753Y-15250984D01*
X12054562Y-15050984D02*
X12073610Y-15050984D01*
X12073610Y-15050984D02*
X12092658Y-15060508D01*
X12092658Y-15060508D02*
X12102182Y-15070031D01*
X12102182Y-15070031D02*
X12111705Y-15089079D01*
X12111705Y-15089079D02*
X12121229Y-15127174D01*
X12121229Y-15127174D02*
X12121229Y-15174793D01*
X12121229Y-15174793D02*
X12111705Y-15212888D01*
X12111705Y-15212888D02*
X12102182Y-15231936D01*
X12102182Y-15231936D02*
X12092658Y-15241460D01*
X12092658Y-15241460D02*
X12073610Y-15250984D01*
X12073610Y-15250984D02*
X12054562Y-15250984D01*
X12054562Y-15250984D02*
X12035515Y-15241460D01*
X12035515Y-15241460D02*
X12025991Y-15231936D01*
X12025991Y-15231936D02*
X12016467Y-15212888D01*
X12016467Y-15212888D02*
X12006943Y-15174793D01*
X12006943Y-15174793D02*
X12006943Y-15127174D01*
X12006943Y-15127174D02*
X12016467Y-15089079D01*
X12016467Y-15089079D02*
X12025991Y-15070031D01*
X12025991Y-15070031D02*
X12035515Y-15060508D01*
X12035515Y-15060508D02*
X12054562Y-15050984D01*
X12245039Y-15050984D02*
X12264086Y-15050984D01*
X12264086Y-15050984D02*
X12283134Y-15060508D01*
X12283134Y-15060508D02*
X12292658Y-15070031D01*
X12292658Y-15070031D02*
X12302182Y-15089079D01*
X12302182Y-15089079D02*
X12311705Y-15127174D01*
X12311705Y-15127174D02*
X12311705Y-15174793D01*
X12311705Y-15174793D02*
X12302182Y-15212888D01*
X12302182Y-15212888D02*
X12292658Y-15231936D01*
X12292658Y-15231936D02*
X12283134Y-15241460D01*
X12283134Y-15241460D02*
X12264086Y-15250984D01*
X12264086Y-15250984D02*
X12245039Y-15250984D01*
X12245039Y-15250984D02*
X12225991Y-15241460D01*
X12225991Y-15241460D02*
X12216467Y-15231936D01*
X12216467Y-15231936D02*
X12206943Y-15212888D01*
X12206943Y-15212888D02*
X12197420Y-15174793D01*
X12197420Y-15174793D02*
X12197420Y-15127174D01*
X12197420Y-15127174D02*
X12206943Y-15089079D01*
X12206943Y-15089079D02*
X12216467Y-15070031D01*
X12216467Y-15070031D02*
X12225991Y-15060508D01*
X12225991Y-15060508D02*
X12245039Y-15050984D01*
X12397420Y-15250984D02*
X12397420Y-15117650D01*
X12397420Y-15136698D02*
X12406943Y-15127174D01*
X12406943Y-15127174D02*
X12425991Y-15117650D01*
X12425991Y-15117650D02*
X12454563Y-15117650D01*
X12454563Y-15117650D02*
X12473610Y-15127174D01*
X12473610Y-15127174D02*
X12483134Y-15146222D01*
X12483134Y-15146222D02*
X12483134Y-15250984D01*
X12483134Y-15146222D02*
X12492658Y-15127174D01*
X12492658Y-15127174D02*
X12511705Y-15117650D01*
X12511705Y-15117650D02*
X12540277Y-15117650D01*
X12540277Y-15117650D02*
X12559324Y-15127174D01*
X12559324Y-15127174D02*
X12568848Y-15146222D01*
X12568848Y-15146222D02*
X12568848Y-15250984D01*
X12664086Y-15250984D02*
X12664086Y-15117650D01*
X12664086Y-15136698D02*
X12673610Y-15127174D01*
X12673610Y-15127174D02*
X12692658Y-15117650D01*
X12692658Y-15117650D02*
X12721229Y-15117650D01*
X12721229Y-15117650D02*
X12740277Y-15127174D01*
X12740277Y-15127174D02*
X12749801Y-15146222D01*
X12749801Y-15146222D02*
X12749801Y-15250984D01*
X12749801Y-15146222D02*
X12759324Y-15127174D01*
X12759324Y-15127174D02*
X12778372Y-15117650D01*
X12778372Y-15117650D02*
X12806943Y-15117650D01*
X12806943Y-15117650D02*
X12825991Y-15127174D01*
X12825991Y-15127174D02*
X12835515Y-15146222D01*
X12835515Y-15146222D02*
X12835515Y-15250984D01*
X13225991Y-15041460D02*
X13054563Y-15298603D01*
X13483134Y-15050984D02*
X13502182Y-15050984D01*
X13502182Y-15050984D02*
X13521229Y-15060508D01*
X13521229Y-15060508D02*
X13530753Y-15070031D01*
X13530753Y-15070031D02*
X13540277Y-15089079D01*
X13540277Y-15089079D02*
X13549801Y-15127174D01*
X13549801Y-15127174D02*
X13549801Y-15174793D01*
X13549801Y-15174793D02*
X13540277Y-15212888D01*
X13540277Y-15212888D02*
X13530753Y-15231936D01*
X13530753Y-15231936D02*
X13521229Y-15241460D01*
X13521229Y-15241460D02*
X13502182Y-15250984D01*
X13502182Y-15250984D02*
X13483134Y-15250984D01*
X13483134Y-15250984D02*
X13464086Y-15241460D01*
X13464086Y-15241460D02*
X13454563Y-15231936D01*
X13454563Y-15231936D02*
X13445039Y-15212888D01*
X13445039Y-15212888D02*
X13435515Y-15174793D01*
X13435515Y-15174793D02*
X13435515Y-15127174D01*
X13435515Y-15127174D02*
X13445039Y-15089079D01*
X13445039Y-15089079D02*
X13454563Y-15070031D01*
X13454563Y-15070031D02*
X13464086Y-15060508D01*
X13464086Y-15060508D02*
X13483134Y-15050984D01*
X13635515Y-15231936D02*
X13645039Y-15241460D01*
X13645039Y-15241460D02*
X13635515Y-15250984D01*
X13635515Y-15250984D02*
X13625991Y-15241460D01*
X13625991Y-15241460D02*
X13635515Y-15231936D01*
X13635515Y-15231936D02*
X13635515Y-15250984D01*
X13835515Y-15250984D02*
X13721229Y-15250984D01*
X13778372Y-15250984D02*
X13778372Y-15050984D01*
X13778372Y-15050984D02*
X13759325Y-15079555D01*
X13759325Y-15079555D02*
X13740277Y-15098603D01*
X13740277Y-15098603D02*
X13721229Y-15108127D01*
X13911706Y-15070031D02*
X13921229Y-15060508D01*
X13921229Y-15060508D02*
X13940277Y-15050984D01*
X13940277Y-15050984D02*
X13987896Y-15050984D01*
X13987896Y-15050984D02*
X14006944Y-15060508D01*
X14006944Y-15060508D02*
X14016467Y-15070031D01*
X14016467Y-15070031D02*
X14025991Y-15089079D01*
X14025991Y-15089079D02*
X14025991Y-15108127D01*
X14025991Y-15108127D02*
X14016467Y-15136698D01*
X14016467Y-15136698D02*
X13902182Y-15250984D01*
X13902182Y-15250984D02*
X14025991Y-15250984D01*
X14197420Y-15050984D02*
X14159325Y-15050984D01*
X14159325Y-15050984D02*
X14140277Y-15060508D01*
X14140277Y-15060508D02*
X14130753Y-15070031D01*
X14130753Y-15070031D02*
X14111706Y-15098603D01*
X14111706Y-15098603D02*
X14102182Y-15136698D01*
X14102182Y-15136698D02*
X14102182Y-15212888D01*
X14102182Y-15212888D02*
X14111706Y-15231936D01*
X14111706Y-15231936D02*
X14121229Y-15241460D01*
X14121229Y-15241460D02*
X14140277Y-15250984D01*
X14140277Y-15250984D02*
X14178372Y-15250984D01*
X14178372Y-15250984D02*
X14197420Y-15241460D01*
X14197420Y-15241460D02*
X14206944Y-15231936D01*
X14206944Y-15231936D02*
X14216467Y-15212888D01*
X14216467Y-15212888D02*
X14216467Y-15165269D01*
X14216467Y-15165269D02*
X14206944Y-15146222D01*
X14206944Y-15146222D02*
X14197420Y-15136698D01*
X14197420Y-15136698D02*
X14178372Y-15127174D01*
X14178372Y-15127174D02*
X14140277Y-15127174D01*
X14140277Y-15127174D02*
X14121229Y-15136698D01*
X14121229Y-15136698D02*
X14111706Y-15146222D01*
X14111706Y-15146222D02*
X14102182Y-15165269D01*
X14340277Y-15050984D02*
X14359325Y-15050984D01*
X14359325Y-15050984D02*
X14378372Y-15060508D01*
X14378372Y-15060508D02*
X14387896Y-15070031D01*
X14387896Y-15070031D02*
X14397420Y-15089079D01*
X14397420Y-15089079D02*
X14406944Y-15127174D01*
X14406944Y-15127174D02*
X14406944Y-15174793D01*
X14406944Y-15174793D02*
X14397420Y-15212888D01*
X14397420Y-15212888D02*
X14387896Y-15231936D01*
X14387896Y-15231936D02*
X14378372Y-15241460D01*
X14378372Y-15241460D02*
X14359325Y-15250984D01*
X14359325Y-15250984D02*
X14340277Y-15250984D01*
X14340277Y-15250984D02*
X14321229Y-15241460D01*
X14321229Y-15241460D02*
X14311706Y-15231936D01*
X14311706Y-15231936D02*
X14302182Y-15212888D01*
X14302182Y-15212888D02*
X14292658Y-15174793D01*
X14292658Y-15174793D02*
X14292658Y-15127174D01*
X14292658Y-15127174D02*
X14302182Y-15089079D01*
X14302182Y-15089079D02*
X14311706Y-15070031D01*
X14311706Y-15070031D02*
X14321229Y-15060508D01*
X14321229Y-15060508D02*
X14340277Y-15050984D01*
X14483134Y-15050984D02*
X14483134Y-15089079D01*
X14559325Y-15050984D02*
X14559325Y-15089079D01*
X14854563Y-15327174D02*
X14845039Y-15317650D01*
X14845039Y-15317650D02*
X14825991Y-15289079D01*
X14825991Y-15289079D02*
X14816468Y-15270031D01*
X14816468Y-15270031D02*
X14806944Y-15241460D01*
X14806944Y-15241460D02*
X14797420Y-15193841D01*
X14797420Y-15193841D02*
X14797420Y-15155746D01*
X14797420Y-15155746D02*
X14806944Y-15108127D01*
X14806944Y-15108127D02*
X14816468Y-15079555D01*
X14816468Y-15079555D02*
X14825991Y-15060508D01*
X14825991Y-15060508D02*
X14845039Y-15031936D01*
X14845039Y-15031936D02*
X14854563Y-15022412D01*
X14921229Y-15070031D02*
X14930753Y-15060508D01*
X14930753Y-15060508D02*
X14949801Y-15050984D01*
X14949801Y-15050984D02*
X14997420Y-15050984D01*
X14997420Y-15050984D02*
X15016468Y-15060508D01*
X15016468Y-15060508D02*
X15025991Y-15070031D01*
X15025991Y-15070031D02*
X15035515Y-15089079D01*
X15035515Y-15089079D02*
X15035515Y-15108127D01*
X15035515Y-15108127D02*
X15025991Y-15136698D01*
X15025991Y-15136698D02*
X14911706Y-15250984D01*
X14911706Y-15250984D02*
X15035515Y-15250984D01*
X15273610Y-15250984D02*
X15273610Y-15050984D01*
X15359325Y-15250984D02*
X15359325Y-15146222D01*
X15359325Y-15146222D02*
X15349801Y-15127174D01*
X15349801Y-15127174D02*
X15330753Y-15117650D01*
X15330753Y-15117650D02*
X15302182Y-15117650D01*
X15302182Y-15117650D02*
X15283134Y-15127174D01*
X15283134Y-15127174D02*
X15273610Y-15136698D01*
X15483134Y-15250984D02*
X15464087Y-15241460D01*
X15464087Y-15241460D02*
X15454563Y-15231936D01*
X15454563Y-15231936D02*
X15445039Y-15212888D01*
X15445039Y-15212888D02*
X15445039Y-15155746D01*
X15445039Y-15155746D02*
X15454563Y-15136698D01*
X15454563Y-15136698D02*
X15464087Y-15127174D01*
X15464087Y-15127174D02*
X15483134Y-15117650D01*
X15483134Y-15117650D02*
X15511706Y-15117650D01*
X15511706Y-15117650D02*
X15530753Y-15127174D01*
X15530753Y-15127174D02*
X15540277Y-15136698D01*
X15540277Y-15136698D02*
X15549801Y-15155746D01*
X15549801Y-15155746D02*
X15549801Y-15212888D01*
X15549801Y-15212888D02*
X15540277Y-15231936D01*
X15540277Y-15231936D02*
X15530753Y-15241460D01*
X15530753Y-15241460D02*
X15511706Y-15250984D01*
X15511706Y-15250984D02*
X15483134Y-15250984D01*
X15664087Y-15250984D02*
X15645039Y-15241460D01*
X15645039Y-15241460D02*
X15635515Y-15222412D01*
X15635515Y-15222412D02*
X15635515Y-15050984D01*
X15816468Y-15241460D02*
X15797420Y-15250984D01*
X15797420Y-15250984D02*
X15759325Y-15250984D01*
X15759325Y-15250984D02*
X15740277Y-15241460D01*
X15740277Y-15241460D02*
X15730753Y-15222412D01*
X15730753Y-15222412D02*
X15730753Y-15146222D01*
X15730753Y-15146222D02*
X15740277Y-15127174D01*
X15740277Y-15127174D02*
X15759325Y-15117650D01*
X15759325Y-15117650D02*
X15797420Y-15117650D01*
X15797420Y-15117650D02*
X15816468Y-15127174D01*
X15816468Y-15127174D02*
X15825991Y-15146222D01*
X15825991Y-15146222D02*
X15825991Y-15165269D01*
X15825991Y-15165269D02*
X15730753Y-15184317D01*
X15902182Y-15241460D02*
X15921230Y-15250984D01*
X15921230Y-15250984D02*
X15959325Y-15250984D01*
X15959325Y-15250984D02*
X15978372Y-15241460D01*
X15978372Y-15241460D02*
X15987896Y-15222412D01*
X15987896Y-15222412D02*
X15987896Y-15212888D01*
X15987896Y-15212888D02*
X15978372Y-15193841D01*
X15978372Y-15193841D02*
X15959325Y-15184317D01*
X15959325Y-15184317D02*
X15930753Y-15184317D01*
X15930753Y-15184317D02*
X15911706Y-15174793D01*
X15911706Y-15174793D02*
X15902182Y-15155746D01*
X15902182Y-15155746D02*
X15902182Y-15146222D01*
X15902182Y-15146222D02*
X15911706Y-15127174D01*
X15911706Y-15127174D02*
X15930753Y-15117650D01*
X15930753Y-15117650D02*
X15959325Y-15117650D01*
X15959325Y-15117650D02*
X15978372Y-15127174D01*
X16054563Y-15327174D02*
X16064087Y-15317650D01*
X16064087Y-15317650D02*
X16083134Y-15289079D01*
X16083134Y-15289079D02*
X16092658Y-15270031D01*
X16092658Y-15270031D02*
X16102182Y-15241460D01*
X16102182Y-15241460D02*
X16111706Y-15193841D01*
X16111706Y-15193841D02*
X16111706Y-15155746D01*
X16111706Y-15155746D02*
X16102182Y-15108127D01*
X16102182Y-15108127D02*
X16092658Y-15079555D01*
X16092658Y-15079555D02*
X16083134Y-15060508D01*
X16083134Y-15060508D02*
X16064087Y-15031936D01*
X16064087Y-15031936D02*
X16054563Y-15022412D01*
X16416468Y-15327174D02*
X16406944Y-15317650D01*
X16406944Y-15317650D02*
X16387896Y-15289079D01*
X16387896Y-15289079D02*
X16378372Y-15270031D01*
X16378372Y-15270031D02*
X16368849Y-15241460D01*
X16368849Y-15241460D02*
X16359325Y-15193841D01*
X16359325Y-15193841D02*
X16359325Y-15155746D01*
X16359325Y-15155746D02*
X16368849Y-15108127D01*
X16368849Y-15108127D02*
X16378372Y-15079555D01*
X16378372Y-15079555D02*
X16387896Y-15060508D01*
X16387896Y-15060508D02*
X16406944Y-15031936D01*
X16406944Y-15031936D02*
X16416468Y-15022412D01*
X16492658Y-15117650D02*
X16492658Y-15250984D01*
X16492658Y-15136698D02*
X16502182Y-15127174D01*
X16502182Y-15127174D02*
X16521230Y-15117650D01*
X16521230Y-15117650D02*
X16549801Y-15117650D01*
X16549801Y-15117650D02*
X16568849Y-15127174D01*
X16568849Y-15127174D02*
X16578372Y-15146222D01*
X16578372Y-15146222D02*
X16578372Y-15250984D01*
X16702182Y-15250984D02*
X16683134Y-15241460D01*
X16683134Y-15241460D02*
X16673611Y-15231936D01*
X16673611Y-15231936D02*
X16664087Y-15212888D01*
X16664087Y-15212888D02*
X16664087Y-15155746D01*
X16664087Y-15155746D02*
X16673611Y-15136698D01*
X16673611Y-15136698D02*
X16683134Y-15127174D01*
X16683134Y-15127174D02*
X16702182Y-15117650D01*
X16702182Y-15117650D02*
X16730753Y-15117650D01*
X16730753Y-15117650D02*
X16749801Y-15127174D01*
X16749801Y-15127174D02*
X16759325Y-15136698D01*
X16759325Y-15136698D02*
X16768849Y-15155746D01*
X16768849Y-15155746D02*
X16768849Y-15212888D01*
X16768849Y-15212888D02*
X16759325Y-15231936D01*
X16759325Y-15231936D02*
X16749801Y-15241460D01*
X16749801Y-15241460D02*
X16730753Y-15250984D01*
X16730753Y-15250984D02*
X16702182Y-15250984D01*
X16825992Y-15117650D02*
X16902182Y-15117650D01*
X16854563Y-15050984D02*
X16854563Y-15222412D01*
X16854563Y-15222412D02*
X16864087Y-15241460D01*
X16864087Y-15241460D02*
X16883134Y-15250984D01*
X16883134Y-15250984D02*
X16902182Y-15250984D01*
X17121230Y-15117650D02*
X17121230Y-15317650D01*
X17121230Y-15127174D02*
X17140277Y-15117650D01*
X17140277Y-15117650D02*
X17178373Y-15117650D01*
X17178373Y-15117650D02*
X17197420Y-15127174D01*
X17197420Y-15127174D02*
X17206944Y-15136698D01*
X17206944Y-15136698D02*
X17216468Y-15155746D01*
X17216468Y-15155746D02*
X17216468Y-15212888D01*
X17216468Y-15212888D02*
X17206944Y-15231936D01*
X17206944Y-15231936D02*
X17197420Y-15241460D01*
X17197420Y-15241460D02*
X17178373Y-15250984D01*
X17178373Y-15250984D02*
X17140277Y-15250984D01*
X17140277Y-15250984D02*
X17121230Y-15241460D01*
X17330754Y-15250984D02*
X17311706Y-15241460D01*
X17311706Y-15241460D02*
X17302182Y-15222412D01*
X17302182Y-15222412D02*
X17302182Y-15050984D01*
X17492658Y-15250984D02*
X17492658Y-15146222D01*
X17492658Y-15146222D02*
X17483135Y-15127174D01*
X17483135Y-15127174D02*
X17464087Y-15117650D01*
X17464087Y-15117650D02*
X17425992Y-15117650D01*
X17425992Y-15117650D02*
X17406944Y-15127174D01*
X17492658Y-15241460D02*
X17473611Y-15250984D01*
X17473611Y-15250984D02*
X17425992Y-15250984D01*
X17425992Y-15250984D02*
X17406944Y-15241460D01*
X17406944Y-15241460D02*
X17397420Y-15222412D01*
X17397420Y-15222412D02*
X17397420Y-15203365D01*
X17397420Y-15203365D02*
X17406944Y-15184317D01*
X17406944Y-15184317D02*
X17425992Y-15174793D01*
X17425992Y-15174793D02*
X17473611Y-15174793D01*
X17473611Y-15174793D02*
X17492658Y-15165269D01*
X17559325Y-15117650D02*
X17635515Y-15117650D01*
X17587896Y-15050984D02*
X17587896Y-15222412D01*
X17587896Y-15222412D02*
X17597420Y-15241460D01*
X17597420Y-15241460D02*
X17616468Y-15250984D01*
X17616468Y-15250984D02*
X17635515Y-15250984D01*
X17778373Y-15241460D02*
X17759325Y-15250984D01*
X17759325Y-15250984D02*
X17721230Y-15250984D01*
X17721230Y-15250984D02*
X17702182Y-15241460D01*
X17702182Y-15241460D02*
X17692658Y-15222412D01*
X17692658Y-15222412D02*
X17692658Y-15146222D01*
X17692658Y-15146222D02*
X17702182Y-15127174D01*
X17702182Y-15127174D02*
X17721230Y-15117650D01*
X17721230Y-15117650D02*
X17759325Y-15117650D01*
X17759325Y-15117650D02*
X17778373Y-15127174D01*
X17778373Y-15127174D02*
X17787896Y-15146222D01*
X17787896Y-15146222D02*
X17787896Y-15165269D01*
X17787896Y-15165269D02*
X17692658Y-15184317D01*
X17959325Y-15250984D02*
X17959325Y-15050984D01*
X17959325Y-15241460D02*
X17940277Y-15250984D01*
X17940277Y-15250984D02*
X17902182Y-15250984D01*
X17902182Y-15250984D02*
X17883135Y-15241460D01*
X17883135Y-15241460D02*
X17873611Y-15231936D01*
X17873611Y-15231936D02*
X17864087Y-15212888D01*
X17864087Y-15212888D02*
X17864087Y-15155746D01*
X17864087Y-15155746D02*
X17873611Y-15136698D01*
X17873611Y-15136698D02*
X17883135Y-15127174D01*
X17883135Y-15127174D02*
X17902182Y-15117650D01*
X17902182Y-15117650D02*
X17940277Y-15117650D01*
X17940277Y-15117650D02*
X17959325Y-15127174D01*
X18035516Y-15327174D02*
X18045039Y-15317650D01*
X18045039Y-15317650D02*
X18064087Y-15289079D01*
X18064087Y-15289079D02*
X18073611Y-15270031D01*
X18073611Y-15270031D02*
X18083135Y-15241460D01*
X18083135Y-15241460D02*
X18092658Y-15193841D01*
X18092658Y-15193841D02*
X18092658Y-15155746D01*
X18092658Y-15155746D02*
X18083135Y-15108127D01*
X18083135Y-15108127D02*
X18073611Y-15079555D01*
X18073611Y-15079555D02*
X18064087Y-15060508D01*
X18064087Y-15060508D02*
X18045039Y-15031936D01*
X18045039Y-15031936D02*
X18035516Y-15022412D01*
M02*
