%TF.GenerationSoftware,KiCad,Pcbnew,8.0.6*%
%TF.CreationDate,2024-11-20T18:40:54-05:00*%
%TF.ProjectId,Main_4layer,4d61696e-5f34-46c6-9179-65722e6b6963,0*%
%TF.SameCoordinates,Original*%
%TF.FileFunction,Copper,L4,Bot*%
%TF.FilePolarity,Positive*%
%FSLAX46Y46*%
G04 Gerber Fmt 4.6, Leading zero omitted, Abs format (unit mm)*
G04 Created by KiCad (PCBNEW 8.0.6) date 2024-11-20 18:40:54*
%MOMM*%
%LPD*%
G01*
G04 APERTURE LIST*
G04 Aperture macros list*
%AMRoundRect*
0 Rectangle with rounded corners*
0 $1 Rounding radius*
0 $2 $3 $4 $5 $6 $7 $8 $9 X,Y pos of 4 corners*
0 Add a 4 corners polygon primitive as box body*
4,1,4,$2,$3,$4,$5,$6,$7,$8,$9,$2,$3,0*
0 Add four circle primitives for the rounded corners*
1,1,$1+$1,$2,$3*
1,1,$1+$1,$4,$5*
1,1,$1+$1,$6,$7*
1,1,$1+$1,$8,$9*
0 Add four rect primitives between the rounded corners*
20,1,$1+$1,$2,$3,$4,$5,0*
20,1,$1+$1,$4,$5,$6,$7,0*
20,1,$1+$1,$6,$7,$8,$9,0*
20,1,$1+$1,$8,$9,$2,$3,0*%
G04 Aperture macros list end*
%TA.AperFunction,ComponentPad*%
%ADD10C,1.600000*%
%TD*%
%TA.AperFunction,ComponentPad*%
%ADD11O,1.600000X1.600000*%
%TD*%
%TA.AperFunction,ComponentPad*%
%ADD12R,1.700000X1.700000*%
%TD*%
%TA.AperFunction,ComponentPad*%
%ADD13O,1.700000X1.700000*%
%TD*%
%TA.AperFunction,ComponentPad*%
%ADD14C,6.400000*%
%TD*%
%TA.AperFunction,ComponentPad*%
%ADD15RoundRect,0.250000X-0.600000X-0.750000X0.600000X-0.750000X0.600000X0.750000X-0.600000X0.750000X0*%
%TD*%
%TA.AperFunction,ComponentPad*%
%ADD16O,1.700000X2.000000*%
%TD*%
%TA.AperFunction,ComponentPad*%
%ADD17R,2.500000X2.500000*%
%TD*%
%TA.AperFunction,ComponentPad*%
%ADD18O,2.500000X2.500000*%
%TD*%
%TA.AperFunction,ComponentPad*%
%ADD19R,1.398000X1.398000*%
%TD*%
%TA.AperFunction,ComponentPad*%
%ADD20C,1.398000*%
%TD*%
%TA.AperFunction,ComponentPad*%
%ADD21C,1.530000*%
%TD*%
%TA.AperFunction,ComponentPad*%
%ADD22C,2.400000*%
%TD*%
%TA.AperFunction,ComponentPad*%
%ADD23R,1.600000X1.600000*%
%TD*%
%TA.AperFunction,ComponentPad*%
%ADD24R,1.300000X1.300000*%
%TD*%
%TA.AperFunction,ComponentPad*%
%ADD25C,1.300000*%
%TD*%
%TA.AperFunction,ComponentPad*%
%ADD26R,1.050000X1.500000*%
%TD*%
%TA.AperFunction,ComponentPad*%
%ADD27O,1.050000X1.500000*%
%TD*%
%TA.AperFunction,ComponentPad*%
%ADD28RoundRect,0.250000X0.725000X-0.600000X0.725000X0.600000X-0.725000X0.600000X-0.725000X-0.600000X0*%
%TD*%
%TA.AperFunction,ComponentPad*%
%ADD29O,1.950000X1.700000*%
%TD*%
%TA.AperFunction,ComponentPad*%
%ADD30RoundRect,0.250000X0.750000X-0.600000X0.750000X0.600000X-0.750000X0.600000X-0.750000X-0.600000X0*%
%TD*%
%TA.AperFunction,ComponentPad*%
%ADD31O,2.000000X1.700000*%
%TD*%
%TA.AperFunction,ComponentPad*%
%ADD32R,1.350000X1.350000*%
%TD*%
%TA.AperFunction,ComponentPad*%
%ADD33O,1.350000X1.350000*%
%TD*%
%TA.AperFunction,ComponentPad*%
%ADD34R,1.800000X1.800000*%
%TD*%
%TA.AperFunction,ComponentPad*%
%ADD35C,1.800000*%
%TD*%
%TA.AperFunction,ViaPad*%
%ADD36C,0.700000*%
%TD*%
%TA.AperFunction,Conductor*%
%ADD37C,0.250000*%
%TD*%
G04 APERTURE END LIST*
D10*
X148040000Y-114520000D03*
D11*
X148040000Y-99280000D03*
D12*
X171820000Y-59050000D03*
D13*
X174360000Y-59050000D03*
X176900000Y-59050000D03*
X179440000Y-59050000D03*
D14*
X117920000Y-50170000D03*
D12*
X184265000Y-59160000D03*
D13*
X186805000Y-59160000D03*
X184265000Y-61700000D03*
X186805000Y-61700000D03*
X184265000Y-64240000D03*
X186805000Y-64240000D03*
X184265000Y-66780000D03*
X186805000Y-66780000D03*
X184265000Y-69320000D03*
X186805000Y-69320000D03*
D15*
X173290000Y-74450000D03*
D16*
X175790000Y-74450000D03*
D17*
X160790000Y-113900000D03*
D18*
X154790000Y-115900000D03*
X154790000Y-128100000D03*
X166790000Y-128100000D03*
X166790000Y-115900000D03*
D10*
X149290000Y-77975000D03*
X146790000Y-77975000D03*
X152370000Y-74300000D03*
D11*
X167610000Y-74300000D03*
D19*
X159150000Y-65650000D03*
D20*
X157880000Y-68190000D03*
X156610000Y-65650000D03*
X155340000Y-68190000D03*
X154070000Y-65650000D03*
X152800000Y-68190000D03*
X151530000Y-65650000D03*
X150260000Y-68190000D03*
D21*
X161030000Y-54400000D03*
X158515000Y-55920000D03*
X150895000Y-54400000D03*
X148380000Y-55920000D03*
D22*
X146830000Y-62350000D03*
X162580000Y-62350000D03*
D12*
X167440000Y-66760000D03*
D13*
X167440000Y-69300000D03*
D10*
X152370000Y-79400000D03*
D11*
X167610000Y-79400000D03*
D12*
X171820000Y-69310000D03*
D13*
X174360000Y-69310000D03*
X176900000Y-69310000D03*
X179440000Y-69310000D03*
D14*
X187820000Y-50170000D03*
D23*
X127720000Y-74070000D03*
D10*
X127720000Y-76610000D03*
X127720000Y-79150000D03*
X127720000Y-81690000D03*
X127720000Y-84230000D03*
X127720000Y-86770000D03*
X127720000Y-89310000D03*
X127720000Y-91850000D03*
X127720000Y-94390000D03*
X127720000Y-96930000D03*
X127720000Y-99470000D03*
X127720000Y-102010000D03*
X127720000Y-104550000D03*
X127720000Y-107090000D03*
X127720000Y-109630000D03*
X127720000Y-112170000D03*
X127720000Y-114710000D03*
X127720000Y-117250000D03*
X127720000Y-119790000D03*
X127720000Y-122330000D03*
X127720000Y-124870000D03*
X127720000Y-127410000D03*
X127720000Y-129950000D03*
X127720000Y-132490000D03*
X142960000Y-132490000D03*
X142960000Y-129950000D03*
X142960000Y-127410000D03*
X142960000Y-124870000D03*
X142960000Y-122330000D03*
X142960000Y-119790000D03*
X142960000Y-117250000D03*
X142960000Y-114710000D03*
X142960000Y-112170000D03*
X142960000Y-109630000D03*
X142960000Y-107090000D03*
X142960000Y-104550000D03*
X142960000Y-102010000D03*
X142960000Y-99470000D03*
X142960000Y-96930000D03*
X142960000Y-94390000D03*
X142960000Y-91850000D03*
X142960000Y-89310000D03*
X142960000Y-86770000D03*
X142960000Y-84230000D03*
X142960000Y-81690000D03*
X142960000Y-79150000D03*
X142960000Y-76610000D03*
X142960000Y-74070000D03*
X140420000Y-76610000D03*
X130260000Y-119790000D03*
X132800000Y-119790000D03*
X135340000Y-119790000D03*
X137880000Y-119790000D03*
X140420000Y-119790000D03*
D23*
X130770800Y-80369200D03*
D10*
X130770800Y-82909200D03*
X130770800Y-85449200D03*
X130770800Y-87989200D03*
X130770800Y-90529200D03*
D24*
X140521600Y-87040000D03*
D25*
X138521600Y-87040000D03*
X136521600Y-87040000D03*
X136521600Y-89040000D03*
X138521600Y-89040000D03*
X140521600Y-89040000D03*
X136610000Y-74800000D03*
X134070000Y-74800000D03*
D14*
X187820000Y-138170000D03*
D12*
X120130000Y-90720000D03*
D13*
X120130000Y-93260000D03*
X120130000Y-95800000D03*
X120130000Y-98340000D03*
X120130000Y-100880000D03*
X120130000Y-103420000D03*
X120130000Y-105960000D03*
D23*
X119820000Y-75970000D03*
D11*
X119820000Y-68350000D03*
D26*
X154547426Y-106068371D03*
D27*
X155817426Y-106068371D03*
X157087426Y-106068371D03*
D28*
X119790000Y-119960000D03*
D29*
X119790000Y-117460000D03*
X119790000Y-114960000D03*
X119790000Y-112460000D03*
D26*
X154547426Y-97908371D03*
D27*
X155817426Y-97908371D03*
X157087426Y-97908371D03*
D10*
X148040000Y-96320000D03*
D11*
X148040000Y-81080000D03*
D30*
X119790000Y-129750000D03*
D31*
X119790000Y-127250000D03*
D30*
X119520000Y-83670000D03*
D31*
X119520000Y-81170000D03*
D14*
X117820000Y-138170000D03*
D10*
X149290000Y-74275000D03*
X146790000Y-74275000D03*
D15*
X173290000Y-80325000D03*
D16*
X175790000Y-80325000D03*
D17*
X179790000Y-88472500D03*
D18*
X173790000Y-90472500D03*
X173790000Y-102672500D03*
X185790000Y-102672500D03*
X185790000Y-90472500D03*
D32*
X140190000Y-68820000D03*
D33*
X140190000Y-66820000D03*
X142190000Y-68820000D03*
X142190000Y-66820000D03*
X144190000Y-68820000D03*
X144190000Y-66820000D03*
D34*
X162887426Y-96833371D03*
D35*
X162887426Y-99373371D03*
D15*
X183240000Y-74450000D03*
D16*
X185740000Y-74450000D03*
D15*
X183240000Y-80325000D03*
D16*
X185740000Y-80325000D03*
D12*
X171820000Y-64325000D03*
D13*
X174360000Y-64325000D03*
X176900000Y-64325000D03*
X179440000Y-64325000D03*
D34*
X162887426Y-87768371D03*
D35*
X162887426Y-90308371D03*
D17*
X179790000Y-113900000D03*
D18*
X173790000Y-115900000D03*
X173790000Y-128100000D03*
X185790000Y-128100000D03*
X185790000Y-115900000D03*
D10*
X148040000Y-132920000D03*
D11*
X148040000Y-117680000D03*
D34*
X162887426Y-104508371D03*
D35*
X162887426Y-107048371D03*
D26*
X154547426Y-89108371D03*
D27*
X155817426Y-89108371D03*
X157087426Y-89108371D03*
D36*
X165540000Y-84900000D03*
X165590000Y-86110000D03*
X165660000Y-83280000D03*
D37*
X157580000Y-76620000D02*
X167440000Y-66760000D01*
X137840000Y-76610000D02*
X139110000Y-77880000D01*
X139110000Y-77880000D02*
X143550000Y-77880000D01*
X143550000Y-77880000D02*
X144810000Y-76620000D01*
X127720000Y-76610000D02*
X137840000Y-76610000D01*
X144810000Y-76620000D02*
X157580000Y-76620000D01*
X147990000Y-132250000D02*
X147990000Y-132920000D01*
X171820000Y-69310000D02*
X171820000Y-108420000D01*
X171820000Y-108420000D02*
X148040000Y-132200000D01*
X148040000Y-132200000D02*
X148040000Y-132920000D01*
X150680000Y-114520000D02*
X148040000Y-114520000D01*
X166380000Y-73760000D02*
X166380000Y-111310000D01*
X170240000Y-70840000D02*
X170020000Y-70840000D01*
X167050000Y-73090000D02*
X166380000Y-73760000D01*
X170020000Y-70840000D02*
X167770000Y-73090000D01*
X166380000Y-111310000D02*
X160060000Y-117630000D01*
X160060000Y-117630000D02*
X153790000Y-117630000D01*
X173070000Y-68020000D02*
X170750000Y-68020000D01*
X170750000Y-68020000D02*
X170240000Y-68530000D01*
X170240000Y-68530000D02*
X170240000Y-70840000D01*
X167770000Y-73090000D02*
X167050000Y-73090000D01*
X153790000Y-117630000D02*
X150680000Y-114520000D01*
X174360000Y-69310000D02*
X173070000Y-68020000D01*
X176900000Y-69310000D02*
X175100000Y-67510000D01*
X148040000Y-91280000D02*
X148040000Y-96320000D01*
X168780000Y-70240000D02*
X148040000Y-90980000D01*
X168780000Y-69300000D02*
X168780000Y-70240000D01*
X175100000Y-67510000D02*
X170570000Y-67510000D01*
X170570000Y-67510000D02*
X168780000Y-69300000D01*
X148040000Y-90980000D02*
X148040000Y-91280000D01*
X151025000Y-79235000D02*
X145205000Y-79235000D01*
X153165578Y-77070000D02*
X151225000Y-79010578D01*
X159480000Y-77070000D02*
X153165578Y-77070000D01*
X151225000Y-79010578D02*
X151225000Y-79035000D01*
X167440000Y-69110000D02*
X159480000Y-77070000D01*
X151225000Y-79035000D02*
X151025000Y-79235000D01*
X145205000Y-79235000D02*
X144030000Y-80410000D01*
X131590000Y-78140000D02*
X128730000Y-78140000D01*
X144030000Y-80410000D02*
X133860000Y-80410000D01*
X133860000Y-80410000D02*
X131590000Y-78140000D01*
X128730000Y-78140000D02*
X127720000Y-79150000D01*
X165540000Y-84900000D02*
X156510000Y-84900000D01*
X142960000Y-114630172D02*
X142960000Y-114710000D01*
X153520000Y-87890000D02*
X153520000Y-104070172D01*
X156510000Y-84900000D02*
X153520000Y-87890000D01*
X153520000Y-104070172D02*
X142960000Y-114630172D01*
X144080000Y-75880000D02*
X143530000Y-75330000D01*
X136891996Y-76168004D02*
X129218004Y-76168004D01*
X157280000Y-75880000D02*
X144080000Y-75880000D01*
X177880000Y-60580000D02*
X170360000Y-60580000D01*
X179410000Y-59050000D02*
X177880000Y-60580000D01*
X143530000Y-75330000D02*
X137730000Y-75330000D01*
X131345000Y-108175000D02*
X142960000Y-119790000D01*
X126895000Y-108175000D02*
X131345000Y-108175000D01*
X165650000Y-67510000D02*
X157280000Y-75880000D01*
X129218004Y-76168004D02*
X128470000Y-75420000D01*
X126590000Y-75750000D02*
X126590000Y-107870000D01*
X126590000Y-107870000D02*
X126895000Y-108175000D01*
X165650000Y-65290000D02*
X165650000Y-67510000D01*
X137730000Y-75330000D02*
X136891996Y-76168004D01*
X126920000Y-75420000D02*
X126590000Y-75750000D01*
X170360000Y-60580000D02*
X165650000Y-65290000D01*
X128470000Y-75420000D02*
X126920000Y-75420000D01*
X162245797Y-86110000D02*
X165590000Y-86110000D01*
X142960000Y-117250000D02*
X153141629Y-107068371D01*
X153141629Y-107068371D02*
X153141629Y-105028371D01*
X165590000Y-86110000D02*
X165590000Y-86100000D01*
X161540000Y-96630000D02*
X161540000Y-86815797D01*
X165590000Y-86100000D02*
X165580000Y-86090000D01*
X161540000Y-86815797D02*
X162245797Y-86110000D01*
X153141629Y-105028371D02*
X161540000Y-96630000D01*
X165720000Y-83270000D02*
X165720000Y-83260000D01*
X165660000Y-83280000D02*
X165730000Y-83280000D01*
X154560000Y-85660000D02*
X156940000Y-83280000D01*
X142960000Y-112170000D02*
X152410000Y-102720000D01*
X152410000Y-102720000D02*
X152410000Y-101690000D01*
X152410000Y-87810000D02*
X154560000Y-85660000D01*
X156940000Y-83280000D02*
X165660000Y-83280000D01*
X165730000Y-83280000D02*
X165720000Y-83270000D01*
X152410000Y-101690000D02*
X152410000Y-87810000D01*
X186805000Y-69190000D02*
X185740000Y-70255000D01*
X185740000Y-70255000D02*
X185740000Y-74475000D01*
X186805000Y-59030000D02*
X186805000Y-69190000D01*
X184265000Y-69190000D02*
X184265000Y-73450000D01*
X184265000Y-73450000D02*
X183240000Y-74475000D01*
X184265000Y-59030000D02*
X184265000Y-69190000D01*
X155478413Y-66660000D02*
X158140000Y-66660000D01*
X139243200Y-70275000D02*
X138210000Y-69241800D01*
X158140000Y-66660000D02*
X159150000Y-65650000D01*
X138210000Y-68820000D02*
X140190000Y-68820000D01*
X152986800Y-70275000D02*
X154356000Y-68905800D01*
X154356000Y-68905800D02*
X154356000Y-67782413D01*
X154356000Y-67782413D02*
X155478413Y-66660000D01*
X138210000Y-69241800D02*
X138210000Y-68820000D01*
X139243200Y-70275000D02*
X152986800Y-70275000D01*
X157470001Y-67780001D02*
X157880000Y-68190000D01*
X154724200Y-69174000D02*
X156896000Y-69174000D01*
X153173200Y-70725000D02*
X154724200Y-69174000D01*
X136930000Y-66830000D02*
X136930000Y-68598200D01*
X140190000Y-66820000D02*
X136940000Y-66820000D01*
X136940000Y-66820000D02*
X136930000Y-66830000D01*
X136930000Y-68598200D02*
X139056800Y-70725000D01*
X139056800Y-70725000D02*
X153173200Y-70725000D01*
X156896000Y-69174000D02*
X157880000Y-68190000D01*
M02*
