M48
; DRILL file {KiCad 8.0.1} date 2024-11-17T22:05:55-0500
; FORMAT={-:-/ absolute / metric / decimal}
; #@! TF.CreationDate,2024-11-17T22:05:55-05:00
; #@! TF.GenerationSoftware,Kicad,Pcbnew,8.0.1
; #@! TF.FileFunction,Plated,1,4,PTH
FMAT,2
METRIC
; #@! TA.AperFunction,Plated,PTH,ViaDrill
T1C0.300
; #@! TA.AperFunction,Plated,PTH,ComponentDrill
T2C0.750
; #@! TA.AperFunction,Plated,PTH,ComponentDrill
T3C0.800
; #@! TA.AperFunction,Plated,PTH,ComponentDrill
T4C0.890
; #@! TA.AperFunction,Plated,PTH,ComponentDrill
T5C0.900
; #@! TA.AperFunction,Plated,PTH,ComponentDrill
T6C0.950
; #@! TA.AperFunction,Plated,PTH,ComponentDrill
T7C1.000
; #@! TA.AperFunction,Plated,PTH,ComponentDrill
T8C1.020
; #@! TA.AperFunction,Plated,PTH,ComponentDrill
T9C1.100
; #@! TA.AperFunction,Plated,PTH,ComponentDrill
T10C1.300
; #@! TA.AperFunction,Plated,PTH,ComponentDrill
T11C1.600
; #@! TA.AperFunction,Plated,PTH,ComponentDrill
T12C3.200
%
G90
G05
T1
X165.54Y-84.9
X165.59Y-86.11
X165.66Y-83.28
T2
X154.547Y-89.108
X154.547Y-97.908
X154.547Y-106.068
X155.817Y-89.108
X155.817Y-97.908
X155.817Y-106.068
X157.087Y-89.108
X157.087Y-97.908
X157.087Y-106.068
T3
X119.82Y-68.35
X119.82Y-75.97
X134.07Y-74.8
X136.522Y-87.04
X136.522Y-89.04
X136.61Y-74.8
X138.522Y-87.04
X138.522Y-89.04
X140.19Y-66.82
X140.19Y-68.82
X140.522Y-87.04
X140.522Y-89.04
X142.19Y-66.82
X142.19Y-68.82
X144.19Y-66.82
X144.19Y-68.82
X146.79Y-74.275
X146.79Y-77.975
X148.04Y-81.08
X148.04Y-96.32
X148.04Y-99.28
X148.04Y-114.52
X148.04Y-117.68
X148.04Y-132.92
X149.29Y-74.275
X149.29Y-77.975
X152.37Y-74.3
X152.37Y-79.4
X167.61Y-74.3
X167.61Y-79.4
T4
X150.26Y-68.19
X151.53Y-65.65
X152.8Y-68.19
X154.07Y-65.65
X155.34Y-68.19
X156.61Y-65.65
X157.88Y-68.19
X159.15Y-65.65
T5
X162.887Y-87.768
X162.887Y-90.308
X162.887Y-96.833
X162.887Y-99.373
X162.887Y-104.508
X162.887Y-107.048
T6
X119.79Y-112.46
X119.79Y-114.96
X119.79Y-117.46
X119.79Y-119.96
T7
X119.52Y-81.17
X119.52Y-83.67
X119.79Y-127.25
X119.79Y-129.75
X120.13Y-90.72
X120.13Y-93.26
X120.13Y-95.8
X120.13Y-98.34
X120.13Y-100.88
X120.13Y-103.42
X120.13Y-105.96
X167.44Y-66.76
X167.44Y-69.3
X171.82Y-59.05
X171.82Y-64.325
X171.82Y-69.31
X173.29Y-74.45
X173.29Y-80.325
X174.36Y-59.05
X174.36Y-64.325
X174.36Y-69.31
X175.79Y-74.45
X175.79Y-80.325
X176.9Y-59.05
X176.9Y-64.325
X176.9Y-69.31
X179.44Y-59.05
X179.44Y-64.325
X179.44Y-69.31
X183.24Y-74.45
X183.24Y-80.325
X184.265Y-59.16
X184.265Y-61.7
X184.265Y-64.24
X184.265Y-66.78
X184.265Y-69.32
X185.74Y-74.45
X185.74Y-80.325
X186.805Y-59.16
X186.805Y-61.7
X186.805Y-64.24
X186.805Y-66.78
X186.805Y-69.32
T8
X148.38Y-55.92
X150.895Y-54.4
X158.515Y-55.92
X161.03Y-54.4
T9
X127.72Y-74.07
X127.72Y-76.61
X127.72Y-79.15
X127.72Y-81.69
X127.72Y-84.23
X127.72Y-86.77
X127.72Y-89.31
X127.72Y-91.85
X127.72Y-94.39
X127.72Y-96.93
X127.72Y-99.47
X127.72Y-102.01
X127.72Y-104.55
X127.72Y-107.09
X127.72Y-109.63
X127.72Y-112.17
X127.72Y-114.71
X127.72Y-117.25
X127.72Y-119.79
X127.72Y-122.33
X127.72Y-124.87
X127.72Y-127.41
X127.72Y-129.95
X127.72Y-132.49
X130.26Y-119.79
X130.771Y-80.369
X130.771Y-82.909
X130.771Y-85.449
X130.771Y-87.989
X130.771Y-90.529
X132.8Y-119.79
X135.34Y-119.79
X137.88Y-119.79
X140.42Y-76.61
X140.42Y-119.79
X142.96Y-74.07
X142.96Y-76.61
X142.96Y-79.15
X142.96Y-81.69
X142.96Y-84.23
X142.96Y-86.77
X142.96Y-89.31
X142.96Y-91.85
X142.96Y-94.39
X142.96Y-96.93
X142.96Y-99.47
X142.96Y-102.01
X142.96Y-104.55
X142.96Y-107.09
X142.96Y-109.63
X142.96Y-112.17
X142.96Y-114.71
X142.96Y-117.25
X142.96Y-119.79
X142.96Y-122.33
X142.96Y-124.87
X142.96Y-127.41
X142.96Y-129.95
X142.96Y-132.49
T10
X154.79Y-115.9
X154.79Y-128.1
X160.79Y-113.9
X166.79Y-115.9
X166.79Y-128.1
X173.79Y-90.472
X173.79Y-102.672
X173.79Y-115.9
X173.79Y-128.1
X179.79Y-88.472
X179.79Y-113.9
X185.79Y-90.472
X185.79Y-102.672
X185.79Y-115.9
X185.79Y-128.1
T11
X146.83Y-62.35
X162.58Y-62.35
T12
X117.82Y-138.17
X117.92Y-50.17
X187.82Y-50.17
X187.82Y-138.17
M30
