%TF.GenerationSoftware,KiCad,Pcbnew,8.0.6*%
%TF.CreationDate,2024-11-20T18:40:54-05:00*%
%TF.ProjectId,Main_4layer,4d61696e-5f34-46c6-9179-65722e6b6963,0*%
%TF.SameCoordinates,Original*%
%TF.FileFunction,Soldermask,Top*%
%TF.FilePolarity,Negative*%
%FSLAX46Y46*%
G04 Gerber Fmt 4.6, Leading zero omitted, Abs format (unit mm)*
G04 Created by KiCad (PCBNEW 8.0.6) date 2024-11-20 18:40:54*
%MOMM*%
%LPD*%
G01*
G04 APERTURE LIST*
G04 Aperture macros list*
%AMRoundRect*
0 Rectangle with rounded corners*
0 $1 Rounding radius*
0 $2 $3 $4 $5 $6 $7 $8 $9 X,Y pos of 4 corners*
0 Add a 4 corners polygon primitive as box body*
4,1,4,$2,$3,$4,$5,$6,$7,$8,$9,$2,$3,0*
0 Add four circle primitives for the rounded corners*
1,1,$1+$1,$2,$3*
1,1,$1+$1,$4,$5*
1,1,$1+$1,$6,$7*
1,1,$1+$1,$8,$9*
0 Add four rect primitives between the rounded corners*
20,1,$1+$1,$2,$3,$4,$5,0*
20,1,$1+$1,$4,$5,$6,$7,0*
20,1,$1+$1,$6,$7,$8,$9,0*
20,1,$1+$1,$8,$9,$2,$3,0*%
G04 Aperture macros list end*
%ADD10C,1.600000*%
%ADD11O,1.600000X1.600000*%
%ADD12R,1.700000X1.700000*%
%ADD13O,1.700000X1.700000*%
%ADD14C,6.400000*%
%ADD15RoundRect,0.250000X-0.600000X-0.750000X0.600000X-0.750000X0.600000X0.750000X-0.600000X0.750000X0*%
%ADD16O,1.700000X2.000000*%
%ADD17R,2.500000X2.500000*%
%ADD18O,2.500000X2.500000*%
%ADD19C,3.200000*%
%ADD20RoundRect,0.102000X-0.699000X-0.699000X0.699000X-0.699000X0.699000X0.699000X-0.699000X0.699000X0*%
%ADD21C,1.602000*%
%ADD22C,1.734000*%
%ADD23C,2.604000*%
%ADD24R,1.600000X1.600000*%
%ADD25R,1.300000X1.300000*%
%ADD26C,1.300000*%
%ADD27R,1.050000X1.500000*%
%ADD28O,1.050000X1.500000*%
%ADD29RoundRect,0.250000X0.725000X-0.600000X0.725000X0.600000X-0.725000X0.600000X-0.725000X-0.600000X0*%
%ADD30O,1.950000X1.700000*%
%ADD31RoundRect,0.250000X0.750000X-0.600000X0.750000X0.600000X-0.750000X0.600000X-0.750000X-0.600000X0*%
%ADD32O,2.000000X1.700000*%
%ADD33R,1.350000X1.350000*%
%ADD34O,1.350000X1.350000*%
%ADD35R,1.800000X1.800000*%
%ADD36C,1.800000*%
G04 APERTURE END LIST*
D10*
X148040000Y-114520000D03*
D11*
X148040000Y-99280000D03*
D12*
X171820000Y-59050000D03*
D13*
X174360000Y-59050000D03*
X176900000Y-59050000D03*
X179440000Y-59050000D03*
D14*
X117920000Y-50170000D03*
D12*
X184265000Y-59160000D03*
D13*
X186805000Y-59160000D03*
X184265000Y-61700000D03*
X186805000Y-61700000D03*
X184265000Y-64240000D03*
X186805000Y-64240000D03*
X184265000Y-66780000D03*
X186805000Y-66780000D03*
X184265000Y-69320000D03*
X186805000Y-69320000D03*
D15*
X173290000Y-74450000D03*
D16*
X175790000Y-74450000D03*
D17*
X160790000Y-113900000D03*
D18*
X154790000Y-115900000D03*
X154790000Y-128100000D03*
X166790000Y-128100000D03*
X166790000Y-115900000D03*
D10*
X149290000Y-77975000D03*
X146790000Y-77975000D03*
X152370000Y-74300000D03*
D11*
X167610000Y-74300000D03*
D19*
X148990000Y-59300000D03*
X160420000Y-59300000D03*
D20*
X159150000Y-65650000D03*
D21*
X157880000Y-68190000D03*
X156610000Y-65650000D03*
X155340000Y-68190000D03*
X154070000Y-65650000D03*
X152800000Y-68190000D03*
X151530000Y-65650000D03*
X150260000Y-68190000D03*
D22*
X161030000Y-54400000D03*
X158515000Y-55920000D03*
X150895000Y-54400000D03*
X148380000Y-55920000D03*
D23*
X146830000Y-62350000D03*
X162580000Y-62350000D03*
D12*
X167440000Y-66760000D03*
D13*
X167440000Y-69300000D03*
D10*
X152370000Y-79400000D03*
D11*
X167610000Y-79400000D03*
D12*
X171820000Y-69310000D03*
D13*
X174360000Y-69310000D03*
X176900000Y-69310000D03*
X179440000Y-69310000D03*
D14*
X187820000Y-50170000D03*
D24*
X127720000Y-74070000D03*
D10*
X127720000Y-76610000D03*
X127720000Y-79150000D03*
X127720000Y-81690000D03*
X127720000Y-84230000D03*
X127720000Y-86770000D03*
X127720000Y-89310000D03*
X127720000Y-91850000D03*
X127720000Y-94390000D03*
X127720000Y-96930000D03*
X127720000Y-99470000D03*
X127720000Y-102010000D03*
X127720000Y-104550000D03*
X127720000Y-107090000D03*
X127720000Y-109630000D03*
X127720000Y-112170000D03*
X127720000Y-114710000D03*
X127720000Y-117250000D03*
X127720000Y-119790000D03*
X127720000Y-122330000D03*
X127720000Y-124870000D03*
X127720000Y-127410000D03*
X127720000Y-129950000D03*
X127720000Y-132490000D03*
X142960000Y-132490000D03*
X142960000Y-129950000D03*
X142960000Y-127410000D03*
X142960000Y-124870000D03*
X142960000Y-122330000D03*
X142960000Y-119790000D03*
X142960000Y-117250000D03*
X142960000Y-114710000D03*
X142960000Y-112170000D03*
X142960000Y-109630000D03*
X142960000Y-107090000D03*
X142960000Y-104550000D03*
X142960000Y-102010000D03*
X142960000Y-99470000D03*
X142960000Y-96930000D03*
X142960000Y-94390000D03*
X142960000Y-91850000D03*
X142960000Y-89310000D03*
X142960000Y-86770000D03*
X142960000Y-84230000D03*
X142960000Y-81690000D03*
X142960000Y-79150000D03*
X142960000Y-76610000D03*
X142960000Y-74070000D03*
X140420000Y-76610000D03*
X130260000Y-119790000D03*
X132800000Y-119790000D03*
X135340000Y-119790000D03*
X137880000Y-119790000D03*
X140420000Y-119790000D03*
D24*
X130770800Y-80369200D03*
D10*
X130770800Y-82909200D03*
X130770800Y-85449200D03*
X130770800Y-87989200D03*
X130770800Y-90529200D03*
D25*
X140521600Y-87040000D03*
D26*
X138521600Y-87040000D03*
X136521600Y-87040000D03*
X136521600Y-89040000D03*
X138521600Y-89040000D03*
X140521600Y-89040000D03*
X136610000Y-74800000D03*
X134070000Y-74800000D03*
D14*
X187820000Y-138170000D03*
D12*
X120130000Y-90720000D03*
D13*
X120130000Y-93260000D03*
X120130000Y-95800000D03*
X120130000Y-98340000D03*
X120130000Y-100880000D03*
X120130000Y-103420000D03*
X120130000Y-105960000D03*
D24*
X119820000Y-75970000D03*
D11*
X119820000Y-68350000D03*
D27*
X154547426Y-106068371D03*
D28*
X155817426Y-106068371D03*
X157087426Y-106068371D03*
D29*
X119790000Y-119960000D03*
D30*
X119790000Y-117460000D03*
X119790000Y-114960000D03*
X119790000Y-112460000D03*
D27*
X154547426Y-97908371D03*
D28*
X155817426Y-97908371D03*
X157087426Y-97908371D03*
D10*
X148040000Y-96320000D03*
D11*
X148040000Y-81080000D03*
D31*
X119790000Y-129750000D03*
D32*
X119790000Y-127250000D03*
D31*
X119520000Y-83670000D03*
D32*
X119520000Y-81170000D03*
D14*
X117820000Y-138170000D03*
D10*
X149290000Y-74275000D03*
X146790000Y-74275000D03*
D15*
X173290000Y-80325000D03*
D16*
X175790000Y-80325000D03*
D17*
X179790000Y-88472500D03*
D18*
X173790000Y-90472500D03*
X173790000Y-102672500D03*
X185790000Y-102672500D03*
X185790000Y-90472500D03*
D33*
X140190000Y-68820000D03*
D34*
X140190000Y-66820000D03*
X142190000Y-68820000D03*
X142190000Y-66820000D03*
X144190000Y-68820000D03*
X144190000Y-66820000D03*
D35*
X162887426Y-96833371D03*
D36*
X162887426Y-99373371D03*
D15*
X183240000Y-74450000D03*
D16*
X185740000Y-74450000D03*
D15*
X183240000Y-80325000D03*
D16*
X185740000Y-80325000D03*
D12*
X171820000Y-64325000D03*
D13*
X174360000Y-64325000D03*
X176900000Y-64325000D03*
X179440000Y-64325000D03*
D35*
X162887426Y-87768371D03*
D36*
X162887426Y-90308371D03*
D17*
X179790000Y-113900000D03*
D18*
X173790000Y-115900000D03*
X173790000Y-128100000D03*
X185790000Y-128100000D03*
X185790000Y-115900000D03*
D10*
X148040000Y-132920000D03*
D11*
X148040000Y-117680000D03*
D35*
X162887426Y-104508371D03*
D36*
X162887426Y-107048371D03*
D27*
X154547426Y-89108371D03*
D28*
X155817426Y-89108371D03*
X157087426Y-89108371D03*
M02*
