%TF.GenerationSoftware,KiCad,Pcbnew,8.0.1*%
%TF.CreationDate,2024-11-17T22:04:51-05:00*%
%TF.ProjectId,Main_4layer,4d61696e-5f34-46c6-9179-65722e6b6963,0*%
%TF.SameCoordinates,Original*%
%TF.FileFunction,Copper,L1,Top*%
%TF.FilePolarity,Positive*%
%FSLAX46Y46*%
G04 Gerber Fmt 4.6, Leading zero omitted, Abs format (unit mm)*
G04 Created by KiCad (PCBNEW 8.0.1) date 2024-11-17 22:04:51*
%MOMM*%
%LPD*%
G01*
G04 APERTURE LIST*
G04 Aperture macros list*
%AMRoundRect*
0 Rectangle with rounded corners*
0 $1 Rounding radius*
0 $2 $3 $4 $5 $6 $7 $8 $9 X,Y pos of 4 corners*
0 Add a 4 corners polygon primitive as box body*
4,1,4,$2,$3,$4,$5,$6,$7,$8,$9,$2,$3,0*
0 Add four circle primitives for the rounded corners*
1,1,$1+$1,$2,$3*
1,1,$1+$1,$4,$5*
1,1,$1+$1,$6,$7*
1,1,$1+$1,$8,$9*
0 Add four rect primitives between the rounded corners*
20,1,$1+$1,$2,$3,$4,$5,0*
20,1,$1+$1,$4,$5,$6,$7,0*
20,1,$1+$1,$6,$7,$8,$9,0*
20,1,$1+$1,$8,$9,$2,$3,0*%
G04 Aperture macros list end*
%TA.AperFunction,ComponentPad*%
%ADD10C,1.600000*%
%TD*%
%TA.AperFunction,ComponentPad*%
%ADD11O,1.600000X1.600000*%
%TD*%
%TA.AperFunction,ComponentPad*%
%ADD12R,1.700000X1.700000*%
%TD*%
%TA.AperFunction,ComponentPad*%
%ADD13O,1.700000X1.700000*%
%TD*%
%TA.AperFunction,ComponentPad*%
%ADD14C,6.400000*%
%TD*%
%TA.AperFunction,ComponentPad*%
%ADD15RoundRect,0.250000X-0.600000X-0.750000X0.600000X-0.750000X0.600000X0.750000X-0.600000X0.750000X0*%
%TD*%
%TA.AperFunction,ComponentPad*%
%ADD16O,1.700000X2.000000*%
%TD*%
%TA.AperFunction,ComponentPad*%
%ADD17R,2.500000X2.500000*%
%TD*%
%TA.AperFunction,ComponentPad*%
%ADD18O,2.500000X2.500000*%
%TD*%
%TA.AperFunction,ComponentPad*%
%ADD19R,1.398000X1.398000*%
%TD*%
%TA.AperFunction,ComponentPad*%
%ADD20C,1.398000*%
%TD*%
%TA.AperFunction,ComponentPad*%
%ADD21C,1.530000*%
%TD*%
%TA.AperFunction,ComponentPad*%
%ADD22C,2.400000*%
%TD*%
%TA.AperFunction,ComponentPad*%
%ADD23R,1.600000X1.600000*%
%TD*%
%TA.AperFunction,ComponentPad*%
%ADD24R,1.300000X1.300000*%
%TD*%
%TA.AperFunction,ComponentPad*%
%ADD25C,1.300000*%
%TD*%
%TA.AperFunction,ComponentPad*%
%ADD26R,1.050000X1.500000*%
%TD*%
%TA.AperFunction,ComponentPad*%
%ADD27O,1.050000X1.500000*%
%TD*%
%TA.AperFunction,ComponentPad*%
%ADD28RoundRect,0.250000X0.725000X-0.600000X0.725000X0.600000X-0.725000X0.600000X-0.725000X-0.600000X0*%
%TD*%
%TA.AperFunction,ComponentPad*%
%ADD29O,1.950000X1.700000*%
%TD*%
%TA.AperFunction,ComponentPad*%
%ADD30RoundRect,0.250000X0.750000X-0.600000X0.750000X0.600000X-0.750000X0.600000X-0.750000X-0.600000X0*%
%TD*%
%TA.AperFunction,ComponentPad*%
%ADD31O,2.000000X1.700000*%
%TD*%
%TA.AperFunction,ComponentPad*%
%ADD32R,1.350000X1.350000*%
%TD*%
%TA.AperFunction,ComponentPad*%
%ADD33O,1.350000X1.350000*%
%TD*%
%TA.AperFunction,ComponentPad*%
%ADD34R,1.800000X1.800000*%
%TD*%
%TA.AperFunction,ComponentPad*%
%ADD35C,1.800000*%
%TD*%
%TA.AperFunction,ViaPad*%
%ADD36C,0.700000*%
%TD*%
%TA.AperFunction,Conductor*%
%ADD37C,0.250000*%
%TD*%
G04 APERTURE END LIST*
D10*
X148040000Y-114520000D03*
D11*
X148040000Y-99280000D03*
D12*
X171820000Y-59050000D03*
D13*
X174360000Y-59050000D03*
X176900000Y-59050000D03*
X179440000Y-59050000D03*
D14*
X117920000Y-50170000D03*
D12*
X184265000Y-59160000D03*
D13*
X186805000Y-59160000D03*
X184265000Y-61700000D03*
X186805000Y-61700000D03*
X184265000Y-64240000D03*
X186805000Y-64240000D03*
X184265000Y-66780000D03*
X186805000Y-66780000D03*
X184265000Y-69320000D03*
X186805000Y-69320000D03*
D15*
X173290000Y-74450000D03*
D16*
X175790000Y-74450000D03*
D17*
X160790000Y-113900000D03*
D18*
X154790000Y-115900000D03*
X154790000Y-128100000D03*
X166790000Y-128100000D03*
X166790000Y-115900000D03*
D10*
X149290000Y-77975000D03*
X146790000Y-77975000D03*
X152370000Y-74300000D03*
D11*
X167610000Y-74300000D03*
D19*
X159150000Y-65650000D03*
D20*
X157880000Y-68190000D03*
X156610000Y-65650000D03*
X155340000Y-68190000D03*
X154070000Y-65650000D03*
X152800000Y-68190000D03*
X151530000Y-65650000D03*
X150260000Y-68190000D03*
D21*
X161030000Y-54400000D03*
X158515000Y-55920000D03*
X150895000Y-54400000D03*
X148380000Y-55920000D03*
D22*
X146830000Y-62350000D03*
X162580000Y-62350000D03*
D12*
X167440000Y-66760000D03*
D13*
X167440000Y-69300000D03*
D10*
X152370000Y-79400000D03*
D11*
X167610000Y-79400000D03*
D12*
X171820000Y-69310000D03*
D13*
X174360000Y-69310000D03*
X176900000Y-69310000D03*
X179440000Y-69310000D03*
D14*
X187820000Y-50170000D03*
D23*
X127720000Y-74070000D03*
D10*
X127720000Y-76610000D03*
X127720000Y-79150000D03*
X127720000Y-81690000D03*
X127720000Y-84230000D03*
X127720000Y-86770000D03*
X127720000Y-89310000D03*
X127720000Y-91850000D03*
X127720000Y-94390000D03*
X127720000Y-96930000D03*
X127720000Y-99470000D03*
X127720000Y-102010000D03*
X127720000Y-104550000D03*
X127720000Y-107090000D03*
X127720000Y-109630000D03*
X127720000Y-112170000D03*
X127720000Y-114710000D03*
X127720000Y-117250000D03*
X127720000Y-119790000D03*
X127720000Y-122330000D03*
X127720000Y-124870000D03*
X127720000Y-127410000D03*
X127720000Y-129950000D03*
X127720000Y-132490000D03*
X142960000Y-132490000D03*
X142960000Y-129950000D03*
X142960000Y-127410000D03*
X142960000Y-124870000D03*
X142960000Y-122330000D03*
X142960000Y-119790000D03*
X142960000Y-117250000D03*
X142960000Y-114710000D03*
X142960000Y-112170000D03*
X142960000Y-109630000D03*
X142960000Y-107090000D03*
X142960000Y-104550000D03*
X142960000Y-102010000D03*
X142960000Y-99470000D03*
X142960000Y-96930000D03*
X142960000Y-94390000D03*
X142960000Y-91850000D03*
X142960000Y-89310000D03*
X142960000Y-86770000D03*
X142960000Y-84230000D03*
X142960000Y-81690000D03*
X142960000Y-79150000D03*
X142960000Y-76610000D03*
X142960000Y-74070000D03*
X140420000Y-76610000D03*
X130260000Y-119790000D03*
X132800000Y-119790000D03*
X135340000Y-119790000D03*
X137880000Y-119790000D03*
X140420000Y-119790000D03*
D23*
X130770800Y-80369200D03*
D10*
X130770800Y-82909200D03*
X130770800Y-85449200D03*
X130770800Y-87989200D03*
X130770800Y-90529200D03*
D24*
X140521600Y-87040000D03*
D25*
X138521600Y-87040000D03*
X136521600Y-87040000D03*
X136521600Y-89040000D03*
X138521600Y-89040000D03*
X140521600Y-89040000D03*
X136610000Y-74800000D03*
X134070000Y-74800000D03*
D14*
X187820000Y-138170000D03*
D12*
X120130000Y-90720000D03*
D13*
X120130000Y-93260000D03*
X120130000Y-95800000D03*
X120130000Y-98340000D03*
X120130000Y-100880000D03*
X120130000Y-103420000D03*
X120130000Y-105960000D03*
D23*
X119820000Y-75970000D03*
D11*
X119820000Y-68350000D03*
D26*
X154547426Y-106068371D03*
D27*
X155817426Y-106068371D03*
X157087426Y-106068371D03*
D28*
X119790000Y-119960000D03*
D29*
X119790000Y-117460000D03*
X119790000Y-114960000D03*
X119790000Y-112460000D03*
D26*
X154547426Y-97908371D03*
D27*
X155817426Y-97908371D03*
X157087426Y-97908371D03*
D10*
X148040000Y-96320000D03*
D11*
X148040000Y-81080000D03*
D30*
X119790000Y-129750000D03*
D31*
X119790000Y-127250000D03*
D30*
X119520000Y-83670000D03*
D31*
X119520000Y-81170000D03*
D14*
X117820000Y-138170000D03*
D10*
X149290000Y-74275000D03*
X146790000Y-74275000D03*
D15*
X173290000Y-80325000D03*
D16*
X175790000Y-80325000D03*
D17*
X179790000Y-88472500D03*
D18*
X173790000Y-90472500D03*
X173790000Y-102672500D03*
X185790000Y-102672500D03*
X185790000Y-90472500D03*
D32*
X140190000Y-68820000D03*
D33*
X140190000Y-66820000D03*
X142190000Y-68820000D03*
X142190000Y-66820000D03*
X144190000Y-68820000D03*
X144190000Y-66820000D03*
D34*
X162887426Y-96833371D03*
D35*
X162887426Y-99373371D03*
D15*
X183240000Y-74450000D03*
D16*
X185740000Y-74450000D03*
D15*
X183240000Y-80325000D03*
D16*
X185740000Y-80325000D03*
D12*
X171820000Y-64325000D03*
D13*
X174360000Y-64325000D03*
X176900000Y-64325000D03*
X179440000Y-64325000D03*
D34*
X162887426Y-87768371D03*
D35*
X162887426Y-90308371D03*
D17*
X179790000Y-113900000D03*
D18*
X173790000Y-115900000D03*
X173790000Y-128100000D03*
X185790000Y-128100000D03*
X185790000Y-115900000D03*
D10*
X148040000Y-132920000D03*
D11*
X148040000Y-117680000D03*
D34*
X162887426Y-104508371D03*
D35*
X162887426Y-107048371D03*
D26*
X154547426Y-89108371D03*
D27*
X155817426Y-89108371D03*
X157087426Y-89108371D03*
D36*
X165540000Y-84900000D03*
X165590000Y-86110000D03*
X165660000Y-83280000D03*
D37*
X146790000Y-77900000D02*
X146790000Y-77975000D01*
X158357426Y-90308371D02*
X157157426Y-89108371D01*
X175982032Y-90472500D02*
X185790000Y-90472500D01*
X162887426Y-90308371D02*
X158357426Y-90308371D01*
X174432032Y-88922500D02*
X175982032Y-90472500D01*
X162887426Y-90308371D02*
X164273297Y-88922500D01*
X164273297Y-88922500D02*
X174432032Y-88922500D01*
X147410000Y-95180000D02*
X166297500Y-95180000D01*
X119790000Y-119960000D02*
X126110000Y-113640000D01*
X126110000Y-112110000D02*
X127310000Y-110910000D01*
X128870000Y-110690000D02*
X128650000Y-110910000D01*
X126110000Y-113640000D02*
X126110000Y-112110000D01*
X166297500Y-95180000D02*
X173790000Y-102672500D01*
X146950000Y-95640000D02*
X147410000Y-95180000D01*
X127400000Y-110910000D02*
X127310000Y-110910000D01*
X128650000Y-110910000D02*
X127400000Y-110910000D01*
X141690000Y-96275074D02*
X142325074Y-95640000D01*
X142325074Y-95640000D02*
X146950000Y-95640000D01*
X128870000Y-110690000D02*
X141690000Y-97870000D01*
X141690000Y-97870000D02*
X141690000Y-96275074D01*
X161622426Y-97908371D02*
X163087426Y-99373371D01*
X157087426Y-97908371D02*
X161622426Y-97908371D01*
X175614055Y-111900000D02*
X163087426Y-99373371D01*
X185590000Y-115900000D02*
X181590000Y-111900000D01*
X181590000Y-111900000D02*
X175614055Y-111900000D01*
X119150000Y-111140000D02*
X117410000Y-112880000D01*
X117410000Y-129920000D02*
X122440000Y-134950000D01*
X120450000Y-111140000D02*
X119150000Y-111140000D01*
X147790000Y-134950000D02*
X150000000Y-132740000D01*
X150000000Y-132740000D02*
X168950000Y-132740000D01*
X117410000Y-112880000D02*
X117410000Y-129920000D01*
X168950000Y-132740000D02*
X173590000Y-128100000D01*
X122440000Y-134950000D02*
X147790000Y-134950000D01*
X119830000Y-117460000D02*
X121210000Y-116080000D01*
X121210000Y-116080000D02*
X121210000Y-111900000D01*
X121210000Y-111900000D02*
X120450000Y-111140000D01*
X151670000Y-131220000D02*
X154790000Y-128100000D01*
X127230000Y-131220000D02*
X151670000Y-131220000D01*
X118240000Y-116550000D02*
X118240000Y-122025634D01*
X126020000Y-130010000D02*
X127230000Y-131220000D01*
X118240000Y-122025634D02*
X126020000Y-129805634D01*
X119790000Y-114960000D02*
X119790000Y-115000000D01*
X119790000Y-115000000D02*
X118240000Y-116550000D01*
X126020000Y-129805634D02*
X126020000Y-130010000D01*
X162307426Y-106068371D02*
X163287426Y-107048371D01*
X157157426Y-106068371D02*
X162307426Y-106068371D01*
X166790000Y-115900000D02*
X166790000Y-110550945D01*
X166790000Y-110550945D02*
X163287426Y-107048371D01*
X155325000Y-68190000D02*
X155340000Y-68190000D01*
X155340000Y-68190000D02*
X156328535Y-68190000D01*
X156328535Y-68190000D02*
X157780000Y-66738535D01*
X157780000Y-65180000D02*
X157110000Y-64510000D01*
X149240000Y-74275000D02*
X155325000Y-68190000D01*
X157780000Y-66738535D02*
X157780000Y-65180000D01*
X157110000Y-64510000D02*
X155210000Y-64510000D01*
X155210000Y-64510000D02*
X154070000Y-65650000D01*
X186460000Y-117680000D02*
X148040000Y-117680000D01*
X187500000Y-116640000D02*
X186460000Y-117680000D01*
X155887426Y-89108371D02*
X155887426Y-89333371D01*
X158254055Y-91700000D02*
X167090000Y-91700000D01*
X155887426Y-89333371D02*
X158254055Y-91700000D01*
X167090000Y-91700000D02*
X187500000Y-112110000D01*
X187500000Y-112110000D02*
X187500000Y-116640000D01*
X155050797Y-99280000D02*
X155817426Y-98513371D01*
X155817426Y-98513371D02*
X155817426Y-97908371D01*
X147990000Y-99280000D02*
X155050797Y-99280000D01*
X146410000Y-98560000D02*
X146410000Y-99910000D01*
X146410000Y-99910000D02*
X147200000Y-100700000D01*
X173080000Y-104380000D02*
X164348371Y-95648371D01*
X175580000Y-103300000D02*
X174500000Y-104380000D01*
X148040000Y-81080000D02*
X148040000Y-87350000D01*
X149170000Y-97860000D02*
X147110000Y-97860000D01*
X151449055Y-100700000D02*
X155817426Y-105068371D01*
X164348371Y-95648371D02*
X163860000Y-95648371D01*
X175580000Y-102050000D02*
X175580000Y-103300000D01*
X155020000Y-94330000D02*
X167860000Y-94330000D01*
X148040000Y-87350000D02*
X155020000Y-94330000D01*
X167860000Y-94330000D02*
X175580000Y-102050000D01*
X155817426Y-105068371D02*
X155817426Y-106068371D01*
X174500000Y-104380000D02*
X173080000Y-104380000D01*
X151381629Y-95648371D02*
X149170000Y-97860000D01*
X163860000Y-95648371D02*
X151381629Y-95648371D01*
X147200000Y-100700000D02*
X151449055Y-100700000D01*
X147110000Y-97860000D02*
X146410000Y-98560000D01*
X144070000Y-82800000D02*
X142960000Y-81690000D01*
X137000000Y-93160000D02*
X143580000Y-93160000D01*
X120130000Y-100880000D02*
X129280000Y-100880000D01*
X144070000Y-92670000D02*
X144070000Y-82800000D01*
X143580000Y-93160000D02*
X144070000Y-92670000D01*
X129280000Y-100880000D02*
X137000000Y-93160000D01*
X127720000Y-132490000D02*
X129500000Y-134270000D01*
X146690000Y-134270000D02*
X148040000Y-132920000D01*
X129500000Y-134270000D02*
X146690000Y-134270000D01*
X146790000Y-117860000D02*
X143550000Y-121100000D01*
X147990000Y-114520000D02*
X146790000Y-115720000D01*
X132410000Y-129950000D02*
X127720000Y-129950000D01*
X141260000Y-121100000D02*
X132410000Y-129950000D01*
X143550000Y-121100000D02*
X141260000Y-121100000D01*
X146790000Y-115720000D02*
X146790000Y-117860000D01*
X142774365Y-98100000D02*
X136590000Y-104284365D01*
X146210000Y-98100000D02*
X142774365Y-98100000D01*
X136590000Y-121370000D02*
X130550000Y-127410000D01*
X130550000Y-127410000D02*
X127720000Y-127410000D01*
X147990000Y-96320000D02*
X146210000Y-98100000D01*
X136590000Y-104284365D02*
X136590000Y-121370000D01*
X188050000Y-83240000D02*
X186400000Y-84890000D01*
X188050000Y-68920000D02*
X188050000Y-83240000D01*
X179889827Y-62329999D02*
X181630000Y-64070172D01*
X181630000Y-64070172D02*
X181630000Y-65750133D01*
X174360000Y-59050000D02*
X177640000Y-62330000D01*
X187315000Y-68185000D02*
X188050000Y-68920000D01*
X183464752Y-84890000D02*
X183454752Y-84900000D01*
X184064867Y-68185000D02*
X187315000Y-68185000D01*
X183454752Y-84900000D02*
X165540000Y-84900000D01*
X181630000Y-65750133D02*
X184064867Y-68185000D01*
X177640000Y-62330000D02*
X179889827Y-62329999D01*
X186400000Y-84890000D02*
X183464752Y-84890000D01*
X183410000Y-65550000D02*
X187290000Y-65550000D01*
X182150000Y-64290000D02*
X183410000Y-65550000D01*
X177189656Y-59050000D02*
X182150000Y-64010344D01*
X185759828Y-86110000D02*
X165590000Y-86110000D01*
X189070000Y-67330000D02*
X189070000Y-82799828D01*
X187290000Y-65550000D02*
X189070000Y-67330000D01*
X165720000Y-85950000D02*
X165580000Y-86090000D01*
X176900000Y-59050000D02*
X177189656Y-59050000D01*
X182150000Y-64010344D02*
X182150000Y-64290000D01*
X189070000Y-82799828D02*
X185759828Y-86110000D01*
X185220000Y-71220000D02*
X186875000Y-72875000D01*
X186280000Y-83260000D02*
X184545635Y-83260000D01*
X181130000Y-68210000D02*
X184140000Y-71220000D01*
X179720000Y-62740000D02*
X181130000Y-64150000D01*
X186875000Y-82685000D02*
X186290000Y-83270000D01*
X165720000Y-83260000D02*
X184545635Y-83260000D01*
X171820000Y-60830000D02*
X173730000Y-62740000D01*
X181130000Y-64150000D02*
X181130000Y-68210000D01*
X184140000Y-71220000D02*
X185220000Y-71220000D01*
X171820000Y-59050000D02*
X171820000Y-60830000D01*
X186875000Y-72875000D02*
X186875000Y-82685000D01*
X173730000Y-62740000D02*
X179720000Y-62740000D01*
X129490000Y-89250000D02*
X131150000Y-89250000D01*
X166350000Y-73040000D02*
X151430000Y-73040000D01*
X167610000Y-74300000D02*
X166350000Y-73040000D01*
X120130000Y-90720000D02*
X128020000Y-90720000D01*
X185740000Y-74475000D02*
X184265000Y-73000000D01*
X152370000Y-79400000D02*
X144800000Y-79400000D01*
X128020000Y-90720000D02*
X129490000Y-89250000D01*
X174360000Y-73020000D02*
X168890000Y-73020000D01*
X175790000Y-80300000D02*
X175815000Y-80325000D01*
X185740000Y-74450000D02*
X185740000Y-80325000D01*
X144800000Y-79400000D02*
X143320000Y-77920000D01*
X131150000Y-89250000D02*
X142480000Y-77920000D01*
X168890000Y-73020000D02*
X167610000Y-74300000D01*
X151110000Y-78165000D02*
X152345000Y-79400000D01*
X175790000Y-74450000D02*
X175790000Y-80300000D01*
X184265000Y-73000000D02*
X177240000Y-73000000D01*
X185740000Y-80350000D02*
X185765000Y-80375000D01*
X175790000Y-74450000D02*
X174360000Y-73020000D01*
X151430000Y-73040000D02*
X151110000Y-73360000D01*
X143320000Y-77920000D02*
X142600000Y-77920000D01*
X177240000Y-73000000D02*
X175790000Y-74450000D01*
X142480000Y-77920000D02*
X142600000Y-77920000D01*
X151110000Y-73360000D02*
X151110000Y-78165000D01*
X120130000Y-98340000D02*
X129200000Y-98340000D01*
X129200000Y-98340000D02*
X137500000Y-90040000D01*
X137500000Y-90040000D02*
X137500000Y-86110000D01*
X139380000Y-84230000D02*
X142960000Y-84230000D01*
X137500000Y-86110000D02*
X139380000Y-84230000D01*
X145540000Y-76650000D02*
X147965000Y-76650000D01*
X142960000Y-74070000D02*
X145540000Y-76650000D01*
X147965000Y-76650000D02*
X149290000Y-77975000D01*
X148770000Y-79810000D02*
X149810000Y-80850000D01*
X153690000Y-80850000D02*
X153690000Y-75620000D01*
X173290000Y-80300000D02*
X173315000Y-80325000D01*
X181540000Y-82100000D02*
X183265000Y-80375000D01*
X167585000Y-79400000D02*
X168510000Y-80325000D01*
X168510000Y-80325000D02*
X173315000Y-80325000D01*
X132070000Y-93170000D02*
X132070000Y-89950000D01*
X131980000Y-93260000D02*
X132070000Y-93170000D01*
X144570000Y-80420000D02*
X145180000Y-79810000D01*
X132070000Y-89950000D02*
X141600000Y-80420000D01*
X149810000Y-80850000D02*
X153690000Y-80850000D01*
X183265000Y-80375000D02*
X183240000Y-80350000D01*
X175090000Y-82100000D02*
X181540000Y-82100000D01*
X166135000Y-80850000D02*
X167585000Y-79400000D01*
X173315000Y-80325000D02*
X175090000Y-82100000D01*
X153690000Y-80850000D02*
X166135000Y-80850000D01*
X120130000Y-93260000D02*
X131980000Y-93260000D01*
X145180000Y-79810000D02*
X148770000Y-79810000D01*
X173290000Y-74450000D02*
X173290000Y-80300000D01*
X183240000Y-74450000D02*
X183240000Y-80325000D01*
X153690000Y-75620000D02*
X152370000Y-74300000D01*
X141600000Y-80420000D02*
X144570000Y-80420000D01*
X155440000Y-66820000D02*
X156610000Y-65650000D01*
X144190000Y-66820000D02*
X155440000Y-66820000D01*
X158410000Y-54400000D02*
X161030000Y-54400000D01*
X142190000Y-62980000D02*
X148070000Y-57100000D01*
X148070000Y-57100000D02*
X155710000Y-57100000D01*
X155710000Y-57100000D02*
X158410000Y-54400000D01*
X142190000Y-66820000D02*
X142190000Y-62980000D01*
X144190000Y-68820000D02*
X144865000Y-69495000D01*
X151495000Y-69495000D02*
X152800000Y-68190000D01*
X152713769Y-68190000D02*
X152800000Y-68190000D01*
X144865000Y-69495000D02*
X151495000Y-69495000D01*
M02*
