%TF.GenerationSoftware,KiCad,Pcbnew,8.0.1*%
%TF.CreationDate,2024-11-17T22:06:19-05:00*%
%TF.ProjectId,Main_4layer,4d61696e-5f34-46c6-9179-65722e6b6963,0*%
%TF.SameCoordinates,Original*%
%TF.FileFunction,Drillmap*%
%TF.FilePolarity,Positive*%
%FSLAX45Y45*%
G04 Gerber Fmt 4.5, Leading zero omitted, Abs format (unit mm)*
G04 Created by KiCad (PCBNEW 8.0.1) date 2024-11-17 22:06:19*
%MOMM*%
%LPD*%
G01*
G04 APERTURE LIST*
%ADD10C,0.050000*%
%ADD11C,0.200000*%
%ADD12C,0.100000*%
%ADD13C,0.102000*%
%ADD14C,0.110000*%
%ADD15C,0.130000*%
%ADD16C,0.160000*%
%ADD17C,0.320000*%
G04 APERTURE END LIST*
D10*
X11282000Y-4517000D02*
X19282000Y-4517000D01*
X19282000Y-14517000D01*
X11282000Y-14517000D01*
X11282000Y-4517000D01*
D11*
D12*
X16539000Y-8475000D02*
X16569000Y-8505000D01*
X16569000Y-8475000D02*
X16539000Y-8505000D01*
X16544000Y-8596000D02*
X16574000Y-8626000D01*
X16574000Y-8596000D02*
X16544000Y-8626000D01*
X16551000Y-8313000D02*
X16581000Y-8343000D01*
X16581000Y-8313000D02*
X16551000Y-8343000D01*
X15492243Y-8910837D02*
G75*
G02*
X15417243Y-8910837I-37500J0D01*
G01*
X15417243Y-8910837D02*
G75*
G02*
X15492243Y-8910837I37500J0D01*
G01*
X15492243Y-9790837D02*
G75*
G02*
X15417243Y-9790837I-37500J0D01*
G01*
X15417243Y-9790837D02*
G75*
G02*
X15492243Y-9790837I37500J0D01*
G01*
X15492243Y-10606837D02*
G75*
G02*
X15417243Y-10606837I-37500J0D01*
G01*
X15417243Y-10606837D02*
G75*
G02*
X15492243Y-10606837I37500J0D01*
G01*
X15619243Y-8910837D02*
G75*
G02*
X15544243Y-8910837I-37500J0D01*
G01*
X15544243Y-8910837D02*
G75*
G02*
X15619243Y-8910837I37500J0D01*
G01*
X15619243Y-9790837D02*
G75*
G02*
X15544243Y-9790837I-37500J0D01*
G01*
X15544243Y-9790837D02*
G75*
G02*
X15619243Y-9790837I37500J0D01*
G01*
X15619243Y-10606837D02*
G75*
G02*
X15544243Y-10606837I-37500J0D01*
G01*
X15544243Y-10606837D02*
G75*
G02*
X15619243Y-10606837I37500J0D01*
G01*
X15746243Y-8910837D02*
G75*
G02*
X15671243Y-8910837I-37500J0D01*
G01*
X15671243Y-8910837D02*
G75*
G02*
X15746243Y-8910837I37500J0D01*
G01*
X15746243Y-9790837D02*
G75*
G02*
X15671243Y-9790837I-37500J0D01*
G01*
X15671243Y-9790837D02*
G75*
G02*
X15746243Y-9790837I37500J0D01*
G01*
X15746243Y-10606837D02*
G75*
G02*
X15671243Y-10606837I-37500J0D01*
G01*
X15671243Y-10606837D02*
G75*
G02*
X15746243Y-10606837I37500J0D01*
G01*
X11982000Y-6795000D02*
X11982000Y-6875000D01*
X11942000Y-6835000D02*
X12022000Y-6835000D01*
X11982000Y-7557000D02*
X11982000Y-7637000D01*
X11942000Y-7597000D02*
X12022000Y-7597000D01*
X13407000Y-7440000D02*
X13407000Y-7520000D01*
X13367000Y-7480000D02*
X13447000Y-7480000D01*
X13652160Y-8664000D02*
X13652160Y-8744000D01*
X13612160Y-8704000D02*
X13692160Y-8704000D01*
X13652160Y-8864000D02*
X13652160Y-8944000D01*
X13612160Y-8904000D02*
X13692160Y-8904000D01*
X13661000Y-7440000D02*
X13661000Y-7520000D01*
X13621000Y-7480000D02*
X13701000Y-7480000D01*
X13852160Y-8664000D02*
X13852160Y-8744000D01*
X13812160Y-8704000D02*
X13892160Y-8704000D01*
X13852160Y-8864000D02*
X13852160Y-8944000D01*
X13812160Y-8904000D02*
X13892160Y-8904000D01*
X14019000Y-6642000D02*
X14019000Y-6722000D01*
X13979000Y-6682000D02*
X14059000Y-6682000D01*
X14019000Y-6842000D02*
X14019000Y-6922000D01*
X13979000Y-6882000D02*
X14059000Y-6882000D01*
X14052160Y-8664000D02*
X14052160Y-8744000D01*
X14012160Y-8704000D02*
X14092160Y-8704000D01*
X14052160Y-8864000D02*
X14052160Y-8944000D01*
X14012160Y-8904000D02*
X14092160Y-8904000D01*
X14219000Y-6642000D02*
X14219000Y-6722000D01*
X14179000Y-6682000D02*
X14259000Y-6682000D01*
X14219000Y-6842000D02*
X14219000Y-6922000D01*
X14179000Y-6882000D02*
X14259000Y-6882000D01*
X14419000Y-6642000D02*
X14419000Y-6722000D01*
X14379000Y-6682000D02*
X14459000Y-6682000D01*
X14419000Y-6842000D02*
X14419000Y-6922000D01*
X14379000Y-6882000D02*
X14459000Y-6882000D01*
X14679000Y-7387500D02*
X14679000Y-7467500D01*
X14639000Y-7427500D02*
X14719000Y-7427500D01*
X14679000Y-7757500D02*
X14679000Y-7837500D01*
X14639000Y-7797500D02*
X14719000Y-7797500D01*
X14804000Y-8068000D02*
X14804000Y-8148000D01*
X14764000Y-8108000D02*
X14844000Y-8108000D01*
X14804000Y-9592000D02*
X14804000Y-9672000D01*
X14764000Y-9632000D02*
X14844000Y-9632000D01*
X14804000Y-9888000D02*
X14804000Y-9968000D01*
X14764000Y-9928000D02*
X14844000Y-9928000D01*
X14804000Y-11412000D02*
X14804000Y-11492000D01*
X14764000Y-11452000D02*
X14844000Y-11452000D01*
X14804000Y-11728000D02*
X14804000Y-11808000D01*
X14764000Y-11768000D02*
X14844000Y-11768000D01*
X14804000Y-13252000D02*
X14804000Y-13332000D01*
X14764000Y-13292000D02*
X14844000Y-13292000D01*
X14929000Y-7387500D02*
X14929000Y-7467500D01*
X14889000Y-7427500D02*
X14969000Y-7427500D01*
X14929000Y-7757500D02*
X14929000Y-7837500D01*
X14889000Y-7797500D02*
X14969000Y-7797500D01*
X15237000Y-7390000D02*
X15237000Y-7470000D01*
X15197000Y-7430000D02*
X15277000Y-7430000D01*
X15237000Y-7900000D02*
X15237000Y-7980000D01*
X15197000Y-7940000D02*
X15277000Y-7940000D01*
X16761000Y-7390000D02*
X16761000Y-7470000D01*
X16721000Y-7430000D02*
X16801000Y-7430000D01*
X16761000Y-7900000D02*
X16761000Y-7980000D01*
X16721000Y-7940000D02*
X16801000Y-7940000D01*
X15057467Y-6850467D02*
X15057467Y-6787533D01*
X14994533Y-6787533D01*
X14994533Y-6850467D01*
X15057467Y-6850467D01*
X15184467Y-6596467D02*
X15184467Y-6533533D01*
X15121533Y-6533533D01*
X15121533Y-6596467D01*
X15184467Y-6596467D01*
X15311467Y-6850467D02*
X15311467Y-6787533D01*
X15248533Y-6787533D01*
X15248533Y-6850467D01*
X15311467Y-6850467D01*
X15438467Y-6596467D02*
X15438467Y-6533533D01*
X15375533Y-6533533D01*
X15375533Y-6596467D01*
X15438467Y-6596467D01*
X15565467Y-6850467D02*
X15565467Y-6787533D01*
X15502533Y-6787533D01*
X15502533Y-6850467D01*
X15565467Y-6850467D01*
X15692467Y-6596467D02*
X15692467Y-6533533D01*
X15629533Y-6533533D01*
X15629533Y-6596467D01*
X15692467Y-6596467D01*
X15819467Y-6850467D02*
X15819467Y-6787533D01*
X15756533Y-6787533D01*
X15756533Y-6850467D01*
X15819467Y-6850467D01*
X15946467Y-6596467D02*
X15946467Y-6533533D01*
X15883533Y-6533533D01*
X15883533Y-6596467D01*
X15946467Y-6596467D01*
X16288743Y-8821837D02*
X16333743Y-8776837D01*
X16288743Y-8731837D01*
X16243743Y-8776837D01*
X16288743Y-8821837D01*
X16288743Y-9075837D02*
X16333743Y-9030837D01*
X16288743Y-8985837D01*
X16243743Y-9030837D01*
X16288743Y-9075837D01*
X16288743Y-9728337D02*
X16333743Y-9683337D01*
X16288743Y-9638337D01*
X16243743Y-9683337D01*
X16288743Y-9728337D01*
X16288743Y-9982337D02*
X16333743Y-9937337D01*
X16288743Y-9892337D01*
X16243743Y-9937337D01*
X16288743Y-9982337D01*
X16288743Y-10495837D02*
X16333743Y-10450837D01*
X16288743Y-10405837D01*
X16243743Y-10450837D01*
X16288743Y-10495837D01*
X16288743Y-10749837D02*
X16333743Y-10704837D01*
X16288743Y-10659837D01*
X16243743Y-10704837D01*
X16288743Y-10749837D01*
X11931500Y-11198500D02*
X12026500Y-11293500D01*
X12026500Y-11198500D02*
X11931500Y-11293500D01*
X12026500Y-11246000D02*
G75*
G02*
X11931500Y-11246000I-47500J0D01*
G01*
X11931500Y-11246000D02*
G75*
G02*
X12026500Y-11246000I47500J0D01*
G01*
X11931500Y-11448500D02*
X12026500Y-11543500D01*
X12026500Y-11448500D02*
X11931500Y-11543500D01*
X12026500Y-11496000D02*
G75*
G02*
X11931500Y-11496000I-47500J0D01*
G01*
X11931500Y-11496000D02*
G75*
G02*
X12026500Y-11496000I47500J0D01*
G01*
X11931500Y-11698500D02*
X12026500Y-11793500D01*
X12026500Y-11698500D02*
X11931500Y-11793500D01*
X12026500Y-11746000D02*
G75*
G02*
X11931500Y-11746000I-47500J0D01*
G01*
X11931500Y-11746000D02*
G75*
G02*
X12026500Y-11746000I47500J0D01*
G01*
X11931500Y-11948500D02*
X12026500Y-12043500D01*
X12026500Y-11948500D02*
X11931500Y-12043500D01*
X12026500Y-11996000D02*
G75*
G02*
X11931500Y-11996000I-47500J0D01*
G01*
X11931500Y-11996000D02*
G75*
G02*
X12026500Y-11996000I47500J0D01*
G01*
X11902000Y-8067000D02*
X12002000Y-8167000D01*
X12002000Y-8067000D02*
X11902000Y-8167000D01*
X11952000Y-8067000D02*
X11952000Y-8167000D01*
X11902000Y-8117000D02*
X12002000Y-8117000D01*
X11902000Y-8317000D02*
X12002000Y-8417000D01*
X12002000Y-8317000D02*
X11902000Y-8417000D01*
X11952000Y-8317000D02*
X11952000Y-8417000D01*
X11902000Y-8367000D02*
X12002000Y-8367000D01*
X11929000Y-12675000D02*
X12029000Y-12775000D01*
X12029000Y-12675000D02*
X11929000Y-12775000D01*
X11979000Y-12675000D02*
X11979000Y-12775000D01*
X11929000Y-12725000D02*
X12029000Y-12725000D01*
X11929000Y-12925000D02*
X12029000Y-13025000D01*
X12029000Y-12925000D02*
X11929000Y-13025000D01*
X11979000Y-12925000D02*
X11979000Y-13025000D01*
X11929000Y-12975000D02*
X12029000Y-12975000D01*
X11963000Y-9022000D02*
X12063000Y-9122000D01*
X12063000Y-9022000D02*
X11963000Y-9122000D01*
X12013000Y-9022000D02*
X12013000Y-9122000D01*
X11963000Y-9072000D02*
X12063000Y-9072000D01*
X11963000Y-9276000D02*
X12063000Y-9376000D01*
X12063000Y-9276000D02*
X11963000Y-9376000D01*
X12013000Y-9276000D02*
X12013000Y-9376000D01*
X11963000Y-9326000D02*
X12063000Y-9326000D01*
X11963000Y-9530000D02*
X12063000Y-9630000D01*
X12063000Y-9530000D02*
X11963000Y-9630000D01*
X12013000Y-9530000D02*
X12013000Y-9630000D01*
X11963000Y-9580000D02*
X12063000Y-9580000D01*
X11963000Y-9784000D02*
X12063000Y-9884000D01*
X12063000Y-9784000D02*
X11963000Y-9884000D01*
X12013000Y-9784000D02*
X12013000Y-9884000D01*
X11963000Y-9834000D02*
X12063000Y-9834000D01*
X11963000Y-10038000D02*
X12063000Y-10138000D01*
X12063000Y-10038000D02*
X11963000Y-10138000D01*
X12013000Y-10038000D02*
X12013000Y-10138000D01*
X11963000Y-10088000D02*
X12063000Y-10088000D01*
X11963000Y-10292000D02*
X12063000Y-10392000D01*
X12063000Y-10292000D02*
X11963000Y-10392000D01*
X12013000Y-10292000D02*
X12013000Y-10392000D01*
X11963000Y-10342000D02*
X12063000Y-10342000D01*
X11963000Y-10546000D02*
X12063000Y-10646000D01*
X12063000Y-10546000D02*
X11963000Y-10646000D01*
X12013000Y-10546000D02*
X12013000Y-10646000D01*
X11963000Y-10596000D02*
X12063000Y-10596000D01*
X16694000Y-6626000D02*
X16794000Y-6726000D01*
X16794000Y-6626000D02*
X16694000Y-6726000D01*
X16744000Y-6626000D02*
X16744000Y-6726000D01*
X16694000Y-6676000D02*
X16794000Y-6676000D01*
X16694000Y-6880000D02*
X16794000Y-6980000D01*
X16794000Y-6880000D02*
X16694000Y-6980000D01*
X16744000Y-6880000D02*
X16744000Y-6980000D01*
X16694000Y-6930000D02*
X16794000Y-6930000D01*
X17132000Y-5855000D02*
X17232000Y-5955000D01*
X17232000Y-5855000D02*
X17132000Y-5955000D01*
X17182000Y-5855000D02*
X17182000Y-5955000D01*
X17132000Y-5905000D02*
X17232000Y-5905000D01*
X17132000Y-6382500D02*
X17232000Y-6482500D01*
X17232000Y-6382500D02*
X17132000Y-6482500D01*
X17182000Y-6382500D02*
X17182000Y-6482500D01*
X17132000Y-6432500D02*
X17232000Y-6432500D01*
X17132000Y-6881000D02*
X17232000Y-6981000D01*
X17232000Y-6881000D02*
X17132000Y-6981000D01*
X17182000Y-6881000D02*
X17182000Y-6981000D01*
X17132000Y-6931000D02*
X17232000Y-6931000D01*
X17279000Y-7395000D02*
X17379000Y-7495000D01*
X17379000Y-7395000D02*
X17279000Y-7495000D01*
X17329000Y-7395000D02*
X17329000Y-7495000D01*
X17279000Y-7445000D02*
X17379000Y-7445000D01*
X17279000Y-7982500D02*
X17379000Y-8082500D01*
X17379000Y-7982500D02*
X17279000Y-8082500D01*
X17329000Y-7982500D02*
X17329000Y-8082500D01*
X17279000Y-8032500D02*
X17379000Y-8032500D01*
X17386000Y-5855000D02*
X17486000Y-5955000D01*
X17486000Y-5855000D02*
X17386000Y-5955000D01*
X17436000Y-5855000D02*
X17436000Y-5955000D01*
X17386000Y-5905000D02*
X17486000Y-5905000D01*
X17386000Y-6382500D02*
X17486000Y-6482500D01*
X17486000Y-6382500D02*
X17386000Y-6482500D01*
X17436000Y-6382500D02*
X17436000Y-6482500D01*
X17386000Y-6432500D02*
X17486000Y-6432500D01*
X17386000Y-6881000D02*
X17486000Y-6981000D01*
X17486000Y-6881000D02*
X17386000Y-6981000D01*
X17436000Y-6881000D02*
X17436000Y-6981000D01*
X17386000Y-6931000D02*
X17486000Y-6931000D01*
X17529000Y-7395000D02*
X17629000Y-7495000D01*
X17629000Y-7395000D02*
X17529000Y-7495000D01*
X17579000Y-7395000D02*
X17579000Y-7495000D01*
X17529000Y-7445000D02*
X17629000Y-7445000D01*
X17529000Y-7982500D02*
X17629000Y-8082500D01*
X17629000Y-7982500D02*
X17529000Y-8082500D01*
X17579000Y-7982500D02*
X17579000Y-8082500D01*
X17529000Y-8032500D02*
X17629000Y-8032500D01*
X17640000Y-5855000D02*
X17740000Y-5955000D01*
X17740000Y-5855000D02*
X17640000Y-5955000D01*
X17690000Y-5855000D02*
X17690000Y-5955000D01*
X17640000Y-5905000D02*
X17740000Y-5905000D01*
X17640000Y-6382500D02*
X17740000Y-6482500D01*
X17740000Y-6382500D02*
X17640000Y-6482500D01*
X17690000Y-6382500D02*
X17690000Y-6482500D01*
X17640000Y-6432500D02*
X17740000Y-6432500D01*
X17640000Y-6881000D02*
X17740000Y-6981000D01*
X17740000Y-6881000D02*
X17640000Y-6981000D01*
X17690000Y-6881000D02*
X17690000Y-6981000D01*
X17640000Y-6931000D02*
X17740000Y-6931000D01*
X17894000Y-5855000D02*
X17994000Y-5955000D01*
X17994000Y-5855000D02*
X17894000Y-5955000D01*
X17944000Y-5855000D02*
X17944000Y-5955000D01*
X17894000Y-5905000D02*
X17994000Y-5905000D01*
X17894000Y-6382500D02*
X17994000Y-6482500D01*
X17994000Y-6382500D02*
X17894000Y-6482500D01*
X17944000Y-6382500D02*
X17944000Y-6482500D01*
X17894000Y-6432500D02*
X17994000Y-6432500D01*
X17894000Y-6881000D02*
X17994000Y-6981000D01*
X17994000Y-6881000D02*
X17894000Y-6981000D01*
X17944000Y-6881000D02*
X17944000Y-6981000D01*
X17894000Y-6931000D02*
X17994000Y-6931000D01*
X18274000Y-7395000D02*
X18374000Y-7495000D01*
X18374000Y-7395000D02*
X18274000Y-7495000D01*
X18324000Y-7395000D02*
X18324000Y-7495000D01*
X18274000Y-7445000D02*
X18374000Y-7445000D01*
X18274000Y-7982500D02*
X18374000Y-8082500D01*
X18374000Y-7982500D02*
X18274000Y-8082500D01*
X18324000Y-7982500D02*
X18324000Y-8082500D01*
X18274000Y-8032500D02*
X18374000Y-8032500D01*
X18376500Y-5866000D02*
X18476500Y-5966000D01*
X18476500Y-5866000D02*
X18376500Y-5966000D01*
X18426500Y-5866000D02*
X18426500Y-5966000D01*
X18376500Y-5916000D02*
X18476500Y-5916000D01*
X18376500Y-6120000D02*
X18476500Y-6220000D01*
X18476500Y-6120000D02*
X18376500Y-6220000D01*
X18426500Y-6120000D02*
X18426500Y-6220000D01*
X18376500Y-6170000D02*
X18476500Y-6170000D01*
X18376500Y-6374000D02*
X18476500Y-6474000D01*
X18476500Y-6374000D02*
X18376500Y-6474000D01*
X18426500Y-6374000D02*
X18426500Y-6474000D01*
X18376500Y-6424000D02*
X18476500Y-6424000D01*
X18376500Y-6628000D02*
X18476500Y-6728000D01*
X18476500Y-6628000D02*
X18376500Y-6728000D01*
X18426500Y-6628000D02*
X18426500Y-6728000D01*
X18376500Y-6678000D02*
X18476500Y-6678000D01*
X18376500Y-6882000D02*
X18476500Y-6982000D01*
X18476500Y-6882000D02*
X18376500Y-6982000D01*
X18426500Y-6882000D02*
X18426500Y-6982000D01*
X18376500Y-6932000D02*
X18476500Y-6932000D01*
X18524000Y-7395000D02*
X18624000Y-7495000D01*
X18624000Y-7395000D02*
X18524000Y-7495000D01*
X18574000Y-7395000D02*
X18574000Y-7495000D01*
X18524000Y-7445000D02*
X18624000Y-7445000D01*
X18524000Y-7982500D02*
X18624000Y-8082500D01*
X18624000Y-7982500D02*
X18524000Y-8082500D01*
X18574000Y-7982500D02*
X18574000Y-8082500D01*
X18524000Y-8032500D02*
X18624000Y-8032500D01*
X18630500Y-5866000D02*
X18730500Y-5966000D01*
X18730500Y-5866000D02*
X18630500Y-5966000D01*
X18680500Y-5866000D02*
X18680500Y-5966000D01*
X18630500Y-5916000D02*
X18730500Y-5916000D01*
X18630500Y-6120000D02*
X18730500Y-6220000D01*
X18730500Y-6120000D02*
X18630500Y-6220000D01*
X18680500Y-6120000D02*
X18680500Y-6220000D01*
X18630500Y-6170000D02*
X18730500Y-6170000D01*
X18630500Y-6374000D02*
X18730500Y-6474000D01*
X18730500Y-6374000D02*
X18630500Y-6474000D01*
X18680500Y-6374000D02*
X18680500Y-6474000D01*
X18630500Y-6424000D02*
X18730500Y-6424000D01*
X18630500Y-6628000D02*
X18730500Y-6728000D01*
X18730500Y-6628000D02*
X18630500Y-6728000D01*
X18680500Y-6628000D02*
X18680500Y-6728000D01*
X18630500Y-6678000D02*
X18730500Y-6678000D01*
X18630500Y-6882000D02*
X18730500Y-6982000D01*
X18730500Y-6882000D02*
X18630500Y-6982000D01*
X18680500Y-6882000D02*
X18680500Y-6982000D01*
X18630500Y-6932000D02*
X18730500Y-6932000D01*
D13*
X14787000Y-5541000D02*
X14889000Y-5643000D01*
X14889000Y-5541000D02*
X14787000Y-5643000D01*
X14874063Y-5628063D02*
X14874063Y-5555937D01*
X14801937Y-5555937D01*
X14801937Y-5628063D01*
X14874063Y-5628063D01*
X15038500Y-5389000D02*
X15140500Y-5491000D01*
X15140500Y-5389000D02*
X15038500Y-5491000D01*
X15125563Y-5476063D02*
X15125563Y-5403937D01*
X15053437Y-5403937D01*
X15053437Y-5476063D01*
X15125563Y-5476063D01*
X15800500Y-5541000D02*
X15902500Y-5643000D01*
X15902500Y-5541000D02*
X15800500Y-5643000D01*
X15887563Y-5628063D02*
X15887563Y-5555937D01*
X15815437Y-5555937D01*
X15815437Y-5628063D01*
X15887563Y-5628063D01*
X16052000Y-5389000D02*
X16154000Y-5491000D01*
X16154000Y-5389000D02*
X16052000Y-5491000D01*
X16139063Y-5476063D02*
X16139063Y-5403937D01*
X16066937Y-5403937D01*
X16066937Y-5476063D01*
X16139063Y-5476063D01*
D14*
X12717000Y-7352000D02*
X12827000Y-7462000D01*
X12827000Y-7352000D02*
X12717000Y-7462000D01*
X12772000Y-7462000D02*
X12827000Y-7407000D01*
X12772000Y-7352000D01*
X12717000Y-7407000D01*
X12772000Y-7462000D01*
X12717000Y-7606000D02*
X12827000Y-7716000D01*
X12827000Y-7606000D02*
X12717000Y-7716000D01*
X12772000Y-7716000D02*
X12827000Y-7661000D01*
X12772000Y-7606000D01*
X12717000Y-7661000D01*
X12772000Y-7716000D01*
X12717000Y-7860000D02*
X12827000Y-7970000D01*
X12827000Y-7860000D02*
X12717000Y-7970000D01*
X12772000Y-7970000D02*
X12827000Y-7915000D01*
X12772000Y-7860000D01*
X12717000Y-7915000D01*
X12772000Y-7970000D01*
X12717000Y-8114000D02*
X12827000Y-8224000D01*
X12827000Y-8114000D02*
X12717000Y-8224000D01*
X12772000Y-8224000D02*
X12827000Y-8169000D01*
X12772000Y-8114000D01*
X12717000Y-8169000D01*
X12772000Y-8224000D01*
X12717000Y-8368000D02*
X12827000Y-8478000D01*
X12827000Y-8368000D02*
X12717000Y-8478000D01*
X12772000Y-8478000D02*
X12827000Y-8423000D01*
X12772000Y-8368000D01*
X12717000Y-8423000D01*
X12772000Y-8478000D01*
X12717000Y-8622000D02*
X12827000Y-8732000D01*
X12827000Y-8622000D02*
X12717000Y-8732000D01*
X12772000Y-8732000D02*
X12827000Y-8677000D01*
X12772000Y-8622000D01*
X12717000Y-8677000D01*
X12772000Y-8732000D01*
X12717000Y-8876000D02*
X12827000Y-8986000D01*
X12827000Y-8876000D02*
X12717000Y-8986000D01*
X12772000Y-8986000D02*
X12827000Y-8931000D01*
X12772000Y-8876000D01*
X12717000Y-8931000D01*
X12772000Y-8986000D01*
X12717000Y-9130000D02*
X12827000Y-9240000D01*
X12827000Y-9130000D02*
X12717000Y-9240000D01*
X12772000Y-9240000D02*
X12827000Y-9185000D01*
X12772000Y-9130000D01*
X12717000Y-9185000D01*
X12772000Y-9240000D01*
X12717000Y-9384000D02*
X12827000Y-9494000D01*
X12827000Y-9384000D02*
X12717000Y-9494000D01*
X12772000Y-9494000D02*
X12827000Y-9439000D01*
X12772000Y-9384000D01*
X12717000Y-9439000D01*
X12772000Y-9494000D01*
X12717000Y-9638000D02*
X12827000Y-9748000D01*
X12827000Y-9638000D02*
X12717000Y-9748000D01*
X12772000Y-9748000D02*
X12827000Y-9693000D01*
X12772000Y-9638000D01*
X12717000Y-9693000D01*
X12772000Y-9748000D01*
X12717000Y-9892000D02*
X12827000Y-10002000D01*
X12827000Y-9892000D02*
X12717000Y-10002000D01*
X12772000Y-10002000D02*
X12827000Y-9947000D01*
X12772000Y-9892000D01*
X12717000Y-9947000D01*
X12772000Y-10002000D01*
X12717000Y-10146000D02*
X12827000Y-10256000D01*
X12827000Y-10146000D02*
X12717000Y-10256000D01*
X12772000Y-10256000D02*
X12827000Y-10201000D01*
X12772000Y-10146000D01*
X12717000Y-10201000D01*
X12772000Y-10256000D01*
X12717000Y-10400000D02*
X12827000Y-10510000D01*
X12827000Y-10400000D02*
X12717000Y-10510000D01*
X12772000Y-10510000D02*
X12827000Y-10455000D01*
X12772000Y-10400000D01*
X12717000Y-10455000D01*
X12772000Y-10510000D01*
X12717000Y-10654000D02*
X12827000Y-10764000D01*
X12827000Y-10654000D02*
X12717000Y-10764000D01*
X12772000Y-10764000D02*
X12827000Y-10709000D01*
X12772000Y-10654000D01*
X12717000Y-10709000D01*
X12772000Y-10764000D01*
X12717000Y-10908000D02*
X12827000Y-11018000D01*
X12827000Y-10908000D02*
X12717000Y-11018000D01*
X12772000Y-11018000D02*
X12827000Y-10963000D01*
X12772000Y-10908000D01*
X12717000Y-10963000D01*
X12772000Y-11018000D01*
X12717000Y-11162000D02*
X12827000Y-11272000D01*
X12827000Y-11162000D02*
X12717000Y-11272000D01*
X12772000Y-11272000D02*
X12827000Y-11217000D01*
X12772000Y-11162000D01*
X12717000Y-11217000D01*
X12772000Y-11272000D01*
X12717000Y-11416000D02*
X12827000Y-11526000D01*
X12827000Y-11416000D02*
X12717000Y-11526000D01*
X12772000Y-11526000D02*
X12827000Y-11471000D01*
X12772000Y-11416000D01*
X12717000Y-11471000D01*
X12772000Y-11526000D01*
X12717000Y-11670000D02*
X12827000Y-11780000D01*
X12827000Y-11670000D02*
X12717000Y-11780000D01*
X12772000Y-11780000D02*
X12827000Y-11725000D01*
X12772000Y-11670000D01*
X12717000Y-11725000D01*
X12772000Y-11780000D01*
X12717000Y-11924000D02*
X12827000Y-12034000D01*
X12827000Y-11924000D02*
X12717000Y-12034000D01*
X12772000Y-12034000D02*
X12827000Y-11979000D01*
X12772000Y-11924000D01*
X12717000Y-11979000D01*
X12772000Y-12034000D01*
X12717000Y-12178000D02*
X12827000Y-12288000D01*
X12827000Y-12178000D02*
X12717000Y-12288000D01*
X12772000Y-12288000D02*
X12827000Y-12233000D01*
X12772000Y-12178000D01*
X12717000Y-12233000D01*
X12772000Y-12288000D01*
X12717000Y-12432000D02*
X12827000Y-12542000D01*
X12827000Y-12432000D02*
X12717000Y-12542000D01*
X12772000Y-12542000D02*
X12827000Y-12487000D01*
X12772000Y-12432000D01*
X12717000Y-12487000D01*
X12772000Y-12542000D01*
X12717000Y-12686000D02*
X12827000Y-12796000D01*
X12827000Y-12686000D02*
X12717000Y-12796000D01*
X12772000Y-12796000D02*
X12827000Y-12741000D01*
X12772000Y-12686000D01*
X12717000Y-12741000D01*
X12772000Y-12796000D01*
X12717000Y-12940000D02*
X12827000Y-13050000D01*
X12827000Y-12940000D02*
X12717000Y-13050000D01*
X12772000Y-13050000D02*
X12827000Y-12995000D01*
X12772000Y-12940000D01*
X12717000Y-12995000D01*
X12772000Y-13050000D01*
X12717000Y-13194000D02*
X12827000Y-13304000D01*
X12827000Y-13194000D02*
X12717000Y-13304000D01*
X12772000Y-13304000D02*
X12827000Y-13249000D01*
X12772000Y-13194000D01*
X12717000Y-13249000D01*
X12772000Y-13304000D01*
X12971000Y-11924000D02*
X13081000Y-12034000D01*
X13081000Y-11924000D02*
X12971000Y-12034000D01*
X13026000Y-12034000D02*
X13081000Y-11979000D01*
X13026000Y-11924000D01*
X12971000Y-11979000D01*
X13026000Y-12034000D01*
X13022080Y-7981920D02*
X13132080Y-8091920D01*
X13132080Y-7981920D02*
X13022080Y-8091920D01*
X13077080Y-8091920D02*
X13132080Y-8036920D01*
X13077080Y-7981920D01*
X13022080Y-8036920D01*
X13077080Y-8091920D01*
X13022080Y-8235920D02*
X13132080Y-8345920D01*
X13132080Y-8235920D02*
X13022080Y-8345920D01*
X13077080Y-8345920D02*
X13132080Y-8290920D01*
X13077080Y-8235920D01*
X13022080Y-8290920D01*
X13077080Y-8345920D01*
X13022080Y-8489920D02*
X13132080Y-8599920D01*
X13132080Y-8489920D02*
X13022080Y-8599920D01*
X13077080Y-8599920D02*
X13132080Y-8544920D01*
X13077080Y-8489920D01*
X13022080Y-8544920D01*
X13077080Y-8599920D01*
X13022080Y-8743920D02*
X13132080Y-8853920D01*
X13132080Y-8743920D02*
X13022080Y-8853920D01*
X13077080Y-8853920D02*
X13132080Y-8798920D01*
X13077080Y-8743920D01*
X13022080Y-8798920D01*
X13077080Y-8853920D01*
X13022080Y-8997920D02*
X13132080Y-9107920D01*
X13132080Y-8997920D02*
X13022080Y-9107920D01*
X13077080Y-9107920D02*
X13132080Y-9052920D01*
X13077080Y-8997920D01*
X13022080Y-9052920D01*
X13077080Y-9107920D01*
X13225000Y-11924000D02*
X13335000Y-12034000D01*
X13335000Y-11924000D02*
X13225000Y-12034000D01*
X13280000Y-12034000D02*
X13335000Y-11979000D01*
X13280000Y-11924000D01*
X13225000Y-11979000D01*
X13280000Y-12034000D01*
X13479000Y-11924000D02*
X13589000Y-12034000D01*
X13589000Y-11924000D02*
X13479000Y-12034000D01*
X13534000Y-12034000D02*
X13589000Y-11979000D01*
X13534000Y-11924000D01*
X13479000Y-11979000D01*
X13534000Y-12034000D01*
X13733000Y-11924000D02*
X13843000Y-12034000D01*
X13843000Y-11924000D02*
X13733000Y-12034000D01*
X13788000Y-12034000D02*
X13843000Y-11979000D01*
X13788000Y-11924000D01*
X13733000Y-11979000D01*
X13788000Y-12034000D01*
X13987000Y-7606000D02*
X14097000Y-7716000D01*
X14097000Y-7606000D02*
X13987000Y-7716000D01*
X14042000Y-7716000D02*
X14097000Y-7661000D01*
X14042000Y-7606000D01*
X13987000Y-7661000D01*
X14042000Y-7716000D01*
X13987000Y-11924000D02*
X14097000Y-12034000D01*
X14097000Y-11924000D02*
X13987000Y-12034000D01*
X14042000Y-12034000D02*
X14097000Y-11979000D01*
X14042000Y-11924000D01*
X13987000Y-11979000D01*
X14042000Y-12034000D01*
X14241000Y-7352000D02*
X14351000Y-7462000D01*
X14351000Y-7352000D02*
X14241000Y-7462000D01*
X14296000Y-7462000D02*
X14351000Y-7407000D01*
X14296000Y-7352000D01*
X14241000Y-7407000D01*
X14296000Y-7462000D01*
X14241000Y-7606000D02*
X14351000Y-7716000D01*
X14351000Y-7606000D02*
X14241000Y-7716000D01*
X14296000Y-7716000D02*
X14351000Y-7661000D01*
X14296000Y-7606000D01*
X14241000Y-7661000D01*
X14296000Y-7716000D01*
X14241000Y-7860000D02*
X14351000Y-7970000D01*
X14351000Y-7860000D02*
X14241000Y-7970000D01*
X14296000Y-7970000D02*
X14351000Y-7915000D01*
X14296000Y-7860000D01*
X14241000Y-7915000D01*
X14296000Y-7970000D01*
X14241000Y-8114000D02*
X14351000Y-8224000D01*
X14351000Y-8114000D02*
X14241000Y-8224000D01*
X14296000Y-8224000D02*
X14351000Y-8169000D01*
X14296000Y-8114000D01*
X14241000Y-8169000D01*
X14296000Y-8224000D01*
X14241000Y-8368000D02*
X14351000Y-8478000D01*
X14351000Y-8368000D02*
X14241000Y-8478000D01*
X14296000Y-8478000D02*
X14351000Y-8423000D01*
X14296000Y-8368000D01*
X14241000Y-8423000D01*
X14296000Y-8478000D01*
X14241000Y-8622000D02*
X14351000Y-8732000D01*
X14351000Y-8622000D02*
X14241000Y-8732000D01*
X14296000Y-8732000D02*
X14351000Y-8677000D01*
X14296000Y-8622000D01*
X14241000Y-8677000D01*
X14296000Y-8732000D01*
X14241000Y-8876000D02*
X14351000Y-8986000D01*
X14351000Y-8876000D02*
X14241000Y-8986000D01*
X14296000Y-8986000D02*
X14351000Y-8931000D01*
X14296000Y-8876000D01*
X14241000Y-8931000D01*
X14296000Y-8986000D01*
X14241000Y-9130000D02*
X14351000Y-9240000D01*
X14351000Y-9130000D02*
X14241000Y-9240000D01*
X14296000Y-9240000D02*
X14351000Y-9185000D01*
X14296000Y-9130000D01*
X14241000Y-9185000D01*
X14296000Y-9240000D01*
X14241000Y-9384000D02*
X14351000Y-9494000D01*
X14351000Y-9384000D02*
X14241000Y-9494000D01*
X14296000Y-9494000D02*
X14351000Y-9439000D01*
X14296000Y-9384000D01*
X14241000Y-9439000D01*
X14296000Y-9494000D01*
X14241000Y-9638000D02*
X14351000Y-9748000D01*
X14351000Y-9638000D02*
X14241000Y-9748000D01*
X14296000Y-9748000D02*
X14351000Y-9693000D01*
X14296000Y-9638000D01*
X14241000Y-9693000D01*
X14296000Y-9748000D01*
X14241000Y-9892000D02*
X14351000Y-10002000D01*
X14351000Y-9892000D02*
X14241000Y-10002000D01*
X14296000Y-10002000D02*
X14351000Y-9947000D01*
X14296000Y-9892000D01*
X14241000Y-9947000D01*
X14296000Y-10002000D01*
X14241000Y-10146000D02*
X14351000Y-10256000D01*
X14351000Y-10146000D02*
X14241000Y-10256000D01*
X14296000Y-10256000D02*
X14351000Y-10201000D01*
X14296000Y-10146000D01*
X14241000Y-10201000D01*
X14296000Y-10256000D01*
X14241000Y-10400000D02*
X14351000Y-10510000D01*
X14351000Y-10400000D02*
X14241000Y-10510000D01*
X14296000Y-10510000D02*
X14351000Y-10455000D01*
X14296000Y-10400000D01*
X14241000Y-10455000D01*
X14296000Y-10510000D01*
X14241000Y-10654000D02*
X14351000Y-10764000D01*
X14351000Y-10654000D02*
X14241000Y-10764000D01*
X14296000Y-10764000D02*
X14351000Y-10709000D01*
X14296000Y-10654000D01*
X14241000Y-10709000D01*
X14296000Y-10764000D01*
X14241000Y-10908000D02*
X14351000Y-11018000D01*
X14351000Y-10908000D02*
X14241000Y-11018000D01*
X14296000Y-11018000D02*
X14351000Y-10963000D01*
X14296000Y-10908000D01*
X14241000Y-10963000D01*
X14296000Y-11018000D01*
X14241000Y-11162000D02*
X14351000Y-11272000D01*
X14351000Y-11162000D02*
X14241000Y-11272000D01*
X14296000Y-11272000D02*
X14351000Y-11217000D01*
X14296000Y-11162000D01*
X14241000Y-11217000D01*
X14296000Y-11272000D01*
X14241000Y-11416000D02*
X14351000Y-11526000D01*
X14351000Y-11416000D02*
X14241000Y-11526000D01*
X14296000Y-11526000D02*
X14351000Y-11471000D01*
X14296000Y-11416000D01*
X14241000Y-11471000D01*
X14296000Y-11526000D01*
X14241000Y-11670000D02*
X14351000Y-11780000D01*
X14351000Y-11670000D02*
X14241000Y-11780000D01*
X14296000Y-11780000D02*
X14351000Y-11725000D01*
X14296000Y-11670000D01*
X14241000Y-11725000D01*
X14296000Y-11780000D01*
X14241000Y-11924000D02*
X14351000Y-12034000D01*
X14351000Y-11924000D02*
X14241000Y-12034000D01*
X14296000Y-12034000D02*
X14351000Y-11979000D01*
X14296000Y-11924000D01*
X14241000Y-11979000D01*
X14296000Y-12034000D01*
X14241000Y-12178000D02*
X14351000Y-12288000D01*
X14351000Y-12178000D02*
X14241000Y-12288000D01*
X14296000Y-12288000D02*
X14351000Y-12233000D01*
X14296000Y-12178000D01*
X14241000Y-12233000D01*
X14296000Y-12288000D01*
X14241000Y-12432000D02*
X14351000Y-12542000D01*
X14351000Y-12432000D02*
X14241000Y-12542000D01*
X14296000Y-12542000D02*
X14351000Y-12487000D01*
X14296000Y-12432000D01*
X14241000Y-12487000D01*
X14296000Y-12542000D01*
X14241000Y-12686000D02*
X14351000Y-12796000D01*
X14351000Y-12686000D02*
X14241000Y-12796000D01*
X14296000Y-12796000D02*
X14351000Y-12741000D01*
X14296000Y-12686000D01*
X14241000Y-12741000D01*
X14296000Y-12796000D01*
X14241000Y-12940000D02*
X14351000Y-13050000D01*
X14351000Y-12940000D02*
X14241000Y-13050000D01*
X14296000Y-13050000D02*
X14351000Y-12995000D01*
X14296000Y-12940000D01*
X14241000Y-12995000D01*
X14296000Y-13050000D01*
X14241000Y-13194000D02*
X14351000Y-13304000D01*
X14351000Y-13194000D02*
X14241000Y-13304000D01*
X14296000Y-13304000D02*
X14351000Y-13249000D01*
X14296000Y-13194000D01*
X14241000Y-13249000D01*
X14296000Y-13304000D01*
D15*
X15479000Y-11525000D02*
X15479000Y-11655000D01*
X15414000Y-11590000D02*
X15544000Y-11590000D01*
X15544000Y-11590000D02*
G75*
G02*
X15414000Y-11590000I-65000J0D01*
G01*
X15414000Y-11590000D02*
G75*
G02*
X15544000Y-11590000I65000J0D01*
G01*
X15479000Y-12745000D02*
X15479000Y-12875000D01*
X15414000Y-12810000D02*
X15544000Y-12810000D01*
X15544000Y-12810000D02*
G75*
G02*
X15414000Y-12810000I-65000J0D01*
G01*
X15414000Y-12810000D02*
G75*
G02*
X15544000Y-12810000I65000J0D01*
G01*
X16079000Y-11325000D02*
X16079000Y-11455000D01*
X16014000Y-11390000D02*
X16144000Y-11390000D01*
X16144000Y-11390000D02*
G75*
G02*
X16014000Y-11390000I-65000J0D01*
G01*
X16014000Y-11390000D02*
G75*
G02*
X16144000Y-11390000I65000J0D01*
G01*
X16679000Y-11525000D02*
X16679000Y-11655000D01*
X16614000Y-11590000D02*
X16744000Y-11590000D01*
X16744000Y-11590000D02*
G75*
G02*
X16614000Y-11590000I-65000J0D01*
G01*
X16614000Y-11590000D02*
G75*
G02*
X16744000Y-11590000I65000J0D01*
G01*
X16679000Y-12745000D02*
X16679000Y-12875000D01*
X16614000Y-12810000D02*
X16744000Y-12810000D01*
X16744000Y-12810000D02*
G75*
G02*
X16614000Y-12810000I-65000J0D01*
G01*
X16614000Y-12810000D02*
G75*
G02*
X16744000Y-12810000I65000J0D01*
G01*
X17379000Y-8982250D02*
X17379000Y-9112250D01*
X17314000Y-9047250D02*
X17444000Y-9047250D01*
X17444000Y-9047250D02*
G75*
G02*
X17314000Y-9047250I-65000J0D01*
G01*
X17314000Y-9047250D02*
G75*
G02*
X17444000Y-9047250I65000J0D01*
G01*
X17379000Y-10202250D02*
X17379000Y-10332250D01*
X17314000Y-10267250D02*
X17444000Y-10267250D01*
X17444000Y-10267250D02*
G75*
G02*
X17314000Y-10267250I-65000J0D01*
G01*
X17314000Y-10267250D02*
G75*
G02*
X17444000Y-10267250I65000J0D01*
G01*
X17379000Y-11525000D02*
X17379000Y-11655000D01*
X17314000Y-11590000D02*
X17444000Y-11590000D01*
X17444000Y-11590000D02*
G75*
G02*
X17314000Y-11590000I-65000J0D01*
G01*
X17314000Y-11590000D02*
G75*
G02*
X17444000Y-11590000I65000J0D01*
G01*
X17379000Y-12745000D02*
X17379000Y-12875000D01*
X17314000Y-12810000D02*
X17444000Y-12810000D01*
X17444000Y-12810000D02*
G75*
G02*
X17314000Y-12810000I-65000J0D01*
G01*
X17314000Y-12810000D02*
G75*
G02*
X17444000Y-12810000I65000J0D01*
G01*
X17979000Y-8782250D02*
X17979000Y-8912250D01*
X17914000Y-8847250D02*
X18044000Y-8847250D01*
X18044000Y-8847250D02*
G75*
G02*
X17914000Y-8847250I-65000J0D01*
G01*
X17914000Y-8847250D02*
G75*
G02*
X18044000Y-8847250I65000J0D01*
G01*
X17979000Y-11325000D02*
X17979000Y-11455000D01*
X17914000Y-11390000D02*
X18044000Y-11390000D01*
X18044000Y-11390000D02*
G75*
G02*
X17914000Y-11390000I-65000J0D01*
G01*
X17914000Y-11390000D02*
G75*
G02*
X18044000Y-11390000I65000J0D01*
G01*
X18579000Y-8982250D02*
X18579000Y-9112250D01*
X18514000Y-9047250D02*
X18644000Y-9047250D01*
X18644000Y-9047250D02*
G75*
G02*
X18514000Y-9047250I-65000J0D01*
G01*
X18514000Y-9047250D02*
G75*
G02*
X18644000Y-9047250I65000J0D01*
G01*
X18579000Y-10202250D02*
X18579000Y-10332250D01*
X18514000Y-10267250D02*
X18644000Y-10267250D01*
X18644000Y-10267250D02*
G75*
G02*
X18514000Y-10267250I-65000J0D01*
G01*
X18514000Y-10267250D02*
G75*
G02*
X18644000Y-10267250I65000J0D01*
G01*
X18579000Y-11525000D02*
X18579000Y-11655000D01*
X18514000Y-11590000D02*
X18644000Y-11590000D01*
X18644000Y-11590000D02*
G75*
G02*
X18514000Y-11590000I-65000J0D01*
G01*
X18514000Y-11590000D02*
G75*
G02*
X18644000Y-11590000I65000J0D01*
G01*
X18579000Y-12745000D02*
X18579000Y-12875000D01*
X18514000Y-12810000D02*
X18644000Y-12810000D01*
X18644000Y-12810000D02*
G75*
G02*
X18514000Y-12810000I-65000J0D01*
G01*
X18514000Y-12810000D02*
G75*
G02*
X18644000Y-12810000I65000J0D01*
G01*
D16*
X14739569Y-6291569D02*
X14739569Y-6178431D01*
X14626431Y-6178431D01*
X14626431Y-6291569D01*
X14739569Y-6291569D01*
X14763000Y-6235000D02*
G75*
G02*
X14603000Y-6235000I-80000J0D01*
G01*
X14603000Y-6235000D02*
G75*
G02*
X14763000Y-6235000I80000J0D01*
G01*
X16314569Y-6291569D02*
X16314569Y-6178431D01*
X16201431Y-6178431D01*
X16201431Y-6291569D01*
X16314569Y-6291569D01*
X16338000Y-6235000D02*
G75*
G02*
X16178000Y-6235000I-80000J0D01*
G01*
X16178000Y-6235000D02*
G75*
G02*
X16338000Y-6235000I80000J0D01*
G01*
D17*
X11782000Y-13977000D02*
X11942000Y-13817000D01*
X11782000Y-13657000D01*
X11622000Y-13817000D01*
X11782000Y-13977000D01*
X11942000Y-13817000D02*
G75*
G02*
X11622000Y-13817000I-160000J0D01*
G01*
X11622000Y-13817000D02*
G75*
G02*
X11942000Y-13817000I160000J0D01*
G01*
X11792000Y-5177000D02*
X11952000Y-5017000D01*
X11792000Y-4857000D01*
X11632000Y-5017000D01*
X11792000Y-5177000D01*
X11952000Y-5017000D02*
G75*
G02*
X11632000Y-5017000I-160000J0D01*
G01*
X11632000Y-5017000D02*
G75*
G02*
X11952000Y-5017000I160000J0D01*
G01*
X18782000Y-5177000D02*
X18942000Y-5017000D01*
X18782000Y-4857000D01*
X18622000Y-5017000D01*
X18782000Y-5177000D01*
X18942000Y-5017000D02*
G75*
G02*
X18622000Y-5017000I-160000J0D01*
G01*
X18622000Y-5017000D02*
G75*
G02*
X18942000Y-5017000I160000J0D01*
G01*
X18782000Y-13977000D02*
X18942000Y-13817000D01*
X18782000Y-13657000D01*
X18622000Y-13817000D01*
X18782000Y-13977000D01*
X18942000Y-13817000D02*
G75*
G02*
X18622000Y-13817000I-160000J0D01*
G01*
X18622000Y-13817000D02*
G75*
G02*
X18942000Y-13817000I160000J0D01*
G01*
D11*
X11540277Y-14830984D02*
X11540277Y-14630984D01*
X11540277Y-14630984D02*
X11587896Y-14630984D01*
X11587896Y-14630984D02*
X11616467Y-14640508D01*
X11616467Y-14640508D02*
X11635515Y-14659555D01*
X11635515Y-14659555D02*
X11645039Y-14678603D01*
X11645039Y-14678603D02*
X11654562Y-14716698D01*
X11654562Y-14716698D02*
X11654562Y-14745269D01*
X11654562Y-14745269D02*
X11645039Y-14783365D01*
X11645039Y-14783365D02*
X11635515Y-14802412D01*
X11635515Y-14802412D02*
X11616467Y-14821460D01*
X11616467Y-14821460D02*
X11587896Y-14830984D01*
X11587896Y-14830984D02*
X11540277Y-14830984D01*
X11740277Y-14830984D02*
X11740277Y-14697650D01*
X11740277Y-14735746D02*
X11749801Y-14716698D01*
X11749801Y-14716698D02*
X11759324Y-14707174D01*
X11759324Y-14707174D02*
X11778372Y-14697650D01*
X11778372Y-14697650D02*
X11797420Y-14697650D01*
X11864086Y-14830984D02*
X11864086Y-14697650D01*
X11864086Y-14630984D02*
X11854562Y-14640508D01*
X11854562Y-14640508D02*
X11864086Y-14650031D01*
X11864086Y-14650031D02*
X11873610Y-14640508D01*
X11873610Y-14640508D02*
X11864086Y-14630984D01*
X11864086Y-14630984D02*
X11864086Y-14650031D01*
X11987896Y-14830984D02*
X11968848Y-14821460D01*
X11968848Y-14821460D02*
X11959324Y-14802412D01*
X11959324Y-14802412D02*
X11959324Y-14630984D01*
X12092658Y-14830984D02*
X12073610Y-14821460D01*
X12073610Y-14821460D02*
X12064086Y-14802412D01*
X12064086Y-14802412D02*
X12064086Y-14630984D01*
X12321229Y-14830984D02*
X12321229Y-14630984D01*
X12321229Y-14630984D02*
X12387896Y-14773841D01*
X12387896Y-14773841D02*
X12454562Y-14630984D01*
X12454562Y-14630984D02*
X12454562Y-14830984D01*
X12635515Y-14830984D02*
X12635515Y-14726222D01*
X12635515Y-14726222D02*
X12625991Y-14707174D01*
X12625991Y-14707174D02*
X12606943Y-14697650D01*
X12606943Y-14697650D02*
X12568848Y-14697650D01*
X12568848Y-14697650D02*
X12549801Y-14707174D01*
X12635515Y-14821460D02*
X12616467Y-14830984D01*
X12616467Y-14830984D02*
X12568848Y-14830984D01*
X12568848Y-14830984D02*
X12549801Y-14821460D01*
X12549801Y-14821460D02*
X12540277Y-14802412D01*
X12540277Y-14802412D02*
X12540277Y-14783365D01*
X12540277Y-14783365D02*
X12549801Y-14764317D01*
X12549801Y-14764317D02*
X12568848Y-14754793D01*
X12568848Y-14754793D02*
X12616467Y-14754793D01*
X12616467Y-14754793D02*
X12635515Y-14745269D01*
X12730753Y-14697650D02*
X12730753Y-14897650D01*
X12730753Y-14707174D02*
X12749801Y-14697650D01*
X12749801Y-14697650D02*
X12787896Y-14697650D01*
X12787896Y-14697650D02*
X12806943Y-14707174D01*
X12806943Y-14707174D02*
X12816467Y-14716698D01*
X12816467Y-14716698D02*
X12825991Y-14735746D01*
X12825991Y-14735746D02*
X12825991Y-14792888D01*
X12825991Y-14792888D02*
X12816467Y-14811936D01*
X12816467Y-14811936D02*
X12806943Y-14821460D01*
X12806943Y-14821460D02*
X12787896Y-14830984D01*
X12787896Y-14830984D02*
X12749801Y-14830984D01*
X12749801Y-14830984D02*
X12730753Y-14821460D01*
X12911705Y-14811936D02*
X12921229Y-14821460D01*
X12921229Y-14821460D02*
X12911705Y-14830984D01*
X12911705Y-14830984D02*
X12902182Y-14821460D01*
X12902182Y-14821460D02*
X12911705Y-14811936D01*
X12911705Y-14811936D02*
X12911705Y-14830984D01*
X12911705Y-14707174D02*
X12921229Y-14716698D01*
X12921229Y-14716698D02*
X12911705Y-14726222D01*
X12911705Y-14726222D02*
X12902182Y-14716698D01*
X12902182Y-14716698D02*
X12911705Y-14707174D01*
X12911705Y-14707174D02*
X12911705Y-14726222D01*
D12*
X11249500Y-15144500D02*
X11279500Y-15174500D01*
X11279500Y-15144500D02*
X11249500Y-15174500D01*
D11*
X11578372Y-15050984D02*
X11597420Y-15050984D01*
X11597420Y-15050984D02*
X11616467Y-15060508D01*
X11616467Y-15060508D02*
X11625991Y-15070031D01*
X11625991Y-15070031D02*
X11635515Y-15089079D01*
X11635515Y-15089079D02*
X11645039Y-15127174D01*
X11645039Y-15127174D02*
X11645039Y-15174793D01*
X11645039Y-15174793D02*
X11635515Y-15212888D01*
X11635515Y-15212888D02*
X11625991Y-15231936D01*
X11625991Y-15231936D02*
X11616467Y-15241460D01*
X11616467Y-15241460D02*
X11597420Y-15250984D01*
X11597420Y-15250984D02*
X11578372Y-15250984D01*
X11578372Y-15250984D02*
X11559324Y-15241460D01*
X11559324Y-15241460D02*
X11549801Y-15231936D01*
X11549801Y-15231936D02*
X11540277Y-15212888D01*
X11540277Y-15212888D02*
X11530753Y-15174793D01*
X11530753Y-15174793D02*
X11530753Y-15127174D01*
X11530753Y-15127174D02*
X11540277Y-15089079D01*
X11540277Y-15089079D02*
X11549801Y-15070031D01*
X11549801Y-15070031D02*
X11559324Y-15060508D01*
X11559324Y-15060508D02*
X11578372Y-15050984D01*
X11730753Y-15231936D02*
X11740277Y-15241460D01*
X11740277Y-15241460D02*
X11730753Y-15250984D01*
X11730753Y-15250984D02*
X11721229Y-15241460D01*
X11721229Y-15241460D02*
X11730753Y-15231936D01*
X11730753Y-15231936D02*
X11730753Y-15250984D01*
X11806943Y-15050984D02*
X11930753Y-15050984D01*
X11930753Y-15050984D02*
X11864086Y-15127174D01*
X11864086Y-15127174D02*
X11892658Y-15127174D01*
X11892658Y-15127174D02*
X11911705Y-15136698D01*
X11911705Y-15136698D02*
X11921229Y-15146222D01*
X11921229Y-15146222D02*
X11930753Y-15165269D01*
X11930753Y-15165269D02*
X11930753Y-15212888D01*
X11930753Y-15212888D02*
X11921229Y-15231936D01*
X11921229Y-15231936D02*
X11911705Y-15241460D01*
X11911705Y-15241460D02*
X11892658Y-15250984D01*
X11892658Y-15250984D02*
X11835515Y-15250984D01*
X11835515Y-15250984D02*
X11816467Y-15241460D01*
X11816467Y-15241460D02*
X11806943Y-15231936D01*
X12054562Y-15050984D02*
X12073610Y-15050984D01*
X12073610Y-15050984D02*
X12092658Y-15060508D01*
X12092658Y-15060508D02*
X12102182Y-15070031D01*
X12102182Y-15070031D02*
X12111705Y-15089079D01*
X12111705Y-15089079D02*
X12121229Y-15127174D01*
X12121229Y-15127174D02*
X12121229Y-15174793D01*
X12121229Y-15174793D02*
X12111705Y-15212888D01*
X12111705Y-15212888D02*
X12102182Y-15231936D01*
X12102182Y-15231936D02*
X12092658Y-15241460D01*
X12092658Y-15241460D02*
X12073610Y-15250984D01*
X12073610Y-15250984D02*
X12054562Y-15250984D01*
X12054562Y-15250984D02*
X12035515Y-15241460D01*
X12035515Y-15241460D02*
X12025991Y-15231936D01*
X12025991Y-15231936D02*
X12016467Y-15212888D01*
X12016467Y-15212888D02*
X12006943Y-15174793D01*
X12006943Y-15174793D02*
X12006943Y-15127174D01*
X12006943Y-15127174D02*
X12016467Y-15089079D01*
X12016467Y-15089079D02*
X12025991Y-15070031D01*
X12025991Y-15070031D02*
X12035515Y-15060508D01*
X12035515Y-15060508D02*
X12054562Y-15050984D01*
X12245039Y-15050984D02*
X12264086Y-15050984D01*
X12264086Y-15050984D02*
X12283134Y-15060508D01*
X12283134Y-15060508D02*
X12292658Y-15070031D01*
X12292658Y-15070031D02*
X12302182Y-15089079D01*
X12302182Y-15089079D02*
X12311705Y-15127174D01*
X12311705Y-15127174D02*
X12311705Y-15174793D01*
X12311705Y-15174793D02*
X12302182Y-15212888D01*
X12302182Y-15212888D02*
X12292658Y-15231936D01*
X12292658Y-15231936D02*
X12283134Y-15241460D01*
X12283134Y-15241460D02*
X12264086Y-15250984D01*
X12264086Y-15250984D02*
X12245039Y-15250984D01*
X12245039Y-15250984D02*
X12225991Y-15241460D01*
X12225991Y-15241460D02*
X12216467Y-15231936D01*
X12216467Y-15231936D02*
X12206943Y-15212888D01*
X12206943Y-15212888D02*
X12197420Y-15174793D01*
X12197420Y-15174793D02*
X12197420Y-15127174D01*
X12197420Y-15127174D02*
X12206943Y-15089079D01*
X12206943Y-15089079D02*
X12216467Y-15070031D01*
X12216467Y-15070031D02*
X12225991Y-15060508D01*
X12225991Y-15060508D02*
X12245039Y-15050984D01*
X12397420Y-15250984D02*
X12397420Y-15117650D01*
X12397420Y-15136698D02*
X12406943Y-15127174D01*
X12406943Y-15127174D02*
X12425991Y-15117650D01*
X12425991Y-15117650D02*
X12454563Y-15117650D01*
X12454563Y-15117650D02*
X12473610Y-15127174D01*
X12473610Y-15127174D02*
X12483134Y-15146222D01*
X12483134Y-15146222D02*
X12483134Y-15250984D01*
X12483134Y-15146222D02*
X12492658Y-15127174D01*
X12492658Y-15127174D02*
X12511705Y-15117650D01*
X12511705Y-15117650D02*
X12540277Y-15117650D01*
X12540277Y-15117650D02*
X12559324Y-15127174D01*
X12559324Y-15127174D02*
X12568848Y-15146222D01*
X12568848Y-15146222D02*
X12568848Y-15250984D01*
X12664086Y-15250984D02*
X12664086Y-15117650D01*
X12664086Y-15136698D02*
X12673610Y-15127174D01*
X12673610Y-15127174D02*
X12692658Y-15117650D01*
X12692658Y-15117650D02*
X12721229Y-15117650D01*
X12721229Y-15117650D02*
X12740277Y-15127174D01*
X12740277Y-15127174D02*
X12749801Y-15146222D01*
X12749801Y-15146222D02*
X12749801Y-15250984D01*
X12749801Y-15146222D02*
X12759324Y-15127174D01*
X12759324Y-15127174D02*
X12778372Y-15117650D01*
X12778372Y-15117650D02*
X12806943Y-15117650D01*
X12806943Y-15117650D02*
X12825991Y-15127174D01*
X12825991Y-15127174D02*
X12835515Y-15146222D01*
X12835515Y-15146222D02*
X12835515Y-15250984D01*
X13225991Y-15041460D02*
X13054563Y-15298603D01*
X13483134Y-15050984D02*
X13502182Y-15050984D01*
X13502182Y-15050984D02*
X13521229Y-15060508D01*
X13521229Y-15060508D02*
X13530753Y-15070031D01*
X13530753Y-15070031D02*
X13540277Y-15089079D01*
X13540277Y-15089079D02*
X13549801Y-15127174D01*
X13549801Y-15127174D02*
X13549801Y-15174793D01*
X13549801Y-15174793D02*
X13540277Y-15212888D01*
X13540277Y-15212888D02*
X13530753Y-15231936D01*
X13530753Y-15231936D02*
X13521229Y-15241460D01*
X13521229Y-15241460D02*
X13502182Y-15250984D01*
X13502182Y-15250984D02*
X13483134Y-15250984D01*
X13483134Y-15250984D02*
X13464086Y-15241460D01*
X13464086Y-15241460D02*
X13454563Y-15231936D01*
X13454563Y-15231936D02*
X13445039Y-15212888D01*
X13445039Y-15212888D02*
X13435515Y-15174793D01*
X13435515Y-15174793D02*
X13435515Y-15127174D01*
X13435515Y-15127174D02*
X13445039Y-15089079D01*
X13445039Y-15089079D02*
X13454563Y-15070031D01*
X13454563Y-15070031D02*
X13464086Y-15060508D01*
X13464086Y-15060508D02*
X13483134Y-15050984D01*
X13635515Y-15231936D02*
X13645039Y-15241460D01*
X13645039Y-15241460D02*
X13635515Y-15250984D01*
X13635515Y-15250984D02*
X13625991Y-15241460D01*
X13625991Y-15241460D02*
X13635515Y-15231936D01*
X13635515Y-15231936D02*
X13635515Y-15250984D01*
X13768848Y-15050984D02*
X13787896Y-15050984D01*
X13787896Y-15050984D02*
X13806944Y-15060508D01*
X13806944Y-15060508D02*
X13816467Y-15070031D01*
X13816467Y-15070031D02*
X13825991Y-15089079D01*
X13825991Y-15089079D02*
X13835515Y-15127174D01*
X13835515Y-15127174D02*
X13835515Y-15174793D01*
X13835515Y-15174793D02*
X13825991Y-15212888D01*
X13825991Y-15212888D02*
X13816467Y-15231936D01*
X13816467Y-15231936D02*
X13806944Y-15241460D01*
X13806944Y-15241460D02*
X13787896Y-15250984D01*
X13787896Y-15250984D02*
X13768848Y-15250984D01*
X13768848Y-15250984D02*
X13749801Y-15241460D01*
X13749801Y-15241460D02*
X13740277Y-15231936D01*
X13740277Y-15231936D02*
X13730753Y-15212888D01*
X13730753Y-15212888D02*
X13721229Y-15174793D01*
X13721229Y-15174793D02*
X13721229Y-15127174D01*
X13721229Y-15127174D02*
X13730753Y-15089079D01*
X13730753Y-15089079D02*
X13740277Y-15070031D01*
X13740277Y-15070031D02*
X13749801Y-15060508D01*
X13749801Y-15060508D02*
X13768848Y-15050984D01*
X14025991Y-15250984D02*
X13911706Y-15250984D01*
X13968848Y-15250984D02*
X13968848Y-15050984D01*
X13968848Y-15050984D02*
X13949801Y-15079555D01*
X13949801Y-15079555D02*
X13930753Y-15098603D01*
X13930753Y-15098603D02*
X13911706Y-15108127D01*
X14216467Y-15250984D02*
X14102182Y-15250984D01*
X14159325Y-15250984D02*
X14159325Y-15050984D01*
X14159325Y-15050984D02*
X14140277Y-15079555D01*
X14140277Y-15079555D02*
X14121229Y-15098603D01*
X14121229Y-15098603D02*
X14102182Y-15108127D01*
X14330753Y-15136698D02*
X14311706Y-15127174D01*
X14311706Y-15127174D02*
X14302182Y-15117650D01*
X14302182Y-15117650D02*
X14292658Y-15098603D01*
X14292658Y-15098603D02*
X14292658Y-15089079D01*
X14292658Y-15089079D02*
X14302182Y-15070031D01*
X14302182Y-15070031D02*
X14311706Y-15060508D01*
X14311706Y-15060508D02*
X14330753Y-15050984D01*
X14330753Y-15050984D02*
X14368848Y-15050984D01*
X14368848Y-15050984D02*
X14387896Y-15060508D01*
X14387896Y-15060508D02*
X14397420Y-15070031D01*
X14397420Y-15070031D02*
X14406944Y-15089079D01*
X14406944Y-15089079D02*
X14406944Y-15098603D01*
X14406944Y-15098603D02*
X14397420Y-15117650D01*
X14397420Y-15117650D02*
X14387896Y-15127174D01*
X14387896Y-15127174D02*
X14368848Y-15136698D01*
X14368848Y-15136698D02*
X14330753Y-15136698D01*
X14330753Y-15136698D02*
X14311706Y-15146222D01*
X14311706Y-15146222D02*
X14302182Y-15155746D01*
X14302182Y-15155746D02*
X14292658Y-15174793D01*
X14292658Y-15174793D02*
X14292658Y-15212888D01*
X14292658Y-15212888D02*
X14302182Y-15231936D01*
X14302182Y-15231936D02*
X14311706Y-15241460D01*
X14311706Y-15241460D02*
X14330753Y-15250984D01*
X14330753Y-15250984D02*
X14368848Y-15250984D01*
X14368848Y-15250984D02*
X14387896Y-15241460D01*
X14387896Y-15241460D02*
X14397420Y-15231936D01*
X14397420Y-15231936D02*
X14406944Y-15212888D01*
X14406944Y-15212888D02*
X14406944Y-15174793D01*
X14406944Y-15174793D02*
X14397420Y-15155746D01*
X14397420Y-15155746D02*
X14387896Y-15146222D01*
X14387896Y-15146222D02*
X14368848Y-15136698D01*
X14483134Y-15050984D02*
X14483134Y-15089079D01*
X14559325Y-15050984D02*
X14559325Y-15089079D01*
X14854563Y-15327174D02*
X14845039Y-15317650D01*
X14845039Y-15317650D02*
X14825991Y-15289079D01*
X14825991Y-15289079D02*
X14816468Y-15270031D01*
X14816468Y-15270031D02*
X14806944Y-15241460D01*
X14806944Y-15241460D02*
X14797420Y-15193841D01*
X14797420Y-15193841D02*
X14797420Y-15155746D01*
X14797420Y-15155746D02*
X14806944Y-15108127D01*
X14806944Y-15108127D02*
X14816468Y-15079555D01*
X14816468Y-15079555D02*
X14825991Y-15060508D01*
X14825991Y-15060508D02*
X14845039Y-15031936D01*
X14845039Y-15031936D02*
X14854563Y-15022412D01*
X14911706Y-15050984D02*
X15035515Y-15050984D01*
X15035515Y-15050984D02*
X14968848Y-15127174D01*
X14968848Y-15127174D02*
X14997420Y-15127174D01*
X14997420Y-15127174D02*
X15016468Y-15136698D01*
X15016468Y-15136698D02*
X15025991Y-15146222D01*
X15025991Y-15146222D02*
X15035515Y-15165269D01*
X15035515Y-15165269D02*
X15035515Y-15212888D01*
X15035515Y-15212888D02*
X15025991Y-15231936D01*
X15025991Y-15231936D02*
X15016468Y-15241460D01*
X15016468Y-15241460D02*
X14997420Y-15250984D01*
X14997420Y-15250984D02*
X14940277Y-15250984D01*
X14940277Y-15250984D02*
X14921229Y-15241460D01*
X14921229Y-15241460D02*
X14911706Y-15231936D01*
X15273610Y-15250984D02*
X15273610Y-15050984D01*
X15359325Y-15250984D02*
X15359325Y-15146222D01*
X15359325Y-15146222D02*
X15349801Y-15127174D01*
X15349801Y-15127174D02*
X15330753Y-15117650D01*
X15330753Y-15117650D02*
X15302182Y-15117650D01*
X15302182Y-15117650D02*
X15283134Y-15127174D01*
X15283134Y-15127174D02*
X15273610Y-15136698D01*
X15483134Y-15250984D02*
X15464087Y-15241460D01*
X15464087Y-15241460D02*
X15454563Y-15231936D01*
X15454563Y-15231936D02*
X15445039Y-15212888D01*
X15445039Y-15212888D02*
X15445039Y-15155746D01*
X15445039Y-15155746D02*
X15454563Y-15136698D01*
X15454563Y-15136698D02*
X15464087Y-15127174D01*
X15464087Y-15127174D02*
X15483134Y-15117650D01*
X15483134Y-15117650D02*
X15511706Y-15117650D01*
X15511706Y-15117650D02*
X15530753Y-15127174D01*
X15530753Y-15127174D02*
X15540277Y-15136698D01*
X15540277Y-15136698D02*
X15549801Y-15155746D01*
X15549801Y-15155746D02*
X15549801Y-15212888D01*
X15549801Y-15212888D02*
X15540277Y-15231936D01*
X15540277Y-15231936D02*
X15530753Y-15241460D01*
X15530753Y-15241460D02*
X15511706Y-15250984D01*
X15511706Y-15250984D02*
X15483134Y-15250984D01*
X15664087Y-15250984D02*
X15645039Y-15241460D01*
X15645039Y-15241460D02*
X15635515Y-15222412D01*
X15635515Y-15222412D02*
X15635515Y-15050984D01*
X15816468Y-15241460D02*
X15797420Y-15250984D01*
X15797420Y-15250984D02*
X15759325Y-15250984D01*
X15759325Y-15250984D02*
X15740277Y-15241460D01*
X15740277Y-15241460D02*
X15730753Y-15222412D01*
X15730753Y-15222412D02*
X15730753Y-15146222D01*
X15730753Y-15146222D02*
X15740277Y-15127174D01*
X15740277Y-15127174D02*
X15759325Y-15117650D01*
X15759325Y-15117650D02*
X15797420Y-15117650D01*
X15797420Y-15117650D02*
X15816468Y-15127174D01*
X15816468Y-15127174D02*
X15825991Y-15146222D01*
X15825991Y-15146222D02*
X15825991Y-15165269D01*
X15825991Y-15165269D02*
X15730753Y-15184317D01*
X15902182Y-15241460D02*
X15921230Y-15250984D01*
X15921230Y-15250984D02*
X15959325Y-15250984D01*
X15959325Y-15250984D02*
X15978372Y-15241460D01*
X15978372Y-15241460D02*
X15987896Y-15222412D01*
X15987896Y-15222412D02*
X15987896Y-15212888D01*
X15987896Y-15212888D02*
X15978372Y-15193841D01*
X15978372Y-15193841D02*
X15959325Y-15184317D01*
X15959325Y-15184317D02*
X15930753Y-15184317D01*
X15930753Y-15184317D02*
X15911706Y-15174793D01*
X15911706Y-15174793D02*
X15902182Y-15155746D01*
X15902182Y-15155746D02*
X15902182Y-15146222D01*
X15902182Y-15146222D02*
X15911706Y-15127174D01*
X15911706Y-15127174D02*
X15930753Y-15117650D01*
X15930753Y-15117650D02*
X15959325Y-15117650D01*
X15959325Y-15117650D02*
X15978372Y-15127174D01*
X16054563Y-15327174D02*
X16064087Y-15317650D01*
X16064087Y-15317650D02*
X16083134Y-15289079D01*
X16083134Y-15289079D02*
X16092658Y-15270031D01*
X16092658Y-15270031D02*
X16102182Y-15241460D01*
X16102182Y-15241460D02*
X16111706Y-15193841D01*
X16111706Y-15193841D02*
X16111706Y-15155746D01*
X16111706Y-15155746D02*
X16102182Y-15108127D01*
X16102182Y-15108127D02*
X16092658Y-15079555D01*
X16092658Y-15079555D02*
X16083134Y-15060508D01*
X16083134Y-15060508D02*
X16064087Y-15031936D01*
X16064087Y-15031936D02*
X16054563Y-15022412D01*
D12*
X11279500Y-15423500D02*
G75*
G02*
X11204500Y-15423500I-37500J0D01*
G01*
X11204500Y-15423500D02*
G75*
G02*
X11279500Y-15423500I37500J0D01*
G01*
D11*
X11578372Y-15314984D02*
X11597420Y-15314984D01*
X11597420Y-15314984D02*
X11616467Y-15324508D01*
X11616467Y-15324508D02*
X11625991Y-15334031D01*
X11625991Y-15334031D02*
X11635515Y-15353079D01*
X11635515Y-15353079D02*
X11645039Y-15391174D01*
X11645039Y-15391174D02*
X11645039Y-15438793D01*
X11645039Y-15438793D02*
X11635515Y-15476888D01*
X11635515Y-15476888D02*
X11625991Y-15495936D01*
X11625991Y-15495936D02*
X11616467Y-15505460D01*
X11616467Y-15505460D02*
X11597420Y-15514984D01*
X11597420Y-15514984D02*
X11578372Y-15514984D01*
X11578372Y-15514984D02*
X11559324Y-15505460D01*
X11559324Y-15505460D02*
X11549801Y-15495936D01*
X11549801Y-15495936D02*
X11540277Y-15476888D01*
X11540277Y-15476888D02*
X11530753Y-15438793D01*
X11530753Y-15438793D02*
X11530753Y-15391174D01*
X11530753Y-15391174D02*
X11540277Y-15353079D01*
X11540277Y-15353079D02*
X11549801Y-15334031D01*
X11549801Y-15334031D02*
X11559324Y-15324508D01*
X11559324Y-15324508D02*
X11578372Y-15314984D01*
X11730753Y-15495936D02*
X11740277Y-15505460D01*
X11740277Y-15505460D02*
X11730753Y-15514984D01*
X11730753Y-15514984D02*
X11721229Y-15505460D01*
X11721229Y-15505460D02*
X11730753Y-15495936D01*
X11730753Y-15495936D02*
X11730753Y-15514984D01*
X11806943Y-15314984D02*
X11940277Y-15314984D01*
X11940277Y-15314984D02*
X11854562Y-15514984D01*
X12111705Y-15314984D02*
X12016467Y-15314984D01*
X12016467Y-15314984D02*
X12006943Y-15410222D01*
X12006943Y-15410222D02*
X12016467Y-15400698D01*
X12016467Y-15400698D02*
X12035515Y-15391174D01*
X12035515Y-15391174D02*
X12083134Y-15391174D01*
X12083134Y-15391174D02*
X12102182Y-15400698D01*
X12102182Y-15400698D02*
X12111705Y-15410222D01*
X12111705Y-15410222D02*
X12121229Y-15429269D01*
X12121229Y-15429269D02*
X12121229Y-15476888D01*
X12121229Y-15476888D02*
X12111705Y-15495936D01*
X12111705Y-15495936D02*
X12102182Y-15505460D01*
X12102182Y-15505460D02*
X12083134Y-15514984D01*
X12083134Y-15514984D02*
X12035515Y-15514984D01*
X12035515Y-15514984D02*
X12016467Y-15505460D01*
X12016467Y-15505460D02*
X12006943Y-15495936D01*
X12245039Y-15314984D02*
X12264086Y-15314984D01*
X12264086Y-15314984D02*
X12283134Y-15324508D01*
X12283134Y-15324508D02*
X12292658Y-15334031D01*
X12292658Y-15334031D02*
X12302182Y-15353079D01*
X12302182Y-15353079D02*
X12311705Y-15391174D01*
X12311705Y-15391174D02*
X12311705Y-15438793D01*
X12311705Y-15438793D02*
X12302182Y-15476888D01*
X12302182Y-15476888D02*
X12292658Y-15495936D01*
X12292658Y-15495936D02*
X12283134Y-15505460D01*
X12283134Y-15505460D02*
X12264086Y-15514984D01*
X12264086Y-15514984D02*
X12245039Y-15514984D01*
X12245039Y-15514984D02*
X12225991Y-15505460D01*
X12225991Y-15505460D02*
X12216467Y-15495936D01*
X12216467Y-15495936D02*
X12206943Y-15476888D01*
X12206943Y-15476888D02*
X12197420Y-15438793D01*
X12197420Y-15438793D02*
X12197420Y-15391174D01*
X12197420Y-15391174D02*
X12206943Y-15353079D01*
X12206943Y-15353079D02*
X12216467Y-15334031D01*
X12216467Y-15334031D02*
X12225991Y-15324508D01*
X12225991Y-15324508D02*
X12245039Y-15314984D01*
X12397420Y-15514984D02*
X12397420Y-15381650D01*
X12397420Y-15400698D02*
X12406943Y-15391174D01*
X12406943Y-15391174D02*
X12425991Y-15381650D01*
X12425991Y-15381650D02*
X12454563Y-15381650D01*
X12454563Y-15381650D02*
X12473610Y-15391174D01*
X12473610Y-15391174D02*
X12483134Y-15410222D01*
X12483134Y-15410222D02*
X12483134Y-15514984D01*
X12483134Y-15410222D02*
X12492658Y-15391174D01*
X12492658Y-15391174D02*
X12511705Y-15381650D01*
X12511705Y-15381650D02*
X12540277Y-15381650D01*
X12540277Y-15381650D02*
X12559324Y-15391174D01*
X12559324Y-15391174D02*
X12568848Y-15410222D01*
X12568848Y-15410222D02*
X12568848Y-15514984D01*
X12664086Y-15514984D02*
X12664086Y-15381650D01*
X12664086Y-15400698D02*
X12673610Y-15391174D01*
X12673610Y-15391174D02*
X12692658Y-15381650D01*
X12692658Y-15381650D02*
X12721229Y-15381650D01*
X12721229Y-15381650D02*
X12740277Y-15391174D01*
X12740277Y-15391174D02*
X12749801Y-15410222D01*
X12749801Y-15410222D02*
X12749801Y-15514984D01*
X12749801Y-15410222D02*
X12759324Y-15391174D01*
X12759324Y-15391174D02*
X12778372Y-15381650D01*
X12778372Y-15381650D02*
X12806943Y-15381650D01*
X12806943Y-15381650D02*
X12825991Y-15391174D01*
X12825991Y-15391174D02*
X12835515Y-15410222D01*
X12835515Y-15410222D02*
X12835515Y-15514984D01*
X13225991Y-15305460D02*
X13054563Y-15562603D01*
X13483134Y-15314984D02*
X13502182Y-15314984D01*
X13502182Y-15314984D02*
X13521229Y-15324508D01*
X13521229Y-15324508D02*
X13530753Y-15334031D01*
X13530753Y-15334031D02*
X13540277Y-15353079D01*
X13540277Y-15353079D02*
X13549801Y-15391174D01*
X13549801Y-15391174D02*
X13549801Y-15438793D01*
X13549801Y-15438793D02*
X13540277Y-15476888D01*
X13540277Y-15476888D02*
X13530753Y-15495936D01*
X13530753Y-15495936D02*
X13521229Y-15505460D01*
X13521229Y-15505460D02*
X13502182Y-15514984D01*
X13502182Y-15514984D02*
X13483134Y-15514984D01*
X13483134Y-15514984D02*
X13464086Y-15505460D01*
X13464086Y-15505460D02*
X13454563Y-15495936D01*
X13454563Y-15495936D02*
X13445039Y-15476888D01*
X13445039Y-15476888D02*
X13435515Y-15438793D01*
X13435515Y-15438793D02*
X13435515Y-15391174D01*
X13435515Y-15391174D02*
X13445039Y-15353079D01*
X13445039Y-15353079D02*
X13454563Y-15334031D01*
X13454563Y-15334031D02*
X13464086Y-15324508D01*
X13464086Y-15324508D02*
X13483134Y-15314984D01*
X13635515Y-15495936D02*
X13645039Y-15505460D01*
X13645039Y-15505460D02*
X13635515Y-15514984D01*
X13635515Y-15514984D02*
X13625991Y-15505460D01*
X13625991Y-15505460D02*
X13635515Y-15495936D01*
X13635515Y-15495936D02*
X13635515Y-15514984D01*
X13768848Y-15314984D02*
X13787896Y-15314984D01*
X13787896Y-15314984D02*
X13806944Y-15324508D01*
X13806944Y-15324508D02*
X13816467Y-15334031D01*
X13816467Y-15334031D02*
X13825991Y-15353079D01*
X13825991Y-15353079D02*
X13835515Y-15391174D01*
X13835515Y-15391174D02*
X13835515Y-15438793D01*
X13835515Y-15438793D02*
X13825991Y-15476888D01*
X13825991Y-15476888D02*
X13816467Y-15495936D01*
X13816467Y-15495936D02*
X13806944Y-15505460D01*
X13806944Y-15505460D02*
X13787896Y-15514984D01*
X13787896Y-15514984D02*
X13768848Y-15514984D01*
X13768848Y-15514984D02*
X13749801Y-15505460D01*
X13749801Y-15505460D02*
X13740277Y-15495936D01*
X13740277Y-15495936D02*
X13730753Y-15476888D01*
X13730753Y-15476888D02*
X13721229Y-15438793D01*
X13721229Y-15438793D02*
X13721229Y-15391174D01*
X13721229Y-15391174D02*
X13730753Y-15353079D01*
X13730753Y-15353079D02*
X13740277Y-15334031D01*
X13740277Y-15334031D02*
X13749801Y-15324508D01*
X13749801Y-15324508D02*
X13768848Y-15314984D01*
X13911706Y-15334031D02*
X13921229Y-15324508D01*
X13921229Y-15324508D02*
X13940277Y-15314984D01*
X13940277Y-15314984D02*
X13987896Y-15314984D01*
X13987896Y-15314984D02*
X14006944Y-15324508D01*
X14006944Y-15324508D02*
X14016467Y-15334031D01*
X14016467Y-15334031D02*
X14025991Y-15353079D01*
X14025991Y-15353079D02*
X14025991Y-15372127D01*
X14025991Y-15372127D02*
X14016467Y-15400698D01*
X14016467Y-15400698D02*
X13902182Y-15514984D01*
X13902182Y-15514984D02*
X14025991Y-15514984D01*
X14121229Y-15514984D02*
X14159325Y-15514984D01*
X14159325Y-15514984D02*
X14178372Y-15505460D01*
X14178372Y-15505460D02*
X14187896Y-15495936D01*
X14187896Y-15495936D02*
X14206944Y-15467365D01*
X14206944Y-15467365D02*
X14216467Y-15429269D01*
X14216467Y-15429269D02*
X14216467Y-15353079D01*
X14216467Y-15353079D02*
X14206944Y-15334031D01*
X14206944Y-15334031D02*
X14197420Y-15324508D01*
X14197420Y-15324508D02*
X14178372Y-15314984D01*
X14178372Y-15314984D02*
X14140277Y-15314984D01*
X14140277Y-15314984D02*
X14121229Y-15324508D01*
X14121229Y-15324508D02*
X14111706Y-15334031D01*
X14111706Y-15334031D02*
X14102182Y-15353079D01*
X14102182Y-15353079D02*
X14102182Y-15400698D01*
X14102182Y-15400698D02*
X14111706Y-15419746D01*
X14111706Y-15419746D02*
X14121229Y-15429269D01*
X14121229Y-15429269D02*
X14140277Y-15438793D01*
X14140277Y-15438793D02*
X14178372Y-15438793D01*
X14178372Y-15438793D02*
X14197420Y-15429269D01*
X14197420Y-15429269D02*
X14206944Y-15419746D01*
X14206944Y-15419746D02*
X14216467Y-15400698D01*
X14397420Y-15314984D02*
X14302182Y-15314984D01*
X14302182Y-15314984D02*
X14292658Y-15410222D01*
X14292658Y-15410222D02*
X14302182Y-15400698D01*
X14302182Y-15400698D02*
X14321229Y-15391174D01*
X14321229Y-15391174D02*
X14368848Y-15391174D01*
X14368848Y-15391174D02*
X14387896Y-15400698D01*
X14387896Y-15400698D02*
X14397420Y-15410222D01*
X14397420Y-15410222D02*
X14406944Y-15429269D01*
X14406944Y-15429269D02*
X14406944Y-15476888D01*
X14406944Y-15476888D02*
X14397420Y-15495936D01*
X14397420Y-15495936D02*
X14387896Y-15505460D01*
X14387896Y-15505460D02*
X14368848Y-15514984D01*
X14368848Y-15514984D02*
X14321229Y-15514984D01*
X14321229Y-15514984D02*
X14302182Y-15505460D01*
X14302182Y-15505460D02*
X14292658Y-15495936D01*
X14483134Y-15314984D02*
X14483134Y-15353079D01*
X14559325Y-15314984D02*
X14559325Y-15353079D01*
X14854563Y-15591174D02*
X14845039Y-15581650D01*
X14845039Y-15581650D02*
X14825991Y-15553079D01*
X14825991Y-15553079D02*
X14816468Y-15534031D01*
X14816468Y-15534031D02*
X14806944Y-15505460D01*
X14806944Y-15505460D02*
X14797420Y-15457841D01*
X14797420Y-15457841D02*
X14797420Y-15419746D01*
X14797420Y-15419746D02*
X14806944Y-15372127D01*
X14806944Y-15372127D02*
X14816468Y-15343555D01*
X14816468Y-15343555D02*
X14825991Y-15324508D01*
X14825991Y-15324508D02*
X14845039Y-15295936D01*
X14845039Y-15295936D02*
X14854563Y-15286412D01*
X14940277Y-15514984D02*
X14978372Y-15514984D01*
X14978372Y-15514984D02*
X14997420Y-15505460D01*
X14997420Y-15505460D02*
X15006944Y-15495936D01*
X15006944Y-15495936D02*
X15025991Y-15467365D01*
X15025991Y-15467365D02*
X15035515Y-15429269D01*
X15035515Y-15429269D02*
X15035515Y-15353079D01*
X15035515Y-15353079D02*
X15025991Y-15334031D01*
X15025991Y-15334031D02*
X15016468Y-15324508D01*
X15016468Y-15324508D02*
X14997420Y-15314984D01*
X14997420Y-15314984D02*
X14959325Y-15314984D01*
X14959325Y-15314984D02*
X14940277Y-15324508D01*
X14940277Y-15324508D02*
X14930753Y-15334031D01*
X14930753Y-15334031D02*
X14921229Y-15353079D01*
X14921229Y-15353079D02*
X14921229Y-15400698D01*
X14921229Y-15400698D02*
X14930753Y-15419746D01*
X14930753Y-15419746D02*
X14940277Y-15429269D01*
X14940277Y-15429269D02*
X14959325Y-15438793D01*
X14959325Y-15438793D02*
X14997420Y-15438793D01*
X14997420Y-15438793D02*
X15016468Y-15429269D01*
X15016468Y-15429269D02*
X15025991Y-15419746D01*
X15025991Y-15419746D02*
X15035515Y-15400698D01*
X15273610Y-15514984D02*
X15273610Y-15314984D01*
X15359325Y-15514984D02*
X15359325Y-15410222D01*
X15359325Y-15410222D02*
X15349801Y-15391174D01*
X15349801Y-15391174D02*
X15330753Y-15381650D01*
X15330753Y-15381650D02*
X15302182Y-15381650D01*
X15302182Y-15381650D02*
X15283134Y-15391174D01*
X15283134Y-15391174D02*
X15273610Y-15400698D01*
X15483134Y-15514984D02*
X15464087Y-15505460D01*
X15464087Y-15505460D02*
X15454563Y-15495936D01*
X15454563Y-15495936D02*
X15445039Y-15476888D01*
X15445039Y-15476888D02*
X15445039Y-15419746D01*
X15445039Y-15419746D02*
X15454563Y-15400698D01*
X15454563Y-15400698D02*
X15464087Y-15391174D01*
X15464087Y-15391174D02*
X15483134Y-15381650D01*
X15483134Y-15381650D02*
X15511706Y-15381650D01*
X15511706Y-15381650D02*
X15530753Y-15391174D01*
X15530753Y-15391174D02*
X15540277Y-15400698D01*
X15540277Y-15400698D02*
X15549801Y-15419746D01*
X15549801Y-15419746D02*
X15549801Y-15476888D01*
X15549801Y-15476888D02*
X15540277Y-15495936D01*
X15540277Y-15495936D02*
X15530753Y-15505460D01*
X15530753Y-15505460D02*
X15511706Y-15514984D01*
X15511706Y-15514984D02*
X15483134Y-15514984D01*
X15664087Y-15514984D02*
X15645039Y-15505460D01*
X15645039Y-15505460D02*
X15635515Y-15486412D01*
X15635515Y-15486412D02*
X15635515Y-15314984D01*
X15816468Y-15505460D02*
X15797420Y-15514984D01*
X15797420Y-15514984D02*
X15759325Y-15514984D01*
X15759325Y-15514984D02*
X15740277Y-15505460D01*
X15740277Y-15505460D02*
X15730753Y-15486412D01*
X15730753Y-15486412D02*
X15730753Y-15410222D01*
X15730753Y-15410222D02*
X15740277Y-15391174D01*
X15740277Y-15391174D02*
X15759325Y-15381650D01*
X15759325Y-15381650D02*
X15797420Y-15381650D01*
X15797420Y-15381650D02*
X15816468Y-15391174D01*
X15816468Y-15391174D02*
X15825991Y-15410222D01*
X15825991Y-15410222D02*
X15825991Y-15429269D01*
X15825991Y-15429269D02*
X15730753Y-15448317D01*
X15902182Y-15505460D02*
X15921230Y-15514984D01*
X15921230Y-15514984D02*
X15959325Y-15514984D01*
X15959325Y-15514984D02*
X15978372Y-15505460D01*
X15978372Y-15505460D02*
X15987896Y-15486412D01*
X15987896Y-15486412D02*
X15987896Y-15476888D01*
X15987896Y-15476888D02*
X15978372Y-15457841D01*
X15978372Y-15457841D02*
X15959325Y-15448317D01*
X15959325Y-15448317D02*
X15930753Y-15448317D01*
X15930753Y-15448317D02*
X15911706Y-15438793D01*
X15911706Y-15438793D02*
X15902182Y-15419746D01*
X15902182Y-15419746D02*
X15902182Y-15410222D01*
X15902182Y-15410222D02*
X15911706Y-15391174D01*
X15911706Y-15391174D02*
X15930753Y-15381650D01*
X15930753Y-15381650D02*
X15959325Y-15381650D01*
X15959325Y-15381650D02*
X15978372Y-15391174D01*
X16054563Y-15591174D02*
X16064087Y-15581650D01*
X16064087Y-15581650D02*
X16083134Y-15553079D01*
X16083134Y-15553079D02*
X16092658Y-15534031D01*
X16092658Y-15534031D02*
X16102182Y-15505460D01*
X16102182Y-15505460D02*
X16111706Y-15457841D01*
X16111706Y-15457841D02*
X16111706Y-15419746D01*
X16111706Y-15419746D02*
X16102182Y-15372127D01*
X16102182Y-15372127D02*
X16092658Y-15343555D01*
X16092658Y-15343555D02*
X16083134Y-15324508D01*
X16083134Y-15324508D02*
X16064087Y-15295936D01*
X16064087Y-15295936D02*
X16054563Y-15286412D01*
D12*
X11239500Y-15647500D02*
X11239500Y-15727500D01*
X11199500Y-15687500D02*
X11279500Y-15687500D01*
D11*
X11578372Y-15578984D02*
X11597420Y-15578984D01*
X11597420Y-15578984D02*
X11616467Y-15588508D01*
X11616467Y-15588508D02*
X11625991Y-15598031D01*
X11625991Y-15598031D02*
X11635515Y-15617079D01*
X11635515Y-15617079D02*
X11645039Y-15655174D01*
X11645039Y-15655174D02*
X11645039Y-15702793D01*
X11645039Y-15702793D02*
X11635515Y-15740888D01*
X11635515Y-15740888D02*
X11625991Y-15759936D01*
X11625991Y-15759936D02*
X11616467Y-15769460D01*
X11616467Y-15769460D02*
X11597420Y-15778984D01*
X11597420Y-15778984D02*
X11578372Y-15778984D01*
X11578372Y-15778984D02*
X11559324Y-15769460D01*
X11559324Y-15769460D02*
X11549801Y-15759936D01*
X11549801Y-15759936D02*
X11540277Y-15740888D01*
X11540277Y-15740888D02*
X11530753Y-15702793D01*
X11530753Y-15702793D02*
X11530753Y-15655174D01*
X11530753Y-15655174D02*
X11540277Y-15617079D01*
X11540277Y-15617079D02*
X11549801Y-15598031D01*
X11549801Y-15598031D02*
X11559324Y-15588508D01*
X11559324Y-15588508D02*
X11578372Y-15578984D01*
X11730753Y-15759936D02*
X11740277Y-15769460D01*
X11740277Y-15769460D02*
X11730753Y-15778984D01*
X11730753Y-15778984D02*
X11721229Y-15769460D01*
X11721229Y-15769460D02*
X11730753Y-15759936D01*
X11730753Y-15759936D02*
X11730753Y-15778984D01*
X11854562Y-15664698D02*
X11835515Y-15655174D01*
X11835515Y-15655174D02*
X11825991Y-15645650D01*
X11825991Y-15645650D02*
X11816467Y-15626603D01*
X11816467Y-15626603D02*
X11816467Y-15617079D01*
X11816467Y-15617079D02*
X11825991Y-15598031D01*
X11825991Y-15598031D02*
X11835515Y-15588508D01*
X11835515Y-15588508D02*
X11854562Y-15578984D01*
X11854562Y-15578984D02*
X11892658Y-15578984D01*
X11892658Y-15578984D02*
X11911705Y-15588508D01*
X11911705Y-15588508D02*
X11921229Y-15598031D01*
X11921229Y-15598031D02*
X11930753Y-15617079D01*
X11930753Y-15617079D02*
X11930753Y-15626603D01*
X11930753Y-15626603D02*
X11921229Y-15645650D01*
X11921229Y-15645650D02*
X11911705Y-15655174D01*
X11911705Y-15655174D02*
X11892658Y-15664698D01*
X11892658Y-15664698D02*
X11854562Y-15664698D01*
X11854562Y-15664698D02*
X11835515Y-15674222D01*
X11835515Y-15674222D02*
X11825991Y-15683746D01*
X11825991Y-15683746D02*
X11816467Y-15702793D01*
X11816467Y-15702793D02*
X11816467Y-15740888D01*
X11816467Y-15740888D02*
X11825991Y-15759936D01*
X11825991Y-15759936D02*
X11835515Y-15769460D01*
X11835515Y-15769460D02*
X11854562Y-15778984D01*
X11854562Y-15778984D02*
X11892658Y-15778984D01*
X11892658Y-15778984D02*
X11911705Y-15769460D01*
X11911705Y-15769460D02*
X11921229Y-15759936D01*
X11921229Y-15759936D02*
X11930753Y-15740888D01*
X11930753Y-15740888D02*
X11930753Y-15702793D01*
X11930753Y-15702793D02*
X11921229Y-15683746D01*
X11921229Y-15683746D02*
X11911705Y-15674222D01*
X11911705Y-15674222D02*
X11892658Y-15664698D01*
X12054562Y-15578984D02*
X12073610Y-15578984D01*
X12073610Y-15578984D02*
X12092658Y-15588508D01*
X12092658Y-15588508D02*
X12102182Y-15598031D01*
X12102182Y-15598031D02*
X12111705Y-15617079D01*
X12111705Y-15617079D02*
X12121229Y-15655174D01*
X12121229Y-15655174D02*
X12121229Y-15702793D01*
X12121229Y-15702793D02*
X12111705Y-15740888D01*
X12111705Y-15740888D02*
X12102182Y-15759936D01*
X12102182Y-15759936D02*
X12092658Y-15769460D01*
X12092658Y-15769460D02*
X12073610Y-15778984D01*
X12073610Y-15778984D02*
X12054562Y-15778984D01*
X12054562Y-15778984D02*
X12035515Y-15769460D01*
X12035515Y-15769460D02*
X12025991Y-15759936D01*
X12025991Y-15759936D02*
X12016467Y-15740888D01*
X12016467Y-15740888D02*
X12006943Y-15702793D01*
X12006943Y-15702793D02*
X12006943Y-15655174D01*
X12006943Y-15655174D02*
X12016467Y-15617079D01*
X12016467Y-15617079D02*
X12025991Y-15598031D01*
X12025991Y-15598031D02*
X12035515Y-15588508D01*
X12035515Y-15588508D02*
X12054562Y-15578984D01*
X12245039Y-15578984D02*
X12264086Y-15578984D01*
X12264086Y-15578984D02*
X12283134Y-15588508D01*
X12283134Y-15588508D02*
X12292658Y-15598031D01*
X12292658Y-15598031D02*
X12302182Y-15617079D01*
X12302182Y-15617079D02*
X12311705Y-15655174D01*
X12311705Y-15655174D02*
X12311705Y-15702793D01*
X12311705Y-15702793D02*
X12302182Y-15740888D01*
X12302182Y-15740888D02*
X12292658Y-15759936D01*
X12292658Y-15759936D02*
X12283134Y-15769460D01*
X12283134Y-15769460D02*
X12264086Y-15778984D01*
X12264086Y-15778984D02*
X12245039Y-15778984D01*
X12245039Y-15778984D02*
X12225991Y-15769460D01*
X12225991Y-15769460D02*
X12216467Y-15759936D01*
X12216467Y-15759936D02*
X12206943Y-15740888D01*
X12206943Y-15740888D02*
X12197420Y-15702793D01*
X12197420Y-15702793D02*
X12197420Y-15655174D01*
X12197420Y-15655174D02*
X12206943Y-15617079D01*
X12206943Y-15617079D02*
X12216467Y-15598031D01*
X12216467Y-15598031D02*
X12225991Y-15588508D01*
X12225991Y-15588508D02*
X12245039Y-15578984D01*
X12397420Y-15778984D02*
X12397420Y-15645650D01*
X12397420Y-15664698D02*
X12406943Y-15655174D01*
X12406943Y-15655174D02*
X12425991Y-15645650D01*
X12425991Y-15645650D02*
X12454563Y-15645650D01*
X12454563Y-15645650D02*
X12473610Y-15655174D01*
X12473610Y-15655174D02*
X12483134Y-15674222D01*
X12483134Y-15674222D02*
X12483134Y-15778984D01*
X12483134Y-15674222D02*
X12492658Y-15655174D01*
X12492658Y-15655174D02*
X12511705Y-15645650D01*
X12511705Y-15645650D02*
X12540277Y-15645650D01*
X12540277Y-15645650D02*
X12559324Y-15655174D01*
X12559324Y-15655174D02*
X12568848Y-15674222D01*
X12568848Y-15674222D02*
X12568848Y-15778984D01*
X12664086Y-15778984D02*
X12664086Y-15645650D01*
X12664086Y-15664698D02*
X12673610Y-15655174D01*
X12673610Y-15655174D02*
X12692658Y-15645650D01*
X12692658Y-15645650D02*
X12721229Y-15645650D01*
X12721229Y-15645650D02*
X12740277Y-15655174D01*
X12740277Y-15655174D02*
X12749801Y-15674222D01*
X12749801Y-15674222D02*
X12749801Y-15778984D01*
X12749801Y-15674222D02*
X12759324Y-15655174D01*
X12759324Y-15655174D02*
X12778372Y-15645650D01*
X12778372Y-15645650D02*
X12806943Y-15645650D01*
X12806943Y-15645650D02*
X12825991Y-15655174D01*
X12825991Y-15655174D02*
X12835515Y-15674222D01*
X12835515Y-15674222D02*
X12835515Y-15778984D01*
X13225991Y-15569460D02*
X13054563Y-15826603D01*
X13483134Y-15578984D02*
X13502182Y-15578984D01*
X13502182Y-15578984D02*
X13521229Y-15588508D01*
X13521229Y-15588508D02*
X13530753Y-15598031D01*
X13530753Y-15598031D02*
X13540277Y-15617079D01*
X13540277Y-15617079D02*
X13549801Y-15655174D01*
X13549801Y-15655174D02*
X13549801Y-15702793D01*
X13549801Y-15702793D02*
X13540277Y-15740888D01*
X13540277Y-15740888D02*
X13530753Y-15759936D01*
X13530753Y-15759936D02*
X13521229Y-15769460D01*
X13521229Y-15769460D02*
X13502182Y-15778984D01*
X13502182Y-15778984D02*
X13483134Y-15778984D01*
X13483134Y-15778984D02*
X13464086Y-15769460D01*
X13464086Y-15769460D02*
X13454563Y-15759936D01*
X13454563Y-15759936D02*
X13445039Y-15740888D01*
X13445039Y-15740888D02*
X13435515Y-15702793D01*
X13435515Y-15702793D02*
X13435515Y-15655174D01*
X13435515Y-15655174D02*
X13445039Y-15617079D01*
X13445039Y-15617079D02*
X13454563Y-15598031D01*
X13454563Y-15598031D02*
X13464086Y-15588508D01*
X13464086Y-15588508D02*
X13483134Y-15578984D01*
X13635515Y-15759936D02*
X13645039Y-15769460D01*
X13645039Y-15769460D02*
X13635515Y-15778984D01*
X13635515Y-15778984D02*
X13625991Y-15769460D01*
X13625991Y-15769460D02*
X13635515Y-15759936D01*
X13635515Y-15759936D02*
X13635515Y-15778984D01*
X13768848Y-15578984D02*
X13787896Y-15578984D01*
X13787896Y-15578984D02*
X13806944Y-15588508D01*
X13806944Y-15588508D02*
X13816467Y-15598031D01*
X13816467Y-15598031D02*
X13825991Y-15617079D01*
X13825991Y-15617079D02*
X13835515Y-15655174D01*
X13835515Y-15655174D02*
X13835515Y-15702793D01*
X13835515Y-15702793D02*
X13825991Y-15740888D01*
X13825991Y-15740888D02*
X13816467Y-15759936D01*
X13816467Y-15759936D02*
X13806944Y-15769460D01*
X13806944Y-15769460D02*
X13787896Y-15778984D01*
X13787896Y-15778984D02*
X13768848Y-15778984D01*
X13768848Y-15778984D02*
X13749801Y-15769460D01*
X13749801Y-15769460D02*
X13740277Y-15759936D01*
X13740277Y-15759936D02*
X13730753Y-15740888D01*
X13730753Y-15740888D02*
X13721229Y-15702793D01*
X13721229Y-15702793D02*
X13721229Y-15655174D01*
X13721229Y-15655174D02*
X13730753Y-15617079D01*
X13730753Y-15617079D02*
X13740277Y-15598031D01*
X13740277Y-15598031D02*
X13749801Y-15588508D01*
X13749801Y-15588508D02*
X13768848Y-15578984D01*
X13902182Y-15578984D02*
X14025991Y-15578984D01*
X14025991Y-15578984D02*
X13959325Y-15655174D01*
X13959325Y-15655174D02*
X13987896Y-15655174D01*
X13987896Y-15655174D02*
X14006944Y-15664698D01*
X14006944Y-15664698D02*
X14016467Y-15674222D01*
X14016467Y-15674222D02*
X14025991Y-15693269D01*
X14025991Y-15693269D02*
X14025991Y-15740888D01*
X14025991Y-15740888D02*
X14016467Y-15759936D01*
X14016467Y-15759936D02*
X14006944Y-15769460D01*
X14006944Y-15769460D02*
X13987896Y-15778984D01*
X13987896Y-15778984D02*
X13930753Y-15778984D01*
X13930753Y-15778984D02*
X13911706Y-15769460D01*
X13911706Y-15769460D02*
X13902182Y-15759936D01*
X14216467Y-15778984D02*
X14102182Y-15778984D01*
X14159325Y-15778984D02*
X14159325Y-15578984D01*
X14159325Y-15578984D02*
X14140277Y-15607555D01*
X14140277Y-15607555D02*
X14121229Y-15626603D01*
X14121229Y-15626603D02*
X14102182Y-15636127D01*
X14397420Y-15578984D02*
X14302182Y-15578984D01*
X14302182Y-15578984D02*
X14292658Y-15674222D01*
X14292658Y-15674222D02*
X14302182Y-15664698D01*
X14302182Y-15664698D02*
X14321229Y-15655174D01*
X14321229Y-15655174D02*
X14368848Y-15655174D01*
X14368848Y-15655174D02*
X14387896Y-15664698D01*
X14387896Y-15664698D02*
X14397420Y-15674222D01*
X14397420Y-15674222D02*
X14406944Y-15693269D01*
X14406944Y-15693269D02*
X14406944Y-15740888D01*
X14406944Y-15740888D02*
X14397420Y-15759936D01*
X14397420Y-15759936D02*
X14387896Y-15769460D01*
X14387896Y-15769460D02*
X14368848Y-15778984D01*
X14368848Y-15778984D02*
X14321229Y-15778984D01*
X14321229Y-15778984D02*
X14302182Y-15769460D01*
X14302182Y-15769460D02*
X14292658Y-15759936D01*
X14483134Y-15578984D02*
X14483134Y-15617079D01*
X14559325Y-15578984D02*
X14559325Y-15617079D01*
X14854563Y-15855174D02*
X14845039Y-15845650D01*
X14845039Y-15845650D02*
X14825991Y-15817079D01*
X14825991Y-15817079D02*
X14816468Y-15798031D01*
X14816468Y-15798031D02*
X14806944Y-15769460D01*
X14806944Y-15769460D02*
X14797420Y-15721841D01*
X14797420Y-15721841D02*
X14797420Y-15683746D01*
X14797420Y-15683746D02*
X14806944Y-15636127D01*
X14806944Y-15636127D02*
X14816468Y-15607555D01*
X14816468Y-15607555D02*
X14825991Y-15588508D01*
X14825991Y-15588508D02*
X14845039Y-15559936D01*
X14845039Y-15559936D02*
X14854563Y-15550412D01*
X14911706Y-15578984D02*
X15035515Y-15578984D01*
X15035515Y-15578984D02*
X14968848Y-15655174D01*
X14968848Y-15655174D02*
X14997420Y-15655174D01*
X14997420Y-15655174D02*
X15016468Y-15664698D01*
X15016468Y-15664698D02*
X15025991Y-15674222D01*
X15025991Y-15674222D02*
X15035515Y-15693269D01*
X15035515Y-15693269D02*
X15035515Y-15740888D01*
X15035515Y-15740888D02*
X15025991Y-15759936D01*
X15025991Y-15759936D02*
X15016468Y-15769460D01*
X15016468Y-15769460D02*
X14997420Y-15778984D01*
X14997420Y-15778984D02*
X14940277Y-15778984D01*
X14940277Y-15778984D02*
X14921229Y-15769460D01*
X14921229Y-15769460D02*
X14911706Y-15759936D01*
X15159325Y-15578984D02*
X15178372Y-15578984D01*
X15178372Y-15578984D02*
X15197420Y-15588508D01*
X15197420Y-15588508D02*
X15206944Y-15598031D01*
X15206944Y-15598031D02*
X15216468Y-15617079D01*
X15216468Y-15617079D02*
X15225991Y-15655174D01*
X15225991Y-15655174D02*
X15225991Y-15702793D01*
X15225991Y-15702793D02*
X15216468Y-15740888D01*
X15216468Y-15740888D02*
X15206944Y-15759936D01*
X15206944Y-15759936D02*
X15197420Y-15769460D01*
X15197420Y-15769460D02*
X15178372Y-15778984D01*
X15178372Y-15778984D02*
X15159325Y-15778984D01*
X15159325Y-15778984D02*
X15140277Y-15769460D01*
X15140277Y-15769460D02*
X15130753Y-15759936D01*
X15130753Y-15759936D02*
X15121229Y-15740888D01*
X15121229Y-15740888D02*
X15111706Y-15702793D01*
X15111706Y-15702793D02*
X15111706Y-15655174D01*
X15111706Y-15655174D02*
X15121229Y-15617079D01*
X15121229Y-15617079D02*
X15130753Y-15598031D01*
X15130753Y-15598031D02*
X15140277Y-15588508D01*
X15140277Y-15588508D02*
X15159325Y-15578984D01*
X15464087Y-15778984D02*
X15464087Y-15578984D01*
X15549801Y-15778984D02*
X15549801Y-15674222D01*
X15549801Y-15674222D02*
X15540277Y-15655174D01*
X15540277Y-15655174D02*
X15521230Y-15645650D01*
X15521230Y-15645650D02*
X15492658Y-15645650D01*
X15492658Y-15645650D02*
X15473610Y-15655174D01*
X15473610Y-15655174D02*
X15464087Y-15664698D01*
X15673610Y-15778984D02*
X15654563Y-15769460D01*
X15654563Y-15769460D02*
X15645039Y-15759936D01*
X15645039Y-15759936D02*
X15635515Y-15740888D01*
X15635515Y-15740888D02*
X15635515Y-15683746D01*
X15635515Y-15683746D02*
X15645039Y-15664698D01*
X15645039Y-15664698D02*
X15654563Y-15655174D01*
X15654563Y-15655174D02*
X15673610Y-15645650D01*
X15673610Y-15645650D02*
X15702182Y-15645650D01*
X15702182Y-15645650D02*
X15721230Y-15655174D01*
X15721230Y-15655174D02*
X15730753Y-15664698D01*
X15730753Y-15664698D02*
X15740277Y-15683746D01*
X15740277Y-15683746D02*
X15740277Y-15740888D01*
X15740277Y-15740888D02*
X15730753Y-15759936D01*
X15730753Y-15759936D02*
X15721230Y-15769460D01*
X15721230Y-15769460D02*
X15702182Y-15778984D01*
X15702182Y-15778984D02*
X15673610Y-15778984D01*
X15854563Y-15778984D02*
X15835515Y-15769460D01*
X15835515Y-15769460D02*
X15825991Y-15750412D01*
X15825991Y-15750412D02*
X15825991Y-15578984D01*
X16006944Y-15769460D02*
X15987896Y-15778984D01*
X15987896Y-15778984D02*
X15949801Y-15778984D01*
X15949801Y-15778984D02*
X15930753Y-15769460D01*
X15930753Y-15769460D02*
X15921230Y-15750412D01*
X15921230Y-15750412D02*
X15921230Y-15674222D01*
X15921230Y-15674222D02*
X15930753Y-15655174D01*
X15930753Y-15655174D02*
X15949801Y-15645650D01*
X15949801Y-15645650D02*
X15987896Y-15645650D01*
X15987896Y-15645650D02*
X16006944Y-15655174D01*
X16006944Y-15655174D02*
X16016468Y-15674222D01*
X16016468Y-15674222D02*
X16016468Y-15693269D01*
X16016468Y-15693269D02*
X15921230Y-15712317D01*
X16092658Y-15769460D02*
X16111706Y-15778984D01*
X16111706Y-15778984D02*
X16149801Y-15778984D01*
X16149801Y-15778984D02*
X16168849Y-15769460D01*
X16168849Y-15769460D02*
X16178372Y-15750412D01*
X16178372Y-15750412D02*
X16178372Y-15740888D01*
X16178372Y-15740888D02*
X16168849Y-15721841D01*
X16168849Y-15721841D02*
X16149801Y-15712317D01*
X16149801Y-15712317D02*
X16121230Y-15712317D01*
X16121230Y-15712317D02*
X16102182Y-15702793D01*
X16102182Y-15702793D02*
X16092658Y-15683746D01*
X16092658Y-15683746D02*
X16092658Y-15674222D01*
X16092658Y-15674222D02*
X16102182Y-15655174D01*
X16102182Y-15655174D02*
X16121230Y-15645650D01*
X16121230Y-15645650D02*
X16149801Y-15645650D01*
X16149801Y-15645650D02*
X16168849Y-15655174D01*
X16245039Y-15855174D02*
X16254563Y-15845650D01*
X16254563Y-15845650D02*
X16273611Y-15817079D01*
X16273611Y-15817079D02*
X16283134Y-15798031D01*
X16283134Y-15798031D02*
X16292658Y-15769460D01*
X16292658Y-15769460D02*
X16302182Y-15721841D01*
X16302182Y-15721841D02*
X16302182Y-15683746D01*
X16302182Y-15683746D02*
X16292658Y-15636127D01*
X16292658Y-15636127D02*
X16283134Y-15607555D01*
X16283134Y-15607555D02*
X16273611Y-15588508D01*
X16273611Y-15588508D02*
X16254563Y-15559936D01*
X16254563Y-15559936D02*
X16245039Y-15550412D01*
D12*
X11266467Y-15982967D02*
X11266467Y-15920033D01*
X11203533Y-15920033D01*
X11203533Y-15982967D01*
X11266467Y-15982967D01*
D11*
X11578372Y-15842984D02*
X11597420Y-15842984D01*
X11597420Y-15842984D02*
X11616467Y-15852508D01*
X11616467Y-15852508D02*
X11625991Y-15862031D01*
X11625991Y-15862031D02*
X11635515Y-15881079D01*
X11635515Y-15881079D02*
X11645039Y-15919174D01*
X11645039Y-15919174D02*
X11645039Y-15966793D01*
X11645039Y-15966793D02*
X11635515Y-16004888D01*
X11635515Y-16004888D02*
X11625991Y-16023936D01*
X11625991Y-16023936D02*
X11616467Y-16033460D01*
X11616467Y-16033460D02*
X11597420Y-16042984D01*
X11597420Y-16042984D02*
X11578372Y-16042984D01*
X11578372Y-16042984D02*
X11559324Y-16033460D01*
X11559324Y-16033460D02*
X11549801Y-16023936D01*
X11549801Y-16023936D02*
X11540277Y-16004888D01*
X11540277Y-16004888D02*
X11530753Y-15966793D01*
X11530753Y-15966793D02*
X11530753Y-15919174D01*
X11530753Y-15919174D02*
X11540277Y-15881079D01*
X11540277Y-15881079D02*
X11549801Y-15862031D01*
X11549801Y-15862031D02*
X11559324Y-15852508D01*
X11559324Y-15852508D02*
X11578372Y-15842984D01*
X11730753Y-16023936D02*
X11740277Y-16033460D01*
X11740277Y-16033460D02*
X11730753Y-16042984D01*
X11730753Y-16042984D02*
X11721229Y-16033460D01*
X11721229Y-16033460D02*
X11730753Y-16023936D01*
X11730753Y-16023936D02*
X11730753Y-16042984D01*
X11854562Y-15928698D02*
X11835515Y-15919174D01*
X11835515Y-15919174D02*
X11825991Y-15909650D01*
X11825991Y-15909650D02*
X11816467Y-15890603D01*
X11816467Y-15890603D02*
X11816467Y-15881079D01*
X11816467Y-15881079D02*
X11825991Y-15862031D01*
X11825991Y-15862031D02*
X11835515Y-15852508D01*
X11835515Y-15852508D02*
X11854562Y-15842984D01*
X11854562Y-15842984D02*
X11892658Y-15842984D01*
X11892658Y-15842984D02*
X11911705Y-15852508D01*
X11911705Y-15852508D02*
X11921229Y-15862031D01*
X11921229Y-15862031D02*
X11930753Y-15881079D01*
X11930753Y-15881079D02*
X11930753Y-15890603D01*
X11930753Y-15890603D02*
X11921229Y-15909650D01*
X11921229Y-15909650D02*
X11911705Y-15919174D01*
X11911705Y-15919174D02*
X11892658Y-15928698D01*
X11892658Y-15928698D02*
X11854562Y-15928698D01*
X11854562Y-15928698D02*
X11835515Y-15938222D01*
X11835515Y-15938222D02*
X11825991Y-15947746D01*
X11825991Y-15947746D02*
X11816467Y-15966793D01*
X11816467Y-15966793D02*
X11816467Y-16004888D01*
X11816467Y-16004888D02*
X11825991Y-16023936D01*
X11825991Y-16023936D02*
X11835515Y-16033460D01*
X11835515Y-16033460D02*
X11854562Y-16042984D01*
X11854562Y-16042984D02*
X11892658Y-16042984D01*
X11892658Y-16042984D02*
X11911705Y-16033460D01*
X11911705Y-16033460D02*
X11921229Y-16023936D01*
X11921229Y-16023936D02*
X11930753Y-16004888D01*
X11930753Y-16004888D02*
X11930753Y-15966793D01*
X11930753Y-15966793D02*
X11921229Y-15947746D01*
X11921229Y-15947746D02*
X11911705Y-15938222D01*
X11911705Y-15938222D02*
X11892658Y-15928698D01*
X12025991Y-16042984D02*
X12064086Y-16042984D01*
X12064086Y-16042984D02*
X12083134Y-16033460D01*
X12083134Y-16033460D02*
X12092658Y-16023936D01*
X12092658Y-16023936D02*
X12111705Y-15995365D01*
X12111705Y-15995365D02*
X12121229Y-15957269D01*
X12121229Y-15957269D02*
X12121229Y-15881079D01*
X12121229Y-15881079D02*
X12111705Y-15862031D01*
X12111705Y-15862031D02*
X12102182Y-15852508D01*
X12102182Y-15852508D02*
X12083134Y-15842984D01*
X12083134Y-15842984D02*
X12045039Y-15842984D01*
X12045039Y-15842984D02*
X12025991Y-15852508D01*
X12025991Y-15852508D02*
X12016467Y-15862031D01*
X12016467Y-15862031D02*
X12006943Y-15881079D01*
X12006943Y-15881079D02*
X12006943Y-15928698D01*
X12006943Y-15928698D02*
X12016467Y-15947746D01*
X12016467Y-15947746D02*
X12025991Y-15957269D01*
X12025991Y-15957269D02*
X12045039Y-15966793D01*
X12045039Y-15966793D02*
X12083134Y-15966793D01*
X12083134Y-15966793D02*
X12102182Y-15957269D01*
X12102182Y-15957269D02*
X12111705Y-15947746D01*
X12111705Y-15947746D02*
X12121229Y-15928698D01*
X12245039Y-15842984D02*
X12264086Y-15842984D01*
X12264086Y-15842984D02*
X12283134Y-15852508D01*
X12283134Y-15852508D02*
X12292658Y-15862031D01*
X12292658Y-15862031D02*
X12302182Y-15881079D01*
X12302182Y-15881079D02*
X12311705Y-15919174D01*
X12311705Y-15919174D02*
X12311705Y-15966793D01*
X12311705Y-15966793D02*
X12302182Y-16004888D01*
X12302182Y-16004888D02*
X12292658Y-16023936D01*
X12292658Y-16023936D02*
X12283134Y-16033460D01*
X12283134Y-16033460D02*
X12264086Y-16042984D01*
X12264086Y-16042984D02*
X12245039Y-16042984D01*
X12245039Y-16042984D02*
X12225991Y-16033460D01*
X12225991Y-16033460D02*
X12216467Y-16023936D01*
X12216467Y-16023936D02*
X12206943Y-16004888D01*
X12206943Y-16004888D02*
X12197420Y-15966793D01*
X12197420Y-15966793D02*
X12197420Y-15919174D01*
X12197420Y-15919174D02*
X12206943Y-15881079D01*
X12206943Y-15881079D02*
X12216467Y-15862031D01*
X12216467Y-15862031D02*
X12225991Y-15852508D01*
X12225991Y-15852508D02*
X12245039Y-15842984D01*
X12397420Y-16042984D02*
X12397420Y-15909650D01*
X12397420Y-15928698D02*
X12406943Y-15919174D01*
X12406943Y-15919174D02*
X12425991Y-15909650D01*
X12425991Y-15909650D02*
X12454563Y-15909650D01*
X12454563Y-15909650D02*
X12473610Y-15919174D01*
X12473610Y-15919174D02*
X12483134Y-15938222D01*
X12483134Y-15938222D02*
X12483134Y-16042984D01*
X12483134Y-15938222D02*
X12492658Y-15919174D01*
X12492658Y-15919174D02*
X12511705Y-15909650D01*
X12511705Y-15909650D02*
X12540277Y-15909650D01*
X12540277Y-15909650D02*
X12559324Y-15919174D01*
X12559324Y-15919174D02*
X12568848Y-15938222D01*
X12568848Y-15938222D02*
X12568848Y-16042984D01*
X12664086Y-16042984D02*
X12664086Y-15909650D01*
X12664086Y-15928698D02*
X12673610Y-15919174D01*
X12673610Y-15919174D02*
X12692658Y-15909650D01*
X12692658Y-15909650D02*
X12721229Y-15909650D01*
X12721229Y-15909650D02*
X12740277Y-15919174D01*
X12740277Y-15919174D02*
X12749801Y-15938222D01*
X12749801Y-15938222D02*
X12749801Y-16042984D01*
X12749801Y-15938222D02*
X12759324Y-15919174D01*
X12759324Y-15919174D02*
X12778372Y-15909650D01*
X12778372Y-15909650D02*
X12806943Y-15909650D01*
X12806943Y-15909650D02*
X12825991Y-15919174D01*
X12825991Y-15919174D02*
X12835515Y-15938222D01*
X12835515Y-15938222D02*
X12835515Y-16042984D01*
X13225991Y-15833460D02*
X13054563Y-16090603D01*
X13483134Y-15842984D02*
X13502182Y-15842984D01*
X13502182Y-15842984D02*
X13521229Y-15852508D01*
X13521229Y-15852508D02*
X13530753Y-15862031D01*
X13530753Y-15862031D02*
X13540277Y-15881079D01*
X13540277Y-15881079D02*
X13549801Y-15919174D01*
X13549801Y-15919174D02*
X13549801Y-15966793D01*
X13549801Y-15966793D02*
X13540277Y-16004888D01*
X13540277Y-16004888D02*
X13530753Y-16023936D01*
X13530753Y-16023936D02*
X13521229Y-16033460D01*
X13521229Y-16033460D02*
X13502182Y-16042984D01*
X13502182Y-16042984D02*
X13483134Y-16042984D01*
X13483134Y-16042984D02*
X13464086Y-16033460D01*
X13464086Y-16033460D02*
X13454563Y-16023936D01*
X13454563Y-16023936D02*
X13445039Y-16004888D01*
X13445039Y-16004888D02*
X13435515Y-15966793D01*
X13435515Y-15966793D02*
X13435515Y-15919174D01*
X13435515Y-15919174D02*
X13445039Y-15881079D01*
X13445039Y-15881079D02*
X13454563Y-15862031D01*
X13454563Y-15862031D02*
X13464086Y-15852508D01*
X13464086Y-15852508D02*
X13483134Y-15842984D01*
X13635515Y-16023936D02*
X13645039Y-16033460D01*
X13645039Y-16033460D02*
X13635515Y-16042984D01*
X13635515Y-16042984D02*
X13625991Y-16033460D01*
X13625991Y-16033460D02*
X13635515Y-16023936D01*
X13635515Y-16023936D02*
X13635515Y-16042984D01*
X13768848Y-15842984D02*
X13787896Y-15842984D01*
X13787896Y-15842984D02*
X13806944Y-15852508D01*
X13806944Y-15852508D02*
X13816467Y-15862031D01*
X13816467Y-15862031D02*
X13825991Y-15881079D01*
X13825991Y-15881079D02*
X13835515Y-15919174D01*
X13835515Y-15919174D02*
X13835515Y-15966793D01*
X13835515Y-15966793D02*
X13825991Y-16004888D01*
X13825991Y-16004888D02*
X13816467Y-16023936D01*
X13816467Y-16023936D02*
X13806944Y-16033460D01*
X13806944Y-16033460D02*
X13787896Y-16042984D01*
X13787896Y-16042984D02*
X13768848Y-16042984D01*
X13768848Y-16042984D02*
X13749801Y-16033460D01*
X13749801Y-16033460D02*
X13740277Y-16023936D01*
X13740277Y-16023936D02*
X13730753Y-16004888D01*
X13730753Y-16004888D02*
X13721229Y-15966793D01*
X13721229Y-15966793D02*
X13721229Y-15919174D01*
X13721229Y-15919174D02*
X13730753Y-15881079D01*
X13730753Y-15881079D02*
X13740277Y-15862031D01*
X13740277Y-15862031D02*
X13749801Y-15852508D01*
X13749801Y-15852508D02*
X13768848Y-15842984D01*
X13902182Y-15842984D02*
X14025991Y-15842984D01*
X14025991Y-15842984D02*
X13959325Y-15919174D01*
X13959325Y-15919174D02*
X13987896Y-15919174D01*
X13987896Y-15919174D02*
X14006944Y-15928698D01*
X14006944Y-15928698D02*
X14016467Y-15938222D01*
X14016467Y-15938222D02*
X14025991Y-15957269D01*
X14025991Y-15957269D02*
X14025991Y-16004888D01*
X14025991Y-16004888D02*
X14016467Y-16023936D01*
X14016467Y-16023936D02*
X14006944Y-16033460D01*
X14006944Y-16033460D02*
X13987896Y-16042984D01*
X13987896Y-16042984D02*
X13930753Y-16042984D01*
X13930753Y-16042984D02*
X13911706Y-16033460D01*
X13911706Y-16033460D02*
X13902182Y-16023936D01*
X14206944Y-15842984D02*
X14111706Y-15842984D01*
X14111706Y-15842984D02*
X14102182Y-15938222D01*
X14102182Y-15938222D02*
X14111706Y-15928698D01*
X14111706Y-15928698D02*
X14130753Y-15919174D01*
X14130753Y-15919174D02*
X14178372Y-15919174D01*
X14178372Y-15919174D02*
X14197420Y-15928698D01*
X14197420Y-15928698D02*
X14206944Y-15938222D01*
X14206944Y-15938222D02*
X14216467Y-15957269D01*
X14216467Y-15957269D02*
X14216467Y-16004888D01*
X14216467Y-16004888D02*
X14206944Y-16023936D01*
X14206944Y-16023936D02*
X14197420Y-16033460D01*
X14197420Y-16033460D02*
X14178372Y-16042984D01*
X14178372Y-16042984D02*
X14130753Y-16042984D01*
X14130753Y-16042984D02*
X14111706Y-16033460D01*
X14111706Y-16033460D02*
X14102182Y-16023936D01*
X14340277Y-15842984D02*
X14359325Y-15842984D01*
X14359325Y-15842984D02*
X14378372Y-15852508D01*
X14378372Y-15852508D02*
X14387896Y-15862031D01*
X14387896Y-15862031D02*
X14397420Y-15881079D01*
X14397420Y-15881079D02*
X14406944Y-15919174D01*
X14406944Y-15919174D02*
X14406944Y-15966793D01*
X14406944Y-15966793D02*
X14397420Y-16004888D01*
X14397420Y-16004888D02*
X14387896Y-16023936D01*
X14387896Y-16023936D02*
X14378372Y-16033460D01*
X14378372Y-16033460D02*
X14359325Y-16042984D01*
X14359325Y-16042984D02*
X14340277Y-16042984D01*
X14340277Y-16042984D02*
X14321229Y-16033460D01*
X14321229Y-16033460D02*
X14311706Y-16023936D01*
X14311706Y-16023936D02*
X14302182Y-16004888D01*
X14302182Y-16004888D02*
X14292658Y-15966793D01*
X14292658Y-15966793D02*
X14292658Y-15919174D01*
X14292658Y-15919174D02*
X14302182Y-15881079D01*
X14302182Y-15881079D02*
X14311706Y-15862031D01*
X14311706Y-15862031D02*
X14321229Y-15852508D01*
X14321229Y-15852508D02*
X14340277Y-15842984D01*
X14483134Y-15842984D02*
X14483134Y-15881079D01*
X14559325Y-15842984D02*
X14559325Y-15881079D01*
X14854563Y-16119174D02*
X14845039Y-16109650D01*
X14845039Y-16109650D02*
X14825991Y-16081079D01*
X14825991Y-16081079D02*
X14816468Y-16062031D01*
X14816468Y-16062031D02*
X14806944Y-16033460D01*
X14806944Y-16033460D02*
X14797420Y-15985841D01*
X14797420Y-15985841D02*
X14797420Y-15947746D01*
X14797420Y-15947746D02*
X14806944Y-15900127D01*
X14806944Y-15900127D02*
X14816468Y-15871555D01*
X14816468Y-15871555D02*
X14825991Y-15852508D01*
X14825991Y-15852508D02*
X14845039Y-15823936D01*
X14845039Y-15823936D02*
X14854563Y-15814412D01*
X14959325Y-15928698D02*
X14940277Y-15919174D01*
X14940277Y-15919174D02*
X14930753Y-15909650D01*
X14930753Y-15909650D02*
X14921229Y-15890603D01*
X14921229Y-15890603D02*
X14921229Y-15881079D01*
X14921229Y-15881079D02*
X14930753Y-15862031D01*
X14930753Y-15862031D02*
X14940277Y-15852508D01*
X14940277Y-15852508D02*
X14959325Y-15842984D01*
X14959325Y-15842984D02*
X14997420Y-15842984D01*
X14997420Y-15842984D02*
X15016468Y-15852508D01*
X15016468Y-15852508D02*
X15025991Y-15862031D01*
X15025991Y-15862031D02*
X15035515Y-15881079D01*
X15035515Y-15881079D02*
X15035515Y-15890603D01*
X15035515Y-15890603D02*
X15025991Y-15909650D01*
X15025991Y-15909650D02*
X15016468Y-15919174D01*
X15016468Y-15919174D02*
X14997420Y-15928698D01*
X14997420Y-15928698D02*
X14959325Y-15928698D01*
X14959325Y-15928698D02*
X14940277Y-15938222D01*
X14940277Y-15938222D02*
X14930753Y-15947746D01*
X14930753Y-15947746D02*
X14921229Y-15966793D01*
X14921229Y-15966793D02*
X14921229Y-16004888D01*
X14921229Y-16004888D02*
X14930753Y-16023936D01*
X14930753Y-16023936D02*
X14940277Y-16033460D01*
X14940277Y-16033460D02*
X14959325Y-16042984D01*
X14959325Y-16042984D02*
X14997420Y-16042984D01*
X14997420Y-16042984D02*
X15016468Y-16033460D01*
X15016468Y-16033460D02*
X15025991Y-16023936D01*
X15025991Y-16023936D02*
X15035515Y-16004888D01*
X15035515Y-16004888D02*
X15035515Y-15966793D01*
X15035515Y-15966793D02*
X15025991Y-15947746D01*
X15025991Y-15947746D02*
X15016468Y-15938222D01*
X15016468Y-15938222D02*
X14997420Y-15928698D01*
X15273610Y-16042984D02*
X15273610Y-15842984D01*
X15359325Y-16042984D02*
X15359325Y-15938222D01*
X15359325Y-15938222D02*
X15349801Y-15919174D01*
X15349801Y-15919174D02*
X15330753Y-15909650D01*
X15330753Y-15909650D02*
X15302182Y-15909650D01*
X15302182Y-15909650D02*
X15283134Y-15919174D01*
X15283134Y-15919174D02*
X15273610Y-15928698D01*
X15483134Y-16042984D02*
X15464087Y-16033460D01*
X15464087Y-16033460D02*
X15454563Y-16023936D01*
X15454563Y-16023936D02*
X15445039Y-16004888D01*
X15445039Y-16004888D02*
X15445039Y-15947746D01*
X15445039Y-15947746D02*
X15454563Y-15928698D01*
X15454563Y-15928698D02*
X15464087Y-15919174D01*
X15464087Y-15919174D02*
X15483134Y-15909650D01*
X15483134Y-15909650D02*
X15511706Y-15909650D01*
X15511706Y-15909650D02*
X15530753Y-15919174D01*
X15530753Y-15919174D02*
X15540277Y-15928698D01*
X15540277Y-15928698D02*
X15549801Y-15947746D01*
X15549801Y-15947746D02*
X15549801Y-16004888D01*
X15549801Y-16004888D02*
X15540277Y-16023936D01*
X15540277Y-16023936D02*
X15530753Y-16033460D01*
X15530753Y-16033460D02*
X15511706Y-16042984D01*
X15511706Y-16042984D02*
X15483134Y-16042984D01*
X15664087Y-16042984D02*
X15645039Y-16033460D01*
X15645039Y-16033460D02*
X15635515Y-16014412D01*
X15635515Y-16014412D02*
X15635515Y-15842984D01*
X15816468Y-16033460D02*
X15797420Y-16042984D01*
X15797420Y-16042984D02*
X15759325Y-16042984D01*
X15759325Y-16042984D02*
X15740277Y-16033460D01*
X15740277Y-16033460D02*
X15730753Y-16014412D01*
X15730753Y-16014412D02*
X15730753Y-15938222D01*
X15730753Y-15938222D02*
X15740277Y-15919174D01*
X15740277Y-15919174D02*
X15759325Y-15909650D01*
X15759325Y-15909650D02*
X15797420Y-15909650D01*
X15797420Y-15909650D02*
X15816468Y-15919174D01*
X15816468Y-15919174D02*
X15825991Y-15938222D01*
X15825991Y-15938222D02*
X15825991Y-15957269D01*
X15825991Y-15957269D02*
X15730753Y-15976317D01*
X15902182Y-16033460D02*
X15921230Y-16042984D01*
X15921230Y-16042984D02*
X15959325Y-16042984D01*
X15959325Y-16042984D02*
X15978372Y-16033460D01*
X15978372Y-16033460D02*
X15987896Y-16014412D01*
X15987896Y-16014412D02*
X15987896Y-16004888D01*
X15987896Y-16004888D02*
X15978372Y-15985841D01*
X15978372Y-15985841D02*
X15959325Y-15976317D01*
X15959325Y-15976317D02*
X15930753Y-15976317D01*
X15930753Y-15976317D02*
X15911706Y-15966793D01*
X15911706Y-15966793D02*
X15902182Y-15947746D01*
X15902182Y-15947746D02*
X15902182Y-15938222D01*
X15902182Y-15938222D02*
X15911706Y-15919174D01*
X15911706Y-15919174D02*
X15930753Y-15909650D01*
X15930753Y-15909650D02*
X15959325Y-15909650D01*
X15959325Y-15909650D02*
X15978372Y-15919174D01*
X16054563Y-16119174D02*
X16064087Y-16109650D01*
X16064087Y-16109650D02*
X16083134Y-16081079D01*
X16083134Y-16081079D02*
X16092658Y-16062031D01*
X16092658Y-16062031D02*
X16102182Y-16033460D01*
X16102182Y-16033460D02*
X16111706Y-15985841D01*
X16111706Y-15985841D02*
X16111706Y-15947746D01*
X16111706Y-15947746D02*
X16102182Y-15900127D01*
X16102182Y-15900127D02*
X16092658Y-15871555D01*
X16092658Y-15871555D02*
X16083134Y-15852508D01*
X16083134Y-15852508D02*
X16064087Y-15823936D01*
X16064087Y-15823936D02*
X16054563Y-15814412D01*
D12*
X11234500Y-16260500D02*
X11279500Y-16215500D01*
X11234500Y-16170500D01*
X11189500Y-16215500D01*
X11234500Y-16260500D01*
D11*
X11578372Y-16106984D02*
X11597420Y-16106984D01*
X11597420Y-16106984D02*
X11616467Y-16116508D01*
X11616467Y-16116508D02*
X11625991Y-16126031D01*
X11625991Y-16126031D02*
X11635515Y-16145079D01*
X11635515Y-16145079D02*
X11645039Y-16183174D01*
X11645039Y-16183174D02*
X11645039Y-16230793D01*
X11645039Y-16230793D02*
X11635515Y-16268888D01*
X11635515Y-16268888D02*
X11625991Y-16287936D01*
X11625991Y-16287936D02*
X11616467Y-16297460D01*
X11616467Y-16297460D02*
X11597420Y-16306984D01*
X11597420Y-16306984D02*
X11578372Y-16306984D01*
X11578372Y-16306984D02*
X11559324Y-16297460D01*
X11559324Y-16297460D02*
X11549801Y-16287936D01*
X11549801Y-16287936D02*
X11540277Y-16268888D01*
X11540277Y-16268888D02*
X11530753Y-16230793D01*
X11530753Y-16230793D02*
X11530753Y-16183174D01*
X11530753Y-16183174D02*
X11540277Y-16145079D01*
X11540277Y-16145079D02*
X11549801Y-16126031D01*
X11549801Y-16126031D02*
X11559324Y-16116508D01*
X11559324Y-16116508D02*
X11578372Y-16106984D01*
X11730753Y-16287936D02*
X11740277Y-16297460D01*
X11740277Y-16297460D02*
X11730753Y-16306984D01*
X11730753Y-16306984D02*
X11721229Y-16297460D01*
X11721229Y-16297460D02*
X11730753Y-16287936D01*
X11730753Y-16287936D02*
X11730753Y-16306984D01*
X11835515Y-16306984D02*
X11873610Y-16306984D01*
X11873610Y-16306984D02*
X11892658Y-16297460D01*
X11892658Y-16297460D02*
X11902182Y-16287936D01*
X11902182Y-16287936D02*
X11921229Y-16259365D01*
X11921229Y-16259365D02*
X11930753Y-16221269D01*
X11930753Y-16221269D02*
X11930753Y-16145079D01*
X11930753Y-16145079D02*
X11921229Y-16126031D01*
X11921229Y-16126031D02*
X11911705Y-16116508D01*
X11911705Y-16116508D02*
X11892658Y-16106984D01*
X11892658Y-16106984D02*
X11854562Y-16106984D01*
X11854562Y-16106984D02*
X11835515Y-16116508D01*
X11835515Y-16116508D02*
X11825991Y-16126031D01*
X11825991Y-16126031D02*
X11816467Y-16145079D01*
X11816467Y-16145079D02*
X11816467Y-16192698D01*
X11816467Y-16192698D02*
X11825991Y-16211746D01*
X11825991Y-16211746D02*
X11835515Y-16221269D01*
X11835515Y-16221269D02*
X11854562Y-16230793D01*
X11854562Y-16230793D02*
X11892658Y-16230793D01*
X11892658Y-16230793D02*
X11911705Y-16221269D01*
X11911705Y-16221269D02*
X11921229Y-16211746D01*
X11921229Y-16211746D02*
X11930753Y-16192698D01*
X12054562Y-16106984D02*
X12073610Y-16106984D01*
X12073610Y-16106984D02*
X12092658Y-16116508D01*
X12092658Y-16116508D02*
X12102182Y-16126031D01*
X12102182Y-16126031D02*
X12111705Y-16145079D01*
X12111705Y-16145079D02*
X12121229Y-16183174D01*
X12121229Y-16183174D02*
X12121229Y-16230793D01*
X12121229Y-16230793D02*
X12111705Y-16268888D01*
X12111705Y-16268888D02*
X12102182Y-16287936D01*
X12102182Y-16287936D02*
X12092658Y-16297460D01*
X12092658Y-16297460D02*
X12073610Y-16306984D01*
X12073610Y-16306984D02*
X12054562Y-16306984D01*
X12054562Y-16306984D02*
X12035515Y-16297460D01*
X12035515Y-16297460D02*
X12025991Y-16287936D01*
X12025991Y-16287936D02*
X12016467Y-16268888D01*
X12016467Y-16268888D02*
X12006943Y-16230793D01*
X12006943Y-16230793D02*
X12006943Y-16183174D01*
X12006943Y-16183174D02*
X12016467Y-16145079D01*
X12016467Y-16145079D02*
X12025991Y-16126031D01*
X12025991Y-16126031D02*
X12035515Y-16116508D01*
X12035515Y-16116508D02*
X12054562Y-16106984D01*
X12245039Y-16106984D02*
X12264086Y-16106984D01*
X12264086Y-16106984D02*
X12283134Y-16116508D01*
X12283134Y-16116508D02*
X12292658Y-16126031D01*
X12292658Y-16126031D02*
X12302182Y-16145079D01*
X12302182Y-16145079D02*
X12311705Y-16183174D01*
X12311705Y-16183174D02*
X12311705Y-16230793D01*
X12311705Y-16230793D02*
X12302182Y-16268888D01*
X12302182Y-16268888D02*
X12292658Y-16287936D01*
X12292658Y-16287936D02*
X12283134Y-16297460D01*
X12283134Y-16297460D02*
X12264086Y-16306984D01*
X12264086Y-16306984D02*
X12245039Y-16306984D01*
X12245039Y-16306984D02*
X12225991Y-16297460D01*
X12225991Y-16297460D02*
X12216467Y-16287936D01*
X12216467Y-16287936D02*
X12206943Y-16268888D01*
X12206943Y-16268888D02*
X12197420Y-16230793D01*
X12197420Y-16230793D02*
X12197420Y-16183174D01*
X12197420Y-16183174D02*
X12206943Y-16145079D01*
X12206943Y-16145079D02*
X12216467Y-16126031D01*
X12216467Y-16126031D02*
X12225991Y-16116508D01*
X12225991Y-16116508D02*
X12245039Y-16106984D01*
X12397420Y-16306984D02*
X12397420Y-16173650D01*
X12397420Y-16192698D02*
X12406943Y-16183174D01*
X12406943Y-16183174D02*
X12425991Y-16173650D01*
X12425991Y-16173650D02*
X12454563Y-16173650D01*
X12454563Y-16173650D02*
X12473610Y-16183174D01*
X12473610Y-16183174D02*
X12483134Y-16202222D01*
X12483134Y-16202222D02*
X12483134Y-16306984D01*
X12483134Y-16202222D02*
X12492658Y-16183174D01*
X12492658Y-16183174D02*
X12511705Y-16173650D01*
X12511705Y-16173650D02*
X12540277Y-16173650D01*
X12540277Y-16173650D02*
X12559324Y-16183174D01*
X12559324Y-16183174D02*
X12568848Y-16202222D01*
X12568848Y-16202222D02*
X12568848Y-16306984D01*
X12664086Y-16306984D02*
X12664086Y-16173650D01*
X12664086Y-16192698D02*
X12673610Y-16183174D01*
X12673610Y-16183174D02*
X12692658Y-16173650D01*
X12692658Y-16173650D02*
X12721229Y-16173650D01*
X12721229Y-16173650D02*
X12740277Y-16183174D01*
X12740277Y-16183174D02*
X12749801Y-16202222D01*
X12749801Y-16202222D02*
X12749801Y-16306984D01*
X12749801Y-16202222D02*
X12759324Y-16183174D01*
X12759324Y-16183174D02*
X12778372Y-16173650D01*
X12778372Y-16173650D02*
X12806943Y-16173650D01*
X12806943Y-16173650D02*
X12825991Y-16183174D01*
X12825991Y-16183174D02*
X12835515Y-16202222D01*
X12835515Y-16202222D02*
X12835515Y-16306984D01*
X13225991Y-16097460D02*
X13054563Y-16354603D01*
X13483134Y-16106984D02*
X13502182Y-16106984D01*
X13502182Y-16106984D02*
X13521229Y-16116508D01*
X13521229Y-16116508D02*
X13530753Y-16126031D01*
X13530753Y-16126031D02*
X13540277Y-16145079D01*
X13540277Y-16145079D02*
X13549801Y-16183174D01*
X13549801Y-16183174D02*
X13549801Y-16230793D01*
X13549801Y-16230793D02*
X13540277Y-16268888D01*
X13540277Y-16268888D02*
X13530753Y-16287936D01*
X13530753Y-16287936D02*
X13521229Y-16297460D01*
X13521229Y-16297460D02*
X13502182Y-16306984D01*
X13502182Y-16306984D02*
X13483134Y-16306984D01*
X13483134Y-16306984D02*
X13464086Y-16297460D01*
X13464086Y-16297460D02*
X13454563Y-16287936D01*
X13454563Y-16287936D02*
X13445039Y-16268888D01*
X13445039Y-16268888D02*
X13435515Y-16230793D01*
X13435515Y-16230793D02*
X13435515Y-16183174D01*
X13435515Y-16183174D02*
X13445039Y-16145079D01*
X13445039Y-16145079D02*
X13454563Y-16126031D01*
X13454563Y-16126031D02*
X13464086Y-16116508D01*
X13464086Y-16116508D02*
X13483134Y-16106984D01*
X13635515Y-16287936D02*
X13645039Y-16297460D01*
X13645039Y-16297460D02*
X13635515Y-16306984D01*
X13635515Y-16306984D02*
X13625991Y-16297460D01*
X13625991Y-16297460D02*
X13635515Y-16287936D01*
X13635515Y-16287936D02*
X13635515Y-16306984D01*
X13768848Y-16106984D02*
X13787896Y-16106984D01*
X13787896Y-16106984D02*
X13806944Y-16116508D01*
X13806944Y-16116508D02*
X13816467Y-16126031D01*
X13816467Y-16126031D02*
X13825991Y-16145079D01*
X13825991Y-16145079D02*
X13835515Y-16183174D01*
X13835515Y-16183174D02*
X13835515Y-16230793D01*
X13835515Y-16230793D02*
X13825991Y-16268888D01*
X13825991Y-16268888D02*
X13816467Y-16287936D01*
X13816467Y-16287936D02*
X13806944Y-16297460D01*
X13806944Y-16297460D02*
X13787896Y-16306984D01*
X13787896Y-16306984D02*
X13768848Y-16306984D01*
X13768848Y-16306984D02*
X13749801Y-16297460D01*
X13749801Y-16297460D02*
X13740277Y-16287936D01*
X13740277Y-16287936D02*
X13730753Y-16268888D01*
X13730753Y-16268888D02*
X13721229Y-16230793D01*
X13721229Y-16230793D02*
X13721229Y-16183174D01*
X13721229Y-16183174D02*
X13730753Y-16145079D01*
X13730753Y-16145079D02*
X13740277Y-16126031D01*
X13740277Y-16126031D02*
X13749801Y-16116508D01*
X13749801Y-16116508D02*
X13768848Y-16106984D01*
X13902182Y-16106984D02*
X14025991Y-16106984D01*
X14025991Y-16106984D02*
X13959325Y-16183174D01*
X13959325Y-16183174D02*
X13987896Y-16183174D01*
X13987896Y-16183174D02*
X14006944Y-16192698D01*
X14006944Y-16192698D02*
X14016467Y-16202222D01*
X14016467Y-16202222D02*
X14025991Y-16221269D01*
X14025991Y-16221269D02*
X14025991Y-16268888D01*
X14025991Y-16268888D02*
X14016467Y-16287936D01*
X14016467Y-16287936D02*
X14006944Y-16297460D01*
X14006944Y-16297460D02*
X13987896Y-16306984D01*
X13987896Y-16306984D02*
X13930753Y-16306984D01*
X13930753Y-16306984D02*
X13911706Y-16297460D01*
X13911706Y-16297460D02*
X13902182Y-16287936D01*
X14206944Y-16106984D02*
X14111706Y-16106984D01*
X14111706Y-16106984D02*
X14102182Y-16202222D01*
X14102182Y-16202222D02*
X14111706Y-16192698D01*
X14111706Y-16192698D02*
X14130753Y-16183174D01*
X14130753Y-16183174D02*
X14178372Y-16183174D01*
X14178372Y-16183174D02*
X14197420Y-16192698D01*
X14197420Y-16192698D02*
X14206944Y-16202222D01*
X14206944Y-16202222D02*
X14216467Y-16221269D01*
X14216467Y-16221269D02*
X14216467Y-16268888D01*
X14216467Y-16268888D02*
X14206944Y-16287936D01*
X14206944Y-16287936D02*
X14197420Y-16297460D01*
X14197420Y-16297460D02*
X14178372Y-16306984D01*
X14178372Y-16306984D02*
X14130753Y-16306984D01*
X14130753Y-16306984D02*
X14111706Y-16297460D01*
X14111706Y-16297460D02*
X14102182Y-16287936D01*
X14387896Y-16173650D02*
X14387896Y-16306984D01*
X14340277Y-16097460D02*
X14292658Y-16240317D01*
X14292658Y-16240317D02*
X14416467Y-16240317D01*
X14483134Y-16106984D02*
X14483134Y-16145079D01*
X14559325Y-16106984D02*
X14559325Y-16145079D01*
X14854563Y-16383174D02*
X14845039Y-16373650D01*
X14845039Y-16373650D02*
X14825991Y-16345079D01*
X14825991Y-16345079D02*
X14816468Y-16326031D01*
X14816468Y-16326031D02*
X14806944Y-16297460D01*
X14806944Y-16297460D02*
X14797420Y-16249841D01*
X14797420Y-16249841D02*
X14797420Y-16211746D01*
X14797420Y-16211746D02*
X14806944Y-16164127D01*
X14806944Y-16164127D02*
X14816468Y-16135555D01*
X14816468Y-16135555D02*
X14825991Y-16116508D01*
X14825991Y-16116508D02*
X14845039Y-16087936D01*
X14845039Y-16087936D02*
X14854563Y-16078412D01*
X15016468Y-16106984D02*
X14978372Y-16106984D01*
X14978372Y-16106984D02*
X14959325Y-16116508D01*
X14959325Y-16116508D02*
X14949801Y-16126031D01*
X14949801Y-16126031D02*
X14930753Y-16154603D01*
X14930753Y-16154603D02*
X14921229Y-16192698D01*
X14921229Y-16192698D02*
X14921229Y-16268888D01*
X14921229Y-16268888D02*
X14930753Y-16287936D01*
X14930753Y-16287936D02*
X14940277Y-16297460D01*
X14940277Y-16297460D02*
X14959325Y-16306984D01*
X14959325Y-16306984D02*
X14997420Y-16306984D01*
X14997420Y-16306984D02*
X15016468Y-16297460D01*
X15016468Y-16297460D02*
X15025991Y-16287936D01*
X15025991Y-16287936D02*
X15035515Y-16268888D01*
X15035515Y-16268888D02*
X15035515Y-16221269D01*
X15035515Y-16221269D02*
X15025991Y-16202222D01*
X15025991Y-16202222D02*
X15016468Y-16192698D01*
X15016468Y-16192698D02*
X14997420Y-16183174D01*
X14997420Y-16183174D02*
X14959325Y-16183174D01*
X14959325Y-16183174D02*
X14940277Y-16192698D01*
X14940277Y-16192698D02*
X14930753Y-16202222D01*
X14930753Y-16202222D02*
X14921229Y-16221269D01*
X15273610Y-16306984D02*
X15273610Y-16106984D01*
X15359325Y-16306984D02*
X15359325Y-16202222D01*
X15359325Y-16202222D02*
X15349801Y-16183174D01*
X15349801Y-16183174D02*
X15330753Y-16173650D01*
X15330753Y-16173650D02*
X15302182Y-16173650D01*
X15302182Y-16173650D02*
X15283134Y-16183174D01*
X15283134Y-16183174D02*
X15273610Y-16192698D01*
X15483134Y-16306984D02*
X15464087Y-16297460D01*
X15464087Y-16297460D02*
X15454563Y-16287936D01*
X15454563Y-16287936D02*
X15445039Y-16268888D01*
X15445039Y-16268888D02*
X15445039Y-16211746D01*
X15445039Y-16211746D02*
X15454563Y-16192698D01*
X15454563Y-16192698D02*
X15464087Y-16183174D01*
X15464087Y-16183174D02*
X15483134Y-16173650D01*
X15483134Y-16173650D02*
X15511706Y-16173650D01*
X15511706Y-16173650D02*
X15530753Y-16183174D01*
X15530753Y-16183174D02*
X15540277Y-16192698D01*
X15540277Y-16192698D02*
X15549801Y-16211746D01*
X15549801Y-16211746D02*
X15549801Y-16268888D01*
X15549801Y-16268888D02*
X15540277Y-16287936D01*
X15540277Y-16287936D02*
X15530753Y-16297460D01*
X15530753Y-16297460D02*
X15511706Y-16306984D01*
X15511706Y-16306984D02*
X15483134Y-16306984D01*
X15664087Y-16306984D02*
X15645039Y-16297460D01*
X15645039Y-16297460D02*
X15635515Y-16278412D01*
X15635515Y-16278412D02*
X15635515Y-16106984D01*
X15816468Y-16297460D02*
X15797420Y-16306984D01*
X15797420Y-16306984D02*
X15759325Y-16306984D01*
X15759325Y-16306984D02*
X15740277Y-16297460D01*
X15740277Y-16297460D02*
X15730753Y-16278412D01*
X15730753Y-16278412D02*
X15730753Y-16202222D01*
X15730753Y-16202222D02*
X15740277Y-16183174D01*
X15740277Y-16183174D02*
X15759325Y-16173650D01*
X15759325Y-16173650D02*
X15797420Y-16173650D01*
X15797420Y-16173650D02*
X15816468Y-16183174D01*
X15816468Y-16183174D02*
X15825991Y-16202222D01*
X15825991Y-16202222D02*
X15825991Y-16221269D01*
X15825991Y-16221269D02*
X15730753Y-16240317D01*
X15902182Y-16297460D02*
X15921230Y-16306984D01*
X15921230Y-16306984D02*
X15959325Y-16306984D01*
X15959325Y-16306984D02*
X15978372Y-16297460D01*
X15978372Y-16297460D02*
X15987896Y-16278412D01*
X15987896Y-16278412D02*
X15987896Y-16268888D01*
X15987896Y-16268888D02*
X15978372Y-16249841D01*
X15978372Y-16249841D02*
X15959325Y-16240317D01*
X15959325Y-16240317D02*
X15930753Y-16240317D01*
X15930753Y-16240317D02*
X15911706Y-16230793D01*
X15911706Y-16230793D02*
X15902182Y-16211746D01*
X15902182Y-16211746D02*
X15902182Y-16202222D01*
X15902182Y-16202222D02*
X15911706Y-16183174D01*
X15911706Y-16183174D02*
X15930753Y-16173650D01*
X15930753Y-16173650D02*
X15959325Y-16173650D01*
X15959325Y-16173650D02*
X15978372Y-16183174D01*
X16054563Y-16383174D02*
X16064087Y-16373650D01*
X16064087Y-16373650D02*
X16083134Y-16345079D01*
X16083134Y-16345079D02*
X16092658Y-16326031D01*
X16092658Y-16326031D02*
X16102182Y-16297460D01*
X16102182Y-16297460D02*
X16111706Y-16249841D01*
X16111706Y-16249841D02*
X16111706Y-16211746D01*
X16111706Y-16211746D02*
X16102182Y-16164127D01*
X16102182Y-16164127D02*
X16092658Y-16135555D01*
X16092658Y-16135555D02*
X16083134Y-16116508D01*
X16083134Y-16116508D02*
X16064087Y-16087936D01*
X16064087Y-16087936D02*
X16054563Y-16078412D01*
D12*
X11184500Y-16432000D02*
X11279500Y-16527000D01*
X11279500Y-16432000D02*
X11184500Y-16527000D01*
X11279500Y-16479500D02*
G75*
G02*
X11184500Y-16479500I-47500J0D01*
G01*
X11184500Y-16479500D02*
G75*
G02*
X11279500Y-16479500I47500J0D01*
G01*
D11*
X11578372Y-16370984D02*
X11597420Y-16370984D01*
X11597420Y-16370984D02*
X11616467Y-16380508D01*
X11616467Y-16380508D02*
X11625991Y-16390031D01*
X11625991Y-16390031D02*
X11635515Y-16409079D01*
X11635515Y-16409079D02*
X11645039Y-16447174D01*
X11645039Y-16447174D02*
X11645039Y-16494793D01*
X11645039Y-16494793D02*
X11635515Y-16532888D01*
X11635515Y-16532888D02*
X11625991Y-16551936D01*
X11625991Y-16551936D02*
X11616467Y-16561460D01*
X11616467Y-16561460D02*
X11597420Y-16570984D01*
X11597420Y-16570984D02*
X11578372Y-16570984D01*
X11578372Y-16570984D02*
X11559324Y-16561460D01*
X11559324Y-16561460D02*
X11549801Y-16551936D01*
X11549801Y-16551936D02*
X11540277Y-16532888D01*
X11540277Y-16532888D02*
X11530753Y-16494793D01*
X11530753Y-16494793D02*
X11530753Y-16447174D01*
X11530753Y-16447174D02*
X11540277Y-16409079D01*
X11540277Y-16409079D02*
X11549801Y-16390031D01*
X11549801Y-16390031D02*
X11559324Y-16380508D01*
X11559324Y-16380508D02*
X11578372Y-16370984D01*
X11730753Y-16551936D02*
X11740277Y-16561460D01*
X11740277Y-16561460D02*
X11730753Y-16570984D01*
X11730753Y-16570984D02*
X11721229Y-16561460D01*
X11721229Y-16561460D02*
X11730753Y-16551936D01*
X11730753Y-16551936D02*
X11730753Y-16570984D01*
X11835515Y-16570984D02*
X11873610Y-16570984D01*
X11873610Y-16570984D02*
X11892658Y-16561460D01*
X11892658Y-16561460D02*
X11902182Y-16551936D01*
X11902182Y-16551936D02*
X11921229Y-16523365D01*
X11921229Y-16523365D02*
X11930753Y-16485269D01*
X11930753Y-16485269D02*
X11930753Y-16409079D01*
X11930753Y-16409079D02*
X11921229Y-16390031D01*
X11921229Y-16390031D02*
X11911705Y-16380508D01*
X11911705Y-16380508D02*
X11892658Y-16370984D01*
X11892658Y-16370984D02*
X11854562Y-16370984D01*
X11854562Y-16370984D02*
X11835515Y-16380508D01*
X11835515Y-16380508D02*
X11825991Y-16390031D01*
X11825991Y-16390031D02*
X11816467Y-16409079D01*
X11816467Y-16409079D02*
X11816467Y-16456698D01*
X11816467Y-16456698D02*
X11825991Y-16475746D01*
X11825991Y-16475746D02*
X11835515Y-16485269D01*
X11835515Y-16485269D02*
X11854562Y-16494793D01*
X11854562Y-16494793D02*
X11892658Y-16494793D01*
X11892658Y-16494793D02*
X11911705Y-16485269D01*
X11911705Y-16485269D02*
X11921229Y-16475746D01*
X11921229Y-16475746D02*
X11930753Y-16456698D01*
X12111705Y-16370984D02*
X12016467Y-16370984D01*
X12016467Y-16370984D02*
X12006943Y-16466222D01*
X12006943Y-16466222D02*
X12016467Y-16456698D01*
X12016467Y-16456698D02*
X12035515Y-16447174D01*
X12035515Y-16447174D02*
X12083134Y-16447174D01*
X12083134Y-16447174D02*
X12102182Y-16456698D01*
X12102182Y-16456698D02*
X12111705Y-16466222D01*
X12111705Y-16466222D02*
X12121229Y-16485269D01*
X12121229Y-16485269D02*
X12121229Y-16532888D01*
X12121229Y-16532888D02*
X12111705Y-16551936D01*
X12111705Y-16551936D02*
X12102182Y-16561460D01*
X12102182Y-16561460D02*
X12083134Y-16570984D01*
X12083134Y-16570984D02*
X12035515Y-16570984D01*
X12035515Y-16570984D02*
X12016467Y-16561460D01*
X12016467Y-16561460D02*
X12006943Y-16551936D01*
X12245039Y-16370984D02*
X12264086Y-16370984D01*
X12264086Y-16370984D02*
X12283134Y-16380508D01*
X12283134Y-16380508D02*
X12292658Y-16390031D01*
X12292658Y-16390031D02*
X12302182Y-16409079D01*
X12302182Y-16409079D02*
X12311705Y-16447174D01*
X12311705Y-16447174D02*
X12311705Y-16494793D01*
X12311705Y-16494793D02*
X12302182Y-16532888D01*
X12302182Y-16532888D02*
X12292658Y-16551936D01*
X12292658Y-16551936D02*
X12283134Y-16561460D01*
X12283134Y-16561460D02*
X12264086Y-16570984D01*
X12264086Y-16570984D02*
X12245039Y-16570984D01*
X12245039Y-16570984D02*
X12225991Y-16561460D01*
X12225991Y-16561460D02*
X12216467Y-16551936D01*
X12216467Y-16551936D02*
X12206943Y-16532888D01*
X12206943Y-16532888D02*
X12197420Y-16494793D01*
X12197420Y-16494793D02*
X12197420Y-16447174D01*
X12197420Y-16447174D02*
X12206943Y-16409079D01*
X12206943Y-16409079D02*
X12216467Y-16390031D01*
X12216467Y-16390031D02*
X12225991Y-16380508D01*
X12225991Y-16380508D02*
X12245039Y-16370984D01*
X12397420Y-16570984D02*
X12397420Y-16437650D01*
X12397420Y-16456698D02*
X12406943Y-16447174D01*
X12406943Y-16447174D02*
X12425991Y-16437650D01*
X12425991Y-16437650D02*
X12454563Y-16437650D01*
X12454563Y-16437650D02*
X12473610Y-16447174D01*
X12473610Y-16447174D02*
X12483134Y-16466222D01*
X12483134Y-16466222D02*
X12483134Y-16570984D01*
X12483134Y-16466222D02*
X12492658Y-16447174D01*
X12492658Y-16447174D02*
X12511705Y-16437650D01*
X12511705Y-16437650D02*
X12540277Y-16437650D01*
X12540277Y-16437650D02*
X12559324Y-16447174D01*
X12559324Y-16447174D02*
X12568848Y-16466222D01*
X12568848Y-16466222D02*
X12568848Y-16570984D01*
X12664086Y-16570984D02*
X12664086Y-16437650D01*
X12664086Y-16456698D02*
X12673610Y-16447174D01*
X12673610Y-16447174D02*
X12692658Y-16437650D01*
X12692658Y-16437650D02*
X12721229Y-16437650D01*
X12721229Y-16437650D02*
X12740277Y-16447174D01*
X12740277Y-16447174D02*
X12749801Y-16466222D01*
X12749801Y-16466222D02*
X12749801Y-16570984D01*
X12749801Y-16466222D02*
X12759324Y-16447174D01*
X12759324Y-16447174D02*
X12778372Y-16437650D01*
X12778372Y-16437650D02*
X12806943Y-16437650D01*
X12806943Y-16437650D02*
X12825991Y-16447174D01*
X12825991Y-16447174D02*
X12835515Y-16466222D01*
X12835515Y-16466222D02*
X12835515Y-16570984D01*
X13225991Y-16361460D02*
X13054563Y-16618603D01*
X13483134Y-16370984D02*
X13502182Y-16370984D01*
X13502182Y-16370984D02*
X13521229Y-16380508D01*
X13521229Y-16380508D02*
X13530753Y-16390031D01*
X13530753Y-16390031D02*
X13540277Y-16409079D01*
X13540277Y-16409079D02*
X13549801Y-16447174D01*
X13549801Y-16447174D02*
X13549801Y-16494793D01*
X13549801Y-16494793D02*
X13540277Y-16532888D01*
X13540277Y-16532888D02*
X13530753Y-16551936D01*
X13530753Y-16551936D02*
X13521229Y-16561460D01*
X13521229Y-16561460D02*
X13502182Y-16570984D01*
X13502182Y-16570984D02*
X13483134Y-16570984D01*
X13483134Y-16570984D02*
X13464086Y-16561460D01*
X13464086Y-16561460D02*
X13454563Y-16551936D01*
X13454563Y-16551936D02*
X13445039Y-16532888D01*
X13445039Y-16532888D02*
X13435515Y-16494793D01*
X13435515Y-16494793D02*
X13435515Y-16447174D01*
X13435515Y-16447174D02*
X13445039Y-16409079D01*
X13445039Y-16409079D02*
X13454563Y-16390031D01*
X13454563Y-16390031D02*
X13464086Y-16380508D01*
X13464086Y-16380508D02*
X13483134Y-16370984D01*
X13635515Y-16551936D02*
X13645039Y-16561460D01*
X13645039Y-16561460D02*
X13635515Y-16570984D01*
X13635515Y-16570984D02*
X13625991Y-16561460D01*
X13625991Y-16561460D02*
X13635515Y-16551936D01*
X13635515Y-16551936D02*
X13635515Y-16570984D01*
X13768848Y-16370984D02*
X13787896Y-16370984D01*
X13787896Y-16370984D02*
X13806944Y-16380508D01*
X13806944Y-16380508D02*
X13816467Y-16390031D01*
X13816467Y-16390031D02*
X13825991Y-16409079D01*
X13825991Y-16409079D02*
X13835515Y-16447174D01*
X13835515Y-16447174D02*
X13835515Y-16494793D01*
X13835515Y-16494793D02*
X13825991Y-16532888D01*
X13825991Y-16532888D02*
X13816467Y-16551936D01*
X13816467Y-16551936D02*
X13806944Y-16561460D01*
X13806944Y-16561460D02*
X13787896Y-16570984D01*
X13787896Y-16570984D02*
X13768848Y-16570984D01*
X13768848Y-16570984D02*
X13749801Y-16561460D01*
X13749801Y-16561460D02*
X13740277Y-16551936D01*
X13740277Y-16551936D02*
X13730753Y-16532888D01*
X13730753Y-16532888D02*
X13721229Y-16494793D01*
X13721229Y-16494793D02*
X13721229Y-16447174D01*
X13721229Y-16447174D02*
X13730753Y-16409079D01*
X13730753Y-16409079D02*
X13740277Y-16390031D01*
X13740277Y-16390031D02*
X13749801Y-16380508D01*
X13749801Y-16380508D02*
X13768848Y-16370984D01*
X13902182Y-16370984D02*
X14025991Y-16370984D01*
X14025991Y-16370984D02*
X13959325Y-16447174D01*
X13959325Y-16447174D02*
X13987896Y-16447174D01*
X13987896Y-16447174D02*
X14006944Y-16456698D01*
X14006944Y-16456698D02*
X14016467Y-16466222D01*
X14016467Y-16466222D02*
X14025991Y-16485269D01*
X14025991Y-16485269D02*
X14025991Y-16532888D01*
X14025991Y-16532888D02*
X14016467Y-16551936D01*
X14016467Y-16551936D02*
X14006944Y-16561460D01*
X14006944Y-16561460D02*
X13987896Y-16570984D01*
X13987896Y-16570984D02*
X13930753Y-16570984D01*
X13930753Y-16570984D02*
X13911706Y-16561460D01*
X13911706Y-16561460D02*
X13902182Y-16551936D01*
X14092658Y-16370984D02*
X14225991Y-16370984D01*
X14225991Y-16370984D02*
X14140277Y-16570984D01*
X14387896Y-16437650D02*
X14387896Y-16570984D01*
X14340277Y-16361460D02*
X14292658Y-16504317D01*
X14292658Y-16504317D02*
X14416467Y-16504317D01*
X14483134Y-16370984D02*
X14483134Y-16409079D01*
X14559325Y-16370984D02*
X14559325Y-16409079D01*
X14854563Y-16647174D02*
X14845039Y-16637650D01*
X14845039Y-16637650D02*
X14825991Y-16609079D01*
X14825991Y-16609079D02*
X14816468Y-16590031D01*
X14816468Y-16590031D02*
X14806944Y-16561460D01*
X14806944Y-16561460D02*
X14797420Y-16513841D01*
X14797420Y-16513841D02*
X14797420Y-16475746D01*
X14797420Y-16475746D02*
X14806944Y-16428127D01*
X14806944Y-16428127D02*
X14816468Y-16399555D01*
X14816468Y-16399555D02*
X14825991Y-16380508D01*
X14825991Y-16380508D02*
X14845039Y-16351936D01*
X14845039Y-16351936D02*
X14854563Y-16342412D01*
X15016468Y-16437650D02*
X15016468Y-16570984D01*
X14968848Y-16361460D02*
X14921229Y-16504317D01*
X14921229Y-16504317D02*
X15045039Y-16504317D01*
X15273610Y-16570984D02*
X15273610Y-16370984D01*
X15359325Y-16570984D02*
X15359325Y-16466222D01*
X15359325Y-16466222D02*
X15349801Y-16447174D01*
X15349801Y-16447174D02*
X15330753Y-16437650D01*
X15330753Y-16437650D02*
X15302182Y-16437650D01*
X15302182Y-16437650D02*
X15283134Y-16447174D01*
X15283134Y-16447174D02*
X15273610Y-16456698D01*
X15483134Y-16570984D02*
X15464087Y-16561460D01*
X15464087Y-16561460D02*
X15454563Y-16551936D01*
X15454563Y-16551936D02*
X15445039Y-16532888D01*
X15445039Y-16532888D02*
X15445039Y-16475746D01*
X15445039Y-16475746D02*
X15454563Y-16456698D01*
X15454563Y-16456698D02*
X15464087Y-16447174D01*
X15464087Y-16447174D02*
X15483134Y-16437650D01*
X15483134Y-16437650D02*
X15511706Y-16437650D01*
X15511706Y-16437650D02*
X15530753Y-16447174D01*
X15530753Y-16447174D02*
X15540277Y-16456698D01*
X15540277Y-16456698D02*
X15549801Y-16475746D01*
X15549801Y-16475746D02*
X15549801Y-16532888D01*
X15549801Y-16532888D02*
X15540277Y-16551936D01*
X15540277Y-16551936D02*
X15530753Y-16561460D01*
X15530753Y-16561460D02*
X15511706Y-16570984D01*
X15511706Y-16570984D02*
X15483134Y-16570984D01*
X15664087Y-16570984D02*
X15645039Y-16561460D01*
X15645039Y-16561460D02*
X15635515Y-16542412D01*
X15635515Y-16542412D02*
X15635515Y-16370984D01*
X15816468Y-16561460D02*
X15797420Y-16570984D01*
X15797420Y-16570984D02*
X15759325Y-16570984D01*
X15759325Y-16570984D02*
X15740277Y-16561460D01*
X15740277Y-16561460D02*
X15730753Y-16542412D01*
X15730753Y-16542412D02*
X15730753Y-16466222D01*
X15730753Y-16466222D02*
X15740277Y-16447174D01*
X15740277Y-16447174D02*
X15759325Y-16437650D01*
X15759325Y-16437650D02*
X15797420Y-16437650D01*
X15797420Y-16437650D02*
X15816468Y-16447174D01*
X15816468Y-16447174D02*
X15825991Y-16466222D01*
X15825991Y-16466222D02*
X15825991Y-16485269D01*
X15825991Y-16485269D02*
X15730753Y-16504317D01*
X15902182Y-16561460D02*
X15921230Y-16570984D01*
X15921230Y-16570984D02*
X15959325Y-16570984D01*
X15959325Y-16570984D02*
X15978372Y-16561460D01*
X15978372Y-16561460D02*
X15987896Y-16542412D01*
X15987896Y-16542412D02*
X15987896Y-16532888D01*
X15987896Y-16532888D02*
X15978372Y-16513841D01*
X15978372Y-16513841D02*
X15959325Y-16504317D01*
X15959325Y-16504317D02*
X15930753Y-16504317D01*
X15930753Y-16504317D02*
X15911706Y-16494793D01*
X15911706Y-16494793D02*
X15902182Y-16475746D01*
X15902182Y-16475746D02*
X15902182Y-16466222D01*
X15902182Y-16466222D02*
X15911706Y-16447174D01*
X15911706Y-16447174D02*
X15930753Y-16437650D01*
X15930753Y-16437650D02*
X15959325Y-16437650D01*
X15959325Y-16437650D02*
X15978372Y-16447174D01*
X16054563Y-16647174D02*
X16064087Y-16637650D01*
X16064087Y-16637650D02*
X16083134Y-16609079D01*
X16083134Y-16609079D02*
X16092658Y-16590031D01*
X16092658Y-16590031D02*
X16102182Y-16561460D01*
X16102182Y-16561460D02*
X16111706Y-16513841D01*
X16111706Y-16513841D02*
X16111706Y-16475746D01*
X16111706Y-16475746D02*
X16102182Y-16428127D01*
X16102182Y-16428127D02*
X16092658Y-16399555D01*
X16092658Y-16399555D02*
X16083134Y-16380508D01*
X16083134Y-16380508D02*
X16064087Y-16351936D01*
X16064087Y-16351936D02*
X16054563Y-16342412D01*
D12*
X11179500Y-16693500D02*
X11279500Y-16793500D01*
X11279500Y-16693500D02*
X11179500Y-16793500D01*
X11229500Y-16693500D02*
X11229500Y-16793500D01*
X11179500Y-16743500D02*
X11279500Y-16743500D01*
D11*
X11645039Y-16834984D02*
X11530753Y-16834984D01*
X11587896Y-16834984D02*
X11587896Y-16634984D01*
X11587896Y-16634984D02*
X11568848Y-16663555D01*
X11568848Y-16663555D02*
X11549801Y-16682603D01*
X11549801Y-16682603D02*
X11530753Y-16692127D01*
X11730753Y-16815936D02*
X11740277Y-16825460D01*
X11740277Y-16825460D02*
X11730753Y-16834984D01*
X11730753Y-16834984D02*
X11721229Y-16825460D01*
X11721229Y-16825460D02*
X11730753Y-16815936D01*
X11730753Y-16815936D02*
X11730753Y-16834984D01*
X11864086Y-16634984D02*
X11883134Y-16634984D01*
X11883134Y-16634984D02*
X11902182Y-16644508D01*
X11902182Y-16644508D02*
X11911705Y-16654031D01*
X11911705Y-16654031D02*
X11921229Y-16673079D01*
X11921229Y-16673079D02*
X11930753Y-16711174D01*
X11930753Y-16711174D02*
X11930753Y-16758793D01*
X11930753Y-16758793D02*
X11921229Y-16796889D01*
X11921229Y-16796889D02*
X11911705Y-16815936D01*
X11911705Y-16815936D02*
X11902182Y-16825460D01*
X11902182Y-16825460D02*
X11883134Y-16834984D01*
X11883134Y-16834984D02*
X11864086Y-16834984D01*
X11864086Y-16834984D02*
X11845039Y-16825460D01*
X11845039Y-16825460D02*
X11835515Y-16815936D01*
X11835515Y-16815936D02*
X11825991Y-16796889D01*
X11825991Y-16796889D02*
X11816467Y-16758793D01*
X11816467Y-16758793D02*
X11816467Y-16711174D01*
X11816467Y-16711174D02*
X11825991Y-16673079D01*
X11825991Y-16673079D02*
X11835515Y-16654031D01*
X11835515Y-16654031D02*
X11845039Y-16644508D01*
X11845039Y-16644508D02*
X11864086Y-16634984D01*
X12054562Y-16634984D02*
X12073610Y-16634984D01*
X12073610Y-16634984D02*
X12092658Y-16644508D01*
X12092658Y-16644508D02*
X12102182Y-16654031D01*
X12102182Y-16654031D02*
X12111705Y-16673079D01*
X12111705Y-16673079D02*
X12121229Y-16711174D01*
X12121229Y-16711174D02*
X12121229Y-16758793D01*
X12121229Y-16758793D02*
X12111705Y-16796889D01*
X12111705Y-16796889D02*
X12102182Y-16815936D01*
X12102182Y-16815936D02*
X12092658Y-16825460D01*
X12092658Y-16825460D02*
X12073610Y-16834984D01*
X12073610Y-16834984D02*
X12054562Y-16834984D01*
X12054562Y-16834984D02*
X12035515Y-16825460D01*
X12035515Y-16825460D02*
X12025991Y-16815936D01*
X12025991Y-16815936D02*
X12016467Y-16796889D01*
X12016467Y-16796889D02*
X12006943Y-16758793D01*
X12006943Y-16758793D02*
X12006943Y-16711174D01*
X12006943Y-16711174D02*
X12016467Y-16673079D01*
X12016467Y-16673079D02*
X12025991Y-16654031D01*
X12025991Y-16654031D02*
X12035515Y-16644508D01*
X12035515Y-16644508D02*
X12054562Y-16634984D01*
X12245039Y-16634984D02*
X12264086Y-16634984D01*
X12264086Y-16634984D02*
X12283134Y-16644508D01*
X12283134Y-16644508D02*
X12292658Y-16654031D01*
X12292658Y-16654031D02*
X12302182Y-16673079D01*
X12302182Y-16673079D02*
X12311705Y-16711174D01*
X12311705Y-16711174D02*
X12311705Y-16758793D01*
X12311705Y-16758793D02*
X12302182Y-16796889D01*
X12302182Y-16796889D02*
X12292658Y-16815936D01*
X12292658Y-16815936D02*
X12283134Y-16825460D01*
X12283134Y-16825460D02*
X12264086Y-16834984D01*
X12264086Y-16834984D02*
X12245039Y-16834984D01*
X12245039Y-16834984D02*
X12225991Y-16825460D01*
X12225991Y-16825460D02*
X12216467Y-16815936D01*
X12216467Y-16815936D02*
X12206943Y-16796889D01*
X12206943Y-16796889D02*
X12197420Y-16758793D01*
X12197420Y-16758793D02*
X12197420Y-16711174D01*
X12197420Y-16711174D02*
X12206943Y-16673079D01*
X12206943Y-16673079D02*
X12216467Y-16654031D01*
X12216467Y-16654031D02*
X12225991Y-16644508D01*
X12225991Y-16644508D02*
X12245039Y-16634984D01*
X12397420Y-16834984D02*
X12397420Y-16701650D01*
X12397420Y-16720698D02*
X12406943Y-16711174D01*
X12406943Y-16711174D02*
X12425991Y-16701650D01*
X12425991Y-16701650D02*
X12454563Y-16701650D01*
X12454563Y-16701650D02*
X12473610Y-16711174D01*
X12473610Y-16711174D02*
X12483134Y-16730222D01*
X12483134Y-16730222D02*
X12483134Y-16834984D01*
X12483134Y-16730222D02*
X12492658Y-16711174D01*
X12492658Y-16711174D02*
X12511705Y-16701650D01*
X12511705Y-16701650D02*
X12540277Y-16701650D01*
X12540277Y-16701650D02*
X12559324Y-16711174D01*
X12559324Y-16711174D02*
X12568848Y-16730222D01*
X12568848Y-16730222D02*
X12568848Y-16834984D01*
X12664086Y-16834984D02*
X12664086Y-16701650D01*
X12664086Y-16720698D02*
X12673610Y-16711174D01*
X12673610Y-16711174D02*
X12692658Y-16701650D01*
X12692658Y-16701650D02*
X12721229Y-16701650D01*
X12721229Y-16701650D02*
X12740277Y-16711174D01*
X12740277Y-16711174D02*
X12749801Y-16730222D01*
X12749801Y-16730222D02*
X12749801Y-16834984D01*
X12749801Y-16730222D02*
X12759324Y-16711174D01*
X12759324Y-16711174D02*
X12778372Y-16701650D01*
X12778372Y-16701650D02*
X12806943Y-16701650D01*
X12806943Y-16701650D02*
X12825991Y-16711174D01*
X12825991Y-16711174D02*
X12835515Y-16730222D01*
X12835515Y-16730222D02*
X12835515Y-16834984D01*
X13225991Y-16625460D02*
X13054563Y-16882603D01*
X13483134Y-16634984D02*
X13502182Y-16634984D01*
X13502182Y-16634984D02*
X13521229Y-16644508D01*
X13521229Y-16644508D02*
X13530753Y-16654031D01*
X13530753Y-16654031D02*
X13540277Y-16673079D01*
X13540277Y-16673079D02*
X13549801Y-16711174D01*
X13549801Y-16711174D02*
X13549801Y-16758793D01*
X13549801Y-16758793D02*
X13540277Y-16796889D01*
X13540277Y-16796889D02*
X13530753Y-16815936D01*
X13530753Y-16815936D02*
X13521229Y-16825460D01*
X13521229Y-16825460D02*
X13502182Y-16834984D01*
X13502182Y-16834984D02*
X13483134Y-16834984D01*
X13483134Y-16834984D02*
X13464086Y-16825460D01*
X13464086Y-16825460D02*
X13454563Y-16815936D01*
X13454563Y-16815936D02*
X13445039Y-16796889D01*
X13445039Y-16796889D02*
X13435515Y-16758793D01*
X13435515Y-16758793D02*
X13435515Y-16711174D01*
X13435515Y-16711174D02*
X13445039Y-16673079D01*
X13445039Y-16673079D02*
X13454563Y-16654031D01*
X13454563Y-16654031D02*
X13464086Y-16644508D01*
X13464086Y-16644508D02*
X13483134Y-16634984D01*
X13635515Y-16815936D02*
X13645039Y-16825460D01*
X13645039Y-16825460D02*
X13635515Y-16834984D01*
X13635515Y-16834984D02*
X13625991Y-16825460D01*
X13625991Y-16825460D02*
X13635515Y-16815936D01*
X13635515Y-16815936D02*
X13635515Y-16834984D01*
X13768848Y-16634984D02*
X13787896Y-16634984D01*
X13787896Y-16634984D02*
X13806944Y-16644508D01*
X13806944Y-16644508D02*
X13816467Y-16654031D01*
X13816467Y-16654031D02*
X13825991Y-16673079D01*
X13825991Y-16673079D02*
X13835515Y-16711174D01*
X13835515Y-16711174D02*
X13835515Y-16758793D01*
X13835515Y-16758793D02*
X13825991Y-16796889D01*
X13825991Y-16796889D02*
X13816467Y-16815936D01*
X13816467Y-16815936D02*
X13806944Y-16825460D01*
X13806944Y-16825460D02*
X13787896Y-16834984D01*
X13787896Y-16834984D02*
X13768848Y-16834984D01*
X13768848Y-16834984D02*
X13749801Y-16825460D01*
X13749801Y-16825460D02*
X13740277Y-16815936D01*
X13740277Y-16815936D02*
X13730753Y-16796889D01*
X13730753Y-16796889D02*
X13721229Y-16758793D01*
X13721229Y-16758793D02*
X13721229Y-16711174D01*
X13721229Y-16711174D02*
X13730753Y-16673079D01*
X13730753Y-16673079D02*
X13740277Y-16654031D01*
X13740277Y-16654031D02*
X13749801Y-16644508D01*
X13749801Y-16644508D02*
X13768848Y-16634984D01*
X13902182Y-16634984D02*
X14025991Y-16634984D01*
X14025991Y-16634984D02*
X13959325Y-16711174D01*
X13959325Y-16711174D02*
X13987896Y-16711174D01*
X13987896Y-16711174D02*
X14006944Y-16720698D01*
X14006944Y-16720698D02*
X14016467Y-16730222D01*
X14016467Y-16730222D02*
X14025991Y-16749269D01*
X14025991Y-16749269D02*
X14025991Y-16796889D01*
X14025991Y-16796889D02*
X14016467Y-16815936D01*
X14016467Y-16815936D02*
X14006944Y-16825460D01*
X14006944Y-16825460D02*
X13987896Y-16834984D01*
X13987896Y-16834984D02*
X13930753Y-16834984D01*
X13930753Y-16834984D02*
X13911706Y-16825460D01*
X13911706Y-16825460D02*
X13902182Y-16815936D01*
X14121229Y-16834984D02*
X14159325Y-16834984D01*
X14159325Y-16834984D02*
X14178372Y-16825460D01*
X14178372Y-16825460D02*
X14187896Y-16815936D01*
X14187896Y-16815936D02*
X14206944Y-16787365D01*
X14206944Y-16787365D02*
X14216467Y-16749269D01*
X14216467Y-16749269D02*
X14216467Y-16673079D01*
X14216467Y-16673079D02*
X14206944Y-16654031D01*
X14206944Y-16654031D02*
X14197420Y-16644508D01*
X14197420Y-16644508D02*
X14178372Y-16634984D01*
X14178372Y-16634984D02*
X14140277Y-16634984D01*
X14140277Y-16634984D02*
X14121229Y-16644508D01*
X14121229Y-16644508D02*
X14111706Y-16654031D01*
X14111706Y-16654031D02*
X14102182Y-16673079D01*
X14102182Y-16673079D02*
X14102182Y-16720698D01*
X14102182Y-16720698D02*
X14111706Y-16739746D01*
X14111706Y-16739746D02*
X14121229Y-16749269D01*
X14121229Y-16749269D02*
X14140277Y-16758793D01*
X14140277Y-16758793D02*
X14178372Y-16758793D01*
X14178372Y-16758793D02*
X14197420Y-16749269D01*
X14197420Y-16749269D02*
X14206944Y-16739746D01*
X14206944Y-16739746D02*
X14216467Y-16720698D01*
X14387896Y-16701650D02*
X14387896Y-16834984D01*
X14340277Y-16625460D02*
X14292658Y-16768317D01*
X14292658Y-16768317D02*
X14416467Y-16768317D01*
X14483134Y-16634984D02*
X14483134Y-16673079D01*
X14559325Y-16634984D02*
X14559325Y-16673079D01*
X14854563Y-16911174D02*
X14845039Y-16901650D01*
X14845039Y-16901650D02*
X14825991Y-16873079D01*
X14825991Y-16873079D02*
X14816468Y-16854031D01*
X14816468Y-16854031D02*
X14806944Y-16825460D01*
X14806944Y-16825460D02*
X14797420Y-16777841D01*
X14797420Y-16777841D02*
X14797420Y-16739746D01*
X14797420Y-16739746D02*
X14806944Y-16692127D01*
X14806944Y-16692127D02*
X14816468Y-16663555D01*
X14816468Y-16663555D02*
X14825991Y-16644508D01*
X14825991Y-16644508D02*
X14845039Y-16615936D01*
X14845039Y-16615936D02*
X14854563Y-16606412D01*
X15016468Y-16701650D02*
X15016468Y-16834984D01*
X14968848Y-16625460D02*
X14921229Y-16768317D01*
X14921229Y-16768317D02*
X15045039Y-16768317D01*
X15102182Y-16634984D02*
X15225991Y-16634984D01*
X15225991Y-16634984D02*
X15159325Y-16711174D01*
X15159325Y-16711174D02*
X15187896Y-16711174D01*
X15187896Y-16711174D02*
X15206944Y-16720698D01*
X15206944Y-16720698D02*
X15216468Y-16730222D01*
X15216468Y-16730222D02*
X15225991Y-16749269D01*
X15225991Y-16749269D02*
X15225991Y-16796889D01*
X15225991Y-16796889D02*
X15216468Y-16815936D01*
X15216468Y-16815936D02*
X15206944Y-16825460D01*
X15206944Y-16825460D02*
X15187896Y-16834984D01*
X15187896Y-16834984D02*
X15130753Y-16834984D01*
X15130753Y-16834984D02*
X15111706Y-16825460D01*
X15111706Y-16825460D02*
X15102182Y-16815936D01*
X15464087Y-16834984D02*
X15464087Y-16634984D01*
X15549801Y-16834984D02*
X15549801Y-16730222D01*
X15549801Y-16730222D02*
X15540277Y-16711174D01*
X15540277Y-16711174D02*
X15521230Y-16701650D01*
X15521230Y-16701650D02*
X15492658Y-16701650D01*
X15492658Y-16701650D02*
X15473610Y-16711174D01*
X15473610Y-16711174D02*
X15464087Y-16720698D01*
X15673610Y-16834984D02*
X15654563Y-16825460D01*
X15654563Y-16825460D02*
X15645039Y-16815936D01*
X15645039Y-16815936D02*
X15635515Y-16796889D01*
X15635515Y-16796889D02*
X15635515Y-16739746D01*
X15635515Y-16739746D02*
X15645039Y-16720698D01*
X15645039Y-16720698D02*
X15654563Y-16711174D01*
X15654563Y-16711174D02*
X15673610Y-16701650D01*
X15673610Y-16701650D02*
X15702182Y-16701650D01*
X15702182Y-16701650D02*
X15721230Y-16711174D01*
X15721230Y-16711174D02*
X15730753Y-16720698D01*
X15730753Y-16720698D02*
X15740277Y-16739746D01*
X15740277Y-16739746D02*
X15740277Y-16796889D01*
X15740277Y-16796889D02*
X15730753Y-16815936D01*
X15730753Y-16815936D02*
X15721230Y-16825460D01*
X15721230Y-16825460D02*
X15702182Y-16834984D01*
X15702182Y-16834984D02*
X15673610Y-16834984D01*
X15854563Y-16834984D02*
X15835515Y-16825460D01*
X15835515Y-16825460D02*
X15825991Y-16806412D01*
X15825991Y-16806412D02*
X15825991Y-16634984D01*
X16006944Y-16825460D02*
X15987896Y-16834984D01*
X15987896Y-16834984D02*
X15949801Y-16834984D01*
X15949801Y-16834984D02*
X15930753Y-16825460D01*
X15930753Y-16825460D02*
X15921230Y-16806412D01*
X15921230Y-16806412D02*
X15921230Y-16730222D01*
X15921230Y-16730222D02*
X15930753Y-16711174D01*
X15930753Y-16711174D02*
X15949801Y-16701650D01*
X15949801Y-16701650D02*
X15987896Y-16701650D01*
X15987896Y-16701650D02*
X16006944Y-16711174D01*
X16006944Y-16711174D02*
X16016468Y-16730222D01*
X16016468Y-16730222D02*
X16016468Y-16749269D01*
X16016468Y-16749269D02*
X15921230Y-16768317D01*
X16092658Y-16825460D02*
X16111706Y-16834984D01*
X16111706Y-16834984D02*
X16149801Y-16834984D01*
X16149801Y-16834984D02*
X16168849Y-16825460D01*
X16168849Y-16825460D02*
X16178372Y-16806412D01*
X16178372Y-16806412D02*
X16178372Y-16796889D01*
X16178372Y-16796889D02*
X16168849Y-16777841D01*
X16168849Y-16777841D02*
X16149801Y-16768317D01*
X16149801Y-16768317D02*
X16121230Y-16768317D01*
X16121230Y-16768317D02*
X16102182Y-16758793D01*
X16102182Y-16758793D02*
X16092658Y-16739746D01*
X16092658Y-16739746D02*
X16092658Y-16730222D01*
X16092658Y-16730222D02*
X16102182Y-16711174D01*
X16102182Y-16711174D02*
X16121230Y-16701650D01*
X16121230Y-16701650D02*
X16149801Y-16701650D01*
X16149801Y-16701650D02*
X16168849Y-16711174D01*
X16245039Y-16911174D02*
X16254563Y-16901650D01*
X16254563Y-16901650D02*
X16273611Y-16873079D01*
X16273611Y-16873079D02*
X16283134Y-16854031D01*
X16283134Y-16854031D02*
X16292658Y-16825460D01*
X16292658Y-16825460D02*
X16302182Y-16777841D01*
X16302182Y-16777841D02*
X16302182Y-16739746D01*
X16302182Y-16739746D02*
X16292658Y-16692127D01*
X16292658Y-16692127D02*
X16283134Y-16663555D01*
X16283134Y-16663555D02*
X16273611Y-16644508D01*
X16273611Y-16644508D02*
X16254563Y-16615936D01*
X16254563Y-16615936D02*
X16245039Y-16606412D01*
D13*
X11177500Y-16956500D02*
X11279500Y-17058500D01*
X11279500Y-16956500D02*
X11177500Y-17058500D01*
X11264563Y-17043563D02*
X11264563Y-16971437D01*
X11192437Y-16971437D01*
X11192437Y-17043563D01*
X11264563Y-17043563D01*
D11*
X11645039Y-17098984D02*
X11530753Y-17098984D01*
X11587896Y-17098984D02*
X11587896Y-16898984D01*
X11587896Y-16898984D02*
X11568848Y-16927555D01*
X11568848Y-16927555D02*
X11549801Y-16946603D01*
X11549801Y-16946603D02*
X11530753Y-16956127D01*
X11730753Y-17079936D02*
X11740277Y-17089460D01*
X11740277Y-17089460D02*
X11730753Y-17098984D01*
X11730753Y-17098984D02*
X11721229Y-17089460D01*
X11721229Y-17089460D02*
X11730753Y-17079936D01*
X11730753Y-17079936D02*
X11730753Y-17098984D01*
X11864086Y-16898984D02*
X11883134Y-16898984D01*
X11883134Y-16898984D02*
X11902182Y-16908508D01*
X11902182Y-16908508D02*
X11911705Y-16918031D01*
X11911705Y-16918031D02*
X11921229Y-16937079D01*
X11921229Y-16937079D02*
X11930753Y-16975174D01*
X11930753Y-16975174D02*
X11930753Y-17022793D01*
X11930753Y-17022793D02*
X11921229Y-17060889D01*
X11921229Y-17060889D02*
X11911705Y-17079936D01*
X11911705Y-17079936D02*
X11902182Y-17089460D01*
X11902182Y-17089460D02*
X11883134Y-17098984D01*
X11883134Y-17098984D02*
X11864086Y-17098984D01*
X11864086Y-17098984D02*
X11845039Y-17089460D01*
X11845039Y-17089460D02*
X11835515Y-17079936D01*
X11835515Y-17079936D02*
X11825991Y-17060889D01*
X11825991Y-17060889D02*
X11816467Y-17022793D01*
X11816467Y-17022793D02*
X11816467Y-16975174D01*
X11816467Y-16975174D02*
X11825991Y-16937079D01*
X11825991Y-16937079D02*
X11835515Y-16918031D01*
X11835515Y-16918031D02*
X11845039Y-16908508D01*
X11845039Y-16908508D02*
X11864086Y-16898984D01*
X12006943Y-16918031D02*
X12016467Y-16908508D01*
X12016467Y-16908508D02*
X12035515Y-16898984D01*
X12035515Y-16898984D02*
X12083134Y-16898984D01*
X12083134Y-16898984D02*
X12102182Y-16908508D01*
X12102182Y-16908508D02*
X12111705Y-16918031D01*
X12111705Y-16918031D02*
X12121229Y-16937079D01*
X12121229Y-16937079D02*
X12121229Y-16956127D01*
X12121229Y-16956127D02*
X12111705Y-16984698D01*
X12111705Y-16984698D02*
X11997420Y-17098984D01*
X11997420Y-17098984D02*
X12121229Y-17098984D01*
X12245039Y-16898984D02*
X12264086Y-16898984D01*
X12264086Y-16898984D02*
X12283134Y-16908508D01*
X12283134Y-16908508D02*
X12292658Y-16918031D01*
X12292658Y-16918031D02*
X12302182Y-16937079D01*
X12302182Y-16937079D02*
X12311705Y-16975174D01*
X12311705Y-16975174D02*
X12311705Y-17022793D01*
X12311705Y-17022793D02*
X12302182Y-17060889D01*
X12302182Y-17060889D02*
X12292658Y-17079936D01*
X12292658Y-17079936D02*
X12283134Y-17089460D01*
X12283134Y-17089460D02*
X12264086Y-17098984D01*
X12264086Y-17098984D02*
X12245039Y-17098984D01*
X12245039Y-17098984D02*
X12225991Y-17089460D01*
X12225991Y-17089460D02*
X12216467Y-17079936D01*
X12216467Y-17079936D02*
X12206943Y-17060889D01*
X12206943Y-17060889D02*
X12197420Y-17022793D01*
X12197420Y-17022793D02*
X12197420Y-16975174D01*
X12197420Y-16975174D02*
X12206943Y-16937079D01*
X12206943Y-16937079D02*
X12216467Y-16918031D01*
X12216467Y-16918031D02*
X12225991Y-16908508D01*
X12225991Y-16908508D02*
X12245039Y-16898984D01*
X12397420Y-17098984D02*
X12397420Y-16965650D01*
X12397420Y-16984698D02*
X12406943Y-16975174D01*
X12406943Y-16975174D02*
X12425991Y-16965650D01*
X12425991Y-16965650D02*
X12454563Y-16965650D01*
X12454563Y-16965650D02*
X12473610Y-16975174D01*
X12473610Y-16975174D02*
X12483134Y-16994222D01*
X12483134Y-16994222D02*
X12483134Y-17098984D01*
X12483134Y-16994222D02*
X12492658Y-16975174D01*
X12492658Y-16975174D02*
X12511705Y-16965650D01*
X12511705Y-16965650D02*
X12540277Y-16965650D01*
X12540277Y-16965650D02*
X12559324Y-16975174D01*
X12559324Y-16975174D02*
X12568848Y-16994222D01*
X12568848Y-16994222D02*
X12568848Y-17098984D01*
X12664086Y-17098984D02*
X12664086Y-16965650D01*
X12664086Y-16984698D02*
X12673610Y-16975174D01*
X12673610Y-16975174D02*
X12692658Y-16965650D01*
X12692658Y-16965650D02*
X12721229Y-16965650D01*
X12721229Y-16965650D02*
X12740277Y-16975174D01*
X12740277Y-16975174D02*
X12749801Y-16994222D01*
X12749801Y-16994222D02*
X12749801Y-17098984D01*
X12749801Y-16994222D02*
X12759324Y-16975174D01*
X12759324Y-16975174D02*
X12778372Y-16965650D01*
X12778372Y-16965650D02*
X12806943Y-16965650D01*
X12806943Y-16965650D02*
X12825991Y-16975174D01*
X12825991Y-16975174D02*
X12835515Y-16994222D01*
X12835515Y-16994222D02*
X12835515Y-17098984D01*
X13225991Y-16889460D02*
X13054563Y-17146603D01*
X13483134Y-16898984D02*
X13502182Y-16898984D01*
X13502182Y-16898984D02*
X13521229Y-16908508D01*
X13521229Y-16908508D02*
X13530753Y-16918031D01*
X13530753Y-16918031D02*
X13540277Y-16937079D01*
X13540277Y-16937079D02*
X13549801Y-16975174D01*
X13549801Y-16975174D02*
X13549801Y-17022793D01*
X13549801Y-17022793D02*
X13540277Y-17060889D01*
X13540277Y-17060889D02*
X13530753Y-17079936D01*
X13530753Y-17079936D02*
X13521229Y-17089460D01*
X13521229Y-17089460D02*
X13502182Y-17098984D01*
X13502182Y-17098984D02*
X13483134Y-17098984D01*
X13483134Y-17098984D02*
X13464086Y-17089460D01*
X13464086Y-17089460D02*
X13454563Y-17079936D01*
X13454563Y-17079936D02*
X13445039Y-17060889D01*
X13445039Y-17060889D02*
X13435515Y-17022793D01*
X13435515Y-17022793D02*
X13435515Y-16975174D01*
X13435515Y-16975174D02*
X13445039Y-16937079D01*
X13445039Y-16937079D02*
X13454563Y-16918031D01*
X13454563Y-16918031D02*
X13464086Y-16908508D01*
X13464086Y-16908508D02*
X13483134Y-16898984D01*
X13635515Y-17079936D02*
X13645039Y-17089460D01*
X13645039Y-17089460D02*
X13635515Y-17098984D01*
X13635515Y-17098984D02*
X13625991Y-17089460D01*
X13625991Y-17089460D02*
X13635515Y-17079936D01*
X13635515Y-17079936D02*
X13635515Y-17098984D01*
X13768848Y-16898984D02*
X13787896Y-16898984D01*
X13787896Y-16898984D02*
X13806944Y-16908508D01*
X13806944Y-16908508D02*
X13816467Y-16918031D01*
X13816467Y-16918031D02*
X13825991Y-16937079D01*
X13825991Y-16937079D02*
X13835515Y-16975174D01*
X13835515Y-16975174D02*
X13835515Y-17022793D01*
X13835515Y-17022793D02*
X13825991Y-17060889D01*
X13825991Y-17060889D02*
X13816467Y-17079936D01*
X13816467Y-17079936D02*
X13806944Y-17089460D01*
X13806944Y-17089460D02*
X13787896Y-17098984D01*
X13787896Y-17098984D02*
X13768848Y-17098984D01*
X13768848Y-17098984D02*
X13749801Y-17089460D01*
X13749801Y-17089460D02*
X13740277Y-17079936D01*
X13740277Y-17079936D02*
X13730753Y-17060889D01*
X13730753Y-17060889D02*
X13721229Y-17022793D01*
X13721229Y-17022793D02*
X13721229Y-16975174D01*
X13721229Y-16975174D02*
X13730753Y-16937079D01*
X13730753Y-16937079D02*
X13740277Y-16918031D01*
X13740277Y-16918031D02*
X13749801Y-16908508D01*
X13749801Y-16908508D02*
X13768848Y-16898984D01*
X14006944Y-16965650D02*
X14006944Y-17098984D01*
X13959325Y-16889460D02*
X13911706Y-17032317D01*
X13911706Y-17032317D02*
X14035515Y-17032317D01*
X14149801Y-16898984D02*
X14168848Y-16898984D01*
X14168848Y-16898984D02*
X14187896Y-16908508D01*
X14187896Y-16908508D02*
X14197420Y-16918031D01*
X14197420Y-16918031D02*
X14206944Y-16937079D01*
X14206944Y-16937079D02*
X14216467Y-16975174D01*
X14216467Y-16975174D02*
X14216467Y-17022793D01*
X14216467Y-17022793D02*
X14206944Y-17060889D01*
X14206944Y-17060889D02*
X14197420Y-17079936D01*
X14197420Y-17079936D02*
X14187896Y-17089460D01*
X14187896Y-17089460D02*
X14168848Y-17098984D01*
X14168848Y-17098984D02*
X14149801Y-17098984D01*
X14149801Y-17098984D02*
X14130753Y-17089460D01*
X14130753Y-17089460D02*
X14121229Y-17079936D01*
X14121229Y-17079936D02*
X14111706Y-17060889D01*
X14111706Y-17060889D02*
X14102182Y-17022793D01*
X14102182Y-17022793D02*
X14102182Y-16975174D01*
X14102182Y-16975174D02*
X14111706Y-16937079D01*
X14111706Y-16937079D02*
X14121229Y-16918031D01*
X14121229Y-16918031D02*
X14130753Y-16908508D01*
X14130753Y-16908508D02*
X14149801Y-16898984D01*
X14292658Y-16918031D02*
X14302182Y-16908508D01*
X14302182Y-16908508D02*
X14321229Y-16898984D01*
X14321229Y-16898984D02*
X14368848Y-16898984D01*
X14368848Y-16898984D02*
X14387896Y-16908508D01*
X14387896Y-16908508D02*
X14397420Y-16918031D01*
X14397420Y-16918031D02*
X14406944Y-16937079D01*
X14406944Y-16937079D02*
X14406944Y-16956127D01*
X14406944Y-16956127D02*
X14397420Y-16984698D01*
X14397420Y-16984698D02*
X14283134Y-17098984D01*
X14283134Y-17098984D02*
X14406944Y-17098984D01*
X14483134Y-16898984D02*
X14483134Y-16937079D01*
X14559325Y-16898984D02*
X14559325Y-16937079D01*
X14854563Y-17175174D02*
X14845039Y-17165650D01*
X14845039Y-17165650D02*
X14825991Y-17137079D01*
X14825991Y-17137079D02*
X14816468Y-17118031D01*
X14816468Y-17118031D02*
X14806944Y-17089460D01*
X14806944Y-17089460D02*
X14797420Y-17041841D01*
X14797420Y-17041841D02*
X14797420Y-17003746D01*
X14797420Y-17003746D02*
X14806944Y-16956127D01*
X14806944Y-16956127D02*
X14816468Y-16927555D01*
X14816468Y-16927555D02*
X14825991Y-16908508D01*
X14825991Y-16908508D02*
X14845039Y-16879936D01*
X14845039Y-16879936D02*
X14854563Y-16870412D01*
X15016468Y-16965650D02*
X15016468Y-17098984D01*
X14968848Y-16889460D02*
X14921229Y-17032317D01*
X14921229Y-17032317D02*
X15045039Y-17032317D01*
X15273610Y-17098984D02*
X15273610Y-16898984D01*
X15359325Y-17098984D02*
X15359325Y-16994222D01*
X15359325Y-16994222D02*
X15349801Y-16975174D01*
X15349801Y-16975174D02*
X15330753Y-16965650D01*
X15330753Y-16965650D02*
X15302182Y-16965650D01*
X15302182Y-16965650D02*
X15283134Y-16975174D01*
X15283134Y-16975174D02*
X15273610Y-16984698D01*
X15483134Y-17098984D02*
X15464087Y-17089460D01*
X15464087Y-17089460D02*
X15454563Y-17079936D01*
X15454563Y-17079936D02*
X15445039Y-17060889D01*
X15445039Y-17060889D02*
X15445039Y-17003746D01*
X15445039Y-17003746D02*
X15454563Y-16984698D01*
X15454563Y-16984698D02*
X15464087Y-16975174D01*
X15464087Y-16975174D02*
X15483134Y-16965650D01*
X15483134Y-16965650D02*
X15511706Y-16965650D01*
X15511706Y-16965650D02*
X15530753Y-16975174D01*
X15530753Y-16975174D02*
X15540277Y-16984698D01*
X15540277Y-16984698D02*
X15549801Y-17003746D01*
X15549801Y-17003746D02*
X15549801Y-17060889D01*
X15549801Y-17060889D02*
X15540277Y-17079936D01*
X15540277Y-17079936D02*
X15530753Y-17089460D01*
X15530753Y-17089460D02*
X15511706Y-17098984D01*
X15511706Y-17098984D02*
X15483134Y-17098984D01*
X15664087Y-17098984D02*
X15645039Y-17089460D01*
X15645039Y-17089460D02*
X15635515Y-17070412D01*
X15635515Y-17070412D02*
X15635515Y-16898984D01*
X15816468Y-17089460D02*
X15797420Y-17098984D01*
X15797420Y-17098984D02*
X15759325Y-17098984D01*
X15759325Y-17098984D02*
X15740277Y-17089460D01*
X15740277Y-17089460D02*
X15730753Y-17070412D01*
X15730753Y-17070412D02*
X15730753Y-16994222D01*
X15730753Y-16994222D02*
X15740277Y-16975174D01*
X15740277Y-16975174D02*
X15759325Y-16965650D01*
X15759325Y-16965650D02*
X15797420Y-16965650D01*
X15797420Y-16965650D02*
X15816468Y-16975174D01*
X15816468Y-16975174D02*
X15825991Y-16994222D01*
X15825991Y-16994222D02*
X15825991Y-17013270D01*
X15825991Y-17013270D02*
X15730753Y-17032317D01*
X15902182Y-17089460D02*
X15921230Y-17098984D01*
X15921230Y-17098984D02*
X15959325Y-17098984D01*
X15959325Y-17098984D02*
X15978372Y-17089460D01*
X15978372Y-17089460D02*
X15987896Y-17070412D01*
X15987896Y-17070412D02*
X15987896Y-17060889D01*
X15987896Y-17060889D02*
X15978372Y-17041841D01*
X15978372Y-17041841D02*
X15959325Y-17032317D01*
X15959325Y-17032317D02*
X15930753Y-17032317D01*
X15930753Y-17032317D02*
X15911706Y-17022793D01*
X15911706Y-17022793D02*
X15902182Y-17003746D01*
X15902182Y-17003746D02*
X15902182Y-16994222D01*
X15902182Y-16994222D02*
X15911706Y-16975174D01*
X15911706Y-16975174D02*
X15930753Y-16965650D01*
X15930753Y-16965650D02*
X15959325Y-16965650D01*
X15959325Y-16965650D02*
X15978372Y-16975174D01*
X16054563Y-17175174D02*
X16064087Y-17165650D01*
X16064087Y-17165650D02*
X16083134Y-17137079D01*
X16083134Y-17137079D02*
X16092658Y-17118031D01*
X16092658Y-17118031D02*
X16102182Y-17089460D01*
X16102182Y-17089460D02*
X16111706Y-17041841D01*
X16111706Y-17041841D02*
X16111706Y-17003746D01*
X16111706Y-17003746D02*
X16102182Y-16956127D01*
X16102182Y-16956127D02*
X16092658Y-16927555D01*
X16092658Y-16927555D02*
X16083134Y-16908508D01*
X16083134Y-16908508D02*
X16064087Y-16879936D01*
X16064087Y-16879936D02*
X16054563Y-16870412D01*
D14*
X11169500Y-17216500D02*
X11279500Y-17326500D01*
X11279500Y-17216500D02*
X11169500Y-17326500D01*
X11224500Y-17326500D02*
X11279500Y-17271500D01*
X11224500Y-17216500D01*
X11169500Y-17271500D01*
X11224500Y-17326500D01*
D11*
X11645039Y-17362984D02*
X11530753Y-17362984D01*
X11587896Y-17362984D02*
X11587896Y-17162984D01*
X11587896Y-17162984D02*
X11568848Y-17191555D01*
X11568848Y-17191555D02*
X11549801Y-17210603D01*
X11549801Y-17210603D02*
X11530753Y-17220127D01*
X11730753Y-17343936D02*
X11740277Y-17353460D01*
X11740277Y-17353460D02*
X11730753Y-17362984D01*
X11730753Y-17362984D02*
X11721229Y-17353460D01*
X11721229Y-17353460D02*
X11730753Y-17343936D01*
X11730753Y-17343936D02*
X11730753Y-17362984D01*
X11930753Y-17362984D02*
X11816467Y-17362984D01*
X11873610Y-17362984D02*
X11873610Y-17162984D01*
X11873610Y-17162984D02*
X11854562Y-17191555D01*
X11854562Y-17191555D02*
X11835515Y-17210603D01*
X11835515Y-17210603D02*
X11816467Y-17220127D01*
X12054562Y-17162984D02*
X12073610Y-17162984D01*
X12073610Y-17162984D02*
X12092658Y-17172508D01*
X12092658Y-17172508D02*
X12102182Y-17182031D01*
X12102182Y-17182031D02*
X12111705Y-17201079D01*
X12111705Y-17201079D02*
X12121229Y-17239174D01*
X12121229Y-17239174D02*
X12121229Y-17286793D01*
X12121229Y-17286793D02*
X12111705Y-17324889D01*
X12111705Y-17324889D02*
X12102182Y-17343936D01*
X12102182Y-17343936D02*
X12092658Y-17353460D01*
X12092658Y-17353460D02*
X12073610Y-17362984D01*
X12073610Y-17362984D02*
X12054562Y-17362984D01*
X12054562Y-17362984D02*
X12035515Y-17353460D01*
X12035515Y-17353460D02*
X12025991Y-17343936D01*
X12025991Y-17343936D02*
X12016467Y-17324889D01*
X12016467Y-17324889D02*
X12006943Y-17286793D01*
X12006943Y-17286793D02*
X12006943Y-17239174D01*
X12006943Y-17239174D02*
X12016467Y-17201079D01*
X12016467Y-17201079D02*
X12025991Y-17182031D01*
X12025991Y-17182031D02*
X12035515Y-17172508D01*
X12035515Y-17172508D02*
X12054562Y-17162984D01*
X12245039Y-17162984D02*
X12264086Y-17162984D01*
X12264086Y-17162984D02*
X12283134Y-17172508D01*
X12283134Y-17172508D02*
X12292658Y-17182031D01*
X12292658Y-17182031D02*
X12302182Y-17201079D01*
X12302182Y-17201079D02*
X12311705Y-17239174D01*
X12311705Y-17239174D02*
X12311705Y-17286793D01*
X12311705Y-17286793D02*
X12302182Y-17324889D01*
X12302182Y-17324889D02*
X12292658Y-17343936D01*
X12292658Y-17343936D02*
X12283134Y-17353460D01*
X12283134Y-17353460D02*
X12264086Y-17362984D01*
X12264086Y-17362984D02*
X12245039Y-17362984D01*
X12245039Y-17362984D02*
X12225991Y-17353460D01*
X12225991Y-17353460D02*
X12216467Y-17343936D01*
X12216467Y-17343936D02*
X12206943Y-17324889D01*
X12206943Y-17324889D02*
X12197420Y-17286793D01*
X12197420Y-17286793D02*
X12197420Y-17239174D01*
X12197420Y-17239174D02*
X12206943Y-17201079D01*
X12206943Y-17201079D02*
X12216467Y-17182031D01*
X12216467Y-17182031D02*
X12225991Y-17172508D01*
X12225991Y-17172508D02*
X12245039Y-17162984D01*
X12397420Y-17362984D02*
X12397420Y-17229650D01*
X12397420Y-17248698D02*
X12406943Y-17239174D01*
X12406943Y-17239174D02*
X12425991Y-17229650D01*
X12425991Y-17229650D02*
X12454563Y-17229650D01*
X12454563Y-17229650D02*
X12473610Y-17239174D01*
X12473610Y-17239174D02*
X12483134Y-17258222D01*
X12483134Y-17258222D02*
X12483134Y-17362984D01*
X12483134Y-17258222D02*
X12492658Y-17239174D01*
X12492658Y-17239174D02*
X12511705Y-17229650D01*
X12511705Y-17229650D02*
X12540277Y-17229650D01*
X12540277Y-17229650D02*
X12559324Y-17239174D01*
X12559324Y-17239174D02*
X12568848Y-17258222D01*
X12568848Y-17258222D02*
X12568848Y-17362984D01*
X12664086Y-17362984D02*
X12664086Y-17229650D01*
X12664086Y-17248698D02*
X12673610Y-17239174D01*
X12673610Y-17239174D02*
X12692658Y-17229650D01*
X12692658Y-17229650D02*
X12721229Y-17229650D01*
X12721229Y-17229650D02*
X12740277Y-17239174D01*
X12740277Y-17239174D02*
X12749801Y-17258222D01*
X12749801Y-17258222D02*
X12749801Y-17362984D01*
X12749801Y-17258222D02*
X12759324Y-17239174D01*
X12759324Y-17239174D02*
X12778372Y-17229650D01*
X12778372Y-17229650D02*
X12806943Y-17229650D01*
X12806943Y-17229650D02*
X12825991Y-17239174D01*
X12825991Y-17239174D02*
X12835515Y-17258222D01*
X12835515Y-17258222D02*
X12835515Y-17362984D01*
X13225991Y-17153460D02*
X13054563Y-17410603D01*
X13483134Y-17162984D02*
X13502182Y-17162984D01*
X13502182Y-17162984D02*
X13521229Y-17172508D01*
X13521229Y-17172508D02*
X13530753Y-17182031D01*
X13530753Y-17182031D02*
X13540277Y-17201079D01*
X13540277Y-17201079D02*
X13549801Y-17239174D01*
X13549801Y-17239174D02*
X13549801Y-17286793D01*
X13549801Y-17286793D02*
X13540277Y-17324889D01*
X13540277Y-17324889D02*
X13530753Y-17343936D01*
X13530753Y-17343936D02*
X13521229Y-17353460D01*
X13521229Y-17353460D02*
X13502182Y-17362984D01*
X13502182Y-17362984D02*
X13483134Y-17362984D01*
X13483134Y-17362984D02*
X13464086Y-17353460D01*
X13464086Y-17353460D02*
X13454563Y-17343936D01*
X13454563Y-17343936D02*
X13445039Y-17324889D01*
X13445039Y-17324889D02*
X13435515Y-17286793D01*
X13435515Y-17286793D02*
X13435515Y-17239174D01*
X13435515Y-17239174D02*
X13445039Y-17201079D01*
X13445039Y-17201079D02*
X13454563Y-17182031D01*
X13454563Y-17182031D02*
X13464086Y-17172508D01*
X13464086Y-17172508D02*
X13483134Y-17162984D01*
X13635515Y-17343936D02*
X13645039Y-17353460D01*
X13645039Y-17353460D02*
X13635515Y-17362984D01*
X13635515Y-17362984D02*
X13625991Y-17353460D01*
X13625991Y-17353460D02*
X13635515Y-17343936D01*
X13635515Y-17343936D02*
X13635515Y-17362984D01*
X13768848Y-17162984D02*
X13787896Y-17162984D01*
X13787896Y-17162984D02*
X13806944Y-17172508D01*
X13806944Y-17172508D02*
X13816467Y-17182031D01*
X13816467Y-17182031D02*
X13825991Y-17201079D01*
X13825991Y-17201079D02*
X13835515Y-17239174D01*
X13835515Y-17239174D02*
X13835515Y-17286793D01*
X13835515Y-17286793D02*
X13825991Y-17324889D01*
X13825991Y-17324889D02*
X13816467Y-17343936D01*
X13816467Y-17343936D02*
X13806944Y-17353460D01*
X13806944Y-17353460D02*
X13787896Y-17362984D01*
X13787896Y-17362984D02*
X13768848Y-17362984D01*
X13768848Y-17362984D02*
X13749801Y-17353460D01*
X13749801Y-17353460D02*
X13740277Y-17343936D01*
X13740277Y-17343936D02*
X13730753Y-17324889D01*
X13730753Y-17324889D02*
X13721229Y-17286793D01*
X13721229Y-17286793D02*
X13721229Y-17239174D01*
X13721229Y-17239174D02*
X13730753Y-17201079D01*
X13730753Y-17201079D02*
X13740277Y-17182031D01*
X13740277Y-17182031D02*
X13749801Y-17172508D01*
X13749801Y-17172508D02*
X13768848Y-17162984D01*
X14006944Y-17229650D02*
X14006944Y-17362984D01*
X13959325Y-17153460D02*
X13911706Y-17296317D01*
X13911706Y-17296317D02*
X14035515Y-17296317D01*
X14092658Y-17162984D02*
X14216467Y-17162984D01*
X14216467Y-17162984D02*
X14149801Y-17239174D01*
X14149801Y-17239174D02*
X14178372Y-17239174D01*
X14178372Y-17239174D02*
X14197420Y-17248698D01*
X14197420Y-17248698D02*
X14206944Y-17258222D01*
X14206944Y-17258222D02*
X14216467Y-17277270D01*
X14216467Y-17277270D02*
X14216467Y-17324889D01*
X14216467Y-17324889D02*
X14206944Y-17343936D01*
X14206944Y-17343936D02*
X14197420Y-17353460D01*
X14197420Y-17353460D02*
X14178372Y-17362984D01*
X14178372Y-17362984D02*
X14121229Y-17362984D01*
X14121229Y-17362984D02*
X14102182Y-17353460D01*
X14102182Y-17353460D02*
X14092658Y-17343936D01*
X14283134Y-17162984D02*
X14406944Y-17162984D01*
X14406944Y-17162984D02*
X14340277Y-17239174D01*
X14340277Y-17239174D02*
X14368848Y-17239174D01*
X14368848Y-17239174D02*
X14387896Y-17248698D01*
X14387896Y-17248698D02*
X14397420Y-17258222D01*
X14397420Y-17258222D02*
X14406944Y-17277270D01*
X14406944Y-17277270D02*
X14406944Y-17324889D01*
X14406944Y-17324889D02*
X14397420Y-17343936D01*
X14397420Y-17343936D02*
X14387896Y-17353460D01*
X14387896Y-17353460D02*
X14368848Y-17362984D01*
X14368848Y-17362984D02*
X14311706Y-17362984D01*
X14311706Y-17362984D02*
X14292658Y-17353460D01*
X14292658Y-17353460D02*
X14283134Y-17343936D01*
X14483134Y-17162984D02*
X14483134Y-17201079D01*
X14559325Y-17162984D02*
X14559325Y-17201079D01*
X14854563Y-17439174D02*
X14845039Y-17429650D01*
X14845039Y-17429650D02*
X14825991Y-17401079D01*
X14825991Y-17401079D02*
X14816468Y-17382031D01*
X14816468Y-17382031D02*
X14806944Y-17353460D01*
X14806944Y-17353460D02*
X14797420Y-17305841D01*
X14797420Y-17305841D02*
X14797420Y-17267746D01*
X14797420Y-17267746D02*
X14806944Y-17220127D01*
X14806944Y-17220127D02*
X14816468Y-17191555D01*
X14816468Y-17191555D02*
X14825991Y-17172508D01*
X14825991Y-17172508D02*
X14845039Y-17143936D01*
X14845039Y-17143936D02*
X14854563Y-17134412D01*
X15025991Y-17162984D02*
X14930753Y-17162984D01*
X14930753Y-17162984D02*
X14921229Y-17258222D01*
X14921229Y-17258222D02*
X14930753Y-17248698D01*
X14930753Y-17248698D02*
X14949801Y-17239174D01*
X14949801Y-17239174D02*
X14997420Y-17239174D01*
X14997420Y-17239174D02*
X15016468Y-17248698D01*
X15016468Y-17248698D02*
X15025991Y-17258222D01*
X15025991Y-17258222D02*
X15035515Y-17277270D01*
X15035515Y-17277270D02*
X15035515Y-17324889D01*
X15035515Y-17324889D02*
X15025991Y-17343936D01*
X15025991Y-17343936D02*
X15016468Y-17353460D01*
X15016468Y-17353460D02*
X14997420Y-17362984D01*
X14997420Y-17362984D02*
X14949801Y-17362984D01*
X14949801Y-17362984D02*
X14930753Y-17353460D01*
X14930753Y-17353460D02*
X14921229Y-17343936D01*
X15130753Y-17362984D02*
X15168848Y-17362984D01*
X15168848Y-17362984D02*
X15187896Y-17353460D01*
X15187896Y-17353460D02*
X15197420Y-17343936D01*
X15197420Y-17343936D02*
X15216468Y-17315365D01*
X15216468Y-17315365D02*
X15225991Y-17277270D01*
X15225991Y-17277270D02*
X15225991Y-17201079D01*
X15225991Y-17201079D02*
X15216468Y-17182031D01*
X15216468Y-17182031D02*
X15206944Y-17172508D01*
X15206944Y-17172508D02*
X15187896Y-17162984D01*
X15187896Y-17162984D02*
X15149801Y-17162984D01*
X15149801Y-17162984D02*
X15130753Y-17172508D01*
X15130753Y-17172508D02*
X15121229Y-17182031D01*
X15121229Y-17182031D02*
X15111706Y-17201079D01*
X15111706Y-17201079D02*
X15111706Y-17248698D01*
X15111706Y-17248698D02*
X15121229Y-17267746D01*
X15121229Y-17267746D02*
X15130753Y-17277270D01*
X15130753Y-17277270D02*
X15149801Y-17286793D01*
X15149801Y-17286793D02*
X15187896Y-17286793D01*
X15187896Y-17286793D02*
X15206944Y-17277270D01*
X15206944Y-17277270D02*
X15216468Y-17267746D01*
X15216468Y-17267746D02*
X15225991Y-17248698D01*
X15464087Y-17362984D02*
X15464087Y-17162984D01*
X15549801Y-17362984D02*
X15549801Y-17258222D01*
X15549801Y-17258222D02*
X15540277Y-17239174D01*
X15540277Y-17239174D02*
X15521230Y-17229650D01*
X15521230Y-17229650D02*
X15492658Y-17229650D01*
X15492658Y-17229650D02*
X15473610Y-17239174D01*
X15473610Y-17239174D02*
X15464087Y-17248698D01*
X15673610Y-17362984D02*
X15654563Y-17353460D01*
X15654563Y-17353460D02*
X15645039Y-17343936D01*
X15645039Y-17343936D02*
X15635515Y-17324889D01*
X15635515Y-17324889D02*
X15635515Y-17267746D01*
X15635515Y-17267746D02*
X15645039Y-17248698D01*
X15645039Y-17248698D02*
X15654563Y-17239174D01*
X15654563Y-17239174D02*
X15673610Y-17229650D01*
X15673610Y-17229650D02*
X15702182Y-17229650D01*
X15702182Y-17229650D02*
X15721230Y-17239174D01*
X15721230Y-17239174D02*
X15730753Y-17248698D01*
X15730753Y-17248698D02*
X15740277Y-17267746D01*
X15740277Y-17267746D02*
X15740277Y-17324889D01*
X15740277Y-17324889D02*
X15730753Y-17343936D01*
X15730753Y-17343936D02*
X15721230Y-17353460D01*
X15721230Y-17353460D02*
X15702182Y-17362984D01*
X15702182Y-17362984D02*
X15673610Y-17362984D01*
X15854563Y-17362984D02*
X15835515Y-17353460D01*
X15835515Y-17353460D02*
X15825991Y-17334412D01*
X15825991Y-17334412D02*
X15825991Y-17162984D01*
X16006944Y-17353460D02*
X15987896Y-17362984D01*
X15987896Y-17362984D02*
X15949801Y-17362984D01*
X15949801Y-17362984D02*
X15930753Y-17353460D01*
X15930753Y-17353460D02*
X15921230Y-17334412D01*
X15921230Y-17334412D02*
X15921230Y-17258222D01*
X15921230Y-17258222D02*
X15930753Y-17239174D01*
X15930753Y-17239174D02*
X15949801Y-17229650D01*
X15949801Y-17229650D02*
X15987896Y-17229650D01*
X15987896Y-17229650D02*
X16006944Y-17239174D01*
X16006944Y-17239174D02*
X16016468Y-17258222D01*
X16016468Y-17258222D02*
X16016468Y-17277270D01*
X16016468Y-17277270D02*
X15921230Y-17296317D01*
X16092658Y-17353460D02*
X16111706Y-17362984D01*
X16111706Y-17362984D02*
X16149801Y-17362984D01*
X16149801Y-17362984D02*
X16168849Y-17353460D01*
X16168849Y-17353460D02*
X16178372Y-17334412D01*
X16178372Y-17334412D02*
X16178372Y-17324889D01*
X16178372Y-17324889D02*
X16168849Y-17305841D01*
X16168849Y-17305841D02*
X16149801Y-17296317D01*
X16149801Y-17296317D02*
X16121230Y-17296317D01*
X16121230Y-17296317D02*
X16102182Y-17286793D01*
X16102182Y-17286793D02*
X16092658Y-17267746D01*
X16092658Y-17267746D02*
X16092658Y-17258222D01*
X16092658Y-17258222D02*
X16102182Y-17239174D01*
X16102182Y-17239174D02*
X16121230Y-17229650D01*
X16121230Y-17229650D02*
X16149801Y-17229650D01*
X16149801Y-17229650D02*
X16168849Y-17239174D01*
X16245039Y-17439174D02*
X16254563Y-17429650D01*
X16254563Y-17429650D02*
X16273611Y-17401079D01*
X16273611Y-17401079D02*
X16283134Y-17382031D01*
X16283134Y-17382031D02*
X16292658Y-17353460D01*
X16292658Y-17353460D02*
X16302182Y-17305841D01*
X16302182Y-17305841D02*
X16302182Y-17267746D01*
X16302182Y-17267746D02*
X16292658Y-17220127D01*
X16292658Y-17220127D02*
X16283134Y-17191555D01*
X16283134Y-17191555D02*
X16273611Y-17172508D01*
X16273611Y-17172508D02*
X16254563Y-17143936D01*
X16254563Y-17143936D02*
X16245039Y-17134412D01*
D15*
X11214500Y-17470500D02*
X11214500Y-17600500D01*
X11149500Y-17535500D02*
X11279500Y-17535500D01*
X11279500Y-17535500D02*
G75*
G02*
X11149500Y-17535500I-65000J0D01*
G01*
X11149500Y-17535500D02*
G75*
G02*
X11279500Y-17535500I65000J0D01*
G01*
D11*
X11645039Y-17626984D02*
X11530753Y-17626984D01*
X11587896Y-17626984D02*
X11587896Y-17426984D01*
X11587896Y-17426984D02*
X11568848Y-17455555D01*
X11568848Y-17455555D02*
X11549801Y-17474603D01*
X11549801Y-17474603D02*
X11530753Y-17484127D01*
X11730753Y-17607936D02*
X11740277Y-17617460D01*
X11740277Y-17617460D02*
X11730753Y-17626984D01*
X11730753Y-17626984D02*
X11721229Y-17617460D01*
X11721229Y-17617460D02*
X11730753Y-17607936D01*
X11730753Y-17607936D02*
X11730753Y-17626984D01*
X11806943Y-17426984D02*
X11930753Y-17426984D01*
X11930753Y-17426984D02*
X11864086Y-17503174D01*
X11864086Y-17503174D02*
X11892658Y-17503174D01*
X11892658Y-17503174D02*
X11911705Y-17512698D01*
X11911705Y-17512698D02*
X11921229Y-17522222D01*
X11921229Y-17522222D02*
X11930753Y-17541270D01*
X11930753Y-17541270D02*
X11930753Y-17588889D01*
X11930753Y-17588889D02*
X11921229Y-17607936D01*
X11921229Y-17607936D02*
X11911705Y-17617460D01*
X11911705Y-17617460D02*
X11892658Y-17626984D01*
X11892658Y-17626984D02*
X11835515Y-17626984D01*
X11835515Y-17626984D02*
X11816467Y-17617460D01*
X11816467Y-17617460D02*
X11806943Y-17607936D01*
X12054562Y-17426984D02*
X12073610Y-17426984D01*
X12073610Y-17426984D02*
X12092658Y-17436508D01*
X12092658Y-17436508D02*
X12102182Y-17446031D01*
X12102182Y-17446031D02*
X12111705Y-17465079D01*
X12111705Y-17465079D02*
X12121229Y-17503174D01*
X12121229Y-17503174D02*
X12121229Y-17550793D01*
X12121229Y-17550793D02*
X12111705Y-17588889D01*
X12111705Y-17588889D02*
X12102182Y-17607936D01*
X12102182Y-17607936D02*
X12092658Y-17617460D01*
X12092658Y-17617460D02*
X12073610Y-17626984D01*
X12073610Y-17626984D02*
X12054562Y-17626984D01*
X12054562Y-17626984D02*
X12035515Y-17617460D01*
X12035515Y-17617460D02*
X12025991Y-17607936D01*
X12025991Y-17607936D02*
X12016467Y-17588889D01*
X12016467Y-17588889D02*
X12006943Y-17550793D01*
X12006943Y-17550793D02*
X12006943Y-17503174D01*
X12006943Y-17503174D02*
X12016467Y-17465079D01*
X12016467Y-17465079D02*
X12025991Y-17446031D01*
X12025991Y-17446031D02*
X12035515Y-17436508D01*
X12035515Y-17436508D02*
X12054562Y-17426984D01*
X12245039Y-17426984D02*
X12264086Y-17426984D01*
X12264086Y-17426984D02*
X12283134Y-17436508D01*
X12283134Y-17436508D02*
X12292658Y-17446031D01*
X12292658Y-17446031D02*
X12302182Y-17465079D01*
X12302182Y-17465079D02*
X12311705Y-17503174D01*
X12311705Y-17503174D02*
X12311705Y-17550793D01*
X12311705Y-17550793D02*
X12302182Y-17588889D01*
X12302182Y-17588889D02*
X12292658Y-17607936D01*
X12292658Y-17607936D02*
X12283134Y-17617460D01*
X12283134Y-17617460D02*
X12264086Y-17626984D01*
X12264086Y-17626984D02*
X12245039Y-17626984D01*
X12245039Y-17626984D02*
X12225991Y-17617460D01*
X12225991Y-17617460D02*
X12216467Y-17607936D01*
X12216467Y-17607936D02*
X12206943Y-17588889D01*
X12206943Y-17588889D02*
X12197420Y-17550793D01*
X12197420Y-17550793D02*
X12197420Y-17503174D01*
X12197420Y-17503174D02*
X12206943Y-17465079D01*
X12206943Y-17465079D02*
X12216467Y-17446031D01*
X12216467Y-17446031D02*
X12225991Y-17436508D01*
X12225991Y-17436508D02*
X12245039Y-17426984D01*
X12397420Y-17626984D02*
X12397420Y-17493650D01*
X12397420Y-17512698D02*
X12406943Y-17503174D01*
X12406943Y-17503174D02*
X12425991Y-17493650D01*
X12425991Y-17493650D02*
X12454563Y-17493650D01*
X12454563Y-17493650D02*
X12473610Y-17503174D01*
X12473610Y-17503174D02*
X12483134Y-17522222D01*
X12483134Y-17522222D02*
X12483134Y-17626984D01*
X12483134Y-17522222D02*
X12492658Y-17503174D01*
X12492658Y-17503174D02*
X12511705Y-17493650D01*
X12511705Y-17493650D02*
X12540277Y-17493650D01*
X12540277Y-17493650D02*
X12559324Y-17503174D01*
X12559324Y-17503174D02*
X12568848Y-17522222D01*
X12568848Y-17522222D02*
X12568848Y-17626984D01*
X12664086Y-17626984D02*
X12664086Y-17493650D01*
X12664086Y-17512698D02*
X12673610Y-17503174D01*
X12673610Y-17503174D02*
X12692658Y-17493650D01*
X12692658Y-17493650D02*
X12721229Y-17493650D01*
X12721229Y-17493650D02*
X12740277Y-17503174D01*
X12740277Y-17503174D02*
X12749801Y-17522222D01*
X12749801Y-17522222D02*
X12749801Y-17626984D01*
X12749801Y-17522222D02*
X12759324Y-17503174D01*
X12759324Y-17503174D02*
X12778372Y-17493650D01*
X12778372Y-17493650D02*
X12806943Y-17493650D01*
X12806943Y-17493650D02*
X12825991Y-17503174D01*
X12825991Y-17503174D02*
X12835515Y-17522222D01*
X12835515Y-17522222D02*
X12835515Y-17626984D01*
X13225991Y-17417460D02*
X13054563Y-17674603D01*
X13483134Y-17426984D02*
X13502182Y-17426984D01*
X13502182Y-17426984D02*
X13521229Y-17436508D01*
X13521229Y-17436508D02*
X13530753Y-17446031D01*
X13530753Y-17446031D02*
X13540277Y-17465079D01*
X13540277Y-17465079D02*
X13549801Y-17503174D01*
X13549801Y-17503174D02*
X13549801Y-17550793D01*
X13549801Y-17550793D02*
X13540277Y-17588889D01*
X13540277Y-17588889D02*
X13530753Y-17607936D01*
X13530753Y-17607936D02*
X13521229Y-17617460D01*
X13521229Y-17617460D02*
X13502182Y-17626984D01*
X13502182Y-17626984D02*
X13483134Y-17626984D01*
X13483134Y-17626984D02*
X13464086Y-17617460D01*
X13464086Y-17617460D02*
X13454563Y-17607936D01*
X13454563Y-17607936D02*
X13445039Y-17588889D01*
X13445039Y-17588889D02*
X13435515Y-17550793D01*
X13435515Y-17550793D02*
X13435515Y-17503174D01*
X13435515Y-17503174D02*
X13445039Y-17465079D01*
X13445039Y-17465079D02*
X13454563Y-17446031D01*
X13454563Y-17446031D02*
X13464086Y-17436508D01*
X13464086Y-17436508D02*
X13483134Y-17426984D01*
X13635515Y-17607936D02*
X13645039Y-17617460D01*
X13645039Y-17617460D02*
X13635515Y-17626984D01*
X13635515Y-17626984D02*
X13625991Y-17617460D01*
X13625991Y-17617460D02*
X13635515Y-17607936D01*
X13635515Y-17607936D02*
X13635515Y-17626984D01*
X13768848Y-17426984D02*
X13787896Y-17426984D01*
X13787896Y-17426984D02*
X13806944Y-17436508D01*
X13806944Y-17436508D02*
X13816467Y-17446031D01*
X13816467Y-17446031D02*
X13825991Y-17465079D01*
X13825991Y-17465079D02*
X13835515Y-17503174D01*
X13835515Y-17503174D02*
X13835515Y-17550793D01*
X13835515Y-17550793D02*
X13825991Y-17588889D01*
X13825991Y-17588889D02*
X13816467Y-17607936D01*
X13816467Y-17607936D02*
X13806944Y-17617460D01*
X13806944Y-17617460D02*
X13787896Y-17626984D01*
X13787896Y-17626984D02*
X13768848Y-17626984D01*
X13768848Y-17626984D02*
X13749801Y-17617460D01*
X13749801Y-17617460D02*
X13740277Y-17607936D01*
X13740277Y-17607936D02*
X13730753Y-17588889D01*
X13730753Y-17588889D02*
X13721229Y-17550793D01*
X13721229Y-17550793D02*
X13721229Y-17503174D01*
X13721229Y-17503174D02*
X13730753Y-17465079D01*
X13730753Y-17465079D02*
X13740277Y-17446031D01*
X13740277Y-17446031D02*
X13749801Y-17436508D01*
X13749801Y-17436508D02*
X13768848Y-17426984D01*
X14016467Y-17426984D02*
X13921229Y-17426984D01*
X13921229Y-17426984D02*
X13911706Y-17522222D01*
X13911706Y-17522222D02*
X13921229Y-17512698D01*
X13921229Y-17512698D02*
X13940277Y-17503174D01*
X13940277Y-17503174D02*
X13987896Y-17503174D01*
X13987896Y-17503174D02*
X14006944Y-17512698D01*
X14006944Y-17512698D02*
X14016467Y-17522222D01*
X14016467Y-17522222D02*
X14025991Y-17541270D01*
X14025991Y-17541270D02*
X14025991Y-17588889D01*
X14025991Y-17588889D02*
X14016467Y-17607936D01*
X14016467Y-17607936D02*
X14006944Y-17617460D01*
X14006944Y-17617460D02*
X13987896Y-17626984D01*
X13987896Y-17626984D02*
X13940277Y-17626984D01*
X13940277Y-17626984D02*
X13921229Y-17617460D01*
X13921229Y-17617460D02*
X13911706Y-17607936D01*
X14216467Y-17626984D02*
X14102182Y-17626984D01*
X14159325Y-17626984D02*
X14159325Y-17426984D01*
X14159325Y-17426984D02*
X14140277Y-17455555D01*
X14140277Y-17455555D02*
X14121229Y-17474603D01*
X14121229Y-17474603D02*
X14102182Y-17484127D01*
X14292658Y-17446031D02*
X14302182Y-17436508D01*
X14302182Y-17436508D02*
X14321229Y-17426984D01*
X14321229Y-17426984D02*
X14368848Y-17426984D01*
X14368848Y-17426984D02*
X14387896Y-17436508D01*
X14387896Y-17436508D02*
X14397420Y-17446031D01*
X14397420Y-17446031D02*
X14406944Y-17465079D01*
X14406944Y-17465079D02*
X14406944Y-17484127D01*
X14406944Y-17484127D02*
X14397420Y-17512698D01*
X14397420Y-17512698D02*
X14283134Y-17626984D01*
X14283134Y-17626984D02*
X14406944Y-17626984D01*
X14483134Y-17426984D02*
X14483134Y-17465079D01*
X14559325Y-17426984D02*
X14559325Y-17465079D01*
X14854563Y-17703174D02*
X14845039Y-17693650D01*
X14845039Y-17693650D02*
X14825991Y-17665079D01*
X14825991Y-17665079D02*
X14816468Y-17646031D01*
X14816468Y-17646031D02*
X14806944Y-17617460D01*
X14806944Y-17617460D02*
X14797420Y-17569841D01*
X14797420Y-17569841D02*
X14797420Y-17531746D01*
X14797420Y-17531746D02*
X14806944Y-17484127D01*
X14806944Y-17484127D02*
X14816468Y-17455555D01*
X14816468Y-17455555D02*
X14825991Y-17436508D01*
X14825991Y-17436508D02*
X14845039Y-17407936D01*
X14845039Y-17407936D02*
X14854563Y-17398412D01*
X15035515Y-17626984D02*
X14921229Y-17626984D01*
X14978372Y-17626984D02*
X14978372Y-17426984D01*
X14978372Y-17426984D02*
X14959325Y-17455555D01*
X14959325Y-17455555D02*
X14940277Y-17474603D01*
X14940277Y-17474603D02*
X14921229Y-17484127D01*
X15216468Y-17426984D02*
X15121229Y-17426984D01*
X15121229Y-17426984D02*
X15111706Y-17522222D01*
X15111706Y-17522222D02*
X15121229Y-17512698D01*
X15121229Y-17512698D02*
X15140277Y-17503174D01*
X15140277Y-17503174D02*
X15187896Y-17503174D01*
X15187896Y-17503174D02*
X15206944Y-17512698D01*
X15206944Y-17512698D02*
X15216468Y-17522222D01*
X15216468Y-17522222D02*
X15225991Y-17541270D01*
X15225991Y-17541270D02*
X15225991Y-17588889D01*
X15225991Y-17588889D02*
X15216468Y-17607936D01*
X15216468Y-17607936D02*
X15206944Y-17617460D01*
X15206944Y-17617460D02*
X15187896Y-17626984D01*
X15187896Y-17626984D02*
X15140277Y-17626984D01*
X15140277Y-17626984D02*
X15121229Y-17617460D01*
X15121229Y-17617460D02*
X15111706Y-17607936D01*
X15464087Y-17626984D02*
X15464087Y-17426984D01*
X15549801Y-17626984D02*
X15549801Y-17522222D01*
X15549801Y-17522222D02*
X15540277Y-17503174D01*
X15540277Y-17503174D02*
X15521230Y-17493650D01*
X15521230Y-17493650D02*
X15492658Y-17493650D01*
X15492658Y-17493650D02*
X15473610Y-17503174D01*
X15473610Y-17503174D02*
X15464087Y-17512698D01*
X15673610Y-17626984D02*
X15654563Y-17617460D01*
X15654563Y-17617460D02*
X15645039Y-17607936D01*
X15645039Y-17607936D02*
X15635515Y-17588889D01*
X15635515Y-17588889D02*
X15635515Y-17531746D01*
X15635515Y-17531746D02*
X15645039Y-17512698D01*
X15645039Y-17512698D02*
X15654563Y-17503174D01*
X15654563Y-17503174D02*
X15673610Y-17493650D01*
X15673610Y-17493650D02*
X15702182Y-17493650D01*
X15702182Y-17493650D02*
X15721230Y-17503174D01*
X15721230Y-17503174D02*
X15730753Y-17512698D01*
X15730753Y-17512698D02*
X15740277Y-17531746D01*
X15740277Y-17531746D02*
X15740277Y-17588889D01*
X15740277Y-17588889D02*
X15730753Y-17607936D01*
X15730753Y-17607936D02*
X15721230Y-17617460D01*
X15721230Y-17617460D02*
X15702182Y-17626984D01*
X15702182Y-17626984D02*
X15673610Y-17626984D01*
X15854563Y-17626984D02*
X15835515Y-17617460D01*
X15835515Y-17617460D02*
X15825991Y-17598412D01*
X15825991Y-17598412D02*
X15825991Y-17426984D01*
X16006944Y-17617460D02*
X15987896Y-17626984D01*
X15987896Y-17626984D02*
X15949801Y-17626984D01*
X15949801Y-17626984D02*
X15930753Y-17617460D01*
X15930753Y-17617460D02*
X15921230Y-17598412D01*
X15921230Y-17598412D02*
X15921230Y-17522222D01*
X15921230Y-17522222D02*
X15930753Y-17503174D01*
X15930753Y-17503174D02*
X15949801Y-17493650D01*
X15949801Y-17493650D02*
X15987896Y-17493650D01*
X15987896Y-17493650D02*
X16006944Y-17503174D01*
X16006944Y-17503174D02*
X16016468Y-17522222D01*
X16016468Y-17522222D02*
X16016468Y-17541270D01*
X16016468Y-17541270D02*
X15921230Y-17560317D01*
X16092658Y-17617460D02*
X16111706Y-17626984D01*
X16111706Y-17626984D02*
X16149801Y-17626984D01*
X16149801Y-17626984D02*
X16168849Y-17617460D01*
X16168849Y-17617460D02*
X16178372Y-17598412D01*
X16178372Y-17598412D02*
X16178372Y-17588889D01*
X16178372Y-17588889D02*
X16168849Y-17569841D01*
X16168849Y-17569841D02*
X16149801Y-17560317D01*
X16149801Y-17560317D02*
X16121230Y-17560317D01*
X16121230Y-17560317D02*
X16102182Y-17550793D01*
X16102182Y-17550793D02*
X16092658Y-17531746D01*
X16092658Y-17531746D02*
X16092658Y-17522222D01*
X16092658Y-17522222D02*
X16102182Y-17503174D01*
X16102182Y-17503174D02*
X16121230Y-17493650D01*
X16121230Y-17493650D02*
X16149801Y-17493650D01*
X16149801Y-17493650D02*
X16168849Y-17503174D01*
X16245039Y-17703174D02*
X16254563Y-17693650D01*
X16254563Y-17693650D02*
X16273611Y-17665079D01*
X16273611Y-17665079D02*
X16283134Y-17646031D01*
X16283134Y-17646031D02*
X16292658Y-17617460D01*
X16292658Y-17617460D02*
X16302182Y-17569841D01*
X16302182Y-17569841D02*
X16302182Y-17531746D01*
X16302182Y-17531746D02*
X16292658Y-17484127D01*
X16292658Y-17484127D02*
X16283134Y-17455555D01*
X16283134Y-17455555D02*
X16273611Y-17436508D01*
X16273611Y-17436508D02*
X16254563Y-17407936D01*
X16254563Y-17407936D02*
X16245039Y-17398412D01*
D16*
X11256069Y-17856069D02*
X11256069Y-17742931D01*
X11142931Y-17742931D01*
X11142931Y-17856069D01*
X11256069Y-17856069D01*
X11279500Y-17799500D02*
G75*
G02*
X11119500Y-17799500I-80000J0D01*
G01*
X11119500Y-17799500D02*
G75*
G02*
X11279500Y-17799500I80000J0D01*
G01*
D11*
X11645039Y-17890984D02*
X11530753Y-17890984D01*
X11587896Y-17890984D02*
X11587896Y-17690984D01*
X11587896Y-17690984D02*
X11568848Y-17719555D01*
X11568848Y-17719555D02*
X11549801Y-17738603D01*
X11549801Y-17738603D02*
X11530753Y-17748127D01*
X11730753Y-17871936D02*
X11740277Y-17881460D01*
X11740277Y-17881460D02*
X11730753Y-17890984D01*
X11730753Y-17890984D02*
X11721229Y-17881460D01*
X11721229Y-17881460D02*
X11730753Y-17871936D01*
X11730753Y-17871936D02*
X11730753Y-17890984D01*
X11911705Y-17690984D02*
X11873610Y-17690984D01*
X11873610Y-17690984D02*
X11854562Y-17700508D01*
X11854562Y-17700508D02*
X11845039Y-17710031D01*
X11845039Y-17710031D02*
X11825991Y-17738603D01*
X11825991Y-17738603D02*
X11816467Y-17776698D01*
X11816467Y-17776698D02*
X11816467Y-17852889D01*
X11816467Y-17852889D02*
X11825991Y-17871936D01*
X11825991Y-17871936D02*
X11835515Y-17881460D01*
X11835515Y-17881460D02*
X11854562Y-17890984D01*
X11854562Y-17890984D02*
X11892658Y-17890984D01*
X11892658Y-17890984D02*
X11911705Y-17881460D01*
X11911705Y-17881460D02*
X11921229Y-17871936D01*
X11921229Y-17871936D02*
X11930753Y-17852889D01*
X11930753Y-17852889D02*
X11930753Y-17805270D01*
X11930753Y-17805270D02*
X11921229Y-17786222D01*
X11921229Y-17786222D02*
X11911705Y-17776698D01*
X11911705Y-17776698D02*
X11892658Y-17767174D01*
X11892658Y-17767174D02*
X11854562Y-17767174D01*
X11854562Y-17767174D02*
X11835515Y-17776698D01*
X11835515Y-17776698D02*
X11825991Y-17786222D01*
X11825991Y-17786222D02*
X11816467Y-17805270D01*
X12054562Y-17690984D02*
X12073610Y-17690984D01*
X12073610Y-17690984D02*
X12092658Y-17700508D01*
X12092658Y-17700508D02*
X12102182Y-17710031D01*
X12102182Y-17710031D02*
X12111705Y-17729079D01*
X12111705Y-17729079D02*
X12121229Y-17767174D01*
X12121229Y-17767174D02*
X12121229Y-17814793D01*
X12121229Y-17814793D02*
X12111705Y-17852889D01*
X12111705Y-17852889D02*
X12102182Y-17871936D01*
X12102182Y-17871936D02*
X12092658Y-17881460D01*
X12092658Y-17881460D02*
X12073610Y-17890984D01*
X12073610Y-17890984D02*
X12054562Y-17890984D01*
X12054562Y-17890984D02*
X12035515Y-17881460D01*
X12035515Y-17881460D02*
X12025991Y-17871936D01*
X12025991Y-17871936D02*
X12016467Y-17852889D01*
X12016467Y-17852889D02*
X12006943Y-17814793D01*
X12006943Y-17814793D02*
X12006943Y-17767174D01*
X12006943Y-17767174D02*
X12016467Y-17729079D01*
X12016467Y-17729079D02*
X12025991Y-17710031D01*
X12025991Y-17710031D02*
X12035515Y-17700508D01*
X12035515Y-17700508D02*
X12054562Y-17690984D01*
X12245039Y-17690984D02*
X12264086Y-17690984D01*
X12264086Y-17690984D02*
X12283134Y-17700508D01*
X12283134Y-17700508D02*
X12292658Y-17710031D01*
X12292658Y-17710031D02*
X12302182Y-17729079D01*
X12302182Y-17729079D02*
X12311705Y-17767174D01*
X12311705Y-17767174D02*
X12311705Y-17814793D01*
X12311705Y-17814793D02*
X12302182Y-17852889D01*
X12302182Y-17852889D02*
X12292658Y-17871936D01*
X12292658Y-17871936D02*
X12283134Y-17881460D01*
X12283134Y-17881460D02*
X12264086Y-17890984D01*
X12264086Y-17890984D02*
X12245039Y-17890984D01*
X12245039Y-17890984D02*
X12225991Y-17881460D01*
X12225991Y-17881460D02*
X12216467Y-17871936D01*
X12216467Y-17871936D02*
X12206943Y-17852889D01*
X12206943Y-17852889D02*
X12197420Y-17814793D01*
X12197420Y-17814793D02*
X12197420Y-17767174D01*
X12197420Y-17767174D02*
X12206943Y-17729079D01*
X12206943Y-17729079D02*
X12216467Y-17710031D01*
X12216467Y-17710031D02*
X12225991Y-17700508D01*
X12225991Y-17700508D02*
X12245039Y-17690984D01*
X12397420Y-17890984D02*
X12397420Y-17757650D01*
X12397420Y-17776698D02*
X12406943Y-17767174D01*
X12406943Y-17767174D02*
X12425991Y-17757650D01*
X12425991Y-17757650D02*
X12454563Y-17757650D01*
X12454563Y-17757650D02*
X12473610Y-17767174D01*
X12473610Y-17767174D02*
X12483134Y-17786222D01*
X12483134Y-17786222D02*
X12483134Y-17890984D01*
X12483134Y-17786222D02*
X12492658Y-17767174D01*
X12492658Y-17767174D02*
X12511705Y-17757650D01*
X12511705Y-17757650D02*
X12540277Y-17757650D01*
X12540277Y-17757650D02*
X12559324Y-17767174D01*
X12559324Y-17767174D02*
X12568848Y-17786222D01*
X12568848Y-17786222D02*
X12568848Y-17890984D01*
X12664086Y-17890984D02*
X12664086Y-17757650D01*
X12664086Y-17776698D02*
X12673610Y-17767174D01*
X12673610Y-17767174D02*
X12692658Y-17757650D01*
X12692658Y-17757650D02*
X12721229Y-17757650D01*
X12721229Y-17757650D02*
X12740277Y-17767174D01*
X12740277Y-17767174D02*
X12749801Y-17786222D01*
X12749801Y-17786222D02*
X12749801Y-17890984D01*
X12749801Y-17786222D02*
X12759324Y-17767174D01*
X12759324Y-17767174D02*
X12778372Y-17757650D01*
X12778372Y-17757650D02*
X12806943Y-17757650D01*
X12806943Y-17757650D02*
X12825991Y-17767174D01*
X12825991Y-17767174D02*
X12835515Y-17786222D01*
X12835515Y-17786222D02*
X12835515Y-17890984D01*
X13225991Y-17681460D02*
X13054563Y-17938603D01*
X13483134Y-17690984D02*
X13502182Y-17690984D01*
X13502182Y-17690984D02*
X13521229Y-17700508D01*
X13521229Y-17700508D02*
X13530753Y-17710031D01*
X13530753Y-17710031D02*
X13540277Y-17729079D01*
X13540277Y-17729079D02*
X13549801Y-17767174D01*
X13549801Y-17767174D02*
X13549801Y-17814793D01*
X13549801Y-17814793D02*
X13540277Y-17852889D01*
X13540277Y-17852889D02*
X13530753Y-17871936D01*
X13530753Y-17871936D02*
X13521229Y-17881460D01*
X13521229Y-17881460D02*
X13502182Y-17890984D01*
X13502182Y-17890984D02*
X13483134Y-17890984D01*
X13483134Y-17890984D02*
X13464086Y-17881460D01*
X13464086Y-17881460D02*
X13454563Y-17871936D01*
X13454563Y-17871936D02*
X13445039Y-17852889D01*
X13445039Y-17852889D02*
X13435515Y-17814793D01*
X13435515Y-17814793D02*
X13435515Y-17767174D01*
X13435515Y-17767174D02*
X13445039Y-17729079D01*
X13445039Y-17729079D02*
X13454563Y-17710031D01*
X13454563Y-17710031D02*
X13464086Y-17700508D01*
X13464086Y-17700508D02*
X13483134Y-17690984D01*
X13635515Y-17871936D02*
X13645039Y-17881460D01*
X13645039Y-17881460D02*
X13635515Y-17890984D01*
X13635515Y-17890984D02*
X13625991Y-17881460D01*
X13625991Y-17881460D02*
X13635515Y-17871936D01*
X13635515Y-17871936D02*
X13635515Y-17890984D01*
X13768848Y-17690984D02*
X13787896Y-17690984D01*
X13787896Y-17690984D02*
X13806944Y-17700508D01*
X13806944Y-17700508D02*
X13816467Y-17710031D01*
X13816467Y-17710031D02*
X13825991Y-17729079D01*
X13825991Y-17729079D02*
X13835515Y-17767174D01*
X13835515Y-17767174D02*
X13835515Y-17814793D01*
X13835515Y-17814793D02*
X13825991Y-17852889D01*
X13825991Y-17852889D02*
X13816467Y-17871936D01*
X13816467Y-17871936D02*
X13806944Y-17881460D01*
X13806944Y-17881460D02*
X13787896Y-17890984D01*
X13787896Y-17890984D02*
X13768848Y-17890984D01*
X13768848Y-17890984D02*
X13749801Y-17881460D01*
X13749801Y-17881460D02*
X13740277Y-17871936D01*
X13740277Y-17871936D02*
X13730753Y-17852889D01*
X13730753Y-17852889D02*
X13721229Y-17814793D01*
X13721229Y-17814793D02*
X13721229Y-17767174D01*
X13721229Y-17767174D02*
X13730753Y-17729079D01*
X13730753Y-17729079D02*
X13740277Y-17710031D01*
X13740277Y-17710031D02*
X13749801Y-17700508D01*
X13749801Y-17700508D02*
X13768848Y-17690984D01*
X14006944Y-17690984D02*
X13968848Y-17690984D01*
X13968848Y-17690984D02*
X13949801Y-17700508D01*
X13949801Y-17700508D02*
X13940277Y-17710031D01*
X13940277Y-17710031D02*
X13921229Y-17738603D01*
X13921229Y-17738603D02*
X13911706Y-17776698D01*
X13911706Y-17776698D02*
X13911706Y-17852889D01*
X13911706Y-17852889D02*
X13921229Y-17871936D01*
X13921229Y-17871936D02*
X13930753Y-17881460D01*
X13930753Y-17881460D02*
X13949801Y-17890984D01*
X13949801Y-17890984D02*
X13987896Y-17890984D01*
X13987896Y-17890984D02*
X14006944Y-17881460D01*
X14006944Y-17881460D02*
X14016467Y-17871936D01*
X14016467Y-17871936D02*
X14025991Y-17852889D01*
X14025991Y-17852889D02*
X14025991Y-17805270D01*
X14025991Y-17805270D02*
X14016467Y-17786222D01*
X14016467Y-17786222D02*
X14006944Y-17776698D01*
X14006944Y-17776698D02*
X13987896Y-17767174D01*
X13987896Y-17767174D02*
X13949801Y-17767174D01*
X13949801Y-17767174D02*
X13930753Y-17776698D01*
X13930753Y-17776698D02*
X13921229Y-17786222D01*
X13921229Y-17786222D02*
X13911706Y-17805270D01*
X14092658Y-17690984D02*
X14216467Y-17690984D01*
X14216467Y-17690984D02*
X14149801Y-17767174D01*
X14149801Y-17767174D02*
X14178372Y-17767174D01*
X14178372Y-17767174D02*
X14197420Y-17776698D01*
X14197420Y-17776698D02*
X14206944Y-17786222D01*
X14206944Y-17786222D02*
X14216467Y-17805270D01*
X14216467Y-17805270D02*
X14216467Y-17852889D01*
X14216467Y-17852889D02*
X14206944Y-17871936D01*
X14206944Y-17871936D02*
X14197420Y-17881460D01*
X14197420Y-17881460D02*
X14178372Y-17890984D01*
X14178372Y-17890984D02*
X14121229Y-17890984D01*
X14121229Y-17890984D02*
X14102182Y-17881460D01*
X14102182Y-17881460D02*
X14092658Y-17871936D01*
X14340277Y-17690984D02*
X14359325Y-17690984D01*
X14359325Y-17690984D02*
X14378372Y-17700508D01*
X14378372Y-17700508D02*
X14387896Y-17710031D01*
X14387896Y-17710031D02*
X14397420Y-17729079D01*
X14397420Y-17729079D02*
X14406944Y-17767174D01*
X14406944Y-17767174D02*
X14406944Y-17814793D01*
X14406944Y-17814793D02*
X14397420Y-17852889D01*
X14397420Y-17852889D02*
X14387896Y-17871936D01*
X14387896Y-17871936D02*
X14378372Y-17881460D01*
X14378372Y-17881460D02*
X14359325Y-17890984D01*
X14359325Y-17890984D02*
X14340277Y-17890984D01*
X14340277Y-17890984D02*
X14321229Y-17881460D01*
X14321229Y-17881460D02*
X14311706Y-17871936D01*
X14311706Y-17871936D02*
X14302182Y-17852889D01*
X14302182Y-17852889D02*
X14292658Y-17814793D01*
X14292658Y-17814793D02*
X14292658Y-17767174D01*
X14292658Y-17767174D02*
X14302182Y-17729079D01*
X14302182Y-17729079D02*
X14311706Y-17710031D01*
X14311706Y-17710031D02*
X14321229Y-17700508D01*
X14321229Y-17700508D02*
X14340277Y-17690984D01*
X14483134Y-17690984D02*
X14483134Y-17729079D01*
X14559325Y-17690984D02*
X14559325Y-17729079D01*
X14854563Y-17967174D02*
X14845039Y-17957650D01*
X14845039Y-17957650D02*
X14825991Y-17929079D01*
X14825991Y-17929079D02*
X14816468Y-17910031D01*
X14816468Y-17910031D02*
X14806944Y-17881460D01*
X14806944Y-17881460D02*
X14797420Y-17833841D01*
X14797420Y-17833841D02*
X14797420Y-17795746D01*
X14797420Y-17795746D02*
X14806944Y-17748127D01*
X14806944Y-17748127D02*
X14816468Y-17719555D01*
X14816468Y-17719555D02*
X14825991Y-17700508D01*
X14825991Y-17700508D02*
X14845039Y-17671936D01*
X14845039Y-17671936D02*
X14854563Y-17662412D01*
X14921229Y-17710031D02*
X14930753Y-17700508D01*
X14930753Y-17700508D02*
X14949801Y-17690984D01*
X14949801Y-17690984D02*
X14997420Y-17690984D01*
X14997420Y-17690984D02*
X15016468Y-17700508D01*
X15016468Y-17700508D02*
X15025991Y-17710031D01*
X15025991Y-17710031D02*
X15035515Y-17729079D01*
X15035515Y-17729079D02*
X15035515Y-17748127D01*
X15035515Y-17748127D02*
X15025991Y-17776698D01*
X15025991Y-17776698D02*
X14911706Y-17890984D01*
X14911706Y-17890984D02*
X15035515Y-17890984D01*
X15273610Y-17890984D02*
X15273610Y-17690984D01*
X15359325Y-17890984D02*
X15359325Y-17786222D01*
X15359325Y-17786222D02*
X15349801Y-17767174D01*
X15349801Y-17767174D02*
X15330753Y-17757650D01*
X15330753Y-17757650D02*
X15302182Y-17757650D01*
X15302182Y-17757650D02*
X15283134Y-17767174D01*
X15283134Y-17767174D02*
X15273610Y-17776698D01*
X15483134Y-17890984D02*
X15464087Y-17881460D01*
X15464087Y-17881460D02*
X15454563Y-17871936D01*
X15454563Y-17871936D02*
X15445039Y-17852889D01*
X15445039Y-17852889D02*
X15445039Y-17795746D01*
X15445039Y-17795746D02*
X15454563Y-17776698D01*
X15454563Y-17776698D02*
X15464087Y-17767174D01*
X15464087Y-17767174D02*
X15483134Y-17757650D01*
X15483134Y-17757650D02*
X15511706Y-17757650D01*
X15511706Y-17757650D02*
X15530753Y-17767174D01*
X15530753Y-17767174D02*
X15540277Y-17776698D01*
X15540277Y-17776698D02*
X15549801Y-17795746D01*
X15549801Y-17795746D02*
X15549801Y-17852889D01*
X15549801Y-17852889D02*
X15540277Y-17871936D01*
X15540277Y-17871936D02*
X15530753Y-17881460D01*
X15530753Y-17881460D02*
X15511706Y-17890984D01*
X15511706Y-17890984D02*
X15483134Y-17890984D01*
X15664087Y-17890984D02*
X15645039Y-17881460D01*
X15645039Y-17881460D02*
X15635515Y-17862412D01*
X15635515Y-17862412D02*
X15635515Y-17690984D01*
X15816468Y-17881460D02*
X15797420Y-17890984D01*
X15797420Y-17890984D02*
X15759325Y-17890984D01*
X15759325Y-17890984D02*
X15740277Y-17881460D01*
X15740277Y-17881460D02*
X15730753Y-17862412D01*
X15730753Y-17862412D02*
X15730753Y-17786222D01*
X15730753Y-17786222D02*
X15740277Y-17767174D01*
X15740277Y-17767174D02*
X15759325Y-17757650D01*
X15759325Y-17757650D02*
X15797420Y-17757650D01*
X15797420Y-17757650D02*
X15816468Y-17767174D01*
X15816468Y-17767174D02*
X15825991Y-17786222D01*
X15825991Y-17786222D02*
X15825991Y-17805270D01*
X15825991Y-17805270D02*
X15730753Y-17824317D01*
X15902182Y-17881460D02*
X15921230Y-17890984D01*
X15921230Y-17890984D02*
X15959325Y-17890984D01*
X15959325Y-17890984D02*
X15978372Y-17881460D01*
X15978372Y-17881460D02*
X15987896Y-17862412D01*
X15987896Y-17862412D02*
X15987896Y-17852889D01*
X15987896Y-17852889D02*
X15978372Y-17833841D01*
X15978372Y-17833841D02*
X15959325Y-17824317D01*
X15959325Y-17824317D02*
X15930753Y-17824317D01*
X15930753Y-17824317D02*
X15911706Y-17814793D01*
X15911706Y-17814793D02*
X15902182Y-17795746D01*
X15902182Y-17795746D02*
X15902182Y-17786222D01*
X15902182Y-17786222D02*
X15911706Y-17767174D01*
X15911706Y-17767174D02*
X15930753Y-17757650D01*
X15930753Y-17757650D02*
X15959325Y-17757650D01*
X15959325Y-17757650D02*
X15978372Y-17767174D01*
X16054563Y-17967174D02*
X16064087Y-17957650D01*
X16064087Y-17957650D02*
X16083134Y-17929079D01*
X16083134Y-17929079D02*
X16092658Y-17910031D01*
X16092658Y-17910031D02*
X16102182Y-17881460D01*
X16102182Y-17881460D02*
X16111706Y-17833841D01*
X16111706Y-17833841D02*
X16111706Y-17795746D01*
X16111706Y-17795746D02*
X16102182Y-17748127D01*
X16102182Y-17748127D02*
X16092658Y-17719555D01*
X16092658Y-17719555D02*
X16083134Y-17700508D01*
X16083134Y-17700508D02*
X16064087Y-17671936D01*
X16064087Y-17671936D02*
X16054563Y-17662412D01*
X11179500Y-18179500D02*
X11279500Y-18079500D01*
X11179500Y-17979500D01*
X11079500Y-18079500D01*
X11179500Y-18179500D01*
X11279500Y-18079500D02*
G75*
G02*
X11079500Y-18079500I-100000J0D01*
G01*
X11079500Y-18079500D02*
G75*
G02*
X11279500Y-18079500I100000J0D01*
G01*
X11521229Y-17970984D02*
X11645039Y-17970984D01*
X11645039Y-17970984D02*
X11578372Y-18047174D01*
X11578372Y-18047174D02*
X11606943Y-18047174D01*
X11606943Y-18047174D02*
X11625991Y-18056698D01*
X11625991Y-18056698D02*
X11635515Y-18066222D01*
X11635515Y-18066222D02*
X11645039Y-18085270D01*
X11645039Y-18085270D02*
X11645039Y-18132889D01*
X11645039Y-18132889D02*
X11635515Y-18151936D01*
X11635515Y-18151936D02*
X11625991Y-18161460D01*
X11625991Y-18161460D02*
X11606943Y-18170984D01*
X11606943Y-18170984D02*
X11549801Y-18170984D01*
X11549801Y-18170984D02*
X11530753Y-18161460D01*
X11530753Y-18161460D02*
X11521229Y-18151936D01*
X11730753Y-18151936D02*
X11740277Y-18161460D01*
X11740277Y-18161460D02*
X11730753Y-18170984D01*
X11730753Y-18170984D02*
X11721229Y-18161460D01*
X11721229Y-18161460D02*
X11730753Y-18151936D01*
X11730753Y-18151936D02*
X11730753Y-18170984D01*
X11816467Y-17990031D02*
X11825991Y-17980508D01*
X11825991Y-17980508D02*
X11845039Y-17970984D01*
X11845039Y-17970984D02*
X11892658Y-17970984D01*
X11892658Y-17970984D02*
X11911705Y-17980508D01*
X11911705Y-17980508D02*
X11921229Y-17990031D01*
X11921229Y-17990031D02*
X11930753Y-18009079D01*
X11930753Y-18009079D02*
X11930753Y-18028127D01*
X11930753Y-18028127D02*
X11921229Y-18056698D01*
X11921229Y-18056698D02*
X11806943Y-18170984D01*
X11806943Y-18170984D02*
X11930753Y-18170984D01*
X12054562Y-17970984D02*
X12073610Y-17970984D01*
X12073610Y-17970984D02*
X12092658Y-17980508D01*
X12092658Y-17980508D02*
X12102182Y-17990031D01*
X12102182Y-17990031D02*
X12111705Y-18009079D01*
X12111705Y-18009079D02*
X12121229Y-18047174D01*
X12121229Y-18047174D02*
X12121229Y-18094793D01*
X12121229Y-18094793D02*
X12111705Y-18132889D01*
X12111705Y-18132889D02*
X12102182Y-18151936D01*
X12102182Y-18151936D02*
X12092658Y-18161460D01*
X12092658Y-18161460D02*
X12073610Y-18170984D01*
X12073610Y-18170984D02*
X12054562Y-18170984D01*
X12054562Y-18170984D02*
X12035515Y-18161460D01*
X12035515Y-18161460D02*
X12025991Y-18151936D01*
X12025991Y-18151936D02*
X12016467Y-18132889D01*
X12016467Y-18132889D02*
X12006943Y-18094793D01*
X12006943Y-18094793D02*
X12006943Y-18047174D01*
X12006943Y-18047174D02*
X12016467Y-18009079D01*
X12016467Y-18009079D02*
X12025991Y-17990031D01*
X12025991Y-17990031D02*
X12035515Y-17980508D01*
X12035515Y-17980508D02*
X12054562Y-17970984D01*
X12245039Y-17970984D02*
X12264086Y-17970984D01*
X12264086Y-17970984D02*
X12283134Y-17980508D01*
X12283134Y-17980508D02*
X12292658Y-17990031D01*
X12292658Y-17990031D02*
X12302182Y-18009079D01*
X12302182Y-18009079D02*
X12311705Y-18047174D01*
X12311705Y-18047174D02*
X12311705Y-18094793D01*
X12311705Y-18094793D02*
X12302182Y-18132889D01*
X12302182Y-18132889D02*
X12292658Y-18151936D01*
X12292658Y-18151936D02*
X12283134Y-18161460D01*
X12283134Y-18161460D02*
X12264086Y-18170984D01*
X12264086Y-18170984D02*
X12245039Y-18170984D01*
X12245039Y-18170984D02*
X12225991Y-18161460D01*
X12225991Y-18161460D02*
X12216467Y-18151936D01*
X12216467Y-18151936D02*
X12206943Y-18132889D01*
X12206943Y-18132889D02*
X12197420Y-18094793D01*
X12197420Y-18094793D02*
X12197420Y-18047174D01*
X12197420Y-18047174D02*
X12206943Y-18009079D01*
X12206943Y-18009079D02*
X12216467Y-17990031D01*
X12216467Y-17990031D02*
X12225991Y-17980508D01*
X12225991Y-17980508D02*
X12245039Y-17970984D01*
X12397420Y-18170984D02*
X12397420Y-18037650D01*
X12397420Y-18056698D02*
X12406943Y-18047174D01*
X12406943Y-18047174D02*
X12425991Y-18037650D01*
X12425991Y-18037650D02*
X12454563Y-18037650D01*
X12454563Y-18037650D02*
X12473610Y-18047174D01*
X12473610Y-18047174D02*
X12483134Y-18066222D01*
X12483134Y-18066222D02*
X12483134Y-18170984D01*
X12483134Y-18066222D02*
X12492658Y-18047174D01*
X12492658Y-18047174D02*
X12511705Y-18037650D01*
X12511705Y-18037650D02*
X12540277Y-18037650D01*
X12540277Y-18037650D02*
X12559324Y-18047174D01*
X12559324Y-18047174D02*
X12568848Y-18066222D01*
X12568848Y-18066222D02*
X12568848Y-18170984D01*
X12664086Y-18170984D02*
X12664086Y-18037650D01*
X12664086Y-18056698D02*
X12673610Y-18047174D01*
X12673610Y-18047174D02*
X12692658Y-18037650D01*
X12692658Y-18037650D02*
X12721229Y-18037650D01*
X12721229Y-18037650D02*
X12740277Y-18047174D01*
X12740277Y-18047174D02*
X12749801Y-18066222D01*
X12749801Y-18066222D02*
X12749801Y-18170984D01*
X12749801Y-18066222D02*
X12759324Y-18047174D01*
X12759324Y-18047174D02*
X12778372Y-18037650D01*
X12778372Y-18037650D02*
X12806943Y-18037650D01*
X12806943Y-18037650D02*
X12825991Y-18047174D01*
X12825991Y-18047174D02*
X12835515Y-18066222D01*
X12835515Y-18066222D02*
X12835515Y-18170984D01*
X13225991Y-17961460D02*
X13054563Y-18218603D01*
X13483134Y-17970984D02*
X13502182Y-17970984D01*
X13502182Y-17970984D02*
X13521229Y-17980508D01*
X13521229Y-17980508D02*
X13530753Y-17990031D01*
X13530753Y-17990031D02*
X13540277Y-18009079D01*
X13540277Y-18009079D02*
X13549801Y-18047174D01*
X13549801Y-18047174D02*
X13549801Y-18094793D01*
X13549801Y-18094793D02*
X13540277Y-18132889D01*
X13540277Y-18132889D02*
X13530753Y-18151936D01*
X13530753Y-18151936D02*
X13521229Y-18161460D01*
X13521229Y-18161460D02*
X13502182Y-18170984D01*
X13502182Y-18170984D02*
X13483134Y-18170984D01*
X13483134Y-18170984D02*
X13464086Y-18161460D01*
X13464086Y-18161460D02*
X13454563Y-18151936D01*
X13454563Y-18151936D02*
X13445039Y-18132889D01*
X13445039Y-18132889D02*
X13435515Y-18094793D01*
X13435515Y-18094793D02*
X13435515Y-18047174D01*
X13435515Y-18047174D02*
X13445039Y-18009079D01*
X13445039Y-18009079D02*
X13454563Y-17990031D01*
X13454563Y-17990031D02*
X13464086Y-17980508D01*
X13464086Y-17980508D02*
X13483134Y-17970984D01*
X13635515Y-18151936D02*
X13645039Y-18161460D01*
X13645039Y-18161460D02*
X13635515Y-18170984D01*
X13635515Y-18170984D02*
X13625991Y-18161460D01*
X13625991Y-18161460D02*
X13635515Y-18151936D01*
X13635515Y-18151936D02*
X13635515Y-18170984D01*
X13835515Y-18170984D02*
X13721229Y-18170984D01*
X13778372Y-18170984D02*
X13778372Y-17970984D01*
X13778372Y-17970984D02*
X13759325Y-17999555D01*
X13759325Y-17999555D02*
X13740277Y-18018603D01*
X13740277Y-18018603D02*
X13721229Y-18028127D01*
X13911706Y-17990031D02*
X13921229Y-17980508D01*
X13921229Y-17980508D02*
X13940277Y-17970984D01*
X13940277Y-17970984D02*
X13987896Y-17970984D01*
X13987896Y-17970984D02*
X14006944Y-17980508D01*
X14006944Y-17980508D02*
X14016467Y-17990031D01*
X14016467Y-17990031D02*
X14025991Y-18009079D01*
X14025991Y-18009079D02*
X14025991Y-18028127D01*
X14025991Y-18028127D02*
X14016467Y-18056698D01*
X14016467Y-18056698D02*
X13902182Y-18170984D01*
X13902182Y-18170984D02*
X14025991Y-18170984D01*
X14197420Y-17970984D02*
X14159325Y-17970984D01*
X14159325Y-17970984D02*
X14140277Y-17980508D01*
X14140277Y-17980508D02*
X14130753Y-17990031D01*
X14130753Y-17990031D02*
X14111706Y-18018603D01*
X14111706Y-18018603D02*
X14102182Y-18056698D01*
X14102182Y-18056698D02*
X14102182Y-18132889D01*
X14102182Y-18132889D02*
X14111706Y-18151936D01*
X14111706Y-18151936D02*
X14121229Y-18161460D01*
X14121229Y-18161460D02*
X14140277Y-18170984D01*
X14140277Y-18170984D02*
X14178372Y-18170984D01*
X14178372Y-18170984D02*
X14197420Y-18161460D01*
X14197420Y-18161460D02*
X14206944Y-18151936D01*
X14206944Y-18151936D02*
X14216467Y-18132889D01*
X14216467Y-18132889D02*
X14216467Y-18085270D01*
X14216467Y-18085270D02*
X14206944Y-18066222D01*
X14206944Y-18066222D02*
X14197420Y-18056698D01*
X14197420Y-18056698D02*
X14178372Y-18047174D01*
X14178372Y-18047174D02*
X14140277Y-18047174D01*
X14140277Y-18047174D02*
X14121229Y-18056698D01*
X14121229Y-18056698D02*
X14111706Y-18066222D01*
X14111706Y-18066222D02*
X14102182Y-18085270D01*
X14340277Y-17970984D02*
X14359325Y-17970984D01*
X14359325Y-17970984D02*
X14378372Y-17980508D01*
X14378372Y-17980508D02*
X14387896Y-17990031D01*
X14387896Y-17990031D02*
X14397420Y-18009079D01*
X14397420Y-18009079D02*
X14406944Y-18047174D01*
X14406944Y-18047174D02*
X14406944Y-18094793D01*
X14406944Y-18094793D02*
X14397420Y-18132889D01*
X14397420Y-18132889D02*
X14387896Y-18151936D01*
X14387896Y-18151936D02*
X14378372Y-18161460D01*
X14378372Y-18161460D02*
X14359325Y-18170984D01*
X14359325Y-18170984D02*
X14340277Y-18170984D01*
X14340277Y-18170984D02*
X14321229Y-18161460D01*
X14321229Y-18161460D02*
X14311706Y-18151936D01*
X14311706Y-18151936D02*
X14302182Y-18132889D01*
X14302182Y-18132889D02*
X14292658Y-18094793D01*
X14292658Y-18094793D02*
X14292658Y-18047174D01*
X14292658Y-18047174D02*
X14302182Y-18009079D01*
X14302182Y-18009079D02*
X14311706Y-17990031D01*
X14311706Y-17990031D02*
X14321229Y-17980508D01*
X14321229Y-17980508D02*
X14340277Y-17970984D01*
X14483134Y-17970984D02*
X14483134Y-18009079D01*
X14559325Y-17970984D02*
X14559325Y-18009079D01*
X14854563Y-18247174D02*
X14845039Y-18237650D01*
X14845039Y-18237650D02*
X14825991Y-18209079D01*
X14825991Y-18209079D02*
X14816468Y-18190031D01*
X14816468Y-18190031D02*
X14806944Y-18161460D01*
X14806944Y-18161460D02*
X14797420Y-18113841D01*
X14797420Y-18113841D02*
X14797420Y-18075746D01*
X14797420Y-18075746D02*
X14806944Y-18028127D01*
X14806944Y-18028127D02*
X14816468Y-17999555D01*
X14816468Y-17999555D02*
X14825991Y-17980508D01*
X14825991Y-17980508D02*
X14845039Y-17951936D01*
X14845039Y-17951936D02*
X14854563Y-17942412D01*
X15016468Y-18037650D02*
X15016468Y-18170984D01*
X14968848Y-17961460D02*
X14921229Y-18104317D01*
X14921229Y-18104317D02*
X15045039Y-18104317D01*
X15273610Y-18170984D02*
X15273610Y-17970984D01*
X15359325Y-18170984D02*
X15359325Y-18066222D01*
X15359325Y-18066222D02*
X15349801Y-18047174D01*
X15349801Y-18047174D02*
X15330753Y-18037650D01*
X15330753Y-18037650D02*
X15302182Y-18037650D01*
X15302182Y-18037650D02*
X15283134Y-18047174D01*
X15283134Y-18047174D02*
X15273610Y-18056698D01*
X15483134Y-18170984D02*
X15464087Y-18161460D01*
X15464087Y-18161460D02*
X15454563Y-18151936D01*
X15454563Y-18151936D02*
X15445039Y-18132889D01*
X15445039Y-18132889D02*
X15445039Y-18075746D01*
X15445039Y-18075746D02*
X15454563Y-18056698D01*
X15454563Y-18056698D02*
X15464087Y-18047174D01*
X15464087Y-18047174D02*
X15483134Y-18037650D01*
X15483134Y-18037650D02*
X15511706Y-18037650D01*
X15511706Y-18037650D02*
X15530753Y-18047174D01*
X15530753Y-18047174D02*
X15540277Y-18056698D01*
X15540277Y-18056698D02*
X15549801Y-18075746D01*
X15549801Y-18075746D02*
X15549801Y-18132889D01*
X15549801Y-18132889D02*
X15540277Y-18151936D01*
X15540277Y-18151936D02*
X15530753Y-18161460D01*
X15530753Y-18161460D02*
X15511706Y-18170984D01*
X15511706Y-18170984D02*
X15483134Y-18170984D01*
X15664087Y-18170984D02*
X15645039Y-18161460D01*
X15645039Y-18161460D02*
X15635515Y-18142412D01*
X15635515Y-18142412D02*
X15635515Y-17970984D01*
X15816468Y-18161460D02*
X15797420Y-18170984D01*
X15797420Y-18170984D02*
X15759325Y-18170984D01*
X15759325Y-18170984D02*
X15740277Y-18161460D01*
X15740277Y-18161460D02*
X15730753Y-18142412D01*
X15730753Y-18142412D02*
X15730753Y-18066222D01*
X15730753Y-18066222D02*
X15740277Y-18047174D01*
X15740277Y-18047174D02*
X15759325Y-18037650D01*
X15759325Y-18037650D02*
X15797420Y-18037650D01*
X15797420Y-18037650D02*
X15816468Y-18047174D01*
X15816468Y-18047174D02*
X15825991Y-18066222D01*
X15825991Y-18066222D02*
X15825991Y-18085270D01*
X15825991Y-18085270D02*
X15730753Y-18104317D01*
X15902182Y-18161460D02*
X15921230Y-18170984D01*
X15921230Y-18170984D02*
X15959325Y-18170984D01*
X15959325Y-18170984D02*
X15978372Y-18161460D01*
X15978372Y-18161460D02*
X15987896Y-18142412D01*
X15987896Y-18142412D02*
X15987896Y-18132889D01*
X15987896Y-18132889D02*
X15978372Y-18113841D01*
X15978372Y-18113841D02*
X15959325Y-18104317D01*
X15959325Y-18104317D02*
X15930753Y-18104317D01*
X15930753Y-18104317D02*
X15911706Y-18094793D01*
X15911706Y-18094793D02*
X15902182Y-18075746D01*
X15902182Y-18075746D02*
X15902182Y-18066222D01*
X15902182Y-18066222D02*
X15911706Y-18047174D01*
X15911706Y-18047174D02*
X15930753Y-18037650D01*
X15930753Y-18037650D02*
X15959325Y-18037650D01*
X15959325Y-18037650D02*
X15978372Y-18047174D01*
X16054563Y-18247174D02*
X16064087Y-18237650D01*
X16064087Y-18237650D02*
X16083134Y-18209079D01*
X16083134Y-18209079D02*
X16092658Y-18190031D01*
X16092658Y-18190031D02*
X16102182Y-18161460D01*
X16102182Y-18161460D02*
X16111706Y-18113841D01*
X16111706Y-18113841D02*
X16111706Y-18075746D01*
X16111706Y-18075746D02*
X16102182Y-18028127D01*
X16102182Y-18028127D02*
X16092658Y-17999555D01*
X16092658Y-17999555D02*
X16083134Y-17980508D01*
X16083134Y-17980508D02*
X16064087Y-17951936D01*
X16064087Y-17951936D02*
X16054563Y-17942412D01*
M02*
