%TF.GenerationSoftware,KiCad,Pcbnew,9.0.1*%
%TF.CreationDate,2025-05-12T18:56:40-04:00*%
%TF.ProjectId,arm,61726d2e-6b69-4636-9164-5f7063625858,rev?*%
%TF.SameCoordinates,Original*%
%TF.FileFunction,Copper,L2,Inr*%
%TF.FilePolarity,Positive*%
%FSLAX46Y46*%
G04 Gerber Fmt 4.6, Leading zero omitted, Abs format (unit mm)*
G04 Created by KiCad (PCBNEW 9.0.1) date 2025-05-12 18:56:40*
%MOMM*%
%LPD*%
G01*
G04 APERTURE LIST*
G04 Aperture macros list*
%AMRoundRect*
0 Rectangle with rounded corners*
0 $1 Rounding radius*
0 $2 $3 $4 $5 $6 $7 $8 $9 X,Y pos of 4 corners*
0 Add a 4 corners polygon primitive as box body*
4,1,4,$2,$3,$4,$5,$6,$7,$8,$9,$2,$3,0*
0 Add four circle primitives for the rounded corners*
1,1,$1+$1,$2,$3*
1,1,$1+$1,$4,$5*
1,1,$1+$1,$6,$7*
1,1,$1+$1,$8,$9*
0 Add four rect primitives between the rounded corners*
20,1,$1+$1,$2,$3,$4,$5,0*
20,1,$1+$1,$4,$5,$6,$7,0*
20,1,$1+$1,$6,$7,$8,$9,0*
20,1,$1+$1,$8,$9,$2,$3,0*%
G04 Aperture macros list end*
%TA.AperFunction,ComponentPad*%
%ADD10R,2.000000X2.000000*%
%TD*%
%TA.AperFunction,ComponentPad*%
%ADD11RoundRect,0.250000X0.750000X-0.600000X0.750000X0.600000X-0.750000X0.600000X-0.750000X-0.600000X0*%
%TD*%
%TA.AperFunction,ComponentPad*%
%ADD12O,2.000000X1.700000*%
%TD*%
%TA.AperFunction,ComponentPad*%
%ADD13RoundRect,0.250000X0.550000X-0.550000X0.550000X0.550000X-0.550000X0.550000X-0.550000X-0.550000X0*%
%TD*%
%TA.AperFunction,ComponentPad*%
%ADD14C,1.600000*%
%TD*%
%TA.AperFunction,ComponentPad*%
%ADD15RoundRect,0.250000X-0.750000X0.600000X-0.750000X-0.600000X0.750000X-0.600000X0.750000X0.600000X0*%
%TD*%
%TA.AperFunction,ComponentPad*%
%ADD16R,1.508000X1.508000*%
%TD*%
%TA.AperFunction,ComponentPad*%
%ADD17C,1.508000*%
%TD*%
%TA.AperFunction,ComponentPad*%
%ADD18R,1.700000X1.700000*%
%TD*%
%TA.AperFunction,ComponentPad*%
%ADD19O,1.700000X1.700000*%
%TD*%
%TA.AperFunction,ComponentPad*%
%ADD20RoundRect,0.250000X-0.725000X0.600000X-0.725000X-0.600000X0.725000X-0.600000X0.725000X0.600000X0*%
%TD*%
%TA.AperFunction,ComponentPad*%
%ADD21O,1.950000X1.700000*%
%TD*%
%TA.AperFunction,ComponentPad*%
%ADD22R,1.600000X1.600000*%
%TD*%
%TA.AperFunction,ComponentPad*%
%ADD23R,1.300000X1.300000*%
%TD*%
%TA.AperFunction,ComponentPad*%
%ADD24C,1.300000*%
%TD*%
G04 APERTURE END LIST*
D10*
%TO.N,N/C*%
%TO.C,REF\u002A\u002A*%
X137500000Y-115250000D03*
%TD*%
D11*
%TO.N,/Vin*%
%TO.C,5V*%
X160700000Y-100750000D03*
D12*
%TO.N,GND*%
X160700000Y-98250000D03*
%TD*%
D13*
%TO.N,/24V*%
%TO.C,SW*%
X167000000Y-115370000D03*
D14*
%TO.N,/Switch*%
X167000000Y-107750000D03*
%TD*%
D15*
%TO.N,Net-(RX1-Pin_1)*%
%TO.C,RX/TX*%
X116250000Y-97000000D03*
D12*
%TO.N,Net-(RX1-Pin_2)*%
X116250000Y-99500000D03*
%TD*%
D16*
%TO.N,GND*%
%TO.C,TMC_2209*%
X142400000Y-96170000D03*
D17*
%TO.N,/VIO*%
X142400000Y-98710000D03*
%TO.N,/A1*%
X142400000Y-101250000D03*
%TO.N,/A2*%
X142400000Y-103790000D03*
%TO.N,/B1*%
X142400000Y-106330000D03*
%TO.N,/B2*%
X142400000Y-108870000D03*
%TO.N,GND*%
X142400000Y-111410000D03*
%TO.N,/24V*%
X142400000Y-113950000D03*
%TO.N,Net-(TMC_2209-DIR)*%
X155100000Y-96170000D03*
%TO.N,Net-(TMC_2209-STEP)*%
X155100000Y-98710000D03*
%TO.N,unconnected-(TMC_2209-CLK-Pad11)*%
X155100000Y-101250000D03*
%TO.N,Net-(TMC_2209-TX)*%
X155100000Y-103790000D03*
%TO.N,Net-(TMC_2209-RX)*%
X155100000Y-106330000D03*
%TO.N,unconnected-(TMC_2209-MS2-Pad14)*%
X155100000Y-108870000D03*
%TO.N,unconnected-(TMC_2209-MS1-Pad15)*%
X155100000Y-111410000D03*
%TO.N,Net-(TMC_2209-~{EN})*%
X155100000Y-113950000D03*
%TO.N,unconnected-(TMC_2209-INDEX-Pad17)*%
X150020000Y-113950000D03*
%TO.N,unconnected-(TMC_2209-DIAG-Pad18)*%
X152560000Y-113950000D03*
%TD*%
D10*
%TO.N,N/C*%
%TO.C,REF\u002A\u002A*%
X121500000Y-115250000D03*
%TD*%
D18*
%TO.N,GND*%
%TO.C,Ground*%
X167250000Y-103370000D03*
D19*
X167250000Y-100830000D03*
X167250000Y-98290000D03*
X167250000Y-95750000D03*
%TD*%
D14*
%TO.N,/24V*%
%TO.C,C1*%
X175000000Y-116500000D03*
%TO.N,GND*%
X172500000Y-116500000D03*
%TD*%
D15*
%TO.N,GND*%
%TO.C,24V*%
X174000000Y-109000000D03*
D12*
%TO.N,/Switch*%
X174000000Y-111500000D03*
%TD*%
D20*
%TO.N,/A1*%
%TO.C,Stepper*%
X116250000Y-106750000D03*
D21*
%TO.N,/A2*%
X116250000Y-109250000D03*
%TO.N,/B1*%
X116250000Y-111750000D03*
%TO.N,/B2*%
X116250000Y-114250000D03*
%TD*%
D22*
%TO.N,unconnected-(Teensy1-GND-Pad1)*%
%TO.C,Teensy1*%
X174570000Y-75948400D03*
D14*
%TO.N,Net-(TMC_2209-TX)*%
X172030000Y-75948400D03*
%TO.N,Net-(TMC_2209-RX)*%
X169490000Y-75948400D03*
%TO.N,Net-(TMC_2209-~{EN})*%
X166950000Y-75948400D03*
%TO.N,Net-(TMC_2209-STEP)*%
X164410000Y-75948400D03*
%TO.N,Net-(TMC_2209-DIR)*%
X161870000Y-75948400D03*
%TO.N,unconnected-(Teensy1-5_IN2-Pad7)*%
X159330000Y-75948400D03*
%TO.N,unconnected-(Teensy1-6_OUT1D-Pad8)*%
X156790000Y-75948400D03*
%TO.N,Net-(RX1-Pin_2)*%
X154250000Y-75948400D03*
%TO.N,Net-(RX1-Pin_1)*%
X151710000Y-75948400D03*
%TO.N,unconnected-(Teensy1-9_OUT1C-Pad11)*%
X149170000Y-75948400D03*
%TO.N,unconnected-(Teensy1-10_CS_MQSR-Pad12)*%
X146630000Y-75948400D03*
%TO.N,unconnected-(Teensy1-11_MOSI_CTX1-Pad13)*%
X144090000Y-75948400D03*
%TO.N,unconnected-(Teensy1-12_MISO_MQSL-Pad14)*%
X141550000Y-75948400D03*
%TO.N,unconnected-(Teensy1-3V3-Pad15)*%
X139010000Y-75948400D03*
%TO.N,unconnected-(Teensy1-24_A10_TX6_SCL2-Pad16)*%
X136470000Y-75948400D03*
%TO.N,unconnected-(Teensy1-25_A11_RX6_SDA2-Pad17)*%
X133930000Y-75948400D03*
%TO.N,unconnected-(Teensy1-26_A12_MOSI1-Pad18)*%
X131390000Y-75948400D03*
%TO.N,unconnected-(Teensy1-27_A13_SCK1-Pad19)*%
X128850000Y-75948400D03*
%TO.N,unconnected-(Teensy1-28_RX7-Pad20)*%
X126310000Y-75948400D03*
%TO.N,unconnected-(Teensy1-29_TX7-Pad21)*%
X123770000Y-75948400D03*
%TO.N,unconnected-(Teensy1-30_CRX3-Pad22)*%
X121230000Y-75948400D03*
%TO.N,unconnected-(Teensy1-31_CTX3-Pad23)*%
X118690000Y-75948400D03*
%TO.N,unconnected-(Teensy1-32_OUT1B-Pad24)*%
X116150000Y-75948400D03*
%TO.N,unconnected-(Teensy1-33_MCLK2-Pad25)*%
X116150000Y-91188400D03*
%TO.N,unconnected-(Teensy1-34_RX8-Pad26)*%
X118690000Y-91188400D03*
%TO.N,unconnected-(Teensy1-35_TX8-Pad27)*%
X121230000Y-91188400D03*
%TO.N,unconnected-(Teensy1-36_CS-Pad28)*%
X123770000Y-91188400D03*
%TO.N,unconnected-(Teensy1-37_CS-Pad29)*%
X126310000Y-91188400D03*
%TO.N,unconnected-(Teensy1-38_CS1_IN1-Pad30)*%
X128850000Y-91188400D03*
%TO.N,unconnected-(Teensy1-39_MISO1_OUT1A-Pad31)*%
X131390000Y-91188400D03*
%TO.N,unconnected-(Teensy1-40_A16-Pad32)*%
X133930000Y-91188400D03*
%TO.N,unconnected-(Teensy1-41_A17-Pad33)*%
X136470000Y-91188400D03*
%TO.N,unconnected-(Teensy1-GND-Pad34)*%
X139010000Y-91188400D03*
%TO.N,unconnected-(Teensy1-13_SCK_LED-Pad35)*%
X141550000Y-91188400D03*
%TO.N,unconnected-(Teensy1-14_A0_TX3_SPDIF_OUT-Pad36)*%
X144090000Y-91188400D03*
%TO.N,unconnected-(Teensy1-15_A1_RX3_SPDIF_IN-Pad37)*%
X146630000Y-91188400D03*
%TO.N,unconnected-(Teensy1-16_A2_RX4_SCL1-Pad38)*%
X149170000Y-91188400D03*
%TO.N,unconnected-(Teensy1-17_A3_TX4_SDA1-Pad39)*%
X151710000Y-91188400D03*
%TO.N,Net-(Linear1-Pin_3)*%
X154250000Y-91188400D03*
%TO.N,Net-(Linear1-Pin_2)*%
X156790000Y-91188400D03*
%TO.N,unconnected-(Teensy1-20_A6_TX5_LRCLK1-Pad42)*%
X159330000Y-91188400D03*
%TO.N,Net-(Linear1-Pin_1)*%
X161870000Y-91188400D03*
%TO.N,unconnected-(Teensy1-22_A8_CTX1-Pad44)*%
X164410000Y-91188400D03*
%TO.N,unconnected-(Teensy1-23_A9_CRX1_MCLK1-Pad45)*%
X166950000Y-91188400D03*
%TO.N,/VIO*%
X169490000Y-91188400D03*
%TO.N,GND*%
X172030000Y-91188400D03*
%TO.N,/Vin*%
X174570000Y-91188400D03*
%TO.N,unconnected-(Teensy1-VUSB-Pad49)*%
X172030000Y-88648400D03*
%TO.N,unconnected-(Teensy1-VBAT-Pad50)*%
X128850000Y-78488400D03*
%TO.N,unconnected-(Teensy1-3V3-Pad51)*%
X128850000Y-81028400D03*
%TO.N,unconnected-(Teensy1-GND-Pad52)*%
X128850000Y-83568400D03*
%TO.N,unconnected-(Teensy1-PROGRAM-Pad53)*%
X128850000Y-86108400D03*
%TO.N,unconnected-(Teensy1-ON_OFF-Pad54)*%
X128850000Y-88648400D03*
D22*
%TO.N,unconnected-(Teensy1-5V-Pad55)*%
X168270800Y-78999200D03*
D14*
%TO.N,unconnected-(Teensy1-D--Pad56)*%
X165730800Y-78999200D03*
%TO.N,unconnected-(Teensy1-D+-Pad57)*%
X163190800Y-78999200D03*
%TO.N,unconnected-(Teensy1-GND-Pad58)*%
X160650800Y-78999200D03*
%TO.N,unconnected-(Teensy1-GND-Pad59)*%
X158110800Y-78999200D03*
D23*
%TO.N,unconnected-(Teensy1-R+-Pad60)*%
X161600000Y-88750000D03*
D24*
%TO.N,unconnected-(Teensy1-LED-Pad61)*%
X161600000Y-86750000D03*
%TO.N,unconnected-(Teensy1-T--Pad62)*%
X161600000Y-84750000D03*
%TO.N,unconnected-(Teensy1-T+-Pad63)*%
X159600000Y-84750000D03*
%TO.N,unconnected-(Teensy1-GND-Pad64)*%
X159600000Y-86750000D03*
%TO.N,unconnected-(Teensy1-R--Pad65)*%
X159600000Y-88750000D03*
%TO.N,unconnected-(Teensy1-D--Pad66)*%
X173840000Y-84838400D03*
%TO.N,unconnected-(Teensy1-D+-Pad67)*%
X173840000Y-82298400D03*
%TD*%
D20*
%TO.N,Net-(Linear1-Pin_1)*%
%TO.C,Linear Actuator*%
X174000000Y-97000000D03*
D21*
%TO.N,Net-(Linear1-Pin_2)*%
X174000000Y-99500000D03*
%TO.N,Net-(Linear1-Pin_3)*%
X174000000Y-102000000D03*
%TD*%
D18*
%TO.N,unconnected-(5V_BUCK1-SHDN-Pad1)*%
%TO.C,5V_BUCK*%
X161000000Y-115330000D03*
D19*
%TO.N,/24V*%
X161000000Y-112790000D03*
%TO.N,GND*%
X161000000Y-110250000D03*
%TO.N,/Vin*%
X161000000Y-107710000D03*
%TD*%
%TA.AperFunction,Conductor*%
%TO.N,GND*%
G36*
X167500000Y-102936988D02*
G01*
X167442993Y-102904075D01*
X167315826Y-102870000D01*
X167184174Y-102870000D01*
X167057007Y-102904075D01*
X167000000Y-102936988D01*
X167000000Y-101263012D01*
X167057007Y-101295925D01*
X167184174Y-101330000D01*
X167315826Y-101330000D01*
X167442993Y-101295925D01*
X167500000Y-101263012D01*
X167500000Y-102936988D01*
G37*
%TD.AperFunction*%
%TA.AperFunction,Conductor*%
G36*
X167500000Y-100396988D02*
G01*
X167442993Y-100364075D01*
X167315826Y-100330000D01*
X167184174Y-100330000D01*
X167057007Y-100364075D01*
X167000000Y-100396988D01*
X167000000Y-98723012D01*
X167057007Y-98755925D01*
X167184174Y-98790000D01*
X167315826Y-98790000D01*
X167442993Y-98755925D01*
X167500000Y-98723012D01*
X167500000Y-100396988D01*
G37*
%TD.AperFunction*%
%TA.AperFunction,Conductor*%
G36*
X167500000Y-97856988D02*
G01*
X167442993Y-97824075D01*
X167315826Y-97790000D01*
X167184174Y-97790000D01*
X167057007Y-97824075D01*
X167000000Y-97856988D01*
X167000000Y-96183012D01*
X167057007Y-96215925D01*
X167184174Y-96250000D01*
X167315826Y-96250000D01*
X167442993Y-96215925D01*
X167500000Y-96183012D01*
X167500000Y-97856988D01*
G37*
%TD.AperFunction*%
%TA.AperFunction,Conductor*%
G36*
X176196488Y-71020185D02*
G01*
X176242243Y-71072989D01*
X176252187Y-71142147D01*
X176223162Y-71205703D01*
X176202337Y-71224815D01*
X176022490Y-71355483D01*
X176022488Y-71355485D01*
X176022487Y-71355485D01*
X175855485Y-71522487D01*
X175855485Y-71522488D01*
X175855483Y-71522490D01*
X175795862Y-71604550D01*
X175716657Y-71713566D01*
X175609433Y-71924003D01*
X175536446Y-72148631D01*
X175499500Y-72381902D01*
X175499500Y-72618097D01*
X175536446Y-72851368D01*
X175609433Y-73075996D01*
X175700641Y-73255000D01*
X175716657Y-73286433D01*
X175855483Y-73477510D01*
X176022490Y-73644517D01*
X176213567Y-73783343D01*
X176312991Y-73834002D01*
X176424003Y-73890566D01*
X176424005Y-73890566D01*
X176424008Y-73890568D01*
X176544412Y-73929689D01*
X176648631Y-73963553D01*
X176881903Y-74000500D01*
X176881908Y-74000500D01*
X177118097Y-74000500D01*
X177351368Y-73963553D01*
X177575992Y-73890568D01*
X177786433Y-73783343D01*
X177977510Y-73644517D01*
X178144517Y-73477510D01*
X178275183Y-73297664D01*
X178330512Y-73255000D01*
X178400126Y-73249021D01*
X178461920Y-73281627D01*
X178496278Y-73342466D01*
X178499500Y-73370551D01*
X178499500Y-122629448D01*
X178479815Y-122696487D01*
X178427011Y-122742242D01*
X178357853Y-122752186D01*
X178294297Y-122723161D01*
X178275182Y-122702334D01*
X178242632Y-122657533D01*
X178144517Y-122522490D01*
X177977510Y-122355483D01*
X177786433Y-122216657D01*
X177575996Y-122109433D01*
X177351368Y-122036446D01*
X177118097Y-121999500D01*
X177118092Y-121999500D01*
X176881908Y-121999500D01*
X176881903Y-121999500D01*
X176648631Y-122036446D01*
X176424003Y-122109433D01*
X176213566Y-122216657D01*
X176104550Y-122295862D01*
X176022490Y-122355483D01*
X176022488Y-122355485D01*
X176022487Y-122355485D01*
X175855485Y-122522487D01*
X175855485Y-122522488D01*
X175855483Y-122522490D01*
X175795862Y-122604550D01*
X175716657Y-122713566D01*
X175609433Y-122924003D01*
X175536446Y-123148631D01*
X175499500Y-123381902D01*
X175499500Y-123618097D01*
X175536446Y-123851368D01*
X175609433Y-124075996D01*
X175700641Y-124255000D01*
X175716657Y-124286433D01*
X175855483Y-124477510D01*
X176022490Y-124644517D01*
X176202335Y-124775183D01*
X176245000Y-124830512D01*
X176250979Y-124900126D01*
X176218373Y-124961920D01*
X176157534Y-124996278D01*
X176129449Y-124999500D01*
X114370551Y-124999500D01*
X114303512Y-124979815D01*
X114257757Y-124927011D01*
X114247813Y-124857853D01*
X114276838Y-124794297D01*
X114297662Y-124775184D01*
X114477510Y-124644517D01*
X114644517Y-124477510D01*
X114783343Y-124286433D01*
X114890568Y-124075992D01*
X114963553Y-123851368D01*
X114988929Y-123691150D01*
X115000500Y-123618097D01*
X115000500Y-123381902D01*
X114963553Y-123148631D01*
X114890566Y-122924003D01*
X114799358Y-122744999D01*
X114783343Y-122713567D01*
X114644517Y-122522490D01*
X114477510Y-122355483D01*
X114286433Y-122216657D01*
X114075996Y-122109433D01*
X113851368Y-122036446D01*
X113618097Y-121999500D01*
X113618092Y-121999500D01*
X113381908Y-121999500D01*
X113381903Y-121999500D01*
X113148631Y-122036446D01*
X112924003Y-122109433D01*
X112713566Y-122216657D01*
X112604550Y-122295862D01*
X112522490Y-122355483D01*
X112522488Y-122355485D01*
X112522487Y-122355485D01*
X112355485Y-122522487D01*
X112355485Y-122522488D01*
X112355483Y-122522490D01*
X112277773Y-122629448D01*
X112224818Y-122702334D01*
X112169488Y-122744999D01*
X112099874Y-122750978D01*
X112038079Y-122718372D01*
X112003722Y-122657533D01*
X112000500Y-122629448D01*
X112000500Y-106099983D01*
X114774500Y-106099983D01*
X114774500Y-107400001D01*
X114774501Y-107400018D01*
X114785000Y-107502796D01*
X114785001Y-107502799D01*
X114840185Y-107669331D01*
X114840187Y-107669336D01*
X114845717Y-107678301D01*
X114930826Y-107816286D01*
X114932289Y-107818657D01*
X115056344Y-107942712D01*
X115211120Y-108038178D01*
X115257845Y-108090126D01*
X115269068Y-108159088D01*
X115241224Y-108223171D01*
X115233706Y-108231398D01*
X115094889Y-108370215D01*
X114969951Y-108542179D01*
X114873444Y-108731585D01*
X114807753Y-108933760D01*
X114774500Y-109143713D01*
X114774500Y-109356287D01*
X114807754Y-109566243D01*
X114847072Y-109687252D01*
X114873444Y-109768414D01*
X114969951Y-109957820D01*
X115094890Y-110129786D01*
X115245209Y-110280105D01*
X115245214Y-110280109D01*
X115409793Y-110399682D01*
X115452459Y-110455011D01*
X115458438Y-110524625D01*
X115425833Y-110586420D01*
X115409793Y-110600318D01*
X115245214Y-110719890D01*
X115245209Y-110719894D01*
X115094890Y-110870213D01*
X114969951Y-111042179D01*
X114873444Y-111231585D01*
X114807753Y-111433760D01*
X114774500Y-111643713D01*
X114774500Y-111856286D01*
X114800178Y-112018414D01*
X114807754Y-112066243D01*
X114860069Y-112227252D01*
X114873444Y-112268414D01*
X114969951Y-112457820D01*
X115094890Y-112629786D01*
X115245209Y-112780105D01*
X115245214Y-112780109D01*
X115409793Y-112899682D01*
X115452459Y-112955011D01*
X115458438Y-113024625D01*
X115425833Y-113086420D01*
X115409793Y-113100318D01*
X115245214Y-113219890D01*
X115245209Y-113219894D01*
X115094890Y-113370213D01*
X114969951Y-113542179D01*
X114873444Y-113731585D01*
X114807753Y-113933760D01*
X114789544Y-114048731D01*
X114774500Y-114143713D01*
X114774500Y-114356287D01*
X114777071Y-114372517D01*
X114797367Y-114500666D01*
X114807754Y-114566243D01*
X114840558Y-114667204D01*
X114873444Y-114768414D01*
X114969951Y-114957820D01*
X115094890Y-115129786D01*
X115245213Y-115280109D01*
X115417179Y-115405048D01*
X115417181Y-115405049D01*
X115417184Y-115405051D01*
X115606588Y-115501557D01*
X115808757Y-115567246D01*
X116018713Y-115600500D01*
X116018714Y-115600500D01*
X116481286Y-115600500D01*
X116481287Y-115600500D01*
X116691243Y-115567246D01*
X116893412Y-115501557D01*
X117082816Y-115405051D01*
X117106680Y-115387713D01*
X117254786Y-115280109D01*
X117254788Y-115280106D01*
X117254792Y-115280104D01*
X117405104Y-115129792D01*
X117405106Y-115129788D01*
X117405109Y-115129786D01*
X117530048Y-114957820D01*
X117530047Y-114957820D01*
X117530051Y-114957816D01*
X117626557Y-114768412D01*
X117692246Y-114566243D01*
X117725500Y-114356287D01*
X117725500Y-114202135D01*
X119999500Y-114202135D01*
X119999500Y-116297870D01*
X119999501Y-116297876D01*
X120005908Y-116357483D01*
X120056202Y-116492328D01*
X120056206Y-116492335D01*
X120142452Y-116607544D01*
X120142455Y-116607547D01*
X120257664Y-116693793D01*
X120257671Y-116693797D01*
X120392517Y-116744091D01*
X120392516Y-116744091D01*
X120399444Y-116744835D01*
X120452127Y-116750500D01*
X122547872Y-116750499D01*
X122607483Y-116744091D01*
X122742331Y-116693796D01*
X122857546Y-116607546D01*
X122943796Y-116492331D01*
X122994091Y-116357483D01*
X123000500Y-116297873D01*
X123000499Y-114202135D01*
X135999500Y-114202135D01*
X135999500Y-116297870D01*
X135999501Y-116297876D01*
X136005908Y-116357483D01*
X136056202Y-116492328D01*
X136056206Y-116492335D01*
X136142452Y-116607544D01*
X136142455Y-116607547D01*
X136257664Y-116693793D01*
X136257671Y-116693797D01*
X136392517Y-116744091D01*
X136392516Y-116744091D01*
X136399444Y-116744835D01*
X136452127Y-116750500D01*
X138547872Y-116750499D01*
X138607483Y-116744091D01*
X138742331Y-116693796D01*
X138857546Y-116607546D01*
X138943796Y-116492331D01*
X138994091Y-116357483D01*
X139000500Y-116297873D01*
X139000499Y-114202128D01*
X138994091Y-114142517D01*
X138991356Y-114135185D01*
X138943797Y-114007671D01*
X138943795Y-114007668D01*
X138943792Y-114007664D01*
X138857546Y-113892454D01*
X138857544Y-113892452D01*
X138857543Y-113892451D01*
X138742335Y-113806206D01*
X138742328Y-113806202D01*
X138607482Y-113755908D01*
X138607483Y-113755908D01*
X138547883Y-113749501D01*
X138547881Y-113749500D01*
X138547873Y-113749500D01*
X138547864Y-113749500D01*
X136452129Y-113749500D01*
X136452123Y-113749501D01*
X136392516Y-113755908D01*
X136257671Y-113806202D01*
X136257664Y-113806206D01*
X136142455Y-113892452D01*
X136142452Y-113892455D01*
X136056206Y-114007664D01*
X136056202Y-114007671D01*
X136005908Y-114142517D01*
X135999501Y-114202116D01*
X135999501Y-114202123D01*
X135999500Y-114202135D01*
X123000499Y-114202135D01*
X123000499Y-114202128D01*
X122994091Y-114142517D01*
X122991356Y-114135185D01*
X122943797Y-114007671D01*
X122943793Y-114007664D01*
X122857547Y-113892455D01*
X122857544Y-113892452D01*
X122742335Y-113806206D01*
X122742328Y-113806202D01*
X122607482Y-113755908D01*
X122607483Y-113755908D01*
X122547883Y-113749501D01*
X122547881Y-113749500D01*
X122547873Y-113749500D01*
X122547864Y-113749500D01*
X120452129Y-113749500D01*
X120452123Y-113749501D01*
X120392516Y-113755908D01*
X120257671Y-113806202D01*
X120257664Y-113806206D01*
X120142455Y-113892452D01*
X120142452Y-113892455D01*
X120056206Y-114007664D01*
X120056202Y-114007671D01*
X120005908Y-114142517D01*
X119999501Y-114202116D01*
X119999501Y-114202123D01*
X119999500Y-114202135D01*
X117725500Y-114202135D01*
X117725500Y-114143713D01*
X117692246Y-113933757D01*
X117626557Y-113731588D01*
X117530051Y-113542184D01*
X117530049Y-113542181D01*
X117530048Y-113542179D01*
X117405109Y-113370213D01*
X117254792Y-113219896D01*
X117254784Y-113219890D01*
X117090204Y-113100316D01*
X117047540Y-113044989D01*
X117041561Y-112975376D01*
X117074166Y-112913580D01*
X117090199Y-112899686D01*
X117254792Y-112780104D01*
X117405104Y-112629792D01*
X117405106Y-112629788D01*
X117405109Y-112629786D01*
X117530048Y-112457820D01*
X117530047Y-112457820D01*
X117530051Y-112457816D01*
X117626557Y-112268412D01*
X117692246Y-112066243D01*
X117725500Y-111856287D01*
X117725500Y-111643713D01*
X117692246Y-111433757D01*
X117626557Y-111231588D01*
X117626555Y-111231585D01*
X117626555Y-111231583D01*
X117561035Y-111102993D01*
X117530051Y-111042184D01*
X117530049Y-111042181D01*
X117530048Y-111042179D01*
X117405109Y-110870213D01*
X117254792Y-110719896D01*
X117249326Y-110715925D01*
X117090204Y-110600316D01*
X117047540Y-110544989D01*
X117041561Y-110475376D01*
X117074166Y-110413580D01*
X117090199Y-110399686D01*
X117254792Y-110280104D01*
X117405104Y-110129792D01*
X117405106Y-110129788D01*
X117405109Y-110129786D01*
X117530048Y-109957820D01*
X117530047Y-109957820D01*
X117530051Y-109957816D01*
X117626557Y-109768412D01*
X117692246Y-109566243D01*
X117725500Y-109356287D01*
X117725500Y-109143713D01*
X117692246Y-108933757D01*
X117626557Y-108731588D01*
X117530051Y-108542184D01*
X117530049Y-108542181D01*
X117530048Y-108542179D01*
X117405109Y-108370213D01*
X117266294Y-108231398D01*
X117232809Y-108170075D01*
X117237793Y-108100383D01*
X117279665Y-108044450D01*
X117288879Y-108038178D01*
X117294331Y-108034814D01*
X117294334Y-108034814D01*
X117443656Y-107942712D01*
X117567712Y-107818656D01*
X117659814Y-107669334D01*
X117714999Y-107502797D01*
X117725500Y-107400009D01*
X117725499Y-106099992D01*
X117714999Y-105997203D01*
X117659814Y-105830666D01*
X117567712Y-105681344D01*
X117443656Y-105557288D01*
X117294334Y-105465186D01*
X117127797Y-105410001D01*
X117127795Y-105410000D01*
X117025010Y-105399500D01*
X115474998Y-105399500D01*
X115474981Y-105399501D01*
X115372203Y-105410000D01*
X115372200Y-105410001D01*
X115205668Y-105465185D01*
X115205663Y-105465187D01*
X115056342Y-105557289D01*
X114932289Y-105681342D01*
X114840187Y-105830663D01*
X114840185Y-105830668D01*
X114834296Y-105848441D01*
X114785001Y-105997203D01*
X114785001Y-105997204D01*
X114785000Y-105997204D01*
X114774500Y-106099983D01*
X112000500Y-106099983D01*
X112000500Y-96349983D01*
X114749500Y-96349983D01*
X114749500Y-97650001D01*
X114749501Y-97650018D01*
X114760000Y-97752796D01*
X114760001Y-97752799D01*
X114783620Y-97824075D01*
X114815186Y-97919334D01*
X114897322Y-98052499D01*
X114907289Y-98068657D01*
X115031344Y-98192712D01*
X115186120Y-98288178D01*
X115232845Y-98340126D01*
X115244068Y-98409088D01*
X115216224Y-98473171D01*
X115208706Y-98481398D01*
X115069889Y-98620215D01*
X114944951Y-98792179D01*
X114848444Y-98981585D01*
X114782753Y-99183760D01*
X114761219Y-99319723D01*
X114749500Y-99393713D01*
X114749500Y-99606287D01*
X114782754Y-99816243D01*
X114840998Y-99995500D01*
X114848444Y-100018414D01*
X114944951Y-100207820D01*
X115069890Y-100379786D01*
X115220213Y-100530109D01*
X115392179Y-100655048D01*
X115392181Y-100655049D01*
X115392184Y-100655051D01*
X115581588Y-100751557D01*
X115783757Y-100817246D01*
X115993713Y-100850500D01*
X115993714Y-100850500D01*
X116506286Y-100850500D01*
X116506287Y-100850500D01*
X116716243Y-100817246D01*
X116918412Y-100751557D01*
X117107816Y-100655051D01*
X117211116Y-100580000D01*
X117279786Y-100530109D01*
X117279788Y-100530106D01*
X117279792Y-100530104D01*
X117430104Y-100379792D01*
X117430106Y-100379788D01*
X117430109Y-100379786D01*
X117555048Y-100207820D01*
X117555047Y-100207820D01*
X117555051Y-100207816D01*
X117651557Y-100018412D01*
X117717246Y-99816243D01*
X117750500Y-99606287D01*
X117750500Y-99393713D01*
X117717246Y-99183757D01*
X117651557Y-98981588D01*
X117555051Y-98792184D01*
X117537638Y-98768217D01*
X117473026Y-98679285D01*
X117473023Y-98679282D01*
X117430107Y-98620213D01*
X117430104Y-98620208D01*
X117421159Y-98611263D01*
X141145500Y-98611263D01*
X141145500Y-98808736D01*
X141176389Y-99003763D01*
X141230228Y-99169459D01*
X141237409Y-99191561D01*
X141276526Y-99268331D01*
X141327058Y-99367504D01*
X141443115Y-99527246D01*
X141582753Y-99666884D01*
X141732234Y-99775486D01*
X141742499Y-99782944D01*
X141912404Y-99869516D01*
X141963199Y-99917490D01*
X141979994Y-99985311D01*
X141957456Y-100051446D01*
X141912404Y-100090483D01*
X141849684Y-100122442D01*
X141742495Y-100177058D01*
X141582753Y-100293115D01*
X141443115Y-100432753D01*
X141327058Y-100592495D01*
X141237408Y-100768441D01*
X141176389Y-100956236D01*
X141145500Y-101151263D01*
X141145500Y-101348736D01*
X141176389Y-101543763D01*
X141230227Y-101709458D01*
X141237409Y-101731561D01*
X141320031Y-101893713D01*
X141327058Y-101907504D01*
X141443115Y-102067246D01*
X141582753Y-102206884D01*
X141732234Y-102315486D01*
X141742499Y-102322944D01*
X141912404Y-102409516D01*
X141963199Y-102457490D01*
X141979994Y-102525311D01*
X141957456Y-102591446D01*
X141912404Y-102630483D01*
X141760633Y-102707816D01*
X141742495Y-102717058D01*
X141582753Y-102833115D01*
X141443115Y-102972753D01*
X141327058Y-103132495D01*
X141237408Y-103308441D01*
X141176389Y-103496236D01*
X141145500Y-103691263D01*
X141145500Y-103888736D01*
X141176389Y-104083763D01*
X141236196Y-104267827D01*
X141237409Y-104271561D01*
X141327056Y-104447501D01*
X141327058Y-104447504D01*
X141443115Y-104607246D01*
X141582753Y-104746884D01*
X141732234Y-104855486D01*
X141742499Y-104862944D01*
X141912404Y-104949516D01*
X141963199Y-104997490D01*
X141979994Y-105065311D01*
X141957456Y-105131446D01*
X141912404Y-105170483D01*
X141755321Y-105250522D01*
X141742495Y-105257058D01*
X141582753Y-105373115D01*
X141443115Y-105512753D01*
X141327058Y-105672495D01*
X141237408Y-105848441D01*
X141176389Y-106036236D01*
X141145500Y-106231263D01*
X141145500Y-106428736D01*
X141176389Y-106623763D01*
X141220015Y-106758028D01*
X141237409Y-106811561D01*
X141327056Y-106987501D01*
X141327058Y-106987504D01*
X141443115Y-107147246D01*
X141582753Y-107286884D01*
X141729854Y-107393757D01*
X141742499Y-107402944D01*
X141912404Y-107489516D01*
X141963199Y-107537490D01*
X141979994Y-107605311D01*
X141957456Y-107671446D01*
X141912404Y-107710483D01*
X141755321Y-107790522D01*
X141742495Y-107797058D01*
X141582753Y-107913115D01*
X141443115Y-108052753D01*
X141327058Y-108212495D01*
X141237408Y-108388441D01*
X141176389Y-108576236D01*
X141145500Y-108771263D01*
X141145500Y-108968736D01*
X141176389Y-109163763D01*
X141237408Y-109351558D01*
X141237409Y-109351561D01*
X141327056Y-109527501D01*
X141327058Y-109527504D01*
X141443115Y-109687246D01*
X141582753Y-109826884D01*
X141742494Y-109942941D01*
X141742496Y-109942942D01*
X141742499Y-109942944D01*
X141912956Y-110029797D01*
X141963749Y-110077768D01*
X141980544Y-110145589D01*
X141958007Y-110211724D01*
X141912954Y-110250763D01*
X141742767Y-110337479D01*
X141742760Y-110337483D01*
X141707010Y-110363456D01*
X141707010Y-110363457D01*
X142270591Y-110927037D01*
X142207007Y-110944075D01*
X142092993Y-111009901D01*
X141999901Y-111102993D01*
X141934075Y-111217007D01*
X141917037Y-111280590D01*
X141353457Y-110717010D01*
X141353456Y-110717010D01*
X141327483Y-110752760D01*
X141327482Y-110752762D01*
X141237873Y-110928626D01*
X141176876Y-111116353D01*
X141146000Y-111311302D01*
X141146000Y-111508697D01*
X141176876Y-111703646D01*
X141237873Y-111891373D01*
X141327483Y-112067239D01*
X141353457Y-112102988D01*
X141353457Y-112102989D01*
X141917037Y-111539409D01*
X141934075Y-111602993D01*
X141999901Y-111717007D01*
X142092993Y-111810099D01*
X142207007Y-111875925D01*
X142270590Y-111892962D01*
X141707009Y-112456541D01*
X141707010Y-112456542D01*
X141742755Y-112482512D01*
X141742768Y-112482520D01*
X141912953Y-112569235D01*
X141963749Y-112617210D01*
X141980544Y-112685031D01*
X141958006Y-112751166D01*
X141912954Y-112790203D01*
X141751189Y-112872627D01*
X141742495Y-112877058D01*
X141582753Y-112993115D01*
X141443115Y-113132753D01*
X141327058Y-113292495D01*
X141237408Y-113468441D01*
X141176389Y-113656236D01*
X141145500Y-113851263D01*
X141145500Y-114048736D01*
X141176389Y-114243763D01*
X141222865Y-114386800D01*
X141237409Y-114431561D01*
X141306032Y-114566239D01*
X141327058Y-114607504D01*
X141443115Y-114767246D01*
X141582753Y-114906884D01*
X141732234Y-115015486D01*
X141742499Y-115022944D01*
X141918439Y-115112591D01*
X142043637Y-115153270D01*
X142106236Y-115173610D01*
X142301264Y-115204500D01*
X142301269Y-115204500D01*
X142498736Y-115204500D01*
X142693763Y-115173610D01*
X142881561Y-115112591D01*
X143057501Y-115022944D01*
X143147192Y-114957779D01*
X143217246Y-114906884D01*
X143217248Y-114906881D01*
X143217252Y-114906879D01*
X143356879Y-114767252D01*
X143356881Y-114767248D01*
X143356884Y-114767246D01*
X143407779Y-114697192D01*
X143472944Y-114607501D01*
X143562591Y-114431561D01*
X143623610Y-114243763D01*
X143630204Y-114202128D01*
X143654500Y-114048736D01*
X143654500Y-113851263D01*
X148765500Y-113851263D01*
X148765500Y-114048736D01*
X148796389Y-114243763D01*
X148842865Y-114386800D01*
X148857409Y-114431561D01*
X148926032Y-114566239D01*
X148947058Y-114607504D01*
X149063115Y-114767246D01*
X149202753Y-114906884D01*
X149352234Y-115015486D01*
X149362499Y-115022944D01*
X149538439Y-115112591D01*
X149663637Y-115153270D01*
X149726236Y-115173610D01*
X149921264Y-115204500D01*
X149921269Y-115204500D01*
X150118736Y-115204500D01*
X150313763Y-115173610D01*
X150501561Y-115112591D01*
X150677501Y-115022944D01*
X150767192Y-114957779D01*
X150837246Y-114906884D01*
X150837248Y-114906881D01*
X150837252Y-114906879D01*
X150976879Y-114767252D01*
X150976881Y-114767248D01*
X150976884Y-114767246D01*
X151092941Y-114607505D01*
X151092942Y-114607504D01*
X151092944Y-114607501D01*
X151179517Y-114437593D01*
X151227490Y-114386800D01*
X151295311Y-114370005D01*
X151361446Y-114392542D01*
X151400482Y-114437593D01*
X151466032Y-114566239D01*
X151487058Y-114607505D01*
X151603115Y-114767246D01*
X151742753Y-114906884D01*
X151892234Y-115015486D01*
X151902499Y-115022944D01*
X152078439Y-115112591D01*
X152203637Y-115153270D01*
X152266236Y-115173610D01*
X152461264Y-115204500D01*
X152461269Y-115204500D01*
X152658736Y-115204500D01*
X152853763Y-115173610D01*
X153041561Y-115112591D01*
X153217501Y-115022944D01*
X153307192Y-114957779D01*
X153377246Y-114906884D01*
X153377248Y-114906881D01*
X153377252Y-114906879D01*
X153516879Y-114767252D01*
X153516881Y-114767248D01*
X153516884Y-114767246D01*
X153632941Y-114607505D01*
X153632942Y-114607504D01*
X153632944Y-114607501D01*
X153719517Y-114437593D01*
X153767490Y-114386800D01*
X153835311Y-114370005D01*
X153901446Y-114392542D01*
X153940482Y-114437593D01*
X154006032Y-114566239D01*
X154027058Y-114607505D01*
X154143115Y-114767246D01*
X154282753Y-114906884D01*
X154432234Y-115015486D01*
X154442499Y-115022944D01*
X154618439Y-115112591D01*
X154743637Y-115153270D01*
X154806236Y-115173610D01*
X155001264Y-115204500D01*
X155001269Y-115204500D01*
X155198736Y-115204500D01*
X155393763Y-115173610D01*
X155581561Y-115112591D01*
X155757501Y-115022944D01*
X155847192Y-114957779D01*
X155917246Y-114906884D01*
X155917248Y-114906881D01*
X155917252Y-114906879D01*
X156056879Y-114767252D01*
X156056881Y-114767248D01*
X156056884Y-114767246D01*
X156107779Y-114697192D01*
X156172944Y-114607501D01*
X156262591Y-114431561D01*
X156323610Y-114243763D01*
X156330204Y-114202128D01*
X156354500Y-114048736D01*
X156354500Y-113851263D01*
X156323610Y-113656236D01*
X156272136Y-113497816D01*
X156262591Y-113468439D01*
X156172944Y-113292499D01*
X156165486Y-113282234D01*
X156056884Y-113132753D01*
X155917246Y-112993115D01*
X155757505Y-112877058D01*
X155751119Y-112873804D01*
X155587593Y-112790482D01*
X155580155Y-112783458D01*
X155579127Y-112783156D01*
X155577737Y-112781551D01*
X155566770Y-112777100D01*
X155553519Y-112758301D01*
X155536800Y-112742510D01*
X155533956Y-112731026D01*
X155533372Y-112730352D01*
X155533257Y-112729553D01*
X155526517Y-112719991D01*
X155525533Y-112697013D01*
X155520005Y-112674689D01*
X155523776Y-112663620D01*
X155523428Y-112661194D01*
X155523951Y-112660048D01*
X155523529Y-112650185D01*
X155535122Y-112630326D01*
X155542542Y-112608554D01*
X155550693Y-112601491D01*
X155552453Y-112597638D01*
X155555680Y-112595112D01*
X155558755Y-112589846D01*
X155587600Y-112569513D01*
X155757501Y-112482944D01*
X155899479Y-112379792D01*
X155917246Y-112366884D01*
X155917248Y-112366881D01*
X155917252Y-112366879D01*
X156056879Y-112227252D01*
X156056881Y-112227248D01*
X156056884Y-112227246D01*
X156107779Y-112157192D01*
X156172944Y-112067501D01*
X156262591Y-111891561D01*
X156323610Y-111703763D01*
X156339049Y-111606286D01*
X156354500Y-111508736D01*
X156354500Y-111311263D01*
X156323610Y-111116236D01*
X156279859Y-110981585D01*
X156262591Y-110928439D01*
X156172944Y-110752499D01*
X156149255Y-110719894D01*
X156056884Y-110592753D01*
X155917246Y-110453115D01*
X155757505Y-110337058D01*
X155715835Y-110315826D01*
X155587593Y-110250482D01*
X155536800Y-110202510D01*
X155520005Y-110134689D01*
X155542542Y-110068554D01*
X155587593Y-110029517D01*
X155757501Y-109942944D01*
X155885565Y-109849901D01*
X155917246Y-109826884D01*
X155917248Y-109826881D01*
X155917252Y-109826879D01*
X156056879Y-109687252D01*
X156056881Y-109687248D01*
X156056884Y-109687246D01*
X156107779Y-109617192D01*
X156172944Y-109527501D01*
X156262591Y-109351561D01*
X156323610Y-109163763D01*
X156334441Y-109095378D01*
X156354500Y-108968736D01*
X156354500Y-108771263D01*
X156323610Y-108576236D01*
X156272136Y-108417816D01*
X156262591Y-108388439D01*
X156172944Y-108212499D01*
X156165486Y-108202234D01*
X156056884Y-108052753D01*
X155917246Y-107913115D01*
X155757505Y-107797058D01*
X155751119Y-107793804D01*
X155587593Y-107710482D01*
X155580155Y-107703458D01*
X155579127Y-107703156D01*
X155577737Y-107701551D01*
X155566770Y-107697100D01*
X155553519Y-107678301D01*
X155536800Y-107662510D01*
X155533956Y-107651026D01*
X155533372Y-107650352D01*
X155533257Y-107649553D01*
X155526517Y-107639991D01*
X155525533Y-107617013D01*
X155522240Y-107603713D01*
X159649500Y-107603713D01*
X159649500Y-107816287D01*
X159682754Y-108026243D01*
X159743271Y-108212495D01*
X159748444Y-108228414D01*
X159844951Y-108417820D01*
X159969890Y-108589786D01*
X160120213Y-108740109D01*
X160292179Y-108865048D01*
X160292181Y-108865049D01*
X160292184Y-108865051D01*
X160301493Y-108869794D01*
X160352290Y-108917766D01*
X160369087Y-108985587D01*
X160346552Y-109051722D01*
X160301502Y-109090762D01*
X160292443Y-109095378D01*
X160120540Y-109220272D01*
X160120535Y-109220276D01*
X159970276Y-109370535D01*
X159970272Y-109370540D01*
X159845379Y-109542442D01*
X159748904Y-109731782D01*
X159683242Y-109933870D01*
X159683242Y-109933873D01*
X159672769Y-110000000D01*
X160566988Y-110000000D01*
X160534075Y-110057007D01*
X160500000Y-110184174D01*
X160500000Y-110315826D01*
X160534075Y-110442993D01*
X160566988Y-110500000D01*
X159672769Y-110500000D01*
X159683242Y-110566126D01*
X159683242Y-110566129D01*
X159748904Y-110768217D01*
X159845379Y-110957557D01*
X159970272Y-111129459D01*
X159970276Y-111129464D01*
X160120535Y-111279723D01*
X160120540Y-111279727D01*
X160292444Y-111404622D01*
X160301495Y-111409234D01*
X160352292Y-111457208D01*
X160369087Y-111525029D01*
X160346550Y-111591164D01*
X160301499Y-111630202D01*
X160292182Y-111634949D01*
X160120213Y-111759890D01*
X159969890Y-111910213D01*
X159844951Y-112082179D01*
X159748444Y-112271585D01*
X159682753Y-112473760D01*
X159649500Y-112683713D01*
X159649500Y-112896286D01*
X159681815Y-113100319D01*
X159682754Y-113106243D01*
X159743271Y-113292495D01*
X159748444Y-113308414D01*
X159844951Y-113497820D01*
X159969890Y-113669786D01*
X160083430Y-113783326D01*
X160116915Y-113844649D01*
X160111931Y-113914341D01*
X160070059Y-113970274D01*
X160039083Y-113987189D01*
X159907669Y-114036203D01*
X159907664Y-114036206D01*
X159792455Y-114122452D01*
X159792452Y-114122455D01*
X159706206Y-114237664D01*
X159706202Y-114237671D01*
X159655908Y-114372517D01*
X159649561Y-114431558D01*
X159649501Y-114432123D01*
X159649500Y-114432135D01*
X159649500Y-116227870D01*
X159649501Y-116227876D01*
X159655908Y-116287483D01*
X159706202Y-116422328D01*
X159706206Y-116422335D01*
X159792452Y-116537544D01*
X159792455Y-116537547D01*
X159907664Y-116623793D01*
X159907671Y-116623797D01*
X160042517Y-116674091D01*
X160042516Y-116674091D01*
X160049444Y-116674835D01*
X160102127Y-116680500D01*
X161897872Y-116680499D01*
X161957483Y-116674091D01*
X162092331Y-116623796D01*
X162207546Y-116537546D01*
X162293796Y-116422331D01*
X162344091Y-116287483D01*
X162350500Y-116227873D01*
X162350499Y-114769983D01*
X165699500Y-114769983D01*
X165699500Y-115970001D01*
X165699501Y-115970018D01*
X165710000Y-116072796D01*
X165710001Y-116072799D01*
X165765185Y-116239331D01*
X165765187Y-116239336D01*
X165774475Y-116254394D01*
X165857288Y-116388656D01*
X165981344Y-116512712D01*
X166130666Y-116604814D01*
X166297203Y-116659999D01*
X166399991Y-116670500D01*
X167600008Y-116670499D01*
X167702797Y-116659999D01*
X167869334Y-116604814D01*
X168018656Y-116512712D01*
X168133686Y-116397682D01*
X171200000Y-116397682D01*
X171200000Y-116602317D01*
X171232009Y-116804417D01*
X171295244Y-116999031D01*
X171388141Y-117181350D01*
X171388147Y-117181359D01*
X171420523Y-117225921D01*
X171420524Y-117225922D01*
X172100000Y-116546446D01*
X172100000Y-116552661D01*
X172127259Y-116654394D01*
X172179920Y-116745606D01*
X172254394Y-116820080D01*
X172345606Y-116872741D01*
X172447339Y-116900000D01*
X172453553Y-116900000D01*
X171774076Y-117579474D01*
X171818650Y-117611859D01*
X172000968Y-117704755D01*
X172195582Y-117767990D01*
X172397683Y-117800000D01*
X172602317Y-117800000D01*
X172804417Y-117767990D01*
X172999031Y-117704755D01*
X173181349Y-117611859D01*
X173225921Y-117579474D01*
X172546447Y-116900000D01*
X172552661Y-116900000D01*
X172654394Y-116872741D01*
X172745606Y-116820080D01*
X172820080Y-116745606D01*
X172872741Y-116654394D01*
X172900000Y-116552661D01*
X172900000Y-116546448D01*
X173579474Y-117225922D01*
X173579474Y-117225921D01*
X173611859Y-117181349D01*
X173639233Y-117127624D01*
X173687207Y-117076827D01*
X173755028Y-117060031D01*
X173821163Y-117082567D01*
X173860203Y-117127621D01*
X173887713Y-117181611D01*
X174008028Y-117347213D01*
X174152786Y-117491971D01*
X174273226Y-117579474D01*
X174318390Y-117612287D01*
X174434607Y-117671503D01*
X174500776Y-117705218D01*
X174500778Y-117705218D01*
X174500781Y-117705220D01*
X174605137Y-117739127D01*
X174695465Y-117768477D01*
X174796557Y-117784488D01*
X174897648Y-117800500D01*
X174897649Y-117800500D01*
X175102351Y-117800500D01*
X175102352Y-117800500D01*
X175304534Y-117768477D01*
X175499219Y-117705220D01*
X175681610Y-117612287D01*
X175774590Y-117544732D01*
X175847213Y-117491971D01*
X175847215Y-117491968D01*
X175847219Y-117491966D01*
X175991966Y-117347219D01*
X175991968Y-117347215D01*
X175991971Y-117347213D01*
X176044732Y-117274590D01*
X176112287Y-117181610D01*
X176205220Y-116999219D01*
X176268477Y-116804534D01*
X176300500Y-116602352D01*
X176300500Y-116397648D01*
X176284697Y-116297872D01*
X176268477Y-116195465D01*
X176228619Y-116072795D01*
X176205220Y-116000781D01*
X176205218Y-116000778D01*
X176205218Y-116000776D01*
X176162750Y-115917429D01*
X176112287Y-115818390D01*
X176080092Y-115774077D01*
X175991971Y-115652786D01*
X175847213Y-115508028D01*
X175681613Y-115387715D01*
X175681612Y-115387714D01*
X175681610Y-115387713D01*
X175624653Y-115358691D01*
X175499223Y-115294781D01*
X175304534Y-115231522D01*
X175129995Y-115203878D01*
X175102352Y-115199500D01*
X174897648Y-115199500D01*
X174873329Y-115203351D01*
X174695465Y-115231522D01*
X174500776Y-115294781D01*
X174318386Y-115387715D01*
X174152786Y-115508028D01*
X174008028Y-115652786D01*
X173887714Y-115818386D01*
X173860203Y-115872379D01*
X173812227Y-115923174D01*
X173744406Y-115939968D01*
X173678272Y-115917429D01*
X173639234Y-115872376D01*
X173611861Y-115818652D01*
X173579474Y-115774077D01*
X173579474Y-115774076D01*
X172900000Y-116453551D01*
X172900000Y-116447339D01*
X172872741Y-116345606D01*
X172820080Y-116254394D01*
X172745606Y-116179920D01*
X172654394Y-116127259D01*
X172552661Y-116100000D01*
X172546446Y-116100000D01*
X173225922Y-115420524D01*
X173225921Y-115420523D01*
X173181359Y-115388147D01*
X173181350Y-115388141D01*
X172999031Y-115295244D01*
X172804417Y-115232009D01*
X172602317Y-115200000D01*
X172397683Y-115200000D01*
X172195582Y-115232009D01*
X172000968Y-115295244D01*
X171818644Y-115388143D01*
X171774077Y-115420523D01*
X171774077Y-115420524D01*
X172453554Y-116100000D01*
X172447339Y-116100000D01*
X172345606Y-116127259D01*
X172254394Y-116179920D01*
X172179920Y-116254394D01*
X172127259Y-116345606D01*
X172100000Y-116447339D01*
X172100000Y-116453553D01*
X171420524Y-115774077D01*
X171420523Y-115774077D01*
X171388143Y-115818644D01*
X171295244Y-116000968D01*
X171232009Y-116195582D01*
X171200000Y-116397682D01*
X168133686Y-116397682D01*
X168142712Y-116388656D01*
X168161940Y-116357482D01*
X168180299Y-116327719D01*
X168234810Y-116239340D01*
X168234814Y-116239334D01*
X168289999Y-116072797D01*
X168300500Y-115970009D01*
X168300499Y-115295244D01*
X168300499Y-114769998D01*
X168300498Y-114769981D01*
X168289999Y-114667203D01*
X168289998Y-114667200D01*
X168270217Y-114607505D01*
X168234814Y-114500666D01*
X168142712Y-114351344D01*
X168018656Y-114227288D01*
X167869334Y-114135186D01*
X167702797Y-114080001D01*
X167702795Y-114080000D01*
X167600010Y-114069500D01*
X166399998Y-114069500D01*
X166399981Y-114069501D01*
X166297203Y-114080000D01*
X166297200Y-114080001D01*
X166130668Y-114135185D01*
X166130663Y-114135187D01*
X165981342Y-114227289D01*
X165857289Y-114351342D01*
X165765187Y-114500663D01*
X165765186Y-114500666D01*
X165710001Y-114667203D01*
X165710001Y-114667204D01*
X165710000Y-114667204D01*
X165699500Y-114769983D01*
X162350499Y-114769983D01*
X162350499Y-114432128D01*
X162344091Y-114372517D01*
X162338037Y-114356286D01*
X162293797Y-114237671D01*
X162293793Y-114237664D01*
X162207547Y-114122455D01*
X162207544Y-114122452D01*
X162092335Y-114036206D01*
X162092328Y-114036202D01*
X161960917Y-113987189D01*
X161904983Y-113945318D01*
X161880566Y-113879853D01*
X161895418Y-113811580D01*
X161916563Y-113783332D01*
X162030104Y-113669792D01*
X162155051Y-113497816D01*
X162251557Y-113308412D01*
X162317246Y-113106243D01*
X162350500Y-112896287D01*
X162350500Y-112683713D01*
X162317246Y-112473757D01*
X162251557Y-112271588D01*
X162155051Y-112082184D01*
X162155049Y-112082181D01*
X162155048Y-112082179D01*
X162030109Y-111910213D01*
X161879786Y-111759890D01*
X161707817Y-111634949D01*
X161698504Y-111630204D01*
X161647707Y-111582230D01*
X161630912Y-111514409D01*
X161653449Y-111448274D01*
X161683297Y-111418409D01*
X161718289Y-111393713D01*
X172499500Y-111393713D01*
X172499500Y-111606286D01*
X172524408Y-111763553D01*
X172532754Y-111816243D01*
X172563285Y-111910208D01*
X172598444Y-112018414D01*
X172694951Y-112207820D01*
X172819890Y-112379786D01*
X172970213Y-112530109D01*
X173142179Y-112655048D01*
X173142181Y-112655049D01*
X173142184Y-112655051D01*
X173331588Y-112751557D01*
X173533757Y-112817246D01*
X173743713Y-112850500D01*
X173743714Y-112850500D01*
X174256286Y-112850500D01*
X174256287Y-112850500D01*
X174466243Y-112817246D01*
X174668412Y-112751557D01*
X174857816Y-112655051D01*
X174947564Y-112589846D01*
X175029786Y-112530109D01*
X175029788Y-112530106D01*
X175029792Y-112530104D01*
X175180104Y-112379792D01*
X175180106Y-112379788D01*
X175180109Y-112379786D01*
X175305048Y-112207820D01*
X175305047Y-112207820D01*
X175305051Y-112207816D01*
X175401557Y-112018412D01*
X175467246Y-111816243D01*
X175500500Y-111606287D01*
X175500500Y-111393713D01*
X175467246Y-111183757D01*
X175401557Y-110981588D01*
X175305051Y-110792184D01*
X175305049Y-110792181D01*
X175305048Y-110792179D01*
X175180109Y-110620213D01*
X175040931Y-110481035D01*
X175007446Y-110419712D01*
X175012430Y-110350020D01*
X175054302Y-110294087D01*
X175063516Y-110287815D01*
X175218343Y-110192317D01*
X175342315Y-110068345D01*
X175434356Y-109919124D01*
X175434358Y-109919119D01*
X175489505Y-109752697D01*
X175489506Y-109752690D01*
X175499999Y-109649986D01*
X175500000Y-109649973D01*
X175500000Y-109250000D01*
X174433012Y-109250000D01*
X174465925Y-109192993D01*
X174500000Y-109065826D01*
X174500000Y-108934174D01*
X174465925Y-108807007D01*
X174433012Y-108750000D01*
X175499999Y-108750000D01*
X175499999Y-108350028D01*
X175499998Y-108350013D01*
X175489505Y-108247302D01*
X175434358Y-108080880D01*
X175434356Y-108080875D01*
X175342315Y-107931654D01*
X175218345Y-107807684D01*
X175069124Y-107715643D01*
X175069119Y-107715641D01*
X174902697Y-107660494D01*
X174902690Y-107660493D01*
X174799986Y-107650000D01*
X174250000Y-107650000D01*
X174250000Y-108566988D01*
X174192993Y-108534075D01*
X174065826Y-108500000D01*
X173934174Y-108500000D01*
X173807007Y-108534075D01*
X173750000Y-108566988D01*
X173750000Y-107650000D01*
X173200028Y-107650000D01*
X173200012Y-107650001D01*
X173097302Y-107660494D01*
X172930880Y-107715641D01*
X172930875Y-107715643D01*
X172781654Y-107807684D01*
X172657684Y-107931654D01*
X172565643Y-108080875D01*
X172565641Y-108080880D01*
X172510494Y-108247302D01*
X172510493Y-108247309D01*
X172500000Y-108350013D01*
X172500000Y-108750000D01*
X173566988Y-108750000D01*
X173534075Y-108807007D01*
X173500000Y-108934174D01*
X173500000Y-109065826D01*
X173534075Y-109192993D01*
X173566988Y-109250000D01*
X172500001Y-109250000D01*
X172500001Y-109649986D01*
X172510494Y-109752697D01*
X172565641Y-109919119D01*
X172565643Y-109919124D01*
X172657684Y-110068345D01*
X172781654Y-110192315D01*
X172936484Y-110287815D01*
X172983208Y-110339763D01*
X172994431Y-110408726D01*
X172966587Y-110472808D01*
X172959069Y-110481035D01*
X172819889Y-110620215D01*
X172694951Y-110792179D01*
X172598444Y-110981585D01*
X172532753Y-111183760D01*
X172499500Y-111393713D01*
X161718289Y-111393713D01*
X161868051Y-111288015D01*
X161879464Y-111279723D01*
X162029723Y-111129464D01*
X162029727Y-111129459D01*
X162154620Y-110957557D01*
X162251095Y-110768217D01*
X162316757Y-110566129D01*
X162316757Y-110566126D01*
X162327231Y-110500000D01*
X161433012Y-110500000D01*
X161465925Y-110442993D01*
X161500000Y-110315826D01*
X161500000Y-110184174D01*
X161465925Y-110057007D01*
X161433012Y-110000000D01*
X162327231Y-110000000D01*
X162316757Y-109933873D01*
X162316757Y-109933870D01*
X162251095Y-109731782D01*
X162154620Y-109542442D01*
X162029727Y-109370540D01*
X162029723Y-109370535D01*
X161879464Y-109220276D01*
X161879459Y-109220272D01*
X161707555Y-109095377D01*
X161698500Y-109090763D01*
X161647706Y-109042788D01*
X161630912Y-108974966D01*
X161653451Y-108908832D01*
X161698508Y-108869793D01*
X161707816Y-108865051D01*
X161836905Y-108771263D01*
X161879786Y-108740109D01*
X161879788Y-108740106D01*
X161879792Y-108740104D01*
X162030104Y-108589792D01*
X162030106Y-108589788D01*
X162030109Y-108589786D01*
X162155048Y-108417820D01*
X162155047Y-108417820D01*
X162155051Y-108417816D01*
X162251557Y-108228412D01*
X162317246Y-108026243D01*
X162350500Y-107816287D01*
X162350500Y-107647648D01*
X165699500Y-107647648D01*
X165699500Y-107852351D01*
X165731522Y-108054534D01*
X165794781Y-108249223D01*
X165887715Y-108431613D01*
X166008028Y-108597213D01*
X166152786Y-108741971D01*
X166307749Y-108854556D01*
X166318390Y-108862287D01*
X166434607Y-108921503D01*
X166500776Y-108955218D01*
X166500778Y-108955218D01*
X166500781Y-108955220D01*
X166561553Y-108974966D01*
X166695465Y-109018477D01*
X166750830Y-109027246D01*
X166897648Y-109050500D01*
X166897649Y-109050500D01*
X167102351Y-109050500D01*
X167102352Y-109050500D01*
X167304534Y-109018477D01*
X167499219Y-108955220D01*
X167681610Y-108862287D01*
X167806895Y-108771263D01*
X167847213Y-108741971D01*
X167847215Y-108741968D01*
X167847219Y-108741966D01*
X167991966Y-108597219D01*
X167991968Y-108597215D01*
X167991971Y-108597213D01*
X168112284Y-108431614D01*
X168112285Y-108431613D01*
X168112287Y-108431610D01*
X168205220Y-108249219D01*
X168268477Y-108054534D01*
X168300500Y-107852352D01*
X168300500Y-107647648D01*
X168285606Y-107553610D01*
X168268477Y-107445465D01*
X168239127Y-107355137D01*
X168205220Y-107250781D01*
X168205218Y-107250778D01*
X168205218Y-107250776D01*
X168152466Y-107147246D01*
X168112287Y-107068390D01*
X168064186Y-107002184D01*
X167991971Y-106902786D01*
X167847213Y-106758028D01*
X167681613Y-106637715D01*
X167681612Y-106637714D01*
X167681610Y-106637713D01*
X167624653Y-106608691D01*
X167499223Y-106544781D01*
X167304534Y-106481522D01*
X167129995Y-106453878D01*
X167102352Y-106449500D01*
X166897648Y-106449500D01*
X166873329Y-106453351D01*
X166695465Y-106481522D01*
X166500776Y-106544781D01*
X166318386Y-106637715D01*
X166152786Y-106758028D01*
X166008028Y-106902786D01*
X165887715Y-107068386D01*
X165794781Y-107250776D01*
X165731522Y-107445465D01*
X165699500Y-107647648D01*
X162350500Y-107647648D01*
X162350500Y-107603713D01*
X162317246Y-107393757D01*
X162251557Y-107191588D01*
X162155051Y-107002184D01*
X162155049Y-107002181D01*
X162155048Y-107002179D01*
X162030109Y-106830213D01*
X161879786Y-106679890D01*
X161707820Y-106554951D01*
X161518414Y-106458444D01*
X161518413Y-106458443D01*
X161518412Y-106458443D01*
X161316243Y-106392754D01*
X161316241Y-106392753D01*
X161316240Y-106392753D01*
X161154957Y-106367208D01*
X161106287Y-106359500D01*
X160893713Y-106359500D01*
X160845042Y-106367208D01*
X160683760Y-106392753D01*
X160481585Y-106458444D01*
X160292179Y-106554951D01*
X160120213Y-106679890D01*
X159969890Y-106830213D01*
X159844951Y-107002179D01*
X159748444Y-107191585D01*
X159682753Y-107393760D01*
X159654810Y-107570185D01*
X159649500Y-107603713D01*
X155522240Y-107603713D01*
X155520005Y-107594689D01*
X155523776Y-107583620D01*
X155523428Y-107581194D01*
X155523951Y-107580048D01*
X155523529Y-107570185D01*
X155535122Y-107550326D01*
X155542542Y-107528554D01*
X155550693Y-107521491D01*
X155552453Y-107517638D01*
X155555680Y-107515112D01*
X155558755Y-107509846D01*
X155587600Y-107489513D01*
X155757501Y-107402944D01*
X155847192Y-107337779D01*
X155917246Y-107286884D01*
X155917248Y-107286881D01*
X155917252Y-107286879D01*
X156056879Y-107147252D01*
X156056881Y-107147248D01*
X156056884Y-107147246D01*
X156162276Y-107002184D01*
X156172944Y-106987501D01*
X156262591Y-106811561D01*
X156323610Y-106623763D01*
X156346139Y-106481522D01*
X156354500Y-106428736D01*
X156354500Y-106231263D01*
X156323610Y-106036236D01*
X156303270Y-105973637D01*
X156262591Y-105848439D01*
X156172944Y-105672499D01*
X156165486Y-105662234D01*
X156056884Y-105512753D01*
X155917246Y-105373115D01*
X155757505Y-105257058D01*
X155751119Y-105253804D01*
X155587593Y-105170482D01*
X155536800Y-105122510D01*
X155520005Y-105054689D01*
X155542542Y-104988554D01*
X155587593Y-104949517D01*
X155757501Y-104862944D01*
X155777912Y-104848114D01*
X155917246Y-104746884D01*
X155917248Y-104746881D01*
X155917252Y-104746879D01*
X156056879Y-104607252D01*
X156056881Y-104607248D01*
X156056884Y-104607246D01*
X156162347Y-104462086D01*
X156172944Y-104447501D01*
X156262591Y-104271561D01*
X156323610Y-104083763D01*
X156354500Y-103888736D01*
X156354500Y-103691263D01*
X156338150Y-103588036D01*
X156323610Y-103496236D01*
X156276257Y-103350500D01*
X156262591Y-103308439D01*
X156172944Y-103132499D01*
X156163863Y-103120000D01*
X156056884Y-102972753D01*
X155917246Y-102833115D01*
X155757505Y-102717058D01*
X155751119Y-102713804D01*
X155587593Y-102630482D01*
X155578442Y-102621840D01*
X155566776Y-102617105D01*
X155553521Y-102598303D01*
X155536800Y-102582510D01*
X155533773Y-102570289D01*
X155526519Y-102559998D01*
X155525533Y-102537015D01*
X155520005Y-102514689D01*
X155524066Y-102502771D01*
X155523527Y-102490193D01*
X155534055Y-102472155D01*
X165900000Y-102472155D01*
X165900000Y-103120000D01*
X166816988Y-103120000D01*
X166784075Y-103177007D01*
X166750000Y-103304174D01*
X166750000Y-103435826D01*
X166784075Y-103562993D01*
X166816988Y-103620000D01*
X165900000Y-103620000D01*
X165900000Y-104267844D01*
X165906401Y-104327372D01*
X165906403Y-104327379D01*
X165956645Y-104462086D01*
X165956649Y-104462093D01*
X166042809Y-104577187D01*
X166042812Y-104577190D01*
X166157906Y-104663350D01*
X166157913Y-104663354D01*
X166292620Y-104713596D01*
X166292627Y-104713598D01*
X166352155Y-104719999D01*
X166352172Y-104720000D01*
X167000000Y-104720000D01*
X167000000Y-103803012D01*
X167057007Y-103835925D01*
X167184174Y-103870000D01*
X167315826Y-103870000D01*
X167442993Y-103835925D01*
X167500000Y-103803012D01*
X167500000Y-104720000D01*
X168147828Y-104720000D01*
X168147844Y-104719999D01*
X168207372Y-104713598D01*
X168207379Y-104713596D01*
X168342086Y-104663354D01*
X168342093Y-104663350D01*
X168457187Y-104577190D01*
X168457190Y-104577187D01*
X168543350Y-104462093D01*
X168543354Y-104462086D01*
X168593596Y-104327379D01*
X168593598Y-104327372D01*
X168599999Y-104267844D01*
X168600000Y-104267827D01*
X168600000Y-103620000D01*
X167683012Y-103620000D01*
X167715925Y-103562993D01*
X167750000Y-103435826D01*
X167750000Y-103304174D01*
X167715925Y-103177007D01*
X167683012Y-103120000D01*
X168600000Y-103120000D01*
X168600000Y-102472172D01*
X168599999Y-102472155D01*
X168593598Y-102412627D01*
X168593596Y-102412620D01*
X168543354Y-102277913D01*
X168543350Y-102277906D01*
X168457190Y-102162812D01*
X168457187Y-102162809D01*
X168342093Y-102076649D01*
X168342086Y-102076645D01*
X168210013Y-102027385D01*
X168154079Y-101985514D01*
X168129662Y-101920049D01*
X168144514Y-101851776D01*
X168165665Y-101823521D01*
X168279728Y-101709458D01*
X168404620Y-101537557D01*
X168501095Y-101348217D01*
X168566757Y-101146129D01*
X168566757Y-101146126D01*
X168577231Y-101080000D01*
X167683012Y-101080000D01*
X167715925Y-101022993D01*
X167750000Y-100895826D01*
X167750000Y-100764174D01*
X167715925Y-100637007D01*
X167683012Y-100580000D01*
X168577231Y-100580000D01*
X168566757Y-100513873D01*
X168566757Y-100513870D01*
X168501095Y-100311782D01*
X168404620Y-100122442D01*
X168279727Y-99950540D01*
X168279723Y-99950535D01*
X168129464Y-99800276D01*
X168129459Y-99800272D01*
X167957558Y-99675379D01*
X167947954Y-99670486D01*
X167897157Y-99622512D01*
X167880361Y-99554692D01*
X167902897Y-99488556D01*
X167947954Y-99449514D01*
X167957558Y-99444620D01*
X168129459Y-99319727D01*
X168129464Y-99319723D01*
X168279723Y-99169464D01*
X168279727Y-99169459D01*
X168404620Y-98997557D01*
X168501095Y-98808217D01*
X168566757Y-98606129D01*
X168566757Y-98606126D01*
X168577231Y-98540000D01*
X167683012Y-98540000D01*
X167715925Y-98482993D01*
X167750000Y-98355826D01*
X167750000Y-98224174D01*
X167715925Y-98097007D01*
X167683012Y-98040000D01*
X168577231Y-98040000D01*
X168566757Y-97973873D01*
X168566757Y-97973870D01*
X168501095Y-97771782D01*
X168404620Y-97582442D01*
X168279727Y-97410540D01*
X168279723Y-97410535D01*
X168129464Y-97260276D01*
X168129459Y-97260272D01*
X167957558Y-97135379D01*
X167947954Y-97130486D01*
X167897157Y-97082512D01*
X167880361Y-97014692D01*
X167902897Y-96948556D01*
X167947954Y-96909514D01*
X167957558Y-96904620D01*
X168129459Y-96779727D01*
X168129464Y-96779723D01*
X168279723Y-96629464D01*
X168279727Y-96629459D01*
X168404620Y-96457557D01*
X168459433Y-96349983D01*
X172524500Y-96349983D01*
X172524500Y-97650001D01*
X172524501Y-97650018D01*
X172535000Y-97752796D01*
X172535001Y-97752799D01*
X172558620Y-97824075D01*
X172590186Y-97919334D01*
X172672322Y-98052499D01*
X172682289Y-98068657D01*
X172806344Y-98192712D01*
X172961120Y-98288178D01*
X173007845Y-98340126D01*
X173019068Y-98409088D01*
X172991224Y-98473171D01*
X172983706Y-98481398D01*
X172844889Y-98620215D01*
X172719951Y-98792179D01*
X172623444Y-98981585D01*
X172557753Y-99183760D01*
X172536219Y-99319723D01*
X172524500Y-99393713D01*
X172524500Y-99606287D01*
X172557754Y-99816243D01*
X172615998Y-99995500D01*
X172623444Y-100018414D01*
X172719951Y-100207820D01*
X172844890Y-100379786D01*
X172995209Y-100530105D01*
X172995214Y-100530109D01*
X173159793Y-100649682D01*
X173202459Y-100705011D01*
X173208438Y-100774625D01*
X173175833Y-100836420D01*
X173159793Y-100850318D01*
X172995214Y-100969890D01*
X172995209Y-100969894D01*
X172844890Y-101120213D01*
X172719951Y-101292179D01*
X172623444Y-101481585D01*
X172557753Y-101683760D01*
X172536388Y-101818656D01*
X172524500Y-101893713D01*
X172524500Y-102106287D01*
X172557754Y-102316243D01*
X172622233Y-102514689D01*
X172623444Y-102518414D01*
X172719951Y-102707820D01*
X172844890Y-102879786D01*
X172995213Y-103030109D01*
X173167179Y-103155048D01*
X173167181Y-103155049D01*
X173167184Y-103155051D01*
X173356588Y-103251557D01*
X173558757Y-103317246D01*
X173768713Y-103350500D01*
X173768714Y-103350500D01*
X174231286Y-103350500D01*
X174231287Y-103350500D01*
X174441243Y-103317246D01*
X174643412Y-103251557D01*
X174832816Y-103155051D01*
X174959524Y-103062993D01*
X175004786Y-103030109D01*
X175004788Y-103030106D01*
X175004792Y-103030104D01*
X175155104Y-102879792D01*
X175155106Y-102879788D01*
X175155109Y-102879786D01*
X175280048Y-102707820D01*
X175280047Y-102707820D01*
X175280051Y-102707816D01*
X175376557Y-102518412D01*
X175442246Y-102316243D01*
X175475500Y-102106287D01*
X175475500Y-101893713D01*
X175442246Y-101683757D01*
X175376557Y-101481588D01*
X175280051Y-101292184D01*
X175280049Y-101292181D01*
X175280048Y-101292179D01*
X175155109Y-101120213D01*
X175004792Y-100969896D01*
X174985990Y-100956236D01*
X174840204Y-100850316D01*
X174797540Y-100794989D01*
X174791561Y-100725376D01*
X174824166Y-100663580D01*
X174840199Y-100649686D01*
X175004792Y-100530104D01*
X175155104Y-100379792D01*
X175155106Y-100379788D01*
X175155109Y-100379786D01*
X175280048Y-100207820D01*
X175280047Y-100207820D01*
X175280051Y-100207816D01*
X175376557Y-100018412D01*
X175442246Y-99816243D01*
X175475500Y-99606287D01*
X175475500Y-99393713D01*
X175442246Y-99183757D01*
X175376557Y-98981588D01*
X175280051Y-98792184D01*
X175280049Y-98792181D01*
X175280048Y-98792179D01*
X175155109Y-98620213D01*
X175016294Y-98481398D01*
X174982809Y-98420075D01*
X174987793Y-98350383D01*
X175029665Y-98294450D01*
X175038879Y-98288178D01*
X175044331Y-98284814D01*
X175044334Y-98284814D01*
X175193656Y-98192712D01*
X175317712Y-98068656D01*
X175409814Y-97919334D01*
X175464999Y-97752797D01*
X175475500Y-97650009D01*
X175475499Y-96349992D01*
X175464999Y-96247203D01*
X175409814Y-96080666D01*
X175317712Y-95931344D01*
X175193656Y-95807288D01*
X175044334Y-95715186D01*
X174877797Y-95660001D01*
X174877795Y-95660000D01*
X174775010Y-95649500D01*
X173224998Y-95649500D01*
X173224981Y-95649501D01*
X173122203Y-95660000D01*
X173122200Y-95660001D01*
X172955668Y-95715185D01*
X172955663Y-95715187D01*
X172806342Y-95807289D01*
X172682289Y-95931342D01*
X172590187Y-96080663D01*
X172590186Y-96080666D01*
X172535001Y-96247203D01*
X172535001Y-96247204D01*
X172535000Y-96247204D01*
X172524500Y-96349983D01*
X168459433Y-96349983D01*
X168489722Y-96290539D01*
X168501095Y-96268217D01*
X168566757Y-96066129D01*
X168566757Y-96066126D01*
X168577231Y-96000000D01*
X167683012Y-96000000D01*
X167715925Y-95942993D01*
X167750000Y-95815826D01*
X167750000Y-95684174D01*
X167715925Y-95557007D01*
X167683012Y-95500000D01*
X168577231Y-95500000D01*
X168566757Y-95433873D01*
X168566757Y-95433870D01*
X168501095Y-95231782D01*
X168404620Y-95042442D01*
X168279727Y-94870540D01*
X168279723Y-94870535D01*
X168129464Y-94720276D01*
X168129459Y-94720272D01*
X167957557Y-94595379D01*
X167768215Y-94498903D01*
X167566124Y-94433241D01*
X167500000Y-94422768D01*
X167500000Y-95316988D01*
X167442993Y-95284075D01*
X167315826Y-95250000D01*
X167184174Y-95250000D01*
X167057007Y-95284075D01*
X167000000Y-95316988D01*
X167000000Y-94422768D01*
X166999999Y-94422768D01*
X166933875Y-94433241D01*
X166731784Y-94498903D01*
X166542442Y-94595379D01*
X166370540Y-94720272D01*
X166370535Y-94720276D01*
X166220276Y-94870535D01*
X166220272Y-94870540D01*
X166095379Y-95042442D01*
X165998904Y-95231782D01*
X165933242Y-95433870D01*
X165933242Y-95433873D01*
X165922769Y-95500000D01*
X166816988Y-95500000D01*
X166784075Y-95557007D01*
X166750000Y-95684174D01*
X166750000Y-95815826D01*
X166784075Y-95942993D01*
X166816988Y-96000000D01*
X165922769Y-96000000D01*
X165933242Y-96066126D01*
X165933242Y-96066129D01*
X165998904Y-96268217D01*
X166095379Y-96457557D01*
X166220272Y-96629459D01*
X166220276Y-96629464D01*
X166370535Y-96779723D01*
X166370540Y-96779727D01*
X166542444Y-96904622D01*
X166552048Y-96909516D01*
X166602844Y-96957491D01*
X166619638Y-97025312D01*
X166597100Y-97091447D01*
X166552048Y-97130484D01*
X166542444Y-97135377D01*
X166370540Y-97260272D01*
X166370535Y-97260276D01*
X166220276Y-97410535D01*
X166220272Y-97410540D01*
X166095379Y-97582442D01*
X165998904Y-97771782D01*
X165933242Y-97973870D01*
X165933242Y-97973873D01*
X165922769Y-98040000D01*
X166816988Y-98040000D01*
X166784075Y-98097007D01*
X166750000Y-98224174D01*
X166750000Y-98355826D01*
X166784075Y-98482993D01*
X166816988Y-98540000D01*
X165922769Y-98540000D01*
X165933242Y-98606126D01*
X165933242Y-98606129D01*
X165998904Y-98808217D01*
X166095379Y-98997557D01*
X166220272Y-99169459D01*
X166220276Y-99169464D01*
X166370535Y-99319723D01*
X166370540Y-99319727D01*
X166542444Y-99444622D01*
X166552048Y-99449516D01*
X166602844Y-99497491D01*
X166619638Y-99565312D01*
X166597100Y-99631447D01*
X166552048Y-99670484D01*
X166542444Y-99675377D01*
X166370540Y-99800272D01*
X166370535Y-99800276D01*
X166220276Y-99950535D01*
X166220272Y-99950540D01*
X166095379Y-100122442D01*
X165998904Y-100311782D01*
X165933242Y-100513870D01*
X165933242Y-100513873D01*
X165922769Y-100580000D01*
X166816988Y-100580000D01*
X166784075Y-100637007D01*
X166750000Y-100764174D01*
X166750000Y-100895826D01*
X166784075Y-101022993D01*
X166816988Y-101080000D01*
X165922769Y-101080000D01*
X165933242Y-101146126D01*
X165933242Y-101146129D01*
X165998904Y-101348217D01*
X166095379Y-101537557D01*
X166220272Y-101709459D01*
X166220276Y-101709464D01*
X166334334Y-101823522D01*
X166367819Y-101884845D01*
X166362835Y-101954537D01*
X166320963Y-102010470D01*
X166289987Y-102027385D01*
X166157911Y-102076646D01*
X166157906Y-102076649D01*
X166042812Y-102162809D01*
X166042809Y-102162812D01*
X165956649Y-102277906D01*
X165956645Y-102277913D01*
X165906403Y-102412620D01*
X165906401Y-102412627D01*
X165900000Y-102472155D01*
X155534055Y-102472155D01*
X155535121Y-102470329D01*
X155542542Y-102448554D01*
X155553245Y-102439279D01*
X155558749Y-102429851D01*
X155587591Y-102409518D01*
X155757501Y-102322944D01*
X155777912Y-102308114D01*
X155917246Y-102206884D01*
X155917248Y-102206881D01*
X155917252Y-102206879D01*
X156056879Y-102067252D01*
X156056881Y-102067248D01*
X156056884Y-102067246D01*
X156116265Y-101985514D01*
X156172944Y-101907501D01*
X156262591Y-101731561D01*
X156323610Y-101543763D01*
X156330098Y-101502799D01*
X156354500Y-101348736D01*
X156354500Y-101151263D01*
X156323610Y-100956236D01*
X156278449Y-100817246D01*
X156262591Y-100768439D01*
X156172944Y-100592499D01*
X156163863Y-100580000D01*
X156056884Y-100432753D01*
X155917246Y-100293115D01*
X155791635Y-100201855D01*
X155791631Y-100201853D01*
X155757501Y-100177056D01*
X155606240Y-100099983D01*
X159199500Y-100099983D01*
X159199500Y-101400001D01*
X159199501Y-101400018D01*
X159210000Y-101502796D01*
X159210001Y-101502799D01*
X159265185Y-101669331D01*
X159265187Y-101669336D01*
X159289935Y-101709459D01*
X159357288Y-101818656D01*
X159481344Y-101942712D01*
X159630666Y-102034814D01*
X159797203Y-102089999D01*
X159899991Y-102100500D01*
X161500008Y-102100499D01*
X161602797Y-102089999D01*
X161769334Y-102034814D01*
X161918656Y-101942712D01*
X162042712Y-101818656D01*
X162134814Y-101669334D01*
X162189999Y-101502797D01*
X162200500Y-101400009D01*
X162200499Y-100099992D01*
X162192980Y-100026390D01*
X162189999Y-99997203D01*
X162189998Y-99997200D01*
X162186058Y-99985311D01*
X162134814Y-99830666D01*
X162042712Y-99681344D01*
X161918656Y-99557288D01*
X161769334Y-99465186D01*
X161769332Y-99465185D01*
X161763440Y-99461551D01*
X161716716Y-99409603D01*
X161705493Y-99340641D01*
X161733337Y-99276558D01*
X161740856Y-99268330D01*
X161879728Y-99129458D01*
X162004620Y-98957557D01*
X162101095Y-98768217D01*
X162166757Y-98566129D01*
X162166757Y-98566126D01*
X162177231Y-98500000D01*
X161133012Y-98500000D01*
X161165925Y-98442993D01*
X161200000Y-98315826D01*
X161200000Y-98184174D01*
X161165925Y-98057007D01*
X161133012Y-98000000D01*
X162177231Y-98000000D01*
X162166757Y-97933873D01*
X162166757Y-97933870D01*
X162101095Y-97731782D01*
X162004620Y-97542442D01*
X161879727Y-97370540D01*
X161879723Y-97370535D01*
X161729464Y-97220276D01*
X161729459Y-97220272D01*
X161557557Y-97095379D01*
X161368217Y-96998904D01*
X161166129Y-96933242D01*
X160956246Y-96900000D01*
X160950000Y-96900000D01*
X160950000Y-97816988D01*
X160892993Y-97784075D01*
X160765826Y-97750000D01*
X160634174Y-97750000D01*
X160507007Y-97784075D01*
X160450000Y-97816988D01*
X160450000Y-96900000D01*
X160443754Y-96900000D01*
X160233872Y-96933242D01*
X160233869Y-96933242D01*
X160031782Y-96998904D01*
X159842442Y-97095379D01*
X159670540Y-97220272D01*
X159670535Y-97220276D01*
X159520276Y-97370535D01*
X159520272Y-97370540D01*
X159395379Y-97542442D01*
X159298904Y-97731782D01*
X159233242Y-97933870D01*
X159233242Y-97933873D01*
X159222769Y-98000000D01*
X160266988Y-98000000D01*
X160234075Y-98057007D01*
X160200000Y-98184174D01*
X160200000Y-98315826D01*
X160234075Y-98442993D01*
X160266988Y-98500000D01*
X159222769Y-98500000D01*
X159233242Y-98566126D01*
X159233242Y-98566129D01*
X159298904Y-98768217D01*
X159395379Y-98957557D01*
X159520272Y-99129459D01*
X159520276Y-99129464D01*
X159659143Y-99268331D01*
X159692628Y-99329654D01*
X159687644Y-99399346D01*
X159645772Y-99455279D01*
X159636559Y-99461551D01*
X159481342Y-99557289D01*
X159357289Y-99681342D01*
X159265187Y-99830663D01*
X159265186Y-99830666D01*
X159210001Y-99997203D01*
X159210001Y-99997204D01*
X159210000Y-99997204D01*
X159199500Y-100099983D01*
X155606240Y-100099983D01*
X155586033Y-100089687D01*
X155584505Y-100088854D01*
X155560981Y-100065348D01*
X155536800Y-100042510D01*
X155536364Y-100040750D01*
X155535081Y-100039468D01*
X155527999Y-100006971D01*
X155520005Y-99974689D01*
X155520590Y-99972971D01*
X155520204Y-99971200D01*
X155531809Y-99940047D01*
X155542542Y-99908554D01*
X155544019Y-99907273D01*
X155544596Y-99905727D01*
X155553523Y-99899038D01*
X155587593Y-99869517D01*
X155757501Y-99782944D01*
X155777912Y-99768114D01*
X155917246Y-99666884D01*
X155917248Y-99666881D01*
X155917252Y-99666879D01*
X156056879Y-99527252D01*
X156056881Y-99527248D01*
X156056884Y-99527246D01*
X156113357Y-99449516D01*
X156172944Y-99367501D01*
X156262591Y-99191561D01*
X156323610Y-99003763D01*
X156330928Y-98957557D01*
X156354500Y-98808736D01*
X156354500Y-98611263D01*
X156323610Y-98416236D01*
X156298839Y-98339999D01*
X156262591Y-98228439D01*
X156172944Y-98052499D01*
X156172942Y-98052496D01*
X156172941Y-98052494D01*
X156056884Y-97892753D01*
X155917246Y-97753115D01*
X155757505Y-97637058D01*
X155742089Y-97629203D01*
X155587593Y-97550482D01*
X155536800Y-97502510D01*
X155520005Y-97434689D01*
X155542542Y-97368554D01*
X155587593Y-97329517D01*
X155757501Y-97242944D01*
X155788707Y-97220272D01*
X155917246Y-97126884D01*
X155917248Y-97126881D01*
X155917252Y-97126879D01*
X156056879Y-96987252D01*
X156056881Y-96987248D01*
X156056884Y-96987246D01*
X156113357Y-96909516D01*
X156172944Y-96827501D01*
X156262591Y-96651561D01*
X156323610Y-96463763D01*
X156324593Y-96457557D01*
X156354500Y-96268736D01*
X156354500Y-96071263D01*
X156340415Y-95982334D01*
X156330541Y-95920000D01*
X156323610Y-95876237D01*
X156262591Y-95688439D01*
X156172944Y-95512499D01*
X156172942Y-95512496D01*
X156172941Y-95512494D01*
X156056884Y-95352753D01*
X155917246Y-95213115D01*
X155757504Y-95097058D01*
X155757503Y-95097057D01*
X155757501Y-95097056D01*
X155581561Y-95007409D01*
X155581558Y-95007408D01*
X155393763Y-94946389D01*
X155198736Y-94915500D01*
X155198731Y-94915500D01*
X155001269Y-94915500D01*
X155001264Y-94915500D01*
X154806236Y-94946389D01*
X154618441Y-95007408D01*
X154442495Y-95097058D01*
X154282753Y-95213115D01*
X154143115Y-95352753D01*
X154027058Y-95512495D01*
X153937408Y-95688441D01*
X153876389Y-95876236D01*
X153845500Y-96071263D01*
X153845500Y-96268736D01*
X153876389Y-96463763D01*
X153937408Y-96651558D01*
X153937409Y-96651561D01*
X154002712Y-96779723D01*
X154027058Y-96827504D01*
X154143115Y-96987246D01*
X154282753Y-97126884D01*
X154411293Y-97220272D01*
X154442499Y-97242944D01*
X154612404Y-97329516D01*
X154663199Y-97377490D01*
X154679994Y-97445311D01*
X154657456Y-97511446D01*
X154612404Y-97550483D01*
X154457911Y-97629203D01*
X154442495Y-97637058D01*
X154282753Y-97753115D01*
X154143115Y-97892753D01*
X154027058Y-98052495D01*
X153937408Y-98228441D01*
X153876389Y-98416236D01*
X153845500Y-98611263D01*
X153845500Y-98808736D01*
X153876389Y-99003763D01*
X153930228Y-99169459D01*
X153937409Y-99191561D01*
X153976526Y-99268331D01*
X154027058Y-99367504D01*
X154143115Y-99527246D01*
X154282753Y-99666884D01*
X154432234Y-99775486D01*
X154442499Y-99782944D01*
X154612404Y-99869516D01*
X154663199Y-99917490D01*
X154679994Y-99985311D01*
X154657456Y-100051446D01*
X154612404Y-100090483D01*
X154549684Y-100122442D01*
X154442495Y-100177058D01*
X154282753Y-100293115D01*
X154143115Y-100432753D01*
X154027058Y-100592495D01*
X153937408Y-100768441D01*
X153876389Y-100956236D01*
X153845500Y-101151263D01*
X153845500Y-101348736D01*
X153876389Y-101543763D01*
X153930227Y-101709458D01*
X153937409Y-101731561D01*
X154020031Y-101893713D01*
X154027058Y-101907504D01*
X154143115Y-102067246D01*
X154282753Y-102206884D01*
X154432234Y-102315486D01*
X154442499Y-102322944D01*
X154612404Y-102409516D01*
X154663199Y-102457490D01*
X154679994Y-102525311D01*
X154657456Y-102591446D01*
X154612404Y-102630483D01*
X154460633Y-102707816D01*
X154442495Y-102717058D01*
X154282753Y-102833115D01*
X154143115Y-102972753D01*
X154027058Y-103132495D01*
X153937408Y-103308441D01*
X153876389Y-103496236D01*
X153845500Y-103691263D01*
X153845500Y-103888736D01*
X153876389Y-104083763D01*
X153936196Y-104267827D01*
X153937409Y-104271561D01*
X154027056Y-104447501D01*
X154027058Y-104447504D01*
X154143115Y-104607246D01*
X154282753Y-104746884D01*
X154432234Y-104855486D01*
X154442499Y-104862944D01*
X154612404Y-104949516D01*
X154663199Y-104997490D01*
X154679994Y-105065311D01*
X154657456Y-105131446D01*
X154612404Y-105170483D01*
X154455321Y-105250522D01*
X154442495Y-105257058D01*
X154282753Y-105373115D01*
X154143115Y-105512753D01*
X154027058Y-105672495D01*
X153937408Y-105848441D01*
X153876389Y-106036236D01*
X153845500Y-106231263D01*
X153845500Y-106428736D01*
X153876389Y-106623763D01*
X153920015Y-106758028D01*
X153937409Y-106811561D01*
X154027056Y-106987501D01*
X154027058Y-106987504D01*
X154143115Y-107147246D01*
X154282753Y-107286884D01*
X154429854Y-107393757D01*
X154442499Y-107402944D01*
X154612404Y-107489516D01*
X154663199Y-107537490D01*
X154679994Y-107605311D01*
X154657456Y-107671446D01*
X154612404Y-107710483D01*
X154455321Y-107790522D01*
X154442495Y-107797058D01*
X154282753Y-107913115D01*
X154143115Y-108052753D01*
X154027058Y-108212495D01*
X153937408Y-108388441D01*
X153876389Y-108576236D01*
X153845500Y-108771263D01*
X153845500Y-108968736D01*
X153876389Y-109163763D01*
X153937408Y-109351558D01*
X153937409Y-109351561D01*
X154027056Y-109527501D01*
X154027058Y-109527504D01*
X154143115Y-109687246D01*
X154282753Y-109826884D01*
X154409706Y-109919119D01*
X154442499Y-109942944D01*
X154612404Y-110029516D01*
X154663199Y-110077490D01*
X154679994Y-110145311D01*
X154657456Y-110211446D01*
X154612404Y-110250483D01*
X154484165Y-110315826D01*
X154442495Y-110337058D01*
X154282753Y-110453115D01*
X154143115Y-110592753D01*
X154027058Y-110752495D01*
X153937408Y-110928441D01*
X153876389Y-111116236D01*
X153845500Y-111311263D01*
X153845500Y-111508736D01*
X153876389Y-111703763D01*
X153937348Y-111891373D01*
X153937409Y-111891561D01*
X153946913Y-111910213D01*
X154027058Y-112067504D01*
X154143115Y-112227246D01*
X154282753Y-112366884D01*
X154429854Y-112473757D01*
X154442499Y-112482944D01*
X154612404Y-112569516D01*
X154663199Y-112617490D01*
X154679994Y-112685311D01*
X154657456Y-112751446D01*
X154612404Y-112790483D01*
X154455321Y-112870522D01*
X154442495Y-112877058D01*
X154282753Y-112993115D01*
X154143115Y-113132753D01*
X154027058Y-113292495D01*
X153940485Y-113462403D01*
X153892510Y-113513199D01*
X153824689Y-113529994D01*
X153758554Y-113507456D01*
X153719515Y-113462403D01*
X153632944Y-113292499D01*
X153625486Y-113282234D01*
X153516884Y-113132753D01*
X153377246Y-112993115D01*
X153217504Y-112877058D01*
X153217503Y-112877057D01*
X153217501Y-112877056D01*
X153041561Y-112787409D01*
X153019082Y-112780105D01*
X152853763Y-112726389D01*
X152658736Y-112695500D01*
X152658731Y-112695500D01*
X152461269Y-112695500D01*
X152461264Y-112695500D01*
X152266236Y-112726389D01*
X152078441Y-112787408D01*
X151902495Y-112877058D01*
X151742753Y-112993115D01*
X151603115Y-113132753D01*
X151487058Y-113292495D01*
X151400485Y-113462403D01*
X151352510Y-113513199D01*
X151284689Y-113529994D01*
X151218554Y-113507456D01*
X151179515Y-113462403D01*
X151092944Y-113292499D01*
X151085486Y-113282234D01*
X150976884Y-113132753D01*
X150837246Y-112993115D01*
X150677504Y-112877058D01*
X150677503Y-112877057D01*
X150677501Y-112877056D01*
X150501561Y-112787409D01*
X150479082Y-112780105D01*
X150313763Y-112726389D01*
X150118736Y-112695500D01*
X150118731Y-112695500D01*
X149921269Y-112695500D01*
X149921264Y-112695500D01*
X149726236Y-112726389D01*
X149538441Y-112787408D01*
X149362495Y-112877058D01*
X149202753Y-112993115D01*
X149063115Y-113132753D01*
X148947058Y-113292495D01*
X148857408Y-113468441D01*
X148796389Y-113656236D01*
X148765500Y-113851263D01*
X143654500Y-113851263D01*
X143623610Y-113656236D01*
X143572136Y-113497816D01*
X143562591Y-113468439D01*
X143472944Y-113292499D01*
X143465486Y-113282234D01*
X143356884Y-113132753D01*
X143217246Y-112993115D01*
X143057505Y-112877058D01*
X143052334Y-112874423D01*
X142887043Y-112790202D01*
X142836250Y-112742230D01*
X142819455Y-112674409D01*
X142841992Y-112608275D01*
X142887046Y-112569235D01*
X143057241Y-112482516D01*
X143092988Y-112456543D01*
X143092988Y-112456541D01*
X142529410Y-111892962D01*
X142592993Y-111875925D01*
X142707007Y-111810099D01*
X142800099Y-111717007D01*
X142865925Y-111602993D01*
X142882962Y-111539409D01*
X143446541Y-112102988D01*
X143446543Y-112102988D01*
X143472516Y-112067241D01*
X143562126Y-111891373D01*
X143623123Y-111703646D01*
X143654000Y-111508697D01*
X143654000Y-111311302D01*
X143623123Y-111116353D01*
X143562126Y-110928626D01*
X143472520Y-110752768D01*
X143472512Y-110752755D01*
X143446542Y-110717010D01*
X143446541Y-110717009D01*
X142882962Y-111280589D01*
X142865925Y-111217007D01*
X142800099Y-111102993D01*
X142707007Y-111009901D01*
X142592993Y-110944075D01*
X142529409Y-110927037D01*
X143092989Y-110363457D01*
X143057236Y-110337481D01*
X142887045Y-110250763D01*
X142836250Y-110202789D01*
X142819455Y-110134968D01*
X142841993Y-110068833D01*
X142887042Y-110029798D01*
X143057501Y-109942944D01*
X143185565Y-109849901D01*
X143217246Y-109826884D01*
X143217248Y-109826881D01*
X143217252Y-109826879D01*
X143356879Y-109687252D01*
X143356881Y-109687248D01*
X143356884Y-109687246D01*
X143407779Y-109617192D01*
X143472944Y-109527501D01*
X143562591Y-109351561D01*
X143623610Y-109163763D01*
X143634441Y-109095378D01*
X143654500Y-108968736D01*
X143654500Y-108771263D01*
X143623610Y-108576236D01*
X143572136Y-108417816D01*
X143562591Y-108388439D01*
X143472944Y-108212499D01*
X143465486Y-108202234D01*
X143356884Y-108052753D01*
X143217246Y-107913115D01*
X143057505Y-107797058D01*
X143051119Y-107793804D01*
X142887593Y-107710482D01*
X142836800Y-107662510D01*
X142820005Y-107594689D01*
X142842542Y-107528554D01*
X142887593Y-107489517D01*
X143057501Y-107402944D01*
X143077912Y-107388114D01*
X143217246Y-107286884D01*
X143217248Y-107286881D01*
X143217252Y-107286879D01*
X143356879Y-107147252D01*
X143356881Y-107147248D01*
X143356884Y-107147246D01*
X143462276Y-107002184D01*
X143472944Y-106987501D01*
X143562591Y-106811561D01*
X143623610Y-106623763D01*
X143646139Y-106481522D01*
X143654500Y-106428736D01*
X143654500Y-106231263D01*
X143623610Y-106036236D01*
X143603270Y-105973637D01*
X143562591Y-105848439D01*
X143472944Y-105672499D01*
X143465486Y-105662234D01*
X143356884Y-105512753D01*
X143217246Y-105373115D01*
X143057505Y-105257058D01*
X143051119Y-105253804D01*
X142887593Y-105170482D01*
X142836800Y-105122510D01*
X142820005Y-105054689D01*
X142842542Y-104988554D01*
X142887593Y-104949517D01*
X143057501Y-104862944D01*
X143077912Y-104848114D01*
X143217246Y-104746884D01*
X143217248Y-104746881D01*
X143217252Y-104746879D01*
X143356879Y-104607252D01*
X143356881Y-104607248D01*
X143356884Y-104607246D01*
X143462347Y-104462086D01*
X143472944Y-104447501D01*
X143562591Y-104271561D01*
X143623610Y-104083763D01*
X143654500Y-103888736D01*
X143654500Y-103691263D01*
X143623610Y-103496236D01*
X143576257Y-103350500D01*
X143562591Y-103308439D01*
X143472944Y-103132499D01*
X143463863Y-103120000D01*
X143356884Y-102972753D01*
X143217246Y-102833115D01*
X143057505Y-102717058D01*
X143051119Y-102713804D01*
X142887593Y-102630482D01*
X142836800Y-102582510D01*
X142820005Y-102514689D01*
X142842542Y-102448554D01*
X142887593Y-102409517D01*
X143057501Y-102322944D01*
X143077912Y-102308114D01*
X143217246Y-102206884D01*
X143217248Y-102206881D01*
X143217252Y-102206879D01*
X143356879Y-102067252D01*
X143356881Y-102067248D01*
X143356884Y-102067246D01*
X143416265Y-101985514D01*
X143472944Y-101907501D01*
X143562591Y-101731561D01*
X143623610Y-101543763D01*
X143630098Y-101502799D01*
X143654500Y-101348736D01*
X143654500Y-101151263D01*
X143623610Y-100956236D01*
X143578449Y-100817246D01*
X143562591Y-100768439D01*
X143472944Y-100592499D01*
X143463863Y-100580000D01*
X143356884Y-100432753D01*
X143217246Y-100293115D01*
X143057505Y-100177058D01*
X143051119Y-100173804D01*
X142887593Y-100090482D01*
X142836800Y-100042510D01*
X142820005Y-99974689D01*
X142842542Y-99908554D01*
X142887593Y-99869517D01*
X143057501Y-99782944D01*
X143077912Y-99768114D01*
X143217246Y-99666884D01*
X143217248Y-99666881D01*
X143217252Y-99666879D01*
X143356879Y-99527252D01*
X143356881Y-99527248D01*
X143356884Y-99527246D01*
X143413357Y-99449516D01*
X143472944Y-99367501D01*
X143562591Y-99191561D01*
X143623610Y-99003763D01*
X143630928Y-98957557D01*
X143654500Y-98808736D01*
X143654500Y-98611263D01*
X143623610Y-98416236D01*
X143598839Y-98339999D01*
X143562591Y-98228439D01*
X143472944Y-98052499D01*
X143434802Y-98000000D01*
X143356884Y-97892753D01*
X143217246Y-97753115D01*
X143073003Y-97648318D01*
X143030337Y-97592989D01*
X143024358Y-97523375D01*
X143056963Y-97461580D01*
X143117802Y-97427223D01*
X143145888Y-97424000D01*
X143201828Y-97424000D01*
X143201844Y-97423999D01*
X143261372Y-97417598D01*
X143261379Y-97417596D01*
X143396086Y-97367354D01*
X143396093Y-97367350D01*
X143511187Y-97281190D01*
X143511190Y-97281187D01*
X143597350Y-97166093D01*
X143597354Y-97166086D01*
X143647596Y-97031379D01*
X143647598Y-97031372D01*
X143653999Y-96971844D01*
X143654000Y-96971827D01*
X143654000Y-96420000D01*
X142833012Y-96420000D01*
X142865925Y-96362993D01*
X142900000Y-96235826D01*
X142900000Y-96104174D01*
X142865925Y-95977007D01*
X142833012Y-95920000D01*
X143654000Y-95920000D01*
X143654000Y-95368172D01*
X143653999Y-95368155D01*
X143647598Y-95308627D01*
X143647596Y-95308620D01*
X143597354Y-95173913D01*
X143597350Y-95173906D01*
X143511190Y-95058812D01*
X143511187Y-95058809D01*
X143396093Y-94972649D01*
X143396086Y-94972645D01*
X143261379Y-94922403D01*
X143261372Y-94922401D01*
X143201844Y-94916000D01*
X142650000Y-94916000D01*
X142650000Y-95736988D01*
X142592993Y-95704075D01*
X142465826Y-95670000D01*
X142334174Y-95670000D01*
X142207007Y-95704075D01*
X142150000Y-95736988D01*
X142150000Y-94916000D01*
X141598155Y-94916000D01*
X141538627Y-94922401D01*
X141538620Y-94922403D01*
X141403913Y-94972645D01*
X141403906Y-94972649D01*
X141288812Y-95058809D01*
X141288809Y-95058812D01*
X141202649Y-95173906D01*
X141202645Y-95173913D01*
X141152403Y-95308620D01*
X141152401Y-95308627D01*
X141146000Y-95368155D01*
X141146000Y-95920000D01*
X141966988Y-95920000D01*
X141934075Y-95977007D01*
X141900000Y-96104174D01*
X141900000Y-96235826D01*
X141934075Y-96362993D01*
X141966988Y-96420000D01*
X141146000Y-96420000D01*
X141146000Y-96971844D01*
X141152401Y-97031372D01*
X141152403Y-97031379D01*
X141202645Y-97166086D01*
X141202649Y-97166093D01*
X141288809Y-97281187D01*
X141288812Y-97281190D01*
X141403906Y-97367350D01*
X141403913Y-97367354D01*
X141538620Y-97417596D01*
X141538627Y-97417598D01*
X141598155Y-97423999D01*
X141598172Y-97424000D01*
X141654112Y-97424000D01*
X141721151Y-97443685D01*
X141766906Y-97496489D01*
X141776850Y-97565647D01*
X141747825Y-97629203D01*
X141726997Y-97648318D01*
X141582753Y-97753115D01*
X141443115Y-97892753D01*
X141327058Y-98052495D01*
X141237408Y-98228441D01*
X141176389Y-98416236D01*
X141145500Y-98611263D01*
X117421159Y-98611263D01*
X117291294Y-98481398D01*
X117257809Y-98420075D01*
X117262793Y-98350383D01*
X117304665Y-98294450D01*
X117313879Y-98288178D01*
X117319331Y-98284814D01*
X117319334Y-98284814D01*
X117468656Y-98192712D01*
X117592712Y-98068656D01*
X117684814Y-97919334D01*
X117739999Y-97752797D01*
X117750500Y-97650009D01*
X117750499Y-96349992D01*
X117739999Y-96247203D01*
X117684814Y-96080666D01*
X117592712Y-95931344D01*
X117468656Y-95807288D01*
X117319334Y-95715186D01*
X117152797Y-95660001D01*
X117152795Y-95660000D01*
X117050010Y-95649500D01*
X115449998Y-95649500D01*
X115449981Y-95649501D01*
X115347203Y-95660000D01*
X115347200Y-95660001D01*
X115180668Y-95715185D01*
X115180663Y-95715187D01*
X115031342Y-95807289D01*
X114907289Y-95931342D01*
X114815187Y-96080663D01*
X114815186Y-96080666D01*
X114760001Y-96247203D01*
X114760001Y-96247204D01*
X114760000Y-96247204D01*
X114749500Y-96349983D01*
X112000500Y-96349983D01*
X112000500Y-75846048D01*
X114849500Y-75846048D01*
X114849500Y-76050751D01*
X114881522Y-76252934D01*
X114944781Y-76447623D01*
X115037715Y-76630013D01*
X115158028Y-76795613D01*
X115302786Y-76940371D01*
X115457749Y-77052956D01*
X115468390Y-77060687D01*
X115557212Y-77105944D01*
X115650776Y-77153618D01*
X115650778Y-77153618D01*
X115650781Y-77153620D01*
X115755137Y-77187527D01*
X115845465Y-77216877D01*
X115864697Y-77219923D01*
X116047648Y-77248900D01*
X116047649Y-77248900D01*
X116252351Y-77248900D01*
X116252352Y-77248900D01*
X116454534Y-77216877D01*
X116649219Y-77153620D01*
X116831610Y-77060687D01*
X116927901Y-76990728D01*
X116997213Y-76940371D01*
X116997215Y-76940368D01*
X116997219Y-76940366D01*
X117141966Y-76795619D01*
X117141968Y-76795615D01*
X117141971Y-76795613D01*
X117262284Y-76630014D01*
X117262285Y-76630013D01*
X117262287Y-76630010D01*
X117309516Y-76537317D01*
X117357489Y-76486523D01*
X117425310Y-76469728D01*
X117491445Y-76492265D01*
X117530485Y-76537319D01*
X117577715Y-76630014D01*
X117698028Y-76795613D01*
X117842786Y-76940371D01*
X117997749Y-77052956D01*
X118008390Y-77060687D01*
X118097212Y-77105944D01*
X118190776Y-77153618D01*
X118190778Y-77153618D01*
X118190781Y-77153620D01*
X118295137Y-77187527D01*
X118385465Y-77216877D01*
X118404697Y-77219923D01*
X118587648Y-77248900D01*
X118587649Y-77248900D01*
X118792351Y-77248900D01*
X118792352Y-77248900D01*
X118994534Y-77216877D01*
X119189219Y-77153620D01*
X119371610Y-77060687D01*
X119467901Y-76990728D01*
X119537213Y-76940371D01*
X119537215Y-76940368D01*
X119537219Y-76940366D01*
X119681966Y-76795619D01*
X119681968Y-76795615D01*
X119681971Y-76795613D01*
X119802284Y-76630014D01*
X119802285Y-76630013D01*
X119802287Y-76630010D01*
X119849516Y-76537317D01*
X119897489Y-76486523D01*
X119965310Y-76469728D01*
X120031445Y-76492265D01*
X120070485Y-76537319D01*
X120117715Y-76630014D01*
X120238028Y-76795613D01*
X120382786Y-76940371D01*
X120537749Y-77052956D01*
X120548390Y-77060687D01*
X120637212Y-77105944D01*
X120730776Y-77153618D01*
X120730778Y-77153618D01*
X120730781Y-77153620D01*
X120835137Y-77187527D01*
X120925465Y-77216877D01*
X120944697Y-77219923D01*
X121127648Y-77248900D01*
X121127649Y-77248900D01*
X121332351Y-77248900D01*
X121332352Y-77248900D01*
X121534534Y-77216877D01*
X121729219Y-77153620D01*
X121911610Y-77060687D01*
X122007901Y-76990728D01*
X122077213Y-76940371D01*
X122077215Y-76940368D01*
X122077219Y-76940366D01*
X122221966Y-76795619D01*
X122221968Y-76795615D01*
X122221971Y-76795613D01*
X122342284Y-76630014D01*
X122342285Y-76630013D01*
X122342287Y-76630010D01*
X122389516Y-76537317D01*
X122437489Y-76486523D01*
X122505310Y-76469728D01*
X122571445Y-76492265D01*
X122610485Y-76537319D01*
X122657715Y-76630014D01*
X122778028Y-76795613D01*
X122922786Y-76940371D01*
X123077749Y-77052956D01*
X123088390Y-77060687D01*
X123177212Y-77105944D01*
X123270776Y-77153618D01*
X123270778Y-77153618D01*
X123270781Y-77153620D01*
X123375137Y-77187527D01*
X123465465Y-77216877D01*
X123484697Y-77219923D01*
X123667648Y-77248900D01*
X123667649Y-77248900D01*
X123872351Y-77248900D01*
X123872352Y-77248900D01*
X124074534Y-77216877D01*
X124269219Y-77153620D01*
X124451610Y-77060687D01*
X124547901Y-76990728D01*
X124617213Y-76940371D01*
X124617215Y-76940368D01*
X124617219Y-76940366D01*
X124761966Y-76795619D01*
X124761968Y-76795615D01*
X124761971Y-76795613D01*
X124882284Y-76630014D01*
X124882285Y-76630013D01*
X124882287Y-76630010D01*
X124929516Y-76537317D01*
X124977489Y-76486523D01*
X125045310Y-76469728D01*
X125111445Y-76492265D01*
X125150485Y-76537319D01*
X125197715Y-76630014D01*
X125318028Y-76795613D01*
X125462786Y-76940371D01*
X125617749Y-77052956D01*
X125628390Y-77060687D01*
X125717212Y-77105944D01*
X125810776Y-77153618D01*
X125810778Y-77153618D01*
X125810781Y-77153620D01*
X125915137Y-77187527D01*
X126005465Y-77216877D01*
X126024697Y-77219923D01*
X126207648Y-77248900D01*
X126207649Y-77248900D01*
X126412351Y-77248900D01*
X126412352Y-77248900D01*
X126614534Y-77216877D01*
X126809219Y-77153620D01*
X126991610Y-77060687D01*
X127087901Y-76990728D01*
X127157213Y-76940371D01*
X127157215Y-76940368D01*
X127157219Y-76940366D01*
X127301966Y-76795619D01*
X127301968Y-76795615D01*
X127301971Y-76795613D01*
X127422284Y-76630014D01*
X127422285Y-76630013D01*
X127422287Y-76630010D01*
X127469516Y-76537317D01*
X127517489Y-76486523D01*
X127585310Y-76469728D01*
X127651445Y-76492265D01*
X127690485Y-76537319D01*
X127737715Y-76630014D01*
X127858028Y-76795613D01*
X128002786Y-76940371D01*
X128157749Y-77052956D01*
X128168390Y-77060687D01*
X128257212Y-77105944D01*
X128261080Y-77107915D01*
X128311876Y-77155890D01*
X128328671Y-77223711D01*
X128306134Y-77289846D01*
X128261080Y-77328885D01*
X128168386Y-77376115D01*
X128002786Y-77496428D01*
X127858028Y-77641186D01*
X127737715Y-77806786D01*
X127644781Y-77989176D01*
X127581522Y-78183865D01*
X127549500Y-78386048D01*
X127549500Y-78590751D01*
X127581522Y-78792934D01*
X127644781Y-78987623D01*
X127737715Y-79170013D01*
X127858028Y-79335613D01*
X128002786Y-79480371D01*
X128089079Y-79543065D01*
X128168390Y-79600687D01*
X128259840Y-79647283D01*
X128261080Y-79647915D01*
X128311876Y-79695890D01*
X128328671Y-79763711D01*
X128306134Y-79829846D01*
X128261080Y-79868885D01*
X128168386Y-79916115D01*
X128002786Y-80036428D01*
X127858028Y-80181186D01*
X127737715Y-80346786D01*
X127644781Y-80529176D01*
X127581522Y-80723865D01*
X127549500Y-80926048D01*
X127549500Y-81130751D01*
X127581522Y-81332934D01*
X127644781Y-81527623D01*
X127737715Y-81710013D01*
X127858028Y-81875613D01*
X128002786Y-82020371D01*
X128111282Y-82099196D01*
X128168390Y-82140687D01*
X128259840Y-82187283D01*
X128261080Y-82187915D01*
X128311876Y-82235890D01*
X128328671Y-82303711D01*
X128306134Y-82369846D01*
X128261080Y-82408885D01*
X128168386Y-82456115D01*
X128002786Y-82576428D01*
X127858028Y-82721186D01*
X127737715Y-82886786D01*
X127644781Y-83069176D01*
X127581522Y-83263865D01*
X127549500Y-83466048D01*
X127549500Y-83670751D01*
X127581522Y-83872934D01*
X127644781Y-84067623D01*
X127737715Y-84250013D01*
X127858028Y-84415613D01*
X128002786Y-84560371D01*
X128139157Y-84659448D01*
X128168390Y-84680687D01*
X128259840Y-84727283D01*
X128261080Y-84727915D01*
X128311876Y-84775890D01*
X128328671Y-84843711D01*
X128306134Y-84909846D01*
X128261080Y-84948885D01*
X128168386Y-84996115D01*
X128002786Y-85116428D01*
X127858028Y-85261186D01*
X127737715Y-85426786D01*
X127644781Y-85609176D01*
X127581522Y-85803865D01*
X127549500Y-86006048D01*
X127549500Y-86210751D01*
X127581522Y-86412934D01*
X127644781Y-86607623D01*
X127737715Y-86790013D01*
X127858028Y-86955613D01*
X128002786Y-87100371D01*
X128157749Y-87212956D01*
X128168390Y-87220687D01*
X128259840Y-87267283D01*
X128261080Y-87267915D01*
X128311876Y-87315890D01*
X128328671Y-87383711D01*
X128306134Y-87449846D01*
X128261080Y-87488885D01*
X128168386Y-87536115D01*
X128002786Y-87656428D01*
X127858028Y-87801186D01*
X127737715Y-87966786D01*
X127644781Y-88149176D01*
X127581522Y-88343865D01*
X127549500Y-88546048D01*
X127549500Y-88750751D01*
X127581522Y-88952934D01*
X127644781Y-89147623D01*
X127737715Y-89330013D01*
X127858028Y-89495613D01*
X128002786Y-89640371D01*
X128157749Y-89752956D01*
X128168390Y-89760687D01*
X128259840Y-89807283D01*
X128261080Y-89807915D01*
X128311876Y-89855890D01*
X128328671Y-89923711D01*
X128306134Y-89989846D01*
X128261080Y-90028885D01*
X128168386Y-90076115D01*
X128002786Y-90196428D01*
X127858028Y-90341186D01*
X127737715Y-90506786D01*
X127690485Y-90599480D01*
X127642510Y-90650276D01*
X127574689Y-90667071D01*
X127508554Y-90644534D01*
X127469515Y-90599480D01*
X127422420Y-90507052D01*
X127422287Y-90506790D01*
X127390092Y-90462477D01*
X127301971Y-90341186D01*
X127157213Y-90196428D01*
X126991613Y-90076115D01*
X126991612Y-90076114D01*
X126991610Y-90076113D01*
X126899470Y-90029165D01*
X126809223Y-89983181D01*
X126614534Y-89919922D01*
X126439995Y-89892278D01*
X126412352Y-89887900D01*
X126207648Y-89887900D01*
X126183329Y-89891751D01*
X126005465Y-89919922D01*
X125810776Y-89983181D01*
X125628386Y-90076115D01*
X125462786Y-90196428D01*
X125318028Y-90341186D01*
X125197715Y-90506786D01*
X125150485Y-90599480D01*
X125102510Y-90650276D01*
X125034689Y-90667071D01*
X124968554Y-90644534D01*
X124929515Y-90599480D01*
X124882420Y-90507052D01*
X124882287Y-90506790D01*
X124850092Y-90462477D01*
X124761971Y-90341186D01*
X124617213Y-90196428D01*
X124451613Y-90076115D01*
X124451612Y-90076114D01*
X124451610Y-90076113D01*
X124359470Y-90029165D01*
X124269223Y-89983181D01*
X124074534Y-89919922D01*
X123899995Y-89892278D01*
X123872352Y-89887900D01*
X123667648Y-89887900D01*
X123643329Y-89891751D01*
X123465465Y-89919922D01*
X123270776Y-89983181D01*
X123088386Y-90076115D01*
X122922786Y-90196428D01*
X122778028Y-90341186D01*
X122657715Y-90506786D01*
X122610485Y-90599480D01*
X122562510Y-90650276D01*
X122494689Y-90667071D01*
X122428554Y-90644534D01*
X122389515Y-90599480D01*
X122342420Y-90507052D01*
X122342287Y-90506790D01*
X122310092Y-90462477D01*
X122221971Y-90341186D01*
X122077213Y-90196428D01*
X121911613Y-90076115D01*
X121911612Y-90076114D01*
X121911610Y-90076113D01*
X121819470Y-90029165D01*
X121729223Y-89983181D01*
X121534534Y-89919922D01*
X121359995Y-89892278D01*
X121332352Y-89887900D01*
X121127648Y-89887900D01*
X121103329Y-89891751D01*
X120925465Y-89919922D01*
X120730776Y-89983181D01*
X120548386Y-90076115D01*
X120382786Y-90196428D01*
X120238028Y-90341186D01*
X120117715Y-90506786D01*
X120070485Y-90599480D01*
X120022510Y-90650276D01*
X119954689Y-90667071D01*
X119888554Y-90644534D01*
X119849515Y-90599480D01*
X119802420Y-90507052D01*
X119802287Y-90506790D01*
X119770092Y-90462477D01*
X119681971Y-90341186D01*
X119537213Y-90196428D01*
X119371613Y-90076115D01*
X119371612Y-90076114D01*
X119371610Y-90076113D01*
X119279470Y-90029165D01*
X119189223Y-89983181D01*
X118994534Y-89919922D01*
X118819995Y-89892278D01*
X118792352Y-89887900D01*
X118587648Y-89887900D01*
X118563329Y-89891751D01*
X118385465Y-89919922D01*
X118190776Y-89983181D01*
X118008386Y-90076115D01*
X117842786Y-90196428D01*
X117698028Y-90341186D01*
X117577715Y-90506786D01*
X117530485Y-90599480D01*
X117482510Y-90650276D01*
X117414689Y-90667071D01*
X117348554Y-90644534D01*
X117309515Y-90599480D01*
X117262420Y-90507052D01*
X117262287Y-90506790D01*
X117230092Y-90462477D01*
X117141971Y-90341186D01*
X116997213Y-90196428D01*
X116831613Y-90076115D01*
X116831612Y-90076114D01*
X116831610Y-90076113D01*
X116739470Y-90029165D01*
X116649223Y-89983181D01*
X116454534Y-89919922D01*
X116279995Y-89892278D01*
X116252352Y-89887900D01*
X116047648Y-89887900D01*
X116023329Y-89891751D01*
X115845465Y-89919922D01*
X115650776Y-89983181D01*
X115468386Y-90076115D01*
X115302786Y-90196428D01*
X115158028Y-90341186D01*
X115037715Y-90506786D01*
X114944781Y-90689176D01*
X114881522Y-90883865D01*
X114849500Y-91086048D01*
X114849500Y-91290751D01*
X114881522Y-91492934D01*
X114944781Y-91687623D01*
X115008691Y-91813053D01*
X115037585Y-91869759D01*
X115037715Y-91870013D01*
X115158028Y-92035613D01*
X115302786Y-92180371D01*
X115423226Y-92267874D01*
X115468390Y-92300687D01*
X115584607Y-92359903D01*
X115650776Y-92393618D01*
X115650778Y-92393618D01*
X115650781Y-92393620D01*
X115755137Y-92427527D01*
X115845465Y-92456877D01*
X115946557Y-92472888D01*
X116047648Y-92488900D01*
X116047649Y-92488900D01*
X116252351Y-92488900D01*
X116252352Y-92488900D01*
X116454534Y-92456877D01*
X116649219Y-92393620D01*
X116831610Y-92300687D01*
X116924590Y-92233132D01*
X116997213Y-92180371D01*
X116997215Y-92180368D01*
X116997219Y-92180366D01*
X117141966Y-92035619D01*
X117141968Y-92035615D01*
X117141971Y-92035613D01*
X117262284Y-91870014D01*
X117262286Y-91870011D01*
X117262287Y-91870010D01*
X117309516Y-91777317D01*
X117357489Y-91726523D01*
X117425310Y-91709728D01*
X117491445Y-91732265D01*
X117530485Y-91777319D01*
X117577715Y-91870014D01*
X117698028Y-92035613D01*
X117842786Y-92180371D01*
X117963226Y-92267874D01*
X118008390Y-92300687D01*
X118124607Y-92359903D01*
X118190776Y-92393618D01*
X118190778Y-92393618D01*
X118190781Y-92393620D01*
X118295137Y-92427527D01*
X118385465Y-92456877D01*
X118486557Y-92472888D01*
X118587648Y-92488900D01*
X118587649Y-92488900D01*
X118792351Y-92488900D01*
X118792352Y-92488900D01*
X118994534Y-92456877D01*
X119189219Y-92393620D01*
X119371610Y-92300687D01*
X119464590Y-92233132D01*
X119537213Y-92180371D01*
X119537215Y-92180368D01*
X119537219Y-92180366D01*
X119681966Y-92035619D01*
X119681968Y-92035615D01*
X119681971Y-92035613D01*
X119802284Y-91870014D01*
X119802286Y-91870011D01*
X119802287Y-91870010D01*
X119849516Y-91777317D01*
X119897489Y-91726523D01*
X119965310Y-91709728D01*
X120031445Y-91732265D01*
X120070485Y-91777319D01*
X120117715Y-91870014D01*
X120238028Y-92035613D01*
X120382786Y-92180371D01*
X120503226Y-92267874D01*
X120548390Y-92300687D01*
X120664607Y-92359903D01*
X120730776Y-92393618D01*
X120730778Y-92393618D01*
X120730781Y-92393620D01*
X120835137Y-92427527D01*
X120925465Y-92456877D01*
X121026557Y-92472888D01*
X121127648Y-92488900D01*
X121127649Y-92488900D01*
X121332351Y-92488900D01*
X121332352Y-92488900D01*
X121534534Y-92456877D01*
X121729219Y-92393620D01*
X121911610Y-92300687D01*
X122004590Y-92233132D01*
X122077213Y-92180371D01*
X122077215Y-92180368D01*
X122077219Y-92180366D01*
X122221966Y-92035619D01*
X122221968Y-92035615D01*
X122221971Y-92035613D01*
X122342284Y-91870014D01*
X122342286Y-91870011D01*
X122342287Y-91870010D01*
X122389516Y-91777317D01*
X122437489Y-91726523D01*
X122505310Y-91709728D01*
X122571445Y-91732265D01*
X122610485Y-91777319D01*
X122657715Y-91870014D01*
X122778028Y-92035613D01*
X122922786Y-92180371D01*
X123043226Y-92267874D01*
X123088390Y-92300687D01*
X123204607Y-92359903D01*
X123270776Y-92393618D01*
X123270778Y-92393618D01*
X123270781Y-92393620D01*
X123375137Y-92427527D01*
X123465465Y-92456877D01*
X123566557Y-92472888D01*
X123667648Y-92488900D01*
X123667649Y-92488900D01*
X123872351Y-92488900D01*
X123872352Y-92488900D01*
X124074534Y-92456877D01*
X124269219Y-92393620D01*
X124451610Y-92300687D01*
X124544590Y-92233132D01*
X124617213Y-92180371D01*
X124617215Y-92180368D01*
X124617219Y-92180366D01*
X124761966Y-92035619D01*
X124761968Y-92035615D01*
X124761971Y-92035613D01*
X124882284Y-91870014D01*
X124882286Y-91870011D01*
X124882287Y-91870010D01*
X124929516Y-91777317D01*
X124977489Y-91726523D01*
X125045310Y-91709728D01*
X125111445Y-91732265D01*
X125150485Y-91777319D01*
X125197715Y-91870014D01*
X125318028Y-92035613D01*
X125462786Y-92180371D01*
X125583226Y-92267874D01*
X125628390Y-92300687D01*
X125744607Y-92359903D01*
X125810776Y-92393618D01*
X125810778Y-92393618D01*
X125810781Y-92393620D01*
X125915137Y-92427527D01*
X126005465Y-92456877D01*
X126106557Y-92472888D01*
X126207648Y-92488900D01*
X126207649Y-92488900D01*
X126412351Y-92488900D01*
X126412352Y-92488900D01*
X126614534Y-92456877D01*
X126809219Y-92393620D01*
X126991610Y-92300687D01*
X127084590Y-92233132D01*
X127157213Y-92180371D01*
X127157215Y-92180368D01*
X127157219Y-92180366D01*
X127301966Y-92035619D01*
X127301968Y-92035615D01*
X127301971Y-92035613D01*
X127422284Y-91870014D01*
X127422286Y-91870011D01*
X127422287Y-91870010D01*
X127469516Y-91777317D01*
X127517489Y-91726523D01*
X127585310Y-91709728D01*
X127651445Y-91732265D01*
X127690485Y-91777319D01*
X127737715Y-91870014D01*
X127858028Y-92035613D01*
X128002786Y-92180371D01*
X128123226Y-92267874D01*
X128168390Y-92300687D01*
X128284607Y-92359903D01*
X128350776Y-92393618D01*
X128350778Y-92393618D01*
X128350781Y-92393620D01*
X128455137Y-92427527D01*
X128545465Y-92456877D01*
X128646557Y-92472888D01*
X128747648Y-92488900D01*
X128747649Y-92488900D01*
X128952351Y-92488900D01*
X128952352Y-92488900D01*
X129154534Y-92456877D01*
X129349219Y-92393620D01*
X129531610Y-92300687D01*
X129624590Y-92233132D01*
X129697213Y-92180371D01*
X129697215Y-92180368D01*
X129697219Y-92180366D01*
X129841966Y-92035619D01*
X129841968Y-92035615D01*
X129841971Y-92035613D01*
X129962284Y-91870014D01*
X129962286Y-91870011D01*
X129962287Y-91870010D01*
X130009516Y-91777317D01*
X130057489Y-91726523D01*
X130125310Y-91709728D01*
X130191445Y-91732265D01*
X130230485Y-91777319D01*
X130277715Y-91870014D01*
X130398028Y-92035613D01*
X130542786Y-92180371D01*
X130663226Y-92267874D01*
X130708390Y-92300687D01*
X130824607Y-92359903D01*
X130890776Y-92393618D01*
X130890778Y-92393618D01*
X130890781Y-92393620D01*
X130995137Y-92427527D01*
X131085465Y-92456877D01*
X131186557Y-92472888D01*
X131287648Y-92488900D01*
X131287649Y-92488900D01*
X131492351Y-92488900D01*
X131492352Y-92488900D01*
X131694534Y-92456877D01*
X131889219Y-92393620D01*
X132071610Y-92300687D01*
X132164590Y-92233132D01*
X132237213Y-92180371D01*
X132237215Y-92180368D01*
X132237219Y-92180366D01*
X132381966Y-92035619D01*
X132381968Y-92035615D01*
X132381971Y-92035613D01*
X132502284Y-91870014D01*
X132502286Y-91870011D01*
X132502287Y-91870010D01*
X132549516Y-91777317D01*
X132597489Y-91726523D01*
X132665310Y-91709728D01*
X132731445Y-91732265D01*
X132770485Y-91777319D01*
X132817715Y-91870014D01*
X132938028Y-92035613D01*
X133082786Y-92180371D01*
X133203226Y-92267874D01*
X133248390Y-92300687D01*
X133364607Y-92359903D01*
X133430776Y-92393618D01*
X133430778Y-92393618D01*
X133430781Y-92393620D01*
X133535137Y-92427527D01*
X133625465Y-92456877D01*
X133726557Y-92472888D01*
X133827648Y-92488900D01*
X133827649Y-92488900D01*
X134032351Y-92488900D01*
X134032352Y-92488900D01*
X134234534Y-92456877D01*
X134429219Y-92393620D01*
X134611610Y-92300687D01*
X134704590Y-92233132D01*
X134777213Y-92180371D01*
X134777215Y-92180368D01*
X134777219Y-92180366D01*
X134921966Y-92035619D01*
X134921968Y-92035615D01*
X134921971Y-92035613D01*
X135042284Y-91870014D01*
X135042286Y-91870011D01*
X135042287Y-91870010D01*
X135089516Y-91777317D01*
X135137489Y-91726523D01*
X135205310Y-91709728D01*
X135271445Y-91732265D01*
X135310485Y-91777319D01*
X135357715Y-91870014D01*
X135478028Y-92035613D01*
X135622786Y-92180371D01*
X135743226Y-92267874D01*
X135788390Y-92300687D01*
X135904607Y-92359903D01*
X135970776Y-92393618D01*
X135970778Y-92393618D01*
X135970781Y-92393620D01*
X136075137Y-92427527D01*
X136165465Y-92456877D01*
X136266557Y-92472888D01*
X136367648Y-92488900D01*
X136367649Y-92488900D01*
X136572351Y-92488900D01*
X136572352Y-92488900D01*
X136774534Y-92456877D01*
X136969219Y-92393620D01*
X137151610Y-92300687D01*
X137244590Y-92233132D01*
X137317213Y-92180371D01*
X137317215Y-92180368D01*
X137317219Y-92180366D01*
X137461966Y-92035619D01*
X137461968Y-92035615D01*
X137461971Y-92035613D01*
X137582284Y-91870014D01*
X137582286Y-91870011D01*
X137582287Y-91870010D01*
X137629516Y-91777317D01*
X137677489Y-91726523D01*
X137745310Y-91709728D01*
X137811445Y-91732265D01*
X137850485Y-91777319D01*
X137897715Y-91870014D01*
X138018028Y-92035613D01*
X138162786Y-92180371D01*
X138283226Y-92267874D01*
X138328390Y-92300687D01*
X138444607Y-92359903D01*
X138510776Y-92393618D01*
X138510778Y-92393618D01*
X138510781Y-92393620D01*
X138615137Y-92427527D01*
X138705465Y-92456877D01*
X138806557Y-92472888D01*
X138907648Y-92488900D01*
X138907649Y-92488900D01*
X139112351Y-92488900D01*
X139112352Y-92488900D01*
X139314534Y-92456877D01*
X139509219Y-92393620D01*
X139691610Y-92300687D01*
X139784590Y-92233132D01*
X139857213Y-92180371D01*
X139857215Y-92180368D01*
X139857219Y-92180366D01*
X140001966Y-92035619D01*
X140001968Y-92035615D01*
X140001971Y-92035613D01*
X140122284Y-91870014D01*
X140122286Y-91870011D01*
X140122287Y-91870010D01*
X140169516Y-91777317D01*
X140217489Y-91726523D01*
X140285310Y-91709728D01*
X140351445Y-91732265D01*
X140390485Y-91777319D01*
X140437715Y-91870014D01*
X140558028Y-92035613D01*
X140702786Y-92180371D01*
X140823226Y-92267874D01*
X140868390Y-92300687D01*
X140984607Y-92359903D01*
X141050776Y-92393618D01*
X141050778Y-92393618D01*
X141050781Y-92393620D01*
X141155137Y-92427527D01*
X141245465Y-92456877D01*
X141346557Y-92472888D01*
X141447648Y-92488900D01*
X141447649Y-92488900D01*
X141652351Y-92488900D01*
X141652352Y-92488900D01*
X141854534Y-92456877D01*
X142049219Y-92393620D01*
X142231610Y-92300687D01*
X142324590Y-92233132D01*
X142397213Y-92180371D01*
X142397215Y-92180368D01*
X142397219Y-92180366D01*
X142541966Y-92035619D01*
X142541968Y-92035615D01*
X142541971Y-92035613D01*
X142662284Y-91870014D01*
X142662286Y-91870011D01*
X142662287Y-91870010D01*
X142709516Y-91777317D01*
X142757489Y-91726523D01*
X142825310Y-91709728D01*
X142891445Y-91732265D01*
X142930485Y-91777319D01*
X142977715Y-91870014D01*
X143098028Y-92035613D01*
X143242786Y-92180371D01*
X143363226Y-92267874D01*
X143408390Y-92300687D01*
X143524607Y-92359903D01*
X143590776Y-92393618D01*
X143590778Y-92393618D01*
X143590781Y-92393620D01*
X143695137Y-92427527D01*
X143785465Y-92456877D01*
X143886557Y-92472888D01*
X143987648Y-92488900D01*
X143987649Y-92488900D01*
X144192351Y-92488900D01*
X144192352Y-92488900D01*
X144394534Y-92456877D01*
X144589219Y-92393620D01*
X144771610Y-92300687D01*
X144864590Y-92233132D01*
X144937213Y-92180371D01*
X144937215Y-92180368D01*
X144937219Y-92180366D01*
X145081966Y-92035619D01*
X145081968Y-92035615D01*
X145081971Y-92035613D01*
X145202284Y-91870014D01*
X145202286Y-91870011D01*
X145202287Y-91870010D01*
X145249516Y-91777317D01*
X145297489Y-91726523D01*
X145365310Y-91709728D01*
X145431445Y-91732265D01*
X145470485Y-91777319D01*
X145517715Y-91870014D01*
X145638028Y-92035613D01*
X145782786Y-92180371D01*
X145903226Y-92267874D01*
X145948390Y-92300687D01*
X146064607Y-92359903D01*
X146130776Y-92393618D01*
X146130778Y-92393618D01*
X146130781Y-92393620D01*
X146235137Y-92427527D01*
X146325465Y-92456877D01*
X146426557Y-92472888D01*
X146527648Y-92488900D01*
X146527649Y-92488900D01*
X146732351Y-92488900D01*
X146732352Y-92488900D01*
X146934534Y-92456877D01*
X147129219Y-92393620D01*
X147311610Y-92300687D01*
X147404590Y-92233132D01*
X147477213Y-92180371D01*
X147477215Y-92180368D01*
X147477219Y-92180366D01*
X147621966Y-92035619D01*
X147621968Y-92035615D01*
X147621971Y-92035613D01*
X147742284Y-91870014D01*
X147742286Y-91870011D01*
X147742287Y-91870010D01*
X147789516Y-91777317D01*
X147837489Y-91726523D01*
X147905310Y-91709728D01*
X147971445Y-91732265D01*
X148010485Y-91777319D01*
X148057715Y-91870014D01*
X148178028Y-92035613D01*
X148322786Y-92180371D01*
X148443226Y-92267874D01*
X148488390Y-92300687D01*
X148604607Y-92359903D01*
X148670776Y-92393618D01*
X148670778Y-92393618D01*
X148670781Y-92393620D01*
X148775137Y-92427527D01*
X148865465Y-92456877D01*
X148966557Y-92472888D01*
X149067648Y-92488900D01*
X149067649Y-92488900D01*
X149272351Y-92488900D01*
X149272352Y-92488900D01*
X149474534Y-92456877D01*
X149669219Y-92393620D01*
X149851610Y-92300687D01*
X149944590Y-92233132D01*
X150017213Y-92180371D01*
X150017215Y-92180368D01*
X150017219Y-92180366D01*
X150161966Y-92035619D01*
X150161968Y-92035615D01*
X150161971Y-92035613D01*
X150282284Y-91870014D01*
X150282286Y-91870011D01*
X150282287Y-91870010D01*
X150329516Y-91777317D01*
X150377489Y-91726523D01*
X150445310Y-91709728D01*
X150511445Y-91732265D01*
X150550485Y-91777319D01*
X150597715Y-91870014D01*
X150718028Y-92035613D01*
X150862786Y-92180371D01*
X150983226Y-92267874D01*
X151028390Y-92300687D01*
X151144607Y-92359903D01*
X151210776Y-92393618D01*
X151210778Y-92393618D01*
X151210781Y-92393620D01*
X151315137Y-92427527D01*
X151405465Y-92456877D01*
X151506557Y-92472888D01*
X151607648Y-92488900D01*
X151607649Y-92488900D01*
X151812351Y-92488900D01*
X151812352Y-92488900D01*
X152014534Y-92456877D01*
X152209219Y-92393620D01*
X152391610Y-92300687D01*
X152484590Y-92233132D01*
X152557213Y-92180371D01*
X152557215Y-92180368D01*
X152557219Y-92180366D01*
X152701966Y-92035619D01*
X152701968Y-92035615D01*
X152701971Y-92035613D01*
X152822284Y-91870014D01*
X152822286Y-91870011D01*
X152822287Y-91870010D01*
X152869516Y-91777317D01*
X152917489Y-91726523D01*
X152985310Y-91709728D01*
X153051445Y-91732265D01*
X153090485Y-91777319D01*
X153137715Y-91870014D01*
X153258028Y-92035613D01*
X153402786Y-92180371D01*
X153523226Y-92267874D01*
X153568390Y-92300687D01*
X153684607Y-92359903D01*
X153750776Y-92393618D01*
X153750778Y-92393618D01*
X153750781Y-92393620D01*
X153855137Y-92427527D01*
X153945465Y-92456877D01*
X154046557Y-92472888D01*
X154147648Y-92488900D01*
X154147649Y-92488900D01*
X154352351Y-92488900D01*
X154352352Y-92488900D01*
X154554534Y-92456877D01*
X154749219Y-92393620D01*
X154931610Y-92300687D01*
X155024590Y-92233132D01*
X155097213Y-92180371D01*
X155097215Y-92180368D01*
X155097219Y-92180366D01*
X155241966Y-92035619D01*
X155241968Y-92035615D01*
X155241971Y-92035613D01*
X155362284Y-91870014D01*
X155362286Y-91870011D01*
X155362287Y-91870010D01*
X155409516Y-91777317D01*
X155457489Y-91726523D01*
X155525310Y-91709728D01*
X155591445Y-91732265D01*
X155630485Y-91777319D01*
X155677715Y-91870014D01*
X155798028Y-92035613D01*
X155942786Y-92180371D01*
X156063226Y-92267874D01*
X156108390Y-92300687D01*
X156224607Y-92359903D01*
X156290776Y-92393618D01*
X156290778Y-92393618D01*
X156290781Y-92393620D01*
X156395137Y-92427527D01*
X156485465Y-92456877D01*
X156586557Y-92472888D01*
X156687648Y-92488900D01*
X156687649Y-92488900D01*
X156892351Y-92488900D01*
X156892352Y-92488900D01*
X157094534Y-92456877D01*
X157289219Y-92393620D01*
X157471610Y-92300687D01*
X157564590Y-92233132D01*
X157637213Y-92180371D01*
X157637215Y-92180368D01*
X157637219Y-92180366D01*
X157781966Y-92035619D01*
X157781968Y-92035615D01*
X157781971Y-92035613D01*
X157902284Y-91870014D01*
X157902286Y-91870011D01*
X157902287Y-91870010D01*
X157949516Y-91777317D01*
X157997489Y-91726523D01*
X158065310Y-91709728D01*
X158131445Y-91732265D01*
X158170485Y-91777319D01*
X158217715Y-91870014D01*
X158338028Y-92035613D01*
X158482786Y-92180371D01*
X158603226Y-92267874D01*
X158648390Y-92300687D01*
X158764607Y-92359903D01*
X158830776Y-92393618D01*
X158830778Y-92393618D01*
X158830781Y-92393620D01*
X158935137Y-92427527D01*
X159025465Y-92456877D01*
X159126557Y-92472888D01*
X159227648Y-92488900D01*
X159227649Y-92488900D01*
X159432351Y-92488900D01*
X159432352Y-92488900D01*
X159634534Y-92456877D01*
X159829219Y-92393620D01*
X160011610Y-92300687D01*
X160104590Y-92233132D01*
X160177213Y-92180371D01*
X160177215Y-92180368D01*
X160177219Y-92180366D01*
X160321966Y-92035619D01*
X160321968Y-92035615D01*
X160321971Y-92035613D01*
X160442284Y-91870014D01*
X160442286Y-91870011D01*
X160442287Y-91870010D01*
X160489516Y-91777317D01*
X160537489Y-91726523D01*
X160605310Y-91709728D01*
X160671445Y-91732265D01*
X160710485Y-91777319D01*
X160757715Y-91870014D01*
X160878028Y-92035613D01*
X161022786Y-92180371D01*
X161143226Y-92267874D01*
X161188390Y-92300687D01*
X161304607Y-92359903D01*
X161370776Y-92393618D01*
X161370778Y-92393618D01*
X161370781Y-92393620D01*
X161475137Y-92427527D01*
X161565465Y-92456877D01*
X161666557Y-92472888D01*
X161767648Y-92488900D01*
X161767649Y-92488900D01*
X161972351Y-92488900D01*
X161972352Y-92488900D01*
X162174534Y-92456877D01*
X162369219Y-92393620D01*
X162551610Y-92300687D01*
X162644590Y-92233132D01*
X162717213Y-92180371D01*
X162717215Y-92180368D01*
X162717219Y-92180366D01*
X162861966Y-92035619D01*
X162861968Y-92035615D01*
X162861971Y-92035613D01*
X162982284Y-91870014D01*
X162982286Y-91870011D01*
X162982287Y-91870010D01*
X163029516Y-91777317D01*
X163077489Y-91726523D01*
X163145310Y-91709728D01*
X163211445Y-91732265D01*
X163250485Y-91777319D01*
X163297715Y-91870014D01*
X163418028Y-92035613D01*
X163562786Y-92180371D01*
X163683226Y-92267874D01*
X163728390Y-92300687D01*
X163844607Y-92359903D01*
X163910776Y-92393618D01*
X163910778Y-92393618D01*
X163910781Y-92393620D01*
X164015137Y-92427527D01*
X164105465Y-92456877D01*
X164206557Y-92472888D01*
X164307648Y-92488900D01*
X164307649Y-92488900D01*
X164512351Y-92488900D01*
X164512352Y-92488900D01*
X164714534Y-92456877D01*
X164909219Y-92393620D01*
X165091610Y-92300687D01*
X165184590Y-92233132D01*
X165257213Y-92180371D01*
X165257215Y-92180368D01*
X165257219Y-92180366D01*
X165401966Y-92035619D01*
X165401968Y-92035615D01*
X165401971Y-92035613D01*
X165522284Y-91870014D01*
X165522286Y-91870011D01*
X165522287Y-91870010D01*
X165569516Y-91777317D01*
X165617489Y-91726523D01*
X165685310Y-91709728D01*
X165751445Y-91732265D01*
X165790485Y-91777319D01*
X165837715Y-91870014D01*
X165958028Y-92035613D01*
X166102786Y-92180371D01*
X166223226Y-92267874D01*
X166268390Y-92300687D01*
X166384607Y-92359903D01*
X166450776Y-92393618D01*
X166450778Y-92393618D01*
X166450781Y-92393620D01*
X166555137Y-92427527D01*
X166645465Y-92456877D01*
X166746557Y-92472888D01*
X166847648Y-92488900D01*
X166847649Y-92488900D01*
X167052351Y-92488900D01*
X167052352Y-92488900D01*
X167254534Y-92456877D01*
X167449219Y-92393620D01*
X167631610Y-92300687D01*
X167724590Y-92233132D01*
X167797213Y-92180371D01*
X167797215Y-92180368D01*
X167797219Y-92180366D01*
X167941966Y-92035619D01*
X167941968Y-92035615D01*
X167941971Y-92035613D01*
X168062284Y-91870014D01*
X168062286Y-91870011D01*
X168062287Y-91870010D01*
X168109516Y-91777317D01*
X168157489Y-91726523D01*
X168225310Y-91709728D01*
X168291445Y-91732265D01*
X168330485Y-91777319D01*
X168377715Y-91870014D01*
X168498028Y-92035613D01*
X168642786Y-92180371D01*
X168763226Y-92267874D01*
X168808390Y-92300687D01*
X168924607Y-92359903D01*
X168990776Y-92393618D01*
X168990778Y-92393618D01*
X168990781Y-92393620D01*
X169095137Y-92427527D01*
X169185465Y-92456877D01*
X169286557Y-92472888D01*
X169387648Y-92488900D01*
X169387649Y-92488900D01*
X169592351Y-92488900D01*
X169592352Y-92488900D01*
X169794534Y-92456877D01*
X169989219Y-92393620D01*
X170171610Y-92300687D01*
X170264590Y-92233132D01*
X170337213Y-92180371D01*
X170337215Y-92180368D01*
X170337219Y-92180366D01*
X170481966Y-92035619D01*
X170481968Y-92035615D01*
X170481971Y-92035613D01*
X170602286Y-91870011D01*
X170602415Y-91869759D01*
X170649795Y-91776769D01*
X170697769Y-91725973D01*
X170765590Y-91709178D01*
X170831725Y-91731715D01*
X170870765Y-91776769D01*
X170918141Y-91869750D01*
X170918147Y-91869759D01*
X170950523Y-91914321D01*
X170950524Y-91914322D01*
X171506212Y-91358634D01*
X171517482Y-91400692D01*
X171589890Y-91526108D01*
X171692292Y-91628510D01*
X171817708Y-91700918D01*
X171859765Y-91712187D01*
X171304076Y-92267874D01*
X171348650Y-92300259D01*
X171530968Y-92393155D01*
X171725582Y-92456390D01*
X171927683Y-92488400D01*
X172132317Y-92488400D01*
X172334417Y-92456390D01*
X172529031Y-92393155D01*
X172711349Y-92300259D01*
X172755921Y-92267874D01*
X172200234Y-91712187D01*
X172242292Y-91700918D01*
X172367708Y-91628510D01*
X172470110Y-91526108D01*
X172542518Y-91400692D01*
X172553787Y-91358634D01*
X173109474Y-91914321D01*
X173141861Y-91869747D01*
X173141861Y-91869746D01*
X173189234Y-91776771D01*
X173237208Y-91725975D01*
X173305028Y-91709179D01*
X173371164Y-91731716D01*
X173410203Y-91776769D01*
X173457713Y-91870011D01*
X173578028Y-92035613D01*
X173722786Y-92180371D01*
X173843226Y-92267874D01*
X173888390Y-92300687D01*
X174004607Y-92359903D01*
X174070776Y-92393618D01*
X174070778Y-92393618D01*
X174070781Y-92393620D01*
X174175137Y-92427527D01*
X174265465Y-92456877D01*
X174366557Y-92472888D01*
X174467648Y-92488900D01*
X174467649Y-92488900D01*
X174672351Y-92488900D01*
X174672352Y-92488900D01*
X174874534Y-92456877D01*
X175069219Y-92393620D01*
X175251610Y-92300687D01*
X175344590Y-92233132D01*
X175417213Y-92180371D01*
X175417215Y-92180368D01*
X175417219Y-92180366D01*
X175561966Y-92035619D01*
X175561968Y-92035615D01*
X175561971Y-92035613D01*
X175614732Y-91962990D01*
X175682287Y-91870010D01*
X175775220Y-91687619D01*
X175838477Y-91492934D01*
X175870500Y-91290752D01*
X175870500Y-91086048D01*
X175838477Y-90883866D01*
X175822549Y-90834846D01*
X175775218Y-90689176D01*
X175682420Y-90507052D01*
X175682287Y-90506790D01*
X175650092Y-90462477D01*
X175561971Y-90341186D01*
X175417213Y-90196428D01*
X175251613Y-90076115D01*
X175251612Y-90076114D01*
X175251610Y-90076113D01*
X175159470Y-90029165D01*
X175069223Y-89983181D01*
X174874534Y-89919922D01*
X174699995Y-89892278D01*
X174672352Y-89887900D01*
X174467648Y-89887900D01*
X174443329Y-89891751D01*
X174265465Y-89919922D01*
X174070776Y-89983181D01*
X173888386Y-90076115D01*
X173722786Y-90196428D01*
X173578028Y-90341186D01*
X173457713Y-90506788D01*
X173410203Y-90600030D01*
X173362228Y-90650826D01*
X173294407Y-90667620D01*
X173228272Y-90645082D01*
X173189234Y-90600028D01*
X173141861Y-90507052D01*
X173109474Y-90462477D01*
X173109474Y-90462476D01*
X172553787Y-91018164D01*
X172542518Y-90976108D01*
X172470110Y-90850692D01*
X172367708Y-90748290D01*
X172242292Y-90675882D01*
X172200233Y-90664612D01*
X172755922Y-90108924D01*
X172755921Y-90108923D01*
X172711359Y-90076547D01*
X172711350Y-90076541D01*
X172618369Y-90029165D01*
X172567573Y-89981190D01*
X172550778Y-89913369D01*
X172573315Y-89847235D01*
X172618370Y-89808195D01*
X172618920Y-89807915D01*
X172711610Y-89760687D01*
X172854498Y-89656874D01*
X172877213Y-89640371D01*
X172877215Y-89640368D01*
X172877219Y-89640366D01*
X173021966Y-89495619D01*
X173021968Y-89495615D01*
X173021971Y-89495613D01*
X173074732Y-89422990D01*
X173142287Y-89330010D01*
X173235220Y-89147619D01*
X173298477Y-88952934D01*
X173330500Y-88750752D01*
X173330500Y-88546048D01*
X173298477Y-88343865D01*
X173235218Y-88149176D01*
X173185766Y-88052123D01*
X173142287Y-87966790D01*
X173134556Y-87956149D01*
X173021971Y-87801186D01*
X172877213Y-87656428D01*
X172711613Y-87536115D01*
X172711612Y-87536114D01*
X172711610Y-87536113D01*
X172639751Y-87499499D01*
X172529223Y-87443181D01*
X172334534Y-87379922D01*
X172159995Y-87352278D01*
X172132352Y-87347900D01*
X171927648Y-87347900D01*
X171903329Y-87351751D01*
X171725465Y-87379922D01*
X171530776Y-87443181D01*
X171348386Y-87536115D01*
X171182786Y-87656428D01*
X171038028Y-87801186D01*
X170917715Y-87966786D01*
X170824781Y-88149176D01*
X170761522Y-88343865D01*
X170729500Y-88546048D01*
X170729500Y-88750751D01*
X170761522Y-88952934D01*
X170824781Y-89147623D01*
X170917715Y-89330013D01*
X171038028Y-89495613D01*
X171182786Y-89640371D01*
X171348385Y-89760684D01*
X171348387Y-89760685D01*
X171348390Y-89760687D01*
X171441080Y-89807915D01*
X171441630Y-89808195D01*
X171492426Y-89856170D01*
X171509221Y-89923991D01*
X171486684Y-89990125D01*
X171441630Y-90029165D01*
X171348644Y-90076543D01*
X171304077Y-90108923D01*
X171304077Y-90108924D01*
X171859766Y-90664612D01*
X171817708Y-90675882D01*
X171692292Y-90748290D01*
X171589890Y-90850692D01*
X171517482Y-90976108D01*
X171506212Y-91018165D01*
X170950524Y-90462477D01*
X170950523Y-90462477D01*
X170918143Y-90507044D01*
X170870765Y-90600030D01*
X170822790Y-90650826D01*
X170754969Y-90667621D01*
X170688834Y-90645083D01*
X170649795Y-90600030D01*
X170602284Y-90506785D01*
X170481971Y-90341186D01*
X170337213Y-90196428D01*
X170171613Y-90076115D01*
X170171612Y-90076114D01*
X170171610Y-90076113D01*
X170079470Y-90029165D01*
X169989223Y-89983181D01*
X169794534Y-89919922D01*
X169619995Y-89892278D01*
X169592352Y-89887900D01*
X169387648Y-89887900D01*
X169363329Y-89891751D01*
X169185465Y-89919922D01*
X168990776Y-89983181D01*
X168808386Y-90076115D01*
X168642786Y-90196428D01*
X168498028Y-90341186D01*
X168377715Y-90506786D01*
X168330485Y-90599480D01*
X168282510Y-90650276D01*
X168214689Y-90667071D01*
X168148554Y-90644534D01*
X168109515Y-90599480D01*
X168062420Y-90507052D01*
X168062287Y-90506790D01*
X168030092Y-90462477D01*
X167941971Y-90341186D01*
X167797213Y-90196428D01*
X167631613Y-90076115D01*
X167631612Y-90076114D01*
X167631610Y-90076113D01*
X167539470Y-90029165D01*
X167449223Y-89983181D01*
X167254534Y-89919922D01*
X167079995Y-89892278D01*
X167052352Y-89887900D01*
X166847648Y-89887900D01*
X166823329Y-89891751D01*
X166645465Y-89919922D01*
X166450776Y-89983181D01*
X166268386Y-90076115D01*
X166102786Y-90196428D01*
X165958028Y-90341186D01*
X165837715Y-90506786D01*
X165790485Y-90599480D01*
X165742510Y-90650276D01*
X165674689Y-90667071D01*
X165608554Y-90644534D01*
X165569515Y-90599480D01*
X165522420Y-90507052D01*
X165522287Y-90506790D01*
X165490092Y-90462477D01*
X165401971Y-90341186D01*
X165257213Y-90196428D01*
X165091613Y-90076115D01*
X165091612Y-90076114D01*
X165091610Y-90076113D01*
X164999470Y-90029165D01*
X164909223Y-89983181D01*
X164714534Y-89919922D01*
X164539995Y-89892278D01*
X164512352Y-89887900D01*
X164307648Y-89887900D01*
X164283329Y-89891751D01*
X164105465Y-89919922D01*
X163910776Y-89983181D01*
X163728386Y-90076115D01*
X163562786Y-90196428D01*
X163418028Y-90341186D01*
X163297715Y-90506786D01*
X163250485Y-90599480D01*
X163202510Y-90650276D01*
X163134689Y-90667071D01*
X163068554Y-90644534D01*
X163029515Y-90599480D01*
X162982420Y-90507052D01*
X162982287Y-90506790D01*
X162950092Y-90462477D01*
X162861971Y-90341186D01*
X162717213Y-90196428D01*
X162551611Y-90076113D01*
X162509121Y-90054463D01*
X162458326Y-90006489D01*
X162441531Y-89938668D01*
X162464069Y-89872533D01*
X162491106Y-89844712D01*
X162492328Y-89843797D01*
X162492331Y-89843796D01*
X162607546Y-89757546D01*
X162693796Y-89642331D01*
X162744091Y-89507483D01*
X162750500Y-89447873D01*
X162750499Y-88052128D01*
X162744091Y-87992517D01*
X162734495Y-87966790D01*
X162693797Y-87857671D01*
X162693793Y-87857664D01*
X162607547Y-87742455D01*
X162607544Y-87742452D01*
X162506874Y-87667090D01*
X162465003Y-87611156D01*
X162460019Y-87541465D01*
X162480865Y-87494942D01*
X162583996Y-87352994D01*
X162666211Y-87191639D01*
X162722171Y-87019409D01*
X162736765Y-86927259D01*
X162750500Y-86840551D01*
X162750500Y-86659448D01*
X162734019Y-86555397D01*
X162722171Y-86480591D01*
X162666211Y-86308361D01*
X162666211Y-86308360D01*
X162616476Y-86210751D01*
X162583996Y-86147006D01*
X162530679Y-86073621D01*
X162477558Y-86000505D01*
X162477554Y-86000500D01*
X162349501Y-85872447D01*
X162319044Y-85850319D01*
X162276378Y-85794989D01*
X162270399Y-85725376D01*
X162303004Y-85663580D01*
X162319044Y-85649681D01*
X162349501Y-85627553D01*
X162477553Y-85499501D01*
X162583996Y-85352994D01*
X162666211Y-85191639D01*
X162722171Y-85019409D01*
X162749999Y-84843711D01*
X162750500Y-84840551D01*
X162750500Y-84659448D01*
X162734019Y-84555397D01*
X162722171Y-84480591D01*
X162666211Y-84308361D01*
X162666211Y-84308360D01*
X162629036Y-84235402D01*
X162583996Y-84147006D01*
X162570396Y-84128287D01*
X162477558Y-84000505D01*
X162477554Y-84000500D01*
X162349499Y-83872445D01*
X162349494Y-83872441D01*
X162202997Y-83766006D01*
X162202996Y-83766005D01*
X162202994Y-83766004D01*
X162151300Y-83739664D01*
X162041639Y-83683788D01*
X162041636Y-83683787D01*
X161869410Y-83627829D01*
X161690551Y-83599500D01*
X161690546Y-83599500D01*
X161509454Y-83599500D01*
X161509449Y-83599500D01*
X161330589Y-83627829D01*
X161158363Y-83683787D01*
X161158360Y-83683788D01*
X160997002Y-83766006D01*
X160850505Y-83872441D01*
X160850500Y-83872445D01*
X160722445Y-84000500D01*
X160700318Y-84030956D01*
X160644987Y-84073621D01*
X160575374Y-84079600D01*
X160513579Y-84046994D01*
X160499682Y-84030956D01*
X160477554Y-84000500D01*
X160349499Y-83872445D01*
X160349494Y-83872441D01*
X160202997Y-83766006D01*
X160202996Y-83766005D01*
X160202994Y-83766004D01*
X160151300Y-83739664D01*
X160041639Y-83683788D01*
X160041636Y-83683787D01*
X159869410Y-83627829D01*
X159690551Y-83599500D01*
X159690546Y-83599500D01*
X159509454Y-83599500D01*
X159509449Y-83599500D01*
X159330589Y-83627829D01*
X159158363Y-83683787D01*
X159158360Y-83683788D01*
X158997002Y-83766006D01*
X158850505Y-83872441D01*
X158850500Y-83872445D01*
X158722445Y-84000500D01*
X158722441Y-84000505D01*
X158616006Y-84147002D01*
X158533788Y-84308360D01*
X158533787Y-84308363D01*
X158477829Y-84480589D01*
X158449500Y-84659448D01*
X158449500Y-84840551D01*
X158477829Y-85019410D01*
X158533787Y-85191636D01*
X158533788Y-85191639D01*
X158616006Y-85352997D01*
X158722441Y-85499494D01*
X158722445Y-85499499D01*
X158850500Y-85627554D01*
X158880956Y-85649682D01*
X158923621Y-85705013D01*
X158929600Y-85774626D01*
X158896994Y-85836421D01*
X158880956Y-85850318D01*
X158850500Y-85872445D01*
X158722445Y-86000500D01*
X158722441Y-86000505D01*
X158616006Y-86147002D01*
X158533788Y-86308360D01*
X158533787Y-86308363D01*
X158477829Y-86480589D01*
X158449500Y-86659448D01*
X158449500Y-86840551D01*
X158477829Y-87019410D01*
X158533787Y-87191636D01*
X158533788Y-87191639D01*
X158572654Y-87267915D01*
X158613408Y-87347900D01*
X158616006Y-87352997D01*
X158722441Y-87499494D01*
X158722445Y-87499499D01*
X158850500Y-87627554D01*
X158880956Y-87649682D01*
X158923621Y-87705013D01*
X158929600Y-87774626D01*
X158896994Y-87836421D01*
X158880956Y-87850318D01*
X158850500Y-87872445D01*
X158722445Y-88000500D01*
X158722441Y-88000505D01*
X158616006Y-88147002D01*
X158533788Y-88308360D01*
X158533787Y-88308363D01*
X158477829Y-88480589D01*
X158449500Y-88659448D01*
X158449500Y-88840551D01*
X158477829Y-89019410D01*
X158533787Y-89191636D01*
X158533788Y-89191639D01*
X158616006Y-89352997D01*
X158722441Y-89499494D01*
X158722445Y-89499499D01*
X158850504Y-89627558D01*
X158985741Y-89725812D01*
X159028407Y-89781141D01*
X159034386Y-89850755D01*
X159001781Y-89912550D01*
X158951175Y-89944061D01*
X158830776Y-89983181D01*
X158648386Y-90076115D01*
X158482786Y-90196428D01*
X158338028Y-90341186D01*
X158217715Y-90506786D01*
X158170485Y-90599480D01*
X158122510Y-90650276D01*
X158054689Y-90667071D01*
X157988554Y-90644534D01*
X157949515Y-90599480D01*
X157902420Y-90507052D01*
X157902287Y-90506790D01*
X157870092Y-90462477D01*
X157781971Y-90341186D01*
X157637213Y-90196428D01*
X157471613Y-90076115D01*
X157471612Y-90076114D01*
X157471610Y-90076113D01*
X157379470Y-90029165D01*
X157289223Y-89983181D01*
X157094534Y-89919922D01*
X156919995Y-89892278D01*
X156892352Y-89887900D01*
X156687648Y-89887900D01*
X156663329Y-89891751D01*
X156485465Y-89919922D01*
X156290776Y-89983181D01*
X156108386Y-90076115D01*
X155942786Y-90196428D01*
X155798028Y-90341186D01*
X155677715Y-90506786D01*
X155630485Y-90599480D01*
X155582510Y-90650276D01*
X155514689Y-90667071D01*
X155448554Y-90644534D01*
X155409515Y-90599480D01*
X155362420Y-90507052D01*
X155362287Y-90506790D01*
X155330092Y-90462477D01*
X155241971Y-90341186D01*
X155097213Y-90196428D01*
X154931613Y-90076115D01*
X154931612Y-90076114D01*
X154931610Y-90076113D01*
X154839470Y-90029165D01*
X154749223Y-89983181D01*
X154554534Y-89919922D01*
X154379995Y-89892278D01*
X154352352Y-89887900D01*
X154147648Y-89887900D01*
X154123329Y-89891751D01*
X153945465Y-89919922D01*
X153750776Y-89983181D01*
X153568386Y-90076115D01*
X153402786Y-90196428D01*
X153258028Y-90341186D01*
X153137715Y-90506786D01*
X153090485Y-90599480D01*
X153042510Y-90650276D01*
X152974689Y-90667071D01*
X152908554Y-90644534D01*
X152869515Y-90599480D01*
X152822420Y-90507052D01*
X152822287Y-90506790D01*
X152790092Y-90462477D01*
X152701971Y-90341186D01*
X152557213Y-90196428D01*
X152391613Y-90076115D01*
X152391612Y-90076114D01*
X152391610Y-90076113D01*
X152299470Y-90029165D01*
X152209223Y-89983181D01*
X152014534Y-89919922D01*
X151839995Y-89892278D01*
X151812352Y-89887900D01*
X151607648Y-89887900D01*
X151583329Y-89891751D01*
X151405465Y-89919922D01*
X151210776Y-89983181D01*
X151028386Y-90076115D01*
X150862786Y-90196428D01*
X150718028Y-90341186D01*
X150597715Y-90506786D01*
X150550485Y-90599480D01*
X150502510Y-90650276D01*
X150434689Y-90667071D01*
X150368554Y-90644534D01*
X150329515Y-90599480D01*
X150282420Y-90507052D01*
X150282287Y-90506790D01*
X150250092Y-90462477D01*
X150161971Y-90341186D01*
X150017213Y-90196428D01*
X149851613Y-90076115D01*
X149851612Y-90076114D01*
X149851610Y-90076113D01*
X149759470Y-90029165D01*
X149669223Y-89983181D01*
X149474534Y-89919922D01*
X149299995Y-89892278D01*
X149272352Y-89887900D01*
X149067648Y-89887900D01*
X149043329Y-89891751D01*
X148865465Y-89919922D01*
X148670776Y-89983181D01*
X148488386Y-90076115D01*
X148322786Y-90196428D01*
X148178028Y-90341186D01*
X148057715Y-90506786D01*
X148010485Y-90599480D01*
X147962510Y-90650276D01*
X147894689Y-90667071D01*
X147828554Y-90644534D01*
X147789515Y-90599480D01*
X147742420Y-90507052D01*
X147742287Y-90506790D01*
X147710092Y-90462477D01*
X147621971Y-90341186D01*
X147477213Y-90196428D01*
X147311613Y-90076115D01*
X147311612Y-90076114D01*
X147311610Y-90076113D01*
X147219470Y-90029165D01*
X147129223Y-89983181D01*
X146934534Y-89919922D01*
X146759995Y-89892278D01*
X146732352Y-89887900D01*
X146527648Y-89887900D01*
X146503329Y-89891751D01*
X146325465Y-89919922D01*
X146130776Y-89983181D01*
X145948386Y-90076115D01*
X145782786Y-90196428D01*
X145638028Y-90341186D01*
X145517715Y-90506786D01*
X145470485Y-90599480D01*
X145422510Y-90650276D01*
X145354689Y-90667071D01*
X145288554Y-90644534D01*
X145249515Y-90599480D01*
X145202420Y-90507052D01*
X145202287Y-90506790D01*
X145170092Y-90462477D01*
X145081971Y-90341186D01*
X144937213Y-90196428D01*
X144771613Y-90076115D01*
X144771612Y-90076114D01*
X144771610Y-90076113D01*
X144679470Y-90029165D01*
X144589223Y-89983181D01*
X144394534Y-89919922D01*
X144219995Y-89892278D01*
X144192352Y-89887900D01*
X143987648Y-89887900D01*
X143963329Y-89891751D01*
X143785465Y-89919922D01*
X143590776Y-89983181D01*
X143408386Y-90076115D01*
X143242786Y-90196428D01*
X143098028Y-90341186D01*
X142977715Y-90506786D01*
X142930485Y-90599480D01*
X142882510Y-90650276D01*
X142814689Y-90667071D01*
X142748554Y-90644534D01*
X142709515Y-90599480D01*
X142662420Y-90507052D01*
X142662287Y-90506790D01*
X142630092Y-90462477D01*
X142541971Y-90341186D01*
X142397213Y-90196428D01*
X142231613Y-90076115D01*
X142231612Y-90076114D01*
X142231610Y-90076113D01*
X142139470Y-90029165D01*
X142049223Y-89983181D01*
X141854534Y-89919922D01*
X141679995Y-89892278D01*
X141652352Y-89887900D01*
X141447648Y-89887900D01*
X141423329Y-89891751D01*
X141245465Y-89919922D01*
X141050776Y-89983181D01*
X140868386Y-90076115D01*
X140702786Y-90196428D01*
X140558028Y-90341186D01*
X140437715Y-90506786D01*
X140390485Y-90599480D01*
X140342510Y-90650276D01*
X140274689Y-90667071D01*
X140208554Y-90644534D01*
X140169515Y-90599480D01*
X140122420Y-90507052D01*
X140122287Y-90506790D01*
X140090092Y-90462477D01*
X140001971Y-90341186D01*
X139857213Y-90196428D01*
X139691613Y-90076115D01*
X139691612Y-90076114D01*
X139691610Y-90076113D01*
X139599470Y-90029165D01*
X139509223Y-89983181D01*
X139314534Y-89919922D01*
X139139995Y-89892278D01*
X139112352Y-89887900D01*
X138907648Y-89887900D01*
X138883329Y-89891751D01*
X138705465Y-89919922D01*
X138510776Y-89983181D01*
X138328386Y-90076115D01*
X138162786Y-90196428D01*
X138018028Y-90341186D01*
X137897715Y-90506786D01*
X137850485Y-90599480D01*
X137802510Y-90650276D01*
X137734689Y-90667071D01*
X137668554Y-90644534D01*
X137629515Y-90599480D01*
X137582420Y-90507052D01*
X137582287Y-90506790D01*
X137550092Y-90462477D01*
X137461971Y-90341186D01*
X137317213Y-90196428D01*
X137151613Y-90076115D01*
X137151612Y-90076114D01*
X137151610Y-90076113D01*
X137059470Y-90029165D01*
X136969223Y-89983181D01*
X136774534Y-89919922D01*
X136599995Y-89892278D01*
X136572352Y-89887900D01*
X136367648Y-89887900D01*
X136343329Y-89891751D01*
X136165465Y-89919922D01*
X135970776Y-89983181D01*
X135788386Y-90076115D01*
X135622786Y-90196428D01*
X135478028Y-90341186D01*
X135357715Y-90506786D01*
X135310485Y-90599480D01*
X135262510Y-90650276D01*
X135194689Y-90667071D01*
X135128554Y-90644534D01*
X135089515Y-90599480D01*
X135042420Y-90507052D01*
X135042287Y-90506790D01*
X135010092Y-90462477D01*
X134921971Y-90341186D01*
X134777213Y-90196428D01*
X134611613Y-90076115D01*
X134611612Y-90076114D01*
X134611610Y-90076113D01*
X134519470Y-90029165D01*
X134429223Y-89983181D01*
X134234534Y-89919922D01*
X134059995Y-89892278D01*
X134032352Y-89887900D01*
X133827648Y-89887900D01*
X133803329Y-89891751D01*
X133625465Y-89919922D01*
X133430776Y-89983181D01*
X133248386Y-90076115D01*
X133082786Y-90196428D01*
X132938028Y-90341186D01*
X132817715Y-90506786D01*
X132770485Y-90599480D01*
X132722510Y-90650276D01*
X132654689Y-90667071D01*
X132588554Y-90644534D01*
X132549515Y-90599480D01*
X132502420Y-90507052D01*
X132502287Y-90506790D01*
X132470092Y-90462477D01*
X132381971Y-90341186D01*
X132237213Y-90196428D01*
X132071613Y-90076115D01*
X132071612Y-90076114D01*
X132071610Y-90076113D01*
X131979470Y-90029165D01*
X131889223Y-89983181D01*
X131694534Y-89919922D01*
X131519995Y-89892278D01*
X131492352Y-89887900D01*
X131287648Y-89887900D01*
X131263329Y-89891751D01*
X131085465Y-89919922D01*
X130890776Y-89983181D01*
X130708386Y-90076115D01*
X130542786Y-90196428D01*
X130398028Y-90341186D01*
X130277715Y-90506786D01*
X130230485Y-90599480D01*
X130182510Y-90650276D01*
X130114689Y-90667071D01*
X130048554Y-90644534D01*
X130009515Y-90599480D01*
X129962420Y-90507052D01*
X129962287Y-90506790D01*
X129930092Y-90462477D01*
X129841971Y-90341186D01*
X129697213Y-90196428D01*
X129531614Y-90076115D01*
X129525006Y-90072748D01*
X129438917Y-90028883D01*
X129388123Y-89980911D01*
X129371328Y-89913090D01*
X129393865Y-89846955D01*
X129438917Y-89807916D01*
X129531610Y-89760687D01*
X129674498Y-89656874D01*
X129697213Y-89640371D01*
X129697215Y-89640368D01*
X129697219Y-89640366D01*
X129841966Y-89495619D01*
X129841968Y-89495615D01*
X129841971Y-89495613D01*
X129894732Y-89422990D01*
X129962287Y-89330010D01*
X130055220Y-89147619D01*
X130118477Y-88952934D01*
X130150500Y-88750752D01*
X130150500Y-88546048D01*
X130118477Y-88343865D01*
X130055218Y-88149176D01*
X130005766Y-88052123D01*
X129962287Y-87966790D01*
X129954556Y-87956149D01*
X129841971Y-87801186D01*
X129697213Y-87656428D01*
X129531614Y-87536115D01*
X129525006Y-87532748D01*
X129438917Y-87488883D01*
X129388123Y-87440911D01*
X129371328Y-87373090D01*
X129393865Y-87306955D01*
X129438917Y-87267916D01*
X129531610Y-87220687D01*
X129552770Y-87205313D01*
X129697213Y-87100371D01*
X129697215Y-87100368D01*
X129697219Y-87100366D01*
X129841966Y-86955619D01*
X129841968Y-86955615D01*
X129841971Y-86955613D01*
X129925567Y-86840551D01*
X129962287Y-86790010D01*
X130055220Y-86607619D01*
X130118477Y-86412934D01*
X130150500Y-86210752D01*
X130150500Y-86006048D01*
X130125835Y-85850319D01*
X130118477Y-85803865D01*
X130072895Y-85663580D01*
X130055220Y-85609181D01*
X130055218Y-85609178D01*
X130055218Y-85609176D01*
X129999334Y-85499499D01*
X129962287Y-85426790D01*
X129908672Y-85352994D01*
X129841971Y-85261186D01*
X129697213Y-85116428D01*
X129531614Y-84996115D01*
X129525006Y-84992748D01*
X129438917Y-84948883D01*
X129388123Y-84900911D01*
X129371328Y-84833090D01*
X129393865Y-84766955D01*
X129438917Y-84727916D01*
X129531610Y-84680687D01*
X129685348Y-84568991D01*
X129697213Y-84560371D01*
X129697215Y-84560368D01*
X129697219Y-84560366D01*
X129841966Y-84415619D01*
X129841968Y-84415615D01*
X129841971Y-84415613D01*
X129919893Y-84308361D01*
X129962287Y-84250010D01*
X130055220Y-84067619D01*
X130118477Y-83872934D01*
X130150500Y-83670752D01*
X130150500Y-83466048D01*
X130121412Y-83282396D01*
X130118477Y-83263865D01*
X130055218Y-83069176D01*
X130021503Y-83003007D01*
X129962287Y-82886790D01*
X129954556Y-82876149D01*
X129841971Y-82721186D01*
X129697213Y-82576428D01*
X129531614Y-82456115D01*
X129525006Y-82452748D01*
X129438917Y-82408883D01*
X129432561Y-82402880D01*
X129424273Y-82400102D01*
X129407552Y-82379261D01*
X129388123Y-82360911D01*
X129386021Y-82352423D01*
X129380550Y-82345604D01*
X129377750Y-82319027D01*
X129371328Y-82293090D01*
X129374147Y-82284815D01*
X129373232Y-82276119D01*
X129385245Y-82252248D01*
X129393865Y-82226955D01*
X129401537Y-82219878D01*
X129404643Y-82213707D01*
X129412429Y-82207848D01*
X172689500Y-82207848D01*
X172689500Y-82388951D01*
X172717829Y-82567810D01*
X172773787Y-82740036D01*
X172773788Y-82740039D01*
X172856006Y-82901397D01*
X172962441Y-83047894D01*
X172962445Y-83047899D01*
X173090500Y-83175954D01*
X173090505Y-83175958D01*
X173218287Y-83268796D01*
X173237006Y-83282396D01*
X173342484Y-83336140D01*
X173398360Y-83364611D01*
X173398363Y-83364612D01*
X173484476Y-83392591D01*
X173570591Y-83420571D01*
X173643639Y-83432140D01*
X173730678Y-83445927D01*
X173793813Y-83475856D01*
X173830744Y-83535168D01*
X173829746Y-83605031D01*
X173791136Y-83663263D01*
X173730678Y-83690873D01*
X173570589Y-83716229D01*
X173398363Y-83772187D01*
X173398360Y-83772188D01*
X173237002Y-83854406D01*
X173090505Y-83960841D01*
X173090500Y-83960845D01*
X172962445Y-84088900D01*
X172962441Y-84088905D01*
X172856006Y-84235402D01*
X172773788Y-84396760D01*
X172773787Y-84396763D01*
X172717829Y-84568989D01*
X172689500Y-84747848D01*
X172689500Y-84928951D01*
X172717829Y-85107810D01*
X172773787Y-85280036D01*
X172773788Y-85280039D01*
X172810963Y-85352997D01*
X172851349Y-85432259D01*
X172856006Y-85441397D01*
X172962441Y-85587894D01*
X172962445Y-85587899D01*
X173090500Y-85715954D01*
X173090505Y-85715958D01*
X173218287Y-85808796D01*
X173237006Y-85822396D01*
X173335232Y-85872445D01*
X173398360Y-85904611D01*
X173398363Y-85904612D01*
X173484476Y-85932591D01*
X173570591Y-85960571D01*
X173653429Y-85973691D01*
X173749449Y-85988900D01*
X173749454Y-85988900D01*
X173930551Y-85988900D01*
X174017259Y-85975165D01*
X174109409Y-85960571D01*
X174281639Y-85904611D01*
X174442994Y-85822396D01*
X174589501Y-85715953D01*
X174717553Y-85587901D01*
X174823996Y-85441394D01*
X174906211Y-85280039D01*
X174962171Y-85107809D01*
X174979862Y-84996113D01*
X174990500Y-84928951D01*
X174990500Y-84747848D01*
X174974019Y-84643797D01*
X174962171Y-84568991D01*
X174933448Y-84480589D01*
X174906212Y-84396763D01*
X174906211Y-84396760D01*
X174877740Y-84340884D01*
X174823996Y-84235406D01*
X174759767Y-84147002D01*
X174717558Y-84088905D01*
X174717554Y-84088900D01*
X174589499Y-83960845D01*
X174589494Y-83960841D01*
X174442997Y-83854406D01*
X174442996Y-83854405D01*
X174442994Y-83854404D01*
X174391300Y-83828064D01*
X174281639Y-83772188D01*
X174281636Y-83772187D01*
X174109410Y-83716229D01*
X173949321Y-83690873D01*
X173886186Y-83660944D01*
X173849255Y-83601632D01*
X173850253Y-83531770D01*
X173888863Y-83473537D01*
X173949321Y-83445927D01*
X174019425Y-83434822D01*
X174109409Y-83420571D01*
X174281639Y-83364611D01*
X174442994Y-83282396D01*
X174589501Y-83175953D01*
X174717553Y-83047901D01*
X174823996Y-82901394D01*
X174906211Y-82740039D01*
X174962171Y-82567809D01*
X174979862Y-82456113D01*
X174990500Y-82388951D01*
X174990500Y-82207848D01*
X174973290Y-82099196D01*
X174962171Y-82028991D01*
X174934191Y-81942876D01*
X174906212Y-81856763D01*
X174906211Y-81856760D01*
X174877740Y-81800884D01*
X174823996Y-81695406D01*
X174810396Y-81676687D01*
X174717558Y-81548905D01*
X174717554Y-81548900D01*
X174589499Y-81420845D01*
X174589494Y-81420841D01*
X174442997Y-81314406D01*
X174442996Y-81314405D01*
X174442994Y-81314404D01*
X174391300Y-81288064D01*
X174281639Y-81232188D01*
X174281636Y-81232187D01*
X174109410Y-81176229D01*
X173930551Y-81147900D01*
X173930546Y-81147900D01*
X173749454Y-81147900D01*
X173749449Y-81147900D01*
X173570589Y-81176229D01*
X173398363Y-81232187D01*
X173398360Y-81232188D01*
X173237002Y-81314406D01*
X173090505Y-81420841D01*
X173090500Y-81420845D01*
X172962445Y-81548900D01*
X172962441Y-81548905D01*
X172856006Y-81695402D01*
X172773788Y-81856760D01*
X172773787Y-81856763D01*
X172717829Y-82028989D01*
X172689500Y-82207848D01*
X129412429Y-82207848D01*
X129424103Y-82199063D01*
X129432172Y-82191621D01*
X129435482Y-82189666D01*
X129531610Y-82140687D01*
X129697219Y-82020366D01*
X129841966Y-81875619D01*
X129841968Y-81875615D01*
X129841971Y-81875613D01*
X129894732Y-81802990D01*
X129962287Y-81710010D01*
X130055220Y-81527619D01*
X130118477Y-81332934D01*
X130150500Y-81130752D01*
X130150500Y-80926048D01*
X130118477Y-80723866D01*
X130055220Y-80529181D01*
X130055218Y-80529178D01*
X130055218Y-80529176D01*
X130021503Y-80463007D01*
X129962287Y-80346790D01*
X129954556Y-80336149D01*
X129841971Y-80181186D01*
X129697213Y-80036428D01*
X129531614Y-79916115D01*
X129525006Y-79912748D01*
X129438917Y-79868883D01*
X129388123Y-79820911D01*
X129371328Y-79753090D01*
X129393865Y-79686955D01*
X129438917Y-79647916D01*
X129531610Y-79600687D01*
X129618824Y-79537323D01*
X129697213Y-79480371D01*
X129697215Y-79480368D01*
X129697219Y-79480366D01*
X129841966Y-79335619D01*
X129841968Y-79335615D01*
X129841971Y-79335613D01*
X129894732Y-79262990D01*
X129962287Y-79170010D01*
X130055220Y-78987619D01*
X130084713Y-78896848D01*
X156810300Y-78896848D01*
X156810300Y-79101551D01*
X156842322Y-79303734D01*
X156905581Y-79498423D01*
X156998515Y-79680813D01*
X157118828Y-79846413D01*
X157263586Y-79991171D01*
X157418549Y-80103756D01*
X157429190Y-80111487D01*
X157518012Y-80156744D01*
X157611576Y-80204418D01*
X157611578Y-80204418D01*
X157611581Y-80204420D01*
X157715937Y-80238327D01*
X157806265Y-80267677D01*
X157907357Y-80283688D01*
X158008448Y-80299700D01*
X158008449Y-80299700D01*
X158213151Y-80299700D01*
X158213152Y-80299700D01*
X158415334Y-80267677D01*
X158610019Y-80204420D01*
X158792410Y-80111487D01*
X158888701Y-80041528D01*
X158958013Y-79991171D01*
X158958015Y-79991168D01*
X158958019Y-79991166D01*
X159102766Y-79846419D01*
X159102768Y-79846415D01*
X159102771Y-79846413D01*
X159223084Y-79680814D01*
X159223085Y-79680813D01*
X159223087Y-79680810D01*
X159270316Y-79588117D01*
X159318289Y-79537323D01*
X159386110Y-79520528D01*
X159452245Y-79543065D01*
X159491283Y-79588117D01*
X159521752Y-79647915D01*
X159538515Y-79680814D01*
X159658828Y-79846413D01*
X159803586Y-79991171D01*
X159958549Y-80103756D01*
X159969190Y-80111487D01*
X160058012Y-80156744D01*
X160151576Y-80204418D01*
X160151578Y-80204418D01*
X160151581Y-80204420D01*
X160255937Y-80238327D01*
X160346265Y-80267677D01*
X160447357Y-80283688D01*
X160548448Y-80299700D01*
X160548449Y-80299700D01*
X160753151Y-80299700D01*
X160753152Y-80299700D01*
X160955334Y-80267677D01*
X161150019Y-80204420D01*
X161332410Y-80111487D01*
X161428701Y-80041528D01*
X161498013Y-79991171D01*
X161498015Y-79991168D01*
X161498019Y-79991166D01*
X161642766Y-79846419D01*
X161642768Y-79846415D01*
X161642771Y-79846413D01*
X161763084Y-79680814D01*
X161763085Y-79680813D01*
X161763087Y-79680810D01*
X161810316Y-79588117D01*
X161858289Y-79537323D01*
X161926110Y-79520528D01*
X161992245Y-79543065D01*
X162031283Y-79588117D01*
X162061752Y-79647915D01*
X162078515Y-79680814D01*
X162198828Y-79846413D01*
X162343586Y-79991171D01*
X162498549Y-80103756D01*
X162509190Y-80111487D01*
X162598012Y-80156744D01*
X162691576Y-80204418D01*
X162691578Y-80204418D01*
X162691581Y-80204420D01*
X162795937Y-80238327D01*
X162886265Y-80267677D01*
X162987357Y-80283688D01*
X163088448Y-80299700D01*
X163088449Y-80299700D01*
X163293151Y-80299700D01*
X163293152Y-80299700D01*
X163495334Y-80267677D01*
X163690019Y-80204420D01*
X163872410Y-80111487D01*
X163968701Y-80041528D01*
X164038013Y-79991171D01*
X164038015Y-79991168D01*
X164038019Y-79991166D01*
X164182766Y-79846419D01*
X164182768Y-79846415D01*
X164182771Y-79846413D01*
X164303084Y-79680814D01*
X164303085Y-79680813D01*
X164303087Y-79680810D01*
X164350316Y-79588117D01*
X164398289Y-79537323D01*
X164466110Y-79520528D01*
X164532245Y-79543065D01*
X164571283Y-79588117D01*
X164601752Y-79647915D01*
X164618515Y-79680814D01*
X164738828Y-79846413D01*
X164883586Y-79991171D01*
X165038549Y-80103756D01*
X165049190Y-80111487D01*
X165138012Y-80156744D01*
X165231576Y-80204418D01*
X165231578Y-80204418D01*
X165231581Y-80204420D01*
X165335937Y-80238327D01*
X165426265Y-80267677D01*
X165527357Y-80283688D01*
X165628448Y-80299700D01*
X165628449Y-80299700D01*
X165833151Y-80299700D01*
X165833152Y-80299700D01*
X166035334Y-80267677D01*
X166230019Y-80204420D01*
X166412410Y-80111487D01*
X166508701Y-80041528D01*
X166578013Y-79991171D01*
X166578015Y-79991168D01*
X166578019Y-79991166D01*
X166722766Y-79846419D01*
X166749130Y-79810130D01*
X166804458Y-79767465D01*
X166874071Y-79761484D01*
X166935867Y-79794089D01*
X166970226Y-79854926D01*
X166972738Y-79869759D01*
X166976707Y-79906680D01*
X167027002Y-80041528D01*
X167027006Y-80041535D01*
X167113252Y-80156744D01*
X167113255Y-80156747D01*
X167228464Y-80242993D01*
X167228471Y-80242997D01*
X167363317Y-80293291D01*
X167363316Y-80293291D01*
X167370244Y-80294035D01*
X167422927Y-80299700D01*
X169118672Y-80299699D01*
X169178283Y-80293291D01*
X169313131Y-80242996D01*
X169428346Y-80156746D01*
X169514596Y-80041531D01*
X169564891Y-79906683D01*
X169571300Y-79847073D01*
X169571299Y-78151328D01*
X169564891Y-78091717D01*
X169514596Y-77956869D01*
X169514595Y-77956868D01*
X169514593Y-77956864D01*
X169428347Y-77841655D01*
X169428344Y-77841652D01*
X169313135Y-77755406D01*
X169313128Y-77755402D01*
X169178282Y-77705108D01*
X169178283Y-77705108D01*
X169118683Y-77698701D01*
X169118681Y-77698700D01*
X169118673Y-77698700D01*
X169118664Y-77698700D01*
X167422929Y-77698700D01*
X167422923Y-77698701D01*
X167363316Y-77705108D01*
X167228471Y-77755402D01*
X167228464Y-77755406D01*
X167113255Y-77841652D01*
X167113252Y-77841655D01*
X167027006Y-77956864D01*
X167027002Y-77956871D01*
X166976708Y-78091716D01*
X166972739Y-78128640D01*
X166946001Y-78193191D01*
X166888609Y-78233039D01*
X166818783Y-78235532D01*
X166758695Y-78199879D01*
X166749132Y-78188270D01*
X166722767Y-78151982D01*
X166578013Y-78007228D01*
X166412413Y-77886915D01*
X166412412Y-77886914D01*
X166412410Y-77886913D01*
X166355453Y-77857891D01*
X166230023Y-77793981D01*
X166035334Y-77730722D01*
X165860795Y-77703078D01*
X165833152Y-77698700D01*
X165628448Y-77698700D01*
X165604129Y-77702551D01*
X165426265Y-77730722D01*
X165231576Y-77793981D01*
X165049186Y-77886915D01*
X164883586Y-78007228D01*
X164738828Y-78151986D01*
X164618515Y-78317586D01*
X164571285Y-78410280D01*
X164523310Y-78461076D01*
X164455489Y-78477871D01*
X164389354Y-78455334D01*
X164350315Y-78410280D01*
X164337968Y-78386048D01*
X164303087Y-78317590D01*
X164241658Y-78233039D01*
X164182771Y-78151986D01*
X164038013Y-78007228D01*
X163872413Y-77886915D01*
X163872412Y-77886914D01*
X163872410Y-77886913D01*
X163815453Y-77857891D01*
X163690023Y-77793981D01*
X163495334Y-77730722D01*
X163320795Y-77703078D01*
X163293152Y-77698700D01*
X163088448Y-77698700D01*
X163064129Y-77702551D01*
X162886265Y-77730722D01*
X162691576Y-77793981D01*
X162509186Y-77886915D01*
X162343586Y-78007228D01*
X162198828Y-78151986D01*
X162078515Y-78317586D01*
X162031285Y-78410280D01*
X161983310Y-78461076D01*
X161915489Y-78477871D01*
X161849354Y-78455334D01*
X161810315Y-78410280D01*
X161797968Y-78386048D01*
X161763087Y-78317590D01*
X161701658Y-78233039D01*
X161642771Y-78151986D01*
X161498013Y-78007228D01*
X161332413Y-77886915D01*
X161332412Y-77886914D01*
X161332410Y-77886913D01*
X161275453Y-77857891D01*
X161150023Y-77793981D01*
X160955334Y-77730722D01*
X160780795Y-77703078D01*
X160753152Y-77698700D01*
X160548448Y-77698700D01*
X160524129Y-77702551D01*
X160346265Y-77730722D01*
X160151576Y-77793981D01*
X159969186Y-77886915D01*
X159803586Y-78007228D01*
X159658828Y-78151986D01*
X159538515Y-78317586D01*
X159491285Y-78410280D01*
X159443310Y-78461076D01*
X159375489Y-78477871D01*
X159309354Y-78455334D01*
X159270315Y-78410280D01*
X159257968Y-78386048D01*
X159223087Y-78317590D01*
X159161658Y-78233039D01*
X159102771Y-78151986D01*
X158958013Y-78007228D01*
X158792413Y-77886915D01*
X158792412Y-77886914D01*
X158792410Y-77886913D01*
X158735453Y-77857891D01*
X158610023Y-77793981D01*
X158415334Y-77730722D01*
X158240795Y-77703078D01*
X158213152Y-77698700D01*
X158008448Y-77698700D01*
X157984129Y-77702551D01*
X157806265Y-77730722D01*
X157611576Y-77793981D01*
X157429186Y-77886915D01*
X157263586Y-78007228D01*
X157118828Y-78151986D01*
X156998515Y-78317586D01*
X156905581Y-78499976D01*
X156842322Y-78694665D01*
X156810300Y-78896848D01*
X130084713Y-78896848D01*
X130118477Y-78792934D01*
X130150500Y-78590752D01*
X130150500Y-78386048D01*
X130118477Y-78183866D01*
X130107904Y-78151327D01*
X130088536Y-78091716D01*
X130055220Y-77989181D01*
X130055218Y-77989178D01*
X130055218Y-77989176D01*
X130021503Y-77923007D01*
X129962287Y-77806790D01*
X129924955Y-77755406D01*
X129841971Y-77641186D01*
X129697213Y-77496428D01*
X129531614Y-77376115D01*
X129525006Y-77372748D01*
X129438917Y-77328883D01*
X129388123Y-77280911D01*
X129371328Y-77213090D01*
X129393865Y-77146955D01*
X129438917Y-77107916D01*
X129531610Y-77060687D01*
X129552770Y-77045313D01*
X129697213Y-76940371D01*
X129697215Y-76940368D01*
X129697219Y-76940366D01*
X129841966Y-76795619D01*
X129841968Y-76795615D01*
X129841971Y-76795613D01*
X129962284Y-76630014D01*
X129962285Y-76630013D01*
X129962287Y-76630010D01*
X130009516Y-76537317D01*
X130057489Y-76486523D01*
X130125310Y-76469728D01*
X130191445Y-76492265D01*
X130230485Y-76537319D01*
X130277715Y-76630014D01*
X130398028Y-76795613D01*
X130542786Y-76940371D01*
X130697749Y-77052956D01*
X130708390Y-77060687D01*
X130797212Y-77105944D01*
X130890776Y-77153618D01*
X130890778Y-77153618D01*
X130890781Y-77153620D01*
X130995137Y-77187527D01*
X131085465Y-77216877D01*
X131104697Y-77219923D01*
X131287648Y-77248900D01*
X131287649Y-77248900D01*
X131492351Y-77248900D01*
X131492352Y-77248900D01*
X131694534Y-77216877D01*
X131889219Y-77153620D01*
X132071610Y-77060687D01*
X132167901Y-76990728D01*
X132237213Y-76940371D01*
X132237215Y-76940368D01*
X132237219Y-76940366D01*
X132381966Y-76795619D01*
X132381968Y-76795615D01*
X132381971Y-76795613D01*
X132502284Y-76630014D01*
X132502285Y-76630013D01*
X132502287Y-76630010D01*
X132549516Y-76537317D01*
X132597489Y-76486523D01*
X132665310Y-76469728D01*
X132731445Y-76492265D01*
X132770485Y-76537319D01*
X132817715Y-76630014D01*
X132938028Y-76795613D01*
X133082786Y-76940371D01*
X133237749Y-77052956D01*
X133248390Y-77060687D01*
X133337212Y-77105944D01*
X133430776Y-77153618D01*
X133430778Y-77153618D01*
X133430781Y-77153620D01*
X133535137Y-77187527D01*
X133625465Y-77216877D01*
X133644697Y-77219923D01*
X133827648Y-77248900D01*
X133827649Y-77248900D01*
X134032351Y-77248900D01*
X134032352Y-77248900D01*
X134234534Y-77216877D01*
X134429219Y-77153620D01*
X134611610Y-77060687D01*
X134707901Y-76990728D01*
X134777213Y-76940371D01*
X134777215Y-76940368D01*
X134777219Y-76940366D01*
X134921966Y-76795619D01*
X134921968Y-76795615D01*
X134921971Y-76795613D01*
X135042284Y-76630014D01*
X135042285Y-76630013D01*
X135042287Y-76630010D01*
X135089516Y-76537317D01*
X135137489Y-76486523D01*
X135205310Y-76469728D01*
X135271445Y-76492265D01*
X135310485Y-76537319D01*
X135357715Y-76630014D01*
X135478028Y-76795613D01*
X135622786Y-76940371D01*
X135777749Y-77052956D01*
X135788390Y-77060687D01*
X135877212Y-77105944D01*
X135970776Y-77153618D01*
X135970778Y-77153618D01*
X135970781Y-77153620D01*
X136075137Y-77187527D01*
X136165465Y-77216877D01*
X136184697Y-77219923D01*
X136367648Y-77248900D01*
X136367649Y-77248900D01*
X136572351Y-77248900D01*
X136572352Y-77248900D01*
X136774534Y-77216877D01*
X136969219Y-77153620D01*
X137151610Y-77060687D01*
X137247901Y-76990728D01*
X137317213Y-76940371D01*
X137317215Y-76940368D01*
X137317219Y-76940366D01*
X137461966Y-76795619D01*
X137461968Y-76795615D01*
X137461971Y-76795613D01*
X137582284Y-76630014D01*
X137582285Y-76630013D01*
X137582287Y-76630010D01*
X137629516Y-76537317D01*
X137677489Y-76486523D01*
X137745310Y-76469728D01*
X137811445Y-76492265D01*
X137850485Y-76537319D01*
X137897715Y-76630014D01*
X138018028Y-76795613D01*
X138162786Y-76940371D01*
X138317749Y-77052956D01*
X138328390Y-77060687D01*
X138417212Y-77105944D01*
X138510776Y-77153618D01*
X138510778Y-77153618D01*
X138510781Y-77153620D01*
X138615137Y-77187527D01*
X138705465Y-77216877D01*
X138724697Y-77219923D01*
X138907648Y-77248900D01*
X138907649Y-77248900D01*
X139112351Y-77248900D01*
X139112352Y-77248900D01*
X139314534Y-77216877D01*
X139509219Y-77153620D01*
X139691610Y-77060687D01*
X139787901Y-76990728D01*
X139857213Y-76940371D01*
X139857215Y-76940368D01*
X139857219Y-76940366D01*
X140001966Y-76795619D01*
X140001968Y-76795615D01*
X140001971Y-76795613D01*
X140122284Y-76630014D01*
X140122285Y-76630013D01*
X140122287Y-76630010D01*
X140169516Y-76537317D01*
X140217489Y-76486523D01*
X140285310Y-76469728D01*
X140351445Y-76492265D01*
X140390485Y-76537319D01*
X140437715Y-76630014D01*
X140558028Y-76795613D01*
X140702786Y-76940371D01*
X140857749Y-77052956D01*
X140868390Y-77060687D01*
X140957212Y-77105944D01*
X141050776Y-77153618D01*
X141050778Y-77153618D01*
X141050781Y-77153620D01*
X141155137Y-77187527D01*
X141245465Y-77216877D01*
X141264697Y-77219923D01*
X141447648Y-77248900D01*
X141447649Y-77248900D01*
X141652351Y-77248900D01*
X141652352Y-77248900D01*
X141854534Y-77216877D01*
X142049219Y-77153620D01*
X142231610Y-77060687D01*
X142327901Y-76990728D01*
X142397213Y-76940371D01*
X142397215Y-76940368D01*
X142397219Y-76940366D01*
X142541966Y-76795619D01*
X142541968Y-76795615D01*
X142541971Y-76795613D01*
X142662284Y-76630014D01*
X142662285Y-76630013D01*
X142662287Y-76630010D01*
X142709516Y-76537317D01*
X142757489Y-76486523D01*
X142825310Y-76469728D01*
X142891445Y-76492265D01*
X142930485Y-76537319D01*
X142977715Y-76630014D01*
X143098028Y-76795613D01*
X143242786Y-76940371D01*
X143397749Y-77052956D01*
X143408390Y-77060687D01*
X143497212Y-77105944D01*
X143590776Y-77153618D01*
X143590778Y-77153618D01*
X143590781Y-77153620D01*
X143695137Y-77187527D01*
X143785465Y-77216877D01*
X143804697Y-77219923D01*
X143987648Y-77248900D01*
X143987649Y-77248900D01*
X144192351Y-77248900D01*
X144192352Y-77248900D01*
X144394534Y-77216877D01*
X144589219Y-77153620D01*
X144771610Y-77060687D01*
X144867901Y-76990728D01*
X144937213Y-76940371D01*
X144937215Y-76940368D01*
X144937219Y-76940366D01*
X145081966Y-76795619D01*
X145081968Y-76795615D01*
X145081971Y-76795613D01*
X145202284Y-76630014D01*
X145202285Y-76630013D01*
X145202287Y-76630010D01*
X145249516Y-76537317D01*
X145297489Y-76486523D01*
X145365310Y-76469728D01*
X145431445Y-76492265D01*
X145470485Y-76537319D01*
X145517715Y-76630014D01*
X145638028Y-76795613D01*
X145782786Y-76940371D01*
X145937749Y-77052956D01*
X145948390Y-77060687D01*
X146037212Y-77105944D01*
X146130776Y-77153618D01*
X146130778Y-77153618D01*
X146130781Y-77153620D01*
X146235137Y-77187527D01*
X146325465Y-77216877D01*
X146344697Y-77219923D01*
X146527648Y-77248900D01*
X146527649Y-77248900D01*
X146732351Y-77248900D01*
X146732352Y-77248900D01*
X146934534Y-77216877D01*
X147129219Y-77153620D01*
X147311610Y-77060687D01*
X147407901Y-76990728D01*
X147477213Y-76940371D01*
X147477215Y-76940368D01*
X147477219Y-76940366D01*
X147621966Y-76795619D01*
X147621968Y-76795615D01*
X147621971Y-76795613D01*
X147742284Y-76630014D01*
X147742285Y-76630013D01*
X147742287Y-76630010D01*
X147789516Y-76537317D01*
X147837489Y-76486523D01*
X147905310Y-76469728D01*
X147971445Y-76492265D01*
X148010485Y-76537319D01*
X148057715Y-76630014D01*
X148178028Y-76795613D01*
X148322786Y-76940371D01*
X148477749Y-77052956D01*
X148488390Y-77060687D01*
X148577212Y-77105944D01*
X148670776Y-77153618D01*
X148670778Y-77153618D01*
X148670781Y-77153620D01*
X148775137Y-77187527D01*
X148865465Y-77216877D01*
X148884697Y-77219923D01*
X149067648Y-77248900D01*
X149067649Y-77248900D01*
X149272351Y-77248900D01*
X149272352Y-77248900D01*
X149474534Y-77216877D01*
X149669219Y-77153620D01*
X149851610Y-77060687D01*
X149947901Y-76990728D01*
X150017213Y-76940371D01*
X150017215Y-76940368D01*
X150017219Y-76940366D01*
X150161966Y-76795619D01*
X150161968Y-76795615D01*
X150161971Y-76795613D01*
X150282284Y-76630014D01*
X150282285Y-76630013D01*
X150282287Y-76630010D01*
X150329516Y-76537317D01*
X150377489Y-76486523D01*
X150445310Y-76469728D01*
X150511445Y-76492265D01*
X150550485Y-76537319D01*
X150597715Y-76630014D01*
X150718028Y-76795613D01*
X150862786Y-76940371D01*
X151017749Y-77052956D01*
X151028390Y-77060687D01*
X151117212Y-77105944D01*
X151210776Y-77153618D01*
X151210778Y-77153618D01*
X151210781Y-77153620D01*
X151315137Y-77187527D01*
X151405465Y-77216877D01*
X151424697Y-77219923D01*
X151607648Y-77248900D01*
X151607649Y-77248900D01*
X151812351Y-77248900D01*
X151812352Y-77248900D01*
X152014534Y-77216877D01*
X152209219Y-77153620D01*
X152391610Y-77060687D01*
X152487901Y-76990728D01*
X152557213Y-76940371D01*
X152557215Y-76940368D01*
X152557219Y-76940366D01*
X152701966Y-76795619D01*
X152701968Y-76795615D01*
X152701971Y-76795613D01*
X152822284Y-76630014D01*
X152822285Y-76630013D01*
X152822287Y-76630010D01*
X152869516Y-76537317D01*
X152917489Y-76486523D01*
X152985310Y-76469728D01*
X153051445Y-76492265D01*
X153090485Y-76537319D01*
X153137715Y-76630014D01*
X153258028Y-76795613D01*
X153402786Y-76940371D01*
X153557749Y-77052956D01*
X153568390Y-77060687D01*
X153657212Y-77105944D01*
X153750776Y-77153618D01*
X153750778Y-77153618D01*
X153750781Y-77153620D01*
X153855137Y-77187527D01*
X153945465Y-77216877D01*
X153964697Y-77219923D01*
X154147648Y-77248900D01*
X154147649Y-77248900D01*
X154352351Y-77248900D01*
X154352352Y-77248900D01*
X154554534Y-77216877D01*
X154749219Y-77153620D01*
X154931610Y-77060687D01*
X155027901Y-76990728D01*
X155097213Y-76940371D01*
X155097215Y-76940368D01*
X155097219Y-76940366D01*
X155241966Y-76795619D01*
X155241968Y-76795615D01*
X155241971Y-76795613D01*
X155362284Y-76630014D01*
X155362285Y-76630013D01*
X155362287Y-76630010D01*
X155409516Y-76537317D01*
X155457489Y-76486523D01*
X155525310Y-76469728D01*
X155591445Y-76492265D01*
X155630485Y-76537319D01*
X155677715Y-76630014D01*
X155798028Y-76795613D01*
X155942786Y-76940371D01*
X156097749Y-77052956D01*
X156108390Y-77060687D01*
X156197212Y-77105944D01*
X156290776Y-77153618D01*
X156290778Y-77153618D01*
X156290781Y-77153620D01*
X156395137Y-77187527D01*
X156485465Y-77216877D01*
X156504697Y-77219923D01*
X156687648Y-77248900D01*
X156687649Y-77248900D01*
X156892351Y-77248900D01*
X156892352Y-77248900D01*
X157094534Y-77216877D01*
X157289219Y-77153620D01*
X157471610Y-77060687D01*
X157567901Y-76990728D01*
X157637213Y-76940371D01*
X157637215Y-76940368D01*
X157637219Y-76940366D01*
X157781966Y-76795619D01*
X157781968Y-76795615D01*
X157781971Y-76795613D01*
X157902284Y-76630014D01*
X157902285Y-76630013D01*
X157902287Y-76630010D01*
X157949516Y-76537317D01*
X157997489Y-76486523D01*
X158065310Y-76469728D01*
X158131445Y-76492265D01*
X158170485Y-76537319D01*
X158217715Y-76630014D01*
X158338028Y-76795613D01*
X158482786Y-76940371D01*
X158637749Y-77052956D01*
X158648390Y-77060687D01*
X158737212Y-77105944D01*
X158830776Y-77153618D01*
X158830778Y-77153618D01*
X158830781Y-77153620D01*
X158935137Y-77187527D01*
X159025465Y-77216877D01*
X159044697Y-77219923D01*
X159227648Y-77248900D01*
X159227649Y-77248900D01*
X159432351Y-77248900D01*
X159432352Y-77248900D01*
X159634534Y-77216877D01*
X159829219Y-77153620D01*
X160011610Y-77060687D01*
X160107901Y-76990728D01*
X160177213Y-76940371D01*
X160177215Y-76940368D01*
X160177219Y-76940366D01*
X160321966Y-76795619D01*
X160321968Y-76795615D01*
X160321971Y-76795613D01*
X160442284Y-76630014D01*
X160442285Y-76630013D01*
X160442287Y-76630010D01*
X160489516Y-76537317D01*
X160537489Y-76486523D01*
X160605310Y-76469728D01*
X160671445Y-76492265D01*
X160710485Y-76537319D01*
X160757715Y-76630014D01*
X160878028Y-76795613D01*
X161022786Y-76940371D01*
X161177749Y-77052956D01*
X161188390Y-77060687D01*
X161277212Y-77105944D01*
X161370776Y-77153618D01*
X161370778Y-77153618D01*
X161370781Y-77153620D01*
X161475137Y-77187527D01*
X161565465Y-77216877D01*
X161584697Y-77219923D01*
X161767648Y-77248900D01*
X161767649Y-77248900D01*
X161972351Y-77248900D01*
X161972352Y-77248900D01*
X162174534Y-77216877D01*
X162369219Y-77153620D01*
X162551610Y-77060687D01*
X162647901Y-76990728D01*
X162717213Y-76940371D01*
X162717215Y-76940368D01*
X162717219Y-76940366D01*
X162861966Y-76795619D01*
X162861968Y-76795615D01*
X162861971Y-76795613D01*
X162982284Y-76630014D01*
X162982285Y-76630013D01*
X162982287Y-76630010D01*
X163029516Y-76537317D01*
X163077489Y-76486523D01*
X163145310Y-76469728D01*
X163211445Y-76492265D01*
X163250485Y-76537319D01*
X163297715Y-76630014D01*
X163418028Y-76795613D01*
X163562786Y-76940371D01*
X163717749Y-77052956D01*
X163728390Y-77060687D01*
X163817212Y-77105944D01*
X163910776Y-77153618D01*
X163910778Y-77153618D01*
X163910781Y-77153620D01*
X164015137Y-77187527D01*
X164105465Y-77216877D01*
X164124697Y-77219923D01*
X164307648Y-77248900D01*
X164307649Y-77248900D01*
X164512351Y-77248900D01*
X164512352Y-77248900D01*
X164714534Y-77216877D01*
X164909219Y-77153620D01*
X165091610Y-77060687D01*
X165187901Y-76990728D01*
X165257213Y-76940371D01*
X165257215Y-76940368D01*
X165257219Y-76940366D01*
X165401966Y-76795619D01*
X165401968Y-76795615D01*
X165401971Y-76795613D01*
X165522284Y-76630014D01*
X165522285Y-76630013D01*
X165522287Y-76630010D01*
X165569516Y-76537317D01*
X165617489Y-76486523D01*
X165685310Y-76469728D01*
X165751445Y-76492265D01*
X165790485Y-76537319D01*
X165837715Y-76630014D01*
X165958028Y-76795613D01*
X166102786Y-76940371D01*
X166257749Y-77052956D01*
X166268390Y-77060687D01*
X166357212Y-77105944D01*
X166450776Y-77153618D01*
X166450778Y-77153618D01*
X166450781Y-77153620D01*
X166555137Y-77187527D01*
X166645465Y-77216877D01*
X166664697Y-77219923D01*
X166847648Y-77248900D01*
X166847649Y-77248900D01*
X167052351Y-77248900D01*
X167052352Y-77248900D01*
X167254534Y-77216877D01*
X167449219Y-77153620D01*
X167631610Y-77060687D01*
X167727901Y-76990728D01*
X167797213Y-76940371D01*
X167797215Y-76940368D01*
X167797219Y-76940366D01*
X167941966Y-76795619D01*
X167941968Y-76795615D01*
X167941971Y-76795613D01*
X168062284Y-76630014D01*
X168062285Y-76630013D01*
X168062287Y-76630010D01*
X168109516Y-76537317D01*
X168157489Y-76486523D01*
X168225310Y-76469728D01*
X168291445Y-76492265D01*
X168330485Y-76537319D01*
X168377715Y-76630014D01*
X168498028Y-76795613D01*
X168642786Y-76940371D01*
X168797749Y-77052956D01*
X168808390Y-77060687D01*
X168897212Y-77105944D01*
X168990776Y-77153618D01*
X168990778Y-77153618D01*
X168990781Y-77153620D01*
X169095137Y-77187527D01*
X169185465Y-77216877D01*
X169204697Y-77219923D01*
X169387648Y-77248900D01*
X169387649Y-77248900D01*
X169592351Y-77248900D01*
X169592352Y-77248900D01*
X169794534Y-77216877D01*
X169989219Y-77153620D01*
X170171610Y-77060687D01*
X170267901Y-76990728D01*
X170337213Y-76940371D01*
X170337215Y-76940368D01*
X170337219Y-76940366D01*
X170481966Y-76795619D01*
X170481968Y-76795615D01*
X170481971Y-76795613D01*
X170602284Y-76630014D01*
X170602285Y-76630013D01*
X170602287Y-76630010D01*
X170649516Y-76537317D01*
X170697489Y-76486523D01*
X170765310Y-76469728D01*
X170831445Y-76492265D01*
X170870485Y-76537319D01*
X170917715Y-76630014D01*
X171038028Y-76795613D01*
X171182786Y-76940371D01*
X171337749Y-77052956D01*
X171348390Y-77060687D01*
X171437212Y-77105944D01*
X171530776Y-77153618D01*
X171530778Y-77153618D01*
X171530781Y-77153620D01*
X171635137Y-77187527D01*
X171725465Y-77216877D01*
X171744697Y-77219923D01*
X171927648Y-77248900D01*
X171927649Y-77248900D01*
X172132351Y-77248900D01*
X172132352Y-77248900D01*
X172334534Y-77216877D01*
X172529219Y-77153620D01*
X172711610Y-77060687D01*
X172807901Y-76990728D01*
X172877213Y-76940371D01*
X172877215Y-76940368D01*
X172877219Y-76940366D01*
X173021966Y-76795619D01*
X173048330Y-76759330D01*
X173103658Y-76716665D01*
X173173271Y-76710684D01*
X173235067Y-76743289D01*
X173269426Y-76804126D01*
X173271938Y-76818959D01*
X173275907Y-76855880D01*
X173326202Y-76990728D01*
X173326206Y-76990735D01*
X173412452Y-77105944D01*
X173412455Y-77105947D01*
X173527664Y-77192193D01*
X173527671Y-77192197D01*
X173662517Y-77242491D01*
X173662516Y-77242491D01*
X173669444Y-77243235D01*
X173722127Y-77248900D01*
X175417872Y-77248899D01*
X175477483Y-77242491D01*
X175612331Y-77192196D01*
X175727546Y-77105946D01*
X175813796Y-76990731D01*
X175864091Y-76855883D01*
X175870500Y-76796273D01*
X175870499Y-75100528D01*
X175864091Y-75040917D01*
X175813796Y-74906069D01*
X175813795Y-74906068D01*
X175813793Y-74906064D01*
X175727547Y-74790855D01*
X175727544Y-74790852D01*
X175612335Y-74704606D01*
X175612328Y-74704602D01*
X175477482Y-74654308D01*
X175477483Y-74654308D01*
X175417883Y-74647901D01*
X175417881Y-74647900D01*
X175417873Y-74647900D01*
X175417864Y-74647900D01*
X173722129Y-74647900D01*
X173722123Y-74647901D01*
X173662516Y-74654308D01*
X173527671Y-74704602D01*
X173527664Y-74704606D01*
X173412455Y-74790852D01*
X173412452Y-74790855D01*
X173326206Y-74906064D01*
X173326202Y-74906071D01*
X173275908Y-75040916D01*
X173271939Y-75077840D01*
X173245201Y-75142391D01*
X173187809Y-75182239D01*
X173117983Y-75184732D01*
X173057895Y-75149079D01*
X173048332Y-75137470D01*
X173021967Y-75101182D01*
X172877213Y-74956428D01*
X172711613Y-74836115D01*
X172711612Y-74836114D01*
X172711610Y-74836113D01*
X172654653Y-74807091D01*
X172529223Y-74743181D01*
X172334534Y-74679922D01*
X172159995Y-74652278D01*
X172132352Y-74647900D01*
X171927648Y-74647900D01*
X171903329Y-74651751D01*
X171725465Y-74679922D01*
X171530776Y-74743181D01*
X171348386Y-74836115D01*
X171182786Y-74956428D01*
X171038028Y-75101186D01*
X170917715Y-75266786D01*
X170870485Y-75359480D01*
X170822510Y-75410276D01*
X170754689Y-75427071D01*
X170688554Y-75404534D01*
X170649515Y-75359480D01*
X170648883Y-75358240D01*
X170602287Y-75266790D01*
X170540858Y-75182239D01*
X170481971Y-75101186D01*
X170337213Y-74956428D01*
X170171613Y-74836115D01*
X170171612Y-74836114D01*
X170171610Y-74836113D01*
X170114653Y-74807091D01*
X169989223Y-74743181D01*
X169794534Y-74679922D01*
X169619995Y-74652278D01*
X169592352Y-74647900D01*
X169387648Y-74647900D01*
X169363329Y-74651751D01*
X169185465Y-74679922D01*
X168990776Y-74743181D01*
X168808386Y-74836115D01*
X168642786Y-74956428D01*
X168498028Y-75101186D01*
X168377715Y-75266786D01*
X168330485Y-75359480D01*
X168282510Y-75410276D01*
X168214689Y-75427071D01*
X168148554Y-75404534D01*
X168109515Y-75359480D01*
X168108883Y-75358240D01*
X168062287Y-75266790D01*
X168000858Y-75182239D01*
X167941971Y-75101186D01*
X167797213Y-74956428D01*
X167631613Y-74836115D01*
X167631612Y-74836114D01*
X167631610Y-74836113D01*
X167574653Y-74807091D01*
X167449223Y-74743181D01*
X167254534Y-74679922D01*
X167079995Y-74652278D01*
X167052352Y-74647900D01*
X166847648Y-74647900D01*
X166823329Y-74651751D01*
X166645465Y-74679922D01*
X166450776Y-74743181D01*
X166268386Y-74836115D01*
X166102786Y-74956428D01*
X165958028Y-75101186D01*
X165837715Y-75266786D01*
X165790485Y-75359480D01*
X165742510Y-75410276D01*
X165674689Y-75427071D01*
X165608554Y-75404534D01*
X165569515Y-75359480D01*
X165568883Y-75358240D01*
X165522287Y-75266790D01*
X165460858Y-75182239D01*
X165401971Y-75101186D01*
X165257213Y-74956428D01*
X165091613Y-74836115D01*
X165091612Y-74836114D01*
X165091610Y-74836113D01*
X165034653Y-74807091D01*
X164909223Y-74743181D01*
X164714534Y-74679922D01*
X164539995Y-74652278D01*
X164512352Y-74647900D01*
X164307648Y-74647900D01*
X164283329Y-74651751D01*
X164105465Y-74679922D01*
X163910776Y-74743181D01*
X163728386Y-74836115D01*
X163562786Y-74956428D01*
X163418028Y-75101186D01*
X163297715Y-75266786D01*
X163250485Y-75359480D01*
X163202510Y-75410276D01*
X163134689Y-75427071D01*
X163068554Y-75404534D01*
X163029515Y-75359480D01*
X163028883Y-75358240D01*
X162982287Y-75266790D01*
X162920858Y-75182239D01*
X162861971Y-75101186D01*
X162717213Y-74956428D01*
X162551613Y-74836115D01*
X162551612Y-74836114D01*
X162551610Y-74836113D01*
X162494653Y-74807091D01*
X162369223Y-74743181D01*
X162174534Y-74679922D01*
X161999995Y-74652278D01*
X161972352Y-74647900D01*
X161767648Y-74647900D01*
X161743329Y-74651751D01*
X161565465Y-74679922D01*
X161370776Y-74743181D01*
X161188386Y-74836115D01*
X161022786Y-74956428D01*
X160878028Y-75101186D01*
X160757715Y-75266786D01*
X160710485Y-75359480D01*
X160662510Y-75410276D01*
X160594689Y-75427071D01*
X160528554Y-75404534D01*
X160489515Y-75359480D01*
X160488883Y-75358240D01*
X160442287Y-75266790D01*
X160380858Y-75182239D01*
X160321971Y-75101186D01*
X160177213Y-74956428D01*
X160011613Y-74836115D01*
X160011612Y-74836114D01*
X160011610Y-74836113D01*
X159954653Y-74807091D01*
X159829223Y-74743181D01*
X159634534Y-74679922D01*
X159459995Y-74652278D01*
X159432352Y-74647900D01*
X159227648Y-74647900D01*
X159203329Y-74651751D01*
X159025465Y-74679922D01*
X158830776Y-74743181D01*
X158648386Y-74836115D01*
X158482786Y-74956428D01*
X158338028Y-75101186D01*
X158217715Y-75266786D01*
X158170485Y-75359480D01*
X158122510Y-75410276D01*
X158054689Y-75427071D01*
X157988554Y-75404534D01*
X157949515Y-75359480D01*
X157948883Y-75358240D01*
X157902287Y-75266790D01*
X157840858Y-75182239D01*
X157781971Y-75101186D01*
X157637213Y-74956428D01*
X157471613Y-74836115D01*
X157471612Y-74836114D01*
X157471610Y-74836113D01*
X157414653Y-74807091D01*
X157289223Y-74743181D01*
X157094534Y-74679922D01*
X156919995Y-74652278D01*
X156892352Y-74647900D01*
X156687648Y-74647900D01*
X156663329Y-74651751D01*
X156485465Y-74679922D01*
X156290776Y-74743181D01*
X156108386Y-74836115D01*
X155942786Y-74956428D01*
X155798028Y-75101186D01*
X155677715Y-75266786D01*
X155630485Y-75359480D01*
X155582510Y-75410276D01*
X155514689Y-75427071D01*
X155448554Y-75404534D01*
X155409515Y-75359480D01*
X155408883Y-75358240D01*
X155362287Y-75266790D01*
X155300858Y-75182239D01*
X155241971Y-75101186D01*
X155097213Y-74956428D01*
X154931613Y-74836115D01*
X154931612Y-74836114D01*
X154931610Y-74836113D01*
X154874653Y-74807091D01*
X154749223Y-74743181D01*
X154554534Y-74679922D01*
X154379995Y-74652278D01*
X154352352Y-74647900D01*
X154147648Y-74647900D01*
X154123329Y-74651751D01*
X153945465Y-74679922D01*
X153750776Y-74743181D01*
X153568386Y-74836115D01*
X153402786Y-74956428D01*
X153258028Y-75101186D01*
X153137715Y-75266786D01*
X153090485Y-75359480D01*
X153042510Y-75410276D01*
X152974689Y-75427071D01*
X152908554Y-75404534D01*
X152869515Y-75359480D01*
X152868883Y-75358240D01*
X152822287Y-75266790D01*
X152760858Y-75182239D01*
X152701971Y-75101186D01*
X152557213Y-74956428D01*
X152391613Y-74836115D01*
X152391612Y-74836114D01*
X152391610Y-74836113D01*
X152334653Y-74807091D01*
X152209223Y-74743181D01*
X152014534Y-74679922D01*
X151839995Y-74652278D01*
X151812352Y-74647900D01*
X151607648Y-74647900D01*
X151583329Y-74651751D01*
X151405465Y-74679922D01*
X151210776Y-74743181D01*
X151028386Y-74836115D01*
X150862786Y-74956428D01*
X150718028Y-75101186D01*
X150597715Y-75266786D01*
X150550485Y-75359480D01*
X150502510Y-75410276D01*
X150434689Y-75427071D01*
X150368554Y-75404534D01*
X150329515Y-75359480D01*
X150328883Y-75358240D01*
X150282287Y-75266790D01*
X150220858Y-75182239D01*
X150161971Y-75101186D01*
X150017213Y-74956428D01*
X149851613Y-74836115D01*
X149851612Y-74836114D01*
X149851610Y-74836113D01*
X149794653Y-74807091D01*
X149669223Y-74743181D01*
X149474534Y-74679922D01*
X149299995Y-74652278D01*
X149272352Y-74647900D01*
X149067648Y-74647900D01*
X149043329Y-74651751D01*
X148865465Y-74679922D01*
X148670776Y-74743181D01*
X148488386Y-74836115D01*
X148322786Y-74956428D01*
X148178028Y-75101186D01*
X148057715Y-75266786D01*
X148010485Y-75359480D01*
X147962510Y-75410276D01*
X147894689Y-75427071D01*
X147828554Y-75404534D01*
X147789515Y-75359480D01*
X147788883Y-75358240D01*
X147742287Y-75266790D01*
X147680858Y-75182239D01*
X147621971Y-75101186D01*
X147477213Y-74956428D01*
X147311613Y-74836115D01*
X147311612Y-74836114D01*
X147311610Y-74836113D01*
X147254653Y-74807091D01*
X147129223Y-74743181D01*
X146934534Y-74679922D01*
X146759995Y-74652278D01*
X146732352Y-74647900D01*
X146527648Y-74647900D01*
X146503329Y-74651751D01*
X146325465Y-74679922D01*
X146130776Y-74743181D01*
X145948386Y-74836115D01*
X145782786Y-74956428D01*
X145638028Y-75101186D01*
X145517715Y-75266786D01*
X145470485Y-75359480D01*
X145422510Y-75410276D01*
X145354689Y-75427071D01*
X145288554Y-75404534D01*
X145249515Y-75359480D01*
X145248883Y-75358240D01*
X145202287Y-75266790D01*
X145140858Y-75182239D01*
X145081971Y-75101186D01*
X144937213Y-74956428D01*
X144771613Y-74836115D01*
X144771612Y-74836114D01*
X144771610Y-74836113D01*
X144714653Y-74807091D01*
X144589223Y-74743181D01*
X144394534Y-74679922D01*
X144219995Y-74652278D01*
X144192352Y-74647900D01*
X143987648Y-74647900D01*
X143963329Y-74651751D01*
X143785465Y-74679922D01*
X143590776Y-74743181D01*
X143408386Y-74836115D01*
X143242786Y-74956428D01*
X143098028Y-75101186D01*
X142977715Y-75266786D01*
X142930485Y-75359480D01*
X142882510Y-75410276D01*
X142814689Y-75427071D01*
X142748554Y-75404534D01*
X142709515Y-75359480D01*
X142708883Y-75358240D01*
X142662287Y-75266790D01*
X142600858Y-75182239D01*
X142541971Y-75101186D01*
X142397213Y-74956428D01*
X142231613Y-74836115D01*
X142231612Y-74836114D01*
X142231610Y-74836113D01*
X142174653Y-74807091D01*
X142049223Y-74743181D01*
X141854534Y-74679922D01*
X141679995Y-74652278D01*
X141652352Y-74647900D01*
X141447648Y-74647900D01*
X141423329Y-74651751D01*
X141245465Y-74679922D01*
X141050776Y-74743181D01*
X140868386Y-74836115D01*
X140702786Y-74956428D01*
X140558028Y-75101186D01*
X140437715Y-75266786D01*
X140390485Y-75359480D01*
X140342510Y-75410276D01*
X140274689Y-75427071D01*
X140208554Y-75404534D01*
X140169515Y-75359480D01*
X140168883Y-75358240D01*
X140122287Y-75266790D01*
X140060858Y-75182239D01*
X140001971Y-75101186D01*
X139857213Y-74956428D01*
X139691613Y-74836115D01*
X139691612Y-74836114D01*
X139691610Y-74836113D01*
X139634653Y-74807091D01*
X139509223Y-74743181D01*
X139314534Y-74679922D01*
X139139995Y-74652278D01*
X139112352Y-74647900D01*
X138907648Y-74647900D01*
X138883329Y-74651751D01*
X138705465Y-74679922D01*
X138510776Y-74743181D01*
X138328386Y-74836115D01*
X138162786Y-74956428D01*
X138018028Y-75101186D01*
X137897715Y-75266786D01*
X137850485Y-75359480D01*
X137802510Y-75410276D01*
X137734689Y-75427071D01*
X137668554Y-75404534D01*
X137629515Y-75359480D01*
X137628883Y-75358240D01*
X137582287Y-75266790D01*
X137520858Y-75182239D01*
X137461971Y-75101186D01*
X137317213Y-74956428D01*
X137151613Y-74836115D01*
X137151612Y-74836114D01*
X137151610Y-74836113D01*
X137094653Y-74807091D01*
X136969223Y-74743181D01*
X136774534Y-74679922D01*
X136599995Y-74652278D01*
X136572352Y-74647900D01*
X136367648Y-74647900D01*
X136343329Y-74651751D01*
X136165465Y-74679922D01*
X135970776Y-74743181D01*
X135788386Y-74836115D01*
X135622786Y-74956428D01*
X135478028Y-75101186D01*
X135357715Y-75266786D01*
X135310485Y-75359480D01*
X135262510Y-75410276D01*
X135194689Y-75427071D01*
X135128554Y-75404534D01*
X135089515Y-75359480D01*
X135088883Y-75358240D01*
X135042287Y-75266790D01*
X134980858Y-75182239D01*
X134921971Y-75101186D01*
X134777213Y-74956428D01*
X134611613Y-74836115D01*
X134611612Y-74836114D01*
X134611610Y-74836113D01*
X134554653Y-74807091D01*
X134429223Y-74743181D01*
X134234534Y-74679922D01*
X134059995Y-74652278D01*
X134032352Y-74647900D01*
X133827648Y-74647900D01*
X133803329Y-74651751D01*
X133625465Y-74679922D01*
X133430776Y-74743181D01*
X133248386Y-74836115D01*
X133082786Y-74956428D01*
X132938028Y-75101186D01*
X132817715Y-75266786D01*
X132770485Y-75359480D01*
X132722510Y-75410276D01*
X132654689Y-75427071D01*
X132588554Y-75404534D01*
X132549515Y-75359480D01*
X132548883Y-75358240D01*
X132502287Y-75266790D01*
X132440858Y-75182239D01*
X132381971Y-75101186D01*
X132237213Y-74956428D01*
X132071613Y-74836115D01*
X132071612Y-74836114D01*
X132071610Y-74836113D01*
X132014653Y-74807091D01*
X131889223Y-74743181D01*
X131694534Y-74679922D01*
X131519995Y-74652278D01*
X131492352Y-74647900D01*
X131287648Y-74647900D01*
X131263329Y-74651751D01*
X131085465Y-74679922D01*
X130890776Y-74743181D01*
X130708386Y-74836115D01*
X130542786Y-74956428D01*
X130398028Y-75101186D01*
X130277715Y-75266786D01*
X130230485Y-75359480D01*
X130182510Y-75410276D01*
X130114689Y-75427071D01*
X130048554Y-75404534D01*
X130009515Y-75359480D01*
X130008883Y-75358240D01*
X129962287Y-75266790D01*
X129900858Y-75182239D01*
X129841971Y-75101186D01*
X129697213Y-74956428D01*
X129531613Y-74836115D01*
X129531612Y-74836114D01*
X129531610Y-74836113D01*
X129474653Y-74807091D01*
X129349223Y-74743181D01*
X129154534Y-74679922D01*
X128979995Y-74652278D01*
X128952352Y-74647900D01*
X128747648Y-74647900D01*
X128723329Y-74651751D01*
X128545465Y-74679922D01*
X128350776Y-74743181D01*
X128168386Y-74836115D01*
X128002786Y-74956428D01*
X127858028Y-75101186D01*
X127737715Y-75266786D01*
X127690485Y-75359480D01*
X127642510Y-75410276D01*
X127574689Y-75427071D01*
X127508554Y-75404534D01*
X127469515Y-75359480D01*
X127468883Y-75358240D01*
X127422287Y-75266790D01*
X127360858Y-75182239D01*
X127301971Y-75101186D01*
X127157213Y-74956428D01*
X126991613Y-74836115D01*
X126991612Y-74836114D01*
X126991610Y-74836113D01*
X126934653Y-74807091D01*
X126809223Y-74743181D01*
X126614534Y-74679922D01*
X126439995Y-74652278D01*
X126412352Y-74647900D01*
X126207648Y-74647900D01*
X126183329Y-74651751D01*
X126005465Y-74679922D01*
X125810776Y-74743181D01*
X125628386Y-74836115D01*
X125462786Y-74956428D01*
X125318028Y-75101186D01*
X125197715Y-75266786D01*
X125150485Y-75359480D01*
X125102510Y-75410276D01*
X125034689Y-75427071D01*
X124968554Y-75404534D01*
X124929515Y-75359480D01*
X124928883Y-75358240D01*
X124882287Y-75266790D01*
X124820858Y-75182239D01*
X124761971Y-75101186D01*
X124617213Y-74956428D01*
X124451613Y-74836115D01*
X124451612Y-74836114D01*
X124451610Y-74836113D01*
X124394653Y-74807091D01*
X124269223Y-74743181D01*
X124074534Y-74679922D01*
X123899995Y-74652278D01*
X123872352Y-74647900D01*
X123667648Y-74647900D01*
X123643329Y-74651751D01*
X123465465Y-74679922D01*
X123270776Y-74743181D01*
X123088386Y-74836115D01*
X122922786Y-74956428D01*
X122778028Y-75101186D01*
X122657715Y-75266786D01*
X122610485Y-75359480D01*
X122562510Y-75410276D01*
X122494689Y-75427071D01*
X122428554Y-75404534D01*
X122389515Y-75359480D01*
X122388883Y-75358240D01*
X122342287Y-75266790D01*
X122280858Y-75182239D01*
X122221971Y-75101186D01*
X122077213Y-74956428D01*
X121911613Y-74836115D01*
X121911612Y-74836114D01*
X121911610Y-74836113D01*
X121854653Y-74807091D01*
X121729223Y-74743181D01*
X121534534Y-74679922D01*
X121359995Y-74652278D01*
X121332352Y-74647900D01*
X121127648Y-74647900D01*
X121103329Y-74651751D01*
X120925465Y-74679922D01*
X120730776Y-74743181D01*
X120548386Y-74836115D01*
X120382786Y-74956428D01*
X120238028Y-75101186D01*
X120117715Y-75266786D01*
X120070485Y-75359480D01*
X120022510Y-75410276D01*
X119954689Y-75427071D01*
X119888554Y-75404534D01*
X119849515Y-75359480D01*
X119848883Y-75358240D01*
X119802287Y-75266790D01*
X119740858Y-75182239D01*
X119681971Y-75101186D01*
X119537213Y-74956428D01*
X119371613Y-74836115D01*
X119371612Y-74836114D01*
X119371610Y-74836113D01*
X119314653Y-74807091D01*
X119189223Y-74743181D01*
X118994534Y-74679922D01*
X118819995Y-74652278D01*
X118792352Y-74647900D01*
X118587648Y-74647900D01*
X118563329Y-74651751D01*
X118385465Y-74679922D01*
X118190776Y-74743181D01*
X118008386Y-74836115D01*
X117842786Y-74956428D01*
X117698028Y-75101186D01*
X117577715Y-75266786D01*
X117530485Y-75359480D01*
X117482510Y-75410276D01*
X117414689Y-75427071D01*
X117348554Y-75404534D01*
X117309515Y-75359480D01*
X117308883Y-75358240D01*
X117262287Y-75266790D01*
X117200858Y-75182239D01*
X117141971Y-75101186D01*
X116997213Y-74956428D01*
X116831613Y-74836115D01*
X116831612Y-74836114D01*
X116831610Y-74836113D01*
X116774653Y-74807091D01*
X116649223Y-74743181D01*
X116454534Y-74679922D01*
X116279995Y-74652278D01*
X116252352Y-74647900D01*
X116047648Y-74647900D01*
X116023329Y-74651751D01*
X115845465Y-74679922D01*
X115650776Y-74743181D01*
X115468386Y-74836115D01*
X115302786Y-74956428D01*
X115158028Y-75101186D01*
X115037715Y-75266786D01*
X114944781Y-75449176D01*
X114881522Y-75643865D01*
X114849500Y-75846048D01*
X112000500Y-75846048D01*
X112000500Y-73370551D01*
X112020185Y-73303512D01*
X112072989Y-73257757D01*
X112142147Y-73247813D01*
X112205703Y-73276838D01*
X112224815Y-73297662D01*
X112355483Y-73477510D01*
X112522490Y-73644517D01*
X112713567Y-73783343D01*
X112812991Y-73834002D01*
X112924003Y-73890566D01*
X112924005Y-73890566D01*
X112924008Y-73890568D01*
X113044412Y-73929689D01*
X113148631Y-73963553D01*
X113381903Y-74000500D01*
X113381908Y-74000500D01*
X113618097Y-74000500D01*
X113851368Y-73963553D01*
X114075992Y-73890568D01*
X114286433Y-73783343D01*
X114477510Y-73644517D01*
X114644517Y-73477510D01*
X114783343Y-73286433D01*
X114890568Y-73075992D01*
X114963553Y-72851368D01*
X114988929Y-72691150D01*
X115000500Y-72618097D01*
X115000500Y-72381902D01*
X114963553Y-72148631D01*
X114890566Y-71924003D01*
X114799358Y-71744999D01*
X114783343Y-71713567D01*
X114644517Y-71522490D01*
X114477510Y-71355483D01*
X114297664Y-71224816D01*
X114255000Y-71169488D01*
X114249021Y-71099874D01*
X114281627Y-71038080D01*
X114342466Y-71003722D01*
X114370551Y-71000500D01*
X176129449Y-71000500D01*
X176196488Y-71020185D01*
G37*
%TD.AperFunction*%
%TD*%
M02*
