M48
; DRILL file {KiCad 9.0.1} date 2025-05-12T18:56:57-0400
; FORMAT={-:-/ absolute / metric / decimal}
; #@! TF.CreationDate,2025-05-12T18:56:57-04:00
; #@! TF.GenerationSoftware,Kicad,Pcbnew,9.0.1
; #@! TF.FileFunction,Plated,1,4,PTH
FMAT,2
METRIC
; #@! TA.AperFunction,Plated,PTH,ComponentDrill
T1C0.800
; #@! TA.AperFunction,Plated,PTH,ComponentDrill
T2C0.950
; #@! TA.AperFunction,Plated,PTH,ComponentDrill
T3C1.000
; #@! TA.AperFunction,Plated,PTH,ComponentDrill
T4C1.100
; #@! TA.AperFunction,Plated,PTH,ComponentDrill
T5C1.300
%
G90
G05
T1
X159.6Y-84.75
X159.6Y-86.75
X159.6Y-88.75
X161.6Y-84.75
X161.6Y-86.75
X161.6Y-88.75
X167.0Y-107.75
X167.0Y-115.37
X172.5Y-116.5
X173.84Y-82.298
X173.84Y-84.838
X175.0Y-116.5
T2
X116.25Y-106.75
X116.25Y-109.25
X116.25Y-111.75
X116.25Y-114.25
X174.0Y-97.0
X174.0Y-99.5
X174.0Y-102.0
T3
X116.25Y-97.0
X116.25Y-99.5
X142.4Y-96.17
X142.4Y-98.71
X142.4Y-101.25
X142.4Y-103.79
X142.4Y-106.33
X142.4Y-108.87
X142.4Y-111.41
X142.4Y-113.95
X150.02Y-113.95
X152.56Y-113.95
X155.1Y-96.17
X155.1Y-98.71
X155.1Y-101.25
X155.1Y-103.79
X155.1Y-106.33
X155.1Y-108.87
X155.1Y-111.41
X155.1Y-113.95
X160.7Y-98.25
X160.7Y-100.75
X161.0Y-107.71
X161.0Y-110.25
X161.0Y-112.79
X161.0Y-115.33
X167.25Y-95.75
X167.25Y-98.29
X167.25Y-100.83
X167.25Y-103.37
X174.0Y-109.0
X174.0Y-111.5
T4
X116.15Y-75.948
X116.15Y-91.188
X118.69Y-75.948
X118.69Y-91.188
X121.23Y-75.948
X121.23Y-91.188
X123.77Y-75.948
X123.77Y-91.188
X126.31Y-75.948
X126.31Y-91.188
X128.85Y-75.948
X128.85Y-78.488
X128.85Y-81.028
X128.85Y-83.568
X128.85Y-86.108
X128.85Y-88.648
X128.85Y-91.188
X131.39Y-75.948
X131.39Y-91.188
X133.93Y-75.948
X133.93Y-91.188
X136.47Y-75.948
X136.47Y-91.188
X139.01Y-75.948
X139.01Y-91.188
X141.55Y-75.948
X141.55Y-91.188
X144.09Y-75.948
X144.09Y-91.188
X146.63Y-75.948
X146.63Y-91.188
X149.17Y-75.948
X149.17Y-91.188
X151.71Y-75.948
X151.71Y-91.188
X154.25Y-75.948
X154.25Y-91.188
X156.79Y-75.948
X156.79Y-91.188
X158.111Y-78.999
X159.33Y-75.948
X159.33Y-91.188
X160.651Y-78.999
X161.87Y-75.948
X161.87Y-91.188
X163.191Y-78.999
X164.41Y-75.948
X164.41Y-91.188
X165.731Y-78.999
X166.95Y-75.948
X166.95Y-91.188
X168.271Y-78.999
X169.49Y-75.948
X169.49Y-91.188
X172.03Y-75.948
X172.03Y-88.648
X172.03Y-91.188
X174.57Y-75.948
X174.57Y-91.188
T5
X121.5Y-115.25
X137.5Y-115.25
M30
