%TF.GenerationSoftware,KiCad,Pcbnew,9.0.1*%
%TF.CreationDate,2025-05-12T18:56:40-04:00*%
%TF.ProjectId,arm,61726d2e-6b69-4636-9164-5f7063625858,rev?*%
%TF.SameCoordinates,Original*%
%TF.FileFunction,Copper,L3,Inr*%
%TF.FilePolarity,Positive*%
%FSLAX46Y46*%
G04 Gerber Fmt 4.6, Leading zero omitted, Abs format (unit mm)*
G04 Created by KiCad (PCBNEW 9.0.1) date 2025-05-12 18:56:40*
%MOMM*%
%LPD*%
G01*
G04 APERTURE LIST*
G04 Aperture macros list*
%AMRoundRect*
0 Rectangle with rounded corners*
0 $1 Rounding radius*
0 $2 $3 $4 $5 $6 $7 $8 $9 X,Y pos of 4 corners*
0 Add a 4 corners polygon primitive as box body*
4,1,4,$2,$3,$4,$5,$6,$7,$8,$9,$2,$3,0*
0 Add four circle primitives for the rounded corners*
1,1,$1+$1,$2,$3*
1,1,$1+$1,$4,$5*
1,1,$1+$1,$6,$7*
1,1,$1+$1,$8,$9*
0 Add four rect primitives between the rounded corners*
20,1,$1+$1,$2,$3,$4,$5,0*
20,1,$1+$1,$4,$5,$6,$7,0*
20,1,$1+$1,$6,$7,$8,$9,0*
20,1,$1+$1,$8,$9,$2,$3,0*%
G04 Aperture macros list end*
%TA.AperFunction,ComponentPad*%
%ADD10R,2.000000X2.000000*%
%TD*%
%TA.AperFunction,ComponentPad*%
%ADD11RoundRect,0.250000X0.750000X-0.600000X0.750000X0.600000X-0.750000X0.600000X-0.750000X-0.600000X0*%
%TD*%
%TA.AperFunction,ComponentPad*%
%ADD12O,2.000000X1.700000*%
%TD*%
%TA.AperFunction,ComponentPad*%
%ADD13RoundRect,0.250000X0.550000X-0.550000X0.550000X0.550000X-0.550000X0.550000X-0.550000X-0.550000X0*%
%TD*%
%TA.AperFunction,ComponentPad*%
%ADD14C,1.600000*%
%TD*%
%TA.AperFunction,ComponentPad*%
%ADD15RoundRect,0.250000X-0.750000X0.600000X-0.750000X-0.600000X0.750000X-0.600000X0.750000X0.600000X0*%
%TD*%
%TA.AperFunction,ComponentPad*%
%ADD16R,1.508000X1.508000*%
%TD*%
%TA.AperFunction,ComponentPad*%
%ADD17C,1.508000*%
%TD*%
%TA.AperFunction,ComponentPad*%
%ADD18R,1.700000X1.700000*%
%TD*%
%TA.AperFunction,ComponentPad*%
%ADD19O,1.700000X1.700000*%
%TD*%
%TA.AperFunction,ComponentPad*%
%ADD20RoundRect,0.250000X-0.725000X0.600000X-0.725000X-0.600000X0.725000X-0.600000X0.725000X0.600000X0*%
%TD*%
%TA.AperFunction,ComponentPad*%
%ADD21O,1.950000X1.700000*%
%TD*%
%TA.AperFunction,ComponentPad*%
%ADD22R,1.600000X1.600000*%
%TD*%
%TA.AperFunction,ComponentPad*%
%ADD23R,1.300000X1.300000*%
%TD*%
%TA.AperFunction,ComponentPad*%
%ADD24C,1.300000*%
%TD*%
G04 APERTURE END LIST*
D10*
%TO.N,N/C*%
%TO.C,REF\u002A\u002A*%
X137500000Y-115250000D03*
%TD*%
D11*
%TO.N,/Vin*%
%TO.C,5V*%
X160700000Y-100750000D03*
D12*
%TO.N,GND*%
X160700000Y-98250000D03*
%TD*%
D13*
%TO.N,/24V*%
%TO.C,SW*%
X167000000Y-115370000D03*
D14*
%TO.N,/Switch*%
X167000000Y-107750000D03*
%TD*%
D15*
%TO.N,Net-(RX1-Pin_1)*%
%TO.C,RX/TX*%
X116250000Y-97000000D03*
D12*
%TO.N,Net-(RX1-Pin_2)*%
X116250000Y-99500000D03*
%TD*%
D16*
%TO.N,GND*%
%TO.C,TMC_2209*%
X142400000Y-96170000D03*
D17*
%TO.N,/VIO*%
X142400000Y-98710000D03*
%TO.N,/A1*%
X142400000Y-101250000D03*
%TO.N,/A2*%
X142400000Y-103790000D03*
%TO.N,/B1*%
X142400000Y-106330000D03*
%TO.N,/B2*%
X142400000Y-108870000D03*
%TO.N,GND*%
X142400000Y-111410000D03*
%TO.N,/24V*%
X142400000Y-113950000D03*
%TO.N,Net-(TMC_2209-DIR)*%
X155100000Y-96170000D03*
%TO.N,Net-(TMC_2209-STEP)*%
X155100000Y-98710000D03*
%TO.N,unconnected-(TMC_2209-CLK-Pad11)*%
X155100000Y-101250000D03*
%TO.N,Net-(TMC_2209-TX)*%
X155100000Y-103790000D03*
%TO.N,Net-(TMC_2209-RX)*%
X155100000Y-106330000D03*
%TO.N,unconnected-(TMC_2209-MS2-Pad14)*%
X155100000Y-108870000D03*
%TO.N,unconnected-(TMC_2209-MS1-Pad15)*%
X155100000Y-111410000D03*
%TO.N,Net-(TMC_2209-~{EN})*%
X155100000Y-113950000D03*
%TO.N,unconnected-(TMC_2209-INDEX-Pad17)*%
X150020000Y-113950000D03*
%TO.N,unconnected-(TMC_2209-DIAG-Pad18)*%
X152560000Y-113950000D03*
%TD*%
D10*
%TO.N,N/C*%
%TO.C,REF\u002A\u002A*%
X121500000Y-115250000D03*
%TD*%
D18*
%TO.N,GND*%
%TO.C,Ground*%
X167250000Y-103370000D03*
D19*
X167250000Y-100830000D03*
X167250000Y-98290000D03*
X167250000Y-95750000D03*
%TD*%
D14*
%TO.N,/24V*%
%TO.C,C1*%
X175000000Y-116500000D03*
%TO.N,GND*%
X172500000Y-116500000D03*
%TD*%
D15*
%TO.N,GND*%
%TO.C,24V*%
X174000000Y-109000000D03*
D12*
%TO.N,/Switch*%
X174000000Y-111500000D03*
%TD*%
D20*
%TO.N,/A1*%
%TO.C,Stepper*%
X116250000Y-106750000D03*
D21*
%TO.N,/A2*%
X116250000Y-109250000D03*
%TO.N,/B1*%
X116250000Y-111750000D03*
%TO.N,/B2*%
X116250000Y-114250000D03*
%TD*%
D22*
%TO.N,unconnected-(Teensy1-GND-Pad1)*%
%TO.C,Teensy1*%
X174570000Y-75948400D03*
D14*
%TO.N,Net-(TMC_2209-TX)*%
X172030000Y-75948400D03*
%TO.N,Net-(TMC_2209-RX)*%
X169490000Y-75948400D03*
%TO.N,Net-(TMC_2209-~{EN})*%
X166950000Y-75948400D03*
%TO.N,Net-(TMC_2209-STEP)*%
X164410000Y-75948400D03*
%TO.N,Net-(TMC_2209-DIR)*%
X161870000Y-75948400D03*
%TO.N,unconnected-(Teensy1-5_IN2-Pad7)*%
X159330000Y-75948400D03*
%TO.N,unconnected-(Teensy1-6_OUT1D-Pad8)*%
X156790000Y-75948400D03*
%TO.N,Net-(RX1-Pin_2)*%
X154250000Y-75948400D03*
%TO.N,Net-(RX1-Pin_1)*%
X151710000Y-75948400D03*
%TO.N,unconnected-(Teensy1-9_OUT1C-Pad11)*%
X149170000Y-75948400D03*
%TO.N,unconnected-(Teensy1-10_CS_MQSR-Pad12)*%
X146630000Y-75948400D03*
%TO.N,unconnected-(Teensy1-11_MOSI_CTX1-Pad13)*%
X144090000Y-75948400D03*
%TO.N,unconnected-(Teensy1-12_MISO_MQSL-Pad14)*%
X141550000Y-75948400D03*
%TO.N,unconnected-(Teensy1-3V3-Pad15)*%
X139010000Y-75948400D03*
%TO.N,unconnected-(Teensy1-24_A10_TX6_SCL2-Pad16)*%
X136470000Y-75948400D03*
%TO.N,unconnected-(Teensy1-25_A11_RX6_SDA2-Pad17)*%
X133930000Y-75948400D03*
%TO.N,unconnected-(Teensy1-26_A12_MOSI1-Pad18)*%
X131390000Y-75948400D03*
%TO.N,unconnected-(Teensy1-27_A13_SCK1-Pad19)*%
X128850000Y-75948400D03*
%TO.N,unconnected-(Teensy1-28_RX7-Pad20)*%
X126310000Y-75948400D03*
%TO.N,unconnected-(Teensy1-29_TX7-Pad21)*%
X123770000Y-75948400D03*
%TO.N,unconnected-(Teensy1-30_CRX3-Pad22)*%
X121230000Y-75948400D03*
%TO.N,unconnected-(Teensy1-31_CTX3-Pad23)*%
X118690000Y-75948400D03*
%TO.N,unconnected-(Teensy1-32_OUT1B-Pad24)*%
X116150000Y-75948400D03*
%TO.N,unconnected-(Teensy1-33_MCLK2-Pad25)*%
X116150000Y-91188400D03*
%TO.N,unconnected-(Teensy1-34_RX8-Pad26)*%
X118690000Y-91188400D03*
%TO.N,unconnected-(Teensy1-35_TX8-Pad27)*%
X121230000Y-91188400D03*
%TO.N,unconnected-(Teensy1-36_CS-Pad28)*%
X123770000Y-91188400D03*
%TO.N,unconnected-(Teensy1-37_CS-Pad29)*%
X126310000Y-91188400D03*
%TO.N,unconnected-(Teensy1-38_CS1_IN1-Pad30)*%
X128850000Y-91188400D03*
%TO.N,unconnected-(Teensy1-39_MISO1_OUT1A-Pad31)*%
X131390000Y-91188400D03*
%TO.N,unconnected-(Teensy1-40_A16-Pad32)*%
X133930000Y-91188400D03*
%TO.N,unconnected-(Teensy1-41_A17-Pad33)*%
X136470000Y-91188400D03*
%TO.N,unconnected-(Teensy1-GND-Pad34)*%
X139010000Y-91188400D03*
%TO.N,unconnected-(Teensy1-13_SCK_LED-Pad35)*%
X141550000Y-91188400D03*
%TO.N,unconnected-(Teensy1-14_A0_TX3_SPDIF_OUT-Pad36)*%
X144090000Y-91188400D03*
%TO.N,unconnected-(Teensy1-15_A1_RX3_SPDIF_IN-Pad37)*%
X146630000Y-91188400D03*
%TO.N,unconnected-(Teensy1-16_A2_RX4_SCL1-Pad38)*%
X149170000Y-91188400D03*
%TO.N,unconnected-(Teensy1-17_A3_TX4_SDA1-Pad39)*%
X151710000Y-91188400D03*
%TO.N,Net-(Linear1-Pin_3)*%
X154250000Y-91188400D03*
%TO.N,Net-(Linear1-Pin_2)*%
X156790000Y-91188400D03*
%TO.N,unconnected-(Teensy1-20_A6_TX5_LRCLK1-Pad42)*%
X159330000Y-91188400D03*
%TO.N,Net-(Linear1-Pin_1)*%
X161870000Y-91188400D03*
%TO.N,unconnected-(Teensy1-22_A8_CTX1-Pad44)*%
X164410000Y-91188400D03*
%TO.N,unconnected-(Teensy1-23_A9_CRX1_MCLK1-Pad45)*%
X166950000Y-91188400D03*
%TO.N,/VIO*%
X169490000Y-91188400D03*
%TO.N,GND*%
X172030000Y-91188400D03*
%TO.N,/Vin*%
X174570000Y-91188400D03*
%TO.N,unconnected-(Teensy1-VUSB-Pad49)*%
X172030000Y-88648400D03*
%TO.N,unconnected-(Teensy1-VBAT-Pad50)*%
X128850000Y-78488400D03*
%TO.N,unconnected-(Teensy1-3V3-Pad51)*%
X128850000Y-81028400D03*
%TO.N,unconnected-(Teensy1-GND-Pad52)*%
X128850000Y-83568400D03*
%TO.N,unconnected-(Teensy1-PROGRAM-Pad53)*%
X128850000Y-86108400D03*
%TO.N,unconnected-(Teensy1-ON_OFF-Pad54)*%
X128850000Y-88648400D03*
D22*
%TO.N,unconnected-(Teensy1-5V-Pad55)*%
X168270800Y-78999200D03*
D14*
%TO.N,unconnected-(Teensy1-D--Pad56)*%
X165730800Y-78999200D03*
%TO.N,unconnected-(Teensy1-D+-Pad57)*%
X163190800Y-78999200D03*
%TO.N,unconnected-(Teensy1-GND-Pad58)*%
X160650800Y-78999200D03*
%TO.N,unconnected-(Teensy1-GND-Pad59)*%
X158110800Y-78999200D03*
D23*
%TO.N,unconnected-(Teensy1-R+-Pad60)*%
X161600000Y-88750000D03*
D24*
%TO.N,unconnected-(Teensy1-LED-Pad61)*%
X161600000Y-86750000D03*
%TO.N,unconnected-(Teensy1-T--Pad62)*%
X161600000Y-84750000D03*
%TO.N,unconnected-(Teensy1-T+-Pad63)*%
X159600000Y-84750000D03*
%TO.N,unconnected-(Teensy1-GND-Pad64)*%
X159600000Y-86750000D03*
%TO.N,unconnected-(Teensy1-R--Pad65)*%
X159600000Y-88750000D03*
%TO.N,unconnected-(Teensy1-D--Pad66)*%
X173840000Y-84838400D03*
%TO.N,unconnected-(Teensy1-D+-Pad67)*%
X173840000Y-82298400D03*
%TD*%
D20*
%TO.N,Net-(Linear1-Pin_1)*%
%TO.C,Linear Actuator*%
X174000000Y-97000000D03*
D21*
%TO.N,Net-(Linear1-Pin_2)*%
X174000000Y-99500000D03*
%TO.N,Net-(Linear1-Pin_3)*%
X174000000Y-102000000D03*
%TD*%
D18*
%TO.N,unconnected-(5V_BUCK1-SHDN-Pad1)*%
%TO.C,5V_BUCK*%
X161000000Y-115330000D03*
D19*
%TO.N,/24V*%
X161000000Y-112790000D03*
%TO.N,GND*%
X161000000Y-110250000D03*
%TO.N,/Vin*%
X161000000Y-107710000D03*
%TD*%
%TA.AperFunction,Conductor*%
%TO.N,/Vin*%
G36*
X176193039Y-89519685D02*
G01*
X176238794Y-89572489D01*
X176250000Y-89624000D01*
X176250000Y-97376000D01*
X176230315Y-97443039D01*
X176177511Y-97488794D01*
X176126000Y-97500000D01*
X175599500Y-97500000D01*
X175532461Y-97480315D01*
X175486706Y-97427511D01*
X175475500Y-97376000D01*
X175475499Y-96349998D01*
X175475498Y-96349981D01*
X175464999Y-96247203D01*
X175464998Y-96247200D01*
X175409814Y-96080666D01*
X175317712Y-95931344D01*
X175193656Y-95807288D01*
X175044334Y-95715186D01*
X174877797Y-95660001D01*
X174877795Y-95660000D01*
X174775010Y-95649500D01*
X173224998Y-95649500D01*
X173224981Y-95649501D01*
X173122203Y-95660000D01*
X173122200Y-95660001D01*
X172955668Y-95715185D01*
X172955663Y-95715187D01*
X172806342Y-95807289D01*
X172682289Y-95931342D01*
X172590187Y-96080663D01*
X172590186Y-96080666D01*
X172535001Y-96247203D01*
X172535001Y-96247204D01*
X172535000Y-96247204D01*
X172524500Y-96349983D01*
X172524500Y-96349991D01*
X172524500Y-96998444D01*
X172524501Y-97376000D01*
X172504817Y-97443039D01*
X172452013Y-97488794D01*
X172400501Y-97500000D01*
X168408523Y-97500000D01*
X168341484Y-97480315D01*
X168308204Y-97448885D01*
X168280103Y-97410207D01*
X168129786Y-97259890D01*
X167957820Y-97134951D01*
X167957115Y-97134591D01*
X167949054Y-97130485D01*
X167898259Y-97082512D01*
X167881463Y-97014692D01*
X167903999Y-96948556D01*
X167949054Y-96909515D01*
X167957816Y-96905051D01*
X167979789Y-96889086D01*
X168129786Y-96780109D01*
X168129788Y-96780106D01*
X168129792Y-96780104D01*
X168280104Y-96629792D01*
X168280106Y-96629788D01*
X168280109Y-96629786D01*
X168405048Y-96457820D01*
X168405047Y-96457820D01*
X168405051Y-96457816D01*
X168501557Y-96268412D01*
X168567246Y-96066243D01*
X168600500Y-95856287D01*
X168600500Y-95643713D01*
X168567246Y-95433757D01*
X168501557Y-95231588D01*
X168405051Y-95042184D01*
X168405049Y-95042181D01*
X168405048Y-95042179D01*
X168280109Y-94870213D01*
X168129786Y-94719890D01*
X167957820Y-94594951D01*
X167768414Y-94498444D01*
X167768413Y-94498443D01*
X167768412Y-94498443D01*
X167566243Y-94432754D01*
X167566241Y-94432753D01*
X167566240Y-94432753D01*
X167404957Y-94407208D01*
X167356287Y-94399500D01*
X167143713Y-94399500D01*
X167095042Y-94407208D01*
X166933760Y-94432753D01*
X166731585Y-94498444D01*
X166542179Y-94594951D01*
X166370213Y-94719890D01*
X166219890Y-94870213D01*
X166094951Y-95042179D01*
X165998444Y-95231585D01*
X165932753Y-95433760D01*
X165899500Y-95643713D01*
X165899500Y-95856287D01*
X165932754Y-96066243D01*
X165937440Y-96080666D01*
X165998444Y-96268414D01*
X166094951Y-96457820D01*
X166219890Y-96629786D01*
X166370213Y-96780109D01*
X166542182Y-96905050D01*
X166550946Y-96909516D01*
X166601742Y-96957491D01*
X166618536Y-97025312D01*
X166595998Y-97091447D01*
X166550946Y-97130484D01*
X166542182Y-97134949D01*
X166370213Y-97259890D01*
X166219896Y-97410207D01*
X166191796Y-97448885D01*
X166136466Y-97491551D01*
X166091477Y-97500000D01*
X163000000Y-97500000D01*
X163000000Y-109876000D01*
X162980315Y-109943039D01*
X162927511Y-109988794D01*
X162876000Y-110000000D01*
X162428861Y-110000000D01*
X162361822Y-109980315D01*
X162316067Y-109927511D01*
X162310930Y-109914319D01*
X162251557Y-109731588D01*
X162251555Y-109731585D01*
X162251555Y-109731583D01*
X162155048Y-109542179D01*
X162030109Y-109370213D01*
X161879786Y-109219890D01*
X161707817Y-109094949D01*
X161698504Y-109090204D01*
X161647707Y-109042230D01*
X161630912Y-108974409D01*
X161653449Y-108908274D01*
X161698507Y-108869232D01*
X161707558Y-108864620D01*
X161879459Y-108739727D01*
X161879464Y-108739723D01*
X162029723Y-108589464D01*
X162029727Y-108589459D01*
X162154620Y-108417557D01*
X162251095Y-108228217D01*
X162316757Y-108026129D01*
X162316757Y-108026126D01*
X162327231Y-107960000D01*
X161433012Y-107960000D01*
X161465925Y-107902993D01*
X161500000Y-107775826D01*
X161500000Y-107644174D01*
X161465925Y-107517007D01*
X161433012Y-107460000D01*
X162327231Y-107460000D01*
X162316757Y-107393873D01*
X162316757Y-107393870D01*
X162251095Y-107191782D01*
X162154620Y-107002442D01*
X162029727Y-106830540D01*
X162029723Y-106830535D01*
X161879464Y-106680276D01*
X161879459Y-106680272D01*
X161707557Y-106555379D01*
X161518215Y-106458903D01*
X161316124Y-106393241D01*
X161250000Y-106382768D01*
X161250000Y-107276988D01*
X161192993Y-107244075D01*
X161065826Y-107210000D01*
X160934174Y-107210000D01*
X160807007Y-107244075D01*
X160750000Y-107276988D01*
X160750000Y-106382768D01*
X160749999Y-106382768D01*
X160683875Y-106393241D01*
X160481784Y-106458903D01*
X160292442Y-106555379D01*
X160120540Y-106680272D01*
X160120535Y-106680276D01*
X159970276Y-106830535D01*
X159970272Y-106830540D01*
X159845379Y-107002442D01*
X159748904Y-107191782D01*
X159683242Y-107393870D01*
X159683242Y-107393873D01*
X159672769Y-107460000D01*
X160566988Y-107460000D01*
X160534075Y-107517007D01*
X160500000Y-107644174D01*
X160500000Y-107775826D01*
X160534075Y-107902993D01*
X160566988Y-107960000D01*
X159672769Y-107960000D01*
X159683242Y-108026126D01*
X159683242Y-108026129D01*
X159748904Y-108228217D01*
X159845379Y-108417557D01*
X159970272Y-108589459D01*
X159970276Y-108589464D01*
X160120535Y-108739723D01*
X160120540Y-108739727D01*
X160292444Y-108864622D01*
X160301495Y-108869234D01*
X160352292Y-108917208D01*
X160369087Y-108985029D01*
X160346550Y-109051164D01*
X160301499Y-109090202D01*
X160292182Y-109094949D01*
X160120213Y-109219890D01*
X159969890Y-109370213D01*
X159844951Y-109542179D01*
X159748444Y-109731583D01*
X159689070Y-109914319D01*
X159649632Y-109971994D01*
X159585273Y-109999192D01*
X159571139Y-110000000D01*
X159124000Y-110000000D01*
X159056961Y-109980315D01*
X159011206Y-109927511D01*
X159000000Y-109876000D01*
X159000000Y-101635891D01*
X159019685Y-101568852D01*
X159072489Y-101523097D01*
X159141647Y-101513153D01*
X159205203Y-101542178D01*
X159241706Y-101596887D01*
X159265641Y-101669119D01*
X159265643Y-101669124D01*
X159357684Y-101818345D01*
X159481654Y-101942315D01*
X159630875Y-102034356D01*
X159630880Y-102034358D01*
X159797302Y-102089505D01*
X159797309Y-102089506D01*
X159900019Y-102099999D01*
X160449999Y-102099999D01*
X160450000Y-102099998D01*
X160450000Y-101183012D01*
X160507007Y-101215925D01*
X160634174Y-101250000D01*
X160765826Y-101250000D01*
X160892993Y-101215925D01*
X160950000Y-101183012D01*
X160950000Y-102099999D01*
X161499972Y-102099999D01*
X161499986Y-102099998D01*
X161602697Y-102089505D01*
X161769119Y-102034358D01*
X161769124Y-102034356D01*
X161918345Y-101942315D01*
X162042315Y-101818345D01*
X162134356Y-101669124D01*
X162134358Y-101669119D01*
X162189505Y-101502697D01*
X162189506Y-101502690D01*
X162199999Y-101399986D01*
X162200000Y-101399973D01*
X162200000Y-101000000D01*
X161133012Y-101000000D01*
X161165925Y-100942993D01*
X161200000Y-100815826D01*
X161200000Y-100684174D01*
X161165925Y-100557007D01*
X161133012Y-100500000D01*
X162199999Y-100500000D01*
X162199999Y-100100028D01*
X162199998Y-100100013D01*
X162189505Y-99997302D01*
X162134358Y-99830880D01*
X162134356Y-99830875D01*
X162042315Y-99681654D01*
X161918345Y-99557684D01*
X161763515Y-99462184D01*
X161716791Y-99410236D01*
X161705568Y-99341273D01*
X161733412Y-99277191D01*
X161740909Y-99268986D01*
X161880104Y-99129792D01*
X162005051Y-98957816D01*
X162101557Y-98768412D01*
X162167246Y-98566243D01*
X162200500Y-98356287D01*
X162200500Y-98143713D01*
X162167246Y-97933757D01*
X162101557Y-97731588D01*
X162005051Y-97542184D01*
X162005049Y-97542181D01*
X162005048Y-97542179D01*
X161880109Y-97370213D01*
X161729786Y-97219890D01*
X161557820Y-97094951D01*
X161368414Y-96998444D01*
X161368413Y-96998443D01*
X161368412Y-96998443D01*
X161166243Y-96932754D01*
X161166241Y-96932753D01*
X161166240Y-96932753D01*
X160991315Y-96905048D01*
X160956287Y-96899500D01*
X160443713Y-96899500D01*
X160408685Y-96905048D01*
X160233760Y-96932753D01*
X160031585Y-96998444D01*
X159842179Y-97094951D01*
X159670213Y-97219890D01*
X159519890Y-97370213D01*
X159394951Y-97542179D01*
X159298444Y-97731585D01*
X159241931Y-97905514D01*
X159202493Y-97963190D01*
X159138135Y-97990388D01*
X159069288Y-97978473D01*
X159017813Y-97931229D01*
X159000000Y-97867196D01*
X159000000Y-93874000D01*
X159019685Y-93806961D01*
X159072489Y-93761206D01*
X159124000Y-93750000D01*
X172750000Y-93750000D01*
X172750000Y-92335976D01*
X172750343Y-92334807D01*
X172750022Y-92333632D01*
X172760167Y-92301350D01*
X172769685Y-92268937D01*
X172770723Y-92267760D01*
X172770970Y-92266977D01*
X172776379Y-92261356D01*
X172794583Y-92240745D01*
X172797756Y-92238098D01*
X172877219Y-92180366D01*
X173021966Y-92035619D01*
X173021968Y-92035615D01*
X173021971Y-92035613D01*
X173142286Y-91870011D01*
X173142415Y-91869759D01*
X173189795Y-91776769D01*
X173237769Y-91725973D01*
X173305590Y-91709178D01*
X173371725Y-91731715D01*
X173410765Y-91776769D01*
X173458141Y-91869750D01*
X173458147Y-91869759D01*
X173490523Y-91914321D01*
X173490524Y-91914322D01*
X174046212Y-91358634D01*
X174057482Y-91400692D01*
X174129890Y-91526108D01*
X174232292Y-91628510D01*
X174357708Y-91700918D01*
X174399765Y-91712187D01*
X173844076Y-92267874D01*
X173888650Y-92300259D01*
X174070968Y-92393155D01*
X174265582Y-92456390D01*
X174467683Y-92488400D01*
X174672317Y-92488400D01*
X174874417Y-92456390D01*
X175069031Y-92393155D01*
X175251349Y-92300259D01*
X175295921Y-92267874D01*
X174740234Y-91712187D01*
X174782292Y-91700918D01*
X174907708Y-91628510D01*
X175010110Y-91526108D01*
X175082518Y-91400692D01*
X175093787Y-91358634D01*
X175649474Y-91914321D01*
X175681859Y-91869749D01*
X175774755Y-91687431D01*
X175837990Y-91492817D01*
X175870000Y-91290717D01*
X175870000Y-91086082D01*
X175837990Y-90883982D01*
X175774755Y-90689368D01*
X175681859Y-90507050D01*
X175649474Y-90462477D01*
X175649474Y-90462476D01*
X175093787Y-91018164D01*
X175082518Y-90976108D01*
X175010110Y-90850692D01*
X174907708Y-90748290D01*
X174782292Y-90675882D01*
X174740233Y-90664612D01*
X175295922Y-90108924D01*
X175295921Y-90108923D01*
X175251359Y-90076547D01*
X175251350Y-90076541D01*
X175069031Y-89983644D01*
X174874417Y-89920409D01*
X174672317Y-89888400D01*
X174467683Y-89888400D01*
X174265582Y-89920409D01*
X174070968Y-89983644D01*
X173888644Y-90076543D01*
X173844077Y-90108923D01*
X173844077Y-90108924D01*
X174399766Y-90664612D01*
X174357708Y-90675882D01*
X174232292Y-90748290D01*
X174129890Y-90850692D01*
X174057482Y-90976108D01*
X174046212Y-91018165D01*
X173490524Y-90462477D01*
X173490523Y-90462477D01*
X173458143Y-90507044D01*
X173410765Y-90600030D01*
X173362790Y-90650826D01*
X173294969Y-90667621D01*
X173228834Y-90645083D01*
X173189795Y-90600030D01*
X173142284Y-90506785D01*
X173021971Y-90341186D01*
X172928613Y-90247828D01*
X172877219Y-90196434D01*
X172797766Y-90138708D01*
X172794583Y-90136054D01*
X172777354Y-90110329D01*
X172758449Y-90085811D01*
X172757480Y-90080652D01*
X172755704Y-90078000D01*
X172755561Y-90070433D01*
X172750000Y-90040823D01*
X172750000Y-89795976D01*
X172769685Y-89728937D01*
X172801114Y-89695658D01*
X172877219Y-89640366D01*
X172981266Y-89536319D01*
X173042589Y-89502834D01*
X173068947Y-89500000D01*
X176126000Y-89500000D01*
X176193039Y-89519685D01*
G37*
%TD.AperFunction*%
%TD*%
%TA.AperFunction,Conductor*%
%TO.N,/Switch*%
G36*
X176693039Y-105519685D02*
G01*
X176738794Y-105572489D01*
X176750000Y-105624000D01*
X176750000Y-113376000D01*
X176730315Y-113443039D01*
X176677511Y-113488794D01*
X176626000Y-113500000D01*
X171624000Y-113500000D01*
X171556961Y-113480315D01*
X171511206Y-113427511D01*
X171500000Y-113376000D01*
X171500000Y-109500000D01*
X165624000Y-109500000D01*
X165556961Y-109480315D01*
X165511206Y-109427511D01*
X165500000Y-109376000D01*
X165500000Y-108123269D01*
X165519685Y-108056230D01*
X165572489Y-108010475D01*
X165641647Y-108000531D01*
X165705203Y-108029556D01*
X165741931Y-108084950D01*
X165795244Y-108249031D01*
X165888141Y-108431350D01*
X165888147Y-108431359D01*
X165920523Y-108475921D01*
X165920524Y-108475922D01*
X166600000Y-107796446D01*
X166600000Y-107802661D01*
X166627259Y-107904394D01*
X166679920Y-107995606D01*
X166754394Y-108070080D01*
X166845606Y-108122741D01*
X166947339Y-108150000D01*
X166953553Y-108150000D01*
X166274076Y-108829474D01*
X166318650Y-108861859D01*
X166500968Y-108954755D01*
X166695582Y-109017990D01*
X166897683Y-109050000D01*
X167102317Y-109050000D01*
X167304417Y-109017990D01*
X167499031Y-108954755D01*
X167681349Y-108861859D01*
X167725921Y-108829474D01*
X167046447Y-108150000D01*
X167052661Y-108150000D01*
X167154394Y-108122741D01*
X167245606Y-108070080D01*
X167320080Y-107995606D01*
X167372741Y-107904394D01*
X167400000Y-107802661D01*
X167400000Y-107796448D01*
X168079474Y-108475922D01*
X168079474Y-108475921D01*
X168111859Y-108431349D01*
X168153317Y-108349983D01*
X172499500Y-108349983D01*
X172499500Y-109650001D01*
X172499501Y-109650018D01*
X172510000Y-109752796D01*
X172510001Y-109752799D01*
X172565185Y-109919331D01*
X172565187Y-109919336D01*
X172657289Y-110068657D01*
X172781344Y-110192712D01*
X172936558Y-110288448D01*
X172983283Y-110340396D01*
X172994506Y-110409358D01*
X172966663Y-110473441D01*
X172959144Y-110481668D01*
X172820271Y-110620541D01*
X172695379Y-110792442D01*
X172598904Y-110981782D01*
X172533242Y-111183870D01*
X172533242Y-111183873D01*
X172522769Y-111250000D01*
X173566988Y-111250000D01*
X173534075Y-111307007D01*
X173500000Y-111434174D01*
X173500000Y-111565826D01*
X173534075Y-111692993D01*
X173566988Y-111750000D01*
X172522769Y-111750000D01*
X172533242Y-111816126D01*
X172533242Y-111816129D01*
X172598904Y-112018217D01*
X172695379Y-112207557D01*
X172820272Y-112379459D01*
X172820276Y-112379464D01*
X172970535Y-112529723D01*
X172970540Y-112529727D01*
X173142442Y-112654620D01*
X173331782Y-112751095D01*
X173533870Y-112816757D01*
X173743754Y-112850000D01*
X173750000Y-112850000D01*
X173750000Y-111933012D01*
X173807007Y-111965925D01*
X173934174Y-112000000D01*
X174065826Y-112000000D01*
X174192993Y-111965925D01*
X174250000Y-111933012D01*
X174250000Y-112850000D01*
X174256246Y-112850000D01*
X174466127Y-112816757D01*
X174466130Y-112816757D01*
X174668217Y-112751095D01*
X174857557Y-112654620D01*
X175029459Y-112529727D01*
X175029464Y-112529723D01*
X175179723Y-112379464D01*
X175179727Y-112379459D01*
X175304620Y-112207557D01*
X175401095Y-112018217D01*
X175466757Y-111816129D01*
X175466757Y-111816126D01*
X175477231Y-111750000D01*
X174433012Y-111750000D01*
X174465925Y-111692993D01*
X174500000Y-111565826D01*
X174500000Y-111434174D01*
X174465925Y-111307007D01*
X174433012Y-111250000D01*
X175477231Y-111250000D01*
X175466757Y-111183873D01*
X175466757Y-111183870D01*
X175401095Y-110981782D01*
X175304620Y-110792442D01*
X175179727Y-110620540D01*
X175179723Y-110620535D01*
X175040856Y-110481668D01*
X175007371Y-110420345D01*
X175012355Y-110350653D01*
X175054227Y-110294720D01*
X175063441Y-110288448D01*
X175069331Y-110284814D01*
X175069334Y-110284814D01*
X175218656Y-110192712D01*
X175342712Y-110068656D01*
X175434814Y-109919334D01*
X175489999Y-109752797D01*
X175500500Y-109650009D01*
X175500499Y-108349992D01*
X175489999Y-108247203D01*
X175434814Y-108080666D01*
X175342712Y-107931344D01*
X175218656Y-107807288D01*
X175069334Y-107715186D01*
X174902797Y-107660001D01*
X174902795Y-107660000D01*
X174800010Y-107649500D01*
X173199998Y-107649500D01*
X173199981Y-107649501D01*
X173097203Y-107660000D01*
X173097200Y-107660001D01*
X172930668Y-107715185D01*
X172930663Y-107715187D01*
X172781342Y-107807289D01*
X172657289Y-107931342D01*
X172565187Y-108080663D01*
X172565186Y-108080666D01*
X172510001Y-108247203D01*
X172510001Y-108247204D01*
X172510000Y-108247204D01*
X172499500Y-108349983D01*
X168153317Y-108349983D01*
X168183606Y-108290539D01*
X168183607Y-108290537D01*
X168204754Y-108249034D01*
X168267990Y-108054417D01*
X168300000Y-107852317D01*
X168300000Y-107647682D01*
X168267990Y-107445582D01*
X168204755Y-107250968D01*
X168111859Y-107068650D01*
X168079474Y-107024077D01*
X168079474Y-107024076D01*
X167400000Y-107703551D01*
X167400000Y-107697339D01*
X167372741Y-107595606D01*
X167320080Y-107504394D01*
X167245606Y-107429920D01*
X167154394Y-107377259D01*
X167052661Y-107350000D01*
X167046446Y-107350000D01*
X167725922Y-106670524D01*
X167725921Y-106670523D01*
X167681359Y-106638147D01*
X167681350Y-106638141D01*
X167499031Y-106545244D01*
X167304417Y-106482009D01*
X167102317Y-106450000D01*
X166897683Y-106450000D01*
X166695582Y-106482009D01*
X166500968Y-106545244D01*
X166318644Y-106638143D01*
X166274077Y-106670523D01*
X166274077Y-106670524D01*
X166953554Y-107350000D01*
X166947339Y-107350000D01*
X166845606Y-107377259D01*
X166754394Y-107429920D01*
X166679920Y-107504394D01*
X166627259Y-107595606D01*
X166600000Y-107697339D01*
X166600000Y-107703553D01*
X165920524Y-107024077D01*
X165920523Y-107024077D01*
X165888143Y-107068644D01*
X165795244Y-107250968D01*
X165741931Y-107415049D01*
X165702493Y-107472724D01*
X165638134Y-107499922D01*
X165569288Y-107488007D01*
X165517812Y-107440763D01*
X165500000Y-107376730D01*
X165500000Y-105624000D01*
X165519685Y-105556961D01*
X165572489Y-105511206D01*
X165624000Y-105500000D01*
X176626000Y-105500000D01*
X176693039Y-105519685D01*
G37*
%TD.AperFunction*%
%TD*%
%TA.AperFunction,Conductor*%
%TO.N,/24V*%
G36*
X160164182Y-111519685D02*
G01*
X160209937Y-111572489D01*
X160219881Y-111641647D01*
X160190856Y-111705203D01*
X160170028Y-111724319D01*
X160120533Y-111760278D01*
X159970276Y-111910535D01*
X159970272Y-111910540D01*
X159845379Y-112082442D01*
X159748904Y-112271782D01*
X159683242Y-112473870D01*
X159683242Y-112473873D01*
X159672769Y-112540000D01*
X160566988Y-112540000D01*
X160534075Y-112597007D01*
X160500000Y-112724174D01*
X160500000Y-112855826D01*
X160534075Y-112982993D01*
X160566988Y-113040000D01*
X159672769Y-113040000D01*
X159683242Y-113106126D01*
X159683242Y-113106129D01*
X159748904Y-113308217D01*
X159845379Y-113497557D01*
X159970272Y-113669459D01*
X159970276Y-113669464D01*
X160083946Y-113783134D01*
X160117431Y-113844457D01*
X160112447Y-113914149D01*
X160070575Y-113970082D01*
X160039598Y-113986997D01*
X159907671Y-114036202D01*
X159907664Y-114036206D01*
X159792455Y-114122452D01*
X159792452Y-114122455D01*
X159706206Y-114237664D01*
X159706202Y-114237671D01*
X159655908Y-114372517D01*
X159651508Y-114413446D01*
X159649501Y-114432123D01*
X159649500Y-114432135D01*
X159649500Y-116227870D01*
X159649501Y-116227876D01*
X159655908Y-116287483D01*
X159706202Y-116422328D01*
X159706206Y-116422335D01*
X159792452Y-116537544D01*
X159792455Y-116537547D01*
X159907664Y-116623793D01*
X159907671Y-116623797D01*
X160042517Y-116674091D01*
X160042516Y-116674091D01*
X160049444Y-116674835D01*
X160102127Y-116680500D01*
X161897872Y-116680499D01*
X161957483Y-116674091D01*
X162092331Y-116623796D01*
X162207546Y-116537546D01*
X162293796Y-116422331D01*
X162344091Y-116287483D01*
X162350500Y-116227873D01*
X162350499Y-115317339D01*
X162350499Y-114770013D01*
X165700000Y-114770013D01*
X165700000Y-115120000D01*
X166684314Y-115120000D01*
X166679920Y-115124394D01*
X166627259Y-115215606D01*
X166600000Y-115317339D01*
X166600000Y-115422661D01*
X166627259Y-115524394D01*
X166679920Y-115615606D01*
X166684314Y-115620000D01*
X165700001Y-115620000D01*
X165700001Y-115969986D01*
X165710494Y-116072697D01*
X165765641Y-116239119D01*
X165765643Y-116239124D01*
X165857684Y-116388345D01*
X165981654Y-116512315D01*
X166130875Y-116604356D01*
X166130880Y-116604358D01*
X166297302Y-116659505D01*
X166297309Y-116659506D01*
X166400019Y-116669999D01*
X166749999Y-116669999D01*
X166750000Y-116669998D01*
X166750000Y-115685686D01*
X166754394Y-115690080D01*
X166845606Y-115742741D01*
X166947339Y-115770000D01*
X167052661Y-115770000D01*
X167154394Y-115742741D01*
X167245606Y-115690080D01*
X167250000Y-115685686D01*
X167250000Y-116669999D01*
X167599972Y-116669999D01*
X167599986Y-116669998D01*
X167702697Y-116659505D01*
X167869119Y-116604358D01*
X167869124Y-116604356D01*
X168018345Y-116512315D01*
X168142315Y-116388345D01*
X168234356Y-116239124D01*
X168234358Y-116239119D01*
X168289505Y-116072697D01*
X168289506Y-116072690D01*
X168299999Y-115969986D01*
X168300000Y-115969973D01*
X168300000Y-115620000D01*
X167315686Y-115620000D01*
X167320080Y-115615606D01*
X167372741Y-115524394D01*
X167400000Y-115422661D01*
X167400000Y-115317339D01*
X167372741Y-115215606D01*
X167320080Y-115124394D01*
X167315686Y-115120000D01*
X168299999Y-115120000D01*
X168299999Y-114770028D01*
X168299998Y-114770013D01*
X168289505Y-114667302D01*
X168234358Y-114500880D01*
X168234356Y-114500875D01*
X168142315Y-114351654D01*
X168018345Y-114227684D01*
X167869124Y-114135643D01*
X167869119Y-114135641D01*
X167702697Y-114080494D01*
X167702690Y-114080493D01*
X167599986Y-114070000D01*
X167250000Y-114070000D01*
X167250000Y-115054314D01*
X167245606Y-115049920D01*
X167154394Y-114997259D01*
X167052661Y-114970000D01*
X166947339Y-114970000D01*
X166845606Y-114997259D01*
X166754394Y-115049920D01*
X166750000Y-115054314D01*
X166750000Y-114070000D01*
X166400028Y-114070000D01*
X166400012Y-114070001D01*
X166297302Y-114080494D01*
X166130880Y-114135641D01*
X166130875Y-114135643D01*
X165981654Y-114227684D01*
X165857684Y-114351654D01*
X165765643Y-114500875D01*
X165765641Y-114500880D01*
X165710494Y-114667302D01*
X165710493Y-114667309D01*
X165700000Y-114770013D01*
X162350499Y-114770013D01*
X162350499Y-114766864D01*
X162350499Y-114432129D01*
X162350498Y-114432123D01*
X162350497Y-114432116D01*
X162344091Y-114372517D01*
X162338582Y-114357747D01*
X162293797Y-114237671D01*
X162293793Y-114237664D01*
X162207547Y-114122455D01*
X162207544Y-114122452D01*
X162092335Y-114036206D01*
X162092328Y-114036202D01*
X161960401Y-113986997D01*
X161904467Y-113945126D01*
X161880050Y-113879662D01*
X161894902Y-113811389D01*
X161916053Y-113783133D01*
X162029728Y-113669458D01*
X162154620Y-113497557D01*
X162251095Y-113308217D01*
X162316757Y-113106129D01*
X162316757Y-113106126D01*
X162327231Y-113040000D01*
X161433012Y-113040000D01*
X161465925Y-112982993D01*
X161500000Y-112855826D01*
X161500000Y-112724174D01*
X161465925Y-112597007D01*
X161433012Y-112540000D01*
X162327231Y-112540000D01*
X162316757Y-112473873D01*
X162316757Y-112473870D01*
X162251095Y-112271782D01*
X162154620Y-112082442D01*
X162029727Y-111910540D01*
X162029723Y-111910535D01*
X161879466Y-111760278D01*
X161829972Y-111724319D01*
X161787306Y-111668989D01*
X161781327Y-111599376D01*
X161813932Y-111537580D01*
X161874771Y-111503223D01*
X161902857Y-111500000D01*
X168626000Y-111500000D01*
X168693039Y-111519685D01*
X168738794Y-111572489D01*
X168750000Y-111624000D01*
X168750000Y-115000000D01*
X172125114Y-115000000D01*
X172192153Y-115019685D01*
X172237908Y-115072489D01*
X172247852Y-115141647D01*
X172218827Y-115205203D01*
X172163433Y-115241931D01*
X172000776Y-115294781D01*
X171818386Y-115387715D01*
X171652786Y-115508028D01*
X171508028Y-115652786D01*
X171387715Y-115818386D01*
X171294781Y-116000776D01*
X171231522Y-116195465D01*
X171200973Y-116388345D01*
X171199500Y-116397648D01*
X171199500Y-116602352D01*
X171199818Y-116604358D01*
X171231522Y-116804534D01*
X171294781Y-116999223D01*
X171337248Y-117082567D01*
X171387585Y-117181359D01*
X171387715Y-117181613D01*
X171508028Y-117347213D01*
X171652786Y-117491971D01*
X171773226Y-117579474D01*
X171818390Y-117612287D01*
X171934607Y-117671503D01*
X172000776Y-117705218D01*
X172000778Y-117705218D01*
X172000781Y-117705220D01*
X172105137Y-117739127D01*
X172195465Y-117768477D01*
X172296557Y-117784488D01*
X172397648Y-117800500D01*
X172397649Y-117800500D01*
X172602351Y-117800500D01*
X172602352Y-117800500D01*
X172804534Y-117768477D01*
X172999219Y-117705220D01*
X173181610Y-117612287D01*
X173274590Y-117544732D01*
X173347213Y-117491971D01*
X173347215Y-117491968D01*
X173347219Y-117491966D01*
X173491966Y-117347219D01*
X173491968Y-117347215D01*
X173491971Y-117347213D01*
X173612286Y-117181611D01*
X173612415Y-117181359D01*
X173639795Y-117127621D01*
X173687769Y-117076826D01*
X173755589Y-117060030D01*
X173821725Y-117082567D01*
X173860765Y-117127621D01*
X173888141Y-117181350D01*
X173888147Y-117181359D01*
X173920523Y-117225921D01*
X173920524Y-117225922D01*
X174600000Y-116546446D01*
X174600000Y-116552661D01*
X174627259Y-116654394D01*
X174679920Y-116745606D01*
X174754394Y-116820080D01*
X174845606Y-116872741D01*
X174947339Y-116900000D01*
X174953553Y-116900000D01*
X174274076Y-117579474D01*
X174318650Y-117611859D01*
X174500968Y-117704755D01*
X174695582Y-117767990D01*
X174897683Y-117800000D01*
X175102317Y-117800000D01*
X175304417Y-117767990D01*
X175499031Y-117704755D01*
X175681349Y-117611859D01*
X175725921Y-117579474D01*
X175046447Y-116900000D01*
X175052661Y-116900000D01*
X175154394Y-116872741D01*
X175245606Y-116820080D01*
X175320080Y-116745606D01*
X175372741Y-116654394D01*
X175400000Y-116552661D01*
X175400000Y-116546447D01*
X176079474Y-117225921D01*
X176111859Y-117181349D01*
X176204754Y-116999031D01*
X176258069Y-116834950D01*
X176297507Y-116777275D01*
X176361866Y-116750077D01*
X176430712Y-116761992D01*
X176482188Y-116809236D01*
X176500000Y-116873269D01*
X176500000Y-118126870D01*
X176480315Y-118193909D01*
X176427511Y-118239664D01*
X176376873Y-118250867D01*
X141124873Y-118499120D01*
X141057697Y-118479908D01*
X141011571Y-118427427D01*
X141000000Y-118375123D01*
X141000000Y-114480485D01*
X141019685Y-114413446D01*
X141072489Y-114367691D01*
X141141647Y-114357747D01*
X141205203Y-114386772D01*
X141234611Y-114427562D01*
X141235660Y-114427028D01*
X141327483Y-114607239D01*
X141353457Y-114642988D01*
X141353457Y-114642989D01*
X141917037Y-114079408D01*
X141934075Y-114142993D01*
X141999901Y-114257007D01*
X142092993Y-114350099D01*
X142207007Y-114415925D01*
X142270590Y-114432962D01*
X141707009Y-114996541D01*
X141707010Y-114996542D01*
X141742755Y-115022512D01*
X141742768Y-115022520D01*
X141918626Y-115112126D01*
X142106353Y-115173123D01*
X142301303Y-115204000D01*
X142498697Y-115204000D01*
X142693646Y-115173123D01*
X142881373Y-115112126D01*
X143057241Y-115022516D01*
X143092988Y-114996543D01*
X143092988Y-114996541D01*
X142529410Y-114432962D01*
X142592993Y-114415925D01*
X142707007Y-114350099D01*
X142800099Y-114257007D01*
X142865925Y-114142993D01*
X142882962Y-114079409D01*
X143446541Y-114642988D01*
X143446543Y-114642988D01*
X143472516Y-114607241D01*
X143562126Y-114431373D01*
X143623123Y-114243646D01*
X143654000Y-114048697D01*
X143654000Y-113851302D01*
X143623123Y-113656353D01*
X143562126Y-113468626D01*
X143472514Y-113292757D01*
X143402860Y-113196885D01*
X143379380Y-113131079D01*
X143395206Y-113063025D01*
X143445311Y-113014330D01*
X143503178Y-113000000D01*
X148916204Y-113000000D01*
X148983243Y-113019685D01*
X149028998Y-113072489D01*
X149038942Y-113141647D01*
X149016523Y-113196885D01*
X148947055Y-113292499D01*
X148857408Y-113468441D01*
X148796389Y-113656236D01*
X148765500Y-113851263D01*
X148765500Y-114048736D01*
X148796389Y-114243763D01*
X148855936Y-114427028D01*
X148857409Y-114431561D01*
X148946923Y-114607239D01*
X148947058Y-114607504D01*
X149063115Y-114767246D01*
X149202753Y-114906884D01*
X149326158Y-114996541D01*
X149362499Y-115022944D01*
X149538439Y-115112591D01*
X149617053Y-115138134D01*
X149726236Y-115173610D01*
X149921264Y-115204500D01*
X149921269Y-115204500D01*
X150118736Y-115204500D01*
X150313763Y-115173610D01*
X150315262Y-115173123D01*
X150501561Y-115112591D01*
X150677501Y-115022944D01*
X150767192Y-114957779D01*
X150837246Y-114906884D01*
X150837248Y-114906881D01*
X150837252Y-114906879D01*
X150976879Y-114767252D01*
X150976881Y-114767248D01*
X150976884Y-114767246D01*
X151092941Y-114607505D01*
X151092942Y-114607504D01*
X151092944Y-114607501D01*
X151179517Y-114437593D01*
X151227490Y-114386800D01*
X151295311Y-114370005D01*
X151361446Y-114392542D01*
X151400482Y-114437593D01*
X151483804Y-114601119D01*
X151487058Y-114607505D01*
X151603115Y-114767246D01*
X151742753Y-114906884D01*
X151866158Y-114996541D01*
X151902499Y-115022944D01*
X152078439Y-115112591D01*
X152157053Y-115138134D01*
X152266236Y-115173610D01*
X152461264Y-115204500D01*
X152461269Y-115204500D01*
X152658736Y-115204500D01*
X152853763Y-115173610D01*
X152855262Y-115173123D01*
X153041561Y-115112591D01*
X153217501Y-115022944D01*
X153307192Y-114957779D01*
X153377246Y-114906884D01*
X153377248Y-114906881D01*
X153377252Y-114906879D01*
X153516879Y-114767252D01*
X153516881Y-114767248D01*
X153516884Y-114767246D01*
X153632941Y-114607505D01*
X153632942Y-114607504D01*
X153632944Y-114607501D01*
X153719517Y-114437593D01*
X153767490Y-114386800D01*
X153835311Y-114370005D01*
X153901446Y-114392542D01*
X153940482Y-114437593D01*
X154023804Y-114601119D01*
X154027058Y-114607505D01*
X154143115Y-114767246D01*
X154282753Y-114906884D01*
X154406158Y-114996541D01*
X154442499Y-115022944D01*
X154618439Y-115112591D01*
X154697053Y-115138134D01*
X154806236Y-115173610D01*
X155001264Y-115204500D01*
X155001269Y-115204500D01*
X155198736Y-115204500D01*
X155393763Y-115173610D01*
X155395262Y-115173123D01*
X155581561Y-115112591D01*
X155757501Y-115022944D01*
X155847192Y-114957779D01*
X155917246Y-114906884D01*
X155917248Y-114906881D01*
X155917252Y-114906879D01*
X156056879Y-114767252D01*
X156056881Y-114767248D01*
X156056884Y-114767246D01*
X156129496Y-114667302D01*
X156172944Y-114607501D01*
X156262591Y-114431561D01*
X156323610Y-114243763D01*
X156326157Y-114227684D01*
X156354500Y-114048736D01*
X156354500Y-113851263D01*
X156323610Y-113656236D01*
X156289059Y-113549901D01*
X156262591Y-113468439D01*
X156172944Y-113292499D01*
X156103477Y-113196885D01*
X156079998Y-113131078D01*
X156095824Y-113063024D01*
X156145930Y-113014330D01*
X156203796Y-113000000D01*
X158250000Y-113000000D01*
X158250000Y-111624000D01*
X158269685Y-111556961D01*
X158322489Y-111511206D01*
X158374000Y-111500000D01*
X160097143Y-111500000D01*
X160164182Y-111519685D01*
G37*
%TD.AperFunction*%
%TA.AperFunction,Conductor*%
G36*
X174693769Y-115019685D02*
G01*
X174739524Y-115072489D01*
X174749468Y-115141647D01*
X174720443Y-115205203D01*
X174665049Y-115241931D01*
X174500968Y-115295244D01*
X174318644Y-115388143D01*
X174274077Y-115420523D01*
X174274077Y-115420524D01*
X174953554Y-116100000D01*
X174947339Y-116100000D01*
X174845606Y-116127259D01*
X174754394Y-116179920D01*
X174679920Y-116254394D01*
X174627259Y-116345606D01*
X174600000Y-116447339D01*
X174600000Y-116453553D01*
X173920524Y-115774077D01*
X173920523Y-115774077D01*
X173888143Y-115818644D01*
X173860765Y-115872378D01*
X173812790Y-115923174D01*
X173744969Y-115939969D01*
X173678834Y-115917431D01*
X173639795Y-115872378D01*
X173612284Y-115818385D01*
X173491971Y-115652786D01*
X173347213Y-115508028D01*
X173181613Y-115387715D01*
X173181612Y-115387714D01*
X173181610Y-115387713D01*
X173124653Y-115358691D01*
X172999223Y-115294781D01*
X172836567Y-115241931D01*
X172778892Y-115202493D01*
X172751694Y-115138134D01*
X172763609Y-115069288D01*
X172810853Y-115017812D01*
X172874886Y-115000000D01*
X174626730Y-115000000D01*
X174693769Y-115019685D01*
G37*
%TD.AperFunction*%
%TA.AperFunction,Conductor*%
G36*
X176443039Y-115019685D02*
G01*
X176488794Y-115072489D01*
X176500000Y-115124000D01*
X176500000Y-116126730D01*
X176480315Y-116193769D01*
X176427511Y-116239524D01*
X176358353Y-116249468D01*
X176294797Y-116220443D01*
X176258069Y-116165049D01*
X176204755Y-116000968D01*
X176111859Y-115818650D01*
X176079474Y-115774077D01*
X176079474Y-115774076D01*
X175400000Y-116453551D01*
X175400000Y-116447339D01*
X175372741Y-116345606D01*
X175320080Y-116254394D01*
X175245606Y-116179920D01*
X175154394Y-116127259D01*
X175052661Y-116100000D01*
X175046446Y-116100000D01*
X175725922Y-115420524D01*
X175725921Y-115420523D01*
X175681359Y-115388147D01*
X175681350Y-115388141D01*
X175499031Y-115295244D01*
X175334951Y-115241931D01*
X175277276Y-115202493D01*
X175250078Y-115138134D01*
X175261993Y-115069288D01*
X175309237Y-115017812D01*
X175373270Y-115000000D01*
X176376000Y-115000000D01*
X176443039Y-115019685D01*
G37*
%TD.AperFunction*%
%TD*%
%TA.AperFunction,Conductor*%
%TO.N,/VIO*%
G36*
X170569474Y-91914321D02*
G01*
X170616271Y-91910639D01*
X170684648Y-91925003D01*
X170734405Y-91974055D01*
X170750000Y-92034257D01*
X170750000Y-93126000D01*
X170730315Y-93193039D01*
X170677511Y-93238794D01*
X170626000Y-93250000D01*
X140500000Y-93250000D01*
X140500000Y-97500000D01*
X141585732Y-97500000D01*
X141652771Y-97519685D01*
X141698526Y-97572489D01*
X141709350Y-97633729D01*
X141707010Y-97663457D01*
X142270591Y-98227037D01*
X142207007Y-98244075D01*
X142092993Y-98309901D01*
X141999901Y-98402993D01*
X141934075Y-98517007D01*
X141917037Y-98580590D01*
X141353457Y-98017010D01*
X141353456Y-98017010D01*
X141327483Y-98052760D01*
X141327482Y-98052762D01*
X141237873Y-98228626D01*
X141176876Y-98416353D01*
X141146000Y-98611302D01*
X141146000Y-98808697D01*
X141176876Y-99003646D01*
X141237873Y-99191373D01*
X141327483Y-99367239D01*
X141353457Y-99402988D01*
X141353457Y-99402989D01*
X141917037Y-98839409D01*
X141934075Y-98902993D01*
X141999901Y-99017007D01*
X142092993Y-99110099D01*
X142207007Y-99175925D01*
X142270590Y-99192962D01*
X141707009Y-99756541D01*
X141707010Y-99756542D01*
X141733354Y-99775682D01*
X141776020Y-99831012D01*
X141781999Y-99900625D01*
X141749393Y-99962420D01*
X141688555Y-99996777D01*
X141660469Y-100000000D01*
X139624000Y-100000000D01*
X139556961Y-99980315D01*
X139511206Y-99927511D01*
X139500000Y-99876000D01*
X139500000Y-92622926D01*
X139519685Y-92555887D01*
X139572489Y-92510132D01*
X139622921Y-92498931D01*
X141402429Y-92483457D01*
X141422879Y-92484977D01*
X141447648Y-92488900D01*
X141447651Y-92488900D01*
X141652348Y-92488900D01*
X141652352Y-92488900D01*
X141694146Y-92482280D01*
X141712431Y-92480761D01*
X143810233Y-92462519D01*
X143830694Y-92464040D01*
X143987648Y-92488900D01*
X143987649Y-92488900D01*
X144192350Y-92488900D01*
X144192352Y-92488900D01*
X144381696Y-92458910D01*
X144399979Y-92457391D01*
X146256630Y-92441246D01*
X146296024Y-92447311D01*
X146325458Y-92456875D01*
X146325461Y-92456875D01*
X146325466Y-92456877D01*
X146527648Y-92488900D01*
X146527649Y-92488900D01*
X146732351Y-92488900D01*
X146732352Y-92488900D01*
X146934534Y-92456877D01*
X146984454Y-92440656D01*
X147021683Y-92434594D01*
X148730430Y-92419735D01*
X148769811Y-92425797D01*
X148865466Y-92456877D01*
X149067648Y-92488900D01*
X149067649Y-92488900D01*
X149272351Y-92488900D01*
X149272352Y-92488900D01*
X149474534Y-92456877D01*
X149594300Y-92417962D01*
X149631532Y-92411899D01*
X151204224Y-92398224D01*
X151243608Y-92404286D01*
X151405466Y-92456877D01*
X151607648Y-92488900D01*
X151607649Y-92488900D01*
X151812351Y-92488900D01*
X151812352Y-92488900D01*
X152014534Y-92456877D01*
X152204145Y-92395268D01*
X152241380Y-92389205D01*
X153686598Y-92376638D01*
X153743969Y-92390149D01*
X153750781Y-92393620D01*
X153876886Y-92434594D01*
X153945465Y-92456877D01*
X154046557Y-92472888D01*
X154147648Y-92488900D01*
X154147649Y-92488900D01*
X154352351Y-92488900D01*
X154352352Y-92488900D01*
X154554534Y-92456877D01*
X154749219Y-92393620D01*
X154775558Y-92380199D01*
X154830772Y-92366688D01*
X156183976Y-92354921D01*
X156241347Y-92368432D01*
X156290774Y-92393617D01*
X156290777Y-92393617D01*
X156290781Y-92393620D01*
X156389815Y-92425798D01*
X156485465Y-92456877D01*
X156586557Y-92472888D01*
X156687648Y-92488900D01*
X156687649Y-92488900D01*
X156892351Y-92488900D01*
X156892352Y-92488900D01*
X157094534Y-92456877D01*
X157289219Y-92393620D01*
X157359661Y-92357727D01*
X157414871Y-92344218D01*
X158681358Y-92333205D01*
X158738721Y-92346713D01*
X158830781Y-92393620D01*
X158975549Y-92440658D01*
X159025465Y-92456877D01*
X159126557Y-92472888D01*
X159227648Y-92488900D01*
X159227649Y-92488900D01*
X159432351Y-92488900D01*
X159432352Y-92488900D01*
X159634534Y-92456877D01*
X159829219Y-92393620D01*
X159943763Y-92335256D01*
X159998971Y-92321748D01*
X161178736Y-92311489D01*
X161236102Y-92324997D01*
X161278723Y-92346714D01*
X161370776Y-92393618D01*
X161370778Y-92393618D01*
X161370781Y-92393620D01*
X161445701Y-92417963D01*
X161565465Y-92456877D01*
X161666557Y-92472888D01*
X161767648Y-92488900D01*
X161767649Y-92488900D01*
X161972351Y-92488900D01*
X161972352Y-92488900D01*
X162174534Y-92456877D01*
X162369219Y-92393620D01*
X162527863Y-92312786D01*
X162583075Y-92299277D01*
X163676113Y-92289772D01*
X163733483Y-92303282D01*
X163910776Y-92393618D01*
X163910778Y-92393618D01*
X163910781Y-92393620D01*
X163985701Y-92417963D01*
X164105465Y-92456877D01*
X164206557Y-92472888D01*
X164307648Y-92488900D01*
X164307649Y-92488900D01*
X164512351Y-92488900D01*
X164512352Y-92488900D01*
X164714534Y-92456877D01*
X164909219Y-92393620D01*
X165091610Y-92300687D01*
X165091832Y-92300525D01*
X165091933Y-92300489D01*
X165095755Y-92298147D01*
X165096246Y-92298949D01*
X165157630Y-92277035D01*
X165163581Y-92276838D01*
X166182003Y-92267982D01*
X166249209Y-92287083D01*
X166255962Y-92291658D01*
X166268390Y-92300687D01*
X166353824Y-92344218D01*
X166450776Y-92393618D01*
X166450778Y-92393618D01*
X166450781Y-92393620D01*
X166525701Y-92417963D01*
X166645465Y-92456877D01*
X166746557Y-92472888D01*
X166847648Y-92488900D01*
X166847649Y-92488900D01*
X167052351Y-92488900D01*
X167052352Y-92488900D01*
X167254534Y-92456877D01*
X167449219Y-92393620D01*
X167631610Y-92300687D01*
X167662616Y-92278159D01*
X167728418Y-92254679D01*
X167734369Y-92254483D01*
X168250000Y-92250000D01*
X168250000Y-92035831D01*
X168269685Y-91968792D01*
X168322489Y-91923037D01*
X168383729Y-91912213D01*
X168410525Y-91914321D01*
X168966212Y-91358634D01*
X168977482Y-91400692D01*
X169049890Y-91526108D01*
X169152292Y-91628510D01*
X169277708Y-91700918D01*
X169319765Y-91712187D01*
X168764076Y-92267874D01*
X168808650Y-92300259D01*
X168990968Y-92393155D01*
X169185582Y-92456390D01*
X169387683Y-92488400D01*
X169592317Y-92488400D01*
X169794417Y-92456390D01*
X169989031Y-92393155D01*
X170171349Y-92300259D01*
X170215921Y-92267874D01*
X169660234Y-91712187D01*
X169702292Y-91700918D01*
X169827708Y-91628510D01*
X169930110Y-91526108D01*
X170002518Y-91400692D01*
X170013787Y-91358634D01*
X170569474Y-91914321D01*
G37*
%TD.AperFunction*%
%TA.AperFunction,Conductor*%
G36*
X143446541Y-99402988D02*
G01*
X143446543Y-99402988D01*
X143472516Y-99367241D01*
X143515515Y-99282851D01*
X143563489Y-99232055D01*
X143631310Y-99215260D01*
X143697445Y-99237797D01*
X143740897Y-99292512D01*
X143750000Y-99339146D01*
X143750000Y-99876000D01*
X143730315Y-99943039D01*
X143677511Y-99988794D01*
X143626000Y-100000000D01*
X143139532Y-100000000D01*
X143072493Y-99980315D01*
X143026738Y-99927511D01*
X143016794Y-99858353D01*
X143045819Y-99794797D01*
X143066645Y-99775683D01*
X143092988Y-99756542D01*
X143092988Y-99756541D01*
X142529410Y-99192962D01*
X142592993Y-99175925D01*
X142707007Y-99110099D01*
X142800099Y-99017007D01*
X142865925Y-98902993D01*
X142882962Y-98839409D01*
X143446541Y-99402988D01*
G37*
%TD.AperFunction*%
%TA.AperFunction,Conductor*%
G36*
X143693039Y-97519685D02*
G01*
X143738794Y-97572489D01*
X143750000Y-97624000D01*
X143750000Y-98080853D01*
X143730315Y-98147892D01*
X143677511Y-98193647D01*
X143608353Y-98203591D01*
X143544797Y-98174566D01*
X143515516Y-98137149D01*
X143472523Y-98052773D01*
X143472512Y-98052755D01*
X143446542Y-98017010D01*
X143446541Y-98017009D01*
X142882962Y-98580589D01*
X142865925Y-98517007D01*
X142800099Y-98402993D01*
X142707007Y-98309901D01*
X142592993Y-98244075D01*
X142529409Y-98227037D01*
X143092988Y-97663458D01*
X143090649Y-97633729D01*
X143105013Y-97565352D01*
X143154064Y-97515595D01*
X143214267Y-97500000D01*
X143626000Y-97500000D01*
X143693039Y-97519685D01*
G37*
%TD.AperFunction*%
%TA.AperFunction,Conductor*%
G36*
X168705546Y-90019685D02*
G01*
X168751301Y-90072489D01*
X168756380Y-90101227D01*
X169319766Y-90664612D01*
X169277708Y-90675882D01*
X169152292Y-90748290D01*
X169049890Y-90850692D01*
X168977482Y-90976108D01*
X168966212Y-91018165D01*
X168410524Y-90462477D01*
X168383729Y-90464586D01*
X168370118Y-90461726D01*
X168356353Y-90463706D01*
X168336601Y-90454685D01*
X168315352Y-90450222D01*
X168305447Y-90440458D01*
X168292797Y-90434681D01*
X168281057Y-90416414D01*
X168265595Y-90401171D01*
X168261768Y-90386399D01*
X168255023Y-90375903D01*
X168250000Y-90340968D01*
X168250000Y-90124000D01*
X168269685Y-90056961D01*
X168322489Y-90011206D01*
X168374000Y-90000000D01*
X168638507Y-90000000D01*
X168705546Y-90019685D01*
G37*
%TD.AperFunction*%
%TA.AperFunction,Conductor*%
G36*
X170634685Y-90002550D02*
G01*
X170643647Y-90001262D01*
X170667687Y-90012240D01*
X170693039Y-90019685D01*
X170698966Y-90026525D01*
X170707203Y-90030287D01*
X170721492Y-90052521D01*
X170738794Y-90072489D01*
X170741081Y-90083003D01*
X170744977Y-90089065D01*
X170750000Y-90124000D01*
X170750000Y-90342541D01*
X170730315Y-90409580D01*
X170677511Y-90455335D01*
X170616272Y-90466159D01*
X170569474Y-90462476D01*
X170013787Y-91018164D01*
X170002518Y-90976108D01*
X169930110Y-90850692D01*
X169827708Y-90748290D01*
X169702292Y-90675882D01*
X169660233Y-90664612D01*
X170224989Y-90099857D01*
X170232238Y-90065352D01*
X170281289Y-90015595D01*
X170341492Y-90000000D01*
X170626000Y-90000000D01*
X170634685Y-90002550D01*
G37*
%TD.AperFunction*%
%TD*%
M02*
