%TF.GenerationSoftware,KiCad,Pcbnew,9.0.1*%
%TF.CreationDate,2025-05-12T18:56:41-04:00*%
%TF.ProjectId,arm,61726d2e-6b69-4636-9164-5f7063625858,rev?*%
%TF.SameCoordinates,Original*%
%TF.FileFunction,Soldermask,Bot*%
%TF.FilePolarity,Negative*%
%FSLAX46Y46*%
G04 Gerber Fmt 4.6, Leading zero omitted, Abs format (unit mm)*
G04 Created by KiCad (PCBNEW 9.0.1) date 2025-05-12 18:56:41*
%MOMM*%
%LPD*%
G01*
G04 APERTURE LIST*
G04 Aperture macros list*
%AMRoundRect*
0 Rectangle with rounded corners*
0 $1 Rounding radius*
0 $2 $3 $4 $5 $6 $7 $8 $9 X,Y pos of 4 corners*
0 Add a 4 corners polygon primitive as box body*
4,1,4,$2,$3,$4,$5,$6,$7,$8,$9,$2,$3,0*
0 Add four circle primitives for the rounded corners*
1,1,$1+$1,$2,$3*
1,1,$1+$1,$4,$5*
1,1,$1+$1,$6,$7*
1,1,$1+$1,$8,$9*
0 Add four rect primitives between the rounded corners*
20,1,$1+$1,$2,$3,$4,$5,0*
20,1,$1+$1,$4,$5,$6,$7,0*
20,1,$1+$1,$6,$7,$8,$9,0*
20,1,$1+$1,$8,$9,$2,$3,0*%
G04 Aperture macros list end*
%ADD10R,2.000000X2.000000*%
%ADD11RoundRect,0.250000X0.750000X-0.600000X0.750000X0.600000X-0.750000X0.600000X-0.750000X-0.600000X0*%
%ADD12O,2.000000X1.700000*%
%ADD13RoundRect,0.250000X0.550000X-0.550000X0.550000X0.550000X-0.550000X0.550000X-0.550000X-0.550000X0*%
%ADD14C,1.600000*%
%ADD15RoundRect,0.250000X-0.750000X0.600000X-0.750000X-0.600000X0.750000X-0.600000X0.750000X0.600000X0*%
%ADD16RoundRect,0.102000X-0.754000X-0.754000X0.754000X-0.754000X0.754000X0.754000X-0.754000X0.754000X0*%
%ADD17C,1.712000*%
%ADD18R,1.700000X1.700000*%
%ADD19O,1.700000X1.700000*%
%ADD20RoundRect,0.250000X-0.725000X0.600000X-0.725000X-0.600000X0.725000X-0.600000X0.725000X0.600000X0*%
%ADD21O,1.950000X1.700000*%
%ADD22R,1.600000X1.600000*%
%ADD23R,1.300000X1.300000*%
%ADD24C,1.300000*%
G04 APERTURE END LIST*
D10*
%TO.C,REF\u002A\u002A*%
X137500000Y-115250000D03*
%TD*%
D11*
%TO.C,5V*%
X160700000Y-100750000D03*
D12*
X160700000Y-98250000D03*
%TD*%
D13*
%TO.C,SW*%
X167000000Y-115370000D03*
D14*
X167000000Y-107750000D03*
%TD*%
D15*
%TO.C,RX/TX*%
X116250000Y-97000000D03*
D12*
X116250000Y-99500000D03*
%TD*%
D16*
%TO.C,TMC_2209*%
X142400000Y-96170000D03*
D17*
X142400000Y-98710000D03*
X142400000Y-101250000D03*
X142400000Y-103790000D03*
X142400000Y-106330000D03*
X142400000Y-108870000D03*
X142400000Y-111410000D03*
X142400000Y-113950000D03*
X155100000Y-96170000D03*
X155100000Y-98710000D03*
X155100000Y-101250000D03*
X155100000Y-103790000D03*
X155100000Y-106330000D03*
X155100000Y-108870000D03*
X155100000Y-111410000D03*
X155100000Y-113950000D03*
X150020000Y-113950000D03*
X152560000Y-113950000D03*
%TD*%
D10*
%TO.C,REF\u002A\u002A*%
X121500000Y-115250000D03*
%TD*%
D18*
%TO.C,Ground*%
X167250000Y-103370000D03*
D19*
X167250000Y-100830000D03*
X167250000Y-98290000D03*
X167250000Y-95750000D03*
%TD*%
D14*
%TO.C,C1*%
X175000000Y-116500000D03*
X172500000Y-116500000D03*
%TD*%
D15*
%TO.C,24V*%
X174000000Y-109000000D03*
D12*
X174000000Y-111500000D03*
%TD*%
D20*
%TO.C,Stepper*%
X116250000Y-106750000D03*
D21*
X116250000Y-109250000D03*
X116250000Y-111750000D03*
X116250000Y-114250000D03*
%TD*%
D22*
%TO.C,Teensy1*%
X174570000Y-75948400D03*
D14*
X172030000Y-75948400D03*
X169490000Y-75948400D03*
X166950000Y-75948400D03*
X164410000Y-75948400D03*
X161870000Y-75948400D03*
X159330000Y-75948400D03*
X156790000Y-75948400D03*
X154250000Y-75948400D03*
X151710000Y-75948400D03*
X149170000Y-75948400D03*
X146630000Y-75948400D03*
X144090000Y-75948400D03*
X141550000Y-75948400D03*
X139010000Y-75948400D03*
X136470000Y-75948400D03*
X133930000Y-75948400D03*
X131390000Y-75948400D03*
X128850000Y-75948400D03*
X126310000Y-75948400D03*
X123770000Y-75948400D03*
X121230000Y-75948400D03*
X118690000Y-75948400D03*
X116150000Y-75948400D03*
X116150000Y-91188400D03*
X118690000Y-91188400D03*
X121230000Y-91188400D03*
X123770000Y-91188400D03*
X126310000Y-91188400D03*
X128850000Y-91188400D03*
X131390000Y-91188400D03*
X133930000Y-91188400D03*
X136470000Y-91188400D03*
X139010000Y-91188400D03*
X141550000Y-91188400D03*
X144090000Y-91188400D03*
X146630000Y-91188400D03*
X149170000Y-91188400D03*
X151710000Y-91188400D03*
X154250000Y-91188400D03*
X156790000Y-91188400D03*
X159330000Y-91188400D03*
X161870000Y-91188400D03*
X164410000Y-91188400D03*
X166950000Y-91188400D03*
X169490000Y-91188400D03*
X172030000Y-91188400D03*
X174570000Y-91188400D03*
X172030000Y-88648400D03*
X128850000Y-78488400D03*
X128850000Y-81028400D03*
X128850000Y-83568400D03*
X128850000Y-86108400D03*
X128850000Y-88648400D03*
D22*
X168270800Y-78999200D03*
D14*
X165730800Y-78999200D03*
X163190800Y-78999200D03*
X160650800Y-78999200D03*
X158110800Y-78999200D03*
D23*
X161600000Y-88750000D03*
D24*
X161600000Y-86750000D03*
X161600000Y-84750000D03*
X159600000Y-84750000D03*
X159600000Y-86750000D03*
X159600000Y-88750000D03*
X173840000Y-84838400D03*
X173840000Y-82298400D03*
%TD*%
D20*
%TO.C,Linear Actuator*%
X174000000Y-97000000D03*
D21*
X174000000Y-99500000D03*
X174000000Y-102000000D03*
%TD*%
D18*
%TO.C,5V_BUCK*%
X161000000Y-115330000D03*
D19*
X161000000Y-112790000D03*
X161000000Y-110250000D03*
X161000000Y-107710000D03*
%TD*%
M02*
